<svg width="76" height="56" viewBox="0 0 76 56" fill="none" xmlns="http://www.w3.org/2000/svg">
<path d="M74.2964 46.2301L66.514 26.5057C65.8629 24.8556 63.5453 24.8069 62.8256 26.4283L59.9617 32.8797C59.7672 33.3178 59.4218 33.6715 58.9884 33.8764L51.6797 37.3311C50.0955 38.0799 50.1718 40.3594 51.8026 41.0006L71.7041 48.8254C73.3312 49.4651 74.938 47.8563 74.2964 46.2301Z" fill="white" stroke="#014F59" stroke-width="2"/>
<rect x="1" y="1" width="51" height="25" rx="12.5" fill="#E1FF26" stroke="white" stroke-width="2"/>
<path d="M12.6754 16.92H12.8954C13.2354 16.92 13.482 16.84 13.6354 16.68C13.7954 16.5267 13.8754 16.2567 13.8754 15.87V11H14.8554V15.87C14.8554 16.1833 14.822 16.4533 14.7554 16.68C14.6887 16.9133 14.5787 17.1033 14.4254 17.25C14.272 17.4033 14.0687 17.5167 13.8154 17.59C13.5687 17.67 13.262 17.71 12.8954 17.71H12.6754V16.92ZM13.8754 9H14.8554V9.85H13.8754V9ZM19.1666 14.77C19.0999 14.9767 18.9966 15.1567 18.8566 15.31C18.7166 15.4633 18.5533 15.59 18.3666 15.69C18.1866 15.79 17.9899 15.8667 17.7766 15.92C17.5633 15.9667 17.3499 15.99 17.1366 15.99C16.8899 15.99 16.6499 15.96 16.4166 15.9C16.1833 15.84 15.9766 15.75 15.7966 15.63C15.6166 15.51 15.4699 15.3633 15.3566 15.19C15.2499 15.01 15.1966 14.8067 15.1966 14.58C15.1966 14.2133 15.2933 13.9367 15.4866 13.75C15.6866 13.5567 15.9333 13.4167 16.2266 13.33C16.5266 13.2433 16.8466 13.1967 17.1866 13.19C17.5333 13.1767 17.8533 13.1667 18.1466 13.16C18.4466 13.1467 18.6933 13.12 18.8866 13.08C19.0799 13.04 19.1733 12.95 19.1666 12.81C19.1533 12.43 19.0233 12.16 18.7766 12C18.5366 11.84 18.1766 11.76 17.6966 11.76C17.5033 11.76 17.3199 11.7733 17.1466 11.8C16.9799 11.8267 16.8299 11.8767 16.6966 11.95C16.5699 12.0233 16.4633 12.1233 16.3766 12.25C16.2899 12.3767 16.2333 12.54 16.2066 12.74L15.3466 12.62C15.3799 12.32 15.4699 12.0633 15.6166 11.85C15.7633 11.6367 15.9466 11.4667 16.1666 11.34C16.3866 11.2067 16.6299 11.1133 16.8966 11.06C17.1633 11 17.4299 10.97 17.6966 10.97C17.9966 10.97 18.2899 11.0033 18.5766 11.07C18.8699 11.1367 19.1299 11.2467 19.3566 11.4C19.5833 11.5467 19.7633 11.7467 19.8966 12C20.0366 12.2467 20.1066 12.5567 20.1066 12.93V14.75C20.1066 14.8833 20.1299 14.97 20.1766 15.01C20.2233 15.05 20.2999 15.07 20.4066 15.07H20.6366V16H19.9966C19.7433 16 19.5399 15.9233 19.3866 15.77C19.2399 15.6167 19.1666 15.43 19.1666 15.21V14.77ZM16.1566 14.56C16.1566 14.6933 16.1899 14.81 16.2566 14.91C16.3233 15.0033 16.4099 15.0833 16.5166 15.15C16.6299 15.21 16.7599 15.2567 16.9066 15.29C17.0599 15.3167 17.2166 15.33 17.3766 15.33C17.5833 15.33 17.7933 15.3067 18.0066 15.26C18.2199 15.2067 18.4099 15.1333 18.5766 15.04C18.7499 14.9467 18.8899 14.8333 18.9966 14.7C19.1099 14.56 19.1666 14.4033 19.1666 14.23V13.57C19.0266 13.65 18.8533 13.7033 18.6466 13.73C18.4399 13.7567 18.2233 13.7733 17.9966 13.78C17.7766 13.7867 17.5566 13.7933 17.3366 13.8C17.1166 13.8067 16.9199 13.8333 16.7466 13.88C16.5733 13.9267 16.4299 14.0033 16.3166 14.11C16.2099 14.21 16.1566 14.36 16.1566 14.56ZM20.9943 11H21.9743V11.87C21.9743 11.9833 21.9643 12.11 21.9443 12.25C21.931 12.3833 21.911 12.5067 21.8843 12.62H21.9043C21.931 12.5067 21.961 12.3833 21.9943 12.25C22.0343 12.1167 22.081 12 22.1343 11.9C22.3077 11.56 22.5243 11.3133 22.7843 11.16C23.051 11 23.3343 10.92 23.6343 10.92C23.861 10.92 24.0543 10.95 24.2143 11.01C24.381 11.07 24.521 11.15 24.6343 11.25C24.7543 11.3433 24.851 11.4533 24.9243 11.58C24.9977 11.7067 25.0543 11.8367 25.0943 11.97C25.1277 12.0833 25.1443 12.21 25.1443 12.35C25.151 12.4833 25.1477 12.6067 25.1343 12.72H25.1543C25.1743 12.4867 25.2277 12.2633 25.3143 12.05C25.401 11.83 25.5143 11.6367 25.6543 11.47C25.801 11.3033 25.9743 11.17 26.1743 11.07C26.381 10.97 26.6143 10.92 26.8743 10.92C27.4477 10.92 27.8577 11.1233 28.1043 11.53C28.351 11.93 28.4743 12.49 28.4743 13.21V16H27.4943V13.42C27.4943 12.9267 27.411 12.5533 27.2443 12.3C27.0843 12.04 26.8543 11.91 26.5543 11.91C26.4277 11.91 26.2877 11.94 26.1343 12C25.981 12.06 25.8377 12.1733 25.7043 12.34C25.571 12.5 25.4577 12.7233 25.3643 13.01C25.271 13.29 25.2243 13.6533 25.2243 14.1V16H24.2443V13.42C24.2443 12.9 24.1677 12.52 24.0143 12.28C23.8677 12.0333 23.6443 11.91 23.3443 11.91C23.231 11.91 23.0943 11.94 22.9343 12C22.781 12.06 22.631 12.1733 22.4843 12.34C22.3443 12.5 22.2243 12.7233 22.1243 13.01C22.0243 13.29 21.9743 13.6533 21.9743 14.1V16H20.9943V11ZM31.8332 16.06C31.4666 16.06 31.1166 16.01 30.7832 15.91C30.4499 15.8033 30.1566 15.6433 29.9032 15.43C29.6566 15.2167 29.4599 14.95 29.3132 14.63C29.1666 14.31 29.0932 13.9333 29.0932 13.5C29.0932 13.0667 29.1666 12.69 29.3132 12.37C29.4599 12.05 29.6566 11.7833 29.9032 11.57C30.1566 11.3567 30.4499 11.2 30.7832 11.1C31.1166 10.9933 31.4666 10.94 31.8332 10.94C32.1999 10.94 32.5432 10.9933 32.8632 11.1C33.1899 11.2067 33.4732 11.3667 33.7132 11.58C33.9532 11.7867 34.1432 12.05 34.2832 12.37C34.4232 12.69 34.4932 13.0667 34.4932 13.5C34.4932 13.5733 34.4932 13.6233 34.4932 13.65C34.4932 13.67 34.4866 13.7133 34.4732 13.78H30.1132C30.1866 14.28 30.3799 14.6533 30.6932 14.9C31.0066 15.1467 31.3932 15.2667 31.8532 15.26C32.2399 15.2533 32.5766 15.18 32.8632 15.04C33.1566 14.9 33.3732 14.6433 33.5132 14.27L34.4132 14.39C34.3199 14.69 34.1866 14.9467 34.0132 15.16C33.8466 15.3733 33.6499 15.5467 33.4232 15.68C33.1966 15.8067 32.9466 15.9033 32.6732 15.97C32.4066 16.03 32.1266 16.06 31.8332 16.06ZM31.8532 11.71C31.6332 11.71 31.4132 11.7533 31.1932 11.84C30.9732 11.92 30.7799 12.0467 30.6132 12.22C30.4466 12.3867 30.3132 12.6 30.2132 12.86C30.1199 13.12 30.0866 13.4267 30.1132 13.78C30.1532 13.6467 30.1966 13.54 30.2432 13.46C30.2966 13.38 30.3566 13.32 30.4232 13.28C30.4966 13.24 30.5766 13.2133 30.6632 13.2C30.7566 13.1867 30.8632 13.18 30.9832 13.18H33.5632C33.4899 12.6667 33.2999 12.2967 32.9932 12.07C32.6932 11.8367 32.3132 11.7167 31.8532 11.71ZM35.7026 14.39C35.7493 14.73 35.8993 14.9667 36.1526 15.1C36.406 15.2267 36.756 15.29 37.2026 15.29C37.6826 15.29 38.046 15.22 38.2926 15.08C38.5393 14.94 38.6626 14.7067 38.6626 14.38C38.6626 14.22 38.566 14.1067 38.3726 14.04C38.186 13.9733 37.9526 13.9233 37.6726 13.89C37.3926 13.85 37.086 13.8133 36.7526 13.78C36.4193 13.74 36.1126 13.6767 35.8326 13.59C35.5526 13.5033 35.316 13.3733 35.1226 13.2C34.936 13.0267 34.8426 12.7867 34.8426 12.48C34.8426 12.24 34.886 12.0367 34.9726 11.87C35.066 11.6967 35.1826 11.5533 35.3226 11.44C35.4626 11.3267 35.6193 11.2367 35.7926 11.17C35.9726 11.0967 36.1493 11.0433 36.3226 11.01C36.496 10.9767 36.6626 10.9567 36.8226 10.95C36.9826 10.9367 37.1126 10.93 37.2126 10.93C37.406 10.93 37.626 10.95 37.8726 10.99C38.126 11.0233 38.366 11.09 38.5926 11.19C38.826 11.29 39.026 11.4267 39.1926 11.6C39.366 11.7733 39.4726 12 39.5126 12.28L38.6226 12.41C38.5693 12.13 38.426 11.9433 38.1926 11.85C37.966 11.75 37.6326 11.7 37.1926 11.7C36.7393 11.7 36.396 11.7567 36.1626 11.87C35.936 11.9833 35.8226 12.1967 35.8226 12.51C35.8226 12.67 35.916 12.7867 36.1026 12.86C36.296 12.9267 36.5326 12.98 36.8126 13.02C37.0926 13.06 37.3993 13.0967 37.7326 13.13C38.066 13.1633 38.3726 13.2233 38.6526 13.31C38.9326 13.3967 39.166 13.5233 39.3526 13.69C39.546 13.8567 39.6426 14.0933 39.6426 14.4C39.6426 14.78 39.5426 15.0833 39.3426 15.31C39.1493 15.53 38.916 15.6967 38.6426 15.81C38.376 15.9167 38.106 15.9833 37.8326 16.01C37.5593 16.0433 37.3426 16.06 37.1826 16.06C37.0893 16.06 36.966 16.0533 36.8126 16.04C36.6593 16.0267 36.496 16.0033 36.3226 15.97C36.1493 15.93 35.9726 15.8767 35.7926 15.81C35.6193 15.7433 35.456 15.6533 35.3026 15.54C35.156 15.4267 35.0326 15.29 34.9326 15.13C34.8326 14.97 34.7726 14.78 34.7526 14.56L35.7026 14.39Z" fill="#014F59"/>
</svg>
