<svg width="19" height="22" viewBox="0 0 19 22" fill="none" xmlns="http://www.w3.org/2000/svg">
<path fill-rule="evenodd" clip-rule="evenodd" d="M7.91078 3.3139C5.42549 3.26895 2.99108 4.42363 1.46804 6.54904C1.24607 6.85879 1.02611 7.23981 0.645491 7.89909L0.618401 7.94602C0.614408 7.95293 0.610392 7.95988 0.606363 7.96684C0.560828 8.04558 0.513552 8.12732 0.477434 8.20703C0.132873 8.96749 0.37348 9.86545 1.05211 10.3518C1.12325 10.4027 1.20506 10.4499 1.28386 10.4953C1.29083 10.4993 1.29778 10.5033 1.3047 10.5073L7.47513 14.0698L3.85013 20.3485C3.64302 20.7072 3.76593 21.1659 4.12465 21.373C4.48337 21.5801 4.94206 21.4572 5.14917 21.0985L8.77417 14.8198L14.9446 18.3823C14.9515 18.3863 14.9585 18.3903 14.9655 18.3944C15.0442 18.4399 15.1259 18.4872 15.2056 18.5233C15.9661 18.8678 16.864 18.6272 17.3503 17.9486C17.4013 17.8775 17.4485 17.7956 17.4939 17.7168C17.4979 17.7098 17.5019 17.7029 17.5059 17.696L17.533 17.6491C17.9136 16.9898 18.1336 16.6088 18.2909 16.2617C19.3703 13.8795 19.1527 11.1933 17.8704 9.06325L17.9786 8.87596C19.5664 6.12578 18.6241 2.60913 15.8739 1.02131C13.1237 -0.566504 9.6071 0.375776 8.01928 3.12596L7.91078 3.3139ZM9.54797 3.51982C10.0282 3.63337 10.503 3.79425 10.9661 4.00405C11.3132 4.16132 11.6942 4.38131 12.3535 4.76196L14.3959 5.94115C15.0551 6.32176 15.4362 6.54172 15.7459 6.76368C16.1587 7.0595 16.5351 7.38993 16.8733 7.74862C17.7633 5.78183 17.0328 3.42247 15.1239 2.32035C13.2149 1.21817 10.8062 1.76537 9.54797 3.51982ZM8.27125 4.83275C6.13385 4.66048 3.99414 5.59908 2.68731 7.42276C2.51387 7.66479 2.33266 7.97684 1.91744 8.69602C1.88715 8.74848 1.86914 8.77972 1.85594 8.80353C1.84754 8.81867 1.84331 8.82703 1.84331 8.82703C1.79485 8.93516 1.82896 9.06248 1.925 9.13189C1.925 9.13189 1.93284 9.13701 1.94768 9.14592C1.97102 9.15993 2.00223 9.17799 2.0547 9.20828L8.87465 13.1458L15.6946 17.0833C15.7471 17.1136 15.7783 17.1316 15.8021 17.1448C15.8163 17.1526 15.8231 17.1561 15.8252 17.1572C15.9339 17.2064 16.0616 17.1718 16.1311 17.0749C16.1286 17.0784 16.1312 17.0752 16.1445 17.053C16.1585 17.0297 16.1766 16.9985 16.2069 16.946C16.6221 16.2268 16.8017 15.9139 16.9246 15.6427C17.8521 13.5956 17.5927 11.2689 16.3694 9.50286C15.9706 8.92709 15.4692 8.41077 14.8722 7.98295C14.6302 7.80952 14.3181 7.62831 13.5989 7.21309L11.6504 6.08809C10.9312 5.67287 10.6182 5.49323 10.347 5.37035C9.67454 5.06565 8.97291 4.8893 8.27125 4.83275Z" fill="#014F59"/>
</svg>
