<svg width="39" height="16" viewBox="0 0 39 16" fill="none" xmlns="http://www.w3.org/2000/svg">
<path d="M0 15.4332V0.887695H1.67614V6.25701H1.81818C1.94129 6.06762 2.11174 5.82614 2.32955 5.53258C2.55208 5.23429 2.86932 4.96914 3.28125 4.73713C3.69792 4.50039 4.26136 4.38201 4.97159 4.38201C5.89015 4.38201 6.69981 4.61165 7.40057 5.07093C8.10133 5.53021 8.6482 6.18126 9.04119 7.02406C9.43419 7.86686 9.63068 8.86118 9.63068 10.007C9.63068 11.1623 9.43419 12.1637 9.04119 13.0113C8.6482 13.8541 8.10369 14.5075 7.40767 14.9715C6.71165 15.4308 5.90909 15.6604 5 15.6604C4.29924 15.6604 3.73816 15.5444 3.31676 15.3124C2.89536 15.0757 2.57102 14.8082 2.34375 14.5099C2.11648 14.2068 1.94129 13.9559 1.81818 13.757H1.61932V15.4332H0ZM1.64773 9.9786C1.64773 10.8025 1.76847 11.5293 2.00994 12.159C2.25142 12.784 2.60417 13.2741 3.06818 13.6292C3.5322 13.9796 4.10038 14.1547 4.77273 14.1547C5.47348 14.1547 6.05824 13.9701 6.52699 13.6008C7.00047 13.2267 7.35559 12.7248 7.59233 12.0951C7.83381 11.4606 7.95455 10.7551 7.95455 9.9786C7.95455 9.21156 7.83617 8.52027 7.59943 7.90474C7.36742 7.28448 7.01468 6.79442 6.54119 6.43457C6.07244 6.06999 5.48295 5.8877 4.77273 5.8877C4.09091 5.8877 3.51799 6.06052 3.05398 6.40616C2.58996 6.74707 2.23958 7.22529 2.00284 7.84082C1.7661 8.45162 1.64773 9.16421 1.64773 9.9786Z" fill="#7D22FF"/>
<path d="M14.9685 15.6604C13.9173 15.6604 13.0106 15.4284 12.2483 14.9644C11.4907 14.4957 10.906 13.8422 10.494 13.0042C10.0868 12.1614 9.88324 11.1813 9.88324 10.0638C9.88324 8.94641 10.0868 7.96156 10.494 7.10929C10.906 6.25228 11.4789 5.58467 12.2128 5.10645C12.9514 4.62349 13.8132 4.38201 14.798 4.38201C15.3662 4.38201 15.9273 4.47671 16.4813 4.6661C17.0352 4.8555 17.5395 5.16326 17.994 5.5894C18.4486 6.0108 18.8108 6.56951 19.0807 7.26554C19.3506 7.96156 19.4855 8.81857 19.4855 9.83656V10.5468H11.0764V9.09792H17.781C17.781 8.48239 17.6579 7.93315 17.4116 7.4502C17.1702 6.96724 16.8245 6.58609 16.3747 6.30673C15.9296 6.02737 15.4041 5.8877 14.798 5.8877C14.1304 5.8877 13.5527 6.05342 13.0651 6.38485C12.5821 6.71156 12.2104 7.1377 11.95 7.66326C11.6896 8.18883 11.5594 8.75228 11.5594 9.3536V10.3195C11.5594 11.1434 11.7014 11.8418 11.9855 12.4147C12.2743 12.9829 12.6744 13.4161 13.1858 13.7144C13.6972 14.008 14.2914 14.1547 14.9685 14.1547C15.4088 14.1547 15.8065 14.0932 16.1616 13.9701C16.5215 13.8422 16.8316 13.6528 17.092 13.4019C17.3525 13.1462 17.5537 12.829 17.6957 12.4502L19.3151 12.9047C19.1446 13.454 18.8581 13.9369 18.4557 14.3536C18.0532 14.7655 17.5561 15.0875 16.9642 15.3195C16.3723 15.5468 15.7071 15.6604 14.9685 15.6604Z" fill="#7D22FF"/>
<path d="M24.9795 4.52406V5.94451H19.3261V4.52406H24.9795ZM20.9739 1.91042H22.65V12.3082C22.65 12.7816 22.7187 13.1367 22.856 13.3735C22.998 13.6055 23.1779 13.7617 23.3957 13.8422C23.6183 13.918 23.8527 13.9559 24.0989 13.9559C24.2835 13.9559 24.435 13.9464 24.5534 13.9275C24.6718 13.9038 24.7665 13.8849 24.8375 13.8707L25.1784 15.3763C25.0648 15.4189 24.9062 15.4616 24.7026 15.5042C24.499 15.5515 24.2409 15.5752 23.9284 15.5752C23.4549 15.5752 22.9909 15.4734 22.5364 15.2698C22.0866 15.0662 21.7125 14.7561 21.4142 14.3394C21.1206 13.9227 20.9739 13.3972 20.9739 12.7627V1.91042Z" fill="#7D22FF"/>
<path d="M28.9111 15.6888C28.2198 15.6888 27.5924 15.5586 27.029 15.2982C26.4655 15.0331 26.0181 14.6519 25.6866 14.1547C25.3552 13.6528 25.1895 13.0468 25.1895 12.3366C25.1895 11.7116 25.3126 11.2049 25.5588 10.8167C25.805 10.4237 26.1341 10.1159 26.546 9.89338C26.958 9.67084 27.4125 9.50512 27.9097 9.39622C28.4116 9.28258 28.9158 9.19262 29.4224 9.12633C30.0853 9.04111 30.6227 8.97718 31.0347 8.93457C31.4513 8.88722 31.7544 8.8091 31.9438 8.7002C32.1379 8.59129 32.2349 8.4019 32.2349 8.13201V8.0752C32.2349 7.37444 32.0432 6.82993 31.6597 6.44167C31.2809 6.05342 30.7056 5.85929 29.9338 5.85929C29.1336 5.85929 28.5063 6.03448 28.0517 6.38485C27.5972 6.73523 27.2776 7.10929 27.0929 7.50701L25.502 6.93883C25.7861 6.27595 26.1649 5.75985 26.6384 5.39054C27.1166 5.01648 27.6374 4.75607 28.2009 4.60929C28.769 4.45777 29.3277 4.38201 29.877 4.38201C30.2274 4.38201 30.6298 4.42463 31.0844 4.50985C31.5437 4.59035 31.9864 4.75843 32.4125 5.01412C32.8434 5.2698 33.2009 5.65569 33.4849 6.17179C33.769 6.68788 33.9111 7.37917 33.9111 8.24565V15.4332H32.2349V13.9559H32.1497C32.0361 14.1926 31.8467 14.4459 31.5815 14.7158C31.3164 14.9857 30.9636 15.2153 30.5233 15.4047C30.083 15.5941 29.5455 15.6888 28.9111 15.6888ZM29.1668 14.1832C29.8296 14.1832 30.3884 14.0529 30.8429 13.7925C31.3022 13.5321 31.6478 13.1959 31.8798 12.784C32.1166 12.3721 32.2349 11.9388 32.2349 11.4843V9.9502C32.1639 10.0354 32.0077 10.1135 31.7662 10.1846C31.5295 10.2509 31.2548 10.31 30.9423 10.3621C30.6346 10.4095 30.3339 10.4521 30.0403 10.49C29.7515 10.5231 29.5171 10.5515 29.3372 10.5752C28.9016 10.632 28.4944 10.7243 28.1156 10.8522C27.7416 10.9753 27.4385 11.1623 27.2065 11.4133C26.9793 11.6595 26.8656 11.9957 26.8656 12.4218C26.8656 13.0042 27.0811 13.4445 27.5119 13.7428C27.9475 14.0364 28.4991 14.1832 29.1668 14.1832Z" fill="#7D22FF"/>
<path d="M35.4658 4.8433V2.24316H36.3444C36.5475 2.24316 36.7143 2.27787 36.8446 2.34727C36.9749 2.41583 37.0714 2.5102 37.1341 2.63039C37.1967 2.75058 37.228 2.88727 37.228 3.04047C37.228 3.19367 37.1967 3.32952 37.1341 3.44801C37.0714 3.56651 36.9754 3.65961 36.8459 3.72732C36.7164 3.79419 36.5509 3.82762 36.3495 3.82762H35.6385V3.54323H36.3393C36.4781 3.54323 36.5898 3.52292 36.6745 3.48229C36.76 3.44166 36.8218 3.38411 36.8598 3.30963C36.8988 3.2343 36.9182 3.14458 36.9182 3.04047C36.9182 2.93636 36.8988 2.84538 36.8598 2.76751C36.8209 2.68964 36.7587 2.62955 36.6732 2.58723C36.5877 2.54406 36.4747 2.52248 36.3342 2.52248H35.7807V4.8433H35.4658ZM36.6897 3.67527L37.3296 4.8433H36.9639L36.3342 3.67527H36.6897Z" fill="#7D22FF"/>
<path d="M38.5997 3.54387C38.5997 4.84784 37.5427 5.90493 36.2387 5.90493C34.9347 5.90493 33.8776 4.84784 33.8776 3.54387C33.8776 2.23989 34.9347 1.18281 36.2387 1.18281C37.5427 1.18281 38.5997 2.23989 38.5997 3.54387Z" stroke="#7D22FF" stroke-width="0.35"/>
</svg>
