<svg width="714" height="714" viewBox="0 0 714 714" fill="none" xmlns="http://www.w3.org/2000/svg">
<ellipse cx="54.6892" cy="117.285" rx="54.6892" ry="117.285" transform="matrix(-0.990714 0.135965 0.135965 0.990714 380.312 96.6367)" fill="url(#paint0_linear_6461_136135)" fill-opacity="0.5"/>
<path d="M288.391 227.637C292.787 259.668 302.818 287.811 315.461 307.419C328.128 327.064 343.301 337.981 357.956 335.969C372.61 333.958 384.281 319.358 391.187 297.026C398.08 274.737 400.159 244.932 395.763 212.901C391.367 180.87 381.336 152.726 368.693 133.119C356.025 113.473 340.853 102.557 326.198 104.568C311.543 106.579 299.873 121.18 292.967 143.511C286.073 165.8 283.995 195.606 288.391 227.637Z" stroke="url(#paint1_linear_6461_136135)" stroke-opacity="0.5"/>
<g filter="url(#filter0_b_6461_136135)">
<ellipse cx="54.6892" cy="117.285" rx="54.6892" ry="117.285" transform="matrix(-0.990714 0.135965 0.135965 0.990714 374.436 97.4434)" fill="url(#paint2_linear_6461_136135)" fill-opacity="0.5"/>
<path d="M282.515 228.443C286.911 260.474 296.942 288.618 309.585 308.225C322.252 327.871 337.425 338.787 352.08 336.776C366.734 334.765 378.405 320.164 385.311 297.833C392.204 275.544 394.283 245.739 389.887 213.707C385.491 181.676 375.46 153.533 362.817 133.925C350.149 114.28 334.977 103.363 320.322 105.375C305.667 107.386 293.997 121.986 287.091 144.318C280.198 166.607 278.119 196.412 282.515 228.443Z" stroke="url(#paint3_linear_6461_136135)" stroke-opacity="0.5"/>
</g>
<ellipse cx="54.6892" cy="117.285" rx="54.6892" ry="117.285" transform="matrix(-0.604398 0.796682 0.796682 0.604398 190.758 153.806)" fill="url(#paint4_linear_6461_136135)" fill-opacity="0.5"/>
<path d="M218.391 311.434C244.149 330.975 271.143 343.782 293.947 348.707C316.796 353.641 335.243 350.632 344.184 338.847C353.124 327.063 351.052 308.486 340.145 287.812C329.258 267.177 309.652 244.632 283.895 225.091C258.137 205.55 231.143 192.743 208.339 187.818C185.49 182.884 167.042 185.893 158.102 197.678C149.162 209.462 151.234 228.039 162.141 248.713C173.027 269.348 192.633 291.893 218.391 311.434Z" stroke="url(#paint5_linear_6461_136135)" stroke-opacity="0.5"/>
<g filter="url(#filter1_b_6461_136135)">
<ellipse cx="54.6892" cy="117.285" rx="54.6892" ry="117.285" transform="matrix(-0.604398 0.796682 0.796682 0.604398 187.173 158.531)" fill="url(#paint6_linear_6461_136135)" fill-opacity="0.5"/>
<path d="M214.806 316.16C240.564 335.701 267.558 348.508 290.362 353.433C313.211 358.367 331.658 355.358 340.599 343.573C349.539 331.788 347.467 313.212 336.56 292.538C325.673 271.903 306.068 249.358 280.31 229.817C254.552 210.276 227.558 197.468 204.754 192.544C181.905 187.609 163.457 190.619 154.517 202.403C145.577 214.188 147.649 232.764 158.556 253.439C169.442 274.073 189.048 296.619 214.806 316.16Z" stroke="url(#paint7_linear_6461_136135)" stroke-opacity="0.5"/>
</g>
<ellipse cx="220.013" cy="366.985" rx="54.6892" ry="117.285" transform="rotate(-97.8144 220.013 366.985)" fill="url(#paint8_linear_6461_136135)" fill-opacity="0.5"/>
<path d="M212.645 313.299C244.676 308.903 274.482 310.982 296.771 317.875C319.102 324.781 333.703 336.452 335.714 351.106C337.725 365.761 326.809 380.934 307.163 393.601C287.556 406.244 259.412 416.275 227.381 420.671C195.35 425.067 165.545 422.989 143.256 416.096C120.924 409.189 106.324 397.519 104.312 382.864C102.301 368.209 113.218 353.037 132.863 340.369C152.471 327.727 180.614 317.695 212.645 313.299Z" stroke="url(#paint9_linear_6461_136135)" stroke-opacity="0.5"/>
<g filter="url(#filter2_b_6461_136135)">
<ellipse cx="219.206" cy="361.111" rx="54.6892" ry="117.285" transform="rotate(-97.8144 219.206 361.111)" fill="url(#paint10_linear_6461_136135)" fill-opacity="0.5"/>
<path d="M211.838 307.425C243.869 303.029 273.674 305.108 295.963 312.001C318.295 318.907 332.895 330.578 334.906 345.232C336.918 359.887 326.001 375.06 306.356 387.727C286.748 400.37 258.605 410.401 226.573 414.797C194.542 419.193 164.737 417.115 142.448 410.222C120.116 403.315 105.516 391.645 103.505 376.99C101.494 362.335 112.41 347.163 132.056 334.495C151.663 321.853 179.807 311.821 211.838 307.425Z" stroke="url(#paint11_linear_6461_136135)" stroke-opacity="0.5"/>
</g>
<ellipse cx="54.6892" cy="117.285" rx="54.6892" ry="117.285" transform="matrix(0.796682 0.604398 0.604398 -0.796682 154.328 522.331)" fill="url(#paint12_linear_6461_136135)" fill-opacity="0.5"/>
<path d="M311.957 494.698C331.498 468.94 344.305 441.946 349.23 419.142C354.164 396.293 351.155 377.846 339.37 368.905C327.585 359.965 309.009 362.037 288.335 372.944C267.7 383.83 245.154 403.436 225.614 429.194C206.073 454.952 193.265 481.946 188.341 504.75C183.406 527.599 186.416 546.046 198.2 554.987C209.985 563.927 228.561 561.855 249.236 550.948C269.87 540.062 292.416 520.456 311.957 494.698Z" stroke="url(#paint13_linear_6461_136135)" stroke-opacity="0.5"/>
<g filter="url(#filter3_b_6461_136135)">
<ellipse cx="54.6892" cy="117.285" rx="54.6892" ry="117.285" transform="matrix(0.796682 0.604398 0.604398 -0.796682 159.052 525.914)" fill="url(#paint14_linear_6461_136135)" fill-opacity="0.5"/>
<path d="M316.68 498.281C336.221 472.523 349.028 445.529 353.953 422.725C358.888 399.876 355.878 381.429 344.094 372.488C332.309 363.548 313.733 365.62 293.058 376.527C272.423 387.413 249.878 407.019 230.337 432.777C210.796 458.535 197.989 485.529 193.064 508.333C188.13 531.182 191.139 549.629 202.924 558.57C214.709 567.51 233.285 565.438 253.959 554.531C274.594 543.645 297.139 524.039 316.68 498.281Z" stroke="url(#paint15_linear_6461_136135)" stroke-opacity="0.5"/>
</g>
<ellipse cx="54.6892" cy="117.285" rx="54.6892" ry="117.285" transform="matrix(0.990714 -0.135965 -0.135965 -0.990714 319.918 617.747)" fill="url(#paint16_linear_6461_136135)" fill-opacity="0.5"/>
<path d="M411.839 486.747C407.443 454.716 397.411 426.573 384.768 406.965C372.101 387.32 356.929 376.403 342.274 378.414C327.619 380.426 315.949 395.026 309.042 417.358C302.149 439.646 300.071 469.452 304.467 501.483C308.863 533.514 318.894 561.658 331.537 581.265C344.204 600.911 359.377 611.827 374.031 609.816C388.686 607.805 400.357 593.204 407.263 570.873C414.156 548.584 416.235 518.778 411.839 486.747Z" stroke="url(#paint17_linear_6461_136135)" stroke-opacity="0.5"/>
<g filter="url(#filter4_b_6461_136135)">
<ellipse cx="54.6892" cy="117.285" rx="54.6892" ry="117.285" transform="matrix(0.990714 -0.135965 -0.135965 -0.990714 325.794 616.94)" fill="url(#paint18_linear_6461_136135)" fill-opacity="0.5"/>
<path d="M417.715 485.941C413.319 453.91 403.287 425.766 390.644 406.158C377.977 386.513 362.805 375.596 348.15 377.608C333.495 379.619 321.825 394.219 314.918 416.551C308.025 438.84 305.947 468.645 310.343 500.676C314.739 532.707 324.77 560.851 337.413 580.459C350.08 600.104 365.253 611.02 379.907 609.009C394.562 606.998 406.233 592.398 413.139 570.066C420.032 547.777 422.11 517.972 417.715 485.941Z" stroke="url(#paint19_linear_6461_136135)" stroke-opacity="0.5"/>
</g>
<ellipse cx="465.389" cy="441.553" rx="54.6892" ry="117.285" transform="rotate(127.186 465.389 441.553)" fill="url(#paint20_linear_6461_136135)" fill-opacity="0.5"/>
<path d="M432.637 484.725C406.879 465.184 387.273 442.638 376.387 422.004C365.479 401.329 363.408 382.753 372.348 370.968C381.288 359.184 399.736 356.174 422.584 361.108C445.389 366.033 472.383 378.84 498.141 398.381C523.898 417.922 543.504 440.468 554.391 461.102C565.298 481.777 567.37 500.353 558.429 512.138C549.489 523.922 531.041 526.932 508.193 521.998C485.388 517.073 458.395 504.266 432.637 484.725Z" stroke="url(#paint21_linear_6461_136135)" stroke-opacity="0.5"/>
<g filter="url(#filter5_b_6461_136135)">
<ellipse cx="461.804" cy="446.278" rx="54.6892" ry="117.285" transform="rotate(127.186 461.804 446.278)" fill="url(#paint22_linear_6461_136135)" fill-opacity="0.5"/>
<path d="M429.052 489.449C403.294 469.908 383.688 447.363 372.802 426.728C361.894 406.054 359.823 387.477 368.763 375.693C377.703 363.908 396.151 360.899 418.999 365.833C441.804 370.758 468.798 383.565 494.556 403.106C520.313 422.647 539.919 445.192 550.806 465.827C561.713 486.501 563.785 505.078 554.844 516.862C545.904 528.647 527.456 531.656 504.608 526.722C481.803 521.797 454.81 508.99 429.052 489.449Z" stroke="url(#paint23_linear_6461_136135)" stroke-opacity="0.5"/>
</g>
<ellipse cx="492.758" cy="342.851" rx="54.6892" ry="117.285" transform="rotate(82.1856 492.758 342.851)" fill="url(#paint24_linear_6461_136135)" fill-opacity="0.5"/>
<path d="M500.126 396.537C468.095 400.933 438.29 398.854 416.001 391.961C393.669 385.055 379.069 373.384 377.057 358.729C375.046 344.075 385.963 328.902 405.608 316.235C425.216 303.592 453.359 293.561 485.39 289.165C517.421 284.769 547.227 286.847 569.516 293.74C591.847 300.647 606.448 312.317 608.459 326.972C610.47 341.627 599.554 356.799 579.908 369.466C560.301 382.109 532.157 392.141 500.126 396.537Z" stroke="url(#paint25_linear_6461_136135)" stroke-opacity="0.5"/>
<g filter="url(#filter6_b_6461_136135)">
<ellipse cx="493.565" cy="348.727" rx="54.6892" ry="117.285" transform="rotate(82.1856 493.565 348.727)" fill="url(#paint26_linear_6461_136135)" fill-opacity="0.5"/>
<path d="M500.933 402.413C468.902 406.809 439.096 404.73 416.807 397.837C394.476 390.931 379.875 379.26 377.864 364.605C375.853 349.951 386.769 334.778 406.415 322.111C426.022 309.468 454.166 299.437 486.197 295.041C518.228 290.645 548.034 292.723 570.322 299.616C592.654 306.523 607.254 318.193 609.266 332.848C611.277 347.503 600.36 362.675 580.715 375.342C561.107 387.985 532.964 398.017 500.933 402.413Z" stroke="url(#paint27_linear_6461_136135)" stroke-opacity="0.5"/>
</g>
<ellipse cx="435.507" cy="244.373" rx="54.6892" ry="117.285" transform="rotate(37.1856 435.507 244.373)" fill="url(#paint28_linear_6461_136135)" fill-opacity="0.5"/>
<path d="M478.679 277.125C459.138 302.883 436.592 322.489 415.958 333.375C395.283 344.282 376.707 346.354 364.922 337.414C353.138 328.474 350.128 310.026 355.063 287.177C359.987 264.373 372.795 237.379 392.336 211.621C411.876 185.863 434.422 166.258 455.057 155.371C475.731 144.464 494.307 142.392 506.092 151.332C517.877 160.273 520.886 178.72 515.952 201.569C511.027 224.373 498.22 251.367 478.679 277.125Z" stroke="url(#paint29_linear_6461_136135)" stroke-opacity="0.5"/>
<g filter="url(#filter7_b_6461_136135)">
<ellipse cx="440.231" cy="247.956" rx="54.6892" ry="117.285" transform="rotate(37.1856 440.231 247.956)" fill="url(#paint30_linear_6461_136135)" fill-opacity="0.5"/>
<path d="M483.402 280.708C463.861 306.466 441.316 326.072 420.681 336.958C400.007 347.865 381.431 349.937 369.646 340.997C357.861 332.057 354.852 313.609 359.786 290.76C364.711 267.956 377.518 240.962 397.059 215.204C416.6 189.446 439.146 169.841 459.78 158.954C480.455 148.047 499.031 145.975 510.816 154.915C522.6 163.856 525.61 182.303 520.675 205.152C515.75 227.956 502.943 254.95 483.402 280.708Z" stroke="url(#paint31_linear_6461_136135)" stroke-opacity="0.5"/>
</g>
<defs>
<filter id="filter0_b_6461_136135" x="271.707" y="96.6377" width="128.988" height="248.876" filterUnits="userSpaceOnUse" color-interpolation-filters="sRGB">
<feFlood flood-opacity="0" result="BackgroundImageFix"/>
<feGaussianBlur in="BackgroundImageFix" stdDeviation="4"/>
<feComposite in2="SourceAlpha" operator="in" result="effect1_backgroundBlur_6461_136135"/>
<feBlend mode="normal" in="SourceGraphic" in2="effect1_backgroundBlur_6461_136135" result="shape"/>
</filter>
<filter id="filter1_b_6461_136135" x="140.418" y="181.771" width="214.28" height="182.436" filterUnits="userSpaceOnUse" color-interpolation-filters="sRGB">
<feFlood flood-opacity="0" result="BackgroundImageFix"/>
<feGaussianBlur in="BackgroundImageFix" stdDeviation="4"/>
<feComposite in2="SourceAlpha" operator="in" result="effect1_backgroundBlur_6461_136135"/>
<feBlend mode="normal" in="SourceGraphic" in2="effect1_backgroundBlur_6461_136135" result="shape"/>
</filter>
<filter id="filter2_b_6461_136135" x="94.7676" y="296.617" width="248.876" height="128.988" filterUnits="userSpaceOnUse" color-interpolation-filters="sRGB">
<feFlood flood-opacity="0" result="BackgroundImageFix"/>
<feGaussianBlur in="BackgroundImageFix" stdDeviation="4"/>
<feComposite in2="SourceAlpha" operator="in" result="effect1_backgroundBlur_6461_136135"/>
<feBlend mode="normal" in="SourceGraphic" in2="effect1_backgroundBlur_6461_136135" result="shape"/>
</filter>
<filter id="filter3_b_6461_136135" x="182.291" y="358.389" width="182.436" height="214.28" filterUnits="userSpaceOnUse" color-interpolation-filters="sRGB">
<feFlood flood-opacity="0" result="BackgroundImageFix"/>
<feGaussianBlur in="BackgroundImageFix" stdDeviation="4"/>
<feComposite in2="SourceAlpha" operator="in" result="effect1_backgroundBlur_6461_136135"/>
<feBlend mode="normal" in="SourceGraphic" in2="effect1_backgroundBlur_6461_136135" result="shape"/>
</filter>
<filter id="filter4_b_6461_136135" x="299.534" y="368.87" width="128.988" height="248.876" filterUnits="userSpaceOnUse" color-interpolation-filters="sRGB">
<feFlood flood-opacity="0" result="BackgroundImageFix"/>
<feGaussianBlur in="BackgroundImageFix" stdDeviation="4"/>
<feComposite in2="SourceAlpha" operator="in" result="effect1_backgroundBlur_6461_136135"/>
<feBlend mode="normal" in="SourceGraphic" in2="effect1_backgroundBlur_6461_136135" result="shape"/>
</filter>
<filter id="filter5_b_6461_136135" x="354.663" y="355.06" width="214.281" height="182.437" filterUnits="userSpaceOnUse" color-interpolation-filters="sRGB">
<feFlood flood-opacity="0" result="BackgroundImageFix"/>
<feGaussianBlur in="BackgroundImageFix" stdDeviation="4"/>
<feComposite in2="SourceAlpha" operator="in" result="effect1_backgroundBlur_6461_136135"/>
<feBlend mode="normal" in="SourceGraphic" in2="effect1_backgroundBlur_6461_136135" result="shape"/>
</filter>
<filter id="filter6_b_6461_136135" x="369.127" y="284.232" width="248.876" height="128.988" filterUnits="userSpaceOnUse" color-interpolation-filters="sRGB">
<feFlood flood-opacity="0" result="BackgroundImageFix"/>
<feGaussianBlur in="BackgroundImageFix" stdDeviation="4"/>
<feComposite in2="SourceAlpha" operator="in" result="effect1_backgroundBlur_6461_136135"/>
<feBlend mode="normal" in="SourceGraphic" in2="effect1_backgroundBlur_6461_136135" result="shape"/>
</filter>
<filter id="filter7_b_6461_136135" x="349.013" y="140.815" width="182.437" height="214.281" filterUnits="userSpaceOnUse" color-interpolation-filters="sRGB">
<feFlood flood-opacity="0" result="BackgroundImageFix"/>
<feGaussianBlur in="BackgroundImageFix" stdDeviation="4"/>
<feComposite in2="SourceAlpha" operator="in" result="effect1_backgroundBlur_6461_136135"/>
<feBlend mode="normal" in="SourceGraphic" in2="effect1_backgroundBlur_6461_136135" result="shape"/>
</filter>
<linearGradient id="paint0_linear_6461_136135" x1="54.6892" y1="0" x2="54.6892" y2="234.571" gradientUnits="userSpaceOnUse">
<stop stop-color="#7D22FF" stop-opacity="0.28"/>
<stop offset="1" stop-color="#FF8E8E" stop-opacity="0.23"/>
</linearGradient>
<linearGradient id="paint1_linear_6461_136135" x1="326.13" y1="104.073" x2="358.024" y2="336.465" gradientUnits="userSpaceOnUse">
<stop stop-color="#7D22FF"/>
<stop offset="1" stop-color="#FF8E8E"/>
</linearGradient>
<linearGradient id="paint2_linear_6461_136135" x1="54.6892" y1="0" x2="54.6892" y2="234.571" gradientUnits="userSpaceOnUse">
<stop stop-color="#7D22FF" stop-opacity="0.28"/>
<stop offset="1" stop-color="#FF8E8E" stop-opacity="0.23"/>
</linearGradient>
<linearGradient id="paint3_linear_6461_136135" x1="320.254" y1="104.879" x2="352.148" y2="337.271" gradientUnits="userSpaceOnUse">
<stop stop-color="#7D22FF"/>
<stop offset="1" stop-color="#FF8E8E"/>
</linearGradient>
<linearGradient id="paint4_linear_6461_136135" x1="54.6892" y1="0" x2="54.6892" y2="234.571" gradientUnits="userSpaceOnUse">
<stop stop-color="#7D22FF" stop-opacity="0.28"/>
<stop offset="1" stop-color="#FF8E8E" stop-opacity="0.23"/>
</linearGradient>
<linearGradient id="paint5_linear_6461_136135" x1="157.704" y1="197.376" x2="344.582" y2="339.15" gradientUnits="userSpaceOnUse">
<stop stop-color="#7D22FF"/>
<stop offset="1" stop-color="#FF8E8E"/>
</linearGradient>
<linearGradient id="paint6_linear_6461_136135" x1="54.6892" y1="0" x2="54.6892" y2="234.571" gradientUnits="userSpaceOnUse">
<stop stop-color="#7D22FF" stop-opacity="0.28"/>
<stop offset="1" stop-color="#FF8E8E" stop-opacity="0.23"/>
</linearGradient>
<linearGradient id="paint7_linear_6461_136135" x1="154.119" y1="202.101" x2="340.997" y2="343.875" gradientUnits="userSpaceOnUse">
<stop stop-color="#7D22FF"/>
<stop offset="1" stop-color="#FF8E8E"/>
</linearGradient>
<linearGradient id="paint8_linear_6461_136135" x1="220.013" y1="249.7" x2="220.013" y2="484.27" gradientUnits="userSpaceOnUse">
<stop stop-color="#7D22FF" stop-opacity="0.28"/>
<stop offset="1" stop-color="#FF8E8E" stop-opacity="0.23"/>
</linearGradient>
<linearGradient id="paint9_linear_6461_136135" x1="103.817" y1="382.932" x2="336.209" y2="351.038" gradientUnits="userSpaceOnUse">
<stop stop-color="#7D22FF"/>
<stop offset="1" stop-color="#FF8E8E"/>
</linearGradient>
<linearGradient id="paint10_linear_6461_136135" x1="219.206" y1="243.826" x2="219.206" y2="478.396" gradientUnits="userSpaceOnUse">
<stop stop-color="#7D22FF" stop-opacity="0.28"/>
<stop offset="1" stop-color="#FF8E8E" stop-opacity="0.23"/>
</linearGradient>
<linearGradient id="paint11_linear_6461_136135" x1="103.009" y1="377.058" x2="335.402" y2="345.164" gradientUnits="userSpaceOnUse">
<stop stop-color="#7D22FF"/>
<stop offset="1" stop-color="#FF8E8E"/>
</linearGradient>
<linearGradient id="paint12_linear_6461_136135" x1="54.6892" y1="0" x2="54.6892" y2="234.571" gradientUnits="userSpaceOnUse">
<stop stop-color="#7D22FF" stop-opacity="0.28"/>
<stop offset="1" stop-color="#FF8E8E" stop-opacity="0.23"/>
</linearGradient>
<linearGradient id="paint13_linear_6461_136135" x1="197.898" y1="555.385" x2="339.672" y2="368.507" gradientUnits="userSpaceOnUse">
<stop stop-color="#7D22FF"/>
<stop offset="1" stop-color="#FF8E8E"/>
</linearGradient>
<linearGradient id="paint14_linear_6461_136135" x1="54.6892" y1="0" x2="54.6892" y2="234.571" gradientUnits="userSpaceOnUse">
<stop stop-color="#7D22FF" stop-opacity="0.28"/>
<stop offset="1" stop-color="#FF8E8E" stop-opacity="0.23"/>
</linearGradient>
<linearGradient id="paint15_linear_6461_136135" x1="202.622" y1="558.968" x2="344.396" y2="372.09" gradientUnits="userSpaceOnUse">
<stop stop-color="#7D22FF"/>
<stop offset="1" stop-color="#FF8E8E"/>
</linearGradient>
<linearGradient id="paint16_linear_6461_136135" x1="54.6892" y1="0" x2="54.6892" y2="234.571" gradientUnits="userSpaceOnUse">
<stop stop-color="#7D22FF" stop-opacity="0.28"/>
<stop offset="1" stop-color="#FF8E8E" stop-opacity="0.23"/>
</linearGradient>
<linearGradient id="paint17_linear_6461_136135" x1="374.099" y1="610.311" x2="342.206" y2="377.919" gradientUnits="userSpaceOnUse">
<stop stop-color="#7D22FF"/>
<stop offset="1" stop-color="#FF8E8E"/>
</linearGradient>
<linearGradient id="paint18_linear_6461_136135" x1="54.6892" y1="0" x2="54.6892" y2="234.571" gradientUnits="userSpaceOnUse">
<stop stop-color="#7D22FF" stop-opacity="0.28"/>
<stop offset="1" stop-color="#FF8E8E" stop-opacity="0.23"/>
</linearGradient>
<linearGradient id="paint19_linear_6461_136135" x1="379.975" y1="609.505" x2="348.082" y2="377.112" gradientUnits="userSpaceOnUse">
<stop stop-color="#7D22FF"/>
<stop offset="1" stop-color="#FF8E8E"/>
</linearGradient>
<linearGradient id="paint20_linear_6461_136135" x1="465.389" y1="324.268" x2="465.389" y2="558.838" gradientUnits="userSpaceOnUse">
<stop stop-color="#7D22FF" stop-opacity="0.28"/>
<stop offset="1" stop-color="#FF8E8E" stop-opacity="0.23"/>
</linearGradient>
<linearGradient id="paint21_linear_6461_136135" x1="558.828" y1="512.44" x2="371.95" y2="370.666" gradientUnits="userSpaceOnUse">
<stop stop-color="#7D22FF"/>
<stop offset="1" stop-color="#FF8E8E"/>
</linearGradient>
<linearGradient id="paint22_linear_6461_136135" x1="461.804" y1="328.992" x2="461.804" y2="563.563" gradientUnits="userSpaceOnUse">
<stop stop-color="#7D22FF" stop-opacity="0.28"/>
<stop offset="1" stop-color="#FF8E8E" stop-opacity="0.23"/>
</linearGradient>
<linearGradient id="paint23_linear_6461_136135" x1="555.243" y1="517.165" x2="368.365" y2="375.391" gradientUnits="userSpaceOnUse">
<stop stop-color="#7D22FF"/>
<stop offset="1" stop-color="#FF8E8E"/>
</linearGradient>
<linearGradient id="paint24_linear_6461_136135" x1="492.758" y1="225.565" x2="492.758" y2="460.136" gradientUnits="userSpaceOnUse">
<stop stop-color="#7D22FF" stop-opacity="0.28"/>
<stop offset="1" stop-color="#FF8E8E" stop-opacity="0.23"/>
</linearGradient>
<linearGradient id="paint25_linear_6461_136135" x1="608.954" y1="326.904" x2="376.562" y2="358.797" gradientUnits="userSpaceOnUse">
<stop stop-color="#7D22FF"/>
<stop offset="1" stop-color="#FF8E8E"/>
</linearGradient>
<linearGradient id="paint26_linear_6461_136135" x1="493.565" y1="231.441" x2="493.565" y2="466.012" gradientUnits="userSpaceOnUse">
<stop stop-color="#7D22FF" stop-opacity="0.28"/>
<stop offset="1" stop-color="#FF8E8E" stop-opacity="0.23"/>
</linearGradient>
<linearGradient id="paint27_linear_6461_136135" x1="609.761" y1="332.78" x2="377.369" y2="364.673" gradientUnits="userSpaceOnUse">
<stop stop-color="#7D22FF"/>
<stop offset="1" stop-color="#FF8E8E"/>
</linearGradient>
<linearGradient id="paint28_linear_6461_136135" x1="435.507" y1="127.088" x2="435.507" y2="361.658" gradientUnits="userSpaceOnUse">
<stop stop-color="#7D22FF" stop-opacity="0.28"/>
<stop offset="1" stop-color="#FF8E8E" stop-opacity="0.23"/>
</linearGradient>
<linearGradient id="paint29_linear_6461_136135" x1="506.394" y1="150.934" x2="364.62" y2="337.812" gradientUnits="userSpaceOnUse">
<stop stop-color="#7D22FF"/>
<stop offset="1" stop-color="#FF8E8E"/>
</linearGradient>
<linearGradient id="paint30_linear_6461_136135" x1="440.231" y1="130.671" x2="440.231" y2="365.241" gradientUnits="userSpaceOnUse">
<stop stop-color="#7D22FF" stop-opacity="0.28"/>
<stop offset="1" stop-color="#FF8E8E" stop-opacity="0.23"/>
</linearGradient>
<linearGradient id="paint31_linear_6461_136135" x1="511.118" y1="154.517" x2="369.344" y2="341.395" gradientUnits="userSpaceOnUse">
<stop stop-color="#7D22FF"/>
<stop offset="1" stop-color="#FF8E8E"/>
</linearGradient>
</defs>
</svg>
