<svg width="17" height="17" viewBox="0 0 17 17" fill="none" xmlns="http://www.w3.org/2000/svg">
<path d="M5.58128 15.5957L5.56287 15.5652C5.26172 15.0674 4.72219 14.7632 4.14032 14.7632H4.06191C3.06691 14.7632 2.2603 13.9565 2.2603 12.9615V12.7121C2.2603 12.1413 1.95941 11.6127 1.46856 11.3212L1.22775 11.1783C0.56074 10.7822 0.362898 9.90741 0.794574 9.26288C1.08673 8.82665 1.10002 8.26076 0.828644 7.81131L0.769607 7.71354C0.341073 7.0038 0.554968 6.08192 1.25225 5.6334L1.44752 5.50779C1.9541 5.18192 2.2603 4.62089 2.2603 4.01854V3.98437C2.2603 2.98394 3.07131 2.17293 4.07174 2.17293H4.15906C4.7304 2.17293 5.2613 1.8781 5.56329 1.39309L5.65332 1.24849C6.08366 0.557367 7.00222 0.349569 7.69675 0.774389C8.16516 1.0609 8.76229 1.06202 9.22764 0.770548C9.90654 0.345316 10.8017 0.552235 11.2251 1.23227L11.3286 1.39839C11.6285 1.8801 12.1558 2.17293 12.7233 2.17293H12.9077C13.8931 2.17293 14.6919 2.97176 14.6919 3.95716V4.06544C14.6919 4.63461 14.995 5.16073 15.4874 5.44627L15.5212 5.46586C16.2542 5.89101 16.5074 6.8336 16.097 7.57504C15.8222 8.07169 15.842 8.68527 16.1536 9.15981C16.6198 9.87008 16.4175 10.8243 15.7031 11.2842L15.5019 11.4137C14.9971 11.7387 14.6919 12.3026 14.6919 12.903C14.6919 13.8525 13.9502 14.6445 13.0022 14.6971L12.6244 14.718C12.1153 14.7463 11.6529 15.0239 11.3887 15.46L11.3249 15.5655C10.9233 16.2284 10.0641 16.4467 9.39487 16.0557C8.94206 15.7912 8.38031 15.7979 7.93394 16.0731L7.82773 16.1386C7.05812 16.6131 6.04923 16.3693 5.58128 15.5957Z" fill="#014F59"/>
</svg>
