<svg width="25" height="24" viewBox="0 0 25 24" fill="none" xmlns="http://www.w3.org/2000/svg">
<circle cx="3" cy="3" r="2.5" stroke="#E1FF26"/>
<line x1="7" y1="2.5" x2="25" y2="2.5" stroke="#E1FF26"/>
<rect x="0.5" y="7.5" width="24" height="16" rx="1.5" stroke="#E1FF26"/>
<path d="M11.5489 9.92705C11.8483 9.00574 13.1517 9.00574 13.4511 9.92705L14.1839 12.1824C14.3177 12.5944 14.7017 12.8734 15.1349 12.8734L17.5063 12.8734C18.475 12.8734 18.8778 14.113 18.0941 14.6824L16.1756 16.0762C15.8251 16.3309 15.6784 16.7822 15.8123 17.1943L16.5451 19.4496C16.8445 20.3709 15.79 21.137 15.0063 20.5676L13.0878 19.1738C12.7373 18.9191 12.2627 18.9191 11.9122 19.1738L9.99372 20.5676C9.21001 21.137 8.15553 20.3709 8.45488 19.4496L9.18768 17.1943C9.32155 16.7822 9.1749 16.3309 8.82441 16.0762L6.90592 14.6824C6.1222 14.113 6.52498 12.8734 7.4937 12.8734L9.86509 12.8734C10.2983 12.8734 10.6823 12.5944 10.8161 12.1824L11.5489 9.92705Z" fill="#7D22FF"/>
</svg>
