<svg width="185" height="32" viewBox="0 0 185 32" fill="none" xmlns="http://www.w3.org/2000/svg">
<path d="M54.8591 23.2101C53.3109 25.4705 50.7637 26.8101 47.6027 26.8101C42.4093 26.8101 38.6992 23.1755 38.6992 17.9694C38.6992 12.7632 42.4093 8.99707 47.6333 8.99707C50.6989 8.99707 53.2462 10.3055 54.7602 12.5659L51.5344 15.0201C50.7296 13.7774 49.3417 12.9571 47.664 12.9571C44.9224 12.9571 42.989 15.0513 42.989 17.9659C42.989 20.8805 44.8917 22.8432 47.6333 22.8432C49.3417 22.8432 50.7296 22.0574 51.5344 20.7801L54.8557 23.2032L54.8591 23.2101Z" fill="#FCFCD8"/>
<path d="M71.98 26.8102V1.81102L76.1026 0.696411V11.6902C77.3711 10.1118 79.2125 9.00062 81.4938 9.00062C85.6505 9.00062 88.1535 11.7872 88.1535 17.066V25.6887L84.0308 26.8102V17.3568C84.0308 14.3937 82.7316 12.8637 80.5083 12.8637C77.9713 12.8637 76.0992 15.1033 76.0992 17.8725V25.6887L71.9766 26.8137L71.98 26.8102Z" fill="#FCFCD8"/>
<path d="M93.6542 24.8789L87.5605 10.0982L91.6048 9.00085L95.9013 19.427L99.6318 10.3716L104.675 9.00085L96.0684 29.9258L91.0046 31.3035L93.6508 24.8824L93.6542 24.8789Z" fill="#FCFCD8"/>
<path d="M111.567 25.7093L107.526 26.8101L100.607 10.1048L104.679 8.99707L109.422 20.5067L113.623 10.309L118.452 8.99707L111.564 25.7059L111.567 25.7093Z" fill="#FCFCD8"/>
<path d="M62.6245 9.00085C57.3766 9.00085 53.6699 12.5974 53.6699 17.9247C53.6699 23.252 57.3766 26.8139 62.6245 26.8139C67.8725 26.8139 71.6098 23.2174 71.6098 17.9247C71.6098 12.632 67.9031 9.00085 62.6245 9.00085ZM62.6245 23.162C59.709 23.162 57.5948 20.957 57.5948 17.9212C57.5948 14.8855 59.7124 12.6493 62.6245 12.6493C65.5366 12.6493 67.6883 14.8682 67.6883 17.9212C67.6883 20.9743 65.6048 23.162 62.6245 23.162Z" fill="#FCFCD8"/>
<path d="M133.993 19.5758L129.952 20.6697L129.792 20.9362C128.919 22.1166 127.562 22.8712 125.82 22.8712C123.971 22.8712 122.485 22.0024 121.659 20.6004L131.927 17.8174L132.595 17.6374L132.882 17.5612L133.986 17.2601C133.925 12.9193 130.866 9.00085 125.526 9.00085C120.186 9.00085 116.742 12.6735 116.742 17.8866C116.742 23.0997 120.36 26.8381 125.625 26.8381C128.66 26.8381 131.31 25.592 132.861 23.4597C134.167 21.5178 133.99 19.6001 133.993 19.5724V19.5758ZM125.594 12.9332C127.279 12.9332 128.558 13.6843 129.291 14.8578L121.046 17.0974C121.08 16.7685 121.124 16.4397 121.202 16.1143C121.786 14.2139 123.398 12.9332 125.594 12.9332Z" fill="#FCFCD8"/>
<path d="M18.4635 19.062L7.67578 25.3844V29.6204L18.4661 23.2954L18.4635 19.062Z" fill="#7D22FF"/>
<path d="M14.4027 20.2502L3.61494 13.9279L0 16.0458L10.7903 22.3708L14.4027 20.2502Z" fill="#7D22FF"/>
<path d="M11.3591 17.276V4.62861L7.74414 2.51062V15.158L11.3591 17.276Z" fill="#7D22FF"/>
<path d="M12.3717 13.1111L23.1595 6.78615V2.55017L12.3691 8.87517L12.3717 13.1111Z" fill="#7D22FF"/>
<path d="M16.4355 11.9204L27.2233 18.2427L30.8382 16.1247L20.0479 9.80237L16.4355 11.9204Z" fill="#7D22FF"/>
<path d="M19.4766 14.8972V27.5419L23.0915 29.6599V17.0126L19.4766 14.8972Z" fill="#7D22FF"/>
<path d="M18.4635 19.062L7.67578 25.3844V29.6204L18.4661 23.2954L18.4635 19.062Z" fill="#7D22FF"/>
<rect x="143.5" y="5.5" width="41" height="21" rx="7.5" fill="#3A3A3A" fill-opacity="0.22"/>
<rect x="143.5" y="5.5" width="41" height="21" rx="7.5" stroke="url(#paint0_linear_6150_113180)"/>
<path d="M152.695 15.5993H155.261L153.999 11.944H153.978L152.695 15.5993ZM153.448 11H154.561L157.519 18.8375H156.406L155.579 16.4775H152.377L151.528 18.8375H150.5L153.448 11ZM158.171 11H159.072V18.8375H158.171V11ZM160.5 13.1625H161.401V13.9308H161.423C161.571 13.6162 161.804 13.3893 162.122 13.2503C162.441 13.1039 162.79 13.0307 163.172 13.0307C163.596 13.0307 163.964 13.1112 164.275 13.2722C164.593 13.4332 164.854 13.6528 165.059 13.9308C165.271 14.2016 165.431 14.5163 165.537 14.8749C165.643 15.2334 165.696 15.614 165.696 16.0165C165.696 16.419 165.643 16.7995 165.537 17.1581C165.438 17.5166 165.282 17.8313 165.07 18.1021C164.865 18.3655 164.603 18.5741 164.285 18.7278C163.974 18.8815 163.61 18.9583 163.193 18.9583C163.059 18.9583 162.907 18.9437 162.737 18.9144C162.575 18.8851 162.412 18.8375 162.25 18.7717C162.087 18.7058 161.932 18.618 161.783 18.5082C161.642 18.3911 161.522 18.2484 161.423 18.0801H161.401V21H160.5V13.1625ZM164.741 15.9506C164.741 15.6871 164.706 15.431 164.635 15.1822C164.572 14.9261 164.469 14.6992 164.328 14.5016C164.194 14.3041 164.017 14.1467 163.798 14.0296C163.586 13.9125 163.335 13.854 163.045 13.854C162.741 13.854 162.483 13.9162 162.271 14.0406C162.059 14.165 161.886 14.3297 161.751 14.5346C161.617 14.7322 161.518 14.959 161.454 15.2151C161.398 15.4713 161.37 15.7311 161.37 15.9945C161.37 16.2726 161.401 16.5434 161.465 16.8068C161.529 17.0629 161.628 17.2898 161.762 17.4874C161.903 17.685 162.084 17.846 162.303 17.9704C162.522 18.0875 162.787 18.146 163.098 18.146C163.409 18.146 163.667 18.0838 163.872 17.9594C164.084 17.835 164.254 17.6703 164.381 17.4654C164.508 17.2605 164.6 17.0263 164.657 16.7629C164.713 16.4994 164.741 16.2287 164.741 15.9506ZM166.752 11H167.654V13.9967H167.675C167.745 13.8211 167.844 13.6747 167.972 13.5576C168.099 13.4332 168.24 13.3344 168.396 13.2613C168.558 13.1808 168.724 13.1222 168.894 13.0856C169.071 13.049 169.24 13.0307 169.403 13.0307C169.763 13.0307 170.064 13.082 170.304 13.1844C170.545 13.2869 170.739 13.4296 170.887 13.6125C171.036 13.7955 171.138 14.015 171.195 14.2711C171.259 14.5199 171.29 14.798 171.29 15.1054V18.8375H170.389V14.9956C170.389 14.6443 170.29 14.3663 170.092 14.1614C169.894 13.9565 169.622 13.854 169.276 13.854C169 13.854 168.76 13.8979 168.555 13.9857C168.357 14.0735 168.191 14.198 168.056 14.3589C167.922 14.5199 167.82 14.7102 167.749 14.9297C167.685 15.142 167.654 15.3761 167.654 15.6323V18.8375H166.752V11ZM177.5 18.8156C177.344 18.9107 177.129 18.9583 176.853 18.9583C176.62 18.9583 176.433 18.8924 176.291 18.7607C176.157 18.6217 176.09 18.3985 176.09 18.0911C175.842 18.3985 175.553 18.6217 175.22 18.7607C174.895 18.8924 174.542 18.9583 174.16 18.9583C173.913 18.9583 173.676 18.929 173.45 18.8705C173.231 18.8119 173.04 18.7204 172.877 18.596C172.715 18.4716 172.584 18.3106 172.485 18.1131C172.393 17.9082 172.347 17.663 172.347 17.3776C172.347 17.0556 172.4 16.7922 172.506 16.5873C172.612 16.3824 172.75 16.2177 172.92 16.0933C173.096 15.9616 173.294 15.8628 173.513 15.7969C173.74 15.7311 173.969 15.6762 174.203 15.6323C174.45 15.581 174.683 15.5445 174.902 15.5225C175.129 15.4932 175.326 15.4566 175.496 15.4127C175.666 15.3615 175.8 15.292 175.899 15.2042C175.998 15.109 176.047 14.9737 176.047 14.798C176.047 14.5931 176.009 14.4285 175.931 14.3041C175.86 14.1797 175.765 14.0845 175.645 14.0187C175.531 13.9528 175.401 13.9089 175.252 13.8869C175.111 13.865 174.969 13.854 174.828 13.854C174.446 13.854 174.128 13.9308 173.874 14.0845C173.619 14.2309 173.482 14.5126 173.46 14.9297H172.559C172.573 14.5785 172.644 14.2821 172.771 14.0406C172.898 13.7991 173.068 13.6052 173.28 13.4588C173.492 13.3052 173.732 13.1954 174.001 13.1295C174.277 13.0637 174.57 13.0307 174.881 13.0307C175.129 13.0307 175.372 13.049 175.613 13.0856C175.86 13.1222 176.083 13.199 176.281 13.3161C176.479 13.4259 176.638 13.5832 176.758 13.7881C176.878 13.993 176.938 14.2602 176.938 14.5895V17.5093C176.938 17.7289 176.949 17.8899 176.97 17.9923C176.998 18.0948 177.083 18.146 177.224 18.146C177.302 18.146 177.394 18.1277 177.5 18.0911V18.8156ZM176.037 15.9067C175.924 15.9945 175.775 16.0604 175.591 16.1043C175.408 16.1409 175.213 16.1738 175.008 16.2031C174.81 16.225 174.609 16.2543 174.404 16.2909C174.199 16.3202 174.015 16.3714 173.853 16.4446C173.69 16.5177 173.556 16.6238 173.45 16.7629C173.351 16.8946 173.301 17.0776 173.301 17.3117C173.301 17.4654 173.33 17.5972 173.386 17.7069C173.45 17.8094 173.527 17.8935 173.619 17.9594C173.718 18.0252 173.831 18.0728 173.959 18.1021C174.086 18.1314 174.22 18.146 174.362 18.146C174.658 18.146 174.913 18.1057 175.125 18.0252C175.337 17.9374 175.51 17.8313 175.645 17.7069C175.779 17.5752 175.878 17.4361 175.941 17.2898C176.005 17.1361 176.037 16.9934 176.037 16.8617V15.9067Z" fill="url(#paint1_linear_6150_113180)"/>
<defs>
<linearGradient id="paint0_linear_6150_113180" x1="143" y1="7" x2="187" y2="24" gradientUnits="userSpaceOnUse">
<stop stop-color="#FCFCD8" stop-opacity="0.39"/>
<stop offset="1" stop-color="#FCFCD8" stop-opacity="0.02"/>
</linearGradient>
<linearGradient id="paint1_linear_6150_113180" x1="147.871" y1="10.4219" x2="179.92" y2="20.2492" gradientUnits="userSpaceOnUse">
<stop stop-color="#A15FFF"/>
<stop offset="1" stop-color="#FF8E8E"/>
</linearGradient>
</defs>
</svg>
