<svg width="203" height="38" viewBox="0 0 203 38" fill="none" xmlns="http://www.w3.org/2000/svg">
<path fill-rule="evenodd" clip-rule="evenodd" d="M86.119 28.4829H90.1964H90.2V18.9359C90.2 18.0984 90.2992 17.3527 90.5086 16.6989C90.718 16.045 91.0155 15.4977 91.4122 15.0495C91.809 14.6014 92.2902 14.2598 92.8595 14.0284C93.4252 13.7969 94.0717 13.6794 94.7917 13.6794C97.4843 13.6794 98.8287 15.3434 98.8287 18.6751V28.4829H102.906V18.2711C102.906 16.9707 102.77 15.8099 102.491 14.7961C102.212 13.7822 101.808 12.9227 101.275 12.2247C100.743 11.5231 100.089 10.9942 99.3173 10.6268C98.5459 10.2632 97.6643 10.0795 96.6725 10.0795C95.8386 10.0795 95.0709 10.2081 94.3656 10.4652C93.6603 10.7223 93.0359 11.097 92.4849 11.5856C91.9339 12.0741 91.4673 12.6766 91.0816 13.3929C90.6959 14.1092 90.4021 14.9246 90.1964 15.8393V4.43359L86.119 5.5356V28.4829ZM54.1019 19.52C54.1019 20.4346 54.2121 21.2538 54.4361 21.9774C54.6565 22.7011 54.9761 23.3145 55.3912 23.8141C55.8063 24.3137 56.3132 24.6994 56.912 24.9639C57.5107 25.2284 58.1866 25.3606 58.9397 25.3606C59.5898 25.3606 60.1629 25.2651 60.6588 25.0704C61.1547 24.8794 61.5808 24.6112 61.9371 24.2696C62.2934 23.928 62.5873 23.5276 62.8113 23.0648C63.0354 22.6019 63.2007 22.1023 63.3036 21.566H67.3736C67.2818 22.275 67.1202 22.9509 66.8888 23.59C66.6573 24.2292 66.3635 24.8243 66.0072 25.3716C65.6508 25.9226 65.2284 26.4185 64.7472 26.8593C64.266 27.3001 63.726 27.6785 63.1309 27.9944C62.5358 28.3103 61.8857 28.5491 61.1841 28.718C60.4825 28.887 59.7294 28.9715 58.9286 28.9715C58.047 28.9715 57.2132 28.8686 56.4308 28.6666C55.6483 28.4646 54.9247 28.1707 54.2672 27.785C53.606 27.3993 53.0109 26.9328 52.4856 26.3781C51.9603 25.8234 51.5122 25.199 51.1448 24.4974C50.7775 23.7958 50.4983 23.028 50.3036 22.1942C50.1089 21.3603 50.0098 20.4677 50.0098 19.52C50.0098 18.0947 50.2265 16.8054 50.6563 15.6446C51.0861 14.4838 51.6958 13.492 52.4819 12.6655C53.268 11.839 54.2084 11.2036 55.2994 10.7517C56.394 10.3036 57.6026 10.0758 58.9323 10.0758C60.1335 10.0758 61.2245 10.2632 62.2016 10.6379C63.1787 11.0125 64.0272 11.5268 64.7472 12.1843C65.4672 12.8419 66.0512 13.6243 66.4994 14.5279C66.9475 15.4316 67.2377 16.416 67.3736 17.4776H63.3036C63.2044 16.9413 63.0464 16.4417 62.8187 15.9789C62.5946 15.516 62.3044 15.112 61.9444 14.774C61.5881 14.4324 61.1583 14.1679 60.6624 13.9732C60.1629 13.7822 59.5898 13.6831 58.9397 13.6831C58.1866 13.6831 57.5107 13.8153 56.912 14.0798C56.3132 14.3443 55.8063 14.73 55.3912 15.2295C54.9761 15.7291 54.6602 16.3426 54.4361 17.0625C54.2157 17.7825 54.1019 18.6017 54.1019 19.5163V19.52ZM67.6274 19.52C67.6274 18.0947 67.8442 16.8054 68.2739 15.6446C68.7037 14.4838 69.3135 13.492 70.0996 12.6655C70.8857 11.839 71.8261 11.2036 72.917 10.7517C74.0117 10.3036 75.2202 10.0758 76.55 10.0758C77.8797 10.0758 79.0883 10.2999 80.1829 10.7517C81.2776 11.1999 82.2179 11.839 83.0004 12.6655C83.7864 13.492 84.3926 14.4838 84.826 15.6446C85.2595 16.8054 85.4725 18.0947 85.4725 19.52C85.4725 20.4677 85.3733 21.3603 85.1786 22.1942C84.984 23.028 84.7048 23.7958 84.3374 24.4974C83.9738 25.199 83.5256 25.8271 82.9967 26.3781C82.4677 26.9291 81.8726 27.3993 81.2114 27.785C80.5502 28.1707 79.8303 28.4646 79.0478 28.6666C78.2654 28.8686 77.4316 28.9715 76.55 28.9715C75.6684 28.9715 74.8345 28.8686 74.0484 28.6666C73.2623 28.4646 72.5387 28.1707 71.8775 27.785C71.2163 27.3993 70.6249 26.9328 70.0996 26.3781C69.5743 25.8234 69.1298 25.199 68.7625 24.4974C68.3952 23.7958 68.116 23.028 67.9213 22.1942C67.7266 21.3603 67.6274 20.4677 67.6274 19.52ZM71.7232 19.52C71.7232 20.4346 71.8334 21.2538 72.0575 21.9774C72.2779 22.7011 72.5975 23.3145 73.0126 23.8141C73.4276 24.3137 73.9346 24.6994 74.5333 24.9639C75.1321 25.2284 75.808 25.3606 76.561 25.3606C77.314 25.3606 77.9899 25.2284 78.585 24.9639C79.1801 24.6994 79.687 24.3137 80.0984 23.8141C80.5135 23.3145 80.8294 22.7011 81.0498 21.9774C81.2702 21.2538 81.3804 20.4346 81.3804 19.52C81.3804 18.6053 81.2702 17.7862 81.0498 17.0625C80.8294 16.3389 80.5135 15.7291 80.0984 15.2295C79.6833 14.73 79.1801 14.3479 78.585 14.0834C77.9899 13.819 77.314 13.6867 76.561 13.6867C75.808 13.6867 75.1321 13.819 74.5333 14.0834C73.9346 14.3479 73.4276 14.7336 73.0126 15.2332C72.5975 15.7328 72.2816 16.3462 72.0575 17.0662C71.8371 17.7862 71.7232 18.6053 71.7232 19.52ZM118.334 16.6487L113.522 29.2947C113.143 30.3012 112.699 31.1718 112.185 31.9065C111.67 32.6411 111.083 33.2472 110.418 33.7211C109.753 34.1986 109.003 34.5513 108.17 34.7827C107.339 35.0141 106.414 35.128 105.396 35.128C105.062 35.128 104.724 35.1133 104.386 35.0876C104.048 35.0619 103.707 35.0215 103.365 34.9664V31.5612C103.688 31.6053 103.993 31.6383 104.272 31.6604C104.551 31.6824 104.82 31.6934 105.08 31.6934C105.613 31.6934 106.091 31.6457 106.52 31.5502C106.946 31.4546 107.332 31.3077 107.674 31.102C108.015 30.8963 108.313 30.6392 108.57 30.3269C108.827 30.0147 109.051 29.64 109.242 29.2066L109.283 29.0927L102.726 11.6113L106.594 10.568L111.509 25.1034L116.387 11.6701L120.648 10.568L120.648 10.5691L120.652 10.568L125.563 26.0218L130.368 11.8317L134.702 10.6562L134.699 10.6599L128.469 28.5748H122.547L118.334 16.6487ZM146.318 24.7692C145.598 25.2798 144.702 25.5332 143.629 25.5332C142.924 25.5332 142.285 25.4267 141.708 25.21C141.131 24.9932 140.628 24.681 140.202 24.2659C139.772 23.8545 139.427 23.3549 139.158 22.7672C139.063 22.5578 138.979 22.3381 138.907 22.1083L148.338 19.5812L148.338 19.5824L152 18.6016C152 18.0727 151.798 17.0772 151.736 16.7944C151.552 15.9605 151.288 15.1965 150.939 14.5022C150.594 13.8079 150.167 13.1871 149.668 12.6435C149.168 12.0962 148.599 11.6333 147.963 11.255C147.328 10.8766 146.63 10.5864 145.866 10.3844C145.106 10.1823 144.29 10.0832 143.416 10.0832C142.542 10.0832 141.711 10.186 140.933 10.3881C140.154 10.5901 139.438 10.8876 138.784 11.2733C138.13 11.659 137.542 12.1292 137.024 12.6839C136.506 13.2386 136.069 13.863 135.709 14.561C135.349 15.2589 135.074 16.023 134.879 16.8531C134.684 17.6833 134.589 18.5686 134.589 19.509C134.589 20.9232 134.806 22.2089 135.235 23.3733C135.665 24.5341 136.271 25.5332 137.05 26.3634C137.829 27.1936 138.769 27.8364 139.864 28.2919C140.962 28.7474 142.174 28.9751 143.508 28.9751C144.58 28.9751 145.576 28.8245 146.498 28.527C147.42 28.2295 148.243 27.7997 148.966 27.245C149.69 26.6903 150.307 26.0071 150.81 25.2063C151.314 24.4055 151.685 23.4982 151.923 22.4844H147.993C147.592 23.5019 147.03 24.2659 146.31 24.7765L146.318 24.7692ZM147.609 16.3652L138.572 18.7867C138.591 18.4704 138.627 18.1549 138.681 17.8413C138.795 17.1543 138.986 16.5409 139.25 16.0009C139.515 15.4609 139.849 15.0054 140.253 14.6308C140.657 14.2561 141.127 13.9732 141.664 13.7785C142.2 13.5839 142.791 13.4847 143.442 13.4847C144.713 13.4847 145.734 13.8557 146.501 14.594C146.978 15.0519 147.346 15.6426 147.609 16.3652Z" fill="#FCFCD8"/>
<path d="M25.8434 23.168L10.7441 32.0172V37.9462L25.8471 29.0933L25.8434 23.168Z" fill="#FCFCD8"/>
<path d="M20.159 24.8297L5.05974 15.9805L0 18.945L15.1029 27.7979L20.159 24.8297Z" fill="#FCFCD8"/>
<path d="M15.8996 20.6666V2.96449L10.8398 0V17.7021L15.8996 20.6666Z" fill="#FCFCD8"/>
<path d="M17.3161 14.8366L32.4154 5.98367V0.0546875L17.3125 8.9076L17.3161 14.8366Z" fill="#FCFCD8"/>
<path d="M23.0039 13.1715L38.1032 22.0208L43.1629 19.0563L28.06 10.207L23.0039 13.1715Z" fill="#FCFCD8"/>
<path d="M27.2617 17.3359V35.0344L32.3215 37.9989V20.2967L27.2617 17.3359Z" fill="#FCFCD8"/>
<path d="M25.8434 23.168L10.7441 32.0172V37.9462L25.8471 29.0933L25.8434 23.168Z" fill="#FCFCD8"/>
<rect x="161.5" y="8.5" width="41" height="21" rx="7.5" fill="#3A3A3A" fill-opacity="0.22"/>
<rect x="161.5" y="8.5" width="41" height="21" rx="7.5" stroke="url(#paint0_linear_6150_113180)"/>
<path d="M168.344 13.7H172.068C172.852 13.7 173.487 13.9333 173.972 14.4C174.457 14.8573 174.7 15.4593 174.7 16.206C174.7 16.6447 174.616 17.0413 174.448 17.396C174.28 17.7507 174.042 18.0447 173.734 18.278C174.173 18.4927 174.518 18.8147 174.77 19.244C175.031 19.6733 175.162 20.1587 175.162 20.7C175.162 21.2507 175.041 21.7407 174.798 22.17C174.565 22.59 174.229 22.9167 173.79 23.15C173.361 23.3833 172.866 23.5 172.306 23.5H168.344V13.7ZM172.194 22.296C172.707 22.296 173.113 22.1513 173.412 21.862C173.72 21.5727 173.874 21.1667 173.874 20.644C173.874 20.1307 173.725 19.7247 173.426 19.426C173.127 19.1273 172.721 18.978 172.208 18.978H169.59V22.296H172.194ZM172.026 17.816C172.465 17.816 172.805 17.6853 173.048 17.424C173.3 17.1627 173.426 16.8033 173.426 16.346C173.426 15.898 173.295 15.548 173.034 15.296C172.773 15.0347 172.423 14.904 171.984 14.904H169.59V17.816H172.026ZM176.001 13.7H181.853V14.918H177.261V17.942H181.587V19.132H177.261V22.282H181.951V23.5H176.001V13.7ZM184.839 14.89H181.927V13.7H189.011V14.89H186.099V23.5H184.839V14.89ZM187.734 23.374L191.682 13.7H192.592L196.54 23.374V23.5H195.224L194.3 21.148H189.974L189.036 23.5H187.734V23.374ZM193.838 19.972L192.13 15.702L190.436 19.972H193.838Z" fill="url(#paint1_linear_6150_113180)"/>
<defs>
<linearGradient id="paint0_linear_6150_113180" x1="161" y1="10" x2="205" y2="27" gradientUnits="userSpaceOnUse">
<stop stop-color="#FCFCD8" stop-opacity="0.39"/>
<stop offset="1" stop-color="#FCFCD8" stop-opacity="0.02"/>
</linearGradient>
<linearGradient id="paint1_linear_6150_113180" x1="168.5" y1="16" x2="199.5" y2="23" gradientUnits="userSpaceOnUse">
<stop stop-color="#FF8E8E"/>
<stop offset="1" stop-color="#7D22FF" stop-opacity="0.65"/>
</linearGradient>
</defs>
</svg>
