<svg width="75" height="79" viewBox="0 0 75 79" fill="none" xmlns="http://www.w3.org/2000/svg">
<path d="M66.0457 43.1601L62.5449 38.0001C62.084 37.2018 60.0449 35.5 58.5449 36M57.0457 48.1601L54.5457 43.83C53.165 41.4386 53.9844 38.3806 56.3758 36.9999" stroke="#E1FF26"/>
<rect x="18.0508" y="0.800361" width="49" height="67" rx="9.5" transform="rotate(15 18.0508 0.800361)" stroke="#7D22FF"/>
<line x1="25.0864" y1="15.1091" x2="51.1664" y2="22.0972" stroke="#7D22FF"/>
<line x1="23.7915" y1="19.9387" x2="49.8715" y2="26.9268" stroke="#7D22FF"/>
<line x1="22.4986" y1="24.7684" x2="37.9534" y2="28.9095" stroke="#7D22FF"/>
<path d="M11.7737 57.0661C14.5572 57.9715 20.9119 58.2699 24.062 52.2203C27.9995 44.6581 22.5858 43.6863 21.0071 47.5719C19.6038 51.0257 17.2102 59.959 25.92 61.3353C34.6297 62.7117 35.0008 54.1938 33.2176 53.716C31.4343 53.2382 28.541 58.6865 32.9662 61.7871C36.9134 64.5527 41.3429 60.8401 42.5467 58.1307" stroke="#E1FF26"/>
<rect x="53.0449" y="47.5" width="16" height="16" rx="6" transform="rotate(-30 53.0449 47.5)" fill="#7D22FF"/>
<rect width="2.94027" height="5.89293" transform="translate(61.0449 48.8009) rotate(-26.2607)" fill="#1A1A1A"/>
<ellipse cx="63.0138" cy="49.4688" rx="1.47014" ry="1.47007" transform="rotate(-26.2607 63.0138 49.4688)" fill="#D9D9D9"/>
<path d="M62.252 49.2538L63.3067 48.7334L66.2891 52.7847L63.6523 54.0857L62.252 49.2538Z" fill="#D9D9D9"/>
</svg>
