<svg width="42" height="23" viewBox="0 0 42 23" fill="none" xmlns="http://www.w3.org/2000/svg">
<rect x="0.5" y="1.47461" width="41" height="21" rx="7.5" fill="#3A3A3A" fill-opacity="0.22"/>
<rect x="0.5" y="1.47461" width="41" height="21" rx="7.5" stroke="url(#paint0_linear_6141_110424)"/>
<path d="M9.69479 11.574H12.2607L10.9989 7.91863H10.9777L9.69479 11.574ZM10.4476 6.97461H11.5609L14.519 14.8122H13.4058L12.5787 12.4521H9.3767L8.52847 14.8122H7.5L10.4476 6.97461ZM15.1711 6.97461H16.0724V14.8122H15.1711V6.97461ZM17.5002 9.13707H18.4014V9.90545H18.4227C18.5711 9.59078 18.8043 9.36392 19.1224 9.22488C19.4405 9.07852 19.7904 9.00533 20.1721 9.00533C20.5962 9.00533 20.9638 9.08584 21.2748 9.24683C21.5929 9.40783 21.8544 9.62737 22.0594 9.90545C22.2715 10.1762 22.4305 10.4909 22.5365 10.8495C22.6426 11.208 22.6956 11.5886 22.6956 11.9911C22.6956 12.3936 22.6426 12.7741 22.5365 13.1327C22.4376 13.4913 22.2821 13.8059 22.07 14.0767C21.865 14.3401 21.6035 14.5487 21.2854 14.7024C20.9744 14.8561 20.6104 14.9329 20.1933 14.9329C20.059 14.9329 19.907 14.9183 19.7374 14.889C19.5748 14.8597 19.4123 14.8121 19.2497 14.7463C19.0871 14.6804 18.9316 14.5926 18.7831 14.4828C18.6418 14.3658 18.5216 14.2231 18.4227 14.0547H18.4014V16.9746H17.5002V9.13707ZM21.7413 11.9252C21.7413 11.6618 21.706 11.4056 21.6353 11.1568C21.5717 10.9007 21.4692 10.6738 21.3278 10.4762C21.1935 10.2787 21.0168 10.1213 20.7977 10.0042C20.5856 9.88716 20.3347 9.82861 20.0449 9.82861C19.7409 9.82861 19.4829 9.89081 19.2709 10.0152C19.0588 10.1396 18.8856 10.3043 18.7513 10.5092C18.617 10.7068 18.5181 10.9336 18.4544 11.1897C18.3979 11.4459 18.3696 11.7057 18.3696 11.9691C18.3696 12.2472 18.4015 12.518 18.4651 12.7814C18.5287 13.0375 18.6276 13.2644 18.7619 13.462C18.9033 13.6596 19.0836 13.8206 19.3027 13.945C19.5218 14.0621 19.7869 14.1206 20.0979 14.1206C20.4089 14.1206 20.6669 14.0584 20.8719 13.934C21.084 13.8096 21.2536 13.6449 21.3808 13.44C21.5081 13.2351 21.6 13.0009 21.6565 12.7375C21.7131 12.4741 21.7413 12.2033 21.7413 11.9252ZM23.7523 6.97461H24.6536V9.97131H24.6748C24.7454 9.79567 24.8444 9.64932 24.9716 9.53223C25.0989 9.40783 25.2402 9.30904 25.3958 9.23586C25.5583 9.15536 25.7244 9.09682 25.8941 9.06023C26.0708 9.02364 26.2404 9.00533 26.403 9.00533C26.7635 9.00533 27.0639 9.05657 27.3043 9.15902C27.5446 9.26148 27.739 9.40416 27.8874 9.58711C28.0359 9.77006 28.1383 9.9896 28.1949 10.2457C28.2585 10.4945 28.2903 10.7726 28.2903 11.08V14.8122H27.3891V10.9702C27.3891 10.619 27.2901 10.3409 27.0922 10.136C26.8943 9.93106 26.6221 9.82861 26.2758 9.82861C26.0001 9.82861 25.7598 9.87252 25.5548 9.96033C25.3569 10.0482 25.1908 10.1726 25.0565 10.3336C24.9222 10.4946 24.8197 10.6848 24.749 10.9044C24.6854 11.1166 24.6536 11.3508 24.6536 11.6069V14.8122H23.7523V6.97461ZM34.5 14.7902C34.3445 14.8853 34.1289 14.9329 33.8532 14.9329C33.62 14.9329 33.4327 14.867 33.2913 14.7353C33.157 14.5963 33.0898 14.3731 33.0898 14.0657C32.8425 14.3731 32.5526 14.5963 32.2204 14.7353C31.8953 14.867 31.5418 14.9329 31.1601 14.9329C30.9127 14.9329 30.6759 14.9036 30.4497 14.8451C30.2306 14.7865 30.0398 14.6951 29.8772 14.5707C29.7146 14.4462 29.5838 14.2852 29.4849 14.0877C29.393 13.8828 29.347 13.6376 29.347 13.3522C29.347 13.0302 29.4001 12.7668 29.5061 12.5619C29.6121 12.357 29.75 12.1923 29.9196 12.0679C30.0963 11.9362 30.2942 11.8374 30.5134 11.7715C30.7395 11.7057 30.9693 11.6508 31.2025 11.6069C31.4499 11.5557 31.6832 11.5191 31.9023 11.4971C32.1285 11.4678 32.3264 11.4312 32.4961 11.3873C32.6657 11.3361 32.8 11.2666 32.899 11.1788C32.998 11.0836 33.0474 10.9483 33.0474 10.7726C33.0474 10.5677 33.0085 10.4031 32.9308 10.2787C32.8601 10.1543 32.7647 10.0591 32.6445 9.99326C32.5314 9.9274 32.4006 9.88349 32.2522 9.86154C32.1108 9.83959 31.9695 9.82861 31.8281 9.82861C31.4464 9.82861 31.1283 9.90545 30.8738 10.0591C30.6194 10.2055 30.4816 10.4872 30.4603 10.9044H29.5591C29.5733 10.5531 29.6439 10.2567 29.7712 10.0152C29.8984 9.77372 30.068 9.5798 30.2801 9.43344C30.4921 9.27976 30.7325 9.16999 31.0011 9.10413C31.2768 9.03827 31.5701 9.00533 31.8811 9.00533C32.1285 9.00533 32.3724 9.02364 32.6127 9.06023C32.8601 9.09682 33.0828 9.17366 33.2807 9.29075C33.4786 9.40051 33.6376 9.55784 33.7578 9.76275C33.878 9.96765 33.9381 10.2348 33.9381 10.5641V13.4839C33.9381 13.7035 33.9487 13.8645 33.9699 13.9669C33.9981 14.0694 34.083 14.1206 34.2243 14.1206C34.3021 14.1206 34.394 14.1023 34.5 14.0657V14.7902ZM33.0368 11.8813C32.9237 11.9691 32.7753 12.035 32.5915 12.0789C32.4077 12.1155 32.2133 12.1484 32.0083 12.1777C31.8104 12.1996 31.609 12.2289 31.404 12.2655C31.199 12.2948 31.0152 12.346 30.8526 12.4192C30.6901 12.4924 30.5558 12.5985 30.4497 12.7375C30.3508 12.8692 30.3013 13.0522 30.3013 13.2864C30.3013 13.44 30.3296 13.5718 30.3861 13.6815C30.4497 13.784 30.5275 13.8681 30.6194 13.934C30.7183 13.9998 30.8314 14.0474 30.9587 14.0767C31.0859 14.106 31.2202 14.1206 31.3616 14.1206C31.6585 14.1206 31.9129 14.0804 32.125 13.9999C32.337 13.912 32.5102 13.8059 32.6445 13.6815C32.7788 13.5498 32.8778 13.4108 32.9414 13.2644C33.005 13.1107 33.0368 12.968 33.0368 12.8363V11.8813Z" fill="url(#paint1_linear_6141_110424)"/>
<defs>
<linearGradient id="paint0_linear_6141_110424" x1="-5.36627e-08" y1="2.97461" x2="44" y2="19.9746" gradientUnits="userSpaceOnUse">
<stop stop-color="#FCFCD8" stop-opacity="0.39"/>
<stop offset="1" stop-color="#FCFCD8" stop-opacity="0.02"/>
</linearGradient>
<linearGradient id="paint1_linear_6141_110424" x1="4.87051" y1="6.39649" x2="36.9197" y2="16.2238" gradientUnits="userSpaceOnUse">
<stop stop-color="#A15FFF"/>
<stop offset="1" stop-color="#FF8E8E"/>
</linearGradient>
</defs>
</svg>
