<svg width="42" height="22" viewBox="0 0 42 22" fill="none" xmlns="http://www.w3.org/2000/svg">
<rect x="0.5" y="0.5" width="41" height="21" rx="7.5" fill="#3A3A3A" fill-opacity="0.22"/>
<rect x="0.5" y="0.5" width="41" height="21" rx="7.5" stroke="url(#paint0_linear_6150_113197)"/>
<path d="M7.344 5.7H11.068C11.852 5.7 12.4867 5.93333 12.972 6.4C13.4573 6.85733 13.7 7.45933 13.7 8.206C13.7 8.64467 13.616 9.04133 13.448 9.396C13.28 9.75067 13.042 10.0447 12.734 10.278C13.1727 10.4927 13.518 10.8147 13.77 11.244C14.0313 11.6733 14.162 12.1587 14.162 12.7C14.162 13.2507 14.0407 13.7407 13.798 14.17C13.5647 14.59 13.2287 14.9167 12.79 15.15C12.3607 15.3833 11.866 15.5 11.306 15.5H7.344V5.7ZM11.194 14.296C11.7073 14.296 12.1133 14.1513 12.412 13.862C12.72 13.5727 12.874 13.1667 12.874 12.644C12.874 12.1307 12.7247 11.7247 12.426 11.426C12.1273 11.1273 11.7213 10.978 11.208 10.978H8.59V14.296H11.194ZM11.026 9.816C11.4647 9.816 11.8053 9.68533 12.048 9.424C12.3 9.16267 12.426 8.80333 12.426 8.346C12.426 7.898 12.2953 7.548 12.034 7.296C11.7727 7.03467 11.4227 6.904 10.984 6.904H8.59V9.816H11.026ZM15.0013 5.7H20.8533V6.918H16.2613V9.942H20.5873V11.132H16.2613V14.282H20.9513V15.5H15.0013V5.7ZM23.8394 6.89H20.9274V5.7H28.0114V6.89H25.0994V15.5H23.8394V6.89ZM26.7338 15.374L30.6818 5.7H31.5918L35.5398 15.374V15.5H34.2238L33.2998 13.148H28.9738L28.0358 15.5H26.7338V15.374ZM32.8378 11.972L31.1298 7.702L29.4358 11.972H32.8378Z" fill="url(#paint1_linear_6150_113197)"/>
<defs>
<linearGradient id="paint0_linear_6150_113197" x1="-5.36627e-08" y1="2" x2="44" y2="19" gradientUnits="userSpaceOnUse">
<stop stop-color="#FCFCD8" stop-opacity="0.39"/>
<stop offset="1" stop-color="#FCFCD8" stop-opacity="0.02"/>
</linearGradient>
<linearGradient id="paint1_linear_6150_113197" x1="7.5" y1="8" x2="38.5" y2="15" gradientUnits="userSpaceOnUse">
<stop stop-color="#FF8E8E"/>
<stop offset="1" stop-color="#7D22FF" stop-opacity="0.65"/>
</linearGradient>
</defs>
</svg>
