<svg version="1.2" xmlns="http://www.w3.org/2000/svg" viewBox="0 0 148 32" width="148" height="32"><defs><linearGradient id="P" gradientUnits="userSpaceOnUse"/><linearGradient id="g1" x2="1" href="#P" gradientTransform="matrix(44,17,-12.301,31.839,106,7)"><stop stop-color="#fcfcd8" stop-opacity=".39"/><stop offset="1" stop-color="#fcfcd8" stop-opacity=".02"/></linearGradient><linearGradient id="g2" x2="1" href="#P" gradientTransform="matrix(32.049,9.827,-4.906,16.001,110.871,10.422)"><stop stop-color="#a15fff"/><stop offset="1" stop-color="#ff8e8e"/></linearGradient></defs><style>.a{fill:#fcfcd8}.b{fill:#7d22ff}.c{opacity:.2;fill:#3a3a3a}.d{fill:none;stroke:url(#g1)}.e{fill:url(#g2)}</style><path class="a" d="m17.9 23.2c-1.6 2.3-4.1 3.6-7.3 3.6-5.2 0-8.9-3.6-8.9-8.8 0-5.2 3.7-9 8.9-9 3.1 0 5.6 1.3 7.2 3.6l-3.3 2.4c-0.8-1.2-2.2-2-3.8-2-2.8 0-4.7 2.1-4.7 5 0 2.9 1.9 4.8 4.6 4.8 1.7 0 3.1-0.7 3.9-2l3.4 2.4z"/><path class="a" d="m35 26.8v-25l4.1-1.1v11c1.3-1.6 3.1-2.7 5.4-2.7 4.2 0 6.7 2.8 6.7 8.1v8.6l-4.2 1.1v-9.4c0-3-1.3-4.5-3.5-4.5-2.5 0-4.4 2.2-4.4 5v7.8l-4.1 1.1z"/><path class="a" d="m56.7 24.9l-6.1-14.8 4-1.1 4.3 10.4 3.7-9 5.1-1.4-8.6 20.9-5.1 1.4 2.7-6.4z"/><path class="a" d="m74.6 25.7l-4.1 1.1-6.9-16.7 4.1-1.1 4.7 11.5 4.2-10.2 4.9-1.3-6.9 16.7z"/><path fill-rule="evenodd" class="a" d="m34.6 17.9c0 5.3-3.7 8.9-9 8.9-5.2 0-8.9-3.5-8.9-8.9 0-5.3 3.7-8.9 8.9-8.9 5.3 0 9 3.6 9 8.9zm-3.9 0c0-3-2.2-5.3-5.1-5.3-2.9 0-5 2.3-5 5.3 0 3.1 2.1 5.3 5 5.3 3 0 5.1-2.2 5.1-5.3z"/><path fill-rule="evenodd" class="a" d="m97 19.6c0 0.1 0.1 2-1.1 3.9-1.6 2.1-4.2 3.3-7.3 3.3-5.2 0-8.9-3.7-8.9-8.9 0-5.2 3.5-8.9 8.8-8.9 5.4 0 8.4 3.9 8.5 8.3l-1.1 0.3h-0.3l-0.7 0.2-10.2 2.8c0.8 1.4 2.3 2.3 4.1 2.3 1.8 0 3.1-0.8 4-2l0.2-0.2 4-1.1zm0 0q0 0 0 0zm-12.8-3.5q-0.1 0.5-0.2 1l8.3-2.2c-0.7-1.2-2-2-3.7-2-2.2 0-3.8 1.3-4.4 3.2z"/><path class="b" d="m-18.5 19.1l-10.8 6.3v4.2l10.8-6.3z"/><path class="b" d="m-22.6 20.3l-10.8-6.4-3.6 2.1 10.8 6.4z"/><path class="b" d="m-25.6 17.3v-12.7l-3.7-2.1v12.7z"/><path class="b" d="m-24.6 13.1l10.8-6.3v-4.2l-10.8 6.3z"/><path class="b" d="m-20.6 11.9l10.8 6.3 3.6-2.1-10.8-6.3z"/><path class="b" d="m-17.5 14.9v12.6l3.6 2.2v-12.7z"/><path class="b" d="m-18.5 19.1l-10.8 6.3v4.2l10.8-6.3z"/><path class="c" d="m114 5.5h26c4.1 0 7.5 3.4 7.5 7.5v6c0 4.1-3.4 7.5-7.5 7.5h-26c-4.1 0-7.5-3.4-7.5-7.5v-6c0-4.1 3.4-7.5 7.5-7.5z"/><path class="d" d="m114 5.5h26c4.1 0 7.5 3.4 7.5 7.5v6c0 4.1-3.4 7.5-7.5 7.5h-26c-4.1 0-7.5-3.4-7.5-7.5v-6c0-4.1 3.4-7.5 7.5-7.5z"/><path fill-rule="evenodd" class="e" d="m116.4 11h1.2l2.9 7.8h-1.1l-0.8-2.3h-3.2l-0.9 2.3h-1zm-0.8 4.6h2.6l-1.2-3.6h-0.1zm5.5-4.6h0.9v7.8h-0.9zm2.3 2.2h0.9v0.8h0.1q0.2-0.5 0.7-0.7 0.4-0.2 1-0.2 0.6 0 1.1 0.2 0.5 0.2 0.8 0.7 0.3 0.4 0.5 0.9 0.1 0.5 0.1 1.1 0 0.6-0.1 1.2-0.2 0.5-0.5 0.9-0.3 0.4-0.8 0.6-0.4 0.3-1.1 0.3-0.2 0-0.4-0.1-0.3 0-0.5-0.1-0.3-0.1-0.5-0.3-0.2-0.1-0.3-0.4h-0.1v2.9h-0.9zm4.3 2.8q0-0.4-0.1-0.8-0.1-0.3-0.3-0.6-0.2-0.3-0.6-0.5-0.3-0.2-0.7-0.2-0.5 0-0.8 0.2-0.3 0.2-0.5 0.5-0.2 0.3-0.3 0.7-0.1 0.4-0.1 0.8 0 0.4 0.1 0.8 0.1 0.3 0.3 0.6 0.2 0.3 0.5 0.5 0.4 0.2 0.8 0.2 0.5 0 0.8-0.2 0.3-0.2 0.5-0.5 0.2-0.3 0.3-0.7 0.1-0.4 0.1-0.8zm2-4.9h0.9v3q0.1-0.3 0.3-0.5 0.2-0.2 0.4-0.3 0.3-0.1 0.5-0.2 0.3 0 0.5 0 0.6 0 0.9 0.1 0.4 0.2 0.6 0.5 0.2 0.2 0.3 0.6 0.1 0.4 0.1 0.9v3.7h-0.9v-3.8q0-0.6-0.3-0.9-0.3-0.3-0.8-0.3-0.4 0-0.7 0.1-0.3 0.2-0.5 0.4-0.2 0.3-0.3 0.6-0.1 0.3-0.1 0.7v3.2h-0.9zm10.7 7.8q-0.2 0.2-0.6 0.2-0.4 0-0.6-0.2-0.2-0.3-0.2-0.7-0.3 0.4-0.8 0.7-0.5 0.2-1.1 0.2-0.4 0-0.7-0.1-0.3-0.1-0.6-0.3-0.2-0.2-0.4-0.5-0.1-0.3-0.1-0.7 0-0.5 0.1-0.8 0.2-0.3 0.5-0.5 0.2-0.2 0.5-0.3 0.4-0.1 0.7-0.2 0.4 0 0.7-0.1 0.4 0 0.6-0.1 0.3-0.1 0.4-0.2 0.2-0.1 0.2-0.4 0-0.3-0.1-0.5-0.1-0.2-0.3-0.3-0.2-0.1-0.4-0.1-0.2-0.1-0.4-0.1-0.6 0-1 0.3-0.4 0.2-0.4 0.8h-0.9q0-0.5 0.2-0.9 0.2-0.3 0.5-0.5 0.3-0.3 0.7-0.4 0.4-0.1 0.9-0.1 0.4 0 0.7 0.1 0.4 0 0.7 0.2 0.3 0.2 0.5 0.5 0.2 0.3 0.2 0.8v2.9q0 0.3 0 0.5 0 0.1 0.3 0.1 0.1 0 0.2 0zm-1.4-2.9q-0.2 0.1-0.5 0.2-0.2 0-0.6 0.1-0.3 0-0.6 0.1-0.3 0-0.5 0.1-0.3 0.1-0.4 0.3-0.2 0.2-0.2 0.6 0 0.2 0.1 0.4 0.1 0.1 0.3 0.2 0.1 0.1 0.3 0.2 0.2 0 0.4 0 0.4 0 0.8-0.1 0.3-0.1 0.5-0.3 0.2-0.2 0.3-0.4 0.1-0.3 0.1-0.5z"/></svg>