<svg width="21" height="19" viewBox="0 0 21 19" fill="none" xmlns="http://www.w3.org/2000/svg">
<path d="M12.1274 11.061L5.04297 15.213V17.9948L12.1291 13.8411L12.1274 11.061Z" fill="#E1FF26"/>
<path d="M9.46037 11.8409L2.37593 7.68896L0.00195312 9.07987L7.08809 13.2336L9.46037 11.8409Z" fill="#E1FF26"/>
<path d="M7.46187 9.88798V1.58232L5.08789 0.191406V8.49707L7.46187 9.88798Z" fill="#E1FF26"/>
<path d="M8.1267 7.1528L15.2111 2.9991V0.217285L8.125 4.37098L8.1267 7.1528Z" fill="#E1FF26"/>
<path d="M10.7949 6.37089L17.8794 10.5229L20.2533 9.13195L13.1672 4.97998L10.7949 6.37089Z" fill="#E1FF26"/>
<path d="M12.793 8.32568V16.6296L15.1669 18.0205V9.71486L12.793 8.32568Z" fill="#E1FF26"/>
<path d="M12.1274 11.061L5.04297 15.213V17.9948L12.1291 13.8411L12.1274 11.061Z" fill="#E1FF26"/>
</svg>
