<svg width="1218" height="124" viewBox="0 0 1218 124" fill="none" xmlns="http://www.w3.org/2000/svg">
<mask id="mask0_6150_111677" style="mask-type:alpha" maskUnits="userSpaceOnUse" x="0" y="0" width="1218" height="46">
<g clip-path="url(#clip0_6150_111677)">
<path d="M67.547 13.2327C67.547 14.5903 66.3858 15.6839 64.9444 15.6839C63.5029 15.6839 62.3418 14.5903 62.3418 13.2327C62.3418 11.8751 63.4629 10.7815 64.9444 10.7815C66.4258 10.8192 67.547 11.9128 67.547 13.2327ZM56.8162 18.1728C56.8162 18.399 56.8162 18.7761 56.8162 18.7761C56.8162 18.7761 55.575 17.2677 52.9324 17.2677C48.568 17.2677 45.1646 20.3977 45.1646 24.7344C45.1646 29.0334 48.5279 32.2011 52.9324 32.2011C55.615 32.2011 56.8162 30.655 56.8162 30.655V31.2961C56.8162 31.5978 57.0565 31.824 57.3768 31.824H60.62V17.6448C60.62 17.6448 57.6571 17.6448 57.3768 17.6448C57.0565 17.6448 56.8162 17.9088 56.8162 18.1728ZM56.8162 27.261C56.2156 28.0907 55.0144 28.8072 53.573 28.8072C51.0104 28.8072 49.0485 27.2987 49.0485 24.7344C49.0485 22.1701 51.0104 20.6617 53.573 20.6617C54.9744 20.6617 56.2557 21.4159 56.8162 22.2078V27.261ZM63.0224 17.6448H66.8663V31.824H63.0224V17.6448ZM120.44 17.2677C117.797 17.2677 116.556 18.7761 116.556 18.7761V10.8192H112.712V31.824C112.712 31.824 115.675 31.824 115.955 31.824C116.276 31.824 116.516 31.56 116.516 31.2961V30.655C116.516 30.655 117.757 32.2011 120.4 32.2011C124.764 32.2011 128.168 29.0334 128.168 24.7344C128.168 20.4354 124.764 17.2677 120.44 17.2677ZM119.799 28.7695C118.318 28.7695 117.157 28.053 116.556 27.2233V22.1701C117.157 21.4159 118.438 20.624 119.799 20.624C122.362 20.624 124.324 22.1324 124.324 24.6967C124.324 27.261 122.362 28.7695 119.799 28.7695ZM110.71 23.4145V31.8617H106.866V23.8294C106.866 21.4913 106.065 20.5485 103.903 20.5485C102.742 20.5485 101.541 21.1142 100.78 21.9438V31.824H96.9363V17.6448H99.9794C100.3 17.6448 100.54 17.9088 100.54 18.1728V18.7761C101.661 17.6825 103.143 17.2677 104.624 17.2677C106.306 17.2677 107.707 17.7202 108.828 18.6253C110.19 19.6812 110.71 21.0388 110.71 23.4145ZM87.607 17.2677C84.9644 17.2677 83.7231 18.7761 83.7231 18.7761V10.8192H79.8793V31.824C79.8793 31.824 82.8423 31.824 83.1225 31.824C83.4429 31.824 83.6831 31.56 83.6831 31.2961V30.655C83.6831 30.655 84.9243 32.2011 87.567 32.2011C91.9313 32.2011 95.3347 29.0334 95.3347 24.7344C95.3748 20.4354 91.9714 17.2677 87.607 17.2677ZM86.9664 28.7695C85.4849 28.7695 84.3237 28.053 83.7231 27.2233V22.1701C84.3237 21.4159 85.605 20.624 86.9664 20.624C89.5289 20.624 91.4909 22.1324 91.4909 24.6967C91.4909 27.261 89.5289 28.7695 86.9664 28.7695ZM76.556 17.2677C77.7171 17.2677 78.3177 17.4563 78.3177 17.4563V20.8125C78.3177 20.8125 75.1145 19.7943 73.1125 21.9438V31.8617H69.2687V17.6448C69.2687 17.6448 72.2317 17.6448 72.5119 17.6448C72.8322 17.6448 73.0725 17.9088 73.0725 18.1728V18.7761C73.7932 17.9842 75.3548 17.2677 76.556 17.2677ZM36.6361 30.5419C36.4359 30.0893 36.2357 29.5991 36.0355 29.1843C35.7151 28.5055 35.3948 27.8644 35.1145 27.261L35.0745 27.2233C32.3117 21.5667 29.3488 15.8347 26.2257 10.1781L26.1055 9.95184C25.7852 9.38618 25.4649 8.78281 25.1446 8.17944C24.7442 7.50065 24.3438 6.78415 23.7031 6.10536C22.4218 4.59693 20.58 3.7673 18.618 3.7673C16.616 3.7673 14.8142 4.59693 13.4929 6.02993C12.8923 6.70873 12.4519 7.42523 12.0515 8.10402C11.7312 8.70739 11.4108 9.31076 11.0905 9.87642L10.9704 10.1027C7.88732 15.7593 4.88431 21.4913 2.12155 27.1479L2.08151 27.2233C1.80123 27.8267 1.48091 28.4678 1.16059 29.1466C0.960391 29.5614 0.760191 30.0139 0.559991 30.5041C0.0394705 31.8994 -0.12069 33.2193 0.0795105 34.5769C0.519951 37.4052 2.52195 39.781 5.28471 40.8369C6.32576 41.2517 7.40684 41.4402 8.52796 41.4402C8.84828 41.4402 9.24868 41.4025 9.569 41.3648C10.8903 41.214 12.2517 40.7992 13.573 40.0826C15.2146 39.2153 16.7762 37.9709 18.538 36.1607C20.2997 37.9709 21.9013 39.2153 23.5029 40.0826C24.8243 40.7992 26.1856 41.214 27.5069 41.3648C27.8272 41.4025 28.2277 41.4402 28.548 41.4402C29.6691 41.4402 30.7902 41.2517 31.7912 40.8369C34.594 39.781 36.556 37.3675 36.9964 34.5769C37.3167 33.257 37.1566 31.9371 36.6361 30.5419ZM18.578 32.5028C16.4158 29.9385 15.0144 27.525 14.534 25.4886C14.3338 24.6213 14.2937 23.8671 14.4138 23.1883C14.4939 22.5849 14.7342 22.057 15.0545 21.6044C15.8152 20.5862 17.0965 19.9452 18.578 19.9452C20.0595 19.9452 21.3808 20.5485 22.1015 21.6044C22.4218 22.057 22.6621 22.5849 22.7422 23.1883C22.8623 23.8671 22.8222 24.659 22.622 25.4886C22.1416 27.4873 20.7402 29.9008 18.578 32.5028ZM34.554 34.2752C34.2737 36.2362 32.8723 37.9331 30.9103 38.6874C29.9494 39.0645 28.9083 39.1776 27.8673 39.0645C26.8663 38.9513 25.8653 38.6496 24.8243 38.084C23.3828 37.3298 21.9414 36.1607 20.2597 34.4261C22.9023 31.3715 24.5039 28.5809 25.1045 26.092C25.3848 24.923 25.4249 23.8671 25.3047 22.8866C25.1446 21.9438 24.7842 21.0765 24.2236 20.3223C22.9824 18.6253 20.9003 17.6448 18.578 17.6448C16.2557 17.6448 14.1736 18.663 12.9324 20.3223C12.3718 21.0765 12.0114 21.9438 11.8513 22.8866C11.6911 23.8671 11.7312 24.9607 12.0515 26.092C12.6521 28.5809 14.2937 31.4092 16.8963 34.4638C15.2547 36.1985 13.7732 37.3675 12.3318 38.1217C11.2907 38.6874 10.2897 38.989 9.28872 39.1022C8.20764 39.2153 7.1666 39.0645 6.24568 38.7251C4.28371 37.9709 2.88231 36.2739 2.60203 34.3129C2.48191 33.3702 2.56199 32.4274 2.96239 31.3715C3.08251 30.9944 3.28271 30.6173 3.48291 30.1647C3.76319 29.5614 4.08351 28.9203 4.40383 28.2792L4.44387 28.2038C7.20664 22.5849 10.1696 16.8529 13.2527 11.2717L13.3728 11.0455C13.6931 10.4798 14.0134 9.87642 14.3338 9.31076C14.6541 8.70739 15.0144 8.14173 15.4549 7.65149C16.2957 6.74644 17.4168 6.2562 18.6581 6.2562C19.8993 6.2562 21.0204 6.74644 21.8613 7.65149C22.3017 8.14173 22.6621 8.70739 22.9824 9.31076C23.3027 9.87642 23.623 10.4798 23.9434 11.0455L24.0635 11.2717C27.1065 16.8906 30.0695 22.6226 32.8323 28.2415V28.2792C33.1526 28.8826 33.4329 29.5614 33.7532 30.1647C33.9534 30.6173 34.1536 30.9944 34.2737 31.3715C34.594 32.352 34.7141 33.2947 34.554 34.2752Z" fill="#1C1C1C"/>
</g>
<g clip-path="url(#clip1_6150_111677)">
<path d="M352.266 19.1533C353.254 20.1404 353.751 21.4786 353.751 23.1742V32.094H350.086V24.1854C350.086 23.1863 349.787 22.3991 349.187 21.8238C348.588 21.2485 347.779 20.9579 346.753 20.9579C345.542 20.976 344.579 21.3696 343.872 22.1326C343.164 22.8956 342.807 23.8766 342.807 25.0696V32.094H339.168V12.2742H342.807V20.5279C343.833 18.6568 345.637 17.706 348.212 17.6697C349.92 17.6697 351.278 18.1602 352.266 19.1533ZM331.073 20.7399C329.862 20.7399 328.874 21.1335 328.122 21.9146C327.37 22.7018 326.988 23.7131 326.988 24.9606C326.988 26.2443 327.37 27.2738 328.122 28.061C328.881 28.8421 329.862 29.2358 331.08 29.2358C332.871 29.2358 334.215 28.6726 335.114 27.5523L337.383 29.3448C336.714 30.2713 335.796 31.01 334.725 31.4824C333.623 31.9789 332.348 32.2272 330.888 32.2272C329.416 32.2272 328.103 31.9244 326.956 31.3189C325.828 30.7315 324.897 29.8413 324.285 28.7695C323.648 27.6734 323.329 26.4139 323.329 24.9908C323.329 23.5496 323.654 22.2719 324.298 21.1698C324.916 20.0859 325.853 19.2018 326.988 18.6083C328.135 18.0028 329.454 17.7 330.952 17.7C332.316 17.7 333.533 17.924 334.604 18.3782C335.675 18.8324 336.548 19.4803 337.224 20.316L335.012 22.3203C333.986 21.2667 332.679 20.7399 331.073 20.7399ZM321.003 17.8029V32.094H317.363V29.8231C316.847 30.5861 316.127 31.2099 315.279 31.6277C314.431 32.0455 313.456 32.2575 312.354 32.2575C310.932 32.2575 309.689 31.9486 308.612 31.337C307.541 30.7254 306.7 29.8595 306.107 28.7453C305.514 27.631 305.215 26.3533 305.215 24.9121C305.215 23.4891 305.514 22.2295 306.114 21.1335C306.706 20.0374 307.548 19.1896 308.618 18.5841C309.689 17.9785 310.926 17.6758 312.328 17.6758C313.431 17.6758 314.412 17.8877 315.266 18.3055C316.12 18.7234 316.847 19.341 317.363 20.1101V17.815L321.003 17.8029ZM316.044 28.285C316.809 27.5826 317.249 26.65 317.363 25.4934V24.4822C317.249 23.3195 316.815 22.393 316.05 21.6906C315.285 20.9881 314.317 20.6369 313.137 20.6369C311.888 20.6369 310.868 21.0426 310.084 21.8541C309.3 22.6655 308.899 23.7131 308.88 24.9908C308.899 26.2746 309.3 27.3162 310.084 28.1276C310.868 28.939 311.888 29.3448 313.137 29.3448C314.31 29.3448 315.279 28.9935 316.044 28.285ZM301.55 19.6438C302.755 20.9457 303.354 22.7685 303.354 25.118C303.354 25.5782 303.341 25.9294 303.328 26.1596H292.27C292.512 27.1769 293.009 27.9702 293.768 28.5515C294.52 29.1328 295.45 29.4174 296.553 29.4174C297.305 29.4174 298.057 29.2781 298.752 28.9996C299.447 28.7331 300.071 28.3274 300.588 27.8127L302.544 29.7626C301.786 30.5559 300.855 31.1735 299.81 31.5792C298.739 32.0092 297.547 32.2211 296.241 32.2211C294.711 32.2211 293.36 31.9184 292.193 31.3128C291.052 30.7315 290.109 29.8413 289.491 28.7634C288.853 27.6674 288.541 26.4078 288.541 24.9848C288.541 23.5617 288.86 22.2961 289.51 21.194C290.135 20.1101 291.072 19.2139 292.212 18.6144C293.372 17.9967 294.685 17.6939 296.158 17.6939C298.548 17.6939 300.345 18.3479 301.55 19.6438ZM300.027 23.8403C299.988 22.7866 299.625 21.951 298.937 21.3272C298.248 20.7035 297.331 20.3886 296.19 20.3886C295.125 20.3886 294.233 20.6975 293.513 21.3091C292.792 21.9207 292.353 22.7624 292.181 23.8342H300.027V23.8403ZM284.583 18.4327C285.45 17.9422 286.463 17.6879 287.623 17.6697V21.0366C286.075 20.9457 284.838 21.2909 283.914 22.066C282.99 22.8411 282.524 23.8887 282.524 25.2028V32.094H278.885V17.8029H282.524V20.5521C283.034 19.6256 283.716 18.9171 284.583 18.4327ZM276.157 31.2099C274.965 31.9062 273.709 32.2514 272.403 32.2514C271.115 32.2514 270.057 31.8881 269.241 31.1675C268.419 30.4469 268.011 29.3811 268.011 27.9762V14.4603L271.625 14.0485V18.3843H275.908V20.9215H271.625V27.3646C271.625 28.0247 271.753 28.4909 272.014 28.7634C272.275 29.042 272.664 29.1752 273.187 29.1752C273.748 29.1752 274.455 28.9814 275.316 28.5878L276.157 31.2099ZM261.268 17.8029H264.882V25.8144C264.882 30.4893 261.459 32.2272 257.985 32.2272C254.512 32.2272 251.095 30.4893 251.095 25.8144V17.8029H254.709V25.9355C254.709 27.7279 256.112 29.1813 257.992 29.1813C259.872 29.1813 261.274 27.7279 261.274 25.9355L261.268 17.8029ZM243.606 14.4118C245.168 15.2172 246.468 16.4102 247.373 17.8574C248.291 19.3168 248.743 20.9397 248.743 22.72C248.743 24.5003 248.285 26.1232 247.373 27.5947C246.468 29.0541 245.168 30.2591 243.606 31.0827C242.006 31.9365 240.241 32.3665 238.297 32.3665C236.353 32.3665 234.587 31.9365 232.994 31.0827C231.432 30.2591 230.132 29.0541 229.227 27.5947C228.316 26.1232 227.857 24.5003 227.857 22.72C227.857 20.9397 228.316 19.3168 229.227 17.8574C230.132 16.4041 231.432 15.2172 232.994 14.4118C234.587 13.5762 236.359 13.1583 238.297 13.1583C240.241 13.1523 242.013 13.5701 243.606 14.4118ZM235.027 17.2034C234.014 17.7484 233.172 18.5417 232.592 19.4985C231.993 20.4734 231.694 21.5452 231.694 22.72C231.694 23.8948 232 24.9727 232.605 25.9537C233.191 26.9165 234.033 27.7158 235.04 28.279C236.06 28.8482 237.162 29.1328 238.361 29.1328C239.514 29.1389 240.649 28.8421 241.637 28.279C242.637 27.7158 243.46 26.9165 244.033 25.9537C244.626 24.9666 244.926 23.8524 244.913 22.72C244.913 21.5452 244.62 20.4734 244.033 19.4985C243.466 18.5478 242.637 17.7545 241.637 17.2034C240.642 16.6463 239.514 16.3557 238.361 16.3617C237.188 16.3557 236.041 16.6463 235.027 17.2034ZM200.43 5.14082C205.587 5.14082 213.376 6.64865 216.996 10.1064C217.914 10.9844 219.118 12.6981 219.118 15.2172C219.118 19.6862 215.339 26.5471 211.17 30.5316C209.016 32.5905 205.587 35.2792 200.972 35.2792C196.46 35.2792 193.018 32.3604 192.023 31.4036C188.199 27.7582 185.465 22.2235 185.465 17.0702C185.465 13.8123 186.44 10.9662 188.919 8.59853C191.214 6.41248 195.172 5.14082 200.43 5.14082ZM206.811 22.9743C208.551 21.3151 209.022 19.2684 209.022 18.142C209.022 17.3245 208.799 16.1316 207.728 15.1082C206.09 13.5398 204.267 13.0978 202.292 13.0978C199.787 13.0978 198.104 13.8547 196.982 14.9205C196.103 15.7683 195.344 17.052 195.344 18.8869C195.344 20.7156 196.37 22.4838 197.479 23.5496C198.512 24.5306 200.131 25.2573 201.756 25.2573C203.388 25.2573 205.071 24.6336 206.811 22.9743Z" fill="#1C1C1C"/>
</g>
<g clip-path="url(#clip2_6150_111677)">
<path fill-rule="evenodd" clip-rule="evenodd" d="M534.885 30.1198C534.961 30.9388 535.656 31.9812 536.862 31.9812H537.567C537.841 31.9812 538.064 31.7702 538.064 31.5126V16.909H538.061C538.047 16.663 537.831 16.4659 537.567 16.4659H535.383C535.118 16.4659 534.902 16.663 534.888 16.909H534.885V18.0956C533.546 16.5417 531.436 15.8967 529.32 15.8967C524.51 15.8967 520.61 19.5721 520.61 24.1063C520.61 28.6407 524.51 32.3162 529.32 32.3162C531.436 32.3162 533.743 31.5427 534.885 30.118V30.1198ZM529.328 29.443C526.269 29.443 523.789 27.0538 523.789 24.1063C523.789 21.1592 526.269 18.77 529.328 18.77C532.388 18.77 534.868 21.1592 534.868 24.1063C534.868 27.0538 532.388 29.443 529.328 29.443Z" fill="#0D0E10"/>
<path fill-rule="evenodd" clip-rule="evenodd" d="M517.848 23.0653C517.848 18.8056 514.997 15.9319 510.45 15.9319C508.28 15.9319 506.501 17.1148 505.872 18.1309C505.737 17.3364 505.289 16.5012 503.901 16.5012H503.194C502.92 16.5012 502.697 16.7123 502.697 16.97V30.1563C502.697 30.1568 502.697 30.1577 502.697 30.1584V31.5749H502.7C502.714 31.8205 502.93 32.0177 503.194 32.0177H505.379C505.412 32.0177 505.445 32.014 505.477 32.0082C505.491 32.0055 505.505 32.0002 505.519 31.9964C505.535 31.9917 505.552 31.9881 505.567 31.9821C505.587 31.9745 505.604 31.9643 505.622 31.9548C505.631 31.9497 505.641 31.9461 505.649 31.9408C505.671 31.9275 505.691 31.9116 505.71 31.8953C505.713 31.8923 505.717 31.8903 505.72 31.8875C505.742 31.8677 505.762 31.8458 505.779 31.8231C505.834 31.7524 505.867 31.6668 505.873 31.5749H505.876V22.9481C505.876 20.6603 507.844 18.8056 510.271 18.8056C512.698 18.8056 514.666 20.6603 514.666 22.9481L514.668 30.1589L514.669 30.1563C514.669 30.1628 514.67 30.1693 514.67 30.1761V31.5749H514.673C514.687 31.8205 514.903 32.0177 515.167 32.0177H517.352C517.385 32.0177 517.418 32.014 517.45 32.0082C517.463 32.0059 517.475 32.001 517.487 31.9977C517.505 31.9928 517.523 31.9886 517.541 31.9821C517.558 31.9751 517.575 31.9654 517.592 31.9564C517.602 31.9509 517.613 31.947 517.623 31.9408C517.643 31.9282 517.661 31.9132 517.68 31.8983C517.684 31.8942 517.689 31.8912 517.694 31.8872C517.714 31.8683 517.733 31.848 517.75 31.8267C517.751 31.8251 517.752 31.8238 517.753 31.8222C517.807 31.7521 517.84 31.6674 517.846 31.576C517.846 31.5754 517.846 31.5749 517.846 31.5749H517.849L517.848 23.0653Z" fill="#0D0E10"/>
<path fill-rule="evenodd" clip-rule="evenodd" d="M495.096 30.1198C495.172 30.9387 495.868 31.9811 497.073 31.9811H497.778C498.051 31.9811 498.275 31.7702 498.275 31.5126V16.909H498.272C498.258 16.663 498.042 16.4659 497.778 16.4659H495.593C495.329 16.4659 495.113 16.663 495.099 16.909H495.096V18.0956C493.757 16.5417 491.647 15.8967 489.531 15.8967C484.721 15.8967 480.821 19.5721 480.821 24.1063C480.821 28.6407 484.721 32.3162 489.531 32.3162C491.647 32.3162 493.953 31.5428 495.096 30.1179L495.096 30.1198ZM489.539 29.4429C486.48 29.4429 484 27.0539 484 24.1063C484 21.1592 486.48 18.77 489.539 18.77C492.599 18.77 495.079 21.1592 495.079 24.1063C495.079 27.0539 492.599 29.4429 489.539 29.4429Z" fill="#0D0E10"/>
<path fill-rule="evenodd" clip-rule="evenodd" d="M467.902 28.0282C469.361 28.9806 470.952 29.4431 472.482 29.4431C473.94 29.4431 475.446 28.731 475.446 27.4914C475.446 25.8366 472.163 25.5791 470.101 24.9183C468.037 24.2575 466.26 22.8915 466.26 20.6794C466.26 17.2945 469.46 15.8965 472.447 15.8965C474.339 15.8965 476.292 16.4846 477.557 17.3271C477.993 17.6385 477.728 17.9959 477.728 17.9959L476.519 19.6225C476.384 19.8057 476.146 19.964 475.805 19.7657C475.464 19.5676 474.269 18.7699 472.447 18.7699C470.625 18.7699 469.527 19.5631 469.527 20.5462C469.527 21.7251 470.954 22.0958 472.624 22.4977C475.536 23.2375 478.713 24.1267 478.713 27.4914C478.713 30.4738 475.753 32.3169 472.482 32.3169C470.003 32.3169 467.893 31.6508 466.123 30.4266C465.754 30.0787 466.012 29.7557 466.012 29.7557L467.214 28.1374C467.459 27.8348 467.767 27.9404 467.902 28.0282Z" fill="#0D0E10"/>
<path fill-rule="evenodd" clip-rule="evenodd" d="M459.503 30.1198C459.58 30.9387 460.275 31.9811 461.48 31.9811H462.185C462.459 31.9811 462.683 31.7702 462.683 31.5126V16.909H462.68C462.665 16.663 462.449 16.4659 462.185 16.4659H460.001C459.736 16.4659 459.521 16.663 459.506 16.909H459.503V18.0956C458.165 16.5417 456.055 15.8967 453.938 15.8967C449.128 15.8967 445.229 19.5721 445.229 24.1063C445.229 28.6407 449.128 32.3162 453.938 32.3162C456.055 32.3162 458.361 31.5428 459.503 30.1179L459.503 30.1198ZM453.947 29.4429C450.887 29.4429 448.407 27.0539 448.407 24.1063C448.407 21.1592 450.887 18.77 453.947 18.77C457.006 18.77 459.486 21.1592 459.486 24.1063C459.486 27.0539 457.006 29.4429 453.947 29.4429Z" fill="#0D0E10"/>
<path fill-rule="evenodd" clip-rule="evenodd" d="M433.017 24.6645C429.78 24.6645 427.156 27.1361 427.156 30.1851C427.156 33.234 429.78 35.7055 433.017 35.7055C436.254 35.7055 438.879 33.234 438.879 30.1851C438.879 27.1361 436.254 24.6645 433.017 24.6645ZM417.789 24.6651C414.552 24.6651 411.928 27.1361 411.928 30.1851C411.928 33.234 414.552 35.7055 417.789 35.7055C421.026 35.7055 423.651 33.234 423.651 30.1851C423.651 27.1361 421.026 24.6651 417.789 24.6651ZM431.264 17.7639C431.264 20.813 428.64 23.2848 425.403 23.2848C422.166 23.2848 419.542 20.813 419.542 17.7639C419.542 14.7155 422.166 12.2437 425.403 12.2437C428.64 12.2437 431.264 14.7155 431.264 17.7639Z" fill="#1C1C1C"/>
</g>
<g clip-path="url(#clip3_6150_111677)">
<path d="M644.63 24.1579C644.63 29.1714 640.466 32.8658 635.355 32.8658C630.244 32.8658 626.08 29.1714 626.08 24.1579C626.08 19.109 630.244 15.4499 635.355 15.4499C640.466 15.4499 644.63 19.109 644.63 24.1579ZM640.57 24.1579C640.57 21.0249 638.156 18.8813 635.355 18.8813C632.554 18.8813 630.14 21.0249 630.14 24.1579C630.14 27.2595 632.554 29.4345 635.355 29.4345C638.156 29.4345 640.57 27.2555 640.57 24.1579Z" fill="#1C1C1C"/>
<path d="M664.64 24.1579C664.64 29.1714 660.476 32.8658 655.365 32.8658C650.254 32.8658 646.09 29.1714 646.09 24.1579C646.09 19.1129 650.254 15.45 655.365 15.45C660.476 15.45 664.64 19.109 664.64 24.1579ZM660.58 24.1579C660.58 21.0249 658.166 18.8813 655.365 18.8813C652.564 18.8813 650.15 21.0249 650.15 24.1579C650.15 27.2595 652.564 29.4345 655.365 29.4345C658.166 29.4345 660.58 27.2555 660.58 24.1579Z" fill="#1C1C1C"/>
<path d="M683.815 15.976V31.6095C683.815 38.0404 679.788 40.6669 675.027 40.6669C670.546 40.6669 667.849 37.8441 666.832 35.5356L670.367 34.1497C670.996 35.567 672.539 37.2395 675.023 37.2395C678.07 37.2395 679.959 35.4688 679.959 32.1356V30.8832H679.817C678.908 31.9393 677.157 32.8619 674.948 32.8619C670.325 32.8619 666.09 29.0694 666.09 24.1893C666.09 19.2739 670.325 15.45 674.948 15.45C677.153 15.45 678.904 16.3726 679.817 17.3973H679.959V15.98H683.815V15.976ZM680.246 24.1893C680.246 21.1231 678.074 18.8813 675.311 18.8813C672.509 18.8813 670.163 21.1231 670.163 24.1893C670.163 27.2241 672.509 29.4345 675.311 29.4345C678.074 29.4345 680.246 27.2241 680.246 24.1893Z" fill="#1C1C1C"/>
<path d="M690.171 6.81276V32.332H686.211V6.81276H690.171Z" fill="#1C1C1C"/>
<path d="M705.604 27.0239L708.755 29.0026C707.738 30.4199 705.287 32.8619 701.052 32.8619C695.8 32.8619 691.877 29.038 691.877 24.154C691.877 18.9755 695.833 15.446 700.598 15.446C705.396 15.446 707.742 19.0423 708.509 20.9857L708.93 21.975L696.571 26.7962C697.517 28.5433 698.988 29.4345 701.052 29.4345C703.12 29.4345 704.553 28.4765 705.604 27.0239ZM695.904 23.8909L704.166 20.6598C703.711 19.5723 702.344 18.8146 700.735 18.8146C698.672 18.8146 695.8 20.5303 695.904 23.8909Z" fill="#1C1C1C"/>
<path d="M611.09 21.8924V18.198H624.308C624.438 18.8419 624.504 19.6036 624.504 20.428C624.504 23.1998 623.7 26.6272 621.107 29.0692C618.585 31.5426 615.363 32.8618 611.094 32.8618C603.182 32.8618 596.529 26.7921 596.529 19.3405C596.529 11.8889 603.182 5.81925 611.094 5.81925C615.471 5.81925 618.589 7.43678 620.932 9.54506L618.164 12.1519C616.484 10.6679 614.208 9.51365 611.09 9.51365C605.312 9.51365 600.794 13.899 600.794 19.3405C600.794 24.782 605.312 29.1674 611.09 29.1674C614.838 29.1674 616.972 27.7501 618.339 26.4623C619.448 25.418 620.177 23.9261 620.465 21.8885L611.09 21.8924Z" fill="#1C1C1C"/>
</g>
<g clip-path="url(#clip4_6150_111677)">
<path d="M796.234 32.0097V11.3317H799.646V19.4838C800.72 17.9769 802.331 17.2232 804.479 17.2227C806.311 17.2227 807.727 17.7334 808.728 18.7548C809.728 19.7763 810.229 21.1995 810.229 23.0243V32.0097H806.818V23.4707C806.818 21.1106 805.701 19.9304 803.469 19.9301C802.352 19.9301 801.436 20.2474 800.721 20.8821C800.005 21.5169 799.647 22.4095 799.646 23.5599V32.0095L796.234 32.0097Z" fill="#1C1C1C"/>
<path d="M826.35 30.225C824.834 31.6532 822.928 32.3672 820.632 32.3672C818.337 32.3672 816.426 31.6532 814.899 30.225C813.372 28.7968 812.608 26.9816 812.608 24.7794C812.609 22.5774 813.372 20.7675 814.899 19.35C816.426 17.9321 818.337 17.223 820.632 17.2226C822.928 17.2223 824.834 17.9314 826.35 19.35C827.867 20.7684 828.625 22.5782 828.625 24.7794C828.625 26.9807 827.867 28.7959 826.35 30.225ZM817.395 28.4099C818.205 29.3024 819.284 29.7488 820.632 29.7488C821.981 29.7488 823.06 29.3024 823.87 28.4099C824.681 27.5173 825.086 26.3072 825.087 24.7794C825.087 23.2722 824.676 22.0722 823.855 21.1794C823.033 20.2867 821.959 19.8404 820.632 19.8405C819.284 19.8405 818.205 20.2819 817.395 21.1645C816.584 22.0472 816.178 23.2519 816.178 24.7788C816.178 26.3072 816.584 27.5175 817.395 28.4099Z" fill="#1C1C1C"/>
<path d="M836.521 32.3667C833.383 32.3667 831.814 30.7798 831.814 27.6062V20.2871H829.445V17.5797H831.909L832.699 13.3259H835.257V17.5797H841.354V20.2871H835.257V27.5171C835.257 28.8462 835.773 29.5107 836.805 29.5106C837.774 29.5106 838.648 28.6774 839.427 27.0112L842.081 28.2907C840.775 31.0083 838.922 32.3669 836.521 32.3667Z" fill="#1C1C1C"/>
<path d="M843.178 38.6148C841.661 38.6148 840.408 38.2181 839.418 37.4246L840.682 34.8957C841.293 35.5697 841.956 35.9071 842.672 35.9077C843.62 35.9077 844.094 35.3326 844.094 34.1821V17.5797H847.505V34.2409C847.505 35.788 847.1 36.9037 846.289 37.5879C845.478 38.2722 844.441 38.6144 843.178 38.6148ZM845.8 15.1398C845.239 15.1578 844.693 14.9652 844.283 14.6044C844.086 14.4293 843.931 14.2168 843.827 13.9808C843.724 13.7449 843.675 13.4909 843.683 13.2358C843.676 12.9786 843.725 12.7227 843.828 12.4845C843.932 12.2463 844.087 12.0309 844.283 11.8522C844.696 11.4982 845.234 11.3019 845.792 11.3019C846.35 11.3019 846.888 11.4982 847.3 11.8522C847.501 12.0287 847.66 12.2433 847.766 12.4818C847.872 12.7203 847.923 12.9773 847.916 13.2358C847.921 13.4897 847.869 13.7416 847.763 13.975C847.656 14.2083 847.499 14.4178 847.3 14.5895C847.101 14.7697 846.866 14.9111 846.608 15.0056C846.351 15.1 846.076 15.1456 845.8 15.1398Z" fill="#1C1C1C"/>
<path d="M855.978 32.3668C854.23 32.3668 852.813 31.9552 851.729 31.1322C850.645 30.309 850.102 29.2035 850.102 27.8155C850.102 26.5461 850.665 25.4699 851.792 24.5866C852.919 23.7035 854.335 23.2622 856.041 23.2628C857.789 23.2628 859.263 23.7884 860.464 24.8397V23.0841C860.464 22.053 860.185 21.2547 859.626 20.689C859.068 20.1233 858.273 19.8407 857.242 19.841C855.157 19.841 853.861 20.8426 853.356 22.8459L850.228 22.2211C850.649 20.6741 851.481 19.4543 852.724 18.5617C853.967 17.6691 855.515 17.2228 857.368 17.2228C859.39 17.2228 860.985 17.7237 862.154 18.7254C863.323 19.7271 863.907 21.1899 863.907 23.1137V32.0098H860.59V30.1947C859.473 31.6429 857.936 32.367 855.978 32.3668ZM856.609 29.9866C858.125 29.9866 859.41 29.2726 860.464 27.8446V27.3978C859.41 26.2078 858.125 25.6127 856.609 25.6128C855.725 25.6128 855.008 25.8163 854.46 26.2232C854.201 26.4031 853.991 26.6386 853.848 26.9104C853.705 27.182 853.633 27.482 853.638 27.7851C853.63 28.0914 853.699 28.3953 853.839 28.672C853.979 28.9485 854.186 29.1901 854.444 29.3769C854.982 29.7835 855.703 29.9867 856.609 29.9866Z" fill="#1C1C1C"/>
<path d="M867.227 32.0097V17.5797H870.544V20.0789C871.386 18.2542 872.839 17.3417 874.903 17.3416C876.124 17.3416 877.135 17.7185 877.936 18.4722C878.737 19.2259 879.136 20.2375 879.136 21.5069C879.127 22.2667 878.989 23.0202 878.725 23.7383L875.598 23.4409C875.662 23.0465 875.704 22.6493 875.724 22.2508C875.724 20.7632 875.071 20.0194 873.766 20.0193C872.881 20.0193 872.138 20.4606 871.538 21.3432C870.938 22.2259 870.638 23.3912 870.638 24.8394V32.0097H867.227Z" fill="#1C1C1C"/>
<path d="M774.929 19.7874C777.472 18.4572 780.954 16.635 780.954 11.3315H776.737C776.737 14.2988 775.204 15.1014 772.882 16.3162C770.339 17.647 766.857 19.4684 766.857 24.7724H771.074C771.074 21.8049 772.607 21.0023 774.929 19.7874Z" fill="#1C1C1C"/>
<path d="M782.227 18.5687C782.227 21.5361 780.693 22.3387 778.371 23.5534C775.829 24.8836 772.347 26.7056 772.347 32.0094H776.563C776.563 29.042 778.097 28.2395 780.418 27.0246C782.961 25.6944 786.443 23.8726 786.443 18.5687H782.227Z" fill="#1C1C1C"/>
</g>
<g clip-path="url(#clip5_6150_111677)">
<path d="M972.507 19.4664H961.788L971.071 14.4449L969.23 11.4562L959.946 16.4777L965.304 7.78071L962.115 6.0556L956.756 14.7504V4.70958H953.072V14.7515L947.712 6.0556L944.522 7.78071L949.88 16.4755L940.599 11.4562L938.757 14.4449L948.039 19.4664H937.32V22.9177H948.038L938.757 27.9392L940.597 30.9279L949.881 25.9064L944.522 34.6034L947.711 36.3285L953.072 27.6326V37.6734H956.756V27.4173L962.214 36.2735L965.205 34.6561L959.746 25.7976L969.228 30.9268L971.07 27.9381L961.788 22.9166H972.506V19.4664H972.507ZM954.914 25.8833C954.256 25.8834 953.605 25.7621 952.997 25.5263C952.39 25.2905 951.838 24.9449 951.372 24.5092C950.907 24.0735 950.538 23.5562 950.287 22.9868C950.035 22.4175 949.905 21.8072 949.905 21.1909C949.905 20.5747 950.035 19.9644 950.286 19.395C950.538 18.8256 950.907 18.3082 951.372 17.8724C951.837 17.4365 952.389 17.0908 952.996 16.8549C953.604 16.619 954.255 16.4975 954.912 16.4974C956.241 16.4973 957.514 16.9916 958.454 17.8716C959.393 18.7516 959.921 19.9452 959.921 21.1898C959.921 22.4345 959.394 23.6282 958.455 24.5084C957.515 25.3886 956.242 25.8832 954.914 25.8833Z" fill="#1C1C1C"/>
<path d="M982.004 33.2484V9.13426H986.727V33.2484H982.004ZM1027.3 16.861H1031.81V18.8608C1032.77 17.262 1035.01 16.3951 1036.92 16.3951C1039.31 16.3951 1041.22 17.362 1042.11 19.1256C1043.49 17.1258 1045.34 16.3951 1047.65 16.3951C1050.88 16.3951 1053.97 18.2268 1053.97 22.6231V33.2484H1049.39V23.523C1049.39 21.7572 1048.47 20.4244 1046.3 20.4244C1044.27 20.4244 1043.07 21.8913 1043.07 23.657V33.2495H1038.38V23.523C1038.38 21.7572 1037.42 20.4244 1035.29 20.4244C1033.23 20.4244 1032.02 21.8583 1032.02 23.657V33.2495H1027.3V16.861ZM997.4 33.7231C992.079 33.7231 988.226 30.0234 988.226 25.0547C988.226 20.1651 992.067 16.3786 997.4 16.3786C1002.76 16.3786 1006.57 20.2002 1006.57 25.0547C1006.57 29.9883 1002.72 33.7231 997.4 33.7231ZM997.4 20.3892C996.08 20.391 994.815 20.8833 993.882 21.7581C992.949 22.633 992.425 23.819 992.424 25.0558C992.425 26.2926 992.949 27.4786 993.882 28.3534C994.815 29.2283 996.08 29.7206 997.4 29.7224C998.72 29.7203 999.984 29.2279 1000.92 28.353C1001.85 27.4782 1002.37 26.2924 1002.37 25.0558C1002.37 23.8192 1001.85 22.6334 1000.92 21.7585C999.984 20.8837 998.72 20.3912 997.4 20.3892ZM1016.66 33.7231C1011.34 33.7231 1007.49 30.0234 1007.49 25.0547C1007.49 20.1651 1011.33 16.3786 1016.66 16.3786C1022.02 16.3786 1025.83 20.2002 1025.83 25.0547C1025.83 29.9883 1021.98 33.7231 1016.66 33.7231ZM1016.66 20.3332C1015.33 20.3352 1014.05 20.8333 1013.1 21.7182C1012.16 22.6031 1011.63 23.8026 1011.63 25.0536C1011.63 26.3046 1012.16 27.5041 1013.1 28.389C1014.05 29.2739 1015.33 29.772 1016.66 29.774C1018 29.772 1019.28 29.2739 1020.22 28.389C1021.16 27.5041 1021.69 26.3046 1021.69 25.0536C1021.69 23.8026 1021.16 22.6031 1020.22 21.7182C1019.28 20.8333 1018 20.3352 1016.66 20.3332Z" fill="#1C1C1C"/>
</g>
<g clip-path="url(#clip6_6150_111677)">
<path d="M1118.13 18.9384C1122.9 17.39 1123.71 13.3564 1123.11 9.64779C1123.11 9.51397 1123.23 9.41839 1123.35 9.45662C1127.92 11.5594 1133.05 16.1474 1133.05 23.0294C1133.05 28.3056 1128.71 32.97 1122.39 32.97C1120.14 33.0665 1117.92 32.4537 1116.08 31.2284C1114.24 30.0031 1112.88 28.2351 1112.22 26.2034C1111.57 24.1717 1111.65 21.992 1112.45 20.0084C1113.26 18.0248 1114.74 16.3502 1116.67 15.2489C1116.79 15.1725 1116.96 15.2489 1116.96 15.3828C1117.02 16.0901 1117.22 17.8679 1118.05 18.9384H1118.13Z" fill="#1C1C1C"/>
<path d="M1146.49 28.7834L1146.83 28.4011L1147.91 31.6127L1147.77 31.7465C1146.95 32.4538 1145.74 32.817 1144.17 32.817H1144.11C1142.69 32.817 1141.58 32.4347 1140.8 31.7274C1140.03 31.0009 1139.63 29.9113 1139.63 28.5349V19.7795H1136.89V16.2429H1139.63V11.9799H1143.85V16.2429H1147.2V19.7795H1143.83V27.6746C1143.83 28.0379 1143.93 29.204 1145.11 29.204C1145.72 29.204 1146.28 28.9937 1146.49 28.7643V28.7834ZM1148.72 32.4538V16.262H1152.94V32.4538H1148.72ZM1150.81 9.64771C1151.31 9.64773 1151.8 9.7874 1152.22 10.0491C1152.63 10.3109 1152.96 10.6829 1153.15 11.1185C1153.35 11.554 1153.4 12.0335 1153.3 12.4965C1153.2 12.9595 1152.96 13.3853 1152.61 13.7202C1152.26 14.0552 1151.81 14.2842 1151.32 14.3786C1150.83 14.4729 1150.32 14.4283 1149.85 14.2504C1149.39 14.0725 1148.99 13.7692 1148.71 13.3787C1148.43 12.9883 1148.28 12.5282 1148.27 12.0564C1148.27 10.7565 1149.43 9.64771 1150.81 9.64771ZM1164.29 15.8606C1167.94 15.8606 1169.95 17.734 1169.95 21.1559V32.4347H1165.73V22.1117C1165.65 20.2765 1164.71 19.4354 1162.73 19.4354C1160.94 19.4354 1159.5 20.4677 1158.77 21.3471V32.4347H1154.55V16.2812H1158.77V18.0017C1159.99 16.8929 1161.93 15.8988 1164.29 15.8988V15.8606ZM1184 17.9443V10.3359H1188.22V32.4729H1184V30.7906C1183.35 31.4324 1182.57 31.9444 1181.71 32.2959C1180.85 32.6474 1179.92 32.8312 1178.98 32.8361C1174.38 32.8361 1171.29 29.4334 1171.29 24.3675C1171.29 19.2825 1174.38 15.8797 1178.98 15.8797C1179.92 15.8838 1180.85 16.069 1181.72 16.424C1182.58 16.7791 1183.35 17.2964 1184 17.9443ZM1184 21.3662C1183.53 20.789 1182.93 20.3179 1182.24 19.9873C1181.55 19.6566 1180.79 19.4746 1180.02 19.4545C1177.4 19.4545 1175.65 21.4235 1175.65 24.3675C1175.65 27.2923 1177.4 29.2613 1180.02 29.2613C1181.54 29.2613 1183.21 28.4967 1184 27.3879V21.3662ZM1198.08 15.8797C1203.08 15.8797 1206.55 19.5119 1206.55 24.6733V25.763H1193.78C1194.21 28.0379 1196.11 29.4907 1198.71 29.4907C1200.36 29.4907 1202.16 28.8216 1203.2 27.8467L1203.48 27.6173L1205.49 30.3318L1205.29 30.5039C1203.39 32.0921 1200.91 32.9276 1198.37 32.8361C1193.09 32.8361 1189.38 29.3378 1189.38 24.3484C1189.33 23.2468 1189.53 22.1488 1189.95 21.1202C1190.37 20.0916 1191.01 19.1537 1191.82 18.3628C1192.64 17.5719 1193.62 16.9442 1194.69 16.5175C1195.77 16.0908 1196.93 15.8739 1198.1 15.8797H1198.08ZM1193.76 22.7617H1202.43C1202.18 20.3339 1200.05 19.2251 1198.08 19.2251C1195.12 19.2251 1194 21.3279 1193.76 22.7808V22.7617ZM1216.76 15.8797H1217.06V19.8942L1216.7 19.8368C1216.39 19.7795 1216.01 19.7413 1215.62 19.7413C1214.26 19.7413 1212.37 20.6397 1211.66 21.5956V32.4347H1207.44V16.262H1211.68V18.059C1213.08 16.6826 1214.93 15.8797 1216.76 15.8797Z" fill="#1C1C1C"/>
</g>
</mask>
<g mask="url(#mask0_6150_111677)">
<rect x="-13.2129" y="-20.8148" width="1246.8" height="78.147" fill="url(#paint0_linear_6150_111677)"/>
</g>
<mask id="mask1_6150_111677" style="mask-type:alpha" maskUnits="userSpaceOnUse" x="34" y="45" width="1092" height="79">
<rect x="34.3418" y="45.2075" width="1091.5" height="78.147" fill="url(#paint1_linear_6150_111677)"/>
</mask>
<g mask="url(#mask1_6150_111677)">
<g clip-path="url(#clip7_6150_111677)">
<path fill-rule="evenodd" clip-rule="evenodd" d="M67.7338 92.104L80.0264 81.2163C80.8616 80.4766 81.9729 80.0698 83.1574 80.0698C84.341 80.0698 85.4523 80.4762 86.2866 81.2159L87.2443 82.0642L89.1602 80.3672L88.2025 79.519C86.857 78.3273 85.0654 77.671 83.1565 77.671C81.2485 77.6714 79.4564 78.3277 78.111 79.5197L65.8184 90.4071L67.7338 92.104Z" fill="#3E3E3E"/>
<path fill-rule="evenodd" clip-rule="evenodd" d="M84.1805 84.8328L82.2555 83.1384L69.9052 94.01C68.1708 95.5366 65.3489 95.537 63.615 94.0107C61.8807 92.4841 61.8807 89.9998 63.615 88.4731L74.2722 79.0927L72.3472 77.3986L61.6905 86.7791C58.8948 89.2399 58.8948 93.2443 61.6905 95.7048C63.0423 96.8947 64.8424 97.5504 66.7594 97.5504C68.677 97.5504 70.4779 96.8943 71.8297 95.7044L84.1805 84.8328Z" fill="#3E3E3E"/>
<path fill-rule="evenodd" clip-rule="evenodd" d="M96.3998 86.8689C95.0484 85.679 93.2483 85.0236 91.3304 85.0236C89.4128 85.024 87.6119 85.6793 86.26 86.8697L73.9101 97.7411L75.8342 99.4355L88.185 88.5637C89.9198 87.0371 92.7413 87.0374 94.4752 88.5633C95.3139 89.3016 95.7758 90.2844 95.7758 91.3316C95.7758 92.3792 95.3139 93.3624 94.4752 94.1007L83.8184 103.481L85.7434 105.175L96.3998 95.7951C99.1959 93.3343 99.1959 89.3298 96.3998 86.8689Z" fill="#3E3E3E"/>
<path fill-rule="evenodd" clip-rule="evenodd" d="M90.3571 90.47L78.0647 101.358C76.3381 102.886 73.53 102.887 71.8042 101.358L70.8465 100.51L68.9307 102.207L69.8884 103.055C71.2338 104.247 73.0254 104.903 74.9347 104.903C76.8427 104.903 78.6343 104.246 79.9801 103.054L92.2725 92.1669L90.3571 90.47Z" fill="#3E3E3E"/>
<path fill-rule="evenodd" clip-rule="evenodd" d="M109.849 94.122C110.007 94.8167 110.379 95.3606 110.962 95.7525C111.546 96.1451 112.313 96.3411 113.265 96.3411C114.202 96.3411 114.926 96.1483 115.438 95.7622C115.949 95.3765 116.205 94.8684 116.205 94.2378C116.205 93.9292 116.137 93.6687 116 93.4564C115.863 93.2442 115.672 93.0642 115.427 92.916C115.181 92.7687 114.879 92.6427 114.519 92.5401C114.159 92.4371 113.755 92.3278 113.308 92.212L112.141 91.9227C111.449 91.7556 110.829 91.553 110.281 91.3147C109.733 91.0768 109.265 90.7969 108.876 90.4753C108.487 90.1538 108.191 89.7841 107.989 89.3658C107.788 88.9479 107.687 88.4619 107.687 87.9091C107.687 87.3302 107.816 86.7964 108.076 86.3074C108.335 85.8191 108.703 85.4004 109.179 85.0532C109.654 84.706 110.231 84.4327 110.908 84.2329C111.585 84.0342 112.349 83.9343 113.2 83.9343C114.8 83.9343 116.068 84.2718 117.005 84.9471C117.942 85.6227 118.489 86.5262 118.648 87.6583L116.054 87.8512C115.895 87.2723 115.578 86.8221 115.103 86.5006C114.627 86.1791 113.964 86.0181 113.114 86.0181C112.321 86.0181 111.701 86.1822 111.254 86.5103C110.807 86.8384 110.583 87.2598 110.583 87.7742C110.583 88.07 110.649 88.3173 110.779 88.5167C110.908 88.7166 111.095 88.8899 111.341 89.0377C111.585 89.1858 111.885 89.3176 112.238 89.4331C112.591 89.5489 112.991 89.6718 113.438 89.8001L114.541 90.1087C115.232 90.3016 115.856 90.5041 116.41 90.7164C116.965 90.9286 117.437 91.1829 117.826 91.4788C118.216 91.7746 118.515 92.1284 118.724 92.5401C118.933 92.9518 119.037 93.4599 119.037 94.0645C119.037 94.7079 118.893 95.2965 118.605 95.8299C118.317 96.364 117.914 96.8173 117.394 97.1902C116.876 97.5634 116.26 97.853 115.546 98.0583C114.832 98.2639 114.043 98.3673 113.178 98.3673C111.578 98.3673 110.245 98.033 109.179 97.3639C108.112 96.6949 107.456 95.6852 107.211 94.3343L109.849 94.122Z" fill="#3E3E3E"/>
<path fill-rule="evenodd" clip-rule="evenodd" d="M130.198 86.2809C129.421 86.2809 128.725 86.409 128.113 86.6644C127.5 86.9202 126.981 87.2746 126.557 87.7282C126.131 88.1821 125.807 88.7192 125.584 89.3384C125.361 89.9587 125.249 90.6328 125.249 91.3611C125.249 92.0898 125.364 92.767 125.595 93.3935C125.825 94.0196 126.153 94.5626 126.578 95.0231C127.003 95.4828 127.522 95.8439 128.135 96.1062C128.746 96.3678 129.442 96.4986 130.22 96.4986C130.998 96.4986 131.693 96.3744 132.306 96.1252C132.918 95.876 133.437 95.5277 133.862 95.08C134.287 94.633 134.615 94.0928 134.845 93.4605C135.075 92.8278 135.191 92.1343 135.191 91.3805C135.191 90.639 135.075 89.9552 134.845 89.3291C134.615 88.7034 134.287 88.1662 133.862 87.7189C133.437 87.2719 132.914 86.9202 132.295 86.6644C131.675 86.409 130.976 86.2809 130.198 86.2809ZM130.22 84.2067C131.387 84.2067 132.453 84.3828 133.419 84.7349C134.384 85.0871 135.205 85.5797 135.883 86.2135C136.559 86.8478 137.085 87.6063 137.46 88.4897C137.835 89.3732 138.022 90.3399 138.022 91.3898C138.022 92.4787 137.824 93.4612 137.428 94.3381C137.031 95.2154 136.466 95.9739 135.731 96.6139L137.806 98.7845V99.4567H135.169L133.721 97.8821C133.217 98.0868 132.676 98.2466 132.1 98.3619C131.524 98.4772 130.904 98.5349 130.242 98.5349C129.046 98.5349 127.969 98.3584 127.011 98.0067C126.052 97.6545 125.238 97.1615 124.568 96.5276C123.898 95.8938 123.379 95.1388 123.012 94.2611C122.645 93.3842 122.461 92.4272 122.461 91.3898C122.461 90.3399 122.645 89.3767 123.012 88.499C123.379 87.6225 123.901 86.8668 124.579 86.2329C125.256 85.599 126.074 85.1029 127.032 84.7442C127.99 84.3862 129.053 84.2067 130.22 84.2067Z" fill="#3E3E3E"/>
<path fill-rule="evenodd" clip-rule="evenodd" d="M148.604 96.3803C149.71 96.3803 150.571 96.0751 151.188 95.464C151.806 94.853 152.115 93.9173 152.115 92.6567V84.2067H154.828V92.7146C154.828 93.7179 154.685 94.5762 154.397 95.2903C154.11 96.004 153.701 96.5894 153.17 97.0461C152.639 97.5029 151.985 97.8372 151.21 98.0494C150.435 98.2617 149.566 98.3674 148.604 98.3674C147.627 98.3674 146.755 98.2617 145.987 98.0494C145.219 97.8372 144.569 97.5029 144.038 97.0461C143.507 96.5894 143.098 96.004 142.81 95.2903C142.523 94.5762 142.379 93.7179 142.379 92.7146V84.2067H145.093V92.6567C145.093 93.9173 145.402 94.853 146.019 95.464C146.637 96.0751 147.498 96.3803 148.604 96.3803Z" fill="#3E3E3E"/>
<path fill-rule="evenodd" clip-rule="evenodd" d="M162.603 92.1593H167.796L166.942 89.9974C166.605 89.1507 166.336 88.4614 166.131 87.9307C165.926 87.3996 165.744 86.9319 165.583 86.5273H164.904C164.816 86.742 164.729 86.9572 164.641 87.1719C164.553 87.387 164.455 87.6273 164.345 87.8925C164.235 88.1581 164.115 88.4614 163.984 88.803C163.852 89.1438 163.692 89.5424 163.502 89.9974L162.603 92.1593ZM157.629 97.4313L163.217 84.4789H167.358L172.879 97.4313V98.095H170.163L168.585 94.2073H161.771L160.193 98.095H157.629V97.4313Z" fill="#3E3E3E"/>
<path fill-rule="evenodd" clip-rule="evenodd" d="M178.994 90.6991H181.359C182.401 90.6991 183.222 90.5329 183.822 90.2012C184.423 89.8692 184.723 89.3274 184.723 88.575C184.723 87.8108 184.419 87.2786 183.811 86.9779C183.204 86.6775 182.387 86.527 181.359 86.527H178.994V90.6991ZM188.13 98.095H185.504L180.752 92.7472H178.994V98.095H176.303V84.4789H181.359C182.155 84.4789 182.911 84.5263 183.627 84.6211C184.343 84.7158 184.99 84.934 185.569 85.2752C186.798 85.9829 187.414 87.0512 187.414 88.4791C187.414 89.0989 187.309 89.6392 187.099 90.1008C186.889 90.5619 186.61 90.9536 186.264 91.2761C185.916 91.5986 185.515 91.8607 185.06 92.0624C184.604 92.265 184.13 92.4167 183.638 92.5175L188.13 97.4309V98.095Z" fill="#3E3E3E"/>
<path fill-rule="evenodd" clip-rule="evenodd" d="M191.553 84.4789H201.671V86.5648H194.229V90.13H201.148V92.178H194.229V96.0088H201.823V98.095H191.553V84.4789Z" fill="#3E3E3E"/>
<path fill-rule="evenodd" clip-rule="evenodd" d="M207.885 94.122C208.043 94.8167 208.415 95.3606 208.998 95.7525C209.582 96.1451 210.35 96.3411 211.301 96.3411C212.238 96.3411 212.962 96.1483 213.474 95.7622C213.985 95.3765 214.241 94.8684 214.241 94.2378C214.241 93.9292 214.173 93.6687 214.036 93.4564C213.899 93.2442 213.708 93.0642 213.463 92.916C213.218 92.7687 212.915 92.6427 212.555 92.5401C212.194 92.4371 211.791 92.3278 211.344 92.212L210.177 91.9227C209.485 91.7556 208.865 91.553 208.317 91.3147C207.769 91.0768 207.301 90.7969 206.912 90.4753C206.523 90.1538 206.227 89.7841 206.025 89.3658C205.824 88.9479 205.723 88.4619 205.723 87.9091C205.723 87.3302 205.853 86.7964 206.112 86.3074C206.371 85.8191 206.739 85.4004 207.215 85.0532C207.69 84.706 208.267 84.4327 208.944 84.2329C209.621 84.0342 210.385 83.9343 211.236 83.9343C212.836 83.9343 214.104 84.2718 215.041 84.9471C215.978 85.6227 216.526 86.5262 216.684 87.6583L214.09 87.8512C213.931 87.2723 213.614 86.8221 213.139 86.5006C212.663 86.1791 212 86.0181 211.149 86.0181C210.357 86.0181 209.737 86.1822 209.29 86.5103C208.843 86.8384 208.62 87.2598 208.62 87.7742C208.62 88.07 208.685 88.3173 208.815 88.5167C208.944 88.7166 209.131 88.8899 209.377 89.0377C209.621 89.1858 209.921 89.3176 210.274 89.4331C210.627 89.5489 211.027 89.6718 211.474 89.8001L212.576 90.1087C213.268 90.3016 213.892 90.5041 214.447 90.7164C215.001 90.9286 215.474 91.1829 215.862 91.4788C216.252 91.7746 216.551 92.1284 216.76 92.5401C216.969 92.9518 217.074 93.4599 217.074 94.0645C217.074 94.7079 216.929 95.2965 216.641 95.8299C216.352 96.364 215.949 96.8173 215.43 97.1902C214.911 97.5634 214.295 97.853 213.582 98.0583C212.868 98.2639 212.079 98.3673 211.214 98.3673C209.615 98.3673 208.281 98.033 207.215 97.3639C206.148 96.6949 205.492 95.6852 205.247 94.3343L207.885 94.122Z" fill="#3E3E3E"/>
<path fill-rule="evenodd" clip-rule="evenodd" d="M223.877 90.8128H226.524C227.009 90.8128 227.454 90.7784 227.859 90.7093C228.263 90.6405 228.616 90.5247 228.917 90.3616C229.219 90.1988 229.454 89.9795 229.624 89.7036C229.793 89.4281 229.877 89.0896 229.877 88.6884C229.877 88.275 229.793 87.9277 229.624 87.6457C229.454 87.3637 229.222 87.1413 228.928 86.9782C228.634 86.815 228.285 86.6993 227.881 86.6305C227.476 86.5617 227.039 86.5269 226.568 86.5269H223.877V90.8128ZM221.119 84.4789H226.899C227.972 84.4789 228.873 84.5863 229.601 84.8014C230.329 85.0162 230.917 85.313 231.366 85.6928C231.814 86.0719 232.138 86.5174 232.337 87.0298C232.535 87.5414 232.634 88.0946 232.634 88.6888C232.634 89.3972 232.498 90.0131 232.226 90.5377C231.954 91.0623 231.561 91.4952 231.046 91.8368C230.531 92.178 229.906 92.434 229.171 92.6048C228.436 92.7756 227.605 92.8608 226.679 92.8608H223.877V98.095H221.119V84.4789Z" fill="#3E3E3E"/>
<path fill-rule="evenodd" clip-rule="evenodd" d="M238.231 92.1593H243.424L242.57 89.9974C242.233 89.1507 241.963 88.4614 241.759 87.9307C241.554 87.3996 241.371 86.9319 241.211 86.5273H240.532C240.444 86.742 240.357 86.9572 240.269 87.1719C240.181 87.387 240.082 87.6273 239.973 87.8925C239.863 88.1581 239.743 88.4614 239.612 88.803C239.48 89.1438 239.32 89.5424 239.13 89.9974L238.231 92.1593ZM233.257 97.4313L238.845 84.4789H242.986L248.507 97.4313V98.095H245.791L244.213 94.2073H237.399L235.821 98.095H233.257V97.4313Z" fill="#3E3E3E"/>
<path fill-rule="evenodd" clip-rule="evenodd" d="M265.002 94.495C264.755 95.0266 264.431 95.5269 264.031 95.9962C263.63 96.4654 263.146 96.8766 262.579 97.2277C262.011 97.5787 261.352 97.8564 260.603 98.0606C259.853 98.2649 259.02 98.3674 258.103 98.3674C256.938 98.3674 255.88 98.1899 254.926 97.8354C253.973 97.4816 253.159 96.9909 252.485 96.3648C251.812 95.738 251.291 94.9918 250.924 94.1248C250.557 93.2582 250.374 92.3185 250.374 91.3057C250.374 90.2938 250.557 89.3541 250.924 88.4871C251.291 87.6204 251.815 86.8704 252.496 86.2375C253.177 85.6053 253.995 85.1081 254.948 84.7478C255.902 84.3868 256.967 84.2067 258.147 84.2067C259.864 84.2067 261.302 84.5551 262.459 85.2508C263.616 85.9464 264.435 86.8704 264.915 88.022L262.142 88.4962C261.764 87.8006 261.236 87.2529 260.559 86.8544C259.882 86.4559 259.064 86.2566 258.103 86.2566C257.332 86.2566 256.644 86.3859 256.04 86.6444C255.436 86.9029 254.926 87.259 254.512 87.713C254.097 88.1666 253.78 88.7024 253.562 89.3204C253.344 89.9381 253.235 90.5997 253.235 91.3057C253.235 92.0244 253.347 92.6895 253.573 93.301C253.798 93.9129 254.126 94.4419 254.555 94.8897C254.984 95.3372 255.505 95.6868 256.116 95.9388C256.727 96.1912 257.426 96.3174 258.212 96.3174C259.231 96.3174 260.071 96.1021 260.734 95.6718C261.396 95.2416 261.909 94.7165 262.273 94.0961L265.002 94.495Z" fill="#3E3E3E"/>
<path fill-rule="evenodd" clip-rule="evenodd" d="M268.562 84.3146H278.738V86.4206H271.254V90.0204H278.213V92.0882H271.254V95.9561H278.891V98.0625H268.562V84.3146Z" fill="#3E3E3E"/>
</g>
<g clip-path="url(#clip8_6150_111677)">
<path fill-rule="evenodd" clip-rule="evenodd" d="M447.888 95.7175C443.23 102.628 435.853 100.623 433.637 99.0527C432.694 99.6124 431.041 100.839 428.836 100.698C424.141 100.396 422.46 94.5252 422.46 94.5252C422.493 94.5487 421.061 94.9577 420.287 94.9504C420.277 96.6721 418.576 100.785 413.986 100.732C408.835 100.674 407.787 93.9586 407.787 93.9586C407.787 93.9586 407.275 94.5814 405.326 95.2018C405.424 93.879 405.352 100.531 399.178 100.629C394.298 100.706 392.98 93.855 392.98 93.855C392.98 93.855 392.133 94.6246 390.492 94.8916C390.597 93.5473 390.427 100.651 384.253 100.629C380.08 100.614 378.654 96.4085 378.765 95.8248C378.906 95.081 377.355 100.733 373.302 100.645C371.629 100.602 370.382 99.5426 369.6 98.1299C368.552 99.1787 367.031 100.645 365.325 100.645C362.263 100.645 360.913 98.4041 361.141 92.0028C361.161 91.2436 361.098 90.9449 360.236 90.8314C359.718 90.7558 359.188 90.6127 358.627 90.5372C358.447 91.0622 356.922 100.474 351.678 100.653C349.919 100.713 348.957 99.3795 348.167 98.3898C346.956 99.7916 345.357 100.698 343.08 100.698C339.222 100.698 336.594 97.969 336.594 94.603C336.594 91.2368 339.222 88.5083 343.08 88.5083C343.762 88.5083 343.953 88.5939 344.576 88.7529C343.295 78.544 346.321 76.9485 348.969 76.9485C351.51 76.9485 355.852 82.1101 349.743 95.2028C351.099 99.108 354.023 98.8871 355.429 90.8481C355.715 89.2139 354.95 87.0088 356.139 86.701C358.314 86.1386 358.544 87.8261 359.564 88.1073C360.642 88.4045 361.271 88.3755 362.306 88.5646C364.074 88.8668 364.764 89.698 364.549 91.5493C364.29 93.8917 363.838 97.3012 365.218 97.7167C366.213 98.0185 368.03 96.2128 368.348 95.2247C368.667 94.2367 368.734 93.8985 368.762 93.1738C368.805 91.625 368.859 90.4896 369.161 89.3183C369.29 88.865 369.438 88.5648 370.024 88.5443C370.506 88.5336 371.388 88.4065 371.776 88.6709C372.293 89.0111 372.229 89.3563 372.169 90.2648C371.568 103.218 376.199 96.7516 377.58 91.574C377.089 85.7194 377.426 77.0557 381.619 76.9104C383.8 76.8348 384.764 78.3634 384.87 79.5043C385.17 82.7268 383.49 88.0647 381.28 91.6544C380.017 98.979 386.801 100.427 387.886 94.5808C386.111 93.8423 384.193 90.8534 385.754 89.3969C386.63 88.5794 390.276 89.7538 390.336 92.315C392.124 91.8965 392.363 91.013 392.388 91.1594C391.896 85.3047 392.352 77.0558 396.545 76.9105C398.726 76.8349 399.689 78.3635 399.795 79.5044C400.095 82.7268 398.415 88.0647 396.206 91.6545C394.943 98.979 401.727 100.427 402.812 94.5809C401.498 94.359 398.724 91.1799 400.324 89.3969C401.18 88.4442 404.812 90.4256 405.219 92.3999C406.937 91.9744 407.17 91.119 407.195 91.263C406.703 85.4085 407.159 77.1595 411.353 77.0142C413.533 76.9387 414.497 78.4672 414.603 79.6082C414.903 82.8306 413.223 88.1686 411.013 91.7583C409.751 99.0829 416.535 100.531 417.619 94.6845C415.814 94.4214 413.247 91.0647 415.313 89.3475C416.138 88.6614 419.291 90.4424 420.03 92.4743C421.055 92.4398 421.694 92.1302 421.831 92.099C420.193 85.226 421.412 76.9794 425.923 76.9106C428.361 76.8734 430.744 78.0639 429.698 84.6026C428.7 90.8414 425.11 93.4595 425.118 93.4995C425.327 94.247 427.169 100.502 431.808 97.2016C431.567 96.7258 431.327 96.2398 431.193 95.6511C430.424 92.2213 431.934 88.3475 436.038 87.7214C438.39 87.3627 440.605 88.3645 440.956 90.623C441.532 94.3186 437.718 96.995 436.268 97.5755C435.618 97.2527 442.156 100.921 446.036 93.5691C446.261 93.1493 446.532 93.1849 446.883 93.4012C447.132 93.5541 448.545 94.7258 447.888 95.7175ZM345.886 93.6949C345.688 93.1785 345.283 92.0405 345.14 91.5475C344.351 90.9471 343.788 90.8496 342.775 90.8496C340.524 90.8496 339.2 92.6704 339.2 94.6338C339.2 96.597 340.643 98.4181 342.894 98.4181C344.844 98.4181 346.329 97.2577 346.781 95.615C346.464 94.9746 346.15 94.3861 345.886 93.6949ZM348.913 79.6509C347.332 79.6509 346.796 82.9519 346.9 85.7679C346.992 88.2577 347.787 90.4496 348.199 91.4317C348.304 91.5548 348.285 91.4747 348.378 91.6052C351.124 86.3409 349.985 79.6509 348.913 79.6509ZM381.845 79.7546C379.801 79.5495 379.814 86.9997 380.068 88.6709C381.13 87.1849 382.974 80.1547 381.845 79.7546ZM396.771 79.7546C394.727 79.5495 394.74 86.9997 394.994 88.6709C396.055 87.1849 397.899 80.1547 396.771 79.7546ZM411.578 79.8582C409.534 79.6531 409.547 87.1034 409.801 88.7747C410.863 87.2886 412.707 80.2583 411.578 79.8582ZM426.148 79.3184C422.964 79.878 423.705 89.1687 424.189 90.7981C427.94 86.29 428.018 79.1491 426.148 79.3184ZM438.083 90.9286C437.922 90.3363 437.112 90.0197 436.553 90.0977C434.954 90.2888 433.403 92.0313 434.004 94.6842C434.137 95.275 434.472 95.8189 434.466 95.8008C438.045 93.7001 438.349 92.0448 438.083 90.9286ZM370.65 86.4937C370.193 86.4938 369.747 86.3752 369.367 86.1531C368.987 85.931 368.69 85.6153 368.515 85.2459C368.34 84.8764 368.295 84.4699 368.384 84.0777C368.473 83.6855 368.693 83.3252 369.016 83.0424C369.339 82.7597 369.751 82.5671 370.199 82.489C370.647 82.411 371.112 82.451 371.534 82.6041C371.957 82.7571 372.317 83.0163 372.571 83.3488C372.825 83.6813 372.961 84.0722 372.961 84.4721C372.961 84.7375 372.901 85.0004 372.785 85.2457C372.669 85.4909 372.499 85.7138 372.284 85.9015C372.069 86.0892 371.815 86.2382 371.535 86.3398C371.254 86.4414 370.954 86.4937 370.65 86.4937Z" fill="#3E3E3E"/>
</g>
<g clip-path="url(#clip9_6150_111677)">
<path d="M516.425 80.1227C522.393 80.1227 527.255 84.3768 527.255 89.6417C527.255 94.9067 522.393 99.1608 516.425 99.1608C510.456 99.1608 505.594 94.9488 505.594 89.6417C505.594 84.3347 510.456 80.1227 516.425 80.1227ZM601.338 79.9121V96.5915C601.338 97.8551 601.915 98.192 603.023 98.4448L603.071 98.6554H596.957V96.5915C596.235 98.1078 594.743 99.0344 592.818 99.0344C589.544 99.0344 587.378 96.423 587.378 92.548C587.378 90.3578 588.1 88.5045 589.448 87.1146C590.748 85.7667 592.529 85.0507 594.502 85.0507C595.465 85.0507 596.283 85.2192 596.957 85.5983V83.3238C596.957 82.8184 596.813 82.4814 596.524 82.2287C596.139 81.9339 595.513 81.8075 594.55 81.8917H594.502V81.6811L601.338 79.9121ZM624.54 85.0928V96.5915C624.54 97.8551 625.117 98.192 626.224 98.4448V98.6554H620.111V96.5494C619.389 98.0657 617.801 99.0344 616.019 99.0344C613.901 99.0344 612.554 98.192 612.024 96.5494L611.928 96.1282C611.832 95.707 611.783 95.2858 611.783 94.8646V88.7151C611.783 87.3673 611.446 86.9461 610.099 86.8619H610.051V86.6513L616.164 85.0928V94.7803C616.164 96.2124 616.886 97.0127 618.234 97.0127C619.052 97.0127 619.726 96.6336 620.111 96.0018V88.7151C620.111 87.3252 619.822 86.904 618.715 86.8197H618.667V86.6091L624.54 85.0928ZM580.398 85.0507C582.035 85.0507 583.623 85.5561 584.682 86.4407C585.886 87.4515 586.512 88.9257 586.56 90.8632V90.9053H577.366C577.173 93.6852 579.147 95.9597 581.746 96.0439C583.623 96.1703 585.26 95.1594 586.175 93.5168L586.415 93.601C585.886 96.6757 583.816 98.9923 580.206 98.9923C576.114 98.9923 573.804 96.0018 573.707 92.2532V91.2844C573.9 89.6418 574.477 88.1676 575.488 87.0725C576.114 86.3985 576.836 85.8931 577.703 85.5561C578.425 85.2192 579.484 85.0507 580.35 85.0507H580.398ZM644.083 85.0928C646.683 85.0928 648.271 86.5249 648.271 88.9678V96.8021C648.271 97.7287 648.752 98.192 649.956 98.4448H650.004V98.6554H643.843V89.0942C643.843 87.5779 643.217 86.8197 641.917 86.8197C640.858 86.8197 640.329 87.4936 640.04 88.0833C640.088 88.3782 640.136 88.673 640.136 88.9678V96.9285C640.136 97.8972 640.473 98.2342 641.436 98.4448H641.484V98.6554H635.756V89.0942C635.756 87.5779 635.082 86.8197 633.83 86.8197C632.819 86.8197 632.29 87.4515 632.049 87.957V96.9706C632.049 97.9393 632.386 98.2763 633.349 98.4869H633.397V98.6975H627.669V88.673C627.669 87.3252 627.283 86.904 625.984 86.8197H625.936V86.6091L632.049 85.1349V87.3673C632.675 85.9352 634.119 85.0928 635.948 85.0928C638.018 85.0928 639.462 85.9773 639.943 87.5779C640.569 86.0616 642.158 85.0928 644.083 85.0928ZM556.282 80.7545L562.01 92.5059L567.738 80.7545H573.9L573.852 80.9651L573.782 80.9787C572.72 81.1904 572.167 81.5377 572.167 82.692V97.0127C572.263 97.9393 572.841 98.2342 573.852 98.4448H573.9V98.6554H566.054V98.4448H566.102C567.113 98.2342 567.69 97.9393 567.786 97.0127V83.0711L560.229 98.6132H559.796L552.431 83.4923V96.6757C552.431 97.8551 553.008 98.192 554.116 98.4026H554.164V98.6132H549.639V98.4026H549.687C550.794 98.192 551.372 97.8551 551.372 96.6757V82.692C551.372 81.5127 550.794 81.1757 549.687 80.9651H549.639V80.7545H556.282ZM608.799 85.0928V96.5915L608.8 96.6693C608.823 97.8691 609.4 98.1973 610.484 98.4448L610.532 98.6554H604.419V88.7151C604.419 87.3673 604.082 86.9461 602.734 86.8619H602.686V86.6513L608.799 85.0928ZM533.754 80.6703C536.69 80.6703 539.145 84.7137 539.145 89.6417C539.145 94.6119 536.738 98.6132 533.754 98.6132C530.769 98.6132 528.362 94.6119 528.362 89.6417C528.362 84.6716 530.769 80.6703 533.754 80.6703ZM542.033 81.5969C543.14 81.5969 543.959 85.2192 543.959 89.6417C543.959 94.0643 543.092 97.6866 542.033 97.6866C540.985 97.6866 540.125 94.1364 540.108 89.7742L540.108 89.6417C540.108 85.2192 540.974 81.5969 542.033 81.5969ZM595.224 85.8089C593.299 85.8089 592.096 88.0412 592.096 91.495C592.096 93.1377 592.432 94.5697 593.01 95.5385C593.54 96.4651 594.31 96.9706 595.176 96.9706C596.043 96.9706 596.668 96.6336 596.957 96.0018V86.7355C596.62 86.1458 595.995 85.8089 595.224 85.8089ZM580.35 85.851C578.617 85.851 577.606 87.6621 577.462 90.1893V90.2314H582.709C582.805 88.2518 582.42 86.9461 581.698 86.3143C581.313 86.0195 580.88 85.851 580.35 85.851ZM606.44 80.0385C607.836 80.0385 608.895 80.9651 608.895 82.1866C608.895 83.408 607.836 84.3347 606.44 84.3347C605.044 84.3347 603.985 83.408 603.985 82.1866C603.985 80.9651 605.044 80.0385 606.44 80.0385Z" fill="#3E3E3E"/>
</g>
<g clip-path="url(#clip10_6150_111677)">
<path d="M711.737 94.2225C712.041 94.9291 712.463 95.5333 713.001 96.0351C713.539 96.537 714.177 96.921 714.915 97.1873C715.652 97.4536 716.454 97.5867 717.32 97.5867C718.163 97.5867 718.953 97.4484 719.69 97.1718C720.427 96.8953 721.071 96.5062 721.621 96.0044C722.171 95.5026 722.598 94.9035 722.903 94.2071C723.207 93.5107 723.359 92.7324 723.359 91.8721V78.5996H727.046V100.106H723.394V98.1089C722.575 98.8667 721.609 99.4505 720.498 99.8602C719.386 100.27 718.186 100.475 716.899 100.475C715.588 100.475 714.365 100.275 713.229 99.8755C712.094 99.4761 711.111 98.9078 710.28 98.1704C709.449 97.433 708.793 96.5472 708.314 95.5128C707.834 94.4785 707.594 93.3264 707.594 92.0564V78.5996H711.281V91.8721C711.281 92.7324 711.433 93.5158 711.737 94.2225Z" fill="#3E3E3E"/>
<path d="M733.401 78.5996V86.434C734.22 85.7172 735.168 85.1488 736.245 84.7289C737.322 84.309 738.492 84.0991 739.756 84.0991C741.067 84.0991 742.296 84.3141 743.443 84.7442C744.59 85.1743 745.585 85.7581 746.428 86.4955C747.27 87.2329 747.938 88.1033 748.429 89.107C748.921 90.1106 749.166 91.1757 749.166 92.3022C749.166 93.4287 748.921 94.4887 748.429 95.482C747.938 96.4754 747.27 97.3408 746.428 98.0781C745.585 98.8155 744.59 99.3993 743.443 99.8294C742.296 100.26 741.067 100.475 739.756 100.475C738.492 100.475 737.316 100.265 736.228 99.8447C735.139 99.4248 734.185 98.8564 733.366 98.1396V100.106H729.855V78.5996H733.401ZM733.805 94.4221C734.121 95.0776 734.56 95.6511 735.122 96.1427C735.683 96.6342 736.339 97.0234 737.088 97.3102C737.837 97.5969 738.645 97.7403 739.511 97.7403C740.353 97.7403 741.149 97.5969 741.898 97.3102C742.647 97.0234 743.297 96.6343 743.847 96.1427C744.397 95.6512 744.836 95.0776 745.164 94.4221C745.491 93.7667 745.655 93.0601 745.655 92.3022C745.655 91.5444 745.491 90.8326 745.164 90.1669C744.836 89.5012 744.397 88.9227 743.847 88.4311C743.297 87.9396 742.647 87.5555 741.898 87.279C741.149 87.0025 740.353 86.8642 739.511 86.8642C738.668 86.8642 737.872 87.0024 737.123 87.279C736.374 87.5555 735.719 87.9396 735.157 88.4311C734.595 88.9227 734.15 89.5012 733.822 90.1669C733.495 90.8326 733.331 91.5444 733.331 92.3022C733.331 93.0601 733.489 93.7667 733.805 94.4221Z" fill="#3E3E3E"/>
<path d="M751.167 89.1377C751.636 88.1545 752.279 87.2892 753.099 86.5416C753.918 85.794 754.889 85.2052 756.013 84.775C757.137 84.3449 758.354 84.1299 759.665 84.1299C760.952 84.1299 762.146 84.3347 763.246 84.7443C764.346 85.154 765.294 85.7224 766.09 86.4495C766.886 87.1766 767.506 88.0369 767.951 89.0302C768.396 90.0236 768.618 91.1041 768.618 92.2716V93.2855H754.047C754.164 93.9204 754.398 94.5093 754.749 95.052C755.1 95.5947 755.539 96.0659 756.066 96.4653C756.592 96.8647 757.189 97.1771 757.856 97.4023C758.524 97.6276 759.232 97.7403 759.981 97.7403C762.111 97.7403 763.831 96.9722 765.142 95.436L767.705 97.095C766.816 98.1397 765.716 98.959 764.405 99.5529C763.094 100.147 761.619 100.444 759.981 100.444C758.646 100.444 757.4 100.239 756.241 99.8294C755.083 99.4198 754.076 98.8463 753.222 98.1089C752.367 97.3715 751.694 96.5061 751.203 95.5128C750.711 94.5194 750.465 93.4389 750.465 92.2715C750.465 91.1655 750.699 90.1209 751.167 89.1377ZM756.101 87.9241C755.106 88.6512 754.445 89.619 754.117 90.8275H765.037C764.733 89.619 764.083 88.6512 763.088 87.9241C762.093 87.197 760.929 86.8335 759.594 86.8335C758.26 86.8335 757.096 87.197 756.101 87.9241Z" fill="#3E3E3E"/>
<path d="M775.254 88.2774C774.505 88.9943 774.131 89.9672 774.131 91.1962V100.106H770.584V84.4371H774.096V86.3727C774.54 85.7377 775.12 85.2359 775.834 84.8672C776.548 84.4985 777.396 84.3141 778.379 84.3141H779.608V87.2021H778.134C776.963 87.2022 776.003 87.5606 775.254 88.2774Z" fill="#3E3E3E"/>
</g>
<g clip-path="url(#clip11_6150_111677)">
<path d="M851.857 102.283C850.188 102.539 848.488 102.616 846.731 102.821L841.369 89.0809V103.411C839.699 103.564 838.176 103.77 836.594 103.975V77.7246H841.047L847.141 92.6186V77.7246H851.857V102.283ZM861.086 87.3377C862.902 87.3377 865.686 87.2607 867.356 87.2607V91.3622C865.275 91.3622 862.844 91.3622 861.086 91.4391V97.5403C863.84 97.3865 866.594 97.1813 869.377 97.1044V101.052L856.398 101.949V77.7246H869.377V81.8262H861.086V87.3377ZM886.809 81.8263H881.945V100.693C880.363 100.693 878.781 100.693 877.258 100.745V81.8263H872.395V77.7246H886.809L886.809 81.8263ZM894.426 87.0557H900.842V91.1572H894.426V100.463H889.826V77.7246H902.922V81.8262H894.426V87.0557ZM910.539 96.8738C913.205 96.9249 915.9 97.1046 918.508 97.2326V101.283C914.318 101.052 910.129 100.822 905.852 100.745V77.7246H910.539V96.8738ZM922.463 101.565C923.957 101.642 925.539 101.719 927.062 101.872V77.7246H922.463V101.565ZM947.6 77.7246L941.652 90.2088L947.6 103.975C945.842 103.77 944.084 103.488 942.326 103.231L938.957 95.6434L935.53 102.616C933.83 102.36 932.189 102.283 930.491 102.078L936.526 90.0548L931.076 77.7246H936.115L939.191 84.6204L942.473 77.7246H947.6V77.7246Z" fill="#3E3E3E"/>
</g>
<path fill-rule="evenodd" clip-rule="evenodd" d="M1045.55 82.3008C1047.31 82.0092 1049.06 81.7022 1050.8 81.4106C1050.78 88.2097 1050.78 94.9933 1050.8 101.777C1049.06 101.47 1047.31 101.148 1045.57 100.856C1045.52 100.258 1045.55 99.659 1045.55 99.0605C1045.54 93.4893 1045.54 87.9027 1045.55 82.3008ZM1087.98 85.3089C1086.51 85.3396 1085 85.7387 1083.86 86.5675C1082.91 87.2428 1082.23 88.1636 1081.84 89.1766C1081.42 90.2662 1081.34 91.448 1081.49 92.5991C1081.67 93.919 1082.27 95.2235 1083.32 96.1905C1084.14 96.9578 1085.27 97.495 1086.44 97.7252C1087.91 98.0168 1089.51 97.9708 1090.9 97.4029C1091.91 97.0039 1092.75 96.2979 1093.35 95.4691C1094.02 94.5329 1094.35 93.4432 1094.46 92.3382C1094.58 91.095 1094.42 89.8212 1093.89 88.6547C1093.44 87.6111 1092.61 86.6749 1091.51 86.0763C1090.46 85.5085 1089.21 85.2629 1087.98 85.3089ZM1087.21 81.0269C1089.76 80.8735 1092.42 81.2879 1094.61 82.4696C1095.84 83.1296 1096.89 84.0044 1097.72 85.0327C1098.44 85.9536 1098.96 86.9818 1099.33 88.0562C1099.72 89.2073 1099.86 90.4197 1099.88 91.6168C1099.88 93.8116 1099.3 96.0523 1097.91 97.9094C1096.7 99.5669 1094.86 100.856 1092.75 101.531C1091.39 101.977 1089.95 102.191 1088.49 102.222C1085.76 102.268 1082.93 101.685 1080.7 100.273C1078.81 99.0912 1077.42 97.3569 1076.72 95.4231C1076.23 94.1339 1076.04 92.7526 1076.06 91.3866C1076.07 89.0077 1076.86 86.5828 1078.56 84.7104C1079.95 83.1603 1081.93 82.0552 1084.09 81.5027C1085.09 81.2265 1086.14 81.073 1087.21 81.0269ZM1012.02 81.9325C1013.28 81.2879 1014.74 80.9809 1016.19 80.9962C1018.51 81.073 1020.73 82.1166 1022.09 83.7742C1022.77 82.9608 1023.72 82.3315 1024.73 81.8864C1027.03 80.9195 1029.82 80.766 1032.19 81.6102C1033.29 82.0092 1034.29 82.6231 1035.07 83.4212C1035.85 84.2346 1036.38 85.2169 1036.7 86.2298C1037.03 87.2888 1037.12 88.3938 1037.08 89.4835C1037.08 93.5813 1037.08 97.6945 1037.08 101.792C1035.35 101.485 1033.59 101.163 1031.84 100.871C1031.82 96.9425 1031.84 93.0135 1031.82 89.0845C1031.84 88.179 1031.47 87.2581 1030.73 86.6288C1029.94 85.9229 1028.79 85.5852 1027.66 85.6006C1026.66 85.5852 1025.65 85.8461 1024.86 86.3986C1023.96 87.0125 1023.49 88.0255 1023.49 89.0231C1023.49 93.2744 1023.49 97.541 1023.49 101.792C1021.73 101.485 1019.98 101.163 1018.23 100.871C1018.21 99.613 1018.23 98.3391 1018.21 97.0653C1018.21 94.4255 1018.21 91.7857 1018.21 89.1305C1018.24 88.225 1017.89 87.2888 1017.16 86.6442C1016.51 86.061 1015.61 85.7233 1014.72 85.6312C1013.86 85.5545 1012.98 85.6159 1012.18 85.9075C1011.33 86.2145 1010.61 86.7977 1010.23 87.519C1009.97 88.0101 1009.84 88.5473 1009.84 89.0845C1009.84 92.3996 1009.84 95.7147 1009.84 99.0298C1009.86 99.9506 1009.82 100.871 1009.86 101.792C1008.11 101.501 1006.37 101.163 1004.63 100.887C1004.6 100.35 1004.65 99.7972 1004.6 99.2753C1004.62 98.6614 1004.62 98.0475 1004.6 97.4336C1004.65 96.8658 1004.6 96.2825 1004.62 95.7147C1004.62 94.0878 1004.62 92.461 1004.62 90.8341C1004.6 89.8212 1004.63 88.7929 1004.6 87.7799C1004.62 87.2121 1004.62 86.6288 1004.6 86.061C1004.63 84.9253 1004.62 83.8049 1004.62 82.6691C1004.63 82.5617 1004.53 82.3929 1004.67 82.3315C1006.4 82.0399 1008.12 81.7483 1009.86 81.4567C1009.84 82.1473 1009.86 82.838 1009.86 83.5286C1010.47 82.884 1011.19 82.3315 1012.02 81.9325ZM1069.23 81.3032C1070.08 81.1804 1070.93 81.0576 1071.78 80.9349C1071.78 82.531 1071.78 84.1272 1071.78 85.7233C1070.93 85.8615 1070.09 85.9996 1069.25 86.1224C1067.99 86.3065 1066.67 86.6288 1065.73 87.4269C1064.95 88.0562 1064.59 88.977 1064.52 89.8826C1064.46 90.5272 1064.5 91.1718 1064.5 91.8317C1064.5 95.1468 1064.5 98.4619 1064.5 101.777C1063.04 101.516 1061.59 101.255 1060.11 101.01C1059.83 100.964 1059.57 100.902 1059.27 100.871C1059.2 100.518 1059.25 100.166 1059.24 99.8125C1059.24 96.2825 1059.24 92.7679 1059.24 89.238C1059.27 88.1329 1059.48 87.0125 1060.01 85.9842C1060.52 84.956 1061.41 84.0811 1062.46 83.4365C1063.87 82.5924 1065.5 82.0859 1067.15 81.7022C1067.85 81.5641 1068.51 81.3953 1069.23 81.3032ZM1047.66 72.509C1048.5 72.4169 1049.41 72.4936 1050.13 72.9387C1050.96 73.4145 1051.41 74.274 1051.43 75.1181C1051.48 75.3636 1051.41 75.6246 1051.41 75.8701C1051.32 76.6375 1050.87 77.3742 1050.11 77.8039C1049.33 78.2644 1048.31 78.3411 1047.38 78.1723C1046.61 78.0341 1045.89 77.6044 1045.45 77.0059C1044.94 76.2999 1044.85 75.4097 1045.05 74.5963C1045.22 73.8289 1045.82 73.1229 1046.62 72.7852C1046.96 72.6471 1047.31 72.555 1047.66 72.509Z" fill="#3E3E3E"/>
</g>
<defs>
<linearGradient id="paint0_linear_6150_111677" x1="-13.2129" y1="18.2587" x2="1233.59" y2="18.2587" gradientUnits="userSpaceOnUse">
<stop stop-color="#3E3E3E" stop-opacity="0"/>
<stop offset="0.125" stop-color="#3E3E3E"/>
<stop offset="0.87" stop-color="#3E3E3E"/>
<stop offset="0.98" stop-color="#3E3E3E" stop-opacity="0"/>
</linearGradient>
<linearGradient id="paint1_linear_6150_111677" x1="34.3418" y1="84.281" x2="1125.85" y2="84.281" gradientUnits="userSpaceOnUse">
<stop stop-color="#D9D9D9" stop-opacity="0"/>
<stop offset="0.11" stop-color="#1C1C1C"/>
<stop offset="0.875" stop-color="#1C1C1C"/>
<stop offset="1" stop-color="#737373" stop-opacity="0"/>
</linearGradient>
<clipPath id="clip0_6150_111677">
<rect width="128" height="45.2075" fill="white"/>
</clipPath>
<clipPath id="clip1_6150_111677">
<rect width="169" height="45.2075" fill="white" transform="translate(185.465)"/>
</clipPath>
<clipPath id="clip2_6150_111677">
<rect width="127" height="45.2075" fill="white" transform="translate(411.928)"/>
</clipPath>
<clipPath id="clip3_6150_111677">
<rect width="113" height="45.2075" fill="white" transform="translate(596.393)"/>
</clipPath>
<clipPath id="clip4_6150_111677">
<rect width="113" height="45.2075" fill="white" transform="translate(766.857)"/>
</clipPath>
<clipPath id="clip5_6150_111677">
<rect width="117" height="45.2075" fill="white" transform="translate(937.32)"/>
</clipPath>
<clipPath id="clip6_6150_111677">
<rect width="106" height="45.2075" fill="white" transform="translate(1111.79)"/>
</clipPath>
<clipPath id="clip7_6150_111677">
<rect width="220" height="42" fill="white" transform="translate(59.5938 68.9746)"/>
</clipPath>
<clipPath id="clip8_6150_111677">
<rect width="112" height="42" fill="white" transform="translate(336.594 68.9746)"/>
</clipPath>
<clipPath id="clip9_6150_111677">
<rect width="145" height="42" fill="white" transform="translate(505.594 68.9746)"/>
</clipPath>
<clipPath id="clip10_6150_111677">
<rect width="72" height="42" fill="white" transform="translate(707.594 68.9746)"/>
</clipPath>
<clipPath id="clip11_6150_111677">
<rect width="111" height="42" fill="white" transform="translate(836.594 68.9746)"/>
</clipPath>
</defs>
</svg>
