<svg width="69" height="53" viewBox="0 0 69 53" fill="none" xmlns="http://www.w3.org/2000/svg">
<mask id="path-1-inside-1_6150_111699" fill="white">
<path fill-rule="evenodd" clip-rule="evenodd" d="M10.0171 10.6047C12.9373 10.6047 15.3047 8.23735 15.3047 5.31709C15.3047 2.39682 12.9373 0.02948 10.0171 0.02948C7.09681 0.02948 4.72947 2.39682 4.72947 5.31709C4.72947 8.23735 7.09681 10.6047 10.0171 10.6047ZM10.0177 24C15.2742 24 19.5354 21.317 19.5354 18.0074C19.5354 14.6977 15.2742 12.0147 10.0177 12.0147C4.76122 12.0147 0.5 14.6977 0.5 18.0074C0.5 21.317 4.76122 24 10.0177 24Z"/>
</mask>
<path d="M14.3047 5.31709C14.3047 7.68507 12.3851 9.6047 10.0171 9.6047V11.6047C13.4896 11.6047 16.3047 8.78964 16.3047 5.31709H14.3047ZM10.0171 1.02948C12.3851 1.02948 14.3047 2.94911 14.3047 5.31709H16.3047C16.3047 1.84454 13.4896 -0.97052 10.0171 -0.97052V1.02948ZM5.72947 5.31709C5.72947 2.94911 7.6491 1.02948 10.0171 1.02948V-0.97052C6.54453 -0.97052 3.72947 1.84454 3.72947 5.31709H5.72947ZM10.0171 9.6047C7.6491 9.6047 5.72947 7.68507 5.72947 5.31709H3.72947C3.72947 8.78964 6.54453 11.6047 10.0171 11.6047V9.6047ZM18.5354 18.0074C18.5354 19.1965 17.7674 20.421 16.2149 21.3985C14.6755 22.3678 12.4871 23 10.0177 23V25C12.8047 25 15.3752 24.2907 17.2805 23.091C19.1727 21.8996 20.5354 20.1278 20.5354 18.0074H18.5354ZM10.0177 13.0147C12.4871 13.0147 14.6755 13.6469 16.2149 14.6162C17.7674 15.5937 18.5354 16.8182 18.5354 18.0074H20.5354C20.5354 15.8869 19.1727 14.1151 17.2805 12.9237C15.3752 11.724 12.8047 11.0147 10.0177 11.0147V13.0147ZM1.5 18.0074C1.5 16.8182 2.26794 15.5937 3.82048 14.6162C5.35986 13.6469 7.54826 13.0147 10.0177 13.0147V11.0147C7.23065 11.0147 4.6602 11.724 2.75485 12.9237C0.862666 14.1151 -0.5 15.8869 -0.5 18.0074H1.5ZM10.0177 23C7.54826 23 5.35986 22.3678 3.82048 21.3985C2.26794 20.421 1.5 19.1965 1.5 18.0074H-0.5C-0.5 20.1278 0.862666 21.8996 2.75485 23.091C4.6602 24.2907 7.23065 25 10.0177 25V23Z" fill="#7D22FF" mask="url(#path-1-inside-1_6150_111699)"/>
<path fill-rule="evenodd" clip-rule="evenodd" d="M34.0522 10.6047C36.9725 10.6047 39.3398 8.23735 39.3398 5.31709C39.3398 2.39682 36.9725 0.02948 34.0522 0.02948C31.132 0.02948 28.7646 2.39682 28.7646 5.31709C28.7646 8.23735 31.132 10.6047 34.0522 10.6047ZM34.0528 24C39.3093 24 43.5705 21.317 43.5705 18.0074C43.5705 14.6977 39.3093 12.0147 34.0528 12.0147C28.7964 12.0147 24.5352 14.6977 24.5352 18.0074C24.5352 21.317 28.7964 24 34.0528 24Z" fill="#E1FF26"/>
<mask id="path-4-inside-2_6150_111699" fill="white">
<path fill-rule="evenodd" clip-rule="evenodd" d="M58.0874 10.6047C61.0077 10.6047 63.375 8.23735 63.375 5.31709C63.375 2.39682 61.0077 0.02948 58.0874 0.02948C55.1671 0.02948 52.7998 2.39682 52.7998 5.31709C52.7998 8.23735 55.1671 10.6047 58.0874 10.6047ZM58.088 24C63.3445 24 67.6057 21.317 67.6057 18.0074C67.6057 14.6977 63.3445 12.0147 58.088 12.0147C52.8315 12.0147 48.5703 14.6977 48.5703 18.0074C48.5703 21.317 52.8315 24 58.088 24Z"/>
</mask>
<path d="M62.375 5.31709C62.375 7.68507 60.4554 9.6047 58.0874 9.6047V11.6047C61.5599 11.6047 64.375 8.78964 64.375 5.31709H62.375ZM58.0874 1.02948C60.4554 1.02948 62.375 2.94911 62.375 5.31709H64.375C64.375 1.84454 61.5599 -0.97052 58.0874 -0.97052V1.02948ZM53.7998 5.31709C53.7998 2.94911 55.7194 1.02948 58.0874 1.02948V-0.97052C54.6148 -0.97052 51.7998 1.84454 51.7998 5.31709H53.7998ZM58.0874 9.6047C55.7194 9.6047 53.7998 7.68507 53.7998 5.31709H51.7998C51.7998 8.78964 54.6148 11.6047 58.0874 11.6047V9.6047ZM66.6057 18.0074C66.6057 19.1965 65.8378 20.421 64.2852 21.3985C62.7458 22.3678 60.5574 23 58.088 23V25C60.8751 25 63.4455 24.2907 65.3508 23.091C67.243 21.8996 68.6057 20.1278 68.6057 18.0074H66.6057ZM58.088 13.0147C60.5574 13.0147 62.7458 13.6469 64.2852 14.6162C65.8378 15.5937 66.6057 16.8182 66.6057 18.0074H68.6057C68.6057 15.8869 67.243 14.1151 65.3508 12.9237C63.4455 11.724 60.8751 11.0147 58.088 11.0147V13.0147ZM49.5703 18.0074C49.5703 16.8182 50.3383 15.5937 51.8908 14.6162C53.4302 13.6469 55.6186 13.0147 58.088 13.0147V11.0147C55.301 11.0147 52.7305 11.724 50.8252 12.9237C48.933 14.1151 47.5703 15.8869 47.5703 18.0074H49.5703ZM58.088 23C55.6186 23 53.4302 22.3678 51.8908 21.3985C50.3383 20.421 49.5703 19.1965 49.5703 18.0074H47.5703C47.5703 20.1278 48.933 21.8996 50.8252 23.091C52.7305 24.2907 55.301 25 58.088 25V23Z" fill="#7D22FF" mask="url(#path-4-inside-2_6150_111699)"/>
<path fill-rule="evenodd" clip-rule="evenodd" d="M10.0171 39.5752C12.9373 39.5752 15.3047 37.2079 15.3047 34.2876C15.3047 31.3673 12.9373 29 10.0171 29C7.09681 29 4.72947 31.3673 4.72947 34.2876C4.72947 37.2079 7.09681 39.5752 10.0171 39.5752ZM10.0177 52.9705C15.2742 52.9705 19.5354 50.2875 19.5354 46.9779C19.5354 43.6682 15.2742 40.9853 10.0177 40.9853C4.76122 40.9853 0.5 43.6682 0.5 46.9779C0.5 50.2875 4.76122 52.9705 10.0177 52.9705Z" fill="#E1FF26"/>
<mask id="path-7-inside-3_6150_111699" fill="white">
<path fill-rule="evenodd" clip-rule="evenodd" d="M34.0522 39.5752C36.9725 39.5752 39.3398 37.2079 39.3398 34.2876C39.3398 31.3673 36.9725 29 34.0522 29C31.132 29 28.7646 31.3673 28.7646 34.2876C28.7646 37.2079 31.132 39.5752 34.0522 39.5752ZM34.0528 52.9705C39.3093 52.9705 43.5705 50.2875 43.5705 46.9779C43.5705 43.6682 39.3093 40.9853 34.0528 40.9853C28.7964 40.9853 24.5352 43.6682 24.5352 46.9779C24.5352 50.2875 28.7964 52.9705 34.0528 52.9705Z"/>
</mask>
<path d="M38.3398 34.2876C38.3398 36.6556 36.4202 38.5752 34.0522 38.5752V40.5752C37.5248 40.5752 40.3398 37.7602 40.3398 34.2876H38.3398ZM34.0522 30C36.4202 30 38.3398 31.9196 38.3398 34.2876H40.3398C40.3398 30.8151 37.5248 28 34.0522 28V30ZM29.7646 34.2876C29.7646 31.9196 31.6843 30 34.0522 30V28C30.5797 28 27.7646 30.8151 27.7646 34.2876H29.7646ZM34.0522 38.5752C31.6843 38.5752 29.7646 36.6556 29.7646 34.2876H27.7646C27.7646 37.7602 30.5797 40.5752 34.0522 40.5752V38.5752ZM42.5705 46.9779C42.5705 48.1671 41.8026 49.3915 40.2501 50.3691C38.7107 51.3383 36.5223 51.9705 34.0528 51.9705V53.9705C36.8399 53.9705 39.4103 53.2612 41.3157 52.0615C43.2079 50.8702 44.5705 49.0983 44.5705 46.9779H42.5705ZM34.0528 41.9853C36.5223 41.9853 38.7107 42.6174 40.2501 43.5867C41.8026 44.5642 42.5705 45.7887 42.5705 46.9779H44.5705C44.5705 44.8574 43.2079 43.0856 41.3157 41.8942C39.4103 40.6946 36.8399 39.9853 34.0528 39.9853V41.9853ZM25.5352 46.9779C25.5352 45.7887 26.3031 44.5642 27.8556 43.5867C29.395 42.6174 31.5834 41.9853 34.0528 41.9853V39.9853C31.2658 39.9853 28.6954 40.6946 26.79 41.8942C24.8978 43.0856 23.5352 44.8574 23.5352 46.9779H25.5352ZM34.0528 51.9705C31.5834 51.9705 29.395 51.3383 27.8556 50.3691C26.3031 49.3915 25.5352 48.1671 25.5352 46.9779H23.5352C23.5352 49.0983 24.8978 50.8702 26.79 52.0615C28.6954 53.2612 31.2658 53.9705 34.0528 53.9705V51.9705Z" fill="#7D22FF" mask="url(#path-7-inside-3_6150_111699)"/>
<rect x="52" y="34.5295" width="13" height="13" rx="6.5" stroke="#E1FF26"/>
<path d="M55.043 41.0295L56.9771 43.2039C57.1761 43.4276 57.5258 43.4274 57.7246 43.2035L61.9585 38.4346" stroke="#E1FF26"/>
</svg>
