<svg width="1284" height="413" viewBox="0 0 1284 413" fill="none" xmlns="http://www.w3.org/2000/svg">
<path d="M217.81 303.301C196.954 333.753 162.638 351.8 120.053 351.8C50.0884 351.8 0.107422 302.835 0.107422 232.699C0.107422 162.563 50.0884 111.826 120.466 111.826C161.765 111.826 196.081 129.453 216.477 159.905L173.02 192.968C162.178 176.226 143.481 165.174 120.88 165.174C83.945 165.174 57.898 193.387 57.898 232.652C57.898 271.917 83.5316 298.358 120.466 298.358C143.481 298.358 162.178 287.773 173.02 270.565L217.764 303.208L217.81 303.301Z" fill="#131313"/>
<path d="M448.458 351.8V15.0158L503.998 0V148.107C521.087 126.842 545.894 111.873 576.626 111.873C632.625 111.873 666.344 149.412 666.344 220.528V336.691L610.805 351.8V224.445C610.805 184.527 593.302 163.915 563.35 163.915C529.172 163.915 503.952 194.087 503.952 231.393V336.691L448.412 351.846L448.458 351.8Z" fill="#131313"/>
<path d="M740.43 325.771L658.338 126.648L712.821 111.865L770.703 252.324L820.96 130.332L888.903 111.865L772.954 393.762L704.736 412.322L740.384 325.818L740.43 325.771Z" fill="#131313"/>
<path d="M981.777 336.971L927.34 351.8L834.131 126.749L888.981 111.826L952.882 266.881L1009.48 129.5L1074.53 111.826L981.731 336.924L981.777 336.971Z" fill="#131313"/>
<path d="M322.418 111.865C251.718 111.865 201.783 160.317 201.783 232.085C201.783 303.853 251.718 351.839 322.418 351.839C393.117 351.839 443.465 303.387 443.465 232.085C443.465 160.783 393.53 111.865 322.418 111.865ZM322.418 302.641C283.14 302.641 254.658 272.936 254.658 232.039C254.658 191.141 283.186 161.016 322.418 161.016C361.649 161.016 390.636 190.908 390.636 232.039C390.636 273.169 362.568 302.641 322.418 302.641Z" fill="#131313"/>
<path d="M1283.91 254.329L1229.48 269.065L1227.32 272.656C1215.56 288.558 1197.27 298.724 1173.8 298.724C1148.9 298.724 1128.87 287.019 1117.76 268.133L1256.08 230.64L1265.08 228.215L1268.94 227.189L1283.82 223.132C1283 164.654 1241.79 111.865 1169.85 111.865C1097.91 111.865 1051.51 161.343 1051.51 231.572C1051.51 301.802 1100.25 352.165 1171.18 352.165C1212.07 352.165 1247.76 335.377 1268.66 306.651C1286.26 280.49 1283.87 254.656 1283.91 254.283V254.329ZM1170.77 164.84C1193.46 164.84 1210.69 174.96 1220.57 190.768L1109.49 220.94C1109.95 216.51 1110.54 212.08 1111.6 207.696C1119.45 182.095 1141.18 164.84 1170.77 164.84Z" fill="#131313"/>
</svg>
