<svg width="33" height="16" viewBox="0 0 33 16" fill="none" xmlns="http://www.w3.org/2000/svg">
<g filter="url(#filter0_b_6150_111331)">
<rect x="0.498047" width="32" height="16" rx="8" fill="#3A3A3A" fill-opacity="0.22"/>
<rect x="0.623047" y="0.125" width="31.75" height="15.75" rx="7.875" stroke="url(#paint0_linear_6150_111331)" stroke-width="0.25"/>
<path d="M8.12381 7.67948H10.0245L9.08984 4.75521H9.07414L8.12381 7.67948ZM8.68145 4H9.5061L11.6973 10.27H10.8727L10.2601 8.38199H7.8882L7.25988 10.27H6.49805L8.68145 4ZM12.1804 4H12.8479V10.27H12.1804V4ZM13.9056 5.72997H14.5732V6.34467H14.5889C14.6989 6.09294 14.8716 5.91145 15.1073 5.80021C15.3429 5.68313 15.602 5.62458 15.8848 5.62458C16.1989 5.62458 16.4712 5.68898 16.7016 5.81778C16.9372 5.94658 17.131 6.12221 17.2828 6.34467C17.4399 6.56129 17.5577 6.81302 17.6362 7.09989C17.7148 7.38675 17.754 7.69118 17.754 8.01317C17.754 8.33516 17.7148 8.63959 17.6362 8.92645C17.5629 9.21332 17.4477 9.46505 17.2906 9.68167C17.1388 9.89242 16.9451 10.0593 16.7095 10.1822C16.4791 10.3052 16.2094 10.3666 15.9005 10.3666C15.801 10.3666 15.6885 10.3549 15.5628 10.3315C15.4424 10.3081 15.3219 10.27 15.2015 10.2173C15.0811 10.1646 14.9659 10.0944 14.8559 10.0066C14.7512 9.91292 14.6622 9.79875 14.5889 9.6641H14.5732V12H13.9056V5.72997ZM17.0472 7.96048C17.0472 7.74972 17.021 7.54482 16.9686 7.34577C16.9215 7.14087 16.8456 6.95938 16.7409 6.80131C16.6414 6.64324 16.5105 6.51738 16.3482 6.42371C16.1911 6.33004 16.0052 6.2832 15.7905 6.2832C15.5654 6.2832 15.3743 6.33296 15.2172 6.43249C15.0601 6.53201 14.9318 6.66374 14.8324 6.82766C14.7329 6.98573 14.6596 7.16721 14.6124 7.37211C14.5706 7.57701 14.5496 7.78485 14.5496 7.99561C14.5496 8.21807 14.5732 8.43468 14.6203 8.64544C14.6674 8.85035 14.7407 9.03183 14.8402 9.1899C14.9449 9.34797 15.0785 9.47677 15.2408 9.57629C15.4031 9.66996 15.5994 9.7168 15.8298 9.7168C16.0602 9.7168 16.2513 9.66703 16.4032 9.5675C16.5602 9.46798 16.6859 9.33626 16.7801 9.17234C16.8744 9.00841 16.9425 8.82107 16.9843 8.61031C17.0262 8.39956 17.0472 8.18294 17.0472 7.96048ZM18.5368 4H19.2044V6.39736H19.2201C19.2724 6.25685 19.3457 6.13977 19.44 6.0461C19.5342 5.94657 19.639 5.86755 19.7542 5.809C19.8746 5.7446 19.9976 5.69777 20.1233 5.6685C20.2542 5.63922 20.3798 5.62458 20.5003 5.62458C20.7673 5.62458 20.9898 5.66557 21.1679 5.74753C21.3459 5.82949 21.4899 5.94364 21.5998 6.09C21.7098 6.23636 21.7857 6.41199 21.8276 6.6169C21.8747 6.81595 21.8983 7.03842 21.8983 7.2843V10.27H21.2307V7.19649C21.2307 6.91548 21.1574 6.69301 21.0108 6.52909C20.8642 6.36516 20.6626 6.2832 20.406 6.2832C20.2018 6.2832 20.0238 6.31833 19.872 6.38858C19.7254 6.45883 19.6023 6.55836 19.5028 6.68716C19.4033 6.81595 19.3274 6.96816 19.2751 7.14379C19.228 7.31357 19.2044 7.50091 19.2044 7.70582V10.27H18.5368V4ZM26.498 10.2525C26.3829 10.3286 26.2232 10.3666 26.019 10.3666C25.8462 10.3666 25.7074 10.3139 25.6027 10.2086C25.5032 10.0973 25.4535 9.91877 25.4535 9.67289C25.2702 9.91877 25.0556 10.0973 24.8095 10.2086C24.5686 10.3139 24.3068 10.3666 24.0241 10.3666C23.8408 10.3666 23.6654 10.3432 23.4979 10.2964C23.3355 10.2495 23.1942 10.1764 23.0737 10.0768C22.9533 9.97731 22.8565 9.84851 22.7831 9.69044C22.7151 9.52652 22.681 9.33041 22.681 9.10209C22.681 8.8445 22.7203 8.63373 22.7989 8.46981C22.8774 8.30588 22.9795 8.17417 23.1052 8.07464C23.2361 7.96926 23.3827 7.89022 23.545 7.83754C23.7125 7.78485 23.8827 7.74094 24.0555 7.70582C24.2387 7.66484 24.4115 7.63557 24.5738 7.61801C24.7414 7.59459 24.888 7.56531 25.0137 7.53018C25.1393 7.4892 25.2388 7.43359 25.3121 7.36333C25.3854 7.28723 25.4221 7.17892 25.4221 7.03842C25.4221 6.87449 25.3933 6.74278 25.3357 6.64325C25.2833 6.54373 25.2126 6.46761 25.1236 6.41492C25.0398 6.36223 24.943 6.32711 24.833 6.30954C24.7283 6.29198 24.6236 6.2832 24.5189 6.2832C24.2361 6.2832 24.0005 6.34467 23.812 6.46762C23.6235 6.5847 23.5214 6.81009 23.5057 7.14379H22.8381C22.8486 6.86278 22.901 6.62568 22.9952 6.43249C23.0895 6.23929 23.2151 6.08415 23.3722 5.96706C23.5293 5.84412 23.7073 5.7563 23.9063 5.70361C24.1105 5.65093 24.3278 5.62458 24.5581 5.62458C24.7414 5.62458 24.922 5.63922 25.1001 5.6685C25.2833 5.69777 25.4482 5.75924 25.5948 5.85291C25.7415 5.94072 25.8593 6.06659 25.9483 6.23051C26.0373 6.39443 26.0818 6.60812 26.0818 6.87157V9.20747C26.0818 9.3831 26.0896 9.51189 26.1053 9.59385C26.1263 9.67582 26.1891 9.7168 26.2939 9.7168C26.3515 9.7168 26.4195 9.70216 26.498 9.67289V10.2525ZM25.4142 7.92536C25.3304 7.99561 25.2205 8.04829 25.0843 8.08342C24.9482 8.11269 24.8042 8.13904 24.6524 8.16245C24.5058 8.18002 24.3565 8.20344 24.2047 8.23271C24.0529 8.25613 23.9167 8.29711 23.7963 8.35565C23.6759 8.4142 23.5764 8.49908 23.4979 8.61031C23.4246 8.71569 23.3879 8.86206 23.3879 9.0494C23.3879 9.17234 23.4088 9.27772 23.4507 9.36554C23.4978 9.4475 23.5554 9.51481 23.6235 9.5675C23.6968 9.62019 23.7806 9.65825 23.8748 9.68167C23.9691 9.70508 24.0686 9.7168 24.1733 9.7168C24.3932 9.7168 24.5817 9.68459 24.7388 9.6202C24.8959 9.54994 25.0241 9.46506 25.1236 9.36554C25.2231 9.26016 25.2964 9.14892 25.3435 9.03183C25.3906 8.90889 25.4142 8.79473 25.4142 8.68935V7.92536Z" fill="url(#paint1_linear_6150_111331)"/>
</g>
<defs>
<filter id="filter0_b_6150_111331" x="-3.50195" y="-4" width="40" height="24" filterUnits="userSpaceOnUse" color-interpolation-filters="sRGB">
<feFlood flood-opacity="0" result="BackgroundImageFix"/>
<feGaussianBlur in="BackgroundImageFix" stdDeviation="2"/>
<feComposite in2="SourceAlpha" operator="in" result="effect1_backgroundBlur_6150_111331"/>
<feBlend mode="normal" in="SourceGraphic" in2="effect1_backgroundBlur_6150_111331" result="shape"/>
</filter>
<linearGradient id="paint0_linear_6150_111331" x1="0.498047" y1="1.45455" x2="33.6026" y2="14.854" gradientUnits="userSpaceOnUse">
<stop stop-color="#FCFCD8" stop-opacity="0.39"/>
<stop offset="1" stop-color="#FCFCD8" stop-opacity="0.02"/>
</linearGradient>
<linearGradient id="paint1_linear_6150_111331" x1="4.55028" y1="3.5375" x2="28.5851" y2="10.3614" gradientUnits="userSpaceOnUse">
<stop stop-color="#A15FFF"/>
<stop offset="1" stop-color="#FF8E8E"/>
</linearGradient>
</defs>
</svg>
