<svg width="484" height="699" viewBox="0 0 484 699" fill="none" xmlns="http://www.w3.org/2000/svg">
<g clip-path="url(#clip0_6150_112511)">
<g filter="url(#filter0_ii_6150_112511)">
<path d="M209.382 351.218C93.7011 376.185 8.99958 438.097 20.1167 489.595C45.0735 605.201 159.024 678.777 274.705 653.809C390.386 628.842 463.857 514.907 438.882 399.213C427.765 347.715 325.064 326.25 209.382 351.218Z" fill="#0038FF" fill-opacity="0.17"/>
</g>
<g filter="url(#filter1_i_6150_112511)">
<path d="M249.483 536.976C363.284 512.415 446.675 451.45 435.743 400.807C424.81 350.164 323.694 329.021 209.893 353.583C96.0918 378.144 12.7005 439.109 23.6332 489.752C34.5658 540.395 135.682 561.538 249.483 536.976Z" fill="black" fill-opacity="0.4"/>
</g>
<g filter="url(#filter2_if_6150_112511)">
<path d="M249.8 538.443C306.857 526.128 356.361 504.675 390.273 479.883C407.228 467.488 420.344 454.216 428.536 440.775C436.734 427.325 440.045 413.628 437.209 400.49C434.373 387.353 425.706 376.241 412.689 367.37C399.682 358.505 382.259 351.823 361.7 347.525C320.58 338.927 266.633 339.802 209.576 352.116C152.519 364.431 103.015 385.884 69.1025 410.676C52.148 423.071 39.0324 436.343 30.8399 449.784C22.6419 463.234 19.3309 476.931 22.1669 490.069C25.003 503.206 33.6699 514.318 46.6865 523.189C59.6942 532.054 77.1174 538.736 97.6757 543.034C138.796 551.632 192.743 550.757 249.8 538.443Z" stroke="url(#paint0_angular_6150_112511)" stroke-width="3"/>
</g>
<g filter="url(#filter3_if_6150_112511)">
<path d="M249.8 538.443C306.857 526.128 356.361 504.675 390.273 479.883C407.228 467.488 420.344 454.216 428.536 440.775C436.734 427.325 440.045 413.628 437.209 400.49C434.373 387.353 425.706 376.241 412.689 367.37C399.682 358.505 382.259 351.823 361.7 347.525C320.58 338.927 266.633 339.802 209.576 352.116C152.519 364.431 103.015 385.884 69.1025 410.676C52.148 423.071 39.0324 436.343 30.8399 449.784C22.6419 463.234 19.3309 476.931 22.1669 490.069C25.003 503.206 33.6699 514.318 46.6865 523.189C59.6942 532.054 77.1174 538.736 97.6757 543.034C138.796 551.632 192.743 550.757 249.8 538.443Z" stroke="url(#paint1_angular_6150_112511)" stroke-width="3"/>
</g>
<g filter="url(#filter4_f_6150_112511)">
<path d="M211.929 360.418C136.884 383.514 73.99 422.584 51.9236 439.232C-23.1525 519.218 87.5842 530.692 170.32 491.966C253.057 453.241 284.375 338.157 211.929 360.418Z" fill="#9C0B0E" fill-opacity="0.15"/>
</g>
</g>
<g filter="url(#filter5_b_6150_112511)">
<g filter="url(#filter6_ii_6150_112511)">
<path d="M220.361 136.125C78.1611 136.125 26.4534 249.021 31.9739 327.445C39.2777 431.203 116.279 515.853 220.361 515.853C324.442 515.853 402.141 431.328 408.747 327.445C413.639 250.52 362.56 136.125 220.361 136.125Z" fill="#0038FF" fill-opacity="0.29"/>
</g>
<g filter="url(#filter7_if_6150_112511)">
<path d="M220.545 476.561C322.911 476.561 405.895 400.296 405.895 306.218C405.895 212.14 322.911 135.875 220.545 135.875C118.179 135.875 35.1953 212.14 35.1953 306.218C35.1953 400.296 118.179 476.561 220.545 476.561Z" fill="black" fill-opacity="0.72"/>
<path d="M220.545 478.561C323.853 478.561 407.895 401.556 407.895 306.218C407.895 210.88 323.853 133.875 220.545 133.875C117.237 133.875 33.1953 210.88 33.1953 306.218C33.1953 401.556 117.237 478.561 220.545 478.561Z" stroke="url(#paint2_angular_6150_112511)" stroke-width="4"/>
</g>
<g filter="url(#filter8_if_6150_112511)">
<path d="M220.545 478.061C323.618 478.061 407.395 401.241 407.395 306.218C407.395 211.195 323.618 134.375 220.545 134.375C117.473 134.375 33.6953 211.195 33.6953 306.218C33.6953 401.241 117.473 478.061 220.545 478.061Z" stroke="url(#paint3_angular_6150_112511)" stroke-width="3"/>
</g>
</g>
<g clip-path="url(#clip1_6150_112511)" filter="url(#filter9_b_6150_112511)">
<g filter="url(#filter10_ii_6150_112511)">
<path d="M285.572 60.5046C187.006 27.0765 95.1187 35.5205 80.2344 79.3988C46.8205 177.901 99.5475 284.899 198.114 318.327C296.68 351.755 403.603 298.985 437.042 200.408C451.927 156.53 384.138 93.9327 285.572 60.5046Z" fill="#0038FF" fill-opacity="0.29"/>
</g>
<g filter="url(#filter11_i_6150_112511)">
<path d="M231.882 218.78C328.846 251.665 419.317 243.343 433.954 200.193C448.591 157.043 381.853 95.4043 284.889 62.5196C187.925 29.6349 97.4544 37.9567 82.817 81.1068C68.1797 124.257 134.918 185.895 231.882 218.78Z" fill="black" fill-opacity="0.53"/>
</g>
<g filter="url(#filter12_if_6150_112511)">
<path d="M231.24 220.674C279.924 237.184 327.067 243.385 363.974 239.991C382.424 238.293 398.413 234.189 410.771 227.695C423.142 221.195 431.98 212.238 435.848 200.835C439.716 189.432 438.152 176.947 432.289 164.262C426.432 151.591 416.24 138.607 402.629 126.037C375.404 100.892 334.215 77.1359 285.531 60.6251C236.848 44.1143 189.704 37.9133 152.797 41.3081C134.347 43.0052 118.359 47.1095 106 53.6033C93.6289 60.1037 84.7911 69.061 80.923 80.464C77.0549 91.8669 78.619 104.352 84.4823 117.037C90.3396 129.708 100.531 142.691 114.142 155.262C141.368 180.406 182.556 204.163 231.24 220.674Z" stroke="url(#paint4_angular_6150_112511)" stroke-width="4"/>
</g>
<g filter="url(#filter13_if_6150_112511)">
<path d="M231.4 220.2C280.034 236.694 327.106 242.88 363.928 239.493C382.337 237.799 398.256 233.707 410.539 227.253C422.831 220.794 431.559 211.923 435.375 200.674C439.191 189.425 437.661 177.075 431.835 164.472C426.014 151.878 415.87 138.946 402.29 126.404C375.127 101.317 334.004 77.5923 285.371 61.0986C236.737 44.6049 189.665 38.419 152.843 41.806C134.434 43.4993 118.515 47.5919 106.233 54.0459C93.9405 60.5048 85.2124 69.3754 81.3965 80.6245C77.5806 91.8736 79.1104 104.223 84.9362 116.827C90.7575 129.421 100.901 142.352 114.481 154.894C141.644 179.981 182.767 203.706 231.4 220.2Z" stroke="url(#paint5_angular_6150_112511)" stroke-width="3"/>
</g>
<g filter="url(#filter14_f_6150_112511)">
<path d="M283.336 68.5973C216.275 52.1175 151.165 53.1799 126.992 55.7711C34.1998 82.2009 112.566 140.891 192.493 149.053C272.419 157.215 348.057 84.5329 283.336 68.5973Z" fill="#9C0B0E" fill-opacity="0.15"/>
</g>
</g>
<defs>
<filter id="filter0_ii_6150_112511" x="-9.86328" y="316.805" width="472.619" height="352.87" filterUnits="userSpaceOnUse" color-interpolation-filters="sRGB">
<feFlood flood-opacity="0" result="BackgroundImageFix"/>
<feBlend mode="normal" in="SourceGraphic" in2="BackgroundImageFix" result="shape"/>
<feColorMatrix in="SourceAlpha" type="matrix" values="0 0 0 0 0 0 0 0 0 0 0 0 0 0 0 0 0 0 127 0" result="hardAlpha"/>
<feOffset dx="-29" dy="-24"/>
<feGaussianBlur stdDeviation="35.4"/>
<feComposite in2="hardAlpha" operator="arithmetic" k2="-1" k3="1"/>
<feColorMatrix type="matrix" values="0 0 0 0 0 0 0 0 0 0.22 0 0 0 0 1 0 0 0 1 0"/>
<feBlend mode="normal" in2="shape" result="effect1_innerShadow_6150_112511"/>
<feColorMatrix in="SourceAlpha" type="matrix" values="0 0 0 0 0 0 0 0 0 0 0 0 0 0 0 0 0 0 127 0" result="hardAlpha"/>
<feOffset dx="19" dy="11"/>
<feGaussianBlur stdDeviation="11.65"/>
<feComposite in2="hardAlpha" operator="arithmetic" k2="-1" k3="1"/>
<feColorMatrix type="matrix" values="0 0 0 0 0 0 0 0 0 0.785378 0 0 0 0 0.886068 0 0 0 1 0"/>
<feBlend mode="normal" in2="effect1_innerShadow_6150_112511" result="effect2_innerShadow_6150_112511"/>
</filter>
<filter id="filter1_i_6150_112511" x="22.6699" y="343.344" width="414.035" height="292.672" filterUnits="userSpaceOnUse" color-interpolation-filters="sRGB">
<feFlood flood-opacity="0" result="BackgroundImageFix"/>
<feBlend mode="normal" in="SourceGraphic" in2="BackgroundImageFix" result="shape"/>
<feColorMatrix in="SourceAlpha" type="matrix" values="0 0 0 0 0 0 0 0 0 0 0 0 0 0 0 0 0 0 127 0" result="hardAlpha"/>
<feOffset dy="109"/>
<feGaussianBlur stdDeviation="44.4"/>
<feComposite in2="hardAlpha" operator="arithmetic" k2="-1" k3="1"/>
<feColorMatrix type="matrix" values="0 0 0 0 0.706989 0 0 0 0 0.162826 0 0 0 0 1 0 0 0 0.13 0"/>
<feBlend mode="normal" in2="shape" result="effect1_innerShadow_6150_112511"/>
</filter>
<filter id="filter2_if_6150_112511" x="13.6699" y="334.344" width="432.037" height="304.672" filterUnits="userSpaceOnUse" color-interpolation-filters="sRGB">
<feFlood flood-opacity="0" result="BackgroundImageFix"/>
<feBlend mode="normal" in="SourceGraphic" in2="BackgroundImageFix" result="shape"/>
<feColorMatrix in="SourceAlpha" type="matrix" values="0 0 0 0 0 0 0 0 0 0 0 0 0 0 0 0 0 0 127 0" result="hardAlpha"/>
<feOffset dy="109"/>
<feGaussianBlur stdDeviation="44.4"/>
<feComposite in2="hardAlpha" operator="arithmetic" k2="-1" k3="1"/>
<feColorMatrix type="matrix" values="0 0 0 0 0.706989 0 0 0 0 0.162826 0 0 0 0 1 0 0 0 0.13 0"/>
<feBlend mode="normal" in2="shape" result="effect1_innerShadow_6150_112511"/>
<feGaussianBlur stdDeviation="3" result="effect2_foregroundBlur_6150_112511"/>
</filter>
<filter id="filter3_if_6150_112511" x="17.6699" y="338.344" width="424.037" height="300.672" filterUnits="userSpaceOnUse" color-interpolation-filters="sRGB">
<feFlood flood-opacity="0" result="BackgroundImageFix"/>
<feBlend mode="normal" in="SourceGraphic" in2="BackgroundImageFix" result="shape"/>
<feColorMatrix in="SourceAlpha" type="matrix" values="0 0 0 0 0 0 0 0 0 0 0 0 0 0 0 0 0 0 127 0" result="hardAlpha"/>
<feOffset dy="109"/>
<feGaussianBlur stdDeviation="44.4"/>
<feComposite in2="hardAlpha" operator="arithmetic" k2="-1" k3="1"/>
<feColorMatrix type="matrix" values="0 0 0 0 0.706989 0 0 0 0 0.162826 0 0 0 0 1 0 0 0 0.13 0"/>
<feBlend mode="normal" in2="shape" result="effect1_innerShadow_6150_112511"/>
<feGaussianBlur stdDeviation="1" result="effect2_foregroundBlur_6150_112511"/>
</filter>
<filter id="filter4_f_6150_112511" x="-52.9961" y="277.585" width="385.447" height="315.833" filterUnits="userSpaceOnUse" color-interpolation-filters="sRGB">
<feFlood flood-opacity="0" result="BackgroundImageFix"/>
<feBlend mode="normal" in="SourceGraphic" in2="BackgroundImageFix" result="shape"/>
<feGaussianBlur stdDeviation="40" result="effect1_foregroundBlur_6150_112511"/>
</filter>
<filter id="filter5_b_6150_112511" x="11.1953" y="111.875" width="418.699" height="423.978" filterUnits="userSpaceOnUse" color-interpolation-filters="sRGB">
<feFlood flood-opacity="0" result="BackgroundImageFix"/>
<feGaussianBlur in="BackgroundImageFix" stdDeviation="10"/>
<feComposite in2="SourceAlpha" operator="in" result="effect1_backgroundBlur_6150_112511"/>
<feBlend mode="normal" in="SourceGraphic" in2="effect1_backgroundBlur_6150_112511" result="shape"/>
</filter>
<filter id="filter6_ii_6150_112511" x="2.57812" y="112.125" width="425.486" height="403.728" filterUnits="userSpaceOnUse" color-interpolation-filters="sRGB">
<feFlood flood-opacity="0" result="BackgroundImageFix"/>
<feBlend mode="normal" in="SourceGraphic" in2="BackgroundImageFix" result="shape"/>
<feColorMatrix in="SourceAlpha" type="matrix" values="0 0 0 0 0 0 0 0 0 0 0 0 0 0 0 0 0 0 127 0" result="hardAlpha"/>
<feOffset dx="-29" dy="-24"/>
<feGaussianBlur stdDeviation="35.4"/>
<feComposite in2="hardAlpha" operator="arithmetic" k2="-1" k3="1"/>
<feColorMatrix type="matrix" values="0 0 0 0 0 0 0 0 0 0.22 0 0 0 0 1 0 0 0 1 0"/>
<feBlend mode="normal" in2="shape" result="effect1_innerShadow_6150_112511"/>
<feColorMatrix in="SourceAlpha" type="matrix" values="0 0 0 0 0 0 0 0 0 0 0 0 0 0 0 0 0 0 127 0" result="hardAlpha"/>
<feOffset dx="19" dy="-17"/>
<feGaussianBlur stdDeviation="11.65"/>
<feComposite in2="hardAlpha" operator="arithmetic" k2="-1" k3="1"/>
<feColorMatrix type="matrix" values="0 0 0 0 0 0 0 0 0 0.785378 0 0 0 0 0.886068 0 0 0 1 0"/>
<feBlend mode="normal" in2="effect1_innerShadow_6150_112511" result="effect2_innerShadow_6150_112511"/>
</filter>
<filter id="filter7_if_6150_112511" x="25.1953" y="104.875" width="468.299" height="381.686" filterUnits="userSpaceOnUse" color-interpolation-filters="sRGB">
<feFlood flood-opacity="0" result="BackgroundImageFix"/>
<feBlend mode="normal" in="SourceGraphic" in2="BackgroundImageFix" result="shape"/>
<feColorMatrix in="SourceAlpha" type="matrix" values="0 0 0 0 0 0 0 0 0 0 0 0 0 0 0 0 0 0 127 0" result="hardAlpha"/>
<feOffset dx="105" dy="-27"/>
<feGaussianBlur stdDeviation="41.8"/>
<feComposite in2="hardAlpha" operator="arithmetic" k2="-1" k3="1"/>
<feColorMatrix type="matrix" values="0 0 0 0 0.162826 0 0 0 0 0.776753 0 0 0 0 1 0 0 0 0.15 0"/>
<feBlend mode="normal" in2="shape" result="effect1_innerShadow_6150_112511"/>
<feGaussianBlur stdDeviation="3" result="effect2_foregroundBlur_6150_112511"/>
</filter>
<filter id="filter8_if_6150_112511" x="30.1953" y="105.875" width="467.499" height="375.686" filterUnits="userSpaceOnUse" color-interpolation-filters="sRGB">
<feFlood flood-opacity="0" result="BackgroundImageFix"/>
<feBlend mode="normal" in="SourceGraphic" in2="BackgroundImageFix" result="shape"/>
<feColorMatrix in="SourceAlpha" type="matrix" values="0 0 0 0 0 0 0 0 0 0 0 0 0 0 0 0 0 0 127 0" result="hardAlpha"/>
<feOffset dx="105" dy="-27"/>
<feGaussianBlur stdDeviation="44.4"/>
<feComposite in2="hardAlpha" operator="arithmetic" k2="-1" k3="1"/>
<feColorMatrix type="matrix" values="0 0 0 0 0 0 0 0 0 0.785378 0 0 0 0 0.886068 0 0 0 0.05 0"/>
<feBlend mode="normal" in2="shape" result="effect1_innerShadow_6150_112511"/>
<feGaussianBlur stdDeviation="1" result="effect2_foregroundBlur_6150_112511"/>
</filter>
<filter id="filter9_b_6150_112511" x="9.70898" y="-10" width="464.191" height="398.806" filterUnits="userSpaceOnUse" color-interpolation-filters="sRGB">
<feFlood flood-opacity="0" result="BackgroundImageFix"/>
<feGaussianBlur in="BackgroundImageFix" stdDeviation="5"/>
<feComposite in2="SourceAlpha" operator="in" result="effect1_backgroundBlur_6150_112511"/>
<feBlend mode="normal" in="SourceGraphic" in2="effect1_backgroundBlur_6150_112511" result="shape"/>
</filter>
<filter id="filter10_ii_6150_112511" x="41.1973" y="16.0601" width="416.895" height="323.306" filterUnits="userSpaceOnUse" color-interpolation-filters="sRGB">
<feFlood flood-opacity="0" result="BackgroundImageFix"/>
<feBlend mode="normal" in="SourceGraphic" in2="BackgroundImageFix" result="shape"/>
<feColorMatrix in="SourceAlpha" type="matrix" values="0 0 0 0 0 0 0 0 0 0 0 0 0 0 0 0 0 0 127 0" result="hardAlpha"/>
<feOffset dx="-29" dy="-24"/>
<feGaussianBlur stdDeviation="35.4"/>
<feComposite in2="hardAlpha" operator="arithmetic" k2="-1" k3="1"/>
<feColorMatrix type="matrix" values="0 0 0 0 0 0 0 0 0 0.826997 0 0 0 0 0.886068 0 0 0 0.74 0"/>
<feBlend mode="normal" in2="shape" result="effect1_innerShadow_6150_112511"/>
<feColorMatrix in="SourceAlpha" type="matrix" values="0 0 0 0 0 0 0 0 0 0 0 0 0 0 0 0 0 0 127 0" result="hardAlpha"/>
<feOffset dx="19" dy="11"/>
<feGaussianBlur stdDeviation="11.65"/>
<feComposite in2="hardAlpha" operator="arithmetic" k2="-1" k3="1"/>
<feColorMatrix type="matrix" values="0 0 0 0 0 0 0 0 0 0.22 0 0 0 0 1 0 0 0 1 0"/>
<feBlend mode="normal" in2="effect1_innerShadow_6150_112511" result="effect2_innerShadow_6150_112511"/>
</filter>
<filter id="filter11_i_6150_112511" x="80.8027" y="42.4116" width="355.164" height="285.276" filterUnits="userSpaceOnUse" color-interpolation-filters="sRGB">
<feFlood flood-opacity="0" result="BackgroundImageFix"/>
<feBlend mode="normal" in="SourceGraphic" in2="BackgroundImageFix" result="shape"/>
<feColorMatrix in="SourceAlpha" type="matrix" values="0 0 0 0 0 0 0 0 0 0 0 0 0 0 0 0 0 0 127 0" result="hardAlpha"/>
<feOffset dy="109"/>
<feGaussianBlur stdDeviation="44.4"/>
<feComposite in2="hardAlpha" operator="arithmetic" k2="-1" k3="1"/>
<feColorMatrix type="matrix" values="0 0 0 0 0.706989 0 0 0 0 0.162826 0 0 0 0 1 0 0 0 0.13 0"/>
<feBlend mode="normal" in2="shape" result="effect1_innerShadow_6150_112511"/>
</filter>
<filter id="filter12_if_6150_112511" x="70.8027" y="32.4111" width="375.166" height="299.276" filterUnits="userSpaceOnUse" color-interpolation-filters="sRGB">
<feFlood flood-opacity="0" result="BackgroundImageFix"/>
<feBlend mode="normal" in="SourceGraphic" in2="BackgroundImageFix" result="shape"/>
<feColorMatrix in="SourceAlpha" type="matrix" values="0 0 0 0 0 0 0 0 0 0 0 0 0 0 0 0 0 0 127 0" result="hardAlpha"/>
<feOffset dy="109"/>
<feGaussianBlur stdDeviation="44.4"/>
<feComposite in2="hardAlpha" operator="arithmetic" k2="-1" k3="1"/>
<feColorMatrix type="matrix" values="0 0 0 0 0.706989 0 0 0 0 0.162826 0 0 0 0 1 0 0 0 0.13 0"/>
<feBlend mode="normal" in2="shape" result="effect1_innerShadow_6150_112511"/>
<feGaussianBlur stdDeviation="3" result="effect2_foregroundBlur_6150_112511"/>
</filter>
<filter id="filter13_if_6150_112511" x="75.8027" y="37.4111" width="365.166" height="293.276" filterUnits="userSpaceOnUse" color-interpolation-filters="sRGB">
<feFlood flood-opacity="0" result="BackgroundImageFix"/>
<feBlend mode="normal" in="SourceGraphic" in2="BackgroundImageFix" result="shape"/>
<feColorMatrix in="SourceAlpha" type="matrix" values="0 0 0 0 0 0 0 0 0 0 0 0 0 0 0 0 0 0 127 0" result="hardAlpha"/>
<feOffset dy="109"/>
<feGaussianBlur stdDeviation="44.4"/>
<feComposite in2="hardAlpha" operator="arithmetic" k2="-1" k3="1"/>
<feColorMatrix type="matrix" values="0 0 0 0 0.706989 0 0 0 0 0.162826 0 0 0 0 1 0 0 0 0.13 0"/>
<feBlend mode="normal" in2="shape" result="effect1_innerShadow_6150_112511"/>
<feGaussianBlur stdDeviation="1" result="effect2_foregroundBlur_6150_112511"/>
</filter>
<filter id="filter14_f_6150_112511" x="4.93164" y="-25.7222" width="382.82" height="255.412" filterUnits="userSpaceOnUse" color-interpolation-filters="sRGB">
<feFlood flood-opacity="0" result="BackgroundImageFix"/>
<feBlend mode="normal" in="SourceGraphic" in2="BackgroundImageFix" result="shape"/>
<feGaussianBlur stdDeviation="40" result="effect1_foregroundBlur_6150_112511"/>
</filter>
<radialGradient id="paint0_angular_6150_112511" cx="0" cy="0" r="1" gradientUnits="userSpaceOnUse" gradientTransform="translate(229.688 445.28) rotate(77.8181) scale(93.8093 210.799)">
<stop offset="0.0606455" stop-color="#29E2FF"/>
<stop offset="0.196569" stop-color="#29E2FF" stop-opacity="0"/>
<stop offset="0.284637" stop-color="#9468FF" stop-opacity="0.16"/>
<stop offset="0.345083" stop-color="#AA4FFF"/>
<stop offset="0.423475" stop-color="#FFB10A"/>
<stop offset="0.526309" stop-color="#6729FF"/>
<stop offset="0.71" stop-color="#0038FF"/>
</radialGradient>
<radialGradient id="paint1_angular_6150_112511" cx="0" cy="0" r="1" gradientUnits="userSpaceOnUse" gradientTransform="translate(229.688 445.28) rotate(77.8181) scale(93.8093 210.799)">
<stop offset="0.0606455" stop-color="#29E2FF"/>
<stop offset="0.196569" stop-color="#29E2FF" stop-opacity="0"/>
<stop offset="0.284637" stop-color="#9468FF" stop-opacity="0.16"/>
<stop offset="0.33595" stop-color="#AA4FFF"/>
<stop offset="0.423475" stop-color="#FFB10A"/>
<stop offset="0.51498" stop-color="#6729FF"/>
<stop offset="0.798207" stop-color="#0038FF"/>
</radialGradient>
<radialGradient id="paint2_angular_6150_112511" cx="0" cy="0" r="1" gradientUnits="userSpaceOnUse" gradientTransform="translate(220.545 306.218) rotate(-90) scale(170.343 185.35)">
<stop offset="0.0606455" stop-color="#29E2FF"/>
<stop offset="0.196569" stop-color="#29E2FF" stop-opacity="0"/>
<stop offset="0.284637" stop-color="#9468FF" stop-opacity="0.16"/>
<stop offset="0.345083" stop-color="#AA4FFF"/>
<stop offset="0.423475" stop-color="#FFB10A"/>
<stop offset="0.526309" stop-color="#6729FF"/>
<stop offset="0.71" stop-color="#29E2FF"/>
</radialGradient>
<radialGradient id="paint3_angular_6150_112511" cx="0" cy="0" r="1" gradientUnits="userSpaceOnUse" gradientTransform="translate(220.545 306.218) rotate(-90) scale(170.343 185.35)">
<stop offset="0.0606455" stop-color="#29E2FF"/>
<stop offset="0.196569" stop-color="#29E2FF" stop-opacity="0"/>
<stop offset="0.284637" stop-color="#9468FF" stop-opacity="0.16"/>
<stop offset="0.33595" stop-color="#AA4FFF"/>
<stop offset="0.423475" stop-color="#FFB10A"/>
<stop offset="0.51498" stop-color="#6729FF"/>
<stop offset="0.71" stop-color="#29E2FF"/>
</radialGradient>
<radialGradient id="paint4_angular_6150_112511" cx="0" cy="0" r="1" gradientUnits="userSpaceOnUse" gradientTransform="translate(258.386 140.649) rotate(108.738) scale(82.5031 185.391)">
<stop offset="0.0606455" stop-color="#29E2FF"/>
<stop offset="0.196569" stop-color="#29E2FF" stop-opacity="0"/>
<stop offset="0.284637" stop-color="#9468FF" stop-opacity="0.16"/>
<stop offset="0.345083" stop-color="#AA4FFF"/>
<stop offset="0.423475" stop-color="#FFB10A"/>
<stop offset="0.526309" stop-color="#6729FF"/>
<stop offset="0.71" stop-color="#29E2FF"/>
</radialGradient>
<radialGradient id="paint5_angular_6150_112511" cx="0" cy="0" r="1" gradientUnits="userSpaceOnUse" gradientTransform="translate(258.386 140.649) rotate(108.738) scale(82.5031 185.391)">
<stop offset="0.0606455" stop-color="#29E2FF"/>
<stop offset="0.196569" stop-color="#29E2FF" stop-opacity="0"/>
<stop offset="0.284637" stop-color="#9468FF" stop-opacity="0.16"/>
<stop offset="0.33595" stop-color="#AA4FFF"/>
<stop offset="0.423475" stop-color="#FFB10A"/>
<stop offset="0.51498" stop-color="#6729FF"/>
<stop offset="0.71" stop-color="#29E2FF"/>
</radialGradient>
<clipPath id="clip0_6150_112511">
<rect width="428.318" height="309.562" fill="white" transform="matrix(0.977492 -0.210971 0.211016 0.977483 0 396.409)"/>
</clipPath>
<clipPath id="clip1_6150_112511">
<rect width="376.69" height="272.252" fill="white" transform="matrix(0.94702 0.321176 -0.32124 0.946998 107.168 0)"/>
</clipPath>
</defs>
</svg>
