<svg width="308" height="205" viewBox="0 0 308 205" fill="none" xmlns="http://www.w3.org/2000/svg">
<rect x="78" width="230" height="205" rx="16" fill="black" fill-opacity="0.26"/>
<rect x="97" y="24" width="183.499" height="4" fill="#555545"/>
<rect x="97" y="55" width="121" height="4" fill="#555545"/>
<rect x="97" y="65" width="121" height="4" fill="#555545"/>
<g filter="url(#filter0_b_6150_111608)">
<rect x="1" y="45" width="165" height="32" rx="8" fill="#1B1B1B" fill-opacity="0.64"/>
<rect x="1.5" y="45.5" width="164" height="31" rx="7.5" stroke="#FCFCD8" stroke-opacity="0.06"/>
<path d="M16.216 62.176L13.168 57.208V57.1H14.38L15.832 59.488L16.732 60.988L19.12 57.1H20.32V57.208L17.296 62.104V65.5H16.216V62.176ZM22.1978 65.608C21.5658 65.608 20.9978 65.468 20.4938 65.188C19.9898 64.9 19.5938 64.508 19.3058 64.012C19.0258 63.516 18.8858 62.952 18.8858 62.32C18.8858 61.688 19.0258 61.124 19.3058 60.628C19.5938 60.132 19.9898 59.744 20.4938 59.464C20.9978 59.176 21.5658 59.032 22.1978 59.032C22.8378 59.032 23.4098 59.172 23.9138 59.452C24.4178 59.732 24.8098 60.124 25.0898 60.628C25.3698 61.124 25.5098 61.688 25.5098 62.32C25.5098 62.952 25.3698 63.52 25.0898 64.024C24.8098 64.52 24.4178 64.908 23.9138 65.188C23.4098 65.468 22.8378 65.608 22.1978 65.608ZM19.9298 62.32C19.9298 62.768 20.0258 63.168 20.2178 63.52C20.4178 63.872 20.6898 64.148 21.0338 64.348C21.3778 64.548 21.7658 64.648 22.1978 64.648C22.6298 64.648 23.0178 64.548 23.3618 64.348C23.7138 64.148 23.9858 63.872 24.1778 63.52C24.3778 63.168 24.4778 62.768 24.4778 62.32C24.4778 61.872 24.3778 61.472 24.1778 61.12C23.9858 60.768 23.7138 60.492 23.3618 60.292C23.0178 60.092 22.6298 59.992 22.1978 59.992C21.7658 59.992 21.3778 60.092 21.0338 60.292C20.6898 60.492 20.4178 60.768 20.2178 61.12C20.0258 61.472 19.9298 61.872 19.9298 62.32ZM28.7305 65.596C27.8985 65.596 27.2545 65.34 26.7985 64.828C26.3425 64.316 26.1145 63.596 26.1145 62.668V59.14H27.1345V62.668C27.1345 63.324 27.2825 63.824 27.5785 64.168C27.8825 64.504 28.3265 64.672 28.9105 64.672C29.5425 64.672 30.0425 64.492 30.4105 64.132C30.7865 63.764 30.9745 63.276 30.9745 62.668V59.14H31.9945V65.5H30.9745V64.576C30.7105 64.912 30.3865 65.168 30.0025 65.344C29.6265 65.512 29.2025 65.596 28.7305 65.596ZM33.0786 59.14H34.0986V60.088C34.5466 59.392 35.1906 59.044 36.0306 59.044C36.2786 59.044 36.5466 59.08 36.8346 59.152V60.076C36.5786 60.012 36.3506 59.98 36.1506 59.98C35.7586 59.98 35.4066 60.068 35.0946 60.244C34.7826 60.42 34.5386 60.664 34.3626 60.976C34.1866 61.288 34.0986 61.644 34.0986 62.044V65.5H33.0786V59.14ZM39.5747 57.1H42.7667C43.4387 57.1 43.9827 57.3 44.3987 57.7C44.8147 58.092 45.0227 58.608 45.0227 59.248C45.0227 59.624 44.9507 59.964 44.8067 60.268C44.6627 60.572 44.4587 60.824 44.1947 61.024C44.5707 61.208 44.8667 61.484 45.0827 61.852C45.3067 62.22 45.4187 62.636 45.4187 63.1C45.4187 63.572 45.3147 63.992 45.1067 64.36C44.9067 64.72 44.6187 65 44.2427 65.2C43.8747 65.4 43.4507 65.5 42.9707 65.5H39.5747V57.1ZM42.8747 64.468C43.3147 64.468 43.6627 64.344 43.9187 64.096C44.1827 63.848 44.3147 63.5 44.3147 63.052C44.3147 62.612 44.1867 62.264 43.9307 62.008C43.6747 61.752 43.3267 61.624 42.8867 61.624H40.6427V64.468H42.8747ZM42.7307 60.628C43.1067 60.628 43.3987 60.516 43.6067 60.292C43.8227 60.068 43.9307 59.76 43.9307 59.368C43.9307 58.984 43.8187 58.684 43.5947 58.468C43.3707 58.244 43.0707 58.132 42.6947 58.132H40.6427V60.628H42.7307ZM48.5741 65.596C47.7421 65.596 47.0981 65.34 46.6421 64.828C46.1861 64.316 45.9581 63.596 45.9581 62.668V59.14H46.9781V62.668C46.9781 63.324 47.1261 63.824 47.4221 64.168C47.7261 64.504 48.1701 64.672 48.7541 64.672C49.3861 64.672 49.8861 64.492 50.2541 64.132C50.6301 63.764 50.8181 63.276 50.8181 62.668V59.14H51.8381V65.5H50.8181V64.576C50.5541 64.912 50.2301 65.168 49.8461 65.344C49.4701 65.512 49.0461 65.596 48.5741 65.596ZM55.6342 65.608C55.0182 65.608 54.4662 65.468 53.9782 65.188C53.4982 64.908 53.1222 64.52 52.8502 64.024C52.5782 63.52 52.4422 62.952 52.4422 62.32C52.4422 61.688 52.5782 61.124 52.8502 60.628C53.1222 60.124 53.4982 59.732 53.9782 59.452C54.4662 59.172 55.0182 59.032 55.6342 59.032C56.1302 59.032 56.5822 59.124 56.9902 59.308C57.3982 59.484 57.7462 59.74 58.0342 60.076V57.1H59.0542V65.5H58.0342V64.564C57.7462 64.9 57.3982 65.16 56.9902 65.344C56.5822 65.52 56.1302 65.608 55.6342 65.608ZM53.4862 62.32C53.4862 62.768 53.5822 63.172 53.7742 63.532C53.9662 63.884 54.2342 64.16 54.5782 64.36C54.9302 64.552 55.3222 64.648 55.7542 64.648C56.1942 64.648 56.5862 64.552 56.9302 64.36C57.2822 64.16 57.5542 63.884 57.7462 63.532C57.9462 63.172 58.0462 62.768 58.0462 62.32C58.0462 61.872 57.9462 61.472 57.7462 61.12C57.5542 60.76 57.2822 60.484 56.9302 60.292C56.5862 60.092 56.1942 59.992 55.7542 59.992C55.3222 59.992 54.9302 60.092 54.5782 60.292C54.2342 60.484 53.9662 60.76 53.7742 61.12C53.5822 61.472 53.4862 61.872 53.4862 62.32ZM63.1037 67.492C62.3197 67.492 61.6437 67.32 61.0757 66.976C60.5157 66.64 60.1677 66.152 60.0317 65.512H61.0877C61.1997 65.856 61.4317 66.116 61.7837 66.292C62.1357 66.468 62.5437 66.556 63.0077 66.556C63.6797 66.556 64.2197 66.384 64.6277 66.04C65.0437 65.696 65.2517 65.208 65.2517 64.576V64.18C64.9557 64.5 64.6037 64.752 64.1957 64.936C63.7957 65.112 63.3637 65.2 62.8997 65.2C62.3077 65.2 61.7717 65.068 61.2917 64.804C60.8117 64.532 60.4357 64.164 60.1637 63.7C59.8917 63.228 59.7557 62.704 59.7557 62.128C59.7557 61.552 59.8917 61.028 60.1637 60.556C60.4357 60.084 60.8117 59.712 61.2917 59.44C61.7717 59.168 62.3077 59.032 62.8997 59.032C63.3637 59.032 63.7957 59.124 64.1957 59.308C64.6037 59.484 64.9557 59.732 65.2517 60.052V59.14H66.2717V64.6C66.2717 65.192 66.1317 65.704 65.8517 66.136C65.5797 66.576 65.2037 66.912 64.7237 67.144C64.2437 67.376 63.7037 67.492 63.1037 67.492ZM60.7997 62.128C60.7997 62.536 60.8917 62.904 61.0757 63.232C61.2677 63.552 61.5317 63.808 61.8677 64C62.2117 64.184 62.5997 64.276 63.0317 64.276C63.4637 64.276 63.8477 64.184 64.1837 64C64.5277 63.816 64.7957 63.564 64.9877 63.244C65.1797 62.916 65.2757 62.544 65.2757 62.128C65.2757 61.488 65.0677 60.972 64.6517 60.58C64.2357 60.18 63.6957 59.98 63.0317 59.98C62.5997 59.98 62.2117 60.072 61.8677 60.256C61.5317 60.44 61.2677 60.696 61.0757 61.024C60.8917 61.352 60.7997 61.72 60.7997 62.128ZM70.2276 65.608C69.6036 65.608 69.0436 65.468 68.5476 65.188C68.0516 64.908 67.6636 64.52 67.3836 64.024C67.1036 63.52 66.9636 62.952 66.9636 62.32C66.9636 61.688 67.1036 61.124 67.3836 60.628C67.6636 60.124 68.0516 59.732 68.5476 59.452C69.0436 59.172 69.6036 59.032 70.2276 59.032C70.8916 59.032 71.4756 59.184 71.9796 59.488C72.4916 59.784 72.8836 60.208 73.1556 60.76C73.4276 61.312 73.5436 61.948 73.5036 62.668H68.0316C68.0956 63.26 68.3276 63.74 68.7276 64.108C69.1276 64.468 69.6276 64.648 70.2276 64.648C70.6756 64.648 71.0716 64.556 71.4156 64.372C71.7676 64.188 72.0316 63.928 72.2076 63.592H73.3116C73.0876 64.216 72.6996 64.708 72.1476 65.068C71.6036 65.428 70.9636 65.608 70.2276 65.608ZM72.4356 61.792C72.3236 61.264 72.0676 60.832 71.6676 60.496C71.2676 60.16 70.7876 59.992 70.2276 59.992C69.6676 59.992 69.1916 60.156 68.7996 60.484C68.4076 60.812 68.1596 61.248 68.0556 61.792H72.4356ZM76.6577 65.536C75.9297 65.536 75.3937 65.372 75.0497 65.044C74.7057 64.716 74.5337 64.204 74.5337 63.508V59.992H73.2017V59.14H74.5337V57.64L75.5537 57.532V59.14H77.3057V59.992H75.5537V63.388C75.5537 63.812 75.6457 64.12 75.8297 64.312C76.0217 64.496 76.3377 64.588 76.7777 64.588C76.9697 64.588 77.1737 64.576 77.3897 64.552V65.5C77.1417 65.524 76.8977 65.536 76.6577 65.536ZM80.6416 58.9C80.6416 58.276 80.8136 57.8 81.1576 57.472C81.5016 57.144 82.0216 56.98 82.7176 56.98C82.9176 56.98 83.1776 57 83.4976 57.04V57.868C83.2736 57.844 83.0696 57.832 82.8856 57.832C82.4216 57.832 82.1016 57.916 81.9256 58.084C81.7496 58.252 81.6616 58.536 81.6616 58.936V59.14H83.4376V59.992H81.6616V65.5H80.6416V59.992H79.3456V59.14H80.6416V58.9ZM86.4278 65.608C85.7958 65.608 85.2278 65.468 84.7238 65.188C84.2198 64.9 83.8238 64.508 83.5358 64.012C83.2558 63.516 83.1158 62.952 83.1158 62.32C83.1158 61.688 83.2558 61.124 83.5358 60.628C83.8238 60.132 84.2198 59.744 84.7238 59.464C85.2278 59.176 85.7958 59.032 86.4278 59.032C87.0678 59.032 87.6398 59.172 88.1438 59.452C88.6478 59.732 89.0398 60.124 89.3198 60.628C89.5998 61.124 89.7398 61.688 89.7398 62.32C89.7398 62.952 89.5998 63.52 89.3198 64.024C89.0398 64.52 88.6478 64.908 88.1438 65.188C87.6398 65.468 87.0678 65.608 86.4278 65.608ZM84.1598 62.32C84.1598 62.768 84.2558 63.168 84.4478 63.52C84.6478 63.872 84.9198 64.148 85.2638 64.348C85.6078 64.548 85.9958 64.648 86.4278 64.648C86.8598 64.648 87.2478 64.548 87.5918 64.348C87.9438 64.148 88.2158 63.872 88.4078 63.52C88.6078 63.168 88.7078 62.768 88.7078 62.32C88.7078 61.872 88.6078 61.472 88.4078 61.12C88.2158 60.768 87.9438 60.492 87.5918 60.292C87.2478 60.092 86.8598 59.992 86.4278 59.992C85.9958 59.992 85.6078 60.092 85.2638 60.292C84.9198 60.492 84.6478 60.768 84.4478 61.12C84.2558 61.472 84.1598 61.872 84.1598 62.32ZM90.4405 59.14H91.4605V60.088C91.9085 59.392 92.5525 59.044 93.3925 59.044C93.6405 59.044 93.9085 59.08 94.1965 59.152V60.076C93.9405 60.012 93.7125 59.98 93.5125 59.98C93.1205 59.98 92.7685 60.068 92.4565 60.244C92.1445 60.42 91.9005 60.664 91.7245 60.976C91.5485 61.288 91.4605 61.644 91.4605 62.044V65.5H90.4405V59.14ZM99.4445 65.536C98.7165 65.536 98.1805 65.372 97.8365 65.044C97.4925 64.716 97.3205 64.204 97.3205 63.508V59.992H95.9885V59.14H97.3205V57.64L98.3405 57.532V59.14H100.093V59.992H98.3405V63.388C98.3405 63.812 98.4325 64.12 98.6165 64.312C98.8085 64.496 99.1245 64.588 99.5645 64.588C99.7565 64.588 99.9605 64.576 100.177 64.552V65.5C99.9285 65.524 99.6845 65.536 99.4445 65.536ZM100.744 57.1H101.764V60.076C102.028 59.748 102.352 59.496 102.736 59.32C103.12 59.136 103.536 59.044 103.984 59.044C104.856 59.044 105.524 59.296 105.988 59.8C106.452 60.304 106.684 61.028 106.684 61.972V65.5H105.664V62.008C105.664 61.336 105.508 60.828 105.196 60.484C104.892 60.14 104.444 59.968 103.852 59.968C103.22 59.968 102.712 60.156 102.328 60.532C101.952 60.9 101.764 61.388 101.764 61.996V65.5H100.744V57.1ZM110.537 65.608C109.913 65.608 109.353 65.468 108.857 65.188C108.361 64.908 107.973 64.52 107.693 64.024C107.413 63.52 107.273 62.952 107.273 62.32C107.273 61.688 107.413 61.124 107.693 60.628C107.973 60.124 108.361 59.732 108.857 59.452C109.353 59.172 109.913 59.032 110.537 59.032C111.201 59.032 111.785 59.184 112.289 59.488C112.801 59.784 113.193 60.208 113.465 60.76C113.737 61.312 113.853 61.948 113.813 62.668H108.341C108.405 63.26 108.637 63.74 109.037 64.108C109.437 64.468 109.937 64.648 110.537 64.648C110.985 64.648 111.381 64.556 111.725 64.372C112.077 64.188 112.341 63.928 112.517 63.592H113.621C113.397 64.216 113.009 64.708 112.457 65.068C111.913 65.428 111.273 65.608 110.537 65.608ZM112.745 61.792C112.633 61.264 112.377 60.832 111.977 60.496C111.577 60.16 111.097 59.992 110.537 59.992C109.977 59.992 109.501 60.156 109.109 60.484C108.717 60.812 108.469 61.248 108.365 61.792H112.745ZM120.081 65.608C119.585 65.608 119.133 65.52 118.725 65.344C118.317 65.16 117.969 64.9 117.681 64.564V67.348H116.661V59.14H117.681V60.076C117.969 59.74 118.317 59.484 118.725 59.308C119.133 59.124 119.585 59.032 120.081 59.032C120.689 59.032 121.237 59.176 121.725 59.464C122.213 59.744 122.593 60.132 122.865 60.628C123.137 61.124 123.273 61.688 123.273 62.32C123.273 62.952 123.137 63.516 122.865 64.012C122.593 64.508 122.213 64.9 121.725 65.188C121.237 65.468 120.689 65.608 120.081 65.608ZM117.657 62.32C117.657 62.768 117.753 63.172 117.945 63.532C118.145 63.884 118.417 64.16 118.761 64.36C119.113 64.552 119.509 64.648 119.949 64.648C120.389 64.648 120.781 64.552 121.125 64.36C121.469 64.16 121.737 63.884 121.929 63.532C122.129 63.172 122.229 62.768 122.229 62.32C122.229 61.872 122.129 61.472 121.929 61.12C121.737 60.76 121.469 60.484 121.125 60.292C120.781 60.092 120.389 59.992 119.949 59.992C119.509 59.992 119.113 60.092 118.761 60.292C118.417 60.484 118.145 60.76 117.945 61.12C117.753 61.472 117.657 61.872 117.657 62.32ZM123.974 59.14H124.994V60.088C125.442 59.392 126.086 59.044 126.926 59.044C127.174 59.044 127.442 59.08 127.73 59.152V60.076C127.474 60.012 127.246 59.98 127.046 59.98C126.654 59.98 126.302 60.068 125.99 60.244C125.678 60.42 125.434 60.664 125.258 60.976C125.082 61.288 124.994 61.644 124.994 62.044V65.5H123.974V59.14ZM130.757 65.608C130.125 65.608 129.557 65.468 129.053 65.188C128.549 64.9 128.153 64.508 127.865 64.012C127.585 63.516 127.445 62.952 127.445 62.32C127.445 61.688 127.585 61.124 127.865 60.628C128.153 60.132 128.549 59.744 129.053 59.464C129.557 59.176 130.125 59.032 130.757 59.032C131.397 59.032 131.969 59.172 132.473 59.452C132.977 59.732 133.369 60.124 133.649 60.628C133.929 61.124 134.069 61.688 134.069 62.32C134.069 62.952 133.929 63.52 133.649 64.024C133.369 64.52 132.977 64.908 132.473 65.188C131.969 65.468 131.397 65.608 130.757 65.608ZM128.489 62.32C128.489 62.768 128.585 63.168 128.777 63.52C128.977 63.872 129.249 64.148 129.593 64.348C129.937 64.548 130.325 64.648 130.757 64.648C131.189 64.648 131.577 64.548 131.921 64.348C132.273 64.148 132.545 63.872 132.737 63.52C132.937 63.168 133.037 62.768 133.037 62.32C133.037 61.872 132.937 61.472 132.737 61.12C132.545 60.768 132.273 60.492 131.921 60.292C131.577 60.092 131.189 59.992 130.757 59.992C130.325 59.992 129.937 60.092 129.593 60.292C129.249 60.492 128.977 60.768 128.777 61.12C128.585 61.472 128.489 61.872 128.489 62.32ZM133.797 67.48C133.597 67.48 133.385 67.468 133.161 67.444V66.508C133.313 66.532 133.465 66.544 133.617 66.544C134.033 66.544 134.329 66.452 134.505 66.268C134.681 66.092 134.769 65.796 134.769 65.38V59.14H135.789V65.5C135.789 66.18 135.625 66.68 135.297 67C134.977 67.32 134.477 67.48 133.797 67.48ZM134.493 57.532C134.493 57.3 134.569 57.112 134.721 56.968C134.873 56.816 135.061 56.74 135.285 56.74C135.517 56.74 135.705 56.816 135.849 56.968C136.001 57.112 136.077 57.3 136.077 57.532C136.077 57.74 136.001 57.92 135.849 58.072C135.697 58.216 135.509 58.288 135.285 58.288C135.061 58.288 134.873 58.216 134.721 58.072C134.569 57.92 134.493 57.74 134.493 57.532ZM139.746 65.608C139.122 65.608 138.562 65.468 138.066 65.188C137.57 64.908 137.182 64.52 136.902 64.024C136.622 63.52 136.482 62.952 136.482 62.32C136.482 61.688 136.622 61.124 136.902 60.628C137.182 60.124 137.57 59.732 138.066 59.452C138.562 59.172 139.122 59.032 139.746 59.032C140.41 59.032 140.994 59.184 141.498 59.488C142.01 59.784 142.402 60.208 142.674 60.76C142.946 61.312 143.062 61.948 143.022 62.668H137.55C137.614 63.26 137.846 63.74 138.246 64.108C138.646 64.468 139.146 64.648 139.746 64.648C140.194 64.648 140.59 64.556 140.934 64.372C141.286 64.188 141.55 63.928 141.726 63.592H142.83C142.606 64.216 142.218 64.708 141.666 65.068C141.122 65.428 140.482 65.608 139.746 65.608ZM141.954 61.792C141.842 61.264 141.586 60.832 141.186 60.496C140.786 60.16 140.306 59.992 139.746 59.992C139.186 59.992 138.71 60.156 138.318 60.484C137.926 60.812 137.678 61.248 137.574 61.792H141.954ZM146.461 65.608C145.829 65.608 145.265 65.468 144.769 65.188C144.281 64.908 143.897 64.52 143.617 64.024C143.337 63.528 143.197 62.964 143.197 62.332C143.197 61.692 143.333 61.124 143.605 60.628C143.885 60.124 144.273 59.732 144.769 59.452C145.265 59.172 145.829 59.032 146.461 59.032C147.245 59.032 147.917 59.244 148.477 59.668C149.037 60.092 149.409 60.672 149.593 61.408H148.573C148.413 60.96 148.149 60.612 147.781 60.364C147.413 60.116 146.981 59.992 146.485 59.992C146.045 59.992 145.653 60.092 145.309 60.292C144.973 60.484 144.709 60.76 144.517 61.12C144.333 61.472 144.241 61.876 144.241 62.332C144.241 62.788 144.333 63.192 144.517 63.544C144.709 63.896 144.973 64.168 145.309 64.36C145.653 64.552 146.045 64.648 146.485 64.648C146.997 64.648 147.433 64.524 147.793 64.276C148.161 64.028 148.421 63.676 148.573 63.22H149.617C149.441 63.956 149.069 64.54 148.501 64.972C147.933 65.396 147.253 65.608 146.461 65.608ZM152.692 65.536C151.964 65.536 151.428 65.372 151.084 65.044C150.74 64.716 150.568 64.204 150.568 63.508V59.992H149.236V59.14H150.568V57.64L151.588 57.532V59.14H153.34V59.992H151.588V63.388C151.588 63.812 151.68 64.12 151.864 64.312C152.056 64.496 152.372 64.588 152.812 64.588C153.004 64.588 153.208 64.576 153.424 64.552V65.5C153.176 65.524 152.932 65.536 152.692 65.536Z" fill="#FCFCD8" fill-opacity="0.5"/>
</g>
<g filter="url(#filter1_b_6150_111608)">
<rect y="86" width="239" height="59" rx="16" fill="black" fill-opacity="0.27"/>
</g>
<path d="M27.6107 113.292C27.5707 113.642 27.4757 113.957 27.3257 114.237C27.1857 114.517 27.0057 114.767 26.7857 114.987C26.5657 115.197 26.3157 115.377 26.0357 115.527C25.7557 115.667 25.4657 115.777 25.1657 115.857L28.7507 120.582H27.0407L24.3857 117.057C24.0957 116.667 23.8307 116.387 23.5907 116.217C23.3607 116.037 23.1157 115.947 22.8557 115.947V114.852H23.7407C24.0507 114.852 24.3457 114.832 24.6257 114.792C24.9157 114.742 25.1757 114.662 25.4057 114.552C25.6357 114.432 25.8257 114.272 25.9757 114.072C26.1357 113.872 26.2307 113.612 26.2607 113.292H22.5857L23.0357 112.407H26.2007C26.1107 111.997 25.9157 111.667 25.6157 111.417C25.3157 111.167 24.9107 111.032 24.4007 111.012H22.5857L23.0357 110.127H29.6207L29.1707 111.012H26.9807C27.3207 111.392 27.5257 111.857 27.5957 112.407H29.6207L29.1707 113.292H27.6107ZM35.6934 116.502L32.9934 112.827H34.6284L36.4884 115.542L38.4234 112.827H39.9534L37.2834 116.397L40.2834 120.582H38.6484L36.4884 117.372L34.3284 120.582H32.7834L35.6934 116.502ZM42.7071 116.502L40.0071 112.827H41.6421L43.5021 115.542L45.4371 112.827H46.9671L44.2971 116.397L47.2971 120.582H45.6621L43.5021 117.372L41.3421 120.582H39.7971L42.7071 116.502ZM49.7208 116.502L47.0208 112.827H48.6558L50.5158 115.542L52.4508 112.827H53.9808L51.3108 116.397L54.3108 120.582H52.6758L50.5158 117.372L48.3558 120.582H46.8108L49.7208 116.502ZM56.7345 116.502L54.0345 112.827H55.6695L57.5295 115.542L59.4645 112.827H60.9945L58.3245 116.397L61.3245 120.582H59.6895L57.5295 117.372L55.3695 120.582H53.8245L56.7345 116.502ZM63.7481 116.502L61.0481 112.827H62.6831L64.5431 115.542L66.4781 112.827H68.0081L65.3381 116.397L68.3381 120.582H66.7031L64.5431 117.372L62.3831 120.582H60.8381L63.7481 116.502Z" fill="#FCFCD8" fill-opacity="0.5"/>
<path d="M106.56 107.72H108.46V120.4H116.02V122H106.56V107.72ZM118.033 116.84C118.033 117.467 118.113 118.027 118.273 118.52C118.447 119 118.68 119.407 118.973 119.74C119.267 120.06 119.607 120.307 119.993 120.48C120.393 120.653 120.813 120.74 121.253 120.74C121.693 120.74 122.107 120.653 122.493 120.48C122.893 120.307 123.24 120.06 123.533 119.74C123.827 119.407 124.053 119 124.213 118.52C124.387 118.027 124.473 117.467 124.473 116.84C124.473 116.213 124.387 115.66 124.213 115.18C124.053 114.687 123.827 114.273 123.533 113.94C123.24 113.607 122.893 113.353 122.493 113.18C122.107 113.007 121.693 112.92 121.253 112.92C120.813 112.92 120.393 113.007 119.993 113.18C119.607 113.353 119.267 113.607 118.973 113.94C118.68 114.273 118.447 114.687 118.273 115.18C118.113 115.66 118.033 116.213 118.033 116.84ZM116.233 116.84C116.233 116.08 116.34 115.373 116.553 114.72C116.767 114.053 117.087 113.48 117.513 113C117.94 112.507 118.467 112.12 119.093 111.84C119.72 111.56 120.44 111.42 121.253 111.42C122.08 111.42 122.8 111.56 123.413 111.84C124.04 112.12 124.567 112.507 124.993 113C125.42 113.48 125.74 114.053 125.953 114.72C126.167 115.373 126.273 116.08 126.273 116.84C126.273 117.6 126.167 118.307 125.953 118.96C125.74 119.613 125.42 120.187 124.993 120.68C124.567 121.16 124.04 121.54 123.413 121.82C122.8 122.087 122.08 122.22 121.253 122.22C120.44 122.22 119.72 122.087 119.093 121.82C118.467 121.54 117.94 121.16 117.513 120.68C117.087 120.187 116.767 119.613 116.553 118.96C116.34 118.307 116.233 117.6 116.233 116.84ZM128.918 116.84C128.918 117.467 128.998 118.027 129.158 118.52C129.331 119 129.564 119.407 129.858 119.74C130.151 120.06 130.491 120.307 130.878 120.48C131.278 120.653 131.698 120.74 132.138 120.74C132.578 120.74 132.991 120.653 133.378 120.48C133.778 120.307 134.124 120.06 134.418 119.74C134.711 119.407 134.938 119 135.098 118.52C135.271 118.027 135.358 117.467 135.358 116.84C135.358 116.213 135.271 115.66 135.098 115.18C134.938 114.687 134.711 114.273 134.418 113.94C134.124 113.607 133.778 113.353 133.378 113.18C132.991 113.007 132.578 112.92 132.138 112.92C131.698 112.92 131.278 113.007 130.878 113.18C130.491 113.353 130.151 113.607 129.858 113.94C129.564 114.273 129.331 114.687 129.158 115.18C128.998 115.66 128.918 116.213 128.918 116.84ZM127.118 116.84C127.118 116.08 127.224 115.373 127.438 114.72C127.651 114.053 127.971 113.48 128.398 113C128.824 112.507 129.351 112.12 129.978 111.84C130.604 111.56 131.324 111.42 132.138 111.42C132.964 111.42 133.684 111.56 134.298 111.84C134.924 112.12 135.451 112.507 135.878 113C136.304 113.48 136.624 114.053 136.838 114.72C137.051 115.373 137.158 116.08 137.158 116.84C137.158 117.6 137.051 118.307 136.838 118.96C136.624 119.613 136.304 120.187 135.878 120.68C135.451 121.16 134.924 121.54 134.298 121.82C133.684 122.087 132.964 122.22 132.138 122.22C131.324 122.22 130.604 122.087 129.978 121.82C129.351 121.54 128.824 121.16 128.398 120.68C127.971 120.187 127.651 119.613 127.438 118.96C127.224 118.307 127.118 117.6 127.118 116.84ZM138.662 107.72H140.362V116.18L145.082 111.66H147.362L143.262 115.42L147.662 122H145.502L141.962 116.6L140.362 118.08V122H138.662V107.72ZM149.373 118.74C149.386 119.113 149.473 119.433 149.633 119.7C149.793 119.953 150 120.16 150.253 120.32C150.52 120.467 150.813 120.573 151.133 120.64C151.466 120.707 151.806 120.74 152.153 120.74C152.42 120.74 152.7 120.72 152.993 120.68C153.286 120.64 153.553 120.567 153.793 120.46C154.046 120.353 154.253 120.2 154.413 120C154.573 119.787 154.653 119.52 154.653 119.2C154.653 118.76 154.486 118.427 154.153 118.2C153.82 117.973 153.4 117.793 152.893 117.66C152.4 117.513 151.86 117.387 151.273 117.28C150.686 117.16 150.14 117 149.633 116.8C149.14 116.587 148.726 116.293 148.393 115.92C148.06 115.547 147.893 115.027 147.893 114.36C147.893 113.84 148.006 113.393 148.233 113.02C148.473 112.647 148.773 112.347 149.133 112.12C149.506 111.88 149.92 111.707 150.373 111.6C150.84 111.48 151.3 111.42 151.753 111.42C152.34 111.42 152.88 111.473 153.373 111.58C153.866 111.673 154.3 111.847 154.673 112.1C155.06 112.34 155.366 112.673 155.593 113.1C155.82 113.513 155.953 114.033 155.993 114.66H154.293C154.266 114.327 154.18 114.053 154.033 113.84C153.886 113.613 153.7 113.433 153.473 113.3C153.246 113.167 152.993 113.073 152.713 113.02C152.446 112.953 152.173 112.92 151.893 112.92C151.64 112.92 151.38 112.94 151.113 112.98C150.86 113.02 150.626 113.093 150.413 113.2C150.2 113.293 150.026 113.427 149.893 113.6C149.76 113.76 149.693 113.973 149.693 114.24C149.693 114.533 149.793 114.78 149.993 114.98C150.206 115.167 150.473 115.327 150.793 115.46C151.113 115.58 151.473 115.687 151.873 115.78C152.273 115.86 152.673 115.947 153.073 116.04C153.5 116.133 153.913 116.247 154.313 116.38C154.726 116.513 155.086 116.693 155.393 116.92C155.713 117.133 155.966 117.407 156.153 117.74C156.353 118.073 156.453 118.487 156.453 118.98C156.453 119.607 156.32 120.127 156.053 120.54C155.8 120.953 155.46 121.287 155.033 121.54C154.62 121.793 154.146 121.967 153.613 122.06C153.093 122.167 152.573 122.22 152.053 122.22C151.48 122.22 150.933 122.16 150.413 122.04C149.893 121.92 149.433 121.727 149.033 121.46C148.633 121.18 148.313 120.82 148.073 120.38C147.833 119.927 147.7 119.38 147.673 118.74H149.373ZM173.66 120.22C173.1 120.967 172.406 121.507 171.58 121.84C170.753 122.16 169.92 122.32 169.08 122.32C168.013 122.32 167.06 122.127 166.22 121.74C165.38 121.34 164.666 120.807 164.08 120.14C163.493 119.473 163.046 118.707 162.74 117.84C162.433 116.973 162.28 116.073 162.28 115.14C162.28 114.1 162.42 113.113 162.7 112.18C162.993 111.233 163.42 110.407 163.98 109.7C164.553 108.993 165.26 108.433 166.1 108.02C166.953 107.593 167.946 107.38 169.08 107.38C169.853 107.38 170.58 107.473 171.26 107.66C171.953 107.833 172.566 108.113 173.1 108.5C173.646 108.887 174.1 109.38 174.46 109.98C174.833 110.567 175.086 111.28 175.22 112.12H173.32C173.226 111.573 173.053 111.107 172.8 110.72C172.546 110.32 172.233 109.993 171.86 109.74C171.486 109.487 171.06 109.3 170.58 109.18C170.113 109.047 169.613 108.98 169.08 108.98C168.213 108.98 167.466 109.153 166.84 109.5C166.226 109.847 165.72 110.307 165.32 110.88C164.933 111.44 164.646 112.087 164.46 112.82C164.273 113.54 164.18 114.28 164.18 115.04C164.18 115.787 164.286 116.507 164.5 117.2C164.713 117.88 165.026 118.487 165.44 119.02C165.853 119.54 166.36 119.96 166.96 120.28C167.573 120.587 168.28 120.74 169.08 120.74C169.826 120.74 170.486 120.62 171.06 120.38C171.633 120.14 172.113 119.813 172.5 119.4C172.9 118.973 173.2 118.48 173.4 117.92C173.6 117.347 173.686 116.733 173.66 116.08H169.1V114.48H175.36V122H174.16L173.66 120.22ZM178.515 116.84C178.515 117.467 178.595 118.027 178.755 118.52C178.929 119 179.162 119.407 179.455 119.74C179.749 120.06 180.089 120.307 180.475 120.48C180.875 120.653 181.295 120.74 181.735 120.74C182.175 120.74 182.589 120.653 182.975 120.48C183.375 120.307 183.722 120.06 184.015 119.74C184.309 119.407 184.535 119 184.695 118.52C184.869 118.027 184.955 117.467 184.955 116.84C184.955 116.213 184.869 115.66 184.695 115.18C184.535 114.687 184.309 114.273 184.015 113.94C183.722 113.607 183.375 113.353 182.975 113.18C182.589 113.007 182.175 112.92 181.735 112.92C181.295 112.92 180.875 113.007 180.475 113.18C180.089 113.353 179.749 113.607 179.455 113.94C179.162 114.273 178.929 114.687 178.755 115.18C178.595 115.66 178.515 116.213 178.515 116.84ZM176.715 116.84C176.715 116.08 176.822 115.373 177.035 114.72C177.249 114.053 177.569 113.48 177.995 113C178.422 112.507 178.949 112.12 179.575 111.84C180.202 111.56 180.922 111.42 181.735 111.42C182.562 111.42 183.282 111.56 183.895 111.84C184.522 112.12 185.049 112.507 185.475 113C185.902 113.48 186.222 114.053 186.435 114.72C186.649 115.373 186.755 116.08 186.755 116.84C186.755 117.6 186.649 118.307 186.435 118.96C186.222 119.613 185.902 120.187 185.475 120.68C185.049 121.16 184.522 121.54 183.895 121.82C183.282 122.087 182.562 122.22 181.735 122.22C180.922 122.22 180.202 122.087 179.575 121.82C178.949 121.54 178.422 121.16 177.995 120.68C177.569 120.187 177.249 119.613 177.035 118.96C176.822 118.307 176.715 117.6 176.715 116.84ZM189.4 116.84C189.4 117.467 189.48 118.027 189.64 118.52C189.813 119 190.046 119.407 190.34 119.74C190.633 120.06 190.973 120.307 191.36 120.48C191.76 120.653 192.18 120.74 192.62 120.74C193.06 120.74 193.473 120.653 193.86 120.48C194.26 120.307 194.606 120.06 194.9 119.74C195.193 119.407 195.42 119 195.58 118.52C195.753 118.027 195.84 117.467 195.84 116.84C195.84 116.213 195.753 115.66 195.58 115.18C195.42 114.687 195.193 114.273 194.9 113.94C194.606 113.607 194.26 113.353 193.86 113.18C193.473 113.007 193.06 112.92 192.62 112.92C192.18 112.92 191.76 113.007 191.36 113.18C190.973 113.353 190.633 113.607 190.34 113.94C190.046 114.273 189.813 114.687 189.64 115.18C189.48 115.66 189.4 116.213 189.4 116.84ZM187.6 116.84C187.6 116.08 187.706 115.373 187.92 114.72C188.133 114.053 188.453 113.48 188.88 113C189.306 112.507 189.833 112.12 190.46 111.84C191.086 111.56 191.806 111.42 192.62 111.42C193.446 111.42 194.166 111.56 194.78 111.84C195.406 112.12 195.933 112.507 196.36 113C196.786 113.48 197.106 114.053 197.32 114.72C197.533 115.373 197.64 116.08 197.64 116.84C197.64 117.6 197.533 118.307 197.32 118.96C197.106 119.613 196.786 120.187 196.36 120.68C195.933 121.16 195.406 121.54 194.78 121.82C194.166 122.087 193.446 122.22 192.62 122.22C191.806 122.22 191.086 122.087 190.46 121.82C189.833 121.54 189.306 121.16 188.88 120.68C188.453 120.187 188.133 119.613 187.92 118.96C187.706 118.307 187.6 117.6 187.6 116.84ZM200.284 116.92C200.284 117.4 200.344 117.873 200.464 118.34C200.597 118.793 200.791 119.2 201.044 119.56C201.311 119.92 201.644 120.207 202.044 120.42C202.457 120.633 202.937 120.74 203.484 120.74C204.057 120.74 204.544 120.627 204.944 120.4C205.344 120.173 205.671 119.88 205.924 119.52C206.177 119.147 206.357 118.727 206.464 118.26C206.584 117.793 206.644 117.32 206.644 116.84C206.644 116.333 206.584 115.847 206.464 115.38C206.344 114.9 206.151 114.48 205.884 114.12C205.631 113.76 205.297 113.473 204.884 113.26C204.471 113.033 203.971 112.92 203.384 112.92C202.811 112.92 202.324 113.033 201.924 113.26C201.524 113.487 201.204 113.787 200.964 114.16C200.724 114.533 200.551 114.96 200.444 115.44C200.337 115.92 200.284 116.413 200.284 116.92ZM208.284 122H206.584V120.6H206.544C206.264 121.173 205.824 121.587 205.224 121.84C204.624 122.093 203.964 122.22 203.244 122.22C202.444 122.22 201.744 122.073 201.144 121.78C200.557 121.487 200.064 121.093 199.664 120.6C199.277 120.107 198.984 119.533 198.784 118.88C198.584 118.227 198.484 117.533 198.484 116.8C198.484 116.067 198.577 115.373 198.764 114.72C198.964 114.067 199.257 113.5 199.644 113.02C200.044 112.527 200.537 112.14 201.124 111.86C201.724 111.567 202.417 111.42 203.204 111.42C203.471 111.42 203.757 111.447 204.064 111.5C204.371 111.553 204.677 111.647 204.984 111.78C205.291 111.9 205.577 112.067 205.844 112.28C206.124 112.48 206.357 112.733 206.544 113.04H206.584V107.72H208.284V122ZM215.466 119.78H217.686V122H215.466V119.78ZM217.526 112.12L217.026 118.34H216.126L215.626 112.12V107.72H217.526V112.12Z" fill="url(#paint0_linear_6150_111608)"/>
<g filter="url(#filter2_b_6150_111608)">
<rect x="187" y="159" width="108" height="32" rx="8" fill="#1B1B1B" fill-opacity="0.64"/>
<rect x="187.5" y="159.5" width="107" height="31" rx="7.5" stroke="#FCFCD8" stroke-opacity="0.06"/>
<path d="M202.152 171.1H203.232V178.456H207.252V179.5H202.152V171.1ZM210.195 179.608C209.579 179.608 209.027 179.468 208.539 179.188C208.059 178.908 207.683 178.52 207.411 178.024C207.139 177.52 207.003 176.952 207.003 176.32C207.003 175.688 207.139 175.124 207.411 174.628C207.683 174.124 208.059 173.732 208.539 173.452C209.027 173.172 209.579 173.032 210.195 173.032C210.675 173.032 211.119 173.12 211.527 173.296C211.935 173.472 212.283 173.72 212.571 174.04V173.14H213.591V179.5H212.571V178.6C212.283 178.92 211.935 179.168 211.527 179.344C211.119 179.52 210.675 179.608 210.195 179.608ZM208.047 176.32C208.047 176.768 208.143 177.172 208.335 177.532C208.527 177.884 208.795 178.16 209.139 178.36C209.491 178.552 209.883 178.648 210.315 178.648C210.747 178.648 211.135 178.552 211.479 178.36C211.831 178.16 212.103 177.884 212.295 177.532C212.495 177.172 212.595 176.768 212.595 176.32C212.595 175.872 212.495 175.472 212.295 175.12C212.103 174.76 211.831 174.484 211.479 174.292C211.135 174.092 210.747 173.992 210.315 173.992C209.883 173.992 209.491 174.092 209.139 174.292C208.795 174.484 208.527 174.76 208.335 175.12C208.143 175.472 208.047 175.872 208.047 176.32ZM217.281 179.596C216.449 179.596 215.805 179.34 215.349 178.828C214.893 178.316 214.665 177.596 214.665 176.668V173.14H215.685V176.668C215.685 177.324 215.833 177.824 216.129 178.168C216.433 178.504 216.877 178.672 217.461 178.672C218.093 178.672 218.593 178.492 218.961 178.132C219.337 177.764 219.525 177.276 219.525 176.668V173.14H220.545V179.5H219.525V178.576C219.261 178.912 218.937 179.168 218.553 179.344C218.177 179.512 217.753 179.596 217.281 179.596ZM221.629 173.14H222.649V174.076C222.913 173.748 223.237 173.496 223.621 173.32C224.005 173.136 224.437 173.044 224.917 173.044C225.757 173.044 226.409 173.3 226.873 173.812C227.337 174.316 227.569 175.036 227.569 175.972V179.5H226.549V176.008C226.549 175.336 226.393 174.828 226.081 174.484C225.777 174.14 225.329 173.968 224.737 173.968C224.105 173.968 223.597 174.156 223.213 174.532C222.837 174.9 222.649 175.388 222.649 175.996V179.5H221.629V173.14ZM231.422 179.608C230.79 179.608 230.226 179.468 229.73 179.188C229.242 178.908 228.858 178.52 228.578 178.024C228.298 177.528 228.158 176.964 228.158 176.332C228.158 175.692 228.294 175.124 228.566 174.628C228.846 174.124 229.234 173.732 229.73 173.452C230.226 173.172 230.79 173.032 231.422 173.032C232.206 173.032 232.878 173.244 233.438 173.668C233.998 174.092 234.37 174.672 234.554 175.408H233.534C233.374 174.96 233.11 174.612 232.742 174.364C232.374 174.116 231.942 173.992 231.446 173.992C231.006 173.992 230.614 174.092 230.27 174.292C229.934 174.484 229.67 174.76 229.478 175.12C229.294 175.472 229.202 175.876 229.202 176.332C229.202 176.788 229.294 177.192 229.478 177.544C229.67 177.896 229.934 178.168 230.27 178.36C230.614 178.552 231.006 178.648 231.446 178.648C231.958 178.648 232.394 178.524 232.754 178.276C233.122 178.028 233.382 177.676 233.534 177.22H234.578C234.402 177.956 234.03 178.54 233.462 178.972C232.894 179.396 232.214 179.608 231.422 179.608ZM235.155 171.1H236.175V174.076C236.439 173.748 236.763 173.496 237.147 173.32C237.531 173.136 237.947 173.044 238.395 173.044C239.267 173.044 239.935 173.296 240.399 173.8C240.863 174.304 241.095 175.028 241.095 175.972V179.5H240.075V176.008C240.075 175.336 239.919 174.828 239.607 174.484C239.303 174.14 238.855 173.968 238.263 173.968C237.631 173.968 237.123 174.156 236.739 174.532C236.363 174.9 236.175 175.388 236.175 175.996V179.5H235.155V171.1ZM244.44 171.1H247.476C248.02 171.1 248.496 171.22 248.904 171.46C249.32 171.692 249.64 172.02 249.864 172.444C250.096 172.868 250.212 173.356 250.212 173.908C250.212 174.46 250.096 174.948 249.864 175.372C249.64 175.796 249.32 176.124 248.904 176.356C248.496 176.588 248.02 176.704 247.476 176.704H245.52V179.5H244.44V171.1ZM247.368 175.696C247.904 175.696 248.328 175.536 248.64 175.216C248.96 174.888 249.12 174.452 249.12 173.908C249.12 173.364 248.96 172.932 248.64 172.612C248.328 172.284 247.904 172.12 247.368 172.12H245.52V175.696H247.368ZM250.591 173.14H251.611V174.088C252.059 173.392 252.703 173.044 253.543 173.044C253.791 173.044 254.059 173.08 254.347 173.152V174.076C254.091 174.012 253.863 173.98 253.663 173.98C253.271 173.98 252.919 174.068 252.607 174.244C252.295 174.42 252.051 174.664 251.875 174.976C251.699 175.288 251.611 175.644 251.611 176.044V179.5H250.591V173.14ZM257.373 179.608C256.741 179.608 256.173 179.468 255.669 179.188C255.165 178.9 254.769 178.508 254.481 178.012C254.201 177.516 254.061 176.952 254.061 176.32C254.061 175.688 254.201 175.124 254.481 174.628C254.769 174.132 255.165 173.744 255.669 173.464C256.173 173.176 256.741 173.032 257.373 173.032C258.013 173.032 258.585 173.172 259.089 173.452C259.593 173.732 259.985 174.124 260.265 174.628C260.545 175.124 260.685 175.688 260.685 176.32C260.685 176.952 260.545 177.52 260.265 178.024C259.985 178.52 259.593 178.908 259.089 179.188C258.585 179.468 258.013 179.608 257.373 179.608ZM255.105 176.32C255.105 176.768 255.201 177.168 255.393 177.52C255.593 177.872 255.865 178.148 256.209 178.348C256.553 178.548 256.941 178.648 257.373 178.648C257.805 178.648 258.193 178.548 258.537 178.348C258.889 178.148 259.161 177.872 259.353 177.52C259.553 177.168 259.653 176.768 259.653 176.32C259.653 175.872 259.553 175.472 259.353 175.12C259.161 174.768 258.889 174.492 258.537 174.292C258.193 174.092 257.805 173.992 257.373 173.992C256.941 173.992 256.553 174.092 256.209 174.292C255.865 174.492 255.593 174.768 255.393 175.12C255.201 175.472 255.105 175.872 255.105 176.32ZM260.414 181.48C260.214 181.48 260.002 181.468 259.778 181.444V180.508C259.93 180.532 260.082 180.544 260.234 180.544C260.65 180.544 260.946 180.452 261.122 180.268C261.298 180.092 261.386 179.796 261.386 179.38V173.14H262.406V179.5C262.406 180.18 262.242 180.68 261.914 181C261.594 181.32 261.094 181.48 260.414 181.48ZM261.11 171.532C261.11 171.3 261.186 171.112 261.338 170.968C261.49 170.816 261.678 170.74 261.902 170.74C262.134 170.74 262.322 170.816 262.466 170.968C262.618 171.112 262.694 171.3 262.694 171.532C262.694 171.74 262.618 171.92 262.466 172.072C262.314 172.216 262.126 172.288 261.902 172.288C261.678 172.288 261.49 172.216 261.338 172.072C261.186 171.92 261.11 171.74 261.11 171.532ZM266.362 179.608C265.738 179.608 265.178 179.468 264.682 179.188C264.186 178.908 263.798 178.52 263.518 178.024C263.238 177.52 263.098 176.952 263.098 176.32C263.098 175.688 263.238 175.124 263.518 174.628C263.798 174.124 264.186 173.732 264.682 173.452C265.178 173.172 265.738 173.032 266.362 173.032C267.026 173.032 267.61 173.184 268.114 173.488C268.626 173.784 269.018 174.208 269.29 174.76C269.562 175.312 269.678 175.948 269.638 176.668H264.166C264.23 177.26 264.462 177.74 264.862 178.108C265.262 178.468 265.762 178.648 266.362 178.648C266.81 178.648 267.206 178.556 267.55 178.372C267.902 178.188 268.166 177.928 268.342 177.592H269.446C269.222 178.216 268.834 178.708 268.282 179.068C267.738 179.428 267.098 179.608 266.362 179.608ZM268.57 175.792C268.458 175.264 268.202 174.832 267.802 174.496C267.402 174.16 266.922 173.992 266.362 173.992C265.802 173.992 265.326 174.156 264.934 174.484C264.542 174.812 264.294 175.248 264.19 175.792H268.57ZM273.078 179.608C272.446 179.608 271.882 179.468 271.386 179.188C270.898 178.908 270.514 178.52 270.234 178.024C269.954 177.528 269.814 176.964 269.814 176.332C269.814 175.692 269.95 175.124 270.222 174.628C270.502 174.124 270.89 173.732 271.386 173.452C271.882 173.172 272.446 173.032 273.078 173.032C273.862 173.032 274.534 173.244 275.094 173.668C275.654 174.092 276.026 174.672 276.21 175.408H275.19C275.03 174.96 274.766 174.612 274.398 174.364C274.03 174.116 273.598 173.992 273.102 173.992C272.662 173.992 272.27 174.092 271.926 174.292C271.59 174.484 271.326 174.76 271.134 175.12C270.95 175.472 270.858 175.876 270.858 176.332C270.858 176.788 270.95 177.192 271.134 177.544C271.326 177.896 271.59 178.168 271.926 178.36C272.27 178.552 272.662 178.648 273.102 178.648C273.614 178.648 274.05 178.524 274.41 178.276C274.778 178.028 275.038 177.676 275.19 177.22H276.234C276.058 177.956 275.686 178.54 275.118 178.972C274.55 179.396 273.87 179.608 273.078 179.608ZM279.309 179.536C278.581 179.536 278.045 179.372 277.701 179.044C277.357 178.716 277.185 178.204 277.185 177.508V173.992H275.853V173.14H277.185V171.64L278.205 171.532V173.14H279.957V173.992H278.205V177.388C278.205 177.812 278.297 178.12 278.481 178.312C278.673 178.496 278.989 178.588 279.429 178.588C279.621 178.588 279.825 178.576 280.041 178.552V179.5C279.793 179.524 279.549 179.536 279.309 179.536Z" fill="#FCFCD8" fill-opacity="0.5"/>
</g>
<defs>
<filter id="filter0_b_6150_111608" x="-9" y="35" width="185" height="52" filterUnits="userSpaceOnUse" color-interpolation-filters="sRGB">
<feFlood flood-opacity="0" result="BackgroundImageFix"/>
<feGaussianBlur in="BackgroundImageFix" stdDeviation="5"/>
<feComposite in2="SourceAlpha" operator="in" result="effect1_backgroundBlur_6150_111608"/>
<feBlend mode="normal" in="SourceGraphic" in2="effect1_backgroundBlur_6150_111608" result="shape"/>
</filter>
<filter id="filter1_b_6150_111608" x="-15" y="71" width="269" height="89" filterUnits="userSpaceOnUse" color-interpolation-filters="sRGB">
<feFlood flood-opacity="0" result="BackgroundImageFix"/>
<feGaussianBlur in="BackgroundImageFix" stdDeviation="7.5"/>
<feComposite in2="SourceAlpha" operator="in" result="effect1_backgroundBlur_6150_111608"/>
<feBlend mode="normal" in="SourceGraphic" in2="effect1_backgroundBlur_6150_111608" result="shape"/>
</filter>
<filter id="filter2_b_6150_111608" x="177" y="149" width="128" height="52" filterUnits="userSpaceOnUse" color-interpolation-filters="sRGB">
<feFlood flood-opacity="0" result="BackgroundImageFix"/>
<feGaussianBlur in="BackgroundImageFix" stdDeviation="5"/>
<feComposite in2="SourceAlpha" operator="in" result="effect1_backgroundBlur_6150_111608"/>
<feBlend mode="normal" in="SourceGraphic" in2="effect1_backgroundBlur_6150_111608" result="shape"/>
</filter>
<linearGradient id="paint0_linear_6150_111608" x1="105" y1="115" x2="220" y2="115" gradientUnits="userSpaceOnUse">
<stop offset="0.52" stop-color="#9F5BFF"/>
<stop offset="0.816" stop-color="#FF8E8E"/>
</linearGradient>
</defs>
</svg>
