<svg width="83" height="60" viewBox="0 0 83 60" fill="none" xmlns="http://www.w3.org/2000/svg">
<path d="M0.702544 21.4019L35.9467 1.05364L47.98 21.8959C49.2227 24.0482 48.4852 26.8004 46.3329 28.043L18.8829 43.8913C16.7306 45.1339 13.9785 44.3965 12.7358 42.2442L0.702544 21.4019Z" stroke="#7D22FF"/>
<path d="M57.9648 46.5975L62.7536 46.0654C65.1511 45.7991 66.9648 43.7726 66.9648 41.3604V41.0975C66.9648 37.5077 69.875 34.5975 73.4648 34.5975V34.5975M36.4648 49.5975C30.0648 49.5975 23.4648 56.9309 20.9648 58.5975H27.4648H60.4648C66.4648 58.9309 78.4648 56.7975 78.4648 45.5975C78.4648 40.9821 78.4648 39.0668 78.4648 38.0951C78.4648 36.1621 76.8978 34.5975 74.9648 34.5975V34.5975M73.4648 34.5975C74.6315 29.0975 75.3648 17.3975 68.9648 14.5975M73.4648 34.5975H74.9648M74.9648 34.5975C78.6315 30.0975 84.8648 19.4975 80.4648 13.0975" stroke="#7D22FF" stroke-width="1.5"/>
<ellipse cx="46.9648" cy="45.5975" rx="13.5" ry="12" fill="#E1FF26"/>
<path d="M45.5076 43.631C46.5076 43.2976 48.7076 42.931 49.5076 44.131C50.5076 45.631 49.5076 49.1309 45.0076 48.6309C40.5076 48.1309 39.5076 41.6309 44.5076 38.6309C49.5076 35.6309 54.507 39.6309 55.007 44.6309C55.507 49.6309 52.007 52.6309 46.507 53.1309C41.007 53.6309 37.007 48.1309 37.507 45.1309" stroke="#1A1A1A" stroke-width="1.5"/>
</svg>
