<svg width="71" height="55" viewBox="0 0 71 55" fill="none" xmlns="http://www.w3.org/2000/svg">
<path d="M3.5 29V29C3.5 23.7533 7.7533 19.5 13 19.5H14.75C20.9632 19.5 26 24.5368 26 30.75V40.75C26 48.3439 32.1561 54.5 39.75 54.5V54.5C47.3439 54.5 53.5 48.3439 53.5 40.75V39.75C53.5 31.6038 60.1038 25 68.25 25H70M70 25L66.5 21.5M70 25L66.5 28.5" stroke="#7D22FF"/>
<circle cx="3.5" cy="32" r="3" stroke="#7D22FF"/>
<path d="M35 32.5L43 40.5" stroke="#E1FF26"/>
<path d="M43 32.5L35 40.5" stroke="#E1FF26"/>
<path d="M12 42.5L20 50.5" stroke="#E1FF26"/>
<path d="M20 42.5L12 50.5" stroke="#E1FF26"/>
<path d="M59 42.5L67 50.5" stroke="#E1FF26"/>
<path d="M67 42.5L59 50.5" stroke="#E1FF26"/>
<rect x="30" y="0.5" width="19" height="19" rx="9.5" fill="#E1FF26"/>
<path d="M41.2143 7.82999C41.1688 8.19823 41.0608 8.52965 40.8902 8.82425C40.731 9.11884 40.5263 9.38187 40.2761 9.61334C40.0259 9.83429 39.7416 10.0237 39.4232 10.1815C39.1048 10.3288 38.7751 10.4445 38.4339 10.5287L42.5107 15.5H40.5661L37.5469 11.7912C37.2171 11.3809 36.9158 11.0863 36.6429 10.9075C36.3813 10.7181 36.1027 10.6234 35.807 10.6234V9.47131H36.8134C37.166 9.47131 37.5014 9.45026 37.8198 9.40818C38.1496 9.35557 38.4453 9.2714 38.7068 9.15567C38.9684 9.02941 39.1844 8.86107 39.355 8.65065C39.537 8.44022 39.645 8.16667 39.6791 7.82999H35.5L36.0117 6.89885H39.6109C39.5085 6.46748 39.2868 6.12028 38.9456 5.85725C38.6045 5.59421 38.1439 5.45218 37.564 5.43113H35.5L36.0117 4.5H43.5L42.9883 5.43113H40.4979C40.8845 5.83094 41.1176 6.32018 41.1972 6.89885H43.5L42.9883 7.82999H41.2143Z" fill="#0C0C0C"/>
</svg>
