<svg width="112" height="27" viewBox="0 0 112 27" fill="none" xmlns="http://www.w3.org/2000/svg">
<path d="M15.8574 25.2826C14.1875 25.5392 12.4883 25.6161 10.7305 25.821L5.36906 12.0809V26.4107C3.69921 26.5645 2.1758 26.7695 0.59375 26.9746V0.724609H5.047L11.1406 15.6186V0.724609H15.8574V25.2826ZM25.0859 10.3377C26.9025 10.3377 29.6856 10.2607 31.3555 10.2607V14.3622C29.2753 14.3622 26.8438 14.3622 25.0859 14.4391V20.5403C27.84 20.3865 30.5939 20.1813 33.3769 20.1044V24.0519L20.3983 24.9493V0.724609H33.3769V4.82618H25.0859V10.3377ZM50.8085 4.82627H45.9453V23.6934C44.3633 23.6934 42.7812 23.6934 41.258 23.7446V4.82627H36.3948V0.724609H50.8088L50.8085 4.82627ZM58.4257 10.0557H64.8418V14.1572H58.4257V23.4627H53.8257V0.724609H66.9218V4.82618H58.4257V10.0557ZM74.539 19.8738C77.2051 19.9249 79.9002 20.1046 82.5078 20.2326V24.2829C78.3184 24.0521 74.1289 23.8217 69.8516 23.7446V0.724609H74.539V19.8738ZM86.4628 24.5649C87.9569 24.642 89.539 24.7189 91.0624 24.8725V0.724609H86.4628V24.5649ZM111.6 0.724609L105.652 13.2088L111.6 26.9746C109.842 26.7695 108.084 26.4875 106.326 26.2311L102.957 18.6434L99.5296 25.6161C97.8301 25.3595 96.1895 25.2826 94.4906 25.0775L100.526 13.0548L95.0763 0.724609H100.115L103.191 7.62038L106.473 0.724609H111.6V0.724609Z" fill="#3E3E3E"/>
</svg>
