<svg width="31" height="28" viewBox="0 0 31 28" fill="none" xmlns="http://www.w3.org/2000/svg">
<path fill-rule="evenodd" clip-rule="evenodd" d="M11.3591 2.51802V15.1654L7.74414 13.0474V0.400024L11.3591 2.51802ZM14.4027 18.1396L3.61494 11.8173L0 13.9353L10.7903 20.2602L14.4027 18.1396ZM18.4635 16.9514L7.67578 23.2738V27.5098L18.4661 21.1848L18.4635 16.9514ZM12.3717 11.0006L23.1595 4.67556V0.439575L12.3691 6.76457L12.3717 11.0006ZM27.2233 16.1321L16.4355 9.80976L20.0479 7.69177L30.8382 14.0141L27.2233 16.1321ZM19.4766 12.7866V25.4313L23.0915 27.5493V14.902L19.4766 12.7866Z" fill="url(#paint0_linear_6141_110413)"/>
<defs>
<linearGradient id="paint0_linear_6141_110413" x1="-10.5" y1="-14.1" x2="39.5" y2="38.9" gradientUnits="userSpaceOnUse">
<stop offset="0.025" stop-color="#FF8E8E"/>
<stop offset="0.48" stop-color="#7D22FF"/>
<stop offset="1" stop-color="#1616FB"/>
</linearGradient>
</defs>
</svg>
