<svg width="295" height="91" viewBox="0 0 295 91" fill="none" xmlns="http://www.w3.org/2000/svg">
<g opacity="0.4">
<rect y="0.509766" width="294.635" height="89.5281" rx="44.764" fill="#FF5B5B" fill-opacity="0.29"/>
<path d="M117.666 48.0383C117.516 49.3383 117.058 50.4466 116.291 51.3633C115.525 52.2799 114.483 52.9799 113.166 53.4633C111.85 53.9466 110.283 54.1883 108.466 54.1883C106.95 54.1883 105.558 54.0133 104.291 53.6633C103.041 53.3133 101.958 52.7883 101.041 52.0883C100.141 51.3883 99.4415 50.5216 98.9415 49.4883C98.4415 48.4383 98.1915 47.2133 98.1915 45.8133C98.1915 44.4133 98.4415 43.1883 98.9415 42.1383C99.4415 41.0883 100.141 40.2133 101.041 39.5133C101.958 38.7966 103.041 38.2633 104.291 37.9133C105.558 37.5466 106.95 37.3633 108.466 37.3633C110.283 37.3633 111.85 37.6133 113.166 38.1133C114.5 38.6133 115.55 39.3299 116.316 40.2633C117.083 41.1799 117.533 42.2966 117.666 43.6133H114.366C114.15 42.9133 113.783 42.3133 113.266 41.8133C112.766 41.2966 112.116 40.9049 111.316 40.6383C110.516 40.3716 109.566 40.2383 108.466 40.2383C107.1 40.2383 105.9 40.4549 104.866 40.8883C103.833 41.3049 103.033 41.9299 102.466 42.7633C101.9 43.5799 101.616 44.5966 101.616 45.8133C101.616 47.0133 101.9 48.0216 102.466 48.8383C103.033 49.6549 103.833 50.2799 104.866 50.7133C105.9 51.1299 107.1 51.3383 108.466 51.3383C109.566 51.3383 110.508 51.2049 111.291 50.9383C112.091 50.6716 112.741 50.2883 113.241 49.7883C113.758 49.2883 114.133 48.7049 114.366 48.0383H117.666ZM127.061 54.1633C125.494 54.1633 124.111 53.9133 122.911 53.4133C121.727 52.9133 120.802 52.1883 120.136 51.2383C119.469 50.2716 119.136 49.0883 119.136 47.6883C119.136 46.2883 119.469 45.1049 120.136 44.1383C120.802 43.1549 121.727 42.4133 122.911 41.9133C124.111 41.4133 125.494 41.1633 127.061 41.1633C128.627 41.1633 129.994 41.4133 131.161 41.9133C132.344 42.4133 133.269 43.1549 133.936 44.1383C134.602 45.1049 134.936 46.2883 134.936 47.6883C134.936 49.0883 134.602 50.2716 133.936 51.2383C133.269 52.1883 132.344 52.9133 131.161 53.4133C129.994 53.9133 128.627 54.1633 127.061 54.1633ZM127.061 51.6633C127.927 51.6633 128.702 51.5133 129.386 51.2133C130.086 50.8966 130.636 50.4466 131.036 49.8633C131.436 49.2633 131.636 48.5383 131.636 47.6883C131.636 46.8383 131.436 46.1133 131.036 45.5133C130.636 44.8966 130.094 44.4299 129.411 44.1133C128.727 43.7966 127.944 43.6383 127.061 43.6383C126.194 43.6383 125.411 43.7966 124.711 44.1133C124.011 44.4299 123.452 44.8883 123.036 45.4883C122.636 46.0883 122.436 46.8216 122.436 47.6883C122.436 48.5383 122.636 49.2633 123.036 49.8633C123.436 50.4466 123.986 50.8966 124.686 51.2133C125.386 51.5133 126.177 51.6633 127.061 51.6633ZM136.838 36.4383H140.088V53.8633H136.838V36.4383ZM142.875 36.4383H146.125V53.8633H142.875V36.4383ZM154.712 54.1383C153.479 54.1383 152.354 53.8716 151.337 53.3383C150.337 52.7883 149.537 52.0299 148.937 51.0633C148.354 50.0799 148.062 48.9466 148.062 47.6633C148.062 46.3466 148.362 45.2049 148.962 44.2383C149.562 43.2716 150.371 42.5216 151.387 41.9883C152.421 41.4383 153.587 41.1633 154.887 41.1633C156.321 41.1633 157.471 41.4549 158.337 42.0383C159.221 42.6049 159.862 43.3799 160.262 44.3633C160.662 45.3466 160.862 46.4466 160.862 47.6633C160.862 48.3966 160.746 49.1466 160.512 49.9133C160.279 50.6633 159.921 51.3633 159.437 52.0133C158.954 52.6466 158.321 53.1633 157.537 53.5633C156.754 53.9466 155.812 54.1383 154.712 54.1383ZM155.762 51.6383C156.746 51.6383 157.596 51.4716 158.312 51.1383C159.029 50.8049 159.579 50.3383 159.962 49.7383C160.346 49.1383 160.537 48.4466 160.537 47.6633C160.537 46.8133 160.337 46.0966 159.937 45.5133C159.554 44.9133 159.004 44.4633 158.287 44.1633C157.587 43.8466 156.746 43.6883 155.762 43.6883C154.379 43.6883 153.304 44.0549 152.537 44.7883C151.771 45.5049 151.387 46.4633 151.387 47.6633C151.387 48.4633 151.571 49.1633 151.937 49.7633C152.304 50.3466 152.812 50.8049 153.462 51.1383C154.129 51.4716 154.896 51.6383 155.762 51.6383ZM160.537 41.4383H163.787V53.8633H160.762C160.762 53.8633 160.737 53.7049 160.687 53.3883C160.654 53.0549 160.621 52.6383 160.587 52.1383C160.554 51.6383 160.537 51.1466 160.537 50.6633V41.4383ZM175.31 54.1383C174.21 54.1383 173.268 53.9466 172.485 53.5633C171.701 53.1633 171.068 52.6466 170.585 52.0133C170.101 51.3633 169.743 50.6633 169.51 49.9133C169.276 49.1466 169.16 48.3966 169.16 47.6633C169.16 46.7466 169.268 45.8966 169.485 45.1133C169.718 44.3299 170.076 43.6466 170.56 43.0633C171.043 42.4633 171.676 41.9966 172.46 41.6633C173.243 41.3299 174.193 41.1633 175.31 41.1633C176.593 41.1633 177.726 41.4383 178.71 41.9883C179.71 42.5216 180.493 43.2716 181.06 44.2383C181.643 45.2049 181.935 46.3466 181.935 47.6633C181.935 48.9466 181.643 50.0799 181.06 51.0633C180.476 52.0299 179.685 52.7883 178.685 53.3383C177.685 53.8716 176.56 54.1383 175.31 54.1383ZM174.26 51.6383C175.143 51.6383 175.91 51.4716 176.56 51.1383C177.21 50.8049 177.71 50.3466 178.06 49.7633C178.426 49.1633 178.61 48.4633 178.61 47.6633C178.61 46.4633 178.226 45.4966 177.46 44.7633C176.71 44.0299 175.643 43.6633 174.26 43.6633C173.293 43.6633 172.451 43.8216 171.735 44.1383C171.018 44.4549 170.46 44.9133 170.06 45.5133C169.676 46.0966 169.485 46.8133 169.485 47.6633C169.485 48.4466 169.676 49.1383 170.06 49.7383C170.443 50.3383 170.993 50.8049 171.71 51.1383C172.426 51.4716 173.276 51.6383 174.26 51.6383ZM169.485 36.4383V50.6633C169.485 51.1966 169.46 51.7716 169.41 52.3883C169.36 52.9883 169.31 53.4799 169.26 53.8633H166.235V36.4383H169.485ZM190.913 54.1633C189.346 54.1633 187.963 53.9133 186.763 53.4133C185.58 52.9133 184.655 52.1883 183.988 51.2383C183.321 50.2716 182.988 49.0883 182.988 47.6883C182.988 46.2883 183.321 45.1049 183.988 44.1383C184.655 43.1549 185.58 42.4133 186.763 41.9133C187.963 41.4133 189.346 41.1633 190.913 41.1633C192.48 41.1633 193.846 41.4133 195.013 41.9133C196.196 42.4133 197.121 43.1549 197.788 44.1383C198.455 45.1049 198.788 46.2883 198.788 47.6883C198.788 49.0883 198.455 50.2716 197.788 51.2383C197.121 52.1883 196.196 52.9133 195.013 53.4133C193.846 53.9133 192.48 54.1633 190.913 54.1633ZM190.913 51.6633C191.78 51.6633 192.555 51.5133 193.238 51.2133C193.938 50.8966 194.488 50.4466 194.888 49.8633C195.288 49.2633 195.488 48.5383 195.488 47.6883C195.488 46.8383 195.288 46.1133 194.888 45.5133C194.488 44.8966 193.946 44.4299 193.263 44.1133C192.58 43.7966 191.796 43.6383 190.913 43.6383C190.046 43.6383 189.263 43.7966 188.563 44.1133C187.863 44.4299 187.305 44.8883 186.888 45.4883C186.488 46.0883 186.288 46.8216 186.288 47.6883C186.288 48.5383 186.488 49.2633 186.888 49.8633C187.288 50.4466 187.838 50.8966 188.538 51.2133C189.238 51.5133 190.03 51.6633 190.913 51.6633ZM199.395 41.4383H209.045V43.9633H199.395V41.4383ZM202.595 38.0383H205.845V53.8633H202.595V38.0383ZM210.36 41.4383H213.61V53.8633H210.36V41.4383ZM218.385 44.1133C217.451 44.1133 216.643 44.2966 215.96 44.6633C215.276 45.0133 214.726 45.4466 214.31 45.9633C213.893 46.4799 213.601 46.9799 213.435 47.4633L213.41 46.0883C213.426 45.8883 213.493 45.5966 213.61 45.2133C213.726 44.8133 213.901 44.3883 214.135 43.9383C214.368 43.4716 214.676 43.0299 215.06 42.6133C215.443 42.1799 215.91 41.8299 216.46 41.5633C217.01 41.2966 217.651 41.1633 218.385 41.1633V44.1133ZM225.694 54.1383C224.46 54.1383 223.335 53.8716 222.319 53.3383C221.319 52.7883 220.519 52.0299 219.919 51.0633C219.335 50.0799 219.044 48.9466 219.044 47.6633C219.044 46.3466 219.344 45.2049 219.944 44.2383C220.544 43.2716 221.352 42.5216 222.369 41.9883C223.402 41.4383 224.569 41.1633 225.869 41.1633C227.302 41.1633 228.452 41.4549 229.319 42.0383C230.202 42.6049 230.844 43.3799 231.244 44.3633C231.644 45.3466 231.844 46.4466 231.844 47.6633C231.844 48.3966 231.727 49.1466 231.494 49.9133C231.26 50.6633 230.902 51.3633 230.419 52.0133C229.935 52.6466 229.302 53.1633 228.519 53.5633C227.735 53.9466 226.794 54.1383 225.694 54.1383ZM226.744 51.6383C227.727 51.6383 228.577 51.4716 229.294 51.1383C230.01 50.8049 230.56 50.3383 230.944 49.7383C231.327 49.1383 231.519 48.4466 231.519 47.6633C231.519 46.8133 231.319 46.0966 230.919 45.5133C230.535 44.9133 229.985 44.4633 229.269 44.1633C228.569 43.8466 227.727 43.6883 226.744 43.6883C225.36 43.6883 224.285 44.0549 223.519 44.7883C222.752 45.5049 222.369 46.4633 222.369 47.6633C222.369 48.4633 222.552 49.1633 222.919 49.7633C223.285 50.3466 223.794 50.8049 224.444 51.1383C225.11 51.4716 225.877 51.6383 226.744 51.6383ZM231.519 41.4383H234.769V53.8633H231.744C231.744 53.8633 231.719 53.7049 231.669 53.3883C231.635 53.0549 231.602 52.6383 231.569 52.1383C231.535 51.6383 231.519 51.1466 231.519 50.6633V41.4383ZM236.085 41.4383H245.735V43.9633H236.085V41.4383ZM239.285 38.0383H242.535V53.8633H239.285V38.0383ZM258.204 49.7383H261.354C261.221 50.5883 260.862 51.3466 260.279 52.0133C259.712 52.6799 258.937 53.2049 257.954 53.5883C256.971 53.9716 255.771 54.1633 254.354 54.1633C252.771 54.1633 251.371 53.9133 250.154 53.4133C248.937 52.8966 247.987 52.1549 247.304 51.1883C246.621 50.2216 246.279 49.0549 246.279 47.6883C246.279 46.3216 246.612 45.1549 247.279 44.1883C247.946 43.2049 248.871 42.4549 250.054 41.9383C251.254 41.4216 252.654 41.1633 254.254 41.1633C255.887 41.1633 257.246 41.4216 258.329 41.9383C259.412 42.4549 260.212 43.2383 260.729 44.2883C261.262 45.3216 261.487 46.6466 261.404 48.2633H249.554C249.637 48.8966 249.871 49.4716 250.254 49.9883C250.654 50.5049 251.187 50.9133 251.854 51.2133C252.537 51.5133 253.346 51.6633 254.279 51.6633C255.312 51.6633 256.171 51.4883 256.854 51.1383C257.554 50.7716 258.004 50.3049 258.204 49.7383ZM254.104 43.6383C252.904 43.6383 251.929 43.9049 251.179 44.4383C250.429 44.9549 249.946 45.5966 249.729 46.3633H258.179C258.096 45.5299 257.696 44.8716 256.979 44.3883C256.279 43.8883 255.321 43.6383 254.104 43.6383Z" fill="#DE5757"/>
<circle cx="50.2678" cy="45.2734" r="29.3535" fill="#FF5B5B"/>
<path d="M39.6355 43.7443L46.7541 50.9238L60.6355 36.9238" stroke="#9F2626" stroke-width="4" stroke-linecap="round"/>
</g>
</svg>
