<svg width="85" height="36" viewBox="0 0 85 36" fill="none" xmlns="http://www.w3.org/2000/svg">
<path d="M66 7.12742V0H66.8213V2.63102H66.8909C66.9513 2.53822 67.0348 2.41989 67.1415 2.27604C67.2505 2.12987 67.406 1.99995 67.6078 1.88626C67.812 1.77026 68.0881 1.71225 68.4361 1.71225C68.8862 1.71225 69.283 1.82478 69.6264 2.04983C69.9697 2.27488 70.2377 2.5939 70.4303 3.00688C70.6228 3.41986 70.7191 3.90709 70.7191 4.46856C70.7191 5.03467 70.6228 5.52538 70.4303 5.94068C70.2377 6.35366 69.9709 6.67384 69.6298 6.90121C69.2888 7.12626 68.8955 7.23879 68.4501 7.23879C68.1067 7.23879 67.8317 7.18195 67.6252 7.06826C67.4188 6.95225 67.2598 6.82117 67.1485 6.675C67.0371 6.52651 66.9513 6.40354 66.8909 6.3061H66.7935V7.12742H66ZM66.8074 4.45464C66.8074 4.85834 66.8666 5.21448 66.9849 5.52306C67.1032 5.82931 67.2761 6.06945 67.5034 6.24346C67.7308 6.41515 68.0092 6.50099 68.3387 6.50099C68.6821 6.50099 68.9686 6.41051 69.1983 6.22954C69.4303 6.04625 69.6043 5.80031 69.7203 5.49174C69.8386 5.18084 69.8978 4.83514 69.8978 4.45464C69.8978 4.07878 69.8398 3.74004 69.7238 3.43843C69.6101 3.13449 69.4373 2.89436 69.2053 2.71803C68.9756 2.53938 68.6867 2.45005 68.3387 2.45005C68.0046 2.45005 67.7239 2.53474 67.4965 2.70411C67.2691 2.87115 67.0974 3.10549 66.9814 3.4071C66.8654 3.7064 66.8074 4.05558 66.8074 4.45464Z" fill="#7D22FF"/>
<path d="M73.3347 7.23879C72.8196 7.23879 72.3753 7.1251 72.0018 6.89773C71.6306 6.66804 71.344 6.34786 71.1422 5.9372C70.9427 5.52422 70.8429 5.04395 70.8429 4.4964C70.8429 3.94885 70.9427 3.46627 71.1422 3.04864C71.344 2.6287 71.6248 2.30156 71.9844 2.06723C72.3463 1.83058 72.7686 1.71225 73.2512 1.71225C73.5296 1.71225 73.8045 1.75865 74.076 1.85146C74.3474 1.94426 74.5945 2.09507 74.8173 2.30388C75.04 2.51038 75.2175 2.78415 75.3497 3.12521C75.482 3.46627 75.5481 3.88621 75.5481 4.38504V4.73305H71.4276V4.0231H74.7129C74.7129 3.72148 74.6525 3.45235 74.5319 3.21569C74.4136 2.97904 74.2442 2.79227 74.0238 2.65538C73.8057 2.5185 73.5482 2.45005 73.2512 2.45005C72.924 2.45005 72.641 2.53126 72.402 2.69367C72.1654 2.85375 71.9832 3.06256 71.8556 3.3201C71.728 3.57763 71.6642 3.85373 71.6642 4.14838V4.62169C71.6642 5.02539 71.7338 5.36761 71.873 5.64834C72.0146 5.92676 72.2106 6.13905 72.4612 6.28522C72.7118 6.42907 73.0029 6.50099 73.3347 6.50099C73.5505 6.50099 73.7454 6.47083 73.9194 6.41051C74.0957 6.34786 74.2477 6.25506 74.3753 6.13209C74.5029 6.0068 74.6015 5.85136 74.6711 5.66575L75.4646 5.88848C75.3811 6.15761 75.2407 6.39426 75.0435 6.59844C74.8463 6.80029 74.6027 6.95806 74.3126 7.07174C74.0226 7.18311 73.6966 7.23879 73.3347 7.23879Z" fill="#7D22FF"/>
<path d="M78.2402 1.78186V2.47789H75.47V1.78186H78.2402ZM76.2774 0.501147H77.0987V5.59614C77.0987 5.82815 77.1324 6.00216 77.1997 6.11817C77.2693 6.23186 77.3574 6.30842 77.4642 6.34786C77.5732 6.38498 77.688 6.40354 77.8087 6.40354C77.8992 6.40354 77.9734 6.3989 78.0314 6.38962C78.0894 6.37802 78.1358 6.36874 78.1706 6.36178L78.3377 7.09958C78.282 7.12046 78.2043 7.14135 78.1045 7.16223C78.0047 7.18543 77.8783 7.19703 77.7252 7.19703C77.4932 7.19703 77.2658 7.14715 77.0431 7.04738C76.8226 6.94761 76.6393 6.79565 76.4932 6.59148C76.3493 6.3873 76.2774 6.12977 76.2774 5.81887V0.501147Z" fill="#7D22FF"/>
<path d="M80.1667 7.25271C79.828 7.25271 79.5206 7.18891 79.2445 7.0613C78.9684 6.93137 78.7491 6.7446 78.5867 6.50099C78.4243 6.25506 78.3431 5.95808 78.3431 5.61006C78.3431 5.30381 78.4034 5.05555 78.5241 4.8653C78.6447 4.67273 78.806 4.52192 79.0078 4.41288C79.2097 4.30383 79.4324 4.22263 79.676 4.16926C79.922 4.11358 80.169 4.0695 80.4173 4.03702C80.7421 3.99526 81.0055 3.96393 81.2073 3.94305C81.4115 3.91985 81.56 3.88157 81.6528 3.82821C81.7479 3.77484 81.7955 3.68204 81.7955 3.54979V3.52195C81.7955 3.17857 81.7015 2.91176 81.5136 2.72151C81.328 2.53126 81.0461 2.43613 80.6679 2.43613C80.2758 2.43613 79.9684 2.52198 79.7456 2.69367C79.5229 2.86535 79.3663 3.04864 79.2758 3.24353L78.4962 2.96512C78.6354 2.6403 78.8211 2.38741 79.0531 2.20644C79.2874 2.02315 79.5426 1.89554 79.8187 1.82362C80.0971 1.74937 80.3709 1.71225 80.64 1.71225C80.8117 1.71225 81.0089 1.73313 81.2317 1.7749C81.4567 1.81434 81.6736 1.8967 81.8825 2.02199C82.0936 2.14728 82.2688 2.33637 82.408 2.58926C82.5472 2.84215 82.6168 3.18089 82.6168 3.60547V7.12742H81.7955V6.40354H81.7537C81.698 6.51955 81.6052 6.64368 81.4753 6.77592C81.3454 6.90817 81.1725 7.0207 80.9567 7.1135C80.741 7.20631 80.4776 7.25271 80.1667 7.25271ZM80.292 6.51491C80.6168 6.51491 80.8906 6.45111 81.1133 6.3235C81.3384 6.19589 81.5078 6.03116 81.6214 5.82931C81.7375 5.62746 81.7955 5.41517 81.7955 5.19244V4.44072C81.7607 4.48248 81.6841 4.52076 81.5658 4.55557C81.4498 4.58805 81.3152 4.61705 81.1621 4.64257C81.0113 4.66577 80.8639 4.68665 80.7201 4.70521C80.5786 4.72145 80.4637 4.73537 80.3755 4.74698C80.1621 4.77482 79.9626 4.82006 79.7769 4.8827C79.5937 4.94303 79.4452 5.03467 79.3315 5.15764C79.2201 5.27828 79.1644 5.44301 79.1644 5.65182C79.1644 5.9372 79.27 6.15297 79.4811 6.29914C79.6946 6.44299 79.9649 6.51491 80.292 6.51491Z" fill="#7D22FF"/>
<path d="M83.3789 1.93828V0.664185H83.8094C83.9089 0.664185 83.9907 0.681189 84.0545 0.715198C84.1184 0.748792 84.1657 0.795036 84.1964 0.85393C84.2271 0.912824 84.2424 0.979805 84.2424 1.05487C84.2424 1.12994 84.2271 1.19651 84.1964 1.25457C84.1657 1.31264 84.1186 1.35826 84.0551 1.39144C83.9917 1.4242 83.9106 1.44059 83.8119 1.44059H83.4635V1.30123H83.8069C83.8749 1.30123 83.9297 1.29128 83.9712 1.27137C84.013 1.25146 84.0433 1.22326 84.062 1.18676C84.0811 1.14985 84.0906 1.10589 84.0906 1.05487C84.0906 1.00386 84.0811 0.959275 84.062 0.921119C84.0429 0.882962 84.0124 0.853515 83.9705 0.832778C83.9286 0.811626 83.8733 0.80105 83.8044 0.80105H83.5332V1.93828H83.3789ZM83.9786 1.36593L84.2922 1.93828H84.113L83.8044 1.36593H83.9786Z" fill="#7D22FF"/>
<path d="M84.825 1.30129C84.825 1.89096 84.347 2.36898 83.7573 2.36898C83.1677 2.36898 82.6896 1.89096 82.6896 1.30129C82.6896 0.711617 83.1677 0.233594 83.7573 0.233594C84.347 0.233594 84.825 0.711617 84.825 1.30129Z" stroke="#7D22FF" stroke-width="0.35"/>
<path d="M18.374 10.1994C18.2332 11.4347 17.7954 12.4958 17.0761 13.3827C16.3568 14.2538 15.3716 14.9348 14.1362 15.3941C12.9009 15.8534 11.4153 16.0909 9.71084 16.0909C8.27219 16.0909 6.97428 15.9167 5.78583 15.5841C4.59739 15.2515 3.58095 14.7447 2.72089 14.0796C1.86083 13.4144 1.20406 12.575 0.734937 11.5772C0.265813 10.5795 0.03125 9.42332 0.03125 8.07713C0.03125 6.73095 0.265813 5.57481 0.734937 4.5612C1.20406 3.5476 1.87647 2.72405 2.72089 2.04304C3.58095 1.36203 4.59739 0.855226 5.78583 0.5068C6.97428 0.158375 8.28783 0 9.71084 0C11.431 0 12.9009 0.237562 14.1519 0.712688C15.4029 1.18781 16.388 1.86883 17.1074 2.75573C17.8267 3.64263 18.2489 4.70374 18.374 5.97074H15.2621C15.0588 5.30557 14.7148 4.71958 14.2301 4.24445C13.7453 3.75349 13.1354 3.38923 12.3848 3.13583C11.6342 2.88243 10.7273 2.75573 9.6952 2.75573C8.39729 2.75573 7.27139 2.96162 6.30187 3.35755C5.33235 3.76933 4.56611 4.35532 4.03444 5.14719C3.50277 5.93907 3.23693 6.90516 3.23693 8.07713C3.23693 9.24911 3.50277 10.1835 4.03444 10.9754C4.56611 11.7673 5.31671 12.3533 6.30187 12.7492C7.27139 13.161 8.41292 13.351 9.6952 13.351C10.7273 13.351 11.6186 13.2243 12.3692 12.9709C13.1198 12.7175 13.7297 12.3533 14.2144 11.8781C14.6992 11.403 15.0432 10.8487 15.2621 10.1994H18.374Z" fill="#014F59"/>
<path d="M30.5087 16.0751C28.4758 16.0751 26.74 15.7584 25.3014 15.109C23.8627 14.4597 22.7681 13.5411 22.0019 12.3533C21.2356 11.1655 20.8604 9.72427 20.8604 8.06133C20.8604 6.39839 21.2356 4.9255 22.0019 3.73769C22.7681 2.54987 23.8627 1.6313 25.3014 0.981958C26.74 0.33262 28.4758 0.0158691 30.5087 0.0158691V2.75576C29.2733 2.75576 28.163 2.94581 27.1779 3.34175C26.2084 3.73769 25.4421 4.32367 24.8948 5.09971C24.3475 5.87575 24.066 6.87352 24.066 8.06133C24.066 9.24914 24.3475 10.2469 24.8948 11.0229C25.4421 11.799 26.2084 12.385 27.1779 12.7651C28.1474 13.1452 29.2577 13.3352 30.5087 13.3352V16.0751Z" fill="#014F59"/>
<path d="M51.0566 0C53.0895 0 54.8253 0.31675 56.2639 0.966088C57.7026 1.61543 58.7972 2.534 59.5634 3.72182C60.3297 4.90963 60.7049 6.35084 60.7049 8.01378C60.7049 9.67672 60.3297 11.1496 59.5634 12.3374C58.7972 13.5252 57.7026 14.4438 56.2639 15.0932C54.8253 15.7425 53.0895 16.0592 51.0566 16.0592V13.3194C52.292 13.3194 53.4023 13.1293 54.3874 12.7334C55.3569 12.3374 56.1232 11.7514 56.6705 10.9754C57.2178 10.1994 57.4993 9.2016 57.4993 8.01378C57.4993 6.82597 57.2178 5.82821 56.6705 5.05217C56.1232 4.27613 55.3569 3.69014 54.3874 3.31004C53.4179 2.92994 52.3076 2.73989 51.0566 2.73989V0Z" fill="#014F59"/>
<path d="M9.64831 35.08C7.61544 35.08 5.87968 34.7632 4.44104 34.1139C3.00239 33.4646 1.90777 32.546 1.14153 31.3582C0.375298 30.1704 0 28.7291 0 27.0662C0 25.4033 0.375298 23.9304 1.14153 22.7426C1.90777 21.5548 3.00239 20.6362 4.44104 19.9868C5.87968 19.3375 7.61544 19.0208 9.64831 19.0208C11.6812 19.0208 13.4326 19.3375 14.8556 19.9868C16.2786 20.6362 17.3888 21.5548 18.1394 22.7426C18.89 23.9304 19.281 25.3716 19.281 27.0662C19.281 28.7608 18.9057 30.1704 18.1394 31.3582C17.3732 32.546 16.2786 33.4646 14.8556 34.1139C13.4326 34.7632 11.6812 35.08 9.64831 35.08ZM9.64831 32.3243C10.8993 32.3243 12.0096 32.1342 12.9634 31.7541C13.9173 31.374 14.6679 30.788 15.1996 30.012C15.7313 29.2359 16.0128 28.2382 16.0128 27.0504C16.0128 25.8626 15.7469 24.8648 15.1996 24.0888C14.6523 23.3127 13.9017 22.7267 12.9634 22.3308C12.0096 21.9349 10.8993 21.7448 9.64831 21.7448C8.39731 21.7448 7.30269 21.9349 6.31753 22.3308C5.34801 22.7267 4.58177 23.3127 4.03446 24.0888C3.48715 24.8648 3.20568 25.8626 3.20568 27.0504C3.20568 28.2382 3.48715 29.2359 4.03446 30.012C4.58177 30.788 5.34801 31.374 6.31753 31.7541C7.28705 32.1342 8.39731 32.3243 9.64831 32.3243Z" fill="#014F59"/>
<path d="M20.9385 34.7633L28.1004 19.3059H31.4938L38.7339 34.7633H35.3093L29.0387 20.8421H30.5399L24.3162 34.7633H20.9229H20.9385ZM24.7384 31.3899V28.7451H34.8402V31.3899H24.7384Z" fill="#014F59"/>
<path d="M39.7343 29.5528H42.9244C42.9869 30.0912 43.2371 30.5822 43.6593 31.0256C44.0972 31.4691 44.6601 31.8017 45.3638 32.0551C46.0675 32.3085 46.865 32.4193 47.7407 32.4193C48.5382 32.4193 49.195 32.3243 49.7266 32.1501C50.2427 31.9759 50.6336 31.7225 50.8838 31.4057C51.134 31.089 51.2591 30.7089 51.2591 30.2654C51.2591 29.822 51.1027 29.5052 50.79 29.2677C50.4772 29.0301 49.9768 28.8401 49.3044 28.6975C48.632 28.5392 47.7407 28.3966 46.6461 28.2382C45.786 28.1115 44.9572 27.9373 44.191 27.6998C43.4247 27.4622 42.7367 27.1771 42.1581 26.797C41.5795 26.4169 41.1104 25.9735 40.7664 25.4508C40.4224 24.9124 40.266 24.2789 40.266 23.5503C40.266 22.6476 40.5162 21.8399 41.0322 21.1589C41.5483 20.4779 42.2989 19.9394 43.3153 19.5593C44.3317 19.1792 45.5514 18.9891 47.0214 18.9891C49.2262 18.9891 50.9151 19.4643 52.1035 20.4145C53.292 21.3648 53.8706 22.6634 53.8393 24.3264H50.7744C50.7118 23.392 50.3209 22.711 49.6015 22.2992C48.8822 21.8874 47.9909 21.6815 46.8963 21.6815C45.8955 21.6815 45.0667 21.8399 44.4099 22.1408C43.7531 22.4417 43.4248 22.9644 43.4248 23.6929C43.4248 23.978 43.5029 24.2314 43.6593 24.4531C43.8157 24.6748 44.0815 24.849 44.4568 25.0074C44.8321 25.1658 45.3482 25.3241 45.9893 25.4667C46.6304 25.6092 47.4279 25.7518 48.3975 25.8943C49.2888 26.021 50.1019 26.1952 50.8369 26.4011C51.5719 26.607 52.1974 26.8921 52.729 27.2405C53.2607 27.5889 53.6673 28.0165 53.9488 28.5392C54.2302 29.0618 54.371 29.7111 54.371 30.4713C54.371 31.4057 54.1364 32.2293 53.6516 32.9261C53.1669 33.623 52.4319 34.1615 51.4311 34.5416C50.4303 34.9217 49.1481 35.1117 47.553 35.1117C46.4271 35.1117 45.4263 34.985 44.5507 34.7475C43.6906 34.4941 42.94 34.1773 42.3145 33.7497C41.689 33.3379 41.173 32.8786 40.782 32.3877C40.3911 31.8967 40.1096 31.4057 39.9376 30.8989C39.7656 30.408 39.703 29.9645 39.7343 29.5686V29.5528Z" fill="#014F59"/>
<path d="M57.5615 19.3059H60.7046V34.7633H57.5615V19.3059Z" fill="#014F59"/>
<path d="M63.7382 29.5528H66.9283C66.9908 30.0912 67.241 30.5822 67.6632 31.0256C68.1011 31.4691 68.664 31.8017 69.3677 32.0551C70.0714 32.3085 70.8689 32.4193 71.7446 32.4193C72.5421 32.4193 73.1989 32.3243 73.7306 32.1501C74.2466 31.9759 74.6375 31.7225 74.8877 31.4057C75.1379 31.089 75.263 30.7089 75.263 30.2654C75.263 29.822 75.1066 29.5052 74.7939 29.2677C74.4811 29.0301 73.9808 28.8401 73.3083 28.6975C72.6359 28.5392 71.7446 28.3966 70.65 28.2382C69.7899 28.1115 68.9611 27.9373 68.1949 27.6998C67.4287 27.4622 66.7406 27.1771 66.162 26.797C65.5834 26.4169 65.1143 25.9735 64.7703 25.4508C64.4263 24.9124 64.2699 24.2789 64.2699 23.5503C64.2699 22.6476 64.5201 21.8399 65.0361 21.1589C65.5522 20.4779 66.3028 19.9394 67.3192 19.5593C68.3356 19.1792 69.5554 18.9891 71.0253 18.9891C73.2302 18.9891 74.919 19.4643 76.1075 20.4145C77.2959 21.3648 77.8745 22.6634 77.8432 24.3264H74.7783C74.7157 23.392 74.3248 22.711 73.6054 22.2992C72.8861 21.8874 71.9948 21.6815 70.9002 21.6815C69.8994 21.6815 69.0706 21.8399 68.4138 22.1408C67.757 22.4417 67.4287 22.9644 67.4287 23.6929C67.4287 23.978 67.5068 24.2314 67.6632 24.4531C67.8196 24.6748 68.0854 24.849 68.4607 25.0074C68.836 25.1658 69.3521 25.3241 69.9932 25.4667C70.6343 25.6092 71.4318 25.7518 72.4014 25.8943C73.2927 26.021 74.1058 26.1952 74.8408 26.4011C75.5758 26.607 76.2013 26.8921 76.7329 27.2405C77.2646 27.5889 77.6712 28.0165 77.9527 28.5392C78.2341 29.0618 78.3749 29.7111 78.3749 30.4713C78.3749 31.4057 78.1403 32.2293 77.6556 32.9261C77.1708 33.623 76.4358 34.1615 75.435 34.5416C74.4342 34.9217 73.152 35.1117 71.5569 35.1117C70.431 35.1117 69.4303 34.985 68.5546 34.7475C67.6945 34.4941 66.9439 34.1773 66.3184 33.7497C65.6929 33.3379 65.1769 32.8786 64.7859 32.3877C64.395 31.8967 64.1135 31.4057 63.9415 30.8989C63.7695 30.408 63.7069 29.9645 63.7382 29.5686V29.5528Z" fill="#014F59"/>
<path d="M51.3069 0H30.1963V2.75573H51.3069V0Z" fill="#014F59"/>
<path d="M51.3069 13.3193H30.1963V16.0751H51.3069V13.3193Z" fill="#014F59"/>
</svg>
