<svg width="17" height="13" viewBox="0 0 17 13" fill="none" xmlns="http://www.w3.org/2000/svg">
<g clip-path="url(#clip0_1070_565)">
<path d="M14.4434 0H2.55653C1.23288 0 0.142822 1.07905 0.142822 2.38933V10.6107C0.142822 11.9209 1.23288 13 2.55653 13H14.4434C15.767 13 16.8571 11.9209 16.8571 10.6107V2.38933C16.8571 1.07905 15.767 0 14.4434 0ZM14.4434 1.13043C14.4434 1.13043 14.6251 1.13043 14.7289 1.15613L9.7198 6.78261C9.40835 7.1166 8.96713 7.32213 8.49996 7.32213C8.03279 7.32213 7.59158 7.1166 7.28013 6.78261L2.27104 1.18182C2.27104 1.18182 2.45272 1.15613 2.55653 1.15613H14.4434V1.13043ZM15.7151 10.585C15.7151 11.2787 15.1442 11.8439 14.4434 11.8439H2.55653C1.85578 11.8439 1.28479 11.2787 1.28479 10.585V2.38933C1.28479 2.20949 1.31075 2.05534 1.38861 1.92688L6.42366 7.57905C6.94273 8.16996 7.69539 8.50395 8.49996 8.50395C9.30453 8.50395 10.0572 8.16996 10.5763 7.57905L15.6113 1.92688C15.6632 2.08103 15.7151 2.23518 15.7151 2.38933V10.6107V10.585Z" fill="#014F59"/>
</g>
<defs>
<clipPath id="clip0_1070_565">
<rect width="16.7143" height="13" fill="white" transform="translate(0.142822)"/>
</clipPath>
</defs>
</svg>
