<svg width="118" height="135" viewBox="0 0 118 135" fill="none" xmlns="http://www.w3.org/2000/svg">
<path d="M104.522 88.416C95.9323 86.2868 83.6569 79.8018 80.1504 76.9102C78.8425 75.9932 76.265 73.7153 76.4179 71.9397C76.6091 69.7202 81.5117 71.5966 83.0603 74.7406C83.7667 76.1749 84.085 77.9805 82.4231 81.5242L54.5935 125.802M104.522 88.416C108.205 89.6656 106.592 85.2388 104.911 84.363C105.287 82.5881 106.625 76.9268 100.127 72.8043C93.9367 68.8774 90.5957 70.9278 88.1654 72.9624C86.013 74.7644 86.1744 76.9514 86.1744 76.9514M104.522 88.416L86.1744 120.65" stroke="#014F59" stroke-width="2"/>
<path d="M60.8855 1L100.596 12.0771L112.687 40.1209C113.109 41.8035 106.796 49.4964 106.796 49.4964L92.7445 70.7357M99.8847 15.1544C96.7209 20.6382 88.716 33.8202 93.4341 38.1581C99.3318 43.5806 105.782 44.3159 106.888 43.4887C107.994 42.6615 107.81 39.1476 103.939 39.1476C100.069 39.1476 99.8847 44.5916 99.8847 45.6025M62.3015 9.49572L83.8948 16.5755M59.1156 15.1544L68.3193 18.3454M55.5757 21.5313L70.0892 27.1951" stroke="#014F59" stroke-width="2"/>
<path d="M67.9652 103.635C65.1874 107.856 58.2865 104.422 56.4558 103.635C47.0714 96.8564 26.2594 81.8491 18.0868 76.0505C9.91412 70.2519 12.7507 63.1698 15.1905 60.3535L59.0619 4.20809L61.5741 1M51.6872 85.9821C52.8294 86.8823 55.7204 88.1343 58.1468 85.9408C61.1798 83.1988 58.3565 83.2362 57.4923 84.3668C56.6282 85.4973 54.5686 87.7784 56.8349 90.1308C59.1013 92.4831 61.4484 89.5928 60.5448 88.5933C59.6412 87.5938 57.2636 88.9049 59.4109 91.4347C61.1288 93.4585 62.6002 93.6745 63.1212 93.5296M48.0742 87.7813C51.6084 89.2436 59.4623 93.037 62.604 96.5121" stroke="#014F59" stroke-width="2"/>
</svg>
