<svg width="11" height="11" viewBox="0 0 11 11" fill="none" xmlns="http://www.w3.org/2000/svg">
<path d="M5.25022 8.38058V4.56118H5.83705V8.38058H5.25022ZM5.54861 3.92461C5.43422 3.92461 5.33559 3.88566 5.2527 3.80774C5.17147 3.72983 5.13086 3.63617 5.13086 3.52676C5.13086 3.41735 5.17147 3.32369 5.2527 3.24578C5.33559 3.16786 5.43422 3.12891 5.54861 3.12891C5.66299 3.12891 5.7608 3.16786 5.84202 3.24578C5.92491 3.32369 5.96635 3.41735 5.96635 3.52676C5.96635 3.63617 5.92491 3.72983 5.84202 3.80774C5.7608 3.88566 5.66299 3.92461 5.54861 3.92461Z" fill="#FFF5D9"/>
<circle cx="5.54883" cy="5.75488" r="5.0293" stroke="#FFF5D9" stroke-width="0.25"/>
</svg>
