<svg width="346" height="255" viewBox="0 0 346 255" fill="none" xmlns="http://www.w3.org/2000/svg">
<rect y="0.105591" width="346" height="254" rx="15" fill="#1B1B1B"/>
<rect x="0.5" y="0.605591" width="345" height="253" rx="14.5" stroke="#FCFCD8" stroke-opacity="0.03"/>
<mask id="mask0_6141_110487" style="mask-type:alpha" maskUnits="userSpaceOnUse" x="40" y="0" width="263" height="254">
<rect x="40.1328" y="0.107422" width="3.02235" height="2.90753" fill="#00FB87"/>
<rect x="63.707" y="0.107422" width="3.02235" height="2.90753" fill="#00FB87"/>
<rect x="87.291" y="0.107422" width="3.02235" height="2.90753" fill="#00FB87"/>
<rect x="110.855" y="0.107422" width="3.02235" height="2.90753" fill="#00FB87"/>
<rect x="134.43" y="0.107422" width="3.02235" height="2.90753" fill="#00FB87"/>
<rect x="157.994" y="0.107422" width="3.02235" height="2.90753" fill="#00FB87"/>
<rect x="40.1328" y="22.7866" width="3.02235" height="2.90753" fill="#00FB87"/>
<rect x="63.707" y="22.7866" width="3.02235" height="2.90753" fill="#00FB87"/>
<rect x="87.291" y="22.7866" width="3.02235" height="2.90753" fill="#00FB87"/>
<rect x="110.855" y="22.7866" width="3.02235" height="2.90753" fill="#00FB87"/>
<rect x="134.43" y="22.7866" width="3.02235" height="2.90753" fill="#00FB87"/>
<rect x="157.994" y="22.7866" width="3.02235" height="2.90753" fill="#00FB87"/>
<rect x="40.1328" y="45.4635" width="3.02235" height="2.90753" fill="#00FB87"/>
<rect x="63.707" y="45.4636" width="3.02235" height="2.90753" fill="#00FB87"/>
<rect x="87.291" y="45.4636" width="3.02235" height="2.90753" fill="#00FB87"/>
<rect x="110.855" y="45.4636" width="3.02235" height="2.90753" fill="#00FB87"/>
<rect x="134.43" y="45.4636" width="3.02235" height="2.90753" fill="#00FB87"/>
<rect x="157.994" y="45.4636" width="3.02235" height="2.90753" fill="#00FB87"/>
<rect x="40.1328" y="68.1447" width="3.02235" height="2.90753" fill="#00FB87"/>
<rect x="63.707" y="68.1447" width="3.02235" height="2.90753" fill="#00FB87"/>
<rect x="87.291" y="68.1447" width="3.02235" height="2.90753" fill="#00FB87"/>
<rect x="110.855" y="68.1447" width="3.02235" height="2.90753" fill="#00FB87"/>
<rect x="134.43" y="68.1447" width="3.02235" height="2.90753" fill="#00FB87"/>
<rect x="157.994" y="68.1447" width="3.02235" height="2.90753" fill="#00FB87"/>
<rect x="40.1328" y="90.8235" width="3.02235" height="2.90753" fill="#00FB87"/>
<rect x="63.707" y="90.8235" width="3.02235" height="2.90753" fill="#00FB87"/>
<rect x="87.291" y="90.8236" width="3.02235" height="2.90753" fill="#00FB87"/>
<rect x="110.855" y="90.8236" width="3.02235" height="2.90753" fill="#00FB87"/>
<rect x="134.43" y="90.8236" width="3.02235" height="2.90753" fill="#00FB87"/>
<rect x="157.994" y="90.8236" width="3.02235" height="2.90753" fill="#00FB87"/>
<rect x="40.1328" y="113.503" width="3.02235" height="2.90753" fill="#00FB87"/>
<rect x="63.707" y="113.503" width="3.02235" height="2.90753" fill="#00FB87"/>
<rect x="87.291" y="113.503" width="3.02235" height="2.90753" fill="#00FB87"/>
<rect x="110.855" y="113.503" width="3.02235" height="2.90753" fill="#00FB87"/>
<rect x="134.43" y="113.503" width="3.02235" height="2.90753" fill="#00FB87"/>
<rect x="157.994" y="113.503" width="3.02235" height="2.90753" fill="#00FB87"/>
<rect x="40.1328" y="136.18" width="3.02235" height="2.90753" fill="#00FB87"/>
<rect x="63.707" y="136.18" width="3.02235" height="2.90753" fill="#00FB87"/>
<rect x="87.291" y="136.18" width="3.02235" height="2.90753" fill="#00FB87"/>
<rect x="110.855" y="136.18" width="3.02235" height="2.90753" fill="#00FB87"/>
<rect x="134.43" y="136.18" width="3.02235" height="2.90753" fill="#00FB87"/>
<rect x="157.994" y="136.18" width="3.02235" height="2.90753" fill="#00FB87"/>
<rect x="40.1328" y="158.859" width="3.02235" height="2.90753" fill="#00FB87"/>
<rect x="63.707" y="158.859" width="3.02235" height="2.90753" fill="#00FB87"/>
<rect x="87.291" y="158.859" width="3.02235" height="2.90753" fill="#00FB87"/>
<rect x="110.855" y="158.859" width="3.02235" height="2.90753" fill="#00FB87"/>
<rect x="134.43" y="158.859" width="3.02235" height="2.90753" fill="#00FB87"/>
<rect x="157.994" y="158.859" width="3.02235" height="2.90753" fill="#00FB87"/>
<rect x="40.1328" y="181.539" width="3.02235" height="2.90753" fill="#00FB87"/>
<rect x="63.707" y="181.539" width="3.02235" height="2.90753" fill="#00FB87"/>
<rect x="87.291" y="181.539" width="3.02235" height="2.90753" fill="#00FB87"/>
<rect x="110.855" y="181.539" width="3.02235" height="2.90753" fill="#00FB87"/>
<rect x="134.43" y="181.539" width="3.02235" height="2.90753" fill="#00FB87"/>
<rect x="157.994" y="181.539" width="3.02235" height="2.90753" fill="#00FB87"/>
<rect x="40.1328" y="205.053" width="3.02235" height="2.90753" fill="#00FB87"/>
<rect x="63.707" y="205.053" width="3.02235" height="2.90753" fill="#00FB87"/>
<rect x="87.291" y="205.053" width="3.02235" height="2.90753" fill="#00FB87"/>
<rect x="110.855" y="205.053" width="3.02235" height="2.90753" fill="#00FB87"/>
<rect x="134.43" y="205.053" width="3.02235" height="2.90753" fill="#00FB87"/>
<rect x="157.994" y="205.053" width="3.02235" height="2.90753" fill="#00FB87"/>
<rect x="40.1328" y="227.731" width="3.02235" height="2.90753" fill="#00FB87"/>
<rect x="63.707" y="227.731" width="3.02235" height="2.90753" fill="#00FB87"/>
<rect x="87.291" y="227.731" width="3.02235" height="2.90753" fill="#00FB87"/>
<rect x="110.855" y="227.731" width="3.02235" height="2.90753" fill="#00FB87"/>
<rect x="134.43" y="227.731" width="3.02235" height="2.90753" fill="#00FB87"/>
<rect x="157.994" y="227.731" width="3.02235" height="2.90753" fill="#00FB87"/>
<rect x="40.1328" y="250.408" width="3.02235" height="2.90753" fill="#00FB87"/>
<rect x="63.707" y="250.408" width="3.02235" height="2.90753" fill="#00FB87"/>
<rect x="87.291" y="250.408" width="3.02235" height="2.90753" fill="#00FB87"/>
<rect x="110.855" y="250.408" width="3.02235" height="2.90753" fill="#00FB87"/>
<rect x="134.43" y="250.408" width="3.02235" height="2.90753" fill="#00FB87"/>
<rect x="157.994" y="250.408" width="3.02235" height="2.90753" fill="#00FB87"/>
<rect x="181.602" y="0.105469" width="3.02235" height="2.90753" fill="#00FB87"/>
<rect x="205.176" y="0.105469" width="3.02235" height="2.90753" fill="#00FB87"/>
<rect x="228.76" y="0.105469" width="3.02235" height="2.90753" fill="#00FB87"/>
<rect x="252.324" y="0.105469" width="3.02235" height="2.90753" fill="#00FB87"/>
<rect x="275.898" y="0.105469" width="3.02235" height="2.90753" fill="#00FB87"/>
<rect x="299.463" y="0.105469" width="3.02235" height="2.90753" fill="#00FB87"/>
<rect x="181.602" y="22.7848" width="3.02235" height="2.90753" fill="#00FB87"/>
<rect x="205.176" y="22.7848" width="3.02235" height="2.90753" fill="#00FB87"/>
<rect x="228.76" y="22.7848" width="3.02235" height="2.90753" fill="#00FB87"/>
<rect x="252.324" y="22.7848" width="3.02235" height="2.90753" fill="#00FB87"/>
<rect x="275.898" y="22.7848" width="3.02235" height="2.90753" fill="#00FB87"/>
<rect x="299.463" y="22.7848" width="3.02235" height="2.90753" fill="#00FB87"/>
<rect x="181.602" y="45.4617" width="3.02235" height="2.90753" fill="#00FB87"/>
<rect x="205.176" y="45.4617" width="3.02235" height="2.90753" fill="#00FB87"/>
<rect x="228.76" y="45.4617" width="3.02235" height="2.90753" fill="#00FB87"/>
<rect x="252.324" y="45.4617" width="3.02235" height="2.90753" fill="#00FB87"/>
<rect x="275.898" y="45.4617" width="3.02235" height="2.90753" fill="#00FB87"/>
<rect x="299.463" y="45.4617" width="3.02235" height="2.90753" fill="#00FB87"/>
<rect x="181.602" y="68.1428" width="3.02235" height="2.90753" fill="#00FB87"/>
<rect x="205.176" y="68.1428" width="3.02235" height="2.90753" fill="#00FB87"/>
<rect x="228.76" y="68.1428" width="3.02235" height="2.90753" fill="#00FB87"/>
<rect x="252.324" y="68.1428" width="3.02235" height="2.90753" fill="#00FB87"/>
<rect x="275.898" y="68.1428" width="3.02235" height="2.90753" fill="#00FB87"/>
<rect x="299.463" y="68.1428" width="3.02235" height="2.90753" fill="#00FB87"/>
<rect x="181.602" y="90.8215" width="3.02235" height="2.90753" fill="#00FB87"/>
<rect x="205.176" y="90.8215" width="3.02235" height="2.90753" fill="#00FB87"/>
<rect x="228.76" y="90.8215" width="3.02235" height="2.90753" fill="#00FB87"/>
<rect x="252.324" y="90.8215" width="3.02235" height="2.90753" fill="#00FB87"/>
<rect x="275.898" y="90.8215" width="3.02235" height="2.90753" fill="#00FB87"/>
<rect x="299.463" y="90.8215" width="3.02235" height="2.90753" fill="#00FB87"/>
<rect x="181.602" y="113.501" width="3.02235" height="2.90753" fill="#00FB87"/>
<rect x="205.176" y="113.501" width="3.02235" height="2.90753" fill="#00FB87"/>
<rect x="228.76" y="113.501" width="3.02235" height="2.90753" fill="#00FB87"/>
<rect x="252.324" y="113.501" width="3.02235" height="2.90753" fill="#00FB87"/>
<rect x="275.898" y="113.501" width="3.02235" height="2.90753" fill="#00FB87"/>
<rect x="299.463" y="113.501" width="3.02235" height="2.90753" fill="#00FB87"/>
<rect x="181.602" y="136.178" width="3.02235" height="2.90753" fill="#00FB87"/>
<rect x="205.176" y="136.178" width="3.02235" height="2.90753" fill="#00FB87"/>
<rect x="228.76" y="136.178" width="3.02235" height="2.90753" fill="#00FB87"/>
<rect x="252.324" y="136.178" width="3.02235" height="2.90753" fill="#00FB87"/>
<rect x="275.898" y="136.178" width="3.02235" height="2.90753" fill="#00FB87"/>
<rect x="299.463" y="136.178" width="3.02235" height="2.90753" fill="#00FB87"/>
<rect x="181.602" y="158.857" width="3.02235" height="2.90753" fill="#00FB87"/>
<rect x="205.176" y="158.857" width="3.02235" height="2.90753" fill="#00FB87"/>
<rect x="228.76" y="158.857" width="3.02235" height="2.90753" fill="#00FB87"/>
<rect x="252.324" y="158.857" width="3.02235" height="2.90753" fill="#00FB87"/>
<rect x="275.898" y="158.857" width="3.02235" height="2.90753" fill="#00FB87"/>
<rect x="299.463" y="158.857" width="3.02235" height="2.90753" fill="#00FB87"/>
<rect x="181.602" y="181.537" width="3.02235" height="2.90753" fill="#00FB87"/>
<rect x="205.176" y="181.537" width="3.02235" height="2.90753" fill="#00FB87"/>
<rect x="228.76" y="181.537" width="3.02235" height="2.90753" fill="#00FB87"/>
<rect x="252.324" y="181.537" width="3.02235" height="2.90753" fill="#00FB87"/>
<rect x="275.898" y="181.537" width="3.02235" height="2.90753" fill="#00FB87"/>
<rect x="299.463" y="181.537" width="3.02235" height="2.90753" fill="#00FB87"/>
<rect x="181.602" y="205.054" width="3.02235" height="2.90753" fill="#00FB87"/>
<rect x="205.176" y="205.054" width="3.02235" height="2.90753" fill="#00FB87"/>
<rect x="228.76" y="205.054" width="3.02235" height="2.90753" fill="#00FB87"/>
<rect x="252.324" y="205.054" width="3.02235" height="2.90753" fill="#00FB87"/>
<rect x="275.898" y="205.054" width="3.02235" height="2.90753" fill="#00FB87"/>
<rect x="299.463" y="205.054" width="3.02235" height="2.90753" fill="#00FB87"/>
<rect x="181.602" y="227.732" width="3.02235" height="2.90753" fill="#00FB87"/>
<rect x="205.176" y="227.732" width="3.02235" height="2.90753" fill="#00FB87"/>
<rect x="228.76" y="227.732" width="3.02235" height="2.90753" fill="#00FB87"/>
<rect x="252.324" y="227.732" width="3.02235" height="2.90753" fill="#00FB87"/>
<rect x="275.898" y="227.732" width="3.02235" height="2.90753" fill="#00FB87"/>
<rect x="299.463" y="227.732" width="3.02235" height="2.90753" fill="#00FB87"/>
<rect x="181.602" y="250.409" width="3.02235" height="2.90753" fill="#00FB87"/>
<rect x="205.176" y="250.409" width="3.02235" height="2.90753" fill="#00FB87"/>
<rect x="228.76" y="250.409" width="3.02235" height="2.90753" fill="#00FB87"/>
<rect x="252.324" y="250.409" width="3.02235" height="2.90753" fill="#00FB87"/>
<rect x="275.898" y="250.409" width="3.02235" height="2.90753" fill="#00FB87"/>
<rect x="299.463" y="250.409" width="3.02235" height="2.90753" fill="#00FB87"/>
</mask>
<g mask="url(#mask0_6141_110487)">
<rect y="8.76343" width="346" height="244.35" rx="15" fill="url(#paint0_linear_6141_110487)"/>
</g>
<mask id="mask1_6141_110487" style="mask-type:alpha" maskUnits="userSpaceOnUse" x="0" y="0" width="346" height="255">
<rect y="0.105469" width="346" height="254" rx="15" fill="#232323"/>
</mask>
<g mask="url(#mask1_6141_110487)">
<path d="M126.627 248.116C123.093 241.25 117.573 225.315 123.772 216.505C131.522 205.492 179.039 213.038 204.531 221.196C209.018 230.577 213.912 247.708 214.32 266.878C218.807 269.121 225.129 278.91 224.721 297.673C224.558 305.177 227.1 316.027 228.392 320.514L214.32 331.526L183.526 241.182C173.952 240.847 152.931 238.877 144.348 233.674C154.18 239.96 158.111 252.539 158.849 258.109C160.277 266.538 165.293 284.988 173.94 291.35C170.188 293.145 161.092 297.129 157.014 298.896C148.634 287.34 130.825 261.005 126.627 248.116Z" fill="#F7FFC4"/>
</g>
<path d="M234.363 160.413C232.732 160.345 229.509 159.23 229.672 155.315C229.876 150.42 236.607 147.973 241.297 147.769C245.988 147.565 251.494 145.934 253.33 139.816M217.641 139.816C216.961 140.971 215.683 144.017 216.009 146.953C216.335 149.89 218.591 152.8 219.679 153.887C221.242 155.111 223.839 158.292 221.718 161.229C219.067 164.9 210.093 163.676 202.344 155.315M217.027 178.564C218.863 175.573 223.757 169.591 228.652 169.591C234.77 169.591 240.072 174.689 241.704 178.564M248.434 178.564C250.609 176.66 255.449 172.283 257.407 169.998" stroke="#E1FF26"/>
<path d="M195.819 169.183L195.004 173.057L205.812 176.524L206.423 167.143L207.239 166.124L210.706 162.657L212.134 159.19L210.706 154.907L209.279 152.868L207.035 151.032C205.812 150.488 202.793 149.482 200.509 149.808C197.654 150.216 195.004 152.256 192.148 152.46C189.292 152.664 189.905 154.295 191.537 155.927C185.174 165.226 191.741 168.639 195.819 169.183Z" fill="#FF8E8E"/>
<path d="M252.921 176.524C247.701 187.455 240.277 197.122 237.218 200.589C226.614 187.129 215.804 177.952 200.916 173.465C186.029 168.979 163.8 173.465 160.741 175.505C159.762 168.979 160.741 151.304 161.352 143.282L148.505 139.612C146.194 152.664 142.713 180.44 147.281 187.129C152.992 195.491 175.425 193.247 178.484 192.228C176.852 197.938 175.765 209.562 175.425 214.661L203.772 222.411C206.695 217.584 212.868 207.278 214.173 204.668C219.883 211.602 233.547 219.351 240.277 217.516C250.882 213.927 260.467 191.412 263.934 180.603C260.875 179.515 254.39 177.177 252.921 176.524Z" fill="#FBBC04"/>
<path d="M247.209 163.676C247.535 164.166 248.433 165.24 248.841 165.716V161.433C245.169 162.249 243.13 161.841 242.722 160.617C242.314 159.394 243.538 158.782 244.15 158.782C244.762 158.782 247.413 158.374 248.432 158.17C249.452 157.966 251.492 157.558 254.551 158.578C257.61 159.598 259.853 160.617 260.261 164.492C260.587 167.592 262.164 176.252 262.912 180.195L253.123 176.728V176.117C251.818 175.627 250.404 174.009 249.86 173.261C249.656 173.533 249.044 174.036 248.229 173.873C247.413 173.71 247.617 172.038 247.821 171.222C247.413 171.766 246.393 172.69 245.577 172.038C244.762 171.385 245.373 169.183 245.781 168.163C245.441 167.755 244.68 166.735 244.354 165.92C243.946 164.9 243.946 163.268 244.762 162.86C245.578 162.452 246.801 163.064 247.209 163.676Z" fill="#FF8E8E"/>
<circle cx="196.226" cy="154.295" r="3.17089" stroke="#232323"/>
<circle cx="196.225" cy="154.091" r="0.611815" fill="#232323"/>
<path d="M91.6055 125.132L93.033 84.9563L132.393 96.7847L131.373 127.579L149.728 131.454V136.145L91.6055 125.132Z" fill="#5A21AD"/>
<path d="M95.8887 117.79L96.5005 90.2585L129.946 100.252L129.131 124.52L95.8887 117.79Z" fill="#232323"/>
<mask id="mask2_6141_110487" style="mask-type:alpha" maskUnits="userSpaceOnUse" x="95" y="90" width="35" height="35">
<path d="M95.8848 117.79L96.4966 90.2583L129.942 100.251L129.127 124.52L95.8848 117.79Z" fill="black"/>
</mask>
<g mask="url(#mask2_6141_110487)">
<path d="M107.509 101.067C109.466 97.804 107.916 93.1814 106.897 91.278C109.004 92.0937 114.239 94.0515 118.317 95.3567C118.521 106.165 110.976 109.428 110.364 114.119C109.874 117.872 112.743 121.121 114.239 122.277C111.316 121.733 104.817 120.482 102.206 119.829C98.9431 110.856 105.061 105.146 107.509 101.067Z" fill="#E1FF26"/>
<path d="M121.988 105.554C124.109 102.617 122.872 97.9399 121.988 95.9685C122.94 96.2405 125.17 96.9474 126.475 97.6C127.495 109.021 121.173 111.264 119.949 114.935C118.97 117.872 122.396 123.772 124.232 126.355L119.541 125.54C119.133 125.268 117.869 123.378 116.074 117.994C113.831 111.264 119.337 109.225 121.988 105.554Z" fill="#E1FF26"/>
</g>
<path d="M263.833 164.315L237.829 160.209H235.178V161.637L237.421 162.453L263.445 166.725C264.147 166.841 264.799 166.332 264.859 165.622C264.912 164.985 264.464 164.415 263.833 164.315Z" fill="white"/>
<path d="M235.135 160.416L235.177 160.413V161.433L235.045 161.4C234.491 161.261 234.565 160.452 235.135 160.416Z" fill="#D9D9D9"/>
<path d="M157.886 133.698C159.028 136.145 160.401 140.971 160.945 143.079C156.934 142.331 148.87 140.55 148.707 139.408C146.464 137.368 147.28 134.105 147.688 132.27C144.017 130.434 139.734 132.066 138.306 131.862C137.164 131.699 137.287 130.57 137.491 130.027C137.015 130.366 135.9 130.842 135.247 130.027C134.595 129.211 136.199 127.919 137.083 127.375C136.199 127.443 134.432 127.375 134.432 126.56C134.432 125.54 137.083 124.52 141.366 124.316C144.792 124.153 149.183 126.152 150.951 127.171L149.727 122.889C146.94 123.229 141.285 123.46 140.959 121.665C140.551 119.422 147.485 120.034 149.32 120.034C151.156 120.034 153.195 120.646 153.603 122.889C154.011 125.132 156.458 130.639 157.886 133.698Z" fill="#FF8E8E"/>
<path d="M200.712 148.789C200.549 152.541 204.315 153.615 206.218 153.683C204.26 155.315 203.772 157.762 203.772 158.782C205.948 157.762 210.299 156.416 210.299 159.19C210.299 162.657 205.2 164.288 203.772 163.676C203.772 165.92 207.647 170.61 210.706 165.92C213.765 161.229 213.765 156.743 211.114 152.256C208.463 147.769 200.917 146.342 200.712 148.789Z" fill="#3E3E3E"/>
<path d="M199.489 155.519L204.791 157.762M190.107 162.045C191.195 162.929 194.105 164.084 197.041 161.637" stroke="#232323"/>
<path d="M198.672 149.401L199.692 153.275" stroke="#232323" stroke-width="3"/>
<path d="M245.17 162.657C244.684 162.711 244.286 163.473 244.15 163.88C244.927 164.114 247.444 166.535 248.637 166.939C249.531 167.242 249.325 165.658 249.045 165.308C248.229 164.288 247.006 162.453 245.17 162.657Z" fill="#FF8E8E"/>
<path d="M242.928 161.025C243.608 161.433 245.497 162.126 247.618 161.637C249.739 161.148 245.375 161.025 242.928 161.025Z" fill="#FF8E8E"/>
<path d="M248.025 163.676C248.841 165.036 251.248 168.652 253.532 169.794" stroke="#232323"/>
<path d="M137.287 127.171C139.462 126.559 144.751 125.907 148.504 128.191M137.287 130.026C138.647 129.211 142.63 128.069 147.688 130.026" stroke="#232323"/>
<path d="M102 58.7644V41.1545H120.307V45.4957H113.283V47.9728H119.889V51.9216H106.179V54.4233H120.307V58.7644H102Z" fill="#E1FF26"/>
<path d="M145.146 58.7644V41.1545H162.25C165.99 41.1545 168.268 43.6072 168.268 47.7766C168.268 51.9216 165.99 54.3987 162.25 54.3987H150.056V58.7644H145.146ZM150.056 49.5671H161.08C162.48 49.5671 163.149 49.2237 163.149 47.7766C163.149 46.3296 162.48 46.0107 161.08 46.0107L150.056 46.0107V49.5671Z" fill="#E1FF26"/>
<path d="M128.327 41.1056H121.641L125.819 49.935L121.641 58.7645H128.327L132.505 49.935L128.327 41.1056Z" fill="#E1FF26"/>
<path d="M137.107 41.1056H143.793L139.614 49.935L143.793 58.7645H137.107L132.928 49.935L137.107 41.1056Z" fill="#E1FF26"/>
<path d="M169.768 59.0041V54.5419H174.894V59.0041H169.768Z" fill="#E1FF26"/>
<path d="M176.959 59.0041V41.4005H181.896V54.1496H196.203V59.0041H176.959Z" fill="#E1FF26"/>
<path d="M197.309 59.0041L205.04 41.4005H211.343L219.053 59.0041H213.78L212.456 55.7432H203.906L202.561 59.0041H197.309ZM205.587 51.5998H210.755L208.171 45.2988L205.587 51.5998Z" fill="#E1FF26"/>
<path d="M220.303 59.0041V41.4005H237.97C241.899 41.4005 243.138 43.1658 243.138 45.7156C243.138 47.8241 242.088 49.148 240.533 49.7855C242.424 50.3494 244 51.5753 244 54.1496C244 57.0182 242.529 59.0041 238.832 59.0041H220.303ZM225.24 54.8361H237.256C238.16 54.8361 238.874 54.7626 238.874 53.3896C238.874 52.0166 238.118 51.943 237.256 51.943H225.24V54.8361ZM230.267 48.437H234.084C235.113 48.437 235.87 48.339 235.87 46.966C235.87 45.642 235.155 45.5685 234.084 45.5685H230.267V48.437Z" fill="#E1FF26"/>
<path d="M149.432 69.8947V64.7187H152.416C153.109 64.7187 153.635 64.836 153.992 65.0707C154.355 65.3 154.536 65.644 154.536 66.1027C154.536 66.396 154.464 66.628 154.32 66.7987C154.176 66.964 153.971 67.0867 153.704 67.1667C153.443 67.2467 153.133 67.2973 152.776 67.3187L152.808 67.2627C153.069 67.268 153.315 67.2867 153.544 67.3187C153.779 67.3507 153.984 67.4093 154.16 67.4947C154.336 67.58 154.475 67.7 154.576 67.8547C154.677 68.004 154.728 68.2013 154.728 68.4467C154.728 68.7667 154.643 69.0333 154.472 69.2467C154.301 69.4547 154.064 69.612 153.76 69.7187C153.456 69.8253 153.104 69.884 152.704 69.8947H149.432ZM150.496 69.0147H152.592C152.928 69.0147 153.187 68.9613 153.368 68.8547C153.549 68.7427 153.64 68.5667 153.64 68.3267C153.64 68.1507 153.587 68.0227 153.48 67.9427C153.373 67.8627 153.232 67.8147 153.056 67.7987C152.88 67.7773 152.691 67.7667 152.488 67.7667H150.496V69.0147ZM150.496 66.9107H152.376C152.712 66.9107 152.971 66.8627 153.152 66.7667C153.333 66.6653 153.424 66.4947 153.424 66.2547C153.424 66.0147 153.333 65.8467 153.152 65.7507C152.971 65.6493 152.731 65.5987 152.432 65.5987H150.496V66.9107ZM160.717 64.7187L158.445 68.2627V69.8947H157.373V68.2627L155.101 64.7187H156.333L158.245 67.8147H157.605L159.485 64.7187H160.717ZM169.456 68.0307C169.408 68.4467 169.262 68.8013 169.016 69.0947C168.771 69.388 168.438 69.612 168.016 69.7667C167.595 69.9213 167.094 69.9987 166.512 69.9987C166.027 69.9987 165.582 69.9427 165.176 69.8307C164.776 69.7187 164.43 69.5507 164.136 69.3267C163.848 69.1027 163.624 68.8253 163.464 68.4947C163.304 68.1587 163.224 67.7667 163.224 67.3187C163.224 66.8707 163.304 66.4787 163.464 66.1427C163.624 65.8067 163.848 65.5267 164.136 65.3027C164.43 65.0733 164.776 64.9027 165.176 64.7907C165.582 64.6733 166.027 64.6147 166.512 64.6147C167.094 64.6147 167.595 64.6947 168.016 64.8547C168.443 65.0147 168.779 65.244 169.024 65.5427C169.27 65.836 169.414 66.1933 169.456 66.6147H168.4C168.331 66.3907 168.214 66.1987 168.048 66.0387C167.888 65.8733 167.68 65.748 167.424 65.6627C167.168 65.5773 166.864 65.5347 166.512 65.5347C166.075 65.5347 165.691 65.604 165.36 65.7427C165.03 65.876 164.774 66.076 164.592 66.3427C164.411 66.604 164.32 66.9293 164.32 67.3187C164.32 67.7027 164.411 68.0253 164.592 68.2867C164.774 68.548 165.03 68.748 165.36 68.8867C165.691 69.02 166.075 69.0867 166.512 69.0867C166.864 69.0867 167.166 69.044 167.416 68.9587C167.672 68.8733 167.88 68.7507 168.04 68.5907C168.206 68.4307 168.326 68.244 168.4 68.0307H169.456ZM173.575 69.9987C172.887 69.9987 172.297 69.892 171.807 69.6787C171.321 69.46 170.948 69.1507 170.687 68.7507C170.431 68.3507 170.303 67.8707 170.303 67.3107C170.303 66.7453 170.431 66.2627 170.687 65.8627C170.948 65.4627 171.321 65.156 171.807 64.9427C172.297 64.724 172.887 64.6147 173.575 64.6147C174.268 64.6147 174.857 64.724 175.343 64.9427C175.828 65.156 176.199 65.4627 176.455 65.8627C176.716 66.2627 176.847 66.7453 176.847 67.3107C176.847 67.8707 176.716 68.3507 176.455 68.7507C176.199 69.1507 175.828 69.46 175.343 69.6787C174.857 69.892 174.268 69.9987 173.575 69.9987ZM173.575 69.0787C174.001 69.0787 174.375 69.0147 174.695 68.8867C175.02 68.7587 175.273 68.564 175.455 68.3027C175.641 68.0413 175.735 67.7107 175.735 67.3107C175.735 66.9107 175.641 66.58 175.455 66.3187C175.273 66.0573 175.02 65.8627 174.695 65.7347C174.375 65.6013 174.001 65.5347 173.575 65.5347C173.153 65.5347 172.777 65.6013 172.447 65.7347C172.116 65.8627 171.857 66.0573 171.671 66.3187C171.484 66.58 171.391 66.9107 171.391 67.3107C171.391 67.7107 171.484 68.0413 171.671 68.3027C171.857 68.564 172.116 68.7587 172.447 68.8867C172.777 69.0147 173.153 69.0787 173.575 69.0787ZM178.435 68.7667V67.8787H181.859V68.7667H178.435ZM177.147 69.8947L179.579 64.7187H180.731L183.187 69.8947H182.027L179.899 65.2307H180.411L178.299 69.8947H177.147ZM183.526 68.1507H184.606C184.627 68.332 184.71 68.4973 184.854 68.6467C185.003 68.7907 185.198 68.9053 185.438 68.9907C185.678 69.0707 185.947 69.1107 186.246 69.1107C186.518 69.1107 186.742 69.0813 186.918 69.0227C187.094 68.964 187.224 68.8813 187.31 68.7747C187.395 68.668 187.438 68.54 187.438 68.3907C187.438 68.2467 187.384 68.1373 187.278 68.0627C187.171 67.9827 187.003 67.9187 186.774 67.8707C186.544 67.8173 186.243 67.764 185.87 67.7107C185.576 67.668 185.299 67.6093 185.038 67.5347C184.776 67.4547 184.544 67.3533 184.342 67.2307C184.144 67.108 183.987 66.9587 183.87 66.7827C183.758 66.6013 183.702 66.388 183.702 66.1427C183.702 65.8387 183.787 65.572 183.958 65.3427C184.134 65.1133 184.392 64.9347 184.734 64.8067C185.075 64.6787 185.494 64.6147 185.99 64.6147C186.736 64.6147 187.31 64.7747 187.71 65.0947C188.115 65.4093 188.312 65.844 188.302 66.3987H187.262C187.24 66.084 187.107 65.8573 186.862 65.7187C186.622 65.58 186.318 65.5107 185.95 65.5107C185.608 65.5107 185.326 65.5613 185.102 65.6627C184.883 65.764 184.774 65.9373 184.774 66.1827C184.774 66.2787 184.8 66.364 184.854 66.4387C184.907 66.508 184.998 66.5693 185.126 66.6227C185.254 66.676 185.427 66.7267 185.646 66.7747C185.864 66.8227 186.136 66.8707 186.462 66.9187C186.766 66.9613 187.04 67.02 187.286 67.0947C187.536 67.164 187.75 67.2573 187.926 67.3747C188.107 67.4867 188.246 67.6307 188.342 67.8067C188.438 67.9827 188.486 68.1987 188.486 68.4547C188.486 68.7693 188.403 69.044 188.238 69.2787C188.078 69.508 187.827 69.6867 187.486 69.8147C187.15 69.9427 186.712 70.0067 186.174 70.0067C185.79 70.0067 185.451 69.9667 185.158 69.8867C184.864 69.8013 184.611 69.6893 184.398 69.5507C184.184 69.412 184.011 69.26 183.878 69.0947C183.744 68.9293 183.648 68.764 183.59 68.5987C183.536 68.4333 183.515 68.284 183.526 68.1507ZM189.576 64.7187H190.64V69.8947H189.576V64.7187ZM191.674 68.1507H192.754C192.775 68.332 192.858 68.4973 193.002 68.6467C193.151 68.7907 193.346 68.9053 193.586 68.9907C193.826 69.0707 194.095 69.1107 194.394 69.1107C194.666 69.1107 194.89 69.0813 195.066 69.0227C195.242 68.964 195.373 68.8813 195.458 68.7747C195.543 68.668 195.586 68.54 195.586 68.3907C195.586 68.2467 195.533 68.1373 195.426 68.0627C195.319 67.9827 195.151 67.9187 194.922 67.8707C194.693 67.8173 194.391 67.764 194.018 67.7107C193.725 67.668 193.447 67.6093 193.186 67.5347C192.925 67.4547 192.693 67.3533 192.49 67.2307C192.293 67.108 192.135 66.9587 192.018 66.7827C191.906 66.6013 191.85 66.388 191.85 66.1427C191.85 65.8387 191.935 65.572 192.106 65.3427C192.282 65.1133 192.541 64.9347 192.882 64.8067C193.223 64.6787 193.642 64.6147 194.138 64.6147C194.885 64.6147 195.458 64.7747 195.858 65.0947C196.263 65.4093 196.461 65.844 196.45 66.3987H195.41C195.389 66.084 195.255 65.8573 195.01 65.7187C194.77 65.58 194.466 65.5107 194.098 65.5107C193.757 65.5107 193.474 65.5613 193.25 65.6627C193.031 65.764 192.922 65.9373 192.922 66.1827C192.922 66.2787 192.949 66.364 193.002 66.4387C193.055 66.508 193.146 66.5693 193.274 66.6227C193.402 66.676 193.575 66.7267 193.794 66.7747C194.013 66.8227 194.285 66.8707 194.61 66.9187C194.914 66.9613 195.189 67.02 195.434 67.0947C195.685 67.164 195.898 67.2573 196.074 67.3747C196.255 67.4867 196.394 67.6307 196.49 67.8067C196.586 67.9827 196.634 68.1987 196.634 68.4547C196.634 68.7693 196.551 69.044 196.386 69.2787C196.226 69.508 195.975 69.6867 195.634 69.8147C195.298 69.9427 194.861 70.0067 194.322 70.0067C193.938 70.0067 193.599 69.9667 193.306 69.8867C193.013 69.8013 192.759 69.6893 192.546 69.5507C192.333 69.412 192.159 69.26 192.026 69.0947C191.893 68.9293 191.797 68.764 191.738 68.5987C191.685 68.4333 191.663 68.284 191.674 68.1507Z" fill="#E1FF26"/>
<defs>
<linearGradient id="paint0_linear_6141_110487" x1="9.35998" y1="12.9027" x2="151.336" y2="318.324" gradientUnits="userSpaceOnUse">
<stop offset="0.025" stop-color="#232323"/>
<stop offset="0.525" stop-color="#595959" stop-opacity="0.2"/>
<stop offset="1" stop-color="#898989" stop-opacity="0"/>
</linearGradient>
</defs>
</svg>
