<svg width="33" height="31" viewBox="0 0 33 31" fill="none" xmlns="http://www.w3.org/2000/svg">
<circle cx="17.1612" cy="16.0233" r="1.64395" transform="rotate(43.0054 17.1612 16.0233)" stroke="#014F59"/>
<path d="M21.7852 21.372L21.7852 26.0108L12.3722 26.0108C12.3722 26.0108 12.4385 23.1266 12.3722 21.2235M21.7852 21.372C19.8614 20.8436 15.2855 20.074 12.3722 21.2235M21.7852 21.372L24.4428 15.4738L16.7812 3M12.3722 21.2235L9.70315 15.838L16.7812 3M16.7812 3L17.1699 14.1624" stroke="#014F59"/>
<path d="M31 16.5C31 8.49187 24.5081 2 16.5 2C8.49187 2 2 8.49187 2 16.5" stroke="#014F59"/>
<rect x="15.5" y="0.5" width="3" height="3" fill="white" stroke="#014F59"/>
<rect x="29.5" y="13.5" width="3" height="3" fill="white" stroke="#014F59"/>
<rect x="0.5" y="13.5" width="3" height="3" fill="white" stroke="#014F59"/>
</svg>
