<svg width="335" height="178" viewBox="0 0 335 178" fill="none" xmlns="http://www.w3.org/2000/svg">
<g clip-path="url(#clip0_6150_112470)">
<g filter="url(#filter0_f_6150_112470)">
<path d="M89.9506 101.498C97.2314 101.498 103.134 95.9016 103.134 88.9982C103.134 82.0948 97.2314 76.4985 89.9506 76.4985C82.6698 76.4985 76.7676 82.0948 76.7676 88.9982C76.7676 95.9016 82.6698 101.498 89.9506 101.498Z" fill="white"/>
</g>
<g filter="url(#filter1_d_6150_112470)">
<path d="M110.343 68.918H68.9831C57.4354 68.918 48.0742 78.2496 48.0742 89.7607C48.0742 101.272 57.4354 110.603 68.9831 110.603H110.343C121.891 110.603 131.252 101.272 131.252 89.7607C131.252 78.2496 121.891 68.918 110.343 68.918Z" fill="#0D0D0D"/>
<path d="M110.343 69.0132H68.9834C57.4884 69.0132 48.1699 78.3022 48.1699 89.7608C48.1699 101.219 57.4884 110.508 68.9834 110.508H110.343C121.838 110.508 131.157 101.219 131.157 89.7608C131.157 78.3022 121.838 69.0132 110.343 69.0132Z" stroke="url(#paint0_linear_6150_112470)" stroke-width="0.25"/>
<path d="M68.1689 98.4323H66.2357C64.6342 98.4323 63.3359 97.1383 63.3359 95.5417V89.1671C63.3359 88.6582 63.5375 88.1706 63.8967 87.8093L67.8406 83.8469C69.353 82.3271 71.8178 82.3271 73.3302 83.8469L77.2739 87.8093C77.6333 88.1706 77.8348 88.6582 77.8348 89.1671V95.5417C77.8348 97.1383 76.5368 98.4323 74.935 98.4323H73.347M68.1689 98.4323V91.148H73.347V98.4323M68.1689 98.4323H73.347" stroke="#00EF8E" stroke-linejoin="round"/>
<path d="M87.9785 85.9604H88.9934V89.2299H93.0104V85.9604H94.0253V93.5642H93.0104V90.0818H88.9934V93.5642H87.9785V85.9604ZM96.2017 90.8167C96.2017 91.1506 96.2444 91.4488 96.3299 91.7112C96.4222 91.9668 96.5466 92.1836 96.7038 92.3608C96.8602 92.5312 97.0418 92.6628 97.2486 92.7549C97.4623 92.8469 97.6866 92.8933 97.9217 92.8933C98.1567 92.8933 98.3772 92.8469 98.584 92.7549C98.7977 92.6628 98.9824 92.5312 99.1396 92.3608C99.296 92.1836 99.4174 91.9668 99.5028 91.7112C99.5952 91.4488 99.6417 91.1506 99.6417 90.8167C99.6417 90.4827 99.5952 90.1883 99.5028 89.9327C99.4174 89.6703 99.296 89.4497 99.1396 89.2725C98.9824 89.0952 98.7977 88.9598 98.584 88.8678C98.3772 88.7757 98.1567 88.7293 97.9217 88.7293C97.6866 88.7293 97.4623 88.7757 97.2486 88.8678C97.0418 88.9598 96.8602 89.0952 96.7038 89.2725C96.5466 89.4497 96.4222 89.6703 96.3299 89.9327C96.2444 90.1883 96.2017 90.4827 96.2017 90.8167ZM95.2402 90.8167C95.2402 90.412 95.2966 90.0354 95.4111 89.6878C95.5248 89.3326 95.6957 89.0275 95.9239 88.7719C96.1513 88.5095 96.4329 88.3034 96.7679 88.1543C97.1021 88.0052 97.4867 87.9306 97.9217 87.9306C98.3628 87.9306 98.7474 88.0052 99.0755 88.1543C99.4097 88.3034 99.6913 88.5095 99.9195 88.7719C100.147 89.0275 100.318 89.3326 100.432 89.6878C100.546 90.0354 100.603 90.412 100.603 90.8167C100.603 91.2213 100.546 91.5979 100.432 91.9455C100.318 92.2931 100.147 92.5989 99.9195 92.8614C99.6913 93.117 99.4097 93.3193 99.0755 93.4684C98.7474 93.6106 98.3628 93.6814 97.9217 93.6814C97.4867 93.6814 97.1021 93.6106 96.7679 93.4684C96.4329 93.3193 96.1513 93.117 95.9239 92.8614C95.6957 92.5989 95.5248 92.2931 95.4111 91.9455C95.2966 91.5979 95.2402 91.2213 95.2402 90.8167ZM101.674 88.0584H102.529V88.8678H102.55C102.963 88.2433 103.557 87.9306 104.334 87.9306C104.676 87.9306 104.986 88.0014 105.263 88.1436C105.541 88.2859 105.737 88.527 105.851 88.8678C106.036 88.5696 106.278 88.3391 106.578 88.1756C106.884 88.012 107.219 87.9306 107.582 87.9306C107.86 87.9306 108.108 87.9626 108.33 88.0265C108.557 88.0835 108.749 88.1756 108.906 88.3034C109.07 88.4312 109.195 88.5977 109.28 88.8039C109.373 89.0024 109.419 89.2443 109.419 89.5281V93.5642H108.511V89.954C108.511 89.7836 108.497 89.6239 108.468 89.4748C108.439 89.3257 108.386 89.1979 108.308 89.0914C108.23 88.9781 108.119 88.8891 107.977 88.8252C107.841 88.7613 107.663 88.7293 107.443 88.7293C106.994 88.7293 106.642 88.8571 106.385 89.1127C106.129 89.3683 106.001 89.7091 106.001 90.1351V93.5642H105.093V89.954C105.093 89.7768 105.074 89.6133 105.039 89.4642C105.01 89.3151 104.957 89.1873 104.879 89.0808C104.8 88.9674 104.693 88.8822 104.558 88.8252C104.43 88.7613 104.262 88.7293 104.056 88.7293C103.792 88.7293 103.565 88.7826 103.372 88.8891C103.187 88.9956 103.034 89.1234 102.913 89.2725C102.799 89.4216 102.713 89.5775 102.657 89.741C102.606 89.897 102.582 90.0286 102.582 90.1351V93.5642H101.674V88.0584ZM114.617 90.2842C114.603 90.0712 114.553 89.8688 114.467 89.6772C114.389 89.4855 114.279 89.3219 114.136 89.1873C114.001 89.045 113.837 88.9355 113.645 88.8571C113.46 88.7719 113.253 88.7293 113.025 88.7293C112.79 88.7293 112.576 88.7719 112.384 88.8571C112.199 88.9355 112.039 89.045 111.903 89.1873C111.768 89.3295 111.661 89.4961 111.583 89.6878C111.505 89.8726 111.458 90.0712 111.444 90.2842H114.617ZM115.493 91.8177C115.372 92.4354 115.105 92.9002 114.692 93.2128C114.279 93.5255 113.759 93.6814 113.132 93.6814C112.691 93.6814 112.306 93.6106 111.978 93.4684C111.657 93.3262 111.387 93.1276 111.166 92.872C110.945 92.6164 110.778 92.3114 110.664 91.9562C110.557 91.6009 110.497 91.2145 110.482 90.7954C110.482 90.3762 110.546 89.9928 110.675 89.6452C110.803 89.2976 110.981 88.9956 111.209 88.74C111.444 88.4844 111.718 88.2859 112.031 88.1436C112.352 88.0014 112.701 87.9306 113.078 87.9306C113.57 87.9306 113.976 88.0333 114.296 88.2395C114.624 88.438 114.884 88.6936 115.076 89.0062C115.276 89.3189 115.411 89.6597 115.482 90.0286C115.561 90.3975 115.593 90.749 115.578 91.0829H111.444C111.437 91.324 111.465 91.5553 111.529 91.7751C111.593 91.9881 111.697 92.1798 111.839 92.3502C111.982 92.5137 112.163 92.6446 112.384 92.7442C112.605 92.8439 112.865 92.8933 113.164 92.8933C113.548 92.8933 113.862 92.8043 114.104 92.6271C114.353 92.4498 114.518 92.1798 114.595 91.8177H115.493Z" fill="white"/>
</g>
<path d="M163.837 68.9575H163.664C152.138 68.9575 142.795 78.2713 142.795 89.7604C142.795 101.25 152.138 110.563 163.664 110.563H163.837C175.363 110.563 184.706 101.25 184.706 89.7604C184.706 78.2713 175.363 68.9575 163.837 68.9575Z" fill="#131313"/>
<path d="M163.837 68.9575H163.664C152.138 68.9575 142.795 78.2713 142.795 89.7604C142.795 101.25 152.138 110.563 163.664 110.563H163.837C175.363 110.563 184.706 101.25 184.706 89.7604C184.706 78.2713 175.363 68.9575 163.837 68.9575Z" stroke="url(#paint1_linear_6150_112470)" stroke-width="0.25"/>
<path d="M163.752 86.5286H163.823L163.878 86.4799C163.945 86.4206 164.01 86.3628 164.072 86.3057C164.202 86.1886 164.326 86.076 164.46 85.9672C165.056 85.4812 165.717 85.0902 166.483 84.8445C167.619 84.4801 168.725 84.5364 169.793 85.024C170.424 85.3108 170.994 85.1967 171.416 85.1115C171.467 85.1008 171.514 85.0917 171.56 85.0833C171.789 85.04 171.935 85.0301 172.044 85.0719C172.134 85.1061 172.238 85.1936 172.324 85.4652C172.356 85.5641 172.38 85.7999 172.392 86.1346C172.404 86.4602 172.403 86.8534 172.396 87.249C172.382 88.0424 172.341 88.8343 172.316 89.0929C172.24 89.8916 171.976 90.6454 171.547 91.3582L171.546 91.359C171.198 91.9394 170.749 92.4696 170.253 92.9807C169.268 94.0008 168.13 94.8863 166.904 95.6979C165.901 96.3627 164.847 96.966 163.757 97.5251C162.648 96.9515 161.572 96.3407 160.55 95.6622C159.617 95.0414 158.737 94.3758 157.933 93.6372C157.233 92.9944 156.6 92.3205 156.098 91.5636C155.633 90.8607 155.336 90.113 155.223 89.3127C155.178 89.0009 155.121 88.1839 155.104 87.3623C155.096 86.9523 155.098 86.5461 155.116 86.2046C155.133 85.8554 155.167 85.5983 155.213 85.472C155.326 85.1594 155.465 85.0149 155.613 84.9418C155.771 84.8643 155.971 84.8498 156.243 84.8665C156.342 84.8726 156.449 84.8833 156.563 84.8939C157.05 84.9418 157.666 85.0012 158.338 84.7905C159.312 84.4854 160.284 84.5577 161.241 84.9114C162.072 85.2195 162.773 85.6873 163.393 86.2578C163.444 86.305 163.492 86.3514 163.54 86.4001C163.565 86.4244 163.59 86.4488 163.616 86.4739L163.672 86.5286H163.749H163.752Z" fill="#0D0D0D" stroke="white" stroke-width="0.5"/>
<path d="M163.752 83.8781H163.824L163.878 83.8317C163.945 83.7731 164.01 83.7161 164.072 83.6606C164.202 83.5449 164.326 83.4346 164.46 83.3281C165.056 82.8512 165.717 82.467 166.483 82.2259C167.62 81.8684 168.726 81.9232 169.795 82.4024C171.03 82.9546 171.821 83.8005 172.187 84.9248C172.341 85.398 172.367 85.8871 172.317 86.3922C172.242 87.1749 171.977 87.9135 171.548 88.6126C171.2 89.1824 170.751 89.7034 170.256 90.2047C169.271 91.2058 168.133 92.0752 166.907 92.8717C165.903 93.5243 164.848 94.1169 163.759 94.6654C162.649 94.1032 161.572 93.503 160.55 92.8367C159.616 92.2274 158.737 91.5739 157.933 90.849C157.233 90.2184 156.6 89.5566 156.098 88.8142C155.633 88.1242 155.337 87.3909 155.223 86.6067C155.134 85.9928 155.149 85.3964 155.362 84.8206C155.835 83.5328 156.817 82.6412 158.338 82.1727C159.313 81.8729 160.286 81.9445 161.243 82.2921C162.075 82.5941 162.776 83.0535 163.395 83.6126L163.396 83.6134C163.446 83.659 163.494 83.7047 163.543 83.7526C163.567 83.7762 163.592 83.8005 163.618 83.8256L163.674 83.8781H163.75H163.752Z" fill="#0D0D0D" stroke="white" stroke-width="0.5"/>
<path d="M163.756 94.6846V97.7273" stroke="white" stroke-width="0.5" stroke-linejoin="round"/>
<path d="M218.76 68.937H217.234C205.696 68.937 196.344 78.2601 196.344 89.7607C196.344 101.261 205.696 110.584 217.234 110.584H218.76C230.297 110.584 239.65 101.261 239.65 89.7607C239.65 78.2601 230.297 68.937 218.76 68.937Z" fill="#131313"/>
<path d="M218.76 68.937H217.234C205.696 68.937 196.344 78.2601 196.344 89.7607C196.344 101.261 205.696 110.584 217.234 110.584H218.76C230.297 110.584 239.65 101.261 239.65 89.7607C239.65 78.2601 230.297 68.937 218.76 68.937Z" stroke="url(#paint2_linear_6150_112470)" stroke-width="0.25"/>
<path d="M215.61 94.0967V94.6748C215.61 95.2879 215.862 95.8759 216.309 96.3102C216.756 96.7438 217.364 96.9873 217.996 96.9873C218.629 96.9873 219.235 96.7438 219.683 96.3102C220.13 95.8759 220.382 95.2879 220.382 94.6748V94.0967M212.643 87.7373C212.642 87.052 212.781 86.3727 213.052 85.739C213.323 85.1061 213.72 84.5311 214.222 84.0473C214.723 83.5635 215.318 83.1808 215.973 82.9215C216.628 82.6613 217.329 82.5305 218.037 82.5343C220.989 82.5556 223.35 84.9335 223.35 87.8028V88.3155C223.35 90.9033 223.909 92.4057 224.401 93.2264C224.453 93.3139 224.482 93.4136 224.482 93.5155C224.483 93.6174 224.456 93.7171 224.404 93.8053C224.352 93.8936 224.276 93.9673 224.186 94.0183C224.096 94.0693 223.993 94.0967 223.887 94.0967H212.104C212 94.0967 211.897 94.0693 211.806 94.0183C211.715 93.9673 211.64 93.8936 211.588 93.8053C211.536 93.7171 211.509 93.6174 211.51 93.5155C211.511 93.4136 211.539 93.3139 211.591 93.2264C212.084 92.4057 212.643 90.9033 212.643 88.3155V87.7373Z" stroke="white" stroke-width="0.5" stroke-linecap="round" stroke-linejoin="round"/>
<path d="M273.514 68.75H272.362C260.722 68.75 251.285 78.1567 251.285 89.7605C251.285 101.364 260.722 110.771 272.362 110.771H273.514C285.154 110.771 294.591 101.364 294.591 89.7605C294.591 78.1567 285.154 68.75 273.514 68.75Z" fill="#131313"/>
<path d="M273.514 68.75H272.362C260.722 68.75 251.285 78.1567 251.285 89.7605C251.285 101.364 260.722 110.771 272.362 110.771H273.514C285.154 110.771 294.591 101.364 294.591 89.7605C294.591 78.1567 285.154 68.75 273.514 68.75Z" stroke="url(#paint3_linear_6150_112470)" stroke-width="0.25"/>
<path d="M272.938 89.1902C274.781 89.1902 276.275 87.701 276.275 85.8639C276.275 84.0268 274.781 82.5376 272.938 82.5376C271.096 82.5376 269.602 84.0268 269.602 85.8639C269.602 87.701 271.096 89.1902 272.938 89.1902Z" stroke="white" stroke-width="0.5"/>
<path d="M279.234 93.6575C279.234 94.5262 278.581 95.3546 277.434 95.9768C276.293 96.5953 274.704 96.984 272.938 96.984C271.172 96.984 269.584 96.5953 268.443 95.9768C267.294 95.3546 266.643 94.5262 266.643 93.6575C266.643 92.7888 267.294 91.9604 268.443 91.3382C269.584 90.7198 271.172 90.3311 272.938 90.3311C274.704 90.3311 276.293 90.7198 277.434 91.3382C278.581 91.9604 279.234 92.7888 279.234 93.6575Z" stroke="white" stroke-width="0.5"/>
</g>
<defs>
<filter id="filter0_f_6150_112470" x="-23.2324" y="-23.5015" width="226.365" height="225" filterUnits="userSpaceOnUse" color-interpolation-filters="sRGB">
<feFlood flood-opacity="0" result="BackgroundImageFix"/>
<feBlend mode="normal" in="SourceGraphic" in2="BackgroundImageFix" result="shape"/>
<feGaussianBlur stdDeviation="50" result="effect1_foregroundBlur_6150_112470"/>
</filter>
<filter id="filter1_d_6150_112470" x="35.0449" y="58.8882" width="101.236" height="59.7451" filterUnits="userSpaceOnUse" color-interpolation-filters="sRGB">
<feFlood flood-opacity="0" result="BackgroundImageFix"/>
<feColorMatrix in="SourceAlpha" type="matrix" values="0 0 0 0 0 0 0 0 0 0 0 0 0 0 0 0 0 0 127 0" result="hardAlpha"/>
<feOffset dx="-4" dy="-1"/>
<feGaussianBlur stdDeviation="4.5"/>
<feComposite in2="hardAlpha" operator="out"/>
<feColorMatrix type="matrix" values="0 0 0 0 0 0 0 0 0 0 0 0 0 0 0 0 0 0 0.12 0"/>
<feBlend mode="normal" in2="BackgroundImageFix" result="effect1_dropShadow_6150_112470"/>
<feBlend mode="normal" in="SourceGraphic" in2="effect1_dropShadow_6150_112470" result="shape"/>
</filter>
<linearGradient id="paint0_linear_6150_112470" x1="131.252" y1="110.603" x2="48.0745" y2="110.603" gradientUnits="userSpaceOnUse">
<stop offset="0.025" stop-color="#7C7C7C" stop-opacity="0"/>
<stop offset="0.53" stop-color="#7C7C7C"/>
<stop offset="1" stop-color="#7C7C7C" stop-opacity="0"/>
</linearGradient>
<linearGradient id="paint1_linear_6150_112470" x1="149.452" y1="51.7286" x2="193.546" y2="59.5842" gradientUnits="userSpaceOnUse">
<stop stop-color="#535353" stop-opacity="0.46"/>
<stop offset="1" stop-color="#424242" stop-opacity="0.22"/>
</linearGradient>
<linearGradient id="paint2_linear_6150_112470" x1="203.225" y1="51.691" x2="248.687" y2="60.0505" gradientUnits="userSpaceOnUse">
<stop stop-color="#535353" stop-opacity="0.46"/>
<stop offset="1" stop-color="#424242" stop-opacity="0.22"/>
</linearGradient>
<linearGradient id="paint3_linear_6150_112470" x1="258.166" y1="51.3508" x2="303.655" y2="59.641" gradientUnits="userSpaceOnUse">
<stop stop-color="#535353" stop-opacity="0.46"/>
<stop offset="1" stop-color="#424242" stop-opacity="0.22"/>
</linearGradient>
<clipPath id="clip0_6150_112470">
<rect width="335" height="178" fill="white"/>
</clipPath>
</defs>
</svg>
