<svg width="25" height="25" viewBox="0 0 25 25" fill="none" xmlns="http://www.w3.org/2000/svg">
<path d="M20.9512 12.6581V22.6581H4.95117V12.6581" stroke="#014F59" stroke-width="2" stroke-linecap="round" stroke-linejoin="round"/>
<path d="M22.9512 7.65808H2.95117V12.6581H22.9512V7.65808Z" stroke="#014F59" stroke-width="2" stroke-linecap="round" stroke-linejoin="round"/>
<path d="M12.9512 22.6581V7.65808" stroke="#014F59" stroke-width="2" stroke-linecap="round" stroke-linejoin="round"/>
<path d="M12.9512 7.65808H8.45117C7.78813 7.65808 7.15225 7.39469 6.6834 6.92585C6.21456 6.45701 5.95117 5.82112 5.95117 5.15808C5.95117 4.49504 6.21456 3.85916 6.6834 3.39031C7.15225 2.92147 7.78813 2.65808 8.45117 2.65808C11.9512 2.65808 12.9512 7.65808 12.9512 7.65808Z" stroke="#014F59" stroke-width="2" stroke-linecap="round" stroke-linejoin="round"/>
<path d="M12.9512 7.65808H17.4512C18.1142 7.65808 18.7501 7.39469 19.2189 6.92585C19.6878 6.45701 19.9512 5.82112 19.9512 5.15808C19.9512 4.49504 19.6878 3.85916 19.2189 3.39031C18.7501 2.92147 18.1142 2.65808 17.4512 2.65808C13.9512 2.65808 12.9512 7.65808 12.9512 7.65808Z" stroke="#014F59" stroke-width="2" stroke-linecap="round" stroke-linejoin="round"/>
</svg>
