<svg width="21" height="23" viewBox="0 0 21 23" fill="none" xmlns="http://www.w3.org/2000/svg">
<path d="M20.8309 11.7382C20.8309 11.0103 20.7724 10.2825 20.6552 9.56949H10.7139V13.6841H16.4093C16.175 15.0061 15.4137 16.1944 14.301 16.9371V19.6108H17.6977C19.6889 17.7541 20.8309 15.0061 20.8309 11.7382Z" fill="#4285F4"/>
<path d="M10.7145 22.1952C13.5548 22.1952 15.956 21.2445 17.6983 19.6106L14.3015 16.9369C13.3499 17.5904 12.1346 17.9618 10.7145 17.9618C7.96191 17.9618 5.63396 16.0753 4.79941 13.5501H1.30017V16.313C3.0864 19.9225 6.73205 22.1952 10.7145 22.1952Z" fill="#34A853"/>
<path d="M4.79996 13.5507C4.36065 12.2287 4.36065 10.7879 4.79996 9.45103V6.70303H1.30016C-0.208125 9.7184 -0.208125 13.2834 1.30016 16.2987L4.79996 13.5507Z" fill="#FBBC04"/>
<path d="M10.7145 5.03883C12.2225 5.00912 13.672 5.58843 14.7554 6.64307L17.7715 3.58313C15.8535 1.77094 13.3352 0.775717 10.7145 0.805426C6.73205 0.805426 3.0864 3.09295 1.30017 6.70248L4.79941 9.46534C5.63396 6.92529 7.96191 5.03883 10.7145 5.03883Z" fill="#EA4335"/>
</svg>
