<svg width="49" height="49" viewBox="0 0 49 49" fill="none" xmlns="http://www.w3.org/2000/svg">
<g filter="url(#filter0_b_1176_23954)">
<rect width="49" height="49" rx="24.5" fill="#B7FF40" fill-opacity="0.2"/>
<rect x="0.25" y="0.25" width="48.5" height="48.5" rx="24.25" stroke="#014F59" stroke-opacity="0.09" stroke-width="0.5"/>
<path d="M33.2546 25.1344C33.0155 25.1344 32.7862 25.0395 32.6172 24.8704C32.4481 24.7013 32.3531 24.472 32.3531 24.2329V21.687C32.3531 18.081 29.0211 15.1961 24.9246 15.1961C20.8281 15.1961 17.4961 18.117 17.4961 21.687V24.2329C17.4961 24.472 17.4012 24.7013 17.2321 24.8704C17.063 25.0395 16.8337 25.1344 16.5946 25.1344C16.3555 25.1344 16.1262 25.0395 15.9572 24.8704C15.7881 24.7013 15.6931 24.472 15.6931 24.2329V21.687C15.6931 17.1001 19.8401 13.3643 24.9246 13.3643C30.0092 13.3643 34.1561 17.1001 34.1561 21.687V24.2329C34.1571 24.3516 34.1344 24.4692 34.0895 24.5791C34.0445 24.6889 33.9781 24.7886 33.8942 24.8725C33.8103 24.9564 33.7106 25.0228 33.6008 25.0678C33.4909 25.1127 33.3733 25.1354 33.2546 25.1344Z" fill="#014F59" stroke="#F1FDCF" stroke-width="0.5"/>
<path d="M30.817 33.6162C30.5779 33.6162 30.3486 33.5212 30.1795 33.3522C30.0104 33.1831 29.9155 32.9538 29.9155 32.7147V24.1539C29.923 23.9199 30.0212 23.6979 30.1895 23.535C30.3578 23.3721 30.5828 23.2811 30.817 23.2813C33.9254 23.2813 36.4569 25.6108 36.4569 28.4668C36.4569 31.3228 33.9254 33.6162 30.817 33.6162ZM31.7185 25.1492V31.7194C32.5078 31.5888 33.2286 31.192 33.7613 30.5951C34.2939 29.9981 34.6063 29.2369 34.6466 28.4379C34.6079 27.6376 34.2962 26.8748 33.7634 26.2764C33.2307 25.678 32.5089 25.2801 31.7185 25.1492ZM19.0035 33.6162C15.8951 33.6162 13.3636 31.2939 13.3636 28.4379C13.3636 25.5819 15.8951 23.2813 19.0035 23.2813C19.2426 23.2813 19.4719 23.3762 19.641 23.5453C19.8101 23.7144 19.905 23.9437 19.905 24.1828V32.7147C19.905 32.9538 19.8101 33.1831 19.641 33.3522C19.4719 33.5212 19.2426 33.6162 19.0035 33.6162ZM18.102 25.1492C17.3116 25.2801 16.5898 25.678 16.0571 26.2764C15.5243 26.8748 15.2126 27.6376 15.1739 28.4379C15.2142 29.2369 15.5266 29.9981 16.0592 30.5951C16.5919 31.192 17.3127 31.5888 18.102 31.7194V25.1492Z" fill="#014F59" stroke="#F1FDCF" stroke-width="0.5"/>
<path d="M30.5212 36.5524H27.5354C27.2963 36.5524 27.067 36.4574 26.898 36.2883C26.7289 36.1193 26.6339 35.89 26.6339 35.6509C26.6339 35.4118 26.7289 35.1825 26.898 35.0134C27.067 34.8443 27.2963 34.7493 27.5354 34.7493H30.5212C30.988 34.7493 31.4356 34.5639 31.7656 34.2339C32.0956 33.9039 32.281 33.4563 32.281 32.9896V32.5929C32.281 32.3538 32.376 32.1245 32.5451 31.9555C32.7141 31.7864 32.9434 31.6914 33.1825 31.6914C33.4216 31.6914 33.6509 31.7864 33.82 31.9555C33.9891 32.1245 34.084 32.3538 34.084 32.5929V32.9896C34.084 33.9345 33.7087 34.8407 33.0405 35.5089C32.3724 36.177 31.4662 36.5524 30.5212 36.5524Z" fill="#014F59" stroke="#F1FDCF" stroke-width="0.5"/>
<path d="M25.992 38.2466H24.2106C23.5564 38.2466 22.929 37.9867 22.4665 37.5241C22.0039 37.0616 21.744 36.4342 21.744 35.78V35.6791C21.7459 35.0261 22.0066 34.4006 22.469 33.9396C22.9314 33.4786 23.5576 33.2197 24.2106 33.2197H25.992C26.6442 33.2197 27.2698 33.4788 27.731 33.94C28.1922 34.4013 28.4513 35.0268 28.4513 35.6791V35.78C28.4513 36.4329 28.1924 37.0592 27.7314 37.5216C27.2704 37.984 26.6449 38.2447 25.992 38.2466ZM24.225 35.0228C24.0503 35.0227 23.8826 35.0917 23.7583 35.2145C23.6341 35.3374 23.5634 35.5043 23.5615 35.6791V35.78C23.5615 35.956 23.6314 36.1248 23.7558 36.2492C23.8802 36.3736 24.049 36.4435 24.225 36.4435H25.992C26.1667 36.4416 26.3336 36.3709 26.4565 36.2467C26.5794 36.1224 26.6483 35.9548 26.6483 35.78V35.6791C26.6483 35.505 26.5791 35.3381 26.456 35.215C26.333 35.0919 26.166 35.0228 25.992 35.0228H24.225Z" fill="#014F59" stroke="#F1FDCF" stroke-width="0.5"/>
</g>
<defs>
<filter id="filter0_b_1176_23954" x="-4" y="-4" width="57" height="57" filterUnits="userSpaceOnUse" color-interpolation-filters="sRGB">
<feFlood flood-opacity="0" result="BackgroundImageFix"/>
<feGaussianBlur in="BackgroundImageFix" stdDeviation="2"/>
<feComposite in2="SourceAlpha" operator="in" result="effect1_backgroundBlur_1176_23954"/>
<feBlend mode="normal" in="SourceGraphic" in2="effect1_backgroundBlur_1176_23954" result="shape"/>
</filter>
</defs>
</svg>
