<svg width="19" height="19" viewBox="0 0 19 19" fill="none" xmlns="http://www.w3.org/2000/svg">
<path d="M14.09 14.09C12.7691 15.0969 11.1607 15.6547 9.5 15.6818C4.09091 15.6818 1 9.5 1 9.5C1.96119 7.70874 3.29433 6.14374 4.91 4.91M7.87727 3.50364C8.40917 3.37913 8.95373 3.3169 9.5 3.31818C14.9091 3.31818 18 9.5 18 9.5C17.5309 10.3775 16.9715 11.2037 16.3309 11.965M11.1382 11.1382C10.926 11.3659 10.67 11.5486 10.3857 11.6753C10.1013 11.802 9.79433 11.8702 9.48307 11.8756C9.17181 11.8811 8.86263 11.8239 8.57397 11.7073C8.28532 11.5907 8.0231 11.4172 7.80297 11.197C7.58284 10.9769 7.4093 10.7147 7.29271 10.426C7.17612 10.1374 7.11886 9.82819 7.12435 9.51693C7.12984 9.20567 7.19797 8.8987 7.32468 8.61434C7.45138 8.32997 7.63406 8.07405 7.86182 7.86182M1 1L18 18" stroke="#014F59" stroke-linecap="round" stroke-linejoin="round"/>
</svg>
