<svg width="91" height="108" viewBox="0 0 91 108" fill="none" xmlns="http://www.w3.org/2000/svg">
<path d="M1.12462 50.5064C-2.14516 57.9802 2.48703 62.9627 5.21185 64.5197C12.5104 70.2126 20.2471 56.0534 22.2907 54.7396C24.3343 53.4259 32.5088 50.5064 34.1145 62.6222C35.7202 74.7379 21.9988 73.5701 19.2253 71.2345C16.4518 68.899 6.81765 64.5197 4.04418 71.2345C-0.62694 83.0291 12.8998 89.4811 20.2471 91.2327C23.1179 97.6069 33.7934 109.654 53.5288 106.852C73.2643 104.049 80.631 81.9392 81.8475 71.2345C83.9397 60.3839 88.4454 37.3105 89.73 31.822C91.3357 24.9613 90.6058 15.911 85.2048 14.4513C79.8038 12.9915 75.5706 17.2247 74.5488 27.5888C73.7314 35.88 71.0942 44.8622 69.8777 48.3169C70.2183 38.5854 70.9579 18.4801 71.1915 15.911C71.4834 12.6996 71.4834 0 63.7469 0C56.0103 0 52.361 7.73654 53.5288 19.1224C54.463 28.2311 53.9181 36.5418 53.5288 39.5585C52.8963 38.0015 51.5436 32.581 51.1933 23.3555C50.7553 11.8237 45.0624 5.83885 40.3913 6.42274C35.7202 7.00663 32.3628 14.0133 32.3628 20.1441C32.3628 26.275 36.3041 33.4276 35.8662 40.7262C23.8964 32.5518 5.21185 41.1642 1.12462 50.5064Z" fill="#FF8E8E"/>
<path d="M5.9421 76.0517C8.76423 76.8303 13.9706 79.7886 12.2189 85.394M4.19043 56.6374C6.18539 55.0317 9.50383 50.6817 6.81793 46.1274M10.9052 37.515C12.8515 37.9529 16.9776 39.8798 17.9118 44.0838M23.3128 43.3539C23.0695 41.359 21.6487 37.0479 17.9118 35.7634M44.0409 63.6441C48.6147 62.9629 59.2512 62.4763 65.2069 65.9796M40.2456 69.0451C43.5543 68.8991 51.106 69.7457 54.8429 74.3001C58.5797 78.8544 59.3193 84.3722 59.222 86.5617M35.7205 18.8306C37.6668 19.901 42.2892 21.1953 45.2087 17.8088M57.4704 9.78027C58.2975 11.24 61.1489 14.0427 65.9368 13.5756M77.6145 23.3557C77.3713 24.4262 77.381 26.7423 79.3662 27.4429C81.3514 28.1436 84.1833 27.7349 85.3511 27.4429" stroke="#014F59" stroke-width="2"/>
<circle cx="37.3256" cy="13.1376" r="0.729862" fill="#014F59"/>
<circle cx="42.2885" cy="12.2616" r="0.729862" fill="#014F59"/>
<circle cx="60.681" cy="5.83875" r="0.729862" fill="#014F59"/>
<circle cx="84.6205" cy="21.6039" r="0.729862" fill="#014F59"/>
<circle cx="66.5199" cy="6.71473" r="0.729862" fill="#014F59"/>
<circle cx="80.2416" cy="20.1444" r="0.729862" fill="#014F59"/>
</svg>
