<svg width="24" height="24" viewBox="0 0 24 24" fill="none" xmlns="http://www.w3.org/2000/svg">
<path fill-rule="evenodd" clip-rule="evenodd" d="M9.91102 4.3139C7.42573 4.26895 4.99133 5.42363 3.46828 7.54904C3.24632 7.85879 3.02635 8.23981 2.64574 8.89909L2.61865 8.94602C2.61465 8.95293 2.61064 8.95988 2.60661 8.96684C2.56107 9.04558 2.5138 9.12732 2.47768 9.20703C2.13312 9.96749 2.37372 10.8655 3.05235 11.3518C3.12349 11.4027 3.2053 11.4499 3.28411 11.4953C3.29108 11.4993 3.29803 11.5033 3.30494 11.5073L9.47537 15.0698L5.85037 21.3485C5.64327 21.7072 5.76617 22.1659 6.12489 22.373C6.48361 22.5801 6.9423 22.4572 7.14941 22.0985L10.7744 15.8198L16.9448 19.3823C16.9518 19.3863 16.9587 19.3903 16.9657 19.3944C17.0444 19.4399 17.1262 19.4872 17.2059 19.5233C17.9663 19.8678 18.8643 19.6272 19.3506 18.9486C19.4016 18.8775 19.4487 18.7956 19.4942 18.7168C19.4982 18.7098 19.5022 18.7029 19.5061 18.696L19.5332 18.6491C19.9139 17.9898 20.1339 17.6088 20.2911 17.2617C21.3705 14.8795 21.153 12.1933 19.8707 10.0632L19.9788 9.87596C21.5666 7.12578 20.6244 3.60913 17.8742 2.02131C15.124 0.433496 11.6073 1.37578 10.0195 4.12596L9.91102 4.3139ZM11.5482 4.51982C12.0284 4.63337 12.5033 4.79425 12.9663 5.00405C13.3134 5.16132 13.6944 5.38131 14.3537 5.76196L16.3961 6.94115C17.0554 7.32176 17.4364 7.54172 17.7461 7.76368C18.159 8.0595 18.5354 8.38993 18.8736 8.74862C19.7636 6.78183 19.0331 4.42247 17.1242 3.32035C15.2151 2.21817 12.8064 2.76537 11.5482 4.51982ZM10.2715 5.83275C8.1341 5.66048 5.99438 6.59908 4.68755 8.42276C4.51411 8.66479 4.3329 8.97684 3.91768 9.69602C3.88739 9.74848 3.86939 9.77972 3.85618 9.80353C3.84778 9.81867 3.84355 9.82703 3.84355 9.82703C3.79509 9.93516 3.82921 10.0625 3.92524 10.1319C3.92524 10.1319 3.93309 10.137 3.94792 10.1459C3.97126 10.1599 4.00248 10.178 4.05494 10.2083L10.8749 14.1458L17.6948 18.0833C17.7473 18.1136 17.7786 18.1316 17.8024 18.1448C17.8165 18.1526 17.8233 18.1561 17.8255 18.1572C17.9341 18.2064 18.0618 18.1718 18.1313 18.0749C18.1288 18.0784 18.1315 18.0752 18.1447 18.053C18.1588 18.0297 18.1768 17.9985 18.2071 17.946C18.6223 17.2268 18.802 16.9139 18.9248 16.6427C19.8524 14.5956 19.5929 12.2689 18.3697 10.5029C17.9709 9.92709 17.4694 9.41077 16.8724 8.98295C16.6304 8.80952 16.3184 8.62831 15.5992 8.21309L13.6506 7.08809C12.9314 6.67287 12.6185 6.49323 12.3473 6.37035C11.6748 6.06565 10.9732 5.8893 10.2715 5.83275Z" fill="#014F59"/>
</svg>
