<svg width="132" height="36" viewBox="0 0 132 36" fill="none" xmlns="http://www.w3.org/2000/svg">
<path d="M93 34.4332V19.8877H94.6761V25.257H94.8182C94.9413 25.0676 95.1117 24.8261 95.3295 24.5326C95.5521 24.2343 95.8693 23.9691 96.2812 23.7371C96.6979 23.5004 97.2614 23.382 97.9716 23.382C98.8902 23.382 99.6998 23.6117 100.401 24.0709C101.101 24.5302 101.648 25.1813 102.041 26.0241C102.434 26.8669 102.631 27.8612 102.631 29.007C102.631 30.1623 102.434 31.1637 102.041 32.0113C101.648 32.8541 101.104 33.5075 100.408 33.9715C99.7116 34.4308 98.9091 34.6604 98 34.6604C97.2992 34.6604 96.7382 34.5444 96.3168 34.3124C95.8954 34.0757 95.571 33.8082 95.3438 33.5099C95.1165 33.2068 94.9413 32.9559 94.8182 32.757H94.6193V34.4332H93ZM94.6477 28.9786C94.6477 29.8025 94.7685 30.5293 95.0099 31.159C95.2514 31.784 95.6042 32.2741 96.0682 32.6292C96.5322 32.9796 97.1004 33.1547 97.7727 33.1547C98.4735 33.1547 99.0582 32.9701 99.527 32.6008C100 32.2267 100.356 31.7248 100.592 31.0951C100.834 30.4606 100.955 29.7551 100.955 28.9786C100.955 28.2116 100.836 27.5203 100.599 26.9047C100.367 26.2845 100.015 25.7944 99.5412 25.4346C99.0724 25.07 98.483 24.8877 97.7727 24.8877C97.0909 24.8877 96.518 25.0605 96.054 25.4062C95.59 25.7471 95.2396 26.2253 95.0028 26.8408C94.7661 27.4516 94.6477 28.1642 94.6477 28.9786Z" fill="#7D22FF"/>
<path d="M107.968 34.6604C106.917 34.6604 106.011 34.4284 105.248 33.9644C104.491 33.4957 103.906 32.8422 103.494 32.0042C103.087 31.1614 102.883 30.1813 102.883 29.0638C102.883 27.9464 103.087 26.9616 103.494 26.1093C103.906 25.2523 104.479 24.5847 105.213 24.1064C105.951 23.6235 106.813 23.382 107.798 23.382C108.366 23.382 108.927 23.4767 109.481 23.6661C110.035 23.8555 110.539 24.1633 110.994 24.5894C111.449 25.0108 111.811 25.5695 112.081 26.2655C112.351 26.9616 112.486 27.8186 112.486 28.8366V29.5468H104.076V28.0979H110.781C110.781 27.4824 110.658 26.9331 110.412 26.4502C110.17 25.9672 109.825 25.5861 109.375 25.3067C108.93 25.0274 108.404 24.8877 107.798 24.8877C107.13 24.8877 106.553 25.0534 106.065 25.3849C105.582 25.7116 105.21 26.1377 104.95 26.6633C104.69 27.1888 104.559 27.7523 104.559 28.3536V29.3195C104.559 30.1434 104.701 30.8418 104.986 31.4147C105.274 31.9829 105.674 32.4161 106.186 32.7144C106.697 33.008 107.291 33.1547 107.968 33.1547C108.409 33.1547 108.807 33.0932 109.162 32.9701C109.521 32.8422 109.832 32.6528 110.092 32.4019C110.352 32.1462 110.554 31.829 110.696 31.4502L112.315 31.9047C112.145 32.454 111.858 32.9369 111.456 33.3536C111.053 33.7655 110.556 34.0875 109.964 34.3195C109.372 34.5468 108.707 34.6604 107.968 34.6604Z" fill="#7D22FF"/>
<path d="M117.98 23.5241V24.9445H112.326V23.5241H117.98ZM113.974 20.9104H115.65V31.3082C115.65 31.7816 115.719 32.1367 115.856 32.3735C115.998 32.6055 116.178 32.7617 116.396 32.8422C116.618 32.918 116.853 32.9559 117.099 32.9559C117.284 32.9559 117.435 32.9464 117.553 32.9275C117.672 32.9038 117.766 32.8849 117.837 32.8707L118.178 34.3763C118.065 34.4189 117.906 34.4616 117.703 34.5042C117.499 34.5515 117.241 34.5752 116.928 34.5752C116.455 34.5752 115.991 34.4734 115.536 34.2698C115.087 34.0662 114.712 33.7561 114.414 33.3394C114.121 32.9227 113.974 32.3972 113.974 31.7627V20.9104Z" fill="#7D22FF"/>
<path d="M121.911 34.6888C121.22 34.6888 120.592 34.5586 120.029 34.2982C119.466 34.0331 119.018 33.6519 118.687 33.1547C118.355 32.6528 118.189 32.0468 118.189 31.3366C118.189 30.7116 118.313 30.2049 118.559 29.8167C118.805 29.4237 119.134 29.1159 119.546 28.8934C119.958 28.6708 120.413 28.5051 120.91 28.3962C121.412 28.2826 121.916 28.1926 122.422 28.1263C123.085 28.0411 123.623 27.9772 124.035 27.9346C124.451 27.8872 124.754 27.8091 124.944 27.7002C125.138 27.5913 125.235 27.4019 125.235 27.132V27.0752C125.235 26.3744 125.043 25.8299 124.66 25.4417C124.281 25.0534 123.706 24.8593 122.934 24.8593C122.134 24.8593 121.506 25.0345 121.052 25.3849C120.597 25.7352 120.278 26.1093 120.093 26.507L118.502 25.9388C118.786 25.276 119.165 24.7599 119.638 24.3905C120.117 24.0165 120.637 23.7561 121.201 23.6093C121.769 23.4578 122.328 23.382 122.877 23.382C123.227 23.382 123.63 23.4246 124.084 23.5099C124.544 23.5903 124.986 23.7584 125.412 24.0141C125.843 24.2698 126.201 24.6557 126.485 25.1718C126.769 25.6879 126.911 26.3792 126.911 27.2457V34.4332H125.235V32.9559H125.15C125.036 33.1926 124.847 33.4459 124.582 33.7158C124.316 33.9857 123.964 34.2153 123.523 34.4047C123.083 34.5941 122.546 34.6888 121.911 34.6888ZM122.167 33.1832C122.83 33.1832 123.388 33.0529 123.843 32.7925C124.302 32.5321 124.648 32.1959 124.88 31.784C125.117 31.3721 125.235 30.9388 125.235 30.4843V28.9502C125.164 29.0354 125.008 29.1135 124.766 29.1846C124.529 29.2509 124.255 29.31 123.942 29.3621C123.635 29.4095 123.334 29.4521 123.04 29.49C122.752 29.5231 122.517 29.5515 122.337 29.5752C121.902 29.632 121.494 29.7243 121.116 29.8522C120.742 29.9753 120.439 30.1623 120.207 30.4133C119.979 30.6595 119.866 30.9957 119.866 31.4218C119.866 32.0042 120.081 32.4445 120.512 32.7428C120.948 33.0364 121.499 33.1832 122.167 33.1832Z" fill="#7D22FF"/>
<path d="M128.466 23.8433V21.2432H129.344C129.548 21.2432 129.714 21.2779 129.845 21.3473C129.975 21.4158 130.071 21.5102 130.134 21.6304C130.197 21.7506 130.228 21.8873 130.228 22.0405C130.228 22.1937 130.197 22.3295 130.134 22.448C130.071 22.5665 129.975 22.6596 129.846 22.7273C129.716 22.7942 129.551 22.8276 129.349 22.8276H128.638V22.5432H129.339C129.478 22.5432 129.59 22.5229 129.674 22.4823C129.76 22.4417 129.822 22.3841 129.86 22.3096C129.899 22.2343 129.918 22.1446 129.918 22.0405C129.918 21.9364 129.899 21.8454 129.86 21.7675C129.821 21.6896 129.759 21.6295 129.673 21.5872C129.588 21.5441 129.475 21.5225 129.334 21.5225H128.781V23.8433H128.466ZM129.69 22.6753L130.33 23.8433H129.964L129.334 22.6753H129.69Z" fill="#7D22FF"/>
<path d="M131.6 22.5439C131.6 23.8478 130.543 24.9049 129.239 24.9049C127.935 24.9049 126.878 23.8478 126.878 22.5439C126.878 21.2399 127.935 20.1828 129.239 20.1828C130.543 20.1828 131.6 21.2399 131.6 22.5439Z" stroke="#7D22FF" stroke-width="0.35"/>
<path d="M18.374 10.1994C18.2332 11.4347 17.7954 12.4958 17.0761 13.3827C16.3568 14.2538 15.3716 14.9348 14.1362 15.3941C12.9009 15.8534 11.4153 16.0909 9.71084 16.0909C8.27219 16.0909 6.97428 15.9167 5.78583 15.5841C4.59739 15.2515 3.58095 14.7447 2.72089 14.0796C1.86083 13.4144 1.20406 12.575 0.734937 11.5772C0.265813 10.5795 0.03125 9.42332 0.03125 8.07713C0.03125 6.73095 0.265813 5.57481 0.734937 4.5612C1.20406 3.5476 1.87647 2.72405 2.72089 2.04304C3.58095 1.36203 4.59739 0.855226 5.78583 0.5068C6.97428 0.158375 8.28783 0 9.71084 0C11.431 0 12.9009 0.237562 14.1519 0.712688C15.4029 1.18781 16.388 1.86883 17.1074 2.75573C17.8267 3.64263 18.2489 4.70374 18.374 5.97074H15.2621C15.0588 5.30557 14.7148 4.71958 14.2301 4.24445C13.7453 3.75349 13.1354 3.38923 12.3848 3.13583C11.6342 2.88243 10.7273 2.75573 9.6952 2.75573C8.39729 2.75573 7.27139 2.96162 6.30187 3.35755C5.33235 3.76933 4.56611 4.35532 4.03444 5.14719C3.50277 5.93907 3.23693 6.90516 3.23693 8.07713C3.23693 9.24911 3.50277 10.1835 4.03444 10.9754C4.56611 11.7673 5.31671 12.3533 6.30187 12.7492C7.27139 13.161 8.41292 13.351 9.6952 13.351C10.7273 13.351 11.6186 13.2243 12.3692 12.9709C13.1198 12.7175 13.7297 12.3533 14.2144 11.8781C14.6992 11.403 15.0432 10.8487 15.2621 10.1994H18.374Z" fill="#014F59"/>
<path d="M30.5088 16.0749C28.4759 16.0749 26.7401 15.7581 25.3015 15.1088C23.8629 14.4594 22.7682 13.5409 22.002 12.3531C21.2358 11.1652 20.8605 9.72402 20.8605 8.06108C20.8605 6.39815 21.2358 4.92526 22.002 3.73744C22.7682 2.54963 23.8629 1.63105 25.3015 0.981714C26.7401 0.332376 28.4759 0.015625 30.5088 0.015625V2.75552C29.2734 2.75552 28.1632 2.94557 27.178 3.3415C26.2085 3.73744 25.4422 4.32343 24.8949 5.09947C24.3476 5.87551 24.0661 6.87327 24.0661 8.06108C24.0661 9.2489 24.3476 10.2467 24.8949 11.0227C25.4422 11.7987 26.2085 12.3847 27.178 12.7648C28.1475 13.1449 29.2578 13.335 30.5088 13.335V16.0749Z" fill="#014F59"/>
<path d="M51.0563 0C53.0891 0 54.8249 0.31675 56.2635 0.966088C57.7022 1.61543 58.7968 2.534 59.5631 3.72182C60.3293 4.90963 60.7046 6.35084 60.7046 8.01378C60.7046 9.67672 60.3293 11.1496 59.5631 12.3374C58.7968 13.5252 57.7022 14.4438 56.2635 15.0932C54.8249 15.7425 53.0891 16.0592 51.0563 16.0592V13.3194C52.2916 13.3194 53.4019 13.1293 54.387 12.7334C55.3566 12.3374 56.1228 11.7514 56.6701 10.9754C57.2174 10.1994 57.4989 9.2016 57.4989 8.01378C57.4989 6.82597 57.2174 5.82821 56.6701 5.05217C56.1228 4.27613 55.3566 3.69014 54.387 3.31004C53.4175 2.92994 52.3073 2.73989 51.0563 2.73989V0Z" fill="#014F59"/>
<path d="M9.64831 35.0798C7.61544 35.0798 5.87968 34.763 4.44104 34.1137C3.00239 33.4643 1.90777 32.5457 1.14153 31.3579C0.375298 30.1701 0 28.7289 0 27.066C0 25.403 0.375298 23.9301 1.14153 22.7423C1.90777 21.5545 3.00239 20.6359 4.44104 19.9866C5.87968 19.3373 7.61544 19.0205 9.64831 19.0205C11.6812 19.0205 13.4326 19.3373 14.8556 19.9866C16.2786 20.6359 17.3888 21.5545 18.1394 22.7423C18.89 23.9301 19.281 25.3714 19.281 27.066C19.281 28.7606 18.9057 30.1701 18.1394 31.3579C17.3732 32.5457 16.2786 33.4643 14.8556 34.1137C13.4326 34.763 11.6812 35.0798 9.64831 35.0798ZM9.64831 32.324C10.8993 32.324 12.0096 32.134 12.9634 31.7539C13.9173 31.3738 14.6679 30.7878 15.1996 30.0117C15.7313 29.2357 16.0128 28.2379 16.0128 27.0501C16.0128 25.8623 15.7469 24.8646 15.1996 24.0885C14.6523 23.3125 13.9017 22.7265 12.9634 22.3305C12.0096 21.9346 10.8993 21.7446 9.64831 21.7446C8.39731 21.7446 7.30269 21.9346 6.31753 22.3305C5.34801 22.7265 4.58177 23.3125 4.03446 24.0885C3.48715 24.8646 3.20568 25.8623 3.20568 27.0501C3.20568 28.2379 3.48715 29.2357 4.03446 30.0117C4.58177 30.7878 5.34801 31.3738 6.31753 31.7539C7.28705 32.134 8.39731 32.324 9.64831 32.324Z" fill="#014F59"/>
<path d="M20.9384 34.7631L28.1003 19.3057H31.4937L38.7338 34.7631H35.3092L29.0386 20.8419H30.5398L24.3161 34.7631H20.9227H20.9384ZM24.7383 31.3897V28.7448H34.8401V31.3897H24.7383Z" fill="#014F59"/>
<path d="M39.7348 29.5529H42.9248C42.9874 30.0914 43.2376 30.5823 43.6598 31.0258C44.0977 31.4692 44.6606 31.8018 45.3643 32.0552C46.068 32.3086 46.8655 32.4195 47.7412 32.4195C48.5387 32.4195 49.1955 32.3244 49.7271 32.1502C50.2432 31.976 50.6341 31.7226 50.8843 31.4059C51.1345 31.0891 51.2596 30.709 51.2596 30.2656C51.2596 29.8221 51.1032 29.5054 50.7905 29.2678C50.4777 29.0302 49.9773 28.8402 49.3049 28.6977C48.6325 28.5393 47.7412 28.3967 46.6466 28.2384C45.7865 28.1117 44.9577 27.9375 44.1915 27.6999C43.4252 27.4623 42.7372 27.1773 42.1586 26.7972C41.58 26.4171 41.1109 25.9736 40.7669 25.451C40.4228 24.9125 40.2665 24.279 40.2665 23.5505C40.2665 22.6477 40.5167 21.84 41.0327 21.159C41.5487 20.478 42.2993 19.9395 43.3158 19.5594C44.3322 19.1793 45.5519 18.9893 47.0218 18.9893C49.2267 18.9893 50.9156 19.4644 52.104 20.4146C53.2925 21.3649 53.8711 22.6636 53.8398 24.3265H50.7748C50.7123 23.3921 50.3214 22.7111 49.602 22.2993C48.8827 21.8875 47.9914 21.6816 46.8968 21.6816C45.896 21.6816 45.0672 21.84 44.4104 22.1409C43.7536 22.4418 43.4252 22.9645 43.4252 23.693C43.4252 23.9781 43.5034 24.2315 43.6598 24.4532C43.8162 24.6749 44.082 24.8491 44.4573 25.0075C44.8326 25.1659 45.3486 25.3243 45.9898 25.4668C46.6309 25.6093 47.4284 25.7519 48.398 25.8944C49.2893 26.0211 50.1024 26.1953 50.8374 26.4012C51.5724 26.6071 52.1978 26.8922 52.7295 27.2406C53.2612 27.589 53.6678 28.0166 53.9492 28.5393C54.2307 29.0619 54.3715 29.7113 54.3715 30.4715C54.3715 31.4059 54.1369 32.2294 53.6521 32.9263C53.1674 33.6231 52.4324 34.1616 51.4316 34.5417C50.4308 34.9218 49.1485 35.1118 47.5535 35.1118C46.4276 35.1118 45.4268 34.9851 44.5511 34.7476C43.6911 34.4942 42.9405 34.1774 42.315 33.7498C41.6895 33.338 41.1734 32.8788 40.7825 32.3878C40.3916 31.8968 40.1101 31.4059 39.9381 30.8991C39.7661 30.4081 39.7035 29.9647 39.7348 29.5687V29.5529Z" fill="#014F59"/>
<path d="M57.5615 19.3057H60.7046V34.7631H57.5615V19.3057Z" fill="#014F59"/>
<path d="M63.7382 29.5529H66.9283C66.9908 30.0914 67.241 30.5823 67.6632 31.0258C68.1011 31.4692 68.664 31.8018 69.3677 32.0552C70.0714 32.3086 70.8689 32.4195 71.7446 32.4195C72.5421 32.4195 73.1989 32.3244 73.7306 32.1502C74.2466 31.976 74.6375 31.7226 74.8877 31.4059C75.1379 31.0891 75.263 30.709 75.263 30.2656C75.263 29.8221 75.1066 29.5054 74.7939 29.2678C74.4811 29.0302 73.9808 28.8402 73.3083 28.6977C72.6359 28.5393 71.7446 28.3967 70.65 28.2384C69.7899 28.1117 68.9611 27.9375 68.1949 27.6999C67.4287 27.4623 66.7406 27.1773 66.162 26.7972C65.5834 26.4171 65.1143 25.9736 64.7703 25.451C64.4263 24.9125 64.2699 24.279 64.2699 23.5505C64.2699 22.6477 64.5201 21.84 65.0361 21.159C65.5522 20.478 66.3028 19.9395 67.3192 19.5594C68.3356 19.1793 69.5554 18.9893 71.0253 18.9893C73.2302 18.9893 74.919 19.4644 76.1075 20.4146C77.2959 21.3649 77.8745 22.6636 77.8432 24.3265H74.7783C74.7157 23.3921 74.3248 22.7111 73.6054 22.2993C72.8861 21.8875 71.9948 21.6816 70.9002 21.6816C69.8994 21.6816 69.0706 21.84 68.4138 22.1409C67.757 22.4418 67.4287 22.9645 67.4287 23.693C67.4287 23.9781 67.5068 24.2315 67.6632 24.4532C67.8196 24.6749 68.0854 24.8491 68.4607 25.0075C68.836 25.1659 69.3521 25.3243 69.9932 25.4668C70.6343 25.6093 71.4318 25.7519 72.4014 25.8944C73.2927 26.0211 74.1058 26.1953 74.8408 26.4012C75.5758 26.6071 76.2013 26.8922 76.7329 27.2406C77.2646 27.589 77.6712 28.0166 77.9527 28.5393C78.2341 29.0619 78.3749 29.7113 78.3749 30.4715C78.3749 31.4059 78.1403 32.2294 77.6556 32.9263C77.1708 33.6231 76.4358 34.1616 75.435 34.5417C74.4342 34.9218 73.152 35.1118 71.5569 35.1118C70.431 35.1118 69.4303 34.9851 68.5546 34.7476C67.6945 34.4942 66.9439 34.1774 66.3184 33.7498C65.6929 33.338 65.1769 32.8788 64.7859 32.3878C64.395 31.8968 64.1135 31.4059 63.9415 30.8991C63.7695 30.4081 63.7069 29.9647 63.7382 29.5687V29.5529Z" fill="#014F59"/>
<path d="M51.3066 0H30.196V2.75573H51.3066V0Z" fill="#014F59"/>
<path d="M51.3066 13.3193H30.196V16.0751H51.3066V13.3193Z" fill="#014F59"/>
</svg>
