<svg width="82" height="46" viewBox="0 0 82 46" fill="none" xmlns="http://www.w3.org/2000/svg">
<path fill-rule="evenodd" clip-rule="evenodd" d="M63.3889 9L58.5 1L53.6111 9H14C6.8203 9 1 14.8203 1 22V32C1 39.1797 6.8203 45 14 45H68C75.1797 45 81 39.1797 81 32V22C81 14.8203 75.1797 9 68 9H63.3889Z" fill="#FFFCF3"/>
<path d="M58.5 1L58.9266 0.739275L58.5 0.0411354L58.0734 0.739275L58.5 1ZM63.3889 9L62.9622 9.26073L63.1085 9.5H63.3889V9ZM53.6111 9V9.5H53.8915L54.0378 9.26073L53.6111 9ZM58.0734 1.26073L62.9622 9.26073L63.8155 8.73927L58.9266 0.739275L58.0734 1.26073ZM54.0378 9.26073L58.9266 1.26073L58.0734 0.739275L53.1845 8.73927L54.0378 9.26073ZM14 9.5H53.6111V8.5H14V9.5ZM1.5 22C1.5 15.0964 7.09644 9.5 14 9.5V8.5C6.54416 8.5 0.5 14.5442 0.5 22H1.5ZM1.5 32V22H0.5V32H1.5ZM14 44.5C7.09644 44.5 1.5 38.9036 1.5 32H0.5C0.5 39.4558 6.54416 45.5 14 45.5V44.5ZM68 44.5H14V45.5H68V44.5ZM80.5 32C80.5 38.9036 74.9036 44.5 68 44.5V45.5C75.4558 45.5 81.5 39.4558 81.5 32H80.5ZM80.5 22V32H81.5V22H80.5ZM68 9.5C74.9036 9.5 80.5 15.0964 80.5 22H81.5C81.5 14.5442 75.4558 8.5 68 8.5V9.5ZM63.3889 9.5H68V8.5H63.3889V9.5Z" fill="#014F59" fill-opacity="0.1"/>
</svg>
