<svg width="42" height="42" viewBox="0 0 42 42" fill="none" xmlns="http://www.w3.org/2000/svg">
<g clip-path="url(#clip0_1083_5977)">
<rect width="42" height="42" rx="21" fill="#E0E0E0"/>
<g clip-path="url(#clip1_1083_5977)">
<rect width="42" height="42" fill="#DEDAF9"/>
<path d="M17.7348 18.7428C17.7348 19.0329 17.4994 19.2683 17.2093 19.2683C17.1707 19.2683 17.1327 19.2634 17.096 19.2556C16.9412 19.2214 16.8128 19.1193 16.742 18.9816C16.7053 18.9098 16.6843 18.8287 16.6843 18.7428C16.6843 18.4527 16.9197 18.2178 17.2093 18.2178C17.4989 18.2178 17.7348 18.4527 17.7348 18.7428Z" fill="#FFAC00"/>
<path d="M24.6692 29.3447L24.6077 30.0284L24.4275 29.8683C24.5261 29.6949 24.6053 29.5181 24.6692 29.3447Z" fill="#DD920B"/>
<path d="M29.0211 10.5402C29.0211 10.2066 28.8429 9.95608 28.6983 9.80713C28.5992 9.70555 28.5157 9.65134 28.5157 9.65134C28.5157 9.65134 28.6109 9.19911 28.6109 8.55299C28.6109 7.63729 28.4195 6.33285 27.4925 5.37711C27.4471 5.33022 27.3997 5.28432 27.3504 5.2389C26.2301 4.20941 24.9906 3.78697 24.0353 4.29829H24.0348C23.6427 4.50829 23.2984 4.87555 23.0298 5.42301H23.0293C23.0244 5.41569 22.9673 5.33755 22.8696 5.23597C22.8652 5.23157 22.8603 5.22669 22.8554 5.22181C22.8505 5.21643 22.8457 5.21155 22.8408 5.20667C22.4769 4.84234 21.6438 4.25678 20.8419 5.45964H20.8414C20.8414 5.45964 20.8404 5.45818 20.8399 5.4572C20.8389 5.45671 20.8385 5.45574 20.837 5.45427C20.836 5.45329 20.835 5.45183 20.8336 5.45036C20.8321 5.4489 20.8306 5.44743 20.8287 5.44548C20.8272 5.44353 20.8253 5.44157 20.8233 5.43962C20.7027 5.3146 19.9941 4.64699 18.6173 4.61378C16.7239 4.56788 15.8937 5.56415 15.8937 6.63467C15.8937 7.23927 16.1584 7.86732 16.6453 8.34494C16.6614 8.36057 16.678 8.37669 16.6946 8.39183C16.7107 8.40746 16.7273 8.4226 16.7444 8.43774C16.6941 8.4265 15.0781 8.05974 14.3519 8.84113C14.1321 9.0775 13.8899 9.60592 13.8899 10.1402C13.8899 10.4782 13.9866 10.8185 14.2474 11.0886C14.4041 11.2508 14.6195 11.3875 14.9081 11.4837C14.6054 11.5853 14.3744 11.7904 14.3744 12.1792C14.3744 12.2339 14.3788 12.292 14.3885 12.354C14.4198 12.5576 14.4965 12.7071 14.6029 12.814C15.1645 13.3781 16.5579 12.7676 16.5579 12.7676C16.6238 13.7766 16.6975 14.9668 16.7044 15.0835C16.825 15.0571 16.95 15.043 17.0775 15.043C17.4887 15.043 17.8687 15.2388 18.1754 15.4913C18.3502 15.5338 18.5221 15.588 18.6921 15.6622C18.7697 15.6959 18.8483 15.734 18.9065 15.796C18.9328 15.8239 18.9851 15.8659 18.9851 15.8063V15.7995L18.9294 14.7875C18.9275 14.7524 18.9265 14.7172 18.9265 14.6821C18.9265 14.3182 19.03 13.9602 19.2254 13.6516L19.3958 13.383C19.4705 13.2653 19.5081 13.131 19.5081 12.9967C19.5081 12.8736 19.4764 12.7501 19.4129 12.6392L19.1951 12.2573C19.1296 12.143 19.0994 12.0199 19.0994 11.8998C19.0994 11.5897 19.3006 11.2952 19.6268 11.2039C21.5051 10.6794 25.8887 9.71385 27.8251 11.4715L28.5279 13.363L28.5293 13.3664C28.5293 13.3664 28.7603 12.7325 28.7603 12.038C28.7603 11.8158 28.7364 11.5868 28.6739 11.3704C28.9308 11.0564 29.0211 10.7775 29.0211 10.5402ZM29.0211 10.5402C29.0211 10.2066 28.8429 9.95608 28.6983 9.80713C28.5992 9.70555 28.5157 9.65134 28.5157 9.65134C28.5157 9.65134 28.6109 9.19911 28.6109 8.55299C28.6109 7.63729 28.4195 6.33285 27.4925 5.37711C27.4471 5.33022 27.3997 5.28432 27.3504 5.2389C26.2301 4.20941 24.9906 3.78697 24.0353 4.29829H24.0348C23.6427 4.50829 23.2984 4.87555 23.0298 5.42301H23.0293C23.0244 5.41569 22.9673 5.33755 22.8696 5.23597C22.8652 5.23157 22.8603 5.22669 22.8554 5.22181C22.8505 5.21643 22.8457 5.21155 22.8408 5.20667C22.4769 4.84234 21.6438 4.25678 20.8419 5.45964H20.8414C20.8414 5.45964 20.8404 5.45818 20.8399 5.4572C20.8389 5.45671 20.8385 5.45574 20.837 5.45427C20.836 5.45329 20.835 5.45183 20.8336 5.45036C20.8321 5.4489 20.8306 5.44743 20.8287 5.44548C20.8272 5.44353 20.8253 5.44157 20.8233 5.43962C20.7027 5.3146 19.9941 4.64699 18.6173 4.61378C16.7239 4.56788 15.8937 5.56415 15.8937 6.63467C15.8937 7.23927 16.1584 7.86732 16.6453 8.34494C16.6614 8.36057 16.678 8.37669 16.6946 8.39183C16.7107 8.40746 16.7273 8.4226 16.7444 8.43774C16.6941 8.4265 15.0781 8.05974 14.3519 8.84113C14.1321 9.0775 13.8899 9.60592 13.8899 10.1402C13.8899 10.4782 13.9866 10.8185 14.2474 11.0886C14.4041 11.2508 14.6195 11.3875 14.9081 11.4837C14.6054 11.5853 14.3744 11.7904 14.3744 12.1792C14.3744 12.2339 14.3788 12.292 14.3885 12.354C14.4198 12.5576 14.4965 12.7071 14.6029 12.814C15.1645 13.3781 16.5579 12.7676 16.5579 12.7676C16.6238 13.7766 16.6975 14.9668 16.7044 15.0835C16.825 15.0571 16.95 15.043 17.0775 15.043C17.4887 15.043 17.8687 15.2388 18.1754 15.4913C18.3502 15.5338 18.5221 15.588 18.6921 15.6622C18.7697 15.6959 18.8483 15.734 18.9065 15.796C18.9328 15.8239 18.9851 15.8659 18.9851 15.8063V15.7995L18.9294 14.7875C18.9275 14.7524 18.9265 14.7172 18.9265 14.6821C18.9265 14.3182 19.03 13.9602 19.2254 13.6516L19.3958 13.383C19.4705 13.2653 19.5081 13.131 19.5081 12.9967C19.5081 12.8736 19.4764 12.7501 19.4129 12.6392L19.1951 12.2573C19.1296 12.143 19.0994 12.0199 19.0994 11.8998C19.0994 11.5897 19.3006 11.2952 19.6268 11.2039C21.5051 10.6794 25.8887 9.71385 27.8251 11.4715L28.5279 13.363L28.5293 13.3664C28.5293 13.3664 28.7603 12.7325 28.7603 12.038C28.7603 11.8158 28.7364 11.5868 28.6739 11.3704C28.9308 11.0564 29.0211 10.7775 29.0211 10.5402Z" fill="#541B0A"/>
<path d="M19.8588 37.2108C19.7357 37.6034 19.6063 38.0083 19.3367 38.3194C19.2571 38.4117 19.1668 38.4918 19.0706 38.5655L19.0461 36.8762L19.0261 35.4639C19.0535 35.4688 19.0808 35.4731 19.1082 35.478C19.1839 35.4927 19.2605 35.5078 19.3358 35.5278C19.4832 35.5669 19.6249 35.6231 19.7396 35.7217C20.1406 36.067 20.017 36.7058 19.8588 37.2108Z" fill="#009F62"/>
<path d="M22.6722 38.2686L22.6121 42.4544C22.4393 42.2473 22.2781 42.028 22.0788 41.8473C21.7423 41.5421 21.3038 41.3512 21.0176 40.9986C20.5121 40.3773 20.6626 39.382 21.2315 38.8185C21.7018 38.353 22.1692 38.2695 22.6722 38.2686Z" fill="#009F62"/>
<path d="M8.21107 48.2611H-1.6897L-1.6853 40.0046L3.42991 32.4964L4.60347 30.7734L5.03714 31.4391L6.74595 34.0631C7.40477 35.0394 7.77593 36.1807 7.81842 37.3577L8.21107 48.2611Z" fill="#FF6060"/>
<path d="M19.0706 38.5649L19.0261 35.4633L19.0095 34.3034C19.0002 34.1154 18.8611 33.9596 18.6755 33.9293L18.4889 33.8985L17.4228 33.7242L16.7996 33.6221C16.596 33.5889 16.3987 33.5337 16.2116 33.458C15.3575 33.1167 14.7118 32.368 14.5155 31.442L14.2987 29.868L14.0486 28.0557L7.12596 29.0353C6.16826 29.1872 5.31605 29.7274 4.77005 30.5288L4.60352 30.7735L5.03719 31.4391L6.746 34.0631C7.40482 35.0394 7.77598 36.1807 7.81847 37.3577L8.21112 48.2611H19.2093L19.0706 38.5649ZM14.3426 35.4599C14.2572 36.7018 13.1808 37.639 11.9394 37.5535C10.6974 37.4681 9.76024 36.3922 9.8457 35.1502C9.93117 33.9083 11.0071 32.9711 12.249 33.0566C13.4909 33.1421 14.4281 34.2184 14.3426 35.4599Z" fill="#735FFF"/>
<path d="M26.5197 27.4273L26.1158 31.9169C26.0728 32.3946 25.9146 32.8546 25.6558 33.258L25.5268 33.4582C25.3393 33.5339 25.1425 33.5891 24.9388 33.6223L24.3152 33.7244L24.8275 32.9283C25.0868 32.5254 25.245 32.0654 25.288 31.5883L25.7012 26.9922L26.5197 27.4273Z" fill="white"/>
<path d="M24.6077 30.0284L24.5735 30.4049L24.2629 30.128C24.323 30.0425 24.3782 29.9556 24.4275 29.8682L24.6077 30.0284Z" fill="#FFAC00"/>
<path d="M24.5734 30.4048L24.4708 31.5457C24.4396 31.8939 24.3243 32.2299 24.1348 32.5234L24.1065 32.5669C23.8008 32.729 23.4579 32.8682 23.0721 32.9766L22.5876 31.3191C23.3876 31.0656 23.9155 30.6212 24.2628 30.1279L24.5734 30.4048Z" fill="#DD920B"/>
<path d="M24.1067 32.5674L23.2496 33.8992L23.063 33.93C22.8774 33.9602 22.7383 34.116 22.729 34.3041L22.6723 38.2687C22.1693 38.2696 21.7019 38.3531 21.2316 38.8186C20.6627 39.3821 20.5123 40.3774 21.0177 40.9987C21.3039 41.3513 21.7425 41.5422 22.079 41.8474C22.2782 42.0281 22.4394 42.2474 22.6123 42.4545L22.5292 48.2617H19.2093L19.0706 38.5656C19.1668 38.4918 19.2571 38.4117 19.3368 38.3194C19.6063 38.0084 19.7358 37.6035 19.8588 37.2108C20.0171 36.7059 20.1406 36.0671 19.7397 35.7218C19.6249 35.6231 19.4833 35.567 19.3358 35.5279C19.2606 35.5079 19.1839 35.4927 19.1082 35.4781C19.0808 35.4732 19.0535 35.4688 19.0261 35.4639L19.0095 34.3041C19.0003 34.116 18.8611 33.9602 18.6755 33.93L18.4889 33.8992L17.6035 32.5239C17.5938 32.5093 17.5855 32.4937 17.5762 32.4785C17.9117 32.6656 18.2941 32.8257 18.7307 32.9503C18.9602 33.0162 19.2049 33.0719 19.4657 33.1163C19.5638 33.1334 19.6649 33.1486 19.768 33.1618C20.1445 33.2111 20.5523 33.2374 20.9933 33.2374C21.6658 33.2374 22.2572 33.171 22.7778 33.0519C22.8789 33.0289 22.9766 33.004 23.0723 32.9771C23.4581 32.8687 23.801 32.7295 24.1067 32.5674Z" fill="#FFAC00"/>
<path d="M17.7836 30.323L17.2044 30.8495L17.0437 29.0605C17.1902 29.4737 17.4207 29.922 17.7836 30.323Z" fill="#DD920B"/>
<path d="M17.997 30.5381L17.2385 31.2277L17.2043 30.8487L17.7836 30.3223C17.85 30.396 17.9208 30.4683 17.997 30.5381Z" fill="#FFAC00"/>
<path d="M19.9334 31.4528L19.4655 33.1157C18.71 32.9873 18.0883 32.7631 17.576 32.4779C17.4031 32.1951 17.2966 31.8762 17.2673 31.5456L17.2385 31.2277L17.997 30.5381C18.4507 30.9561 19.0748 31.298 19.9334 31.4528Z" fill="#DD920B"/>
<g style="mix-blend-mode:multiply" opacity="0.6">
<path d="M19.3625 35.402L19.3356 35.5275L19.046 36.8759L19.026 35.4635L19.0094 34.3037C19.0001 34.1156 18.8609 33.9599 18.6753 33.9296L18.4888 33.8988L17.4226 33.7245L16.7995 33.6224C16.5958 33.5892 16.3985 33.534 16.2115 33.4583C15.9805 33.366 15.7646 33.2439 15.5688 33.0964L14.6355 30.571L15.4696 30.2194L16.296 29.8712L17.0866 29.5376L17.6302 29.3086C17.6302 29.3086 17.931 31.3427 18.7305 32.9499C18.8257 33.1413 18.9283 33.3264 19.0382 33.5018C19.3918 34.0668 19.5026 34.7505 19.3625 35.402Z" fill="#AF750E"/>
</g>
<path d="M20.2357 31.4985L19.7679 33.1615C19.6648 33.1483 19.5637 33.1331 19.4656 33.116L19.9334 31.4531C20.0311 31.4707 20.1317 31.4858 20.2357 31.4985Z" fill="#FFAC00"/>
<path d="M22.7777 33.0516C22.2571 33.1707 21.6656 33.2372 20.9931 33.2372C20.5521 33.2372 20.1444 33.2108 19.7678 33.1615L20.2357 31.4986C20.4716 31.5274 20.7236 31.5425 20.9931 31.5425C21.4864 31.5425 21.9181 31.4912 22.2956 31.4004L22.7777 33.0516Z" fill="#DD920B"/>
<path d="M16.2116 33.4586C15.9806 33.3663 15.7647 33.2442 15.5689 33.0968C15.041 32.6992 14.6586 32.1181 14.5155 31.4426L14.0486 28.0563L14.0476 28.0494L15.2187 27.4277L15.4697 30.2198L15.6226 31.9173C15.6656 32.395 15.8238 32.855 16.0827 33.2584L16.2116 33.4586Z" fill="#735FFF"/>
<path d="M17.4228 33.7244L16.7996 33.6223C16.596 33.5891 16.3987 33.5339 16.2116 33.4582L16.0827 33.258C15.8238 32.8546 15.6656 32.3946 15.6226 31.9169L15.4698 30.2193L15.2188 27.4273L16.0373 26.9922L16.2961 29.8711L16.4504 31.5883C16.4934 32.0654 16.6511 32.5254 16.911 32.9283L17.4228 33.7244Z" fill="white"/>
<path d="M18.4887 33.8993L17.4226 33.725L16.9108 32.9289C16.651 32.526 16.4932 32.066 16.4503 31.5888L16.2959 29.8717L16.0371 26.9928L16.82 26.5771L16.8253 26.6377L17.0436 29.0605L17.0866 29.5381L17.2043 30.8494L17.2385 31.2284L17.2673 31.5463C17.2966 31.877 17.4031 32.1959 17.576 32.4786C17.5852 32.4938 17.5936 32.5094 17.6033 32.5241L18.4887 33.8993Z" fill="#735FFF"/>
<path d="M37.1958 30.7778L36.8579 31.2965L35.0558 34.0636C34.397 35.0399 34.0258 36.1812 33.9833 37.3582L33.5907 48.2616H22.5291L22.6121 42.4543L22.6721 38.2685L22.7288 34.3039C22.7381 34.1159 22.8773 33.9601 23.0628 33.9298L23.2494 33.899L24.315 33.7247L24.9387 33.6226C25.1423 33.5894 25.3391 33.5342 25.5267 33.4585C26.3808 33.1172 27.0265 32.3685 27.2228 31.4425L27.5539 29.0368L27.6892 28.0557L34.6612 29.0495C35.5686 29.1931 36.3837 29.6863 36.9321 30.4233L37.1958 30.7778Z" fill="#735FFF"/>
<path d="M46.0253 42.6433V48.2611H33.5908L33.9835 37.3577C34.026 36.1807 34.3971 35.0394 35.0559 34.0631L36.858 31.296L37.196 30.7773L38.5087 32.5413L46.0253 42.6433Z" fill="#FF6060"/>
<path d="M25.7011 26.9928L25.288 31.5888C25.245 32.066 25.0868 32.526 24.8274 32.9289L24.3151 33.725L23.2495 33.8993L24.1066 32.5675L24.1349 32.5241C24.3244 32.2305 24.4397 31.8945 24.4709 31.5463L24.5735 30.4055L24.6077 30.029L24.6692 29.3452L24.9139 26.6226L24.9183 26.5771L25.7011 26.9928Z" fill="#735FFF"/>
<path d="M23.0722 32.9769C22.9764 33.0037 22.8788 33.0286 22.7777 33.0516L22.2957 31.4004C22.3967 31.3765 22.4944 31.3491 22.5877 31.3193L23.0722 32.9769Z" fill="#FFAC00"/>
<path d="M27.6903 28.0494L27.6894 28.0558L27.223 31.4426C27.0266 32.3686 26.381 33.1173 25.5269 33.4586L25.6558 33.2584C25.9146 32.855 26.0729 32.395 26.1158 31.9173L26.5197 27.4277L27.6903 28.0494Z" fill="#735FFF"/>
<path d="M12.249 33.0572C11.0071 32.9717 9.93121 33.9089 9.84574 35.1508C9.76028 36.3927 10.6975 37.4686 11.9394 37.5541C13.1808 37.6396 14.2572 36.7024 14.3427 35.4604C14.4281 34.219 13.491 33.1426 12.249 33.0572ZM10.5119 35.2905C10.4606 35.2866 10.4215 35.2421 10.4254 35.1909C10.4289 35.1391 10.4733 35.1005 10.5251 35.1039C10.5763 35.1074 10.6154 35.1518 10.6115 35.2036C10.6081 35.2548 10.5637 35.2939 10.5119 35.2905ZM12.271 36.7517C12.2603 36.9036 12.1289 37.0184 11.977 37.0081C11.8251 36.9974 11.7103 36.866 11.7211 36.7141C11.7313 36.5622 11.8632 36.4474 12.0146 36.4582C12.1665 36.4684 12.2813 36.6003 12.271 36.7517ZM13.6633 35.5073C13.6121 35.5039 13.573 35.4595 13.5769 35.4077C13.5803 35.3564 13.6248 35.3174 13.6765 35.3208C13.7278 35.3247 13.7669 35.3691 13.763 35.4209C13.7596 35.4722 13.7151 35.5112 13.6633 35.5073Z" fill="#DAD7FF"/>
<path d="M10.6114 35.2034C10.608 35.2546 10.5635 35.2937 10.5118 35.2903C10.4605 35.2864 10.4214 35.2419 10.4253 35.1907C10.4287 35.1389 10.4732 35.1003 10.5249 35.1037C10.5762 35.1071 10.6153 35.1516 10.6114 35.2034Z" fill="white"/>
<path d="M12.4092 35.4238C12.4121 35.4307 12.415 35.437 12.418 35.4439H12.4175C12.4146 35.4375 12.4116 35.4307 12.4092 35.4238Z" fill="#FFAC00"/>
<path d="M13.3903 34.597L12.6358 35.2543C12.5801 35.0634 12.4815 34.8978 12.3252 34.7645L13.0138 34.1648C13.088 34.1003 13.2004 34.1081 13.2653 34.1823L13.4074 34.3454C13.4724 34.4197 13.4646 34.5325 13.3903 34.597Z" fill="#FFAC00"/>
<path d="M12.0732 35.6446C11.9696 35.6793 11.8734 35.733 11.7909 35.8048L11.0534 36.4475C10.9924 36.5007 10.8996 36.4943 10.8459 36.4328C10.7927 36.3718 10.799 36.279 10.8605 36.2257L11.6014 35.5801C11.6615 35.5279 11.7132 35.4668 11.7557 35.3994L11.7816 35.4292C11.8544 35.5132 11.9437 35.5811 12.0439 35.6294L12.0605 35.6377C12.0649 35.6397 12.0688 35.6426 12.0732 35.6446Z" fill="#FFAC00"/>
<path d="M13.1759 36.5934C13.1144 36.6466 13.0216 36.6403 12.9684 36.5792L12.3227 35.8379C12.2529 35.7578 12.1679 35.6923 12.0732 35.6445C12.0688 35.6425 12.0649 35.6396 12.0605 35.6376L12.0439 35.6293C11.9438 35.581 11.8544 35.5131 11.7816 35.4291L11.7557 35.3993L10.9074 34.426C10.843 34.3517 10.8508 34.2389 10.925 34.1745L11.0881 34.0323C11.1624 33.9674 11.2752 33.9752 11.3396 34.0494L12.1191 34.9441L12.2172 35.0565C12.292 35.1424 12.3486 35.2435 12.3823 35.3524C12.3921 35.3837 12.4043 35.4144 12.4175 35.4442C12.4507 35.518 12.4941 35.5873 12.5479 35.6484L13.1901 36.3863C13.2433 36.4473 13.237 36.5401 13.1759 36.5934Z" fill="#FFAC00"/>
<path d="M12.2708 36.7512C12.2601 36.9031 12.1287 37.0179 11.9768 37.0076C11.8249 36.9969 11.7102 36.8655 11.7209 36.7136C11.7312 36.5618 11.863 36.447 12.0144 36.4577C12.1663 36.468 12.2811 36.5998 12.2708 36.7512Z" fill="#A39CFF"/>
<path d="M13.763 35.4206C13.7596 35.4719 13.7151 35.511 13.6634 35.5071C13.6121 35.5037 13.573 35.4592 13.5769 35.4075C13.5803 35.3562 13.6248 35.3171 13.6766 35.3205C13.7278 35.3244 13.7669 35.3689 13.763 35.4206Z" fill="white"/>
<path d="M26.9734 22.6354C26.7214 22.7897 26.4411 22.9113 26.1285 22.9934C25.9517 23.0403 25.7651 23.0745 25.5678 23.0955C25.3437 23.1189 25.1254 23.1335 24.9139 23.1394V26.622L24.6692 29.3447C24.6053 29.518 24.5261 29.6948 24.4275 29.8682C24.3782 29.9556 24.323 30.0425 24.2629 30.128C23.9157 30.6213 23.3877 31.0657 22.5878 31.3191C22.4945 31.3489 22.3968 31.3763 22.2957 31.4002C21.9182 31.4911 21.4865 31.5423 20.9933 31.5423C20.7237 31.5423 20.4717 31.5272 20.2358 31.4984C20.1318 31.4857 20.0312 31.4705 19.9335 31.453C19.0749 31.2981 18.4508 30.9563 17.9971 30.5382C17.9209 30.4684 17.8501 30.3961 17.7837 30.3224C17.4208 29.9214 17.1903 29.4731 17.0438 29.0599L16.8255 26.6371L17.0961 19.2554C17.1327 19.2632 17.1708 19.2681 17.2094 19.2681C17.4994 19.2681 17.7348 19.0327 17.7348 18.7426C17.7348 18.4525 17.4994 18.2176 17.2094 18.2176C16.9193 18.2176 16.6844 18.4525 16.6844 18.7426C16.6844 18.8285 16.7054 18.9096 16.742 18.9814C15.881 18.8119 15.2285 18.0022 15.2285 17.0284C15.2285 16.9561 15.2319 16.8848 15.2393 16.815C15.2583 16.626 15.3018 16.4448 15.3662 16.2758C15.4839 15.9672 15.672 15.6981 15.9083 15.4905C16.112 15.3118 16.3513 15.1789 16.6135 15.1062C16.6228 15.1037 16.6316 15.1013 16.6409 15.0988C16.6619 15.093 16.6829 15.0881 16.7044 15.0832C16.825 15.0568 16.95 15.0427 17.0775 15.0427C17.0877 15.0427 17.1009 15.0427 17.1146 15.0437C17.2103 15.0466 17.3041 15.0593 17.3954 15.0813C17.5488 15.1179 17.6958 15.1789 17.8335 15.2561C17.9551 15.3235 18.0699 15.4036 18.1754 15.491C18.3502 15.5335 18.5221 15.5877 18.6921 15.6619C18.7697 15.6956 18.8483 15.7337 18.9064 15.7958C18.9338 15.8246 18.989 15.8685 18.9851 15.7992C18.9851 15.7987 18.9294 14.7873 18.9294 14.7873C18.9074 14.3873 19.011 13.9898 19.2254 13.6513L19.3958 13.3827C19.4041 13.37 19.4114 13.3568 19.4187 13.3436C19.5394 13.1248 19.5384 12.8577 19.4129 12.6389L19.1951 12.257C18.9616 11.8487 19.1741 11.3301 19.6268 11.2036C20.4556 10.9721 21.7707 10.6552 23.1489 10.5238H23.1499C24.553 10.39 26.0206 10.4486 27.1047 10.9863H27.1052C27.1692 11.0185 27.2312 11.0517 27.2923 11.0869C27.4852 11.1972 27.6639 11.3247 27.8251 11.4712L28.5279 13.3627C28.5484 13.4482 28.5679 13.5341 28.5855 13.6201C29.0895 16.0473 29.5403 21.0614 26.9734 22.6354Z" fill="#C16D53"/>
<path d="M22.9696 15.2905C23.1033 15.2807 23.196 15.0591 23.1768 14.7955C23.1575 14.5318 23.0335 14.3261 22.8998 14.3358C22.7661 14.3456 22.6733 14.5672 22.6926 14.8308C22.7119 15.0945 22.8359 15.3003 22.9696 15.2905Z" fill="#231F20"/>
<path d="M27.2332 15.1049C27.3669 15.0952 27.4597 14.8735 27.4404 14.6099C27.4212 14.3463 27.2972 14.1405 27.1635 14.1503C27.0298 14.16 26.937 14.3817 26.9563 14.6453C26.9755 14.9089 27.0995 15.1147 27.2332 15.1049Z" fill="#231F20"/>
<g style="mix-blend-mode:screen">
<path d="M26.9733 22.6355C26.7213 22.7898 26.441 22.9114 26.1284 22.9934C27.6492 22.4211 28.2631 19.8268 28.2582 17.3928C28.2533 14.866 27.5032 12.1565 27.1047 10.9863C27.2976 11.0967 27.6639 11.3248 27.825 11.4713L28.5278 13.3627C28.5483 13.4482 28.5678 13.5342 28.5854 13.6201C29.0894 16.0473 29.5402 21.0614 26.9733 22.6355Z" fill="#E5765C"/>
</g>
<path d="M24.9139 23.1397C24.9139 23.1397 21.3679 23.5157 19.1042 20.2197C19.1042 20.2197 19.8319 25.4873 24.9139 26.1906V23.1397Z" fill="#843928"/>
<path d="M28.611 8.55282C28.611 9.19893 28.5157 9.65117 28.5157 9.65117C28.378 5.33591 24.0349 4.29861 24.0349 4.29861H24.0354C24.9907 3.78679 26.2301 4.20923 27.3505 5.23872C27.3998 5.28414 27.4472 5.33005 27.4926 5.37693C28.4195 6.33268 28.611 7.63712 28.611 8.55282Z" fill="#872F1B"/>
<path d="M22.6279 8.25888C22.6279 8.25888 24.7841 9.7362 26.238 7.77148C26.238 7.77148 26.0832 9.02074 25.2353 9.49544C24.576 9.86513 23.299 9.76355 22.6279 8.25888Z" fill="#872F1B"/>
<path d="M25.7349 8.67773C25.7349 8.67773 26.298 9.36829 27.3484 8.90922C27.3484 8.90922 25.9615 10.0276 25.7349 8.67773Z" fill="#872F1B"/>
<path d="M29.337 41.1835V40.6282H29.6569L29.0474 39.1138H28.3608V40.6282H28.7324V41.1835H27.4265V40.6282H27.8055V37.0514H27.4265V36.4961H30.1536L30.4686 36.8174V38.7993L30.1541 39.1138H29.5876L30.197 40.6282H30.6429V41.1835H29.337ZM28.3608 38.5585H29.9211V37.0514H28.3608V38.5585Z" fill="#DAD7FF"/>
<g style="mix-blend-mode:soft-light">
<path d="M38.5101 32.5672L36.8579 31.2965L36.1439 30.7471C35.6517 30.3686 35.0705 30.1234 34.4561 30.0345L27.554 29.0368L27.6892 28.0557L34.6612 29.0495C35.5686 29.1931 36.3837 29.6863 36.9322 30.4233L37.1959 30.7778L38.5086 32.5419L38.5101 32.5672Z" fill="white"/>
</g>
<g style="mix-blend-mode:soft-light">
<path d="M14.2215 29.3088L7.91709 29.954C6.75233 30.0731 5.65349 30.5512 4.77247 31.3224L3.42993 32.4974L4.60349 30.7744L4.77002 30.5298C5.31602 29.7283 6.16823 29.1882 7.12593 29.0363L14.0486 28.0566L14.2215 29.3093V29.3088Z" fill="white"/>
</g>
<g style="mix-blend-mode:screen">
<path d="M17.8857 15.4825C17.7475 15.6246 17.2571 15.6608 17.1409 15.6451C16.8782 15.609 16.6071 15.5387 16.3527 15.6144C16.0958 15.6906 15.9053 15.9015 15.688 16.0588C15.665 16.0754 15.6411 16.0915 15.6133 16.0959C15.4409 16.1237 15.5473 15.9123 15.5845 15.8566C15.6748 15.7208 15.7857 15.5973 15.9082 15.4898C15.9664 15.4596 16.024 15.4273 16.0797 15.3887C16.2574 15.2662 16.4098 15.166 16.6135 15.1055C16.6227 15.103 16.6315 15.1006 16.6408 15.0982C16.6618 15.0923 16.6828 15.0874 16.7043 15.0825C16.8249 15.0562 16.9499 15.042 17.0774 15.042C17.138 15.042 17.2615 15.0532 17.3953 15.0806C17.5589 15.1133 17.7372 15.169 17.8334 15.2554C17.9394 15.3506 17.9413 15.4254 17.8857 15.4825Z" fill="#E5765C"/>
</g>
<path d="M28.5571 37.2559V38.363H29.717V37.2559H28.5571ZM29.6032 38.2492H28.6709V37.3697H29.6032V38.2492Z" fill="white"/>
<path d="M30.4149 40.3113L30.0506 39.4318H30.286L30.7861 38.9312V36.6871L30.286 36.1865H27.1165V37.3694H27.4881V40.3113H27.1165V41.4941H30.9604V40.3113H30.4149ZM30.8471 41.3804H29.1408V40.4251H29.3683L28.9137 39.318H28.5572V40.4251H28.9361V41.3804H27.2302V40.4251H27.6019V37.2556H27.2302V36.3003H30.2406L30.6723 36.7325V38.8858L30.2406 39.318H29.8841L30.3314 40.4251H30.8471V41.3804ZM28.6709 40.3113V39.4318H28.8375L29.194 40.3113H28.6709Z" fill="white"/>
<path d="M28.5571 37.2559V38.363H29.717V37.2559H28.5571ZM29.6032 38.2492H28.6709V37.3697H29.6032V38.2492Z" fill="white"/>
<path d="M28.5571 37.2559V38.363H29.717V37.2559H28.5571ZM29.6032 38.2492H28.6709V37.3697H29.6032V38.2492Z" fill="white"/>
<g style="mix-blend-mode:soft-light">
<path d="M16.8255 26.6377L17.0115 28.6141L14.2141 29.3369L14.0486 28.0564L16.8255 26.6377Z" fill="white"/>
</g>
<g style="mix-blend-mode:soft-light">
<path d="M24.9138 26.6221L24.7581 28.496L27.554 29.0366L27.6893 28.0554L24.9138 26.6221Z" fill="white"/>
</g>
<path d="M16.7425 19.0553C16.7376 19.0553 16.7332 19.0553 16.7283 19.0538C15.817 18.8746 15.1558 18.0228 15.1558 17.029C15.1558 16.0352 15.8009 15.2079 16.6892 15.0125C16.7288 15.0037 16.7679 15.0286 16.7767 15.0682C16.7855 15.1077 16.7606 15.1468 16.721 15.1556C15.8991 15.3363 15.3028 16.1245 15.3028 17.0295C15.3028 17.9344 15.9142 18.7446 16.7571 18.9107C16.7967 18.9185 16.8226 18.9571 16.8148 18.9966C16.8079 19.0318 16.7772 19.0557 16.743 19.0557L16.7425 19.0553Z" fill="#231F20"/>
<path d="M18.2623 15.6388C18.2447 15.6388 18.2276 15.6324 18.2135 15.6202C17.9571 15.3902 17.5522 15.1162 17.0775 15.1162C16.9574 15.1162 16.8373 15.1294 16.72 15.1548C16.6805 15.1636 16.6414 15.1387 16.6326 15.0991C16.6238 15.0596 16.6487 15.0205 16.6883 15.0117C16.8153 14.9839 16.9462 14.9697 17.077 14.9697C17.5976 14.9697 18.0352 15.2642 18.3107 15.5113C18.3409 15.5382 18.3434 15.5846 18.316 15.6149C18.3014 15.631 18.2814 15.6393 18.2613 15.6393L18.2623 15.6388Z" fill="#231F20"/>
<path d="M16.7455 18.0528C16.7225 18.0528 16.7001 18.042 16.6854 18.022C16.662 17.9888 16.6698 17.9434 16.703 17.9199C16.7074 17.917 17.1342 17.6103 17.1738 17.3085C17.185 17.2215 17.1621 17.1454 17.104 17.0755C16.9741 16.9197 16.7924 17.0072 16.5599 17.1874C16.5482 17.1966 16.5331 17.2088 16.515 17.2235C16.3377 17.369 16.1541 17.5063 16.0266 17.4408C15.9587 17.4062 15.9284 17.3265 15.9363 17.204C15.9524 16.952 16.031 16.7048 16.1629 16.49C16.2747 16.3083 16.409 16.1764 16.5624 16.0988C16.8852 15.9352 17.2764 16.0065 17.6167 16.0983C17.6558 16.109 17.6788 16.1491 17.6685 16.1881C17.6583 16.2272 17.6182 16.2502 17.5787 16.2399C17.2651 16.1554 16.9067 16.0885 16.6283 16.2297C16.4994 16.2951 16.3846 16.4084 16.2874 16.5671C16.1677 16.762 16.0964 16.9857 16.0823 17.2137C16.0774 17.2933 16.0935 17.3109 16.094 17.3109C16.114 17.3197 16.1848 17.3055 16.4222 17.1107C16.4412 17.0951 16.4578 17.0814 16.4705 17.0716C16.62 16.9564 16.9697 16.6858 17.2168 16.9822C17.3017 17.0838 17.3359 17.2005 17.3193 17.3285C17.2715 17.6943 16.8075 18.0264 16.788 18.0405C16.7753 18.0498 16.7601 18.0542 16.7455 18.0542V18.0528Z" fill="#231F20"/>
<path d="M25.9077 17.3702C25.8863 17.3702 25.8633 17.3678 25.8394 17.3629C25.6152 17.316 25.4174 17.2027 25.2372 17.0874C25.203 17.0655 25.1933 17.0205 25.2147 16.9863C25.2362 16.9522 25.2821 16.9424 25.3158 16.9639C25.4843 17.0718 25.668 17.1773 25.8687 17.2193C25.9703 17.2403 26.0503 17.1749 26.1363 17C26.3644 16.5351 26.1651 15.9163 25.9405 15.3728C25.794 15.0182 25.6206 14.6807 25.4257 14.3692C25.4042 14.335 25.4145 14.2896 25.4487 14.2681C25.4829 14.2466 25.5283 14.2568 25.5498 14.291C25.749 14.6094 25.9263 14.9542 26.0757 15.3166C26.3131 15.8909 26.5211 16.5473 26.2677 17.0645C26.2247 17.1519 26.1177 17.3702 25.9073 17.3702H25.9077Z" fill="#231F20"/>
<path d="M24.2689 19.4875C23.464 19.4875 22.8155 18.8809 22.5781 18.626C22.5508 18.5962 22.5522 18.5498 22.582 18.5225C22.6118 18.4951 22.6582 18.4966 22.6856 18.5264C23.9402 19.8782 24.9941 19.2184 25.3892 18.8721C25.4195 18.8453 25.4659 18.8487 25.4927 18.879C25.5196 18.9092 25.5162 18.9556 25.4859 18.9825C25.0634 19.3532 24.6488 19.488 24.2689 19.488V19.4875Z" fill="#231F20"/>
<path d="M22.6317 18.6488C22.6039 18.6488 22.577 18.6327 22.5648 18.6053C22.5482 18.5682 22.5648 18.5252 22.6019 18.5086C22.7108 18.4603 22.8031 18.3875 22.8764 18.2923C22.9008 18.2601 22.9472 18.2542 22.9789 18.2791C23.0112 18.304 23.017 18.3499 22.9921 18.3817C22.9037 18.4964 22.7929 18.5838 22.6615 18.6424C22.6517 18.6468 22.6415 18.6488 22.6317 18.6488Z" fill="#231F20"/>
<path d="M22.2679 18.7238C22.2142 18.7238 22.1805 18.7194 22.1771 18.7189C22.137 18.713 22.1092 18.6759 22.115 18.6359C22.1209 18.5958 22.158 18.568 22.1981 18.5738C22.2 18.5738 22.3973 18.5997 22.6024 18.5084C22.6396 18.4918 22.6825 18.5084 22.6991 18.5455C22.7157 18.5826 22.6991 18.6256 22.662 18.6422C22.5077 18.7111 22.3592 18.7243 22.2684 18.7243L22.2679 18.7238Z" fill="#231F20"/>
<path d="M16.7044 15.1563C16.6658 15.1563 16.6336 15.1265 16.6311 15.0874L16.6301 15.0699C16.6062 14.686 16.5466 13.7254 16.4914 12.8737C16.193 12.9899 15.2793 13.3005 14.7274 12.9972C14.4999 12.8722 14.3616 12.6593 14.3162 12.3648C14.243 11.8915 14.4398 11.5629 14.8847 11.4139C14.9228 11.4012 14.9648 11.4217 14.9775 11.4603C14.9902 11.4989 14.9697 11.5404 14.9311 11.5531C14.5521 11.6801 14.3983 11.9384 14.4608 12.3428C14.4994 12.5933 14.6097 12.7657 14.7978 12.8688C15.3872 13.1926 16.5173 12.7052 16.5286 12.7003C16.5505 12.6905 16.5754 12.6925 16.5959 12.7047C16.6165 12.7169 16.6292 12.7389 16.6311 12.7623C16.6878 13.6384 16.7517 14.6611 16.7766 15.0606L16.7776 15.0787C16.7801 15.1192 16.7493 15.1539 16.7093 15.1563C16.7078 15.1563 16.7063 15.1563 16.7049 15.1563H16.7044Z" fill="#231F20"/>
<path d="M14.9081 11.5573C14.8773 11.5573 14.849 11.5378 14.8387 11.5075C14.826 11.4689 14.8465 11.4274 14.8851 11.4147C15.4731 11.2174 16.2999 11.3927 16.3351 11.4005C16.3746 11.4093 16.3996 11.4479 16.3912 11.4875C16.3829 11.527 16.3439 11.5524 16.3043 11.5436C16.296 11.5417 15.4814 11.3693 14.932 11.5539C14.9242 11.5563 14.9164 11.5578 14.9086 11.5578L14.9081 11.5573Z" fill="#231F20"/>
<path d="M18.968 15.9098C18.9382 15.9098 18.8991 15.8951 18.8532 15.8458C18.8034 15.7926 18.7321 15.7589 18.6632 15.7291C18.5079 15.6617 18.3429 15.607 18.1587 15.5625C18.1192 15.5533 18.0953 15.5132 18.1045 15.4741C18.1138 15.4351 18.1534 15.4106 18.1929 15.4199C18.3858 15.4663 18.5587 15.5239 18.7218 15.5948C18.7819 15.6206 18.8483 15.6519 18.9069 15.6973C18.8923 15.4346 18.8571 14.7919 18.8571 14.7919C18.8342 14.3738 18.9401 13.966 19.1643 13.6129L19.3347 13.3439C19.4637 13.1407 19.4695 12.8848 19.3499 12.6758L19.1316 12.2939C19.009 12.0795 18.9924 11.8255 19.0862 11.5969C19.1799 11.3689 19.3699 11.1999 19.6073 11.1335C21.4362 10.6226 25.9029 9.62783 27.8744 11.4177C27.8832 11.4255 27.8896 11.4353 27.894 11.4465L28.5967 13.3375C28.6109 13.3756 28.5913 13.4176 28.5537 13.4318C28.5156 13.4459 28.4737 13.4264 28.4595 13.3888L27.7626 11.5144C25.8384 9.78997 21.4479 10.7716 19.6463 11.2746C19.4524 11.3288 19.2976 11.4666 19.2214 11.6526C19.1448 11.8392 19.1584 12.0463 19.2586 12.2211L19.4769 12.603C19.6234 12.8594 19.616 13.1729 19.4578 13.4225L19.2874 13.6916C19.0798 14.0193 18.9812 14.3968 19.0026 14.7841C19.0401 15.4596 19.0588 15.7983 19.0588 15.7999C19.0627 15.8697 19.0212 15.8956 19.0031 15.9029C18.9934 15.9068 18.9817 15.9103 18.9685 15.9103L18.968 15.9098Z" fill="#231F20"/>
<path d="M28.5293 13.439C28.499 13.439 28.4716 13.4205 28.4609 13.3917C28.4531 13.3716 28.455 13.3497 28.4638 13.3316C28.5005 13.2256 28.8404 12.2059 28.6035 11.3903C28.5967 11.3674 28.602 11.342 28.6172 11.3234C28.875 11.0079 28.983 10.7002 28.9376 10.4087C28.8702 9.97354 28.4795 9.7147 28.4756 9.71226C28.4502 9.69565 28.4375 9.66537 28.4438 9.63558C28.4497 9.60824 29.0045 6.85675 27.301 5.292C26.3575 4.42514 25.3886 4.032 24.572 4.18535C23.9483 4.30256 23.4512 4.7294 23.0956 5.45414C23.0844 5.4771 23.0615 5.49272 23.0361 5.49468C23.0097 5.49712 22.9853 5.4854 22.9706 5.4644C22.9657 5.45756 22.4842 4.80021 21.8835 4.81145C21.5329 4.81779 21.2032 5.04928 20.9029 5.49907C20.8902 5.51812 20.8696 5.52984 20.8467 5.53179C20.8242 5.53326 20.8018 5.52398 20.7866 5.50689C20.7852 5.50493 20.6103 5.30812 20.2567 5.10984C19.931 4.9267 19.3816 4.70498 18.6153 4.68642C17.3412 4.65517 16.4216 5.11863 16.0924 5.95619C15.7774 6.75761 16.0597 7.73289 16.7942 8.38242C16.8191 8.40489 16.8259 8.44103 16.8108 8.47082C16.7952 8.50061 16.7615 8.51624 16.7287 8.50842C16.7126 8.50451 15.1049 8.13726 14.4056 8.89033C14.1389 9.17749 13.8517 9.8993 14.0075 10.5078C14.1189 10.942 14.4295 11.2467 14.931 11.4137C14.9696 11.4264 14.9901 11.468 14.9774 11.5065C14.9647 11.5446 14.9232 11.5656 14.8846 11.5529C14.3406 11.3722 13.988 11.0235 13.8654 10.5444C13.6891 9.85535 14.0193 9.09056 14.2981 8.7907C14.891 8.15289 16.0216 8.24324 16.5192 8.3204C15.8731 7.63668 15.6455 6.69265 15.9561 5.90296C16.3092 5.00435 17.2811 4.50768 18.6192 4.53991C19.9124 4.57117 20.623 5.14452 20.832 5.34426C21.1475 4.90033 21.5006 4.67177 21.8816 4.66542C21.8874 4.66542 21.8928 4.66542 21.8987 4.66542C22.429 4.66542 22.8524 5.09421 23.0165 5.28761C23.3867 4.59021 23.9132 4.16045 24.5451 4.04177C25.4076 3.87963 26.4215 4.28547 27.4002 5.18456C29.0396 6.69021 28.6631 9.23903 28.5962 9.61849C28.709 9.70347 29.0172 9.96914 29.0821 10.3852C29.1329 10.7105 29.023 11.0475 28.7544 11.3869C28.9957 12.2826 28.6147 13.3457 28.5981 13.3912C28.5879 13.42 28.5605 13.439 28.5298 13.4395L28.5293 13.439Z" fill="#231F20"/>
<path d="M17.576 32.5513C17.5516 32.5513 17.5272 32.5391 17.5135 32.5162C17.3348 32.2241 17.2244 31.891 17.1941 31.5521L17.1653 31.2342C17.1619 31.1936 17.1912 31.1585 17.2317 31.1546C17.2723 31.1511 17.3074 31.1805 17.3113 31.221L17.3401 31.5389C17.3685 31.8554 17.4715 32.1665 17.6385 32.4395C17.6595 32.4742 17.6488 32.5191 17.6141 32.5401C17.6024 32.5474 17.5892 32.5508 17.576 32.5508V32.5513Z" fill="#231F20"/>
<path d="M18.4889 33.9722C18.485 33.9722 18.4811 33.9722 18.4772 33.9712L17.4116 33.7969C17.3715 33.7905 17.3447 33.7524 17.351 33.7129C17.3574 33.6728 17.3955 33.6459 17.435 33.6523L18.5007 33.8266C18.5407 33.833 18.5676 33.8711 18.5612 33.9106C18.5554 33.9468 18.5241 33.9722 18.4889 33.9722Z" fill="#231F20"/>
<path d="M14.0485 28.1291C14.0123 28.1291 13.9811 28.1023 13.9762 28.0656L13.9752 28.0588C13.9713 28.0285 13.9865 27.9987 14.0133 27.9846L15.1844 27.3629C15.2201 27.3443 15.2645 27.3575 15.2836 27.3932C15.3026 27.4288 15.2889 27.4733 15.2533 27.4923L14.1066 28.1008C14.0954 28.1155 14.0783 28.1257 14.0587 28.1286C14.0553 28.1286 14.0524 28.1291 14.049 28.1291H14.0485Z" fill="#231F20"/>
<path d="M16.0372 27.0652C16.0108 27.0652 15.9854 27.051 15.9722 27.0261C15.9532 26.9904 15.9669 26.946 16.0025 26.927L16.7854 26.5114C16.8069 26.5001 16.8332 26.5001 16.8547 26.5114C16.8762 26.5231 16.8904 26.5446 16.8928 26.569L16.8982 26.6295C16.9016 26.6701 16.8723 26.7052 16.8318 26.7091C16.8073 26.7111 16.7854 26.7013 16.7702 26.6847L16.0709 27.0559C16.0601 27.0617 16.0484 27.0642 16.0367 27.0642L16.0372 27.0652Z" fill="#231F20"/>
<path d="M18.4889 33.9724C18.465 33.9724 18.4411 33.9607 18.4274 33.9387L17.542 32.5635C17.5356 32.5532 17.5293 32.543 17.5229 32.5327L17.5137 32.5166C17.4927 32.4819 17.5034 32.437 17.5381 32.416C17.5727 32.395 17.6177 32.4057 17.6387 32.4404L17.6494 32.4585C17.6543 32.4673 17.6597 32.4761 17.665 32.4844L18.5505 33.8601C18.5724 33.8943 18.5627 33.9392 18.5285 33.9612C18.5163 33.969 18.5026 33.9729 18.4889 33.9729V33.9724Z" fill="#231F20"/>
<path d="M17.2044 30.922C17.1668 30.922 17.1351 30.8932 17.1316 30.8551L16.9705 29.0662C16.9671 29.0257 16.9964 28.9905 17.0369 28.9866C17.0769 28.9832 17.1126 29.0125 17.1165 29.053L17.2777 30.8419C17.2811 30.8825 17.2518 30.9176 17.2113 30.9215C17.2088 30.9215 17.2069 30.9215 17.2044 30.9215V30.922Z" fill="#231F20"/>
<path d="M17.0438 29.1336C17.0062 29.1336 16.9744 29.1047 16.971 29.0667L16.7527 26.6434C16.7493 26.6028 16.7786 26.5677 16.8191 26.5637C16.8592 26.5603 16.8948 26.5896 16.8987 26.6302L17.117 29.0535C17.1205 29.094 17.0912 29.1292 17.0506 29.1331C17.0482 29.1331 17.0462 29.1331 17.0438 29.1331V29.1336Z" fill="#231F20"/>
<path d="M16.2115 33.5319C16.2022 33.5319 16.1935 33.5304 16.1842 33.5265C15.2934 33.1705 14.6429 32.3969 14.4436 31.4578C14.4436 31.4558 14.4431 31.4543 14.4426 31.4524L13.9758 28.0655C13.9704 28.0255 13.9982 27.9884 14.0383 27.983C14.0778 27.9781 14.1154 28.0055 14.1208 28.0455L14.5872 31.4294C14.7767 32.3192 15.394 33.0523 16.2384 33.3898C16.276 33.4049 16.2941 33.4474 16.2794 33.485C16.2682 33.5138 16.2403 33.5309 16.2115 33.5309V33.5319Z" fill="#231F20"/>
<path d="M17.2386 31.3012C17.201 31.3012 17.1692 31.2724 17.1658 31.2343L17.1316 30.8553C17.1282 30.8148 17.1575 30.7796 17.198 30.7757C17.2386 30.7718 17.2737 30.8016 17.2776 30.8422L17.3118 31.2211C17.3152 31.2617 17.2859 31.2968 17.2454 31.3007C17.243 31.3007 17.241 31.3007 17.2386 31.3007V31.3012Z" fill="#231F20"/>
<path d="M17.4227 33.798C17.3987 33.798 17.3748 33.7863 17.3611 33.7643L16.8493 32.9683C16.5841 32.5571 16.421 32.0824 16.3775 31.595L15.9644 26.9989C15.961 26.9584 15.9907 26.9232 16.0308 26.9193C16.0704 26.9154 16.1065 26.9452 16.1104 26.9857L16.5236 31.5818C16.5651 32.0452 16.7204 32.4975 16.9729 32.8887L17.4852 33.6847C17.5071 33.7189 17.4974 33.7638 17.4632 33.7858C17.451 33.7936 17.4373 33.7975 17.4236 33.7975L17.4227 33.798Z" fill="#231F20"/>
<path d="M16.2117 33.5317C16.1877 33.5317 16.1638 33.52 16.1501 33.498L16.0212 33.2978C15.7565 32.8856 15.5934 32.4104 15.5499 31.924L15.146 27.4344C15.1426 27.3938 15.1719 27.3587 15.2124 27.3548C15.253 27.3513 15.2881 27.3806 15.292 27.4212L15.6959 31.9113C15.7374 32.3743 15.8927 32.8265 16.1447 33.2191L16.2737 33.4194C16.2956 33.4536 16.2859 33.4985 16.2517 33.5205C16.2395 33.5283 16.2258 33.5322 16.2121 33.5322L16.2117 33.5317Z" fill="#231F20"/>
<path d="M17.4233 33.7974C17.4194 33.7974 17.4155 33.7974 17.4116 33.7964L16.7884 33.6944C16.5799 33.6602 16.3767 33.603 16.1848 33.5259C16.1472 33.5107 16.1291 33.4683 16.1443 33.4307C16.1594 33.393 16.2019 33.375 16.2395 33.3901C16.4217 33.4634 16.6141 33.5176 16.8119 33.5498L17.435 33.6519C17.4751 33.6582 17.5019 33.6963 17.4956 33.7359C17.4897 33.772 17.4585 33.7974 17.4233 33.7974Z" fill="#231F20"/>
<path d="M15.2188 27.5009C15.1924 27.5009 15.1671 27.4867 15.1539 27.4618C15.1348 27.4262 15.1485 27.3817 15.1841 27.3627L16.0027 26.9275C16.0383 26.9085 16.0827 26.9222 16.1018 26.9578C16.1208 26.9935 16.1072 27.0379 16.0715 27.057L15.253 27.4921C15.2423 27.498 15.2301 27.5009 15.2188 27.5009Z" fill="#231F20"/>
<path d="M23.2495 33.9725C23.2359 33.9725 23.2222 33.9686 23.21 33.9607C23.1758 33.9388 23.166 33.8933 23.188 33.8596L24.0451 32.5279C24.0671 32.4937 24.1125 32.4839 24.1462 32.5059C24.1804 32.5279 24.1901 32.5733 24.1682 32.607L23.3111 33.9388C23.2969 33.9607 23.2735 33.9725 23.2495 33.9725Z" fill="#231F20"/>
<path d="M23.2495 33.9722C23.2143 33.9722 23.1831 33.9468 23.1772 33.9106C23.1708 33.8706 23.1977 33.833 23.2378 33.8266L24.3039 33.6523C24.3439 33.6459 24.3815 33.6728 24.3879 33.7129C24.3942 33.7529 24.3674 33.7905 24.3273 33.7969L23.2612 33.9712C23.2573 33.9717 23.2534 33.9722 23.2495 33.9722Z" fill="#231F20"/>
<path d="M24.6077 30.102C24.6077 30.102 24.6033 30.102 24.6009 30.102C24.5603 30.0986 24.531 30.0629 24.5345 30.0224L24.596 29.3382C24.5994 29.2976 24.6346 29.2683 24.6756 29.2718C24.7161 29.2752 24.7454 29.3108 24.742 29.3514L24.6805 30.0356C24.6771 30.0737 24.6453 30.1025 24.6077 30.1025V30.102Z" fill="#231F20"/>
<path d="M24.5735 30.478C24.5735 30.478 24.5691 30.478 24.5667 30.478C24.5262 30.4746 24.4969 30.4389 24.5003 30.3984L24.534 30.0218C24.5374 29.9813 24.5726 29.9515 24.6136 29.9554C24.6541 29.9588 24.6834 29.9945 24.68 30.035L24.6463 30.4116C24.6429 30.4497 24.6111 30.4785 24.5735 30.4785V30.478Z" fill="#231F20"/>
<path d="M27.6897 28.1289C27.6863 28.1289 27.6834 28.1289 27.68 28.1284C27.6604 28.1259 27.6433 28.1157 27.6321 28.101L26.4854 27.4925C26.4498 27.4735 26.4361 27.429 26.4551 27.3934C26.4742 27.3577 26.5186 27.344 26.5543 27.3631L27.7254 27.9848C27.7527 27.999 27.7679 28.0287 27.7635 28.0595L27.7625 28.0664C27.7576 28.103 27.7259 28.1298 27.6902 28.1298L27.6897 28.1289Z" fill="#231F20"/>
<path d="M24.6692 29.4179C24.6692 29.4179 24.6648 29.4179 24.6624 29.4179C24.6219 29.4144 24.5926 29.3788 24.596 29.3383L24.8411 26.6156C24.8446 26.5751 24.8802 26.5453 24.9207 26.5492C24.9613 26.5526 24.9906 26.5882 24.9872 26.6288L24.742 29.3514C24.7386 29.3895 24.7068 29.4184 24.6692 29.4184V29.4179Z" fill="#231F20"/>
<path d="M25.5268 33.532C25.498 33.532 25.4701 33.5144 25.4589 33.4861C25.4438 33.4485 25.4623 33.406 25.4999 33.3908C26.3443 33.0529 26.9616 32.3203 27.1511 31.4305L27.6175 28.0466C27.6229 28.0065 27.6605 27.9787 27.7 27.9841C27.7401 27.9894 27.7679 28.0266 27.7625 28.0666L27.2957 31.4535C27.2957 31.4535 27.2952 31.4569 27.2947 31.4588C27.0954 32.398 26.4449 33.1711 25.5541 33.5276C25.5453 33.531 25.5361 33.5329 25.5268 33.5329V33.532Z" fill="#231F20"/>
<path d="M25.7011 27.0655C25.6894 27.0655 25.6777 27.0626 25.6669 27.0572L24.9583 26.6807C24.9441 26.691 24.9261 26.6963 24.908 26.6949C24.8675 26.6914 24.8382 26.6558 24.8416 26.6153L24.8455 26.5703C24.8474 26.5459 24.8621 26.5239 24.8836 26.5127C24.9051 26.501 24.9314 26.501 24.9529 26.5127L25.7358 26.9283C25.7714 26.9473 25.7851 26.9918 25.7661 27.0274C25.7529 27.0523 25.7275 27.0665 25.7011 27.0665V27.0655Z" fill="#231F20"/>
<path d="M24.1067 32.6403C24.093 32.6403 24.0794 32.6364 24.0672 32.6286C24.033 32.6067 24.0232 32.5612 24.0452 32.5275L24.0735 32.4841C24.2562 32.2018 24.368 31.8751 24.3983 31.5396L24.5008 30.3987C24.5043 30.3582 24.5399 30.3289 24.5804 30.3323C24.621 30.3357 24.6503 30.3714 24.6469 30.4119L24.5443 31.5527C24.5121 31.9117 24.3919 32.2614 24.1966 32.5637L24.1687 32.6071C24.1546 32.6291 24.1311 32.6408 24.1072 32.6408L24.1067 32.6403Z" fill="#231F20"/>
<path d="M25.5264 33.5312C25.5127 33.5312 25.499 33.5273 25.4868 33.5195C25.4527 33.4975 25.4429 33.4521 25.4649 33.4184L25.5938 33.2182C25.8458 32.826 26.0011 32.3738 26.0426 31.9103L26.4465 27.4202C26.4499 27.3797 26.4856 27.3504 26.5261 27.3538C26.5666 27.3572 26.5959 27.3929 26.5925 27.4334L26.1886 31.9235C26.1452 32.4099 25.982 32.8851 25.7173 33.2973L25.5884 33.4975C25.5743 33.5195 25.5508 33.5312 25.5269 33.5312H25.5264Z" fill="#231F20"/>
<path d="M24.3152 33.7975C24.3015 33.7975 24.2879 33.7936 24.2757 33.7858C24.2415 33.7638 24.2317 33.7184 24.2537 33.6847L24.7655 32.8887C25.0175 32.4975 25.1728 32.0452 25.2148 31.5818L25.628 26.9857C25.6314 26.9452 25.668 26.9154 25.7076 26.9193C25.7481 26.9227 25.7774 26.9584 25.774 26.9989L25.3608 31.595C25.3169 32.0824 25.1537 32.5571 24.8891 32.9683L24.3772 33.7643C24.3631 33.7863 24.3396 33.798 24.3157 33.798L24.3152 33.7975Z" fill="#231F20"/>
<path d="M26.5198 27.5009C26.508 27.5009 26.4963 27.498 26.4856 27.4921L25.6671 27.057C25.6314 27.0379 25.6177 26.9935 25.6368 26.9578C25.6558 26.9222 25.7003 26.9085 25.7359 26.9275L26.5544 27.3627C26.5901 27.3817 26.6038 27.4262 26.5847 27.4618C26.5715 27.4867 26.5461 27.5009 26.5198 27.5009Z" fill="#231F20"/>
<path d="M24.3152 33.7974C24.28 33.7974 24.2487 33.772 24.2429 33.7359C24.2365 33.6958 24.2634 33.6582 24.3034 33.6519L24.9266 33.5498C25.1244 33.5171 25.3168 33.4634 25.499 33.3901C25.5366 33.375 25.5791 33.393 25.5942 33.4307C25.6093 33.4683 25.5913 33.5107 25.5537 33.5259C25.3617 33.6035 25.1586 33.6602 24.95 33.6944L24.3269 33.7964C24.323 33.7969 24.3191 33.7974 24.3152 33.7974Z" fill="#231F20"/>
<path d="M24.697 23.2157C22.785 23.2157 21.4234 22.5242 20.5824 21.8971C19.5363 21.1177 19.0607 20.2904 19.0411 20.2552C19.0211 20.2201 19.0333 20.1756 19.0685 20.1556C19.1036 20.1356 19.1481 20.1478 19.1681 20.1829C19.173 20.1912 19.6516 21.0225 20.6752 21.7833C21.6183 22.4846 23.2309 23.2685 25.5604 23.0223C26.5176 22.9208 27.2819 22.4871 27.8318 21.733C28.495 20.8242 28.8535 19.466 28.8974 17.6957C28.9419 15.9111 28.644 14.2609 28.5141 13.6339C28.498 13.5567 28.4794 13.4732 28.4569 13.3785C28.4477 13.3389 28.4721 13.2998 28.5111 13.2901C28.5512 13.2808 28.5898 13.3052 28.5995 13.3443C28.6225 13.4405 28.6415 13.525 28.6577 13.6036C28.7885 14.2355 29.0889 15.8994 29.044 17.6986C28.9995 19.4987 28.6313 20.8852 27.95 21.8185C27.3742 22.6077 26.5752 23.0614 25.5755 23.1669C25.2708 23.1991 24.9778 23.2143 24.697 23.2143V23.2157Z" fill="#231F20"/>
<path d="M16.8255 26.7104C16.8255 26.7104 16.8235 26.7104 16.8226 26.7104C16.782 26.7089 16.7508 26.6748 16.7522 26.6347L17.0228 19.253C17.0243 19.2124 17.0585 19.1817 17.0985 19.1826C17.139 19.1841 17.1703 19.2183 17.1688 19.2583L16.8983 26.6401C16.8968 26.6796 16.8641 26.7109 16.825 26.7109L16.8255 26.7104Z" fill="#231F20"/>
<path d="M19.0262 35.5365C18.9861 35.5365 18.9534 35.5043 18.9529 35.4642L18.9363 34.3043C18.929 34.1544 18.8142 34.026 18.6633 34.0011L18.4768 33.9708C18.4367 33.9644 18.4099 33.9263 18.4162 33.8868C18.4226 33.8472 18.4607 33.8194 18.5002 33.8262L18.6868 33.8565C18.9051 33.8922 19.0716 34.0787 19.0824 34.2995L19.099 35.4618C19.0994 35.5023 19.0672 35.5355 19.0267 35.536H19.0257L19.0262 35.5365Z" fill="#231F20"/>
<path d="M4.6034 30.8469C4.58924 30.8469 4.57508 30.843 4.56238 30.8342C4.52917 30.8112 4.52038 30.7658 4.54334 30.7326L4.70987 30.4884C5.26466 29.6738 6.14129 29.1181 7.1151 28.9642L14.0392 27.9841C14.0788 27.9787 14.1164 28.0065 14.1223 28.0466C14.1281 28.0866 14.0998 28.1237 14.0598 28.1296L7.13708 29.1098C6.20429 29.2572 5.3638 29.7906 4.83147 30.5719L4.66494 30.8161C4.65078 30.8371 4.62782 30.8484 4.60438 30.8484L4.6034 30.8469Z" fill="#231F20"/>
<path d="M19.0706 38.6378C19.0305 38.6378 18.9978 38.6056 18.9973 38.5655L18.9529 35.4639C18.9524 35.4233 18.9846 35.3901 19.0252 35.3896H19.0261C19.0662 35.3896 19.0989 35.4219 19.0994 35.4619L19.1438 38.5636C19.1443 38.6041 19.1121 38.6373 19.0716 38.6378H19.0706Z" fill="#231F20"/>
<path d="M19.2093 48.3349H8.2112C8.17066 48.3349 8.13794 48.3021 8.13794 48.2616C8.13794 48.2211 8.17066 48.1883 8.2112 48.1883H19.1346L18.9969 38.5664C18.9964 38.5259 19.0286 38.4927 19.0692 38.4922C19.1087 38.4912 19.1429 38.524 19.1434 38.5645L19.2821 48.2606C19.2821 48.2802 19.2748 48.2992 19.2611 48.3129C19.2474 48.3266 19.2284 48.3349 19.2088 48.3349H19.2093Z" fill="#231F20"/>
<path d="M8.21108 48.3345H-1.68968C-1.70922 48.3345 -1.72778 48.3266 -1.74145 48.313C-1.75513 48.2993 -1.76294 48.2807 -1.76294 48.2612L-1.75854 40.0048C-1.75854 39.9901 -1.75415 39.976 -1.74585 39.9638L4.54292 30.7321C4.56587 30.6988 4.61129 30.6901 4.6445 30.713C4.67771 30.736 4.6865 30.7814 4.66355 30.8146L-1.61203 40.0272L-1.61643 48.1875H8.21108C8.25162 48.1875 8.28434 48.2202 8.28434 48.2607C8.28434 48.3012 8.25162 48.334 8.21108 48.334V48.3345Z" fill="#231F20"/>
<path d="M24.9143 26.6957C24.9094 26.6957 24.9046 26.6953 24.8997 26.6943C24.8953 26.6933 24.8904 26.6918 24.886 26.6899C24.8816 26.6879 24.8772 26.686 24.8733 26.683C24.8694 26.6806 24.8655 26.6777 24.8621 26.6743C24.8484 26.6606 24.8411 26.6415 24.8411 26.622C24.8411 26.6176 24.8411 26.6127 24.842 26.6078C24.843 26.6034 24.8445 26.5986 24.8464 26.5942C24.8484 26.5898 24.8503 26.5854 24.8533 26.5815C24.8557 26.5776 24.8586 26.5737 24.8621 26.5707C24.8655 26.5673 24.8694 26.5639 24.8733 26.5614C24.8772 26.5585 24.8816 26.5566 24.886 26.5546C24.8904 26.5527 24.8953 26.5512 24.8997 26.5502C24.9236 26.5453 24.949 26.5536 24.9661 26.5707C24.9793 26.5839 24.9876 26.603 24.9876 26.622C24.9876 26.641 24.9793 26.6606 24.9661 26.6743C24.9627 26.6777 24.9588 26.6806 24.9549 26.683C24.9509 26.686 24.9466 26.6879 24.9422 26.6899C24.9378 26.6918 24.9329 26.6933 24.9285 26.6943C24.9236 26.6953 24.9187 26.6957 24.9143 26.6957Z" fill="#231F20"/>
<path d="M24.9138 26.6945C24.8733 26.6945 24.8406 26.6618 24.8406 26.6213V23.1504C24.8406 23.1099 24.8733 23.0771 24.9138 23.0771C24.9544 23.0771 24.9871 23.1099 24.9871 23.1504V26.6213C24.9871 26.6618 24.9544 26.6945 24.9138 26.6945Z" fill="#231F20"/>
<path d="M22.6724 38.3417H22.6714C22.6309 38.3412 22.5986 38.308 22.5991 38.2675L22.6558 34.3029C22.6665 34.0792 22.8331 33.8932 23.0514 33.8575L23.2379 33.8272C23.2775 33.8204 23.3156 33.8477 23.3219 33.8878C23.3283 33.9278 23.3014 33.9654 23.2614 33.9718L23.0748 34.0021C22.9244 34.0265 22.8091 34.1554 22.8018 34.3078L22.7451 38.2699C22.7447 38.31 22.7119 38.3422 22.6719 38.3422L22.6724 38.3417Z" fill="#231F20"/>
<path d="M22.6121 42.5277H22.6111C22.5706 42.5272 22.5383 42.494 22.5388 42.4534L22.5989 38.2676C22.5994 38.2275 22.6321 38.1953 22.6721 38.1953H22.6731C22.7137 38.1958 22.7459 38.229 22.7454 38.2695L22.6853 42.4554C22.6848 42.4954 22.6521 42.5277 22.6121 42.5277Z" fill="#231F20"/>
<path d="M46.0253 48.3346H33.5903C33.5498 48.3346 33.5171 48.3019 33.5171 48.2613C33.5171 48.2208 33.5498 48.1881 33.5903 48.1881H45.952V42.668L37.1369 30.8211C37.1125 30.7884 37.1193 30.743 37.152 30.7185C37.1843 30.6946 37.2302 30.701 37.2546 30.7337L46.0839 42.6001C46.0932 42.6128 46.0985 42.628 46.0985 42.6441V48.2618C46.0985 48.3024 46.0658 48.3351 46.0253 48.3351V48.3346Z" fill="#231F20"/>
<path d="M37.1959 30.8504C37.1735 30.8504 37.1515 30.8402 37.1373 30.8211L36.8736 30.4671C36.3335 29.7409 35.5438 29.2632 34.65 29.1216L27.6795 28.1282C27.6395 28.1224 27.6116 28.0853 27.6175 28.0452C27.6233 28.0052 27.66 27.9773 27.7005 27.9832L34.6725 28.977C35.6053 29.125 36.4287 29.6227 36.9918 30.3796L37.2555 30.7337C37.2799 30.7664 37.2731 30.8119 37.2404 30.8363C37.2272 30.846 37.212 30.8509 37.1969 30.8509L37.1959 30.8504Z" fill="#231F20"/>
<path d="M8.21105 48.3345C8.17198 48.3345 8.13926 48.3032 8.13779 48.2637L7.74514 37.3603C7.70314 36.196 7.33686 35.0698 6.68538 34.1043L4.54191 30.8137C4.51993 30.78 4.52921 30.7345 4.5634 30.7121C4.5971 30.6901 4.64252 30.6994 4.66498 30.7336L6.80747 34.0232C7.47361 35.0107 7.84868 36.1633 7.89165 37.3549L8.28431 48.2583C8.28577 48.2988 8.25403 48.3325 8.21349 48.334C8.21251 48.334 8.21154 48.334 8.21105 48.334V48.3345Z" fill="#231F20"/>
<path d="M33.5909 48.3349C33.5909 48.3349 33.5889 48.3349 33.5884 48.3349C33.5479 48.3334 33.5162 48.2992 33.5176 48.2592L33.9103 37.3558C33.9533 36.1641 34.3283 35.0116 34.995 34.0231L37.1345 30.7383C37.1565 30.7046 37.2019 30.6949 37.2361 30.7168C37.2698 30.7388 37.2796 30.7842 37.2576 30.8184L35.1175 34.1042C34.4656 35.0712 34.0988 36.1969 34.0573 37.3611L33.6646 48.2645C33.6632 48.3041 33.6309 48.3353 33.5914 48.3353L33.5909 48.3349Z" fill="#231F20"/>
<path d="M20.9931 31.6158C20.7265 31.6158 20.4686 31.6007 20.2269 31.5714C20.1868 31.5665 20.158 31.5299 20.1629 31.4898C20.1678 31.4498 20.2049 31.4214 20.2445 31.4258C20.4803 31.4547 20.7323 31.4693 20.9931 31.4693C21.4595 31.4693 21.8922 31.4224 22.2785 31.3291C22.3176 31.3199 22.3576 31.3438 22.3669 31.3834C22.3762 31.4224 22.3523 31.4625 22.3127 31.4717C21.9152 31.5675 21.4712 31.6158 20.9931 31.6158Z" fill="#231F20"/>
<path d="M19.9335 31.5268C19.9291 31.5268 19.9247 31.5268 19.9203 31.5258C19.1277 31.3827 18.464 31.0692 17.9473 30.593C17.9175 30.5657 17.9155 30.5193 17.9429 30.4895C17.9702 30.4597 18.0166 30.4578 18.0464 30.4851C18.5421 30.9422 19.1814 31.2436 19.9462 31.3818C19.9857 31.3891 20.0126 31.4272 20.0053 31.4667C19.9989 31.5019 19.9682 31.5268 19.9335 31.5268Z" fill="#231F20"/>
<path d="M17.7837 30.3962C17.7637 30.3962 17.7437 30.3879 17.7295 30.3722C17.4048 30.0133 17.1508 29.5801 16.975 29.0854C16.9613 29.0473 16.9814 29.0053 17.0194 28.9916C17.0575 28.9779 17.0995 28.998 17.1132 29.036C17.2827 29.5127 17.5264 29.9293 17.8384 30.2736C17.8658 30.3034 17.8634 30.3498 17.8331 30.3771C17.8189 30.3898 17.8013 30.3962 17.7837 30.3962Z" fill="#231F20"/>
<path d="M24.4274 29.9418C24.4152 29.9418 24.4025 29.9388 24.3912 29.932C24.3561 29.912 24.3439 29.867 24.3639 29.8324C24.4542 29.6736 24.5338 29.5012 24.6002 29.3196C24.6144 29.2815 24.6564 29.2619 24.694 29.2761C24.7321 29.2903 24.7516 29.3323 24.7375 29.3699C24.6681 29.5589 24.5851 29.7386 24.4909 29.9046C24.4772 29.9286 24.4528 29.9418 24.4274 29.9418Z" fill="#231F20"/>
<path d="M22.5877 31.3922C22.5564 31.3922 22.5276 31.3722 22.5178 31.3409C22.5056 31.3023 22.5271 31.2613 22.5657 31.2491C23.2646 31.0279 23.8154 30.6362 24.2032 30.0858C24.2266 30.0526 24.2721 30.0448 24.3053 30.0682C24.3385 30.0916 24.3463 30.1371 24.3229 30.1703C23.9165 30.7475 23.3402 31.1578 22.6101 31.3892C22.6028 31.3917 22.5955 31.3927 22.5882 31.3927L22.5877 31.3922Z" fill="#231F20"/>
<path d="M23.0723 33.0502C23.04 33.0502 23.0107 33.0292 23.0019 32.997C22.9912 32.9579 23.0137 32.9174 23.0527 32.9066C23.4185 32.8041 23.7614 32.6678 24.073 32.5027C24.1086 32.4837 24.153 32.4974 24.1721 32.533C24.1911 32.5687 24.1775 32.6131 24.1418 32.6322C23.8214 32.8021 23.4683 32.9418 23.0928 33.0478C23.0859 33.0497 23.0796 33.0507 23.0728 33.0507L23.0723 33.0502Z" fill="#231F20"/>
<path d="M19.4656 33.1897C19.4617 33.1897 19.4573 33.1897 19.4534 33.1887C18.734 33.0666 18.0903 32.8493 17.5404 32.5426C17.5053 32.5231 17.4926 32.4782 17.5121 32.443C17.5316 32.4078 17.5761 32.3946 17.6117 32.4147C18.147 32.7131 18.775 32.925 19.4778 33.0442C19.5178 33.051 19.5447 33.0886 19.5379 33.1287C19.532 33.1643 19.5008 33.1897 19.4656 33.1897Z" fill="#231F20"/>
<path d="M20.9933 33.3101C20.5606 33.3101 20.145 33.2842 19.7582 33.2339C19.7182 33.2285 19.6899 33.1919 19.6952 33.1519C19.7006 33.1118 19.7377 33.0835 19.7773 33.0889C20.1572 33.1387 20.5665 33.1641 20.9928 33.1641C21.6336 33.1641 22.2284 33.1021 22.7612 32.9805C22.8013 32.9712 22.8399 32.9961 22.8491 33.0356C22.8584 33.0752 22.8335 33.1143 22.794 33.1235C22.2504 33.2481 21.6448 33.3111 20.9928 33.3111L20.9933 33.3101Z" fill="#231F20"/>
<path d="M17.997 30.6112C17.9794 30.6112 17.9613 30.6048 17.9477 30.5921C17.8734 30.5242 17.8002 30.45 17.7294 30.3714C17.7025 30.3411 17.7049 30.2952 17.7347 30.2679C17.765 30.241 17.8109 30.2429 17.8383 30.2732C17.9061 30.3484 17.976 30.4192 18.0468 30.4842C18.0766 30.5115 18.0785 30.5579 18.0512 30.5877C18.0365 30.6034 18.017 30.6117 17.997 30.6117V30.6112Z" fill="#231F20"/>
<path d="M20.2357 31.5714C20.2327 31.5714 20.2298 31.5714 20.2269 31.571C20.1224 31.5583 20.0193 31.5426 19.9207 31.525C19.8806 31.5177 19.8542 31.4796 19.8616 31.4401C19.8689 31.4 19.907 31.3741 19.9466 31.381C20.0428 31.3981 20.1429 31.4132 20.2449 31.4259C20.285 31.4308 20.3138 31.4674 20.3089 31.5075C20.3045 31.5446 20.2728 31.5719 20.2362 31.5719L20.2357 31.5714Z" fill="#231F20"/>
<path d="M19.768 33.2346C19.7651 33.2346 19.7616 33.2346 19.7587 33.2341C19.6547 33.221 19.5516 33.2053 19.453 33.1882C19.4129 33.1814 19.3866 33.1433 19.3934 33.1038C19.4002 33.0637 19.4383 33.0368 19.4779 33.0442C19.5746 33.0608 19.6752 33.0759 19.7768 33.0891C19.8168 33.0945 19.8452 33.1311 19.8403 33.1711C19.8354 33.2083 19.8041 33.2351 19.7675 33.2351L19.768 33.2346Z" fill="#231F20"/>
<path d="M22.2957 31.4737C22.2625 31.4737 22.2327 31.4513 22.2244 31.4176C22.2151 31.378 22.2395 31.3389 22.2786 31.3292C22.3748 31.3062 22.4715 31.2794 22.5653 31.2496C22.6043 31.2374 22.6449 31.2584 22.6576 31.2969C22.6698 31.3355 22.6488 31.3765 22.6102 31.3892C22.513 31.4205 22.4129 31.4483 22.3128 31.4718C22.3069 31.4732 22.3015 31.4737 22.2957 31.4737Z" fill="#231F20"/>
<path d="M22.7777 33.1253C22.744 33.1253 22.7142 33.1023 22.7064 33.0681C22.6976 33.0286 22.722 32.9895 22.7616 32.9807C22.8597 32.9583 22.955 32.9343 23.0526 32.907C23.0917 32.8962 23.1322 32.9187 23.143 32.9578C23.1537 32.9968 23.1313 33.0374 23.0922 33.0481C22.9921 33.076 22.8949 33.1009 22.7943 33.1238C22.7889 33.1253 22.7835 33.1258 22.7782 33.1258L22.7777 33.1253Z" fill="#231F20"/>
<path d="M24.2629 30.2013C24.2483 30.2013 24.2336 30.1969 24.2209 30.1881C24.1877 30.1646 24.1799 30.1192 24.2028 30.086C24.2619 30.0015 24.3161 29.916 24.3635 29.832C24.3835 29.7969 24.428 29.7847 24.4631 29.8042C24.4983 29.8242 24.511 29.8687 24.491 29.9038C24.4412 29.9917 24.3845 30.0816 24.3225 30.17C24.3083 30.1905 24.2854 30.2013 24.2624 30.2013H24.2629Z" fill="#231F20"/>
<path d="M22.6123 42.5277C22.5913 42.5277 22.5703 42.5189 22.5562 42.5013C22.5151 42.4525 22.4751 42.4026 22.435 42.3528C22.309 42.197 22.1786 42.0359 22.0302 41.9011C21.8959 41.7795 21.7411 41.6735 21.5906 41.5709C21.3675 41.4186 21.1369 41.2613 20.9611 41.045C20.4581 40.4262 20.5582 39.3825 21.1809 38.7662C21.6864 38.2656 22.1967 38.1958 22.6729 38.1953C22.7134 38.1953 22.7461 38.228 22.7461 38.2686C22.7461 38.3091 22.7134 38.3418 22.6729 38.3418C22.1591 38.3423 21.7259 38.4327 21.2839 38.8702C20.713 39.4358 20.6173 40.3891 21.0749 40.9522C21.2375 41.1519 21.449 41.2965 21.6732 41.4498C21.8275 41.5553 21.9867 41.6642 22.1283 41.7927C22.2851 41.9348 22.4189 42.1003 22.5488 42.2605C22.5884 42.3099 22.6284 42.3587 22.669 42.407C22.6948 42.4383 22.6905 42.4842 22.6597 42.5101C22.646 42.5213 22.6294 42.5272 22.6128 42.5272L22.6123 42.5277Z" fill="#231F20"/>
<path d="M19.0705 38.6384C19.0485 38.6384 19.0265 38.6287 19.0123 38.6096C18.9879 38.5774 18.9938 38.5315 19.026 38.507C19.1281 38.4289 19.2116 38.3522 19.2814 38.2712C19.5451 37.9664 19.6746 37.5533 19.7888 37.1884C19.9295 36.7391 20.0726 36.1043 19.6921 35.777C19.5349 35.6418 19.32 35.5924 19.0949 35.55C19.0802 35.547 19.0656 35.5446 19.0514 35.5421L19.0133 35.5353C18.9733 35.528 18.9474 35.4899 18.9542 35.4498C18.9615 35.4098 19.0001 35.3839 19.0397 35.3907L19.0758 35.3971C19.091 35.3995 19.1066 35.4025 19.1217 35.4054C19.3576 35.4498 19.6033 35.5065 19.7874 35.6657C20.2333 36.0496 20.0814 36.7435 19.9285 37.2319C19.8098 37.6104 19.6755 38.0387 19.3923 38.3664C19.3156 38.4548 19.2253 38.5388 19.1149 38.6228C19.1017 38.633 19.0861 38.6379 19.0705 38.6379V38.6384Z" fill="#231F20"/>
<path d="M17.2098 19.3406C17.1673 19.3406 17.1239 19.3357 17.0804 19.3264C17.0409 19.3176 17.0159 19.2785 17.0247 19.239C17.0335 19.1994 17.0721 19.1745 17.1122 19.1833C17.1449 19.1906 17.1776 19.194 17.2098 19.194C17.4589 19.194 17.6616 18.9914 17.6616 18.7423C17.6616 18.4932 17.4589 18.2906 17.2098 18.2906C16.9608 18.2906 16.7581 18.4932 16.7581 18.7423C16.7581 18.8141 16.7747 18.883 16.8079 18.9479C16.8265 18.984 16.8123 19.028 16.7762 19.0466C16.74 19.0651 16.6961 19.051 16.6775 19.0148C16.6335 18.9293 16.6116 18.838 16.6116 18.7428C16.6116 18.4126 16.8802 18.1445 17.2098 18.1445C17.5395 18.1445 17.8081 18.4131 17.8081 18.7428C17.8081 19.0724 17.5395 19.341 17.2098 19.341V19.3406Z" fill="#231F20"/>
<path d="M17.0961 19.329C17.0908 19.329 17.0859 19.3285 17.0805 19.3271C16.9057 19.2885 16.7587 19.1747 16.6771 19.015C16.6585 18.9789 16.6727 18.9349 16.7088 18.9164C16.745 18.8978 16.7889 18.912 16.8075 18.9481C16.8695 19.0687 16.9804 19.1547 17.1122 19.184C17.1518 19.1928 17.1767 19.2318 17.1679 19.2714C17.1606 19.3056 17.1303 19.329 17.0966 19.329H17.0961Z" fill="#231F20"/>
<path d="M12.0956 37.6324C12.0419 37.6324 11.9882 37.6305 11.934 37.627C11.3137 37.5846 10.7477 37.3028 10.3394 36.8339C9.93115 36.3651 9.72994 35.7654 9.77243 35.1456C9.81491 34.5254 10.0967 33.9594 10.5655 33.5511C11.0344 33.1428 11.6336 32.9416 12.2538 32.9841C13.5339 33.0725 14.5038 34.1855 14.4154 35.4655C14.3309 36.6913 13.3063 37.6329 12.0956 37.6329V37.6324ZM11.9442 37.4805C13.1427 37.5631 14.1868 36.6547 14.2694 35.4548C14.3519 34.2553 13.4435 33.2122 12.2436 33.1296C11.6624 33.0896 11.1008 33.2781 10.6613 33.661C10.2222 34.0434 9.95801 34.5742 9.91796 35.1554C9.87791 35.7366 10.0664 36.2982 10.4493 36.7377C10.8317 37.1768 11.3626 37.441 11.9437 37.481L11.9442 37.4805Z" fill="#231F20"/>
</g>
</g>
<defs>
<clipPath id="clip0_1083_5977">
<rect width="42" height="42" rx="21" fill="white"/>
</clipPath>
<clipPath id="clip1_1083_5977">
<rect width="42" height="42" fill="white"/>
</clipPath>
</defs>
</svg>
