<svg width="160" height="160" viewBox="0 0 160 160" fill="none" xmlns="http://www.w3.org/2000/svg">
<g clip-path="url(#clip0_1503_13091)">
<rect width="160" height="160" fill="#DEDAF9"/>
<path d="M67.561 71.4023C67.561 72.5075 66.6642 73.4042 65.5591 73.4042C65.4121 73.4042 65.267 73.3856 65.1275 73.3558C64.5377 73.2256 64.0484 72.8368 63.7786 72.3121C63.6391 72.0386 63.5591 71.7298 63.5591 71.4023C63.5591 70.2972 64.4558 69.4023 65.5591 69.4023C66.6623 69.4023 67.561 70.2972 67.561 71.4023Z" fill="#FFAC00"/>
<path d="M93.9776 111.791L93.7432 114.396L93.0566 113.785C93.4325 113.125 93.7339 112.451 93.9776 111.791Z" fill="#DD920B"/>
<path d="M110.556 40.154C110.556 38.8833 109.877 37.9289 109.326 37.3615C108.949 36.9745 108.631 36.768 108.631 36.768C108.631 36.768 108.993 35.0452 108.993 32.5838C108.993 29.0954 108.264 24.1261 104.733 20.4852C104.56 20.3066 104.379 20.1317 104.191 19.9587C99.9236 16.0368 95.2017 14.4275 91.5626 16.3754H91.5608C90.0668 17.1754 88.7552 18.5745 87.7319 20.6601H87.7301C87.7115 20.6322 87.4938 20.3345 87.1217 19.9475C87.105 19.9308 87.0864 19.9122 87.0678 19.8936C87.0491 19.8731 87.0305 19.8545 87.0119 19.8359C85.6259 18.448 82.4519 16.2173 79.3971 20.7996H79.3952C79.3952 20.7996 79.3915 20.794 79.3896 20.7903C79.3859 20.7885 79.384 20.7847 79.3784 20.7792C79.3747 20.7754 79.371 20.7698 79.3654 20.7643C79.3598 20.7587 79.3543 20.7531 79.3468 20.7457C79.3412 20.7382 79.3338 20.7308 79.3264 20.7233C78.8668 20.2471 76.1673 17.7038 70.9226 17.5773C63.7096 17.4024 60.5468 21.1978 60.5468 25.2759C60.5468 27.5791 61.5552 29.9717 63.4101 31.7912C63.4715 31.8508 63.5347 31.9122 63.598 31.9698C63.6594 32.0294 63.7226 32.0871 63.7878 32.1447C63.5961 32.1019 57.4398 30.7047 54.6733 33.6815C53.8361 34.5819 52.9133 36.595 52.9133 38.6303C52.9133 39.9178 53.2817 41.2145 54.2752 42.2433C54.8724 42.861 55.6929 43.3819 56.7924 43.7485C55.6389 44.1354 54.7589 44.9168 54.7589 46.3978C54.7589 46.6061 54.7757 46.8275 54.8129 47.0638C54.9319 47.8396 55.224 48.4089 55.6296 48.8164C57.7691 50.9652 63.0771 48.6396 63.0771 48.6396C63.3282 52.4833 63.6091 57.0173 63.6352 57.4619C64.0947 57.3615 64.571 57.3075 65.0566 57.3075C66.6231 57.3075 68.0705 58.0536 69.2389 59.0154C69.905 59.1773 70.5598 59.3838 71.2073 59.6666C71.5031 59.795 71.8026 59.9401 72.024 60.1764C72.1245 60.2824 72.3236 60.4424 72.3236 60.2154V60.1894L72.1115 56.3345C72.104 56.2005 72.1003 56.0666 72.1003 55.9326C72.1003 54.5466 72.4947 53.1829 73.2389 52.0071L73.8882 50.9838C74.1729 50.5354 74.3161 50.0238 74.3161 49.5122C74.3161 49.0433 74.1952 48.5726 73.9533 48.1503L73.1236 46.6954C72.8743 46.2601 72.7589 45.7912 72.7589 45.3336C72.7589 44.1522 73.5254 43.0303 74.7682 42.6824C81.9236 40.6843 98.6231 37.0061 106 43.7019L108.677 50.9075L108.683 50.9205C108.683 50.9205 109.563 48.5057 109.563 45.8601C109.563 45.0136 109.471 44.141 109.233 43.3168C110.212 42.1205 110.556 41.0582 110.556 40.154ZM110.556 40.154C110.556 38.8833 109.877 37.9289 109.326 37.3615C108.949 36.9745 108.631 36.768 108.631 36.768C108.631 36.768 108.993 35.0452 108.993 32.5838C108.993 29.0954 108.264 24.1261 104.733 20.4852C104.56 20.3066 104.379 20.1317 104.191 19.9587C99.9236 16.0368 95.2017 14.4275 91.5626 16.3754H91.5608C90.0668 17.1754 88.7552 18.5745 87.7319 20.6601H87.7301C87.7115 20.6322 87.4938 20.3345 87.1217 19.9475C87.105 19.9308 87.0864 19.9122 87.0678 19.8936C87.0491 19.8731 87.0305 19.8545 87.0119 19.8359C85.6259 18.448 82.4519 16.2173 79.3971 20.7996H79.3952C79.3952 20.7996 79.3915 20.794 79.3896 20.7903C79.3859 20.7885 79.384 20.7847 79.3784 20.7792C79.3747 20.7754 79.371 20.7698 79.3654 20.7643C79.3598 20.7587 79.3543 20.7531 79.3468 20.7457C79.3412 20.7382 79.3338 20.7308 79.3264 20.7233C78.8668 20.2471 76.1673 17.7038 70.9226 17.5773C63.7096 17.4024 60.5468 21.1978 60.5468 25.2759C60.5468 27.5791 61.5552 29.9717 63.4101 31.7912C63.4715 31.8508 63.5347 31.9122 63.598 31.9698C63.6594 32.0294 63.7226 32.0871 63.7878 32.1447C63.5961 32.1019 57.4398 30.7047 54.6733 33.6815C53.8361 34.5819 52.9133 36.595 52.9133 38.6303C52.9133 39.9178 53.2817 41.2145 54.2752 42.2433C54.8724 42.861 55.6929 43.3819 56.7924 43.7485C55.6389 44.1354 54.7589 44.9168 54.7589 46.3978C54.7589 46.6061 54.7757 46.8275 54.8129 47.0638C54.9319 47.8396 55.224 48.4089 55.6296 48.8164C57.7691 50.9652 63.0771 48.6396 63.0771 48.6396C63.3282 52.4833 63.6091 57.0173 63.6352 57.4619C64.0947 57.3615 64.571 57.3075 65.0566 57.3075C66.6231 57.3075 68.0705 58.0536 69.2389 59.0154C69.905 59.1773 70.5598 59.3838 71.2073 59.6666C71.5031 59.795 71.8026 59.9401 72.024 60.1764C72.1245 60.2824 72.3236 60.4424 72.3236 60.2154V60.1894L72.1115 56.3345C72.104 56.2005 72.1003 56.0666 72.1003 55.9326C72.1003 54.5466 72.4947 53.1829 73.2389 52.0071L73.8882 50.9838C74.1729 50.5354 74.3161 50.0238 74.3161 49.5122C74.3161 49.0433 74.1952 48.5726 73.9533 48.1503L73.1236 46.6954C72.8743 46.2601 72.7589 45.7912 72.7589 45.3336C72.7589 44.1522 73.5254 43.0303 74.7682 42.6824C81.9236 40.6843 98.6231 37.0061 106 43.7019L108.677 50.9075L108.683 50.9205C108.683 50.9205 109.563 48.5057 109.563 45.8601C109.563 45.0136 109.471 44.141 109.233 43.3168C110.212 42.1205 110.556 41.0582 110.556 40.154Z" fill="#541B0A"/>
<path d="M75.6521 141.755C75.1832 143.251 74.6902 144.794 73.6632 145.979C73.36 146.33 73.0158 146.635 72.6493 146.916L72.5563 140.481L72.48 135.101C72.5842 135.119 72.6884 135.136 72.7925 135.155C73.0809 135.21 73.373 135.268 73.6595 135.344C74.2214 135.493 74.7609 135.707 75.1981 136.083C76.7256 137.398 76.2549 139.832 75.6521 141.755Z" fill="#009F62"/>
<path d="M86.3703 145.786L86.1414 161.732C85.4828 160.943 84.8689 160.108 84.1098 159.42C82.8279 158.257 81.1573 157.529 80.067 156.186C78.1414 153.82 78.7145 150.028 80.8819 147.881C82.6735 146.108 84.454 145.79 86.3703 145.786Z" fill="#009F62"/>
<path d="M31.28 183.855H-6.43726L-6.42051 152.402L13.066 123.799L17.5367 117.235L19.1888 119.771L25.6986 129.767C28.2083 133.487 29.6223 137.834 29.7841 142.318L31.28 183.855Z" fill="#FF6060"/>
<path d="M72.6492 146.917L72.4799 135.101L72.4166 130.683C72.3813 129.966 71.851 129.373 71.1441 129.258L70.4334 129.14L66.372 128.476L63.998 128.087C63.2222 127.961 62.4706 127.751 61.758 127.462C58.5041 126.162 56.0445 123.31 55.2966 119.782L54.4706 113.786L53.518 106.882L27.1459 110.614C23.4976 111.193 20.251 113.25 18.171 116.303L17.5366 117.235L19.1887 119.771L25.6985 129.767C28.2083 133.486 29.6222 137.834 29.7841 142.318L31.2799 183.855H73.1776L72.6492 146.917ZM54.638 135.088C54.3124 139.82 50.212 143.39 45.4827 143.064C40.7515 142.739 37.1813 138.64 37.5069 133.909C37.8324 129.178 41.931 125.607 46.6622 125.933C51.3934 126.259 54.9636 130.359 54.638 135.088Z" fill="#735FFF"/>
<path d="M101.027 104.487L99.4884 121.59C99.3247 123.41 98.7219 125.162 97.7359 126.699L97.2447 127.462C96.5303 127.75 95.7805 127.96 95.0047 128.087L92.6289 128.476L94.5805 125.443C95.5684 123.908 96.1712 122.156 96.335 120.338L97.9089 102.829L101.027 104.487Z" fill="white"/>
<path d="M93.7432 114.396L93.613 115.831L92.4297 114.776C92.6585 114.45 92.8688 114.119 93.0567 113.786L93.7432 114.396Z" fill="#FFAC00"/>
<path d="M93.613 115.83L93.2223 120.176C93.1032 121.503 92.6642 122.783 91.9423 123.901L91.8344 124.067C90.6697 124.684 89.3637 125.214 87.8939 125.627L86.0483 119.313C89.0958 118.347 91.1069 116.654 92.4297 114.775L93.613 115.83Z" fill="#DD920B"/>
<path d="M91.8344 124.066L88.5693 129.14L87.8586 129.257C87.1516 129.372 86.6214 129.966 86.5861 130.682L86.3703 145.785C84.454 145.789 82.6735 146.107 80.8819 147.88C78.7144 150.027 78.1414 153.819 80.067 156.185C81.1572 157.528 82.8279 158.256 84.1098 159.419C84.8689 160.107 85.4828 160.942 86.1414 161.731L85.8251 183.854H73.1777L72.6493 146.916C73.0158 146.635 73.36 146.33 73.6633 145.979C74.6902 144.794 75.1833 143.251 75.6521 141.755C76.2549 139.832 76.7256 137.398 75.1982 136.083C74.7609 135.707 74.2214 135.493 73.6596 135.344C73.373 135.268 73.0809 135.21 72.7926 135.155C72.6884 135.136 72.5842 135.119 72.48 135.101L72.4168 130.682C72.3814 129.966 71.8512 129.372 71.1442 129.257L70.4335 129.14L67.0605 123.901C67.0233 123.845 66.9916 123.785 66.9563 123.728C68.2344 124.44 69.6912 125.05 71.3544 125.525C72.2289 125.776 73.1609 125.988 74.1544 126.157C74.5284 126.222 74.9135 126.28 75.3061 126.33C76.7405 126.518 78.294 126.619 79.974 126.619C82.5358 126.619 84.7889 126.366 86.7721 125.912C87.1572 125.824 87.5293 125.729 87.894 125.627C89.3637 125.214 90.6698 124.684 91.8344 124.066Z" fill="#FFAC00"/>
<path d="M67.7468 115.516L65.5403 117.522L64.9282 110.707C65.4864 112.281 66.3645 113.989 67.7468 115.516Z" fill="#DD920B"/>
<path d="M68.5601 116.338L65.6708 118.965L65.5405 117.521L67.747 115.516C68.0001 115.797 68.2698 116.072 68.5601 116.338Z" fill="#FFAC00"/>
<path d="M75.9367 119.823L74.1544 126.157C71.2762 125.668 68.9079 124.814 66.9562 123.728C66.2976 122.65 65.892 121.436 65.7804 120.176L65.6707 118.965L68.56 116.338C70.2883 117.93 72.666 119.233 75.9367 119.823Z" fill="#DD920B"/>
<g style="mix-blend-mode:multiply" opacity="0.6">
<path d="M73.7618 134.866L73.6595 135.344L72.5563 140.481L72.48 135.101L72.4167 130.682C72.3814 129.966 71.8511 129.372 71.1442 129.257L70.4335 129.14L66.3721 128.476L63.9981 128.087C63.2223 127.96 62.4707 127.75 61.7581 127.462C60.8781 127.11 60.0558 126.645 59.3097 126.083L55.7544 116.463L58.9321 115.123L62.08 113.797L65.0921 112.526L67.1628 111.653C67.1628 111.653 68.3088 119.402 71.3544 125.525C71.7172 126.254 72.1079 126.959 72.5265 127.627C73.8735 129.78 74.2958 132.384 73.7618 134.866Z" fill="#AF750E"/>
</g>
<path d="M77.0882 119.996L75.3059 126.331C74.9134 126.281 74.5283 126.223 74.1543 126.158L75.9366 119.823C76.3087 119.89 76.692 119.948 77.0882 119.996Z" fill="#FFAC00"/>
<path d="M86.772 125.912C84.7887 126.366 82.5357 126.619 79.9738 126.619C78.2938 126.619 76.7403 126.519 75.3059 126.331L77.0882 119.996C77.9868 120.106 78.9468 120.163 79.9738 120.163C81.8529 120.163 83.4975 119.968 84.9357 119.622L86.772 125.912Z" fill="#DD920B"/>
<path d="M61.7581 127.462C60.8781 127.111 60.0558 126.645 59.3098 126.084C57.2986 124.569 55.8418 122.355 55.2967 119.782L53.5181 106.882L53.5144 106.856L57.9758 104.487L58.9321 115.124L59.5144 121.591C59.6781 123.41 60.2809 125.163 61.267 126.699L61.7581 127.462Z" fill="#735FFF"/>
<path d="M66.3721 128.476L63.9982 128.087C63.2223 127.96 62.4707 127.75 61.7582 127.462L61.267 126.699C60.2809 125.162 59.6782 123.41 59.5144 121.59L58.9321 115.123L57.9758 104.487L61.094 102.829L62.08 113.797L62.6679 120.338C62.8316 122.156 63.4326 123.908 64.4223 125.443L66.3721 128.476Z" fill="white"/>
<path d="M70.4335 129.14L66.3721 128.476L64.4224 125.443C63.4326 123.908 62.8317 122.156 62.668 120.338L62.08 113.797L61.094 102.829L64.0763 101.246L64.0968 101.477L64.9284 110.707L65.0921 112.526L65.5405 117.521L65.6707 118.965L65.7805 120.176C65.8921 121.436 66.2977 122.651 66.9563 123.728C66.9917 123.786 67.0233 123.845 67.0605 123.901L70.4335 129.14Z" fill="#735FFF"/>
<path d="M141.698 117.25L140.411 119.226L133.546 129.767C131.036 133.486 129.622 137.834 129.46 142.318L127.964 183.855H85.825L86.1412 161.732L86.3701 145.786L86.5859 130.683C86.6212 129.966 87.1515 129.373 87.8584 129.258L88.5691 129.14L92.6287 128.476L95.0045 128.087C95.7803 127.961 96.5301 127.751 97.2445 127.462C100.498 126.162 102.958 123.31 103.706 119.782L104.967 110.618L105.483 106.88L132.043 110.666C135.499 111.213 138.604 113.092 140.694 115.899L141.698 117.25Z" fill="#735FFF"/>
<path d="M175.334 162.454V183.855H127.965L129.46 142.318C129.622 137.834 131.036 133.486 133.546 129.767L140.411 119.226L141.699 117.25L146.699 123.97L175.334 162.454Z" fill="#FF6060"/>
<path d="M97.9089 102.829L96.3349 120.338C96.1712 122.156 95.5684 123.908 94.5805 125.443L92.6289 128.476L88.5693 129.14L91.8345 124.067L91.9424 123.901C92.6642 122.783 93.1033 121.503 93.2224 120.176L93.6131 115.83L93.7433 114.396L93.9777 111.791L94.9098 101.419L94.9265 101.246L97.9089 102.829Z" fill="#735FFF"/>
<path d="M87.8939 125.628C87.5293 125.73 87.1572 125.825 86.7721 125.913L84.9358 119.622C85.3209 119.531 85.693 119.427 86.0484 119.313L87.8939 125.628Z" fill="#FFAC00"/>
<path d="M105.486 106.856L105.483 106.88L103.706 119.782C102.958 123.31 100.499 126.162 97.2446 127.462L97.7358 126.699C98.7218 125.163 99.3246 123.41 99.4883 121.591L101.027 104.487L105.486 106.856Z" fill="#735FFF"/>
<path d="M46.6623 125.933C41.9311 125.607 37.8325 129.177 37.5069 133.909C37.1814 138.64 40.7516 142.738 45.4828 143.064C50.2121 143.389 54.3125 139.819 54.6381 135.088C54.9637 130.359 51.3935 126.258 46.6623 125.933ZM40.0446 134.441C39.8493 134.426 39.7004 134.256 39.7153 134.061C39.7283 133.864 39.8976 133.717 40.0948 133.73C40.2902 133.743 40.439 133.912 40.4241 134.109C40.4111 134.305 40.2418 134.454 40.0446 134.441ZM46.746 140.007C46.7051 140.586 46.2046 141.023 45.626 140.984C45.0474 140.943 44.6102 140.442 44.6511 139.864C44.6902 139.285 45.1925 138.848 45.7693 138.889C46.3479 138.928 46.7851 139.43 46.746 140.007ZM52.0502 135.267C51.8548 135.254 51.706 135.084 51.7209 134.887C51.7339 134.692 51.9032 134.543 52.1004 134.556C52.2958 134.571 52.4446 134.74 52.4297 134.937C52.4167 135.133 52.2474 135.282 52.0502 135.267Z" fill="#DAD7FF"/>
<path d="M40.4242 134.11C40.4112 134.305 40.2419 134.454 40.0447 134.441C39.8493 134.426 39.7005 134.257 39.7154 134.061C39.7284 133.864 39.8977 133.717 40.0949 133.73C40.2903 133.743 40.4391 133.913 40.4242 134.11Z" fill="white"/>
<path d="M47.2725 134.948C47.2836 134.974 47.2948 134.998 47.306 135.025H47.3041C47.2929 135 47.2818 134.974 47.2725 134.948Z" fill="#FFAC00"/>
<path d="M51.0101 131.799L48.1356 134.303C47.9236 133.576 47.5477 132.945 46.9524 132.437L49.5756 130.153C49.8584 129.907 50.2863 129.937 50.5338 130.22L51.0752 130.841C51.3226 131.124 51.2929 131.554 51.0101 131.799Z" fill="#FFAC00"/>
<path d="M45.9925 135.789C45.598 135.922 45.2315 136.126 44.9171 136.4L42.1078 138.848C41.8752 139.051 41.5218 139.027 41.3171 138.792C41.1143 138.56 41.1385 138.206 41.3729 138.003L44.1952 135.544C44.4241 135.345 44.6213 135.112 44.7832 134.855L44.8818 134.969C45.159 135.289 45.4994 135.548 45.8808 135.732L45.9441 135.763C45.9608 135.771 45.9757 135.782 45.9925 135.789Z" fill="#FFAC00"/>
<path d="M50.1934 139.405C49.959 139.607 49.6055 139.583 49.4027 139.351L46.9432 136.526C46.6771 136.221 46.3534 135.972 45.9925 135.79C45.9757 135.782 45.9609 135.771 45.9441 135.764L45.8809 135.732C45.4995 135.548 45.159 135.289 44.8818 134.969L44.7832 134.856L41.5516 131.148C41.306 130.865 41.3357 130.435 41.6185 130.19L42.2399 129.648C42.5227 129.401 42.9525 129.431 43.1981 129.713L46.1674 133.122L46.5413 133.55C46.826 133.877 47.0418 134.262 47.1702 134.677C47.2074 134.796 47.2539 134.913 47.3041 135.027C47.4306 135.308 47.5962 135.572 47.8009 135.805L50.2474 138.616C50.4502 138.848 50.426 139.202 50.1934 139.405Z" fill="#FFAC00"/>
<path d="M46.746 140.008C46.705 140.586 46.2046 141.023 45.626 140.984C45.0474 140.943 44.6102 140.443 44.6511 139.864C44.6902 139.286 45.1925 138.848 45.7692 138.889C46.3478 138.928 46.785 139.431 46.746 140.008Z" fill="#A39CFF"/>
<path d="M52.4296 134.937C52.4166 135.132 52.2473 135.281 52.0501 135.266C51.8547 135.253 51.7059 135.084 51.7208 134.887C51.7338 134.691 51.9031 134.542 52.1003 134.555C52.2956 134.57 52.4445 134.74 52.4296 134.937Z" fill="white"/>
<path d="M102.755 86.2318C101.795 86.8197 100.727 87.283 99.5367 87.5956C98.8632 87.7742 98.1525 87.9044 97.4008 87.9844C96.5469 88.0737 95.7153 88.1295 94.9097 88.1518V101.419L93.9776 111.791C93.7339 112.451 93.4325 113.125 93.0567 113.785C92.8688 114.118 92.6585 114.45 92.4297 114.775C91.1069 116.654 89.0957 118.347 86.0483 119.313C85.6929 119.426 85.3208 119.53 84.9357 119.622C83.4976 119.968 81.8529 120.163 79.9739 120.163C78.9469 120.163 77.9869 120.105 77.0883 119.996C76.692 119.947 76.3088 119.89 75.9367 119.823C72.666 119.233 70.2883 117.93 68.5599 116.338C68.2697 116.072 67.9999 115.796 67.7469 115.516C66.3646 113.988 65.4864 112.28 64.9283 110.706L64.0967 101.476L65.1274 73.3556C65.2669 73.3853 65.412 73.4039 65.559 73.4039C66.6641 73.4039 67.5608 72.5072 67.5608 71.4021C67.5608 70.297 66.6641 69.4021 65.559 69.4021C64.4539 69.4021 63.559 70.297 63.559 71.4021C63.559 71.7295 63.639 72.0384 63.7785 72.3118C60.4985 71.6663 58.0129 68.5816 58.0129 64.8718C58.0129 64.5965 58.026 64.3249 58.0539 64.0588C58.1264 63.3388 58.292 62.6486 58.5376 62.0049C58.986 60.8291 59.7022 59.8039 60.6027 59.0132C61.3785 58.3323 62.2902 57.8263 63.2892 57.549C63.3246 57.5397 63.3581 57.5304 63.3934 57.5211C63.4734 57.4988 63.5534 57.4802 63.6353 57.4616C64.0948 57.3611 64.5711 57.3072 65.0567 57.3072C65.0957 57.3072 65.146 57.3072 65.1981 57.3109C65.5627 57.3221 65.9199 57.3704 66.2678 57.4542C66.852 57.5937 67.412 57.8263 67.9367 58.1202C68.3999 58.377 68.8371 58.6821 69.239 59.0151C69.905 59.177 70.5599 59.3835 71.2074 59.6663C71.5032 59.7946 71.8027 59.9398 72.0241 60.176C72.1283 60.2858 72.3385 60.4532 72.3236 60.1891C72.3236 60.1872 72.1115 56.3342 72.1115 56.3342C72.0278 54.8104 72.4222 53.296 73.239 52.0067L73.8883 50.9835C73.9199 50.9351 73.9478 50.8849 73.9757 50.8346C74.4353 50.0011 74.4315 48.9835 73.9534 48.15L73.1236 46.6951C72.2343 45.1398 73.0436 43.1639 74.7683 42.6821C77.9255 41.8002 82.9357 40.5928 88.186 40.0923H88.1897C93.5348 39.5825 99.1255 39.8058 103.256 41.8542H103.258C103.501 41.977 103.738 42.1035 103.97 42.2374C104.705 42.6579 105.386 43.1435 106 43.7016L108.677 50.9072C108.755 51.2328 108.83 51.5602 108.897 51.8877C110.817 61.1342 112.534 80.2356 102.755 86.2318Z" fill="#C16D53"/>
<path d="M87.5029 58.2501C88.0122 58.2129 88.3656 57.3685 88.2922 56.3643C88.2188 55.36 87.7464 54.576 87.2371 54.6133C86.7278 54.6505 86.3744 55.4948 86.4478 56.4991C86.5212 57.5033 86.9936 58.2873 87.5029 58.2501Z" fill="#231F20"/>
<path d="M103.745 57.543C104.254 57.5058 104.608 56.6615 104.534 55.6572C104.461 54.653 103.988 53.869 103.479 53.9062C102.97 53.9435 102.616 54.7878 102.69 55.792C102.763 56.7963 103.236 57.5803 103.745 57.543Z" fill="#231F20"/>
<g style="mix-blend-mode:screen">
<path d="M102.755 86.2322C101.795 86.8201 100.727 87.2833 99.5366 87.5959C105.33 85.4154 107.669 75.5326 107.65 66.2601C107.631 56.634 104.774 46.3122 103.256 41.8545C103.991 42.275 105.386 43.1438 106 43.7019L108.677 50.9075C108.755 51.2331 108.83 51.5605 108.897 51.888C110.817 61.1345 112.534 80.2359 102.755 86.2322Z" fill="#E5765C"/>
</g>
<path d="M94.9097 88.152C94.9097 88.152 81.4008 89.5846 72.7776 77.0283C72.7776 77.0283 75.5497 97.0953 94.9097 99.7744V88.152Z" fill="#843928"/>
<path d="M108.993 32.5841C108.993 35.0455 108.631 36.7683 108.631 36.7683C108.106 20.3292 91.5608 16.3776 91.5608 16.3776H91.5627C95.2017 14.4278 99.9236 16.0371 104.191 19.959C104.379 20.132 104.56 20.3069 104.733 20.4855C108.264 24.1264 108.993 29.0957 108.993 32.5841Z" fill="#872F1B"/>
<path d="M86.2009 31.4642C86.2009 31.4642 94.4149 37.0921 99.9535 29.6074C99.9535 29.6074 99.3637 34.3665 96.134 36.1749C93.6223 37.5832 88.7572 37.1963 86.2009 31.4642Z" fill="#872F1B"/>
<path d="M98.0371 33.0586C98.0371 33.0586 100.182 35.6893 104.184 33.9405C104.184 33.9405 98.9004 38.2009 98.0371 33.0586Z" fill="#872F1B"/>
<path d="M111.76 156.891V154.776H112.979L110.657 149.006H108.041V154.776H109.457V156.891H104.482V154.776H105.926V141.15H104.482V139.034H114.871L116.071 140.258V147.808L114.873 149.006H112.714L115.036 154.776H116.735V156.891H111.76ZM108.041 146.891H113.985V141.15H108.041V146.891Z" fill="#DAD7FF"/>
<g style="mix-blend-mode:soft-light">
<path d="M146.705 124.067L140.411 119.226L137.691 117.133C135.816 115.691 133.602 114.757 131.261 114.418L104.967 110.618L105.483 106.88L132.043 110.666C135.499 111.213 138.604 113.092 140.694 115.899L141.698 117.25L146.699 123.97L146.705 124.067Z" fill="white"/>
</g>
<g style="mix-blend-mode:soft-light">
<path d="M54.1766 111.654L30.1599 114.112C25.7227 114.566 21.5366 116.387 18.1803 119.325L13.0659 123.801L17.5366 117.237L18.171 116.305C20.251 113.252 23.4975 111.194 27.1459 110.616L53.518 106.884L54.1766 111.656V111.654Z" fill="white"/>
</g>
<g style="mix-blend-mode:screen">
<path d="M68.1358 58.9838C67.6093 59.5252 65.7414 59.6629 65.2986 59.6033C64.2977 59.4657 63.2651 59.1978 62.2958 59.4861C61.3172 59.7764 60.5916 60.5801 59.7637 61.1792C59.6763 61.2424 59.5851 61.3038 59.4791 61.3205C58.8223 61.4266 59.2279 60.621 59.3693 60.4089C59.7135 59.8917 60.1358 59.421 60.6028 59.0117C60.8242 58.8964 61.0437 58.7736 61.2558 58.6266C61.933 58.1596 62.5135 57.7782 63.2893 57.5475C63.3247 57.5382 63.3581 57.5289 63.3935 57.5196C63.4735 57.4973 63.5535 57.4787 63.6354 57.4601C64.0949 57.3596 64.5712 57.3057 65.0568 57.3057C65.2874 57.3057 65.7581 57.3485 66.2679 57.4526C66.8912 57.5773 67.5702 57.7894 67.9367 58.1187C68.3405 58.4815 68.3479 58.7661 68.1358 58.9838Z" fill="#E5765C"/>
</g>
<path d="M108.789 141.925V146.142H113.207V141.925H108.789ZM112.774 145.709H109.222V142.358H112.774V145.709Z" fill="white"/>
<path d="M115.866 153.566L114.478 150.215H115.375L117.28 148.308V139.76L115.375 137.853H103.3V142.359H104.716V153.566H103.3V158.072H117.944V153.566H115.866ZM117.512 157.639H111.012V154H111.879L110.147 149.782H108.789V154H110.232V157.639H103.734V154H105.15V141.925H103.734V138.286H115.202L116.846 139.933V148.135L115.202 149.782H113.844L115.548 154H117.512V157.639ZM109.222 153.566V150.215H109.857L111.215 153.566H109.222Z" fill="white"/>
<path d="M108.789 141.925V146.142H113.207V141.925H108.789ZM112.774 145.709H109.222V142.358H112.774V145.709Z" fill="white"/>
<path d="M108.789 141.925V146.142H113.207V141.925H108.789ZM112.774 145.709H109.222V142.358H112.774V145.709Z" fill="white"/>
<g style="mix-blend-mode:soft-light">
<path d="M64.0967 101.477L64.8055 109.006L54.1488 111.759L53.5181 106.881L64.0967 101.477Z" fill="white"/>
</g>
<g style="mix-blend-mode:soft-light">
<path d="M94.9096 101.419L94.3162 108.558L104.967 110.617L105.483 106.879L94.9096 101.419Z" fill="white"/>
</g>
<path d="M63.7805 72.5912C63.7619 72.5912 63.7451 72.5912 63.7265 72.5857C60.2549 71.9029 57.7358 68.6582 57.7358 64.8722C57.7358 61.0861 60.1935 57.9345 63.5777 57.1903C63.7284 57.1568 63.8772 57.2517 63.9107 57.4024C63.9442 57.5531 63.8493 57.7019 63.6986 57.7354C60.5675 58.4238 58.2958 61.4266 58.2958 64.874C58.2958 68.3215 60.6251 71.408 63.8363 72.0405C63.987 72.0703 64.0856 72.2173 64.0558 72.368C64.0298 72.5019 63.9126 72.5931 63.7823 72.5931L63.7805 72.5912Z" fill="#231F20"/>
<path d="M69.5701 59.5791C69.5031 59.5791 69.438 59.5549 69.384 59.5084C68.4073 58.6321 66.865 57.5884 65.0566 57.5884C64.5989 57.5884 64.1412 57.6386 63.6947 57.7354C63.544 57.7689 63.3952 57.674 63.3617 57.5233C63.3282 57.3726 63.4231 57.2238 63.5738 57.1903C64.0575 57.0842 64.5561 57.0303 65.0547 57.0303C67.038 57.0303 68.705 58.1521 69.7543 59.0935C69.8696 59.1959 69.8789 59.3726 69.7747 59.4879C69.7189 59.5493 69.6426 59.581 69.5664 59.581L69.5701 59.5791Z" fill="#231F20"/>
<path d="M63.7915 68.7753C63.704 68.7753 63.6184 68.7344 63.5626 68.6581C63.4733 68.5316 63.5031 68.3585 63.6296 68.2692C63.6464 68.2581 65.2724 67.0897 65.4231 65.9399C65.4659 65.6088 65.3784 65.3185 65.157 65.0525C64.6622 64.459 63.9701 64.792 63.0845 65.4785C63.0398 65.5139 62.9822 65.5604 62.9133 65.6162C62.238 66.1706 61.5384 66.6934 61.0529 66.4441C60.7943 66.312 60.6789 66.0088 60.7087 65.5418C60.7701 64.5818 61.0696 63.6404 61.5719 62.8218C61.998 62.1297 62.5096 61.6274 63.0938 61.3316C64.3236 60.7083 65.8138 60.9799 67.1105 61.3297C67.2594 61.3706 67.3468 61.5232 67.3077 61.672C67.2687 61.8209 67.1161 61.9083 66.9654 61.8692C65.771 61.5474 64.4054 61.2925 63.345 61.8302C62.8538 62.0795 62.4166 62.5111 62.0464 63.1157C61.5905 63.8581 61.3189 64.7102 61.265 65.579C61.2464 65.8823 61.3077 65.9492 61.3096 65.9492C61.3859 65.9827 61.6557 65.9288 62.5598 65.1864C62.6324 65.1269 62.6957 65.0748 62.744 65.0376C63.3133 64.5985 64.6454 63.5678 65.5868 64.6971C65.9105 65.0841 66.0408 65.5288 65.9775 66.0162C65.7952 67.4097 64.0277 68.6748 63.9533 68.7288C63.905 68.7641 63.8473 68.7809 63.7915 68.7809V68.7753Z" fill="#231F20"/>
<path d="M98.6958 66.173C98.6139 66.173 98.5265 66.1637 98.4353 66.1451C97.5814 65.9665 96.8279 65.5348 96.1414 65.0958C96.0111 65.012 95.9739 64.8409 96.0558 64.7106C96.1376 64.5804 96.3125 64.5432 96.4409 64.6251C97.0828 65.0362 97.7823 65.4381 98.5469 65.5981C98.9339 65.6781 99.239 65.4288 99.5665 64.7627C100.435 62.9916 99.6762 60.6344 98.8204 58.5637C98.2623 57.213 97.6018 55.9274 96.8595 54.7404C96.7776 54.6102 96.8167 54.4372 96.9469 54.3553C97.0772 54.2734 97.2502 54.3125 97.3321 54.4427C98.0911 55.6558 98.7665 56.9692 99.3358 58.3497C100.24 60.5376 101.033 63.0381 100.067 65.0083C99.9032 65.3413 99.4958 66.173 98.6939 66.173H98.6958Z" fill="#231F20"/>
<path d="M92.4521 74.238C89.386 74.238 86.9153 71.9273 86.0111 70.9561C85.907 70.8426 85.9125 70.6659 86.026 70.5617C86.1395 70.4575 86.3163 70.4631 86.4204 70.5766C91.2 75.7263 95.2149 73.2128 96.72 71.8938C96.8353 71.7914 97.0121 71.8045 97.1144 71.9198C97.2167 72.0352 97.2037 72.2119 97.0884 72.3142C95.479 73.7263 93.8995 74.2398 92.4521 74.2398V74.238Z" fill="#231F20"/>
<path d="M86.2157 71.0453C86.1097 71.0453 86.0073 70.9839 85.9608 70.8797C85.8976 70.7383 85.9608 70.5746 86.1022 70.5113C86.5171 70.3271 86.8687 70.0499 87.1478 69.6871C87.2408 69.5643 87.4176 69.542 87.5385 69.6369C87.6613 69.7318 87.6836 69.9067 87.5887 70.0276C87.252 70.4648 86.8296 70.7978 86.3292 71.0211C86.292 71.0378 86.2529 71.0453 86.2157 71.0453Z" fill="#231F20"/>
<path d="M84.8297 71.3313C84.625 71.3313 84.4967 71.3146 84.4836 71.3127C84.3311 71.2904 84.225 71.149 84.2474 70.9964C84.2697 70.8439 84.4111 70.7378 84.5636 70.7602C84.5711 70.7602 85.3227 70.8588 86.1041 70.5109C86.2455 70.4476 86.4092 70.5109 86.4725 70.6523C86.5357 70.7937 86.4725 70.9574 86.3311 71.0206C85.7432 71.283 85.1776 71.3332 84.8315 71.3332L84.8297 71.3313Z" fill="#231F20"/>
<path d="M63.6354 57.7408C63.4884 57.7408 63.3656 57.6273 63.3563 57.4785L63.3526 57.4115C63.2614 55.9491 63.0344 52.2896 62.8242 49.045C61.6875 49.4878 58.2065 50.671 56.1042 49.5157C55.2372 49.0394 54.7107 48.2282 54.5377 47.1064C54.2586 45.3036 55.0084 44.0515 56.7033 43.484C56.8484 43.4357 57.0084 43.5138 57.0568 43.6608C57.1051 43.8078 57.027 43.9659 56.88 44.0143C55.4363 44.498 54.8503 45.4822 55.0884 47.0226C55.2354 47.9771 55.6558 48.6338 56.3721 49.0264C58.6177 50.2598 62.9228 48.4031 62.9656 48.3845C63.0493 48.3473 63.1442 48.3547 63.2223 48.4012C63.3005 48.4478 63.3489 48.5315 63.3563 48.6208C63.5721 51.9584 63.8158 55.8543 63.9107 57.3761L63.9144 57.445C63.9237 57.5994 63.8065 57.7315 63.654 57.7408C63.6484 57.7408 63.6428 57.7408 63.6372 57.7408H63.6354Z" fill="#231F20"/>
<path d="M56.7926 44.028C56.6754 44.028 56.5675 43.9536 56.5285 43.8383C56.4801 43.6913 56.5582 43.5331 56.7052 43.4848C58.9452 42.7331 62.095 43.401 62.2289 43.4308C62.3796 43.4643 62.4745 43.6113 62.4429 43.762C62.4112 43.9127 62.2624 44.0094 62.1117 43.9759C62.0801 43.9685 58.9768 43.3117 56.8838 44.015C56.854 44.0243 56.8243 44.0299 56.7945 44.0299L56.7926 44.028Z" fill="#231F20"/>
<path d="M72.2586 60.6098C72.1451 60.6098 71.9962 60.554 71.8214 60.3661C71.6316 60.1633 71.36 60.0349 71.0976 59.9215C70.506 59.6647 69.8772 59.4563 69.1758 59.287C69.0251 59.2517 68.9339 59.0991 68.9693 58.9503C69.0046 58.8015 69.1553 58.7084 69.306 58.7438C70.0409 58.9205 70.6995 59.1401 71.3209 59.4098C71.5497 59.5084 71.8028 59.6275 72.026 59.8005C71.9702 58.7996 71.8362 56.3512 71.8362 56.3512C71.7488 54.7587 72.1525 53.2052 73.0065 51.8601L73.6558 50.8349C74.1469 50.061 74.1693 49.0861 73.7135 48.2898L72.8818 46.8349C72.4149 46.0182 72.3516 45.0508 72.7088 44.1801C73.066 43.3112 73.7897 42.6675 74.6939 42.4145C81.6614 40.4684 98.6772 36.6787 106.188 43.4973C106.221 43.527 106.246 43.5642 106.262 43.607L108.94 50.8108C108.993 50.9559 108.919 51.1159 108.776 51.1698C108.631 51.2238 108.471 51.1494 108.417 51.0061L105.762 43.8656C98.4316 37.2963 81.706 41.0359 74.8428 42.9522C74.1042 43.1587 73.5144 43.6833 73.2242 44.3922C72.9321 45.1029 72.9842 45.8917 73.3656 46.5577L74.1972 48.0126C74.7553 48.9894 74.7274 50.1838 74.1246 51.1345L73.4753 52.1596C72.6846 53.408 72.3088 54.8461 72.3907 56.3215C72.5333 58.8951 72.6046 60.185 72.6046 60.1912C72.6195 60.4573 72.4614 60.5559 72.3925 60.5838C72.3553 60.5987 72.3107 60.6117 72.2604 60.6117L72.2586 60.6098Z" fill="#231F20"/>
<path d="M108.683 51.1978C108.567 51.1978 108.463 51.1271 108.422 51.0173C108.392 50.941 108.4 50.8573 108.433 50.7885C108.573 50.3848 109.868 46.5001 108.966 43.3931C108.939 43.3057 108.96 43.2089 109.018 43.1382C110 41.9364 110.411 40.7643 110.238 39.6536C109.981 37.9959 108.493 37.0099 108.478 37.0006C108.381 36.9373 108.333 36.822 108.357 36.7085C108.379 36.6043 110.493 26.1224 104.004 20.1615C100.409 16.8592 96.7181 15.3615 93.6074 15.9457C91.2316 16.3922 89.3376 18.0182 87.9832 20.7792C87.9404 20.8666 87.853 20.9262 87.7562 20.9336C87.6558 20.9429 87.5627 20.8982 87.5069 20.8182C87.4883 20.7922 85.6539 18.288 83.3655 18.3308C82.0297 18.355 80.7739 19.2368 79.6297 20.9503C79.5813 21.0229 79.5032 21.0675 79.4158 21.075C79.3302 21.0806 79.2446 21.0452 79.1869 20.9801C79.1813 20.9727 78.5153 20.2229 77.1683 19.4675C75.9274 18.7699 73.8344 17.9252 70.9153 17.8545C66.0613 17.7355 62.5581 19.501 61.3041 22.6917C60.1041 25.7448 61.1795 29.4601 63.9776 31.9345C64.0725 32.0201 64.0985 32.1578 64.0409 32.2713C63.9813 32.3848 63.853 32.4443 63.7283 32.4145C63.6669 32.3996 57.5423 31.0006 54.8781 33.8694C53.8623 34.9634 52.7683 37.7131 53.3618 40.0313C53.786 41.6852 54.9692 42.8461 56.8799 43.4824C57.0269 43.5308 57.1051 43.6889 57.0567 43.8359C57.0083 43.981 56.8502 44.061 56.7032 44.0127C54.6306 43.3243 53.2874 41.9959 52.8204 40.1708C52.1488 37.5457 53.4065 34.6322 54.4688 33.4899C56.7274 31.0601 61.0344 31.4043 62.9302 31.6982C60.4688 29.0936 59.6018 25.4973 60.7851 22.4889C62.1302 19.0657 65.8325 17.1736 70.9302 17.2964C75.8567 17.4155 78.5637 19.5996 79.3599 20.3606C80.5618 18.6694 81.9069 17.7987 83.3581 17.7745C83.3804 17.7745 83.4009 17.7745 83.4232 17.7745C85.4437 17.7745 87.0567 19.408 87.6818 20.1448C89.092 17.488 91.0976 15.8508 93.5051 15.3987C96.7906 14.781 100.653 16.3271 104.381 19.7522C110.627 25.488 109.192 35.1978 108.938 36.6434C109.367 36.9671 110.541 37.9792 110.789 39.5643C110.982 40.8034 110.564 42.0871 109.54 43.3801C110.459 46.7922 109.008 50.8424 108.945 51.0154C108.906 51.1252 108.802 51.1978 108.685 51.1996L108.683 51.1978Z" fill="#231F20"/>
<path d="M66.9563 124.008C66.8633 124.008 66.7703 123.961 66.7182 123.874C66.0372 122.761 65.6168 121.492 65.5014 120.201L65.3917 118.99C65.3786 118.835 65.4903 118.701 65.6447 118.687C65.7991 118.674 65.9331 118.785 65.9479 118.94L66.0577 120.151C66.1656 121.356 66.5582 122.541 67.1944 123.581C67.2744 123.714 67.2335 123.885 67.1014 123.965C67.0568 123.993 67.0065 124.006 66.9563 124.006V124.008Z" fill="#231F20"/>
<path d="M70.4334 129.419C70.4185 129.419 70.4036 129.419 70.3887 129.416L66.3292 128.751C66.1767 128.727 66.0743 128.582 66.0985 128.431C66.1227 128.279 66.2678 128.177 66.4185 128.201L70.478 128.865C70.6306 128.889 70.7329 129.034 70.7087 129.185C70.6864 129.323 70.5673 129.419 70.4334 129.419Z" fill="#231F20"/>
<path d="M53.5182 107.159C53.3805 107.159 53.2615 107.057 53.2429 106.917L53.2391 106.891C53.2243 106.776 53.2819 106.662 53.3843 106.608L57.8456 104.24C57.9815 104.169 58.1508 104.219 58.2233 104.355C58.2959 104.491 58.2438 104.66 58.108 104.733L53.7396 107.051C53.6968 107.107 53.6317 107.146 53.5573 107.157C53.5443 107.157 53.5331 107.159 53.5201 107.159H53.5182Z" fill="#231F20"/>
<path d="M61.0939 103.109C60.9935 103.109 60.8967 103.055 60.8465 102.96C60.7739 102.824 60.826 102.655 60.9618 102.582L63.9442 100.999C64.026 100.956 64.1265 100.956 64.2083 100.999C64.2902 101.044 64.3442 101.125 64.3535 101.218L64.3739 101.449C64.3869 101.604 64.2753 101.737 64.1209 101.752C64.0279 101.76 63.9442 101.723 63.8865 101.659L61.2223 103.073C61.1814 103.096 61.1367 103.105 61.0921 103.105L61.0939 103.109Z" fill="#231F20"/>
<path d="M70.4334 129.419C70.3423 129.419 70.2511 129.375 70.199 129.291L66.826 124.052C66.8018 124.013 66.7776 123.974 66.7534 123.935L66.7181 123.873C66.6381 123.741 66.679 123.57 66.8111 123.49C66.9432 123.41 67.1144 123.451 67.1944 123.583L67.2353 123.652C67.2539 123.685 67.2744 123.719 67.2948 123.751L70.6679 128.991C70.7516 129.122 70.7144 129.293 70.5841 129.377C70.5376 129.406 70.4855 129.421 70.4334 129.421V129.419Z" fill="#231F20"/>
<path d="M65.5404 117.801C65.3971 117.801 65.2762 117.691 65.2632 117.546L64.6492 110.731C64.6362 110.577 64.7478 110.443 64.9022 110.428C65.0548 110.415 65.1906 110.526 65.2055 110.681L65.8195 117.496C65.8325 117.65 65.7209 117.784 65.5664 117.799C65.5571 117.799 65.5497 117.799 65.5404 117.799V117.801Z" fill="#231F20"/>
<path d="M64.9282 110.986C64.785 110.986 64.664 110.876 64.651 110.731L63.8194 101.5C63.8064 101.345 63.918 101.211 64.0724 101.196C64.225 101.183 64.3608 101.295 64.3757 101.449L65.2073 110.681C65.2203 110.835 65.1087 110.969 64.9543 110.984C64.945 110.984 64.9375 110.984 64.9282 110.984V110.986Z" fill="#231F20"/>
<path d="M61.758 127.741C61.7227 127.741 61.6892 127.736 61.6538 127.721C58.2603 126.365 55.7822 123.418 55.0231 119.84C55.0231 119.833 55.0213 119.827 55.0194 119.819L53.2408 106.917C53.2203 106.765 53.3264 106.623 53.4789 106.603C53.6296 106.584 53.7729 106.688 53.7934 106.841L55.5701 119.732C56.292 123.122 58.6436 125.914 61.8603 127.2C62.0036 127.258 62.0724 127.419 62.0166 127.563C61.9738 127.673 61.8678 127.738 61.758 127.738V127.741Z" fill="#231F20"/>
<path d="M65.6707 119.244C65.5274 119.244 65.4065 119.135 65.3935 118.99L65.2632 117.546C65.2502 117.391 65.3618 117.257 65.5163 117.243C65.6707 117.228 65.8046 117.341 65.8195 117.496L65.9498 118.939C65.9628 119.094 65.8511 119.228 65.6967 119.243C65.6874 119.243 65.68 119.243 65.6707 119.243V119.244Z" fill="#231F20"/>
<path d="M66.372 128.755C66.2809 128.755 66.1897 128.71 66.1376 128.626L64.1879 125.594C63.1776 124.027 62.5562 122.219 62.3906 120.362L60.8167 102.853C60.8037 102.699 60.9172 102.565 61.0697 102.55C61.2204 102.535 61.3581 102.649 61.373 102.803L62.9469 120.312C63.1051 122.078 63.6967 123.8 64.6586 125.291L66.6102 128.323C66.6939 128.453 66.6567 128.625 66.5265 128.708C66.4799 128.738 66.4279 128.753 66.3758 128.753L66.372 128.755Z" fill="#231F20"/>
<path d="M61.7581 127.741C61.6669 127.741 61.5757 127.697 61.5237 127.613L61.0325 126.85C60.0241 125.28 59.4027 123.47 59.2371 121.617L57.6985 104.513C57.6855 104.359 57.7971 104.225 57.9516 104.21C58.106 104.197 58.2399 104.309 58.2548 104.463L59.7934 121.568C59.9516 123.332 60.5432 125.055 61.5032 126.55L61.9944 127.313C62.0781 127.443 62.0409 127.615 61.9106 127.698C61.8641 127.728 61.812 127.743 61.7599 127.743L61.7581 127.741Z" fill="#231F20"/>
<path d="M66.3739 128.755C66.359 128.755 66.3441 128.755 66.3293 128.751L63.9553 128.362C63.1609 128.232 62.3869 128.014 61.6558 127.72C61.5125 127.663 61.4437 127.501 61.5013 127.357C61.559 127.214 61.7209 127.145 61.8641 127.203C62.5581 127.482 63.2911 127.689 64.0446 127.811L66.4186 128.2C66.5711 128.224 66.6734 128.37 66.6493 128.52C66.6269 128.658 66.5079 128.755 66.3739 128.755Z" fill="#231F20"/>
<path d="M57.9758 104.766C57.8753 104.766 57.7786 104.712 57.7283 104.617C57.6558 104.481 57.7079 104.312 57.8437 104.239L60.9618 102.582C61.0976 102.509 61.2669 102.561 61.3395 102.697C61.412 102.833 61.3599 103.002 61.2241 103.075L58.106 104.732C58.0651 104.755 58.0186 104.766 57.9758 104.766Z" fill="#231F20"/>
<path d="M88.5692 129.419C88.5171 129.419 88.465 129.404 88.4185 129.374C88.2882 129.29 88.251 129.117 88.3347 128.989L91.5999 123.916C91.6836 123.785 91.8566 123.748 91.985 123.832C92.1152 123.916 92.1524 124.089 92.0687 124.217L88.8036 129.29C88.7496 129.374 88.6603 129.419 88.5692 129.419Z" fill="#231F20"/>
<path d="M88.5692 129.419C88.4352 129.419 88.3161 129.323 88.2938 129.185C88.2696 129.032 88.372 128.889 88.5245 128.865L92.5859 128.201C92.7385 128.177 92.8817 128.279 92.9059 128.431C92.9301 128.584 92.8278 128.727 92.6752 128.751L88.6138 129.416C88.5989 129.418 88.5841 129.419 88.5692 129.419Z" fill="#231F20"/>
<path d="M93.7432 114.675C93.7432 114.675 93.7265 114.675 93.7172 114.675C93.5628 114.662 93.4511 114.526 93.4642 114.371L93.6986 111.765C93.7116 111.61 93.8456 111.499 94.0018 111.512C94.1563 111.525 94.2679 111.661 94.2549 111.815L94.0204 114.422C94.0074 114.567 93.8865 114.676 93.7432 114.676V114.675Z" fill="#231F20"/>
<path d="M93.6131 116.109C93.6131 116.109 93.5964 116.109 93.5871 116.109C93.4326 116.096 93.321 115.96 93.334 115.806L93.4624 114.372C93.4754 114.217 93.6094 114.104 93.7657 114.118C93.9201 114.132 94.0317 114.267 94.0187 114.422L93.8903 115.856C93.8773 116.001 93.7564 116.111 93.6131 116.111V116.109Z" fill="#231F20"/>
<path d="M105.485 107.159C105.472 107.159 105.46 107.159 105.447 107.157C105.373 107.148 105.308 107.109 105.265 107.053L100.897 104.735C100.761 104.662 100.709 104.493 100.781 104.357C100.854 104.221 101.023 104.169 101.159 104.242L105.62 106.61C105.725 106.664 105.782 106.778 105.765 106.895L105.762 106.921C105.743 107.06 105.622 107.163 105.486 107.163L105.485 107.159Z" fill="#231F20"/>
<path d="M93.9776 112.068C93.9776 112.068 93.9609 112.068 93.9516 112.068C93.7971 112.055 93.6855 111.92 93.6985 111.765L94.6325 101.393C94.6455 101.239 94.7813 101.125 94.9358 101.14C95.0902 101.153 95.2018 101.289 95.1888 101.443L94.2548 111.815C94.2418 111.96 94.1209 112.07 93.9776 112.07V112.068Z" fill="#231F20"/>
<path d="M97.2445 127.741C97.1348 127.741 97.0287 127.674 96.9859 127.566C96.9283 127.423 96.999 127.261 97.1422 127.203C100.359 125.916 102.711 123.125 103.432 119.735L105.209 106.844C105.23 106.692 105.373 106.586 105.524 106.606C105.676 106.627 105.782 106.768 105.762 106.92L103.983 119.823C103.983 119.823 103.981 119.836 103.979 119.843C103.22 123.421 100.742 126.366 97.3487 127.724C97.3152 127.737 97.2799 127.745 97.2445 127.745V127.741Z" fill="#231F20"/>
<path d="M97.9088 103.108C97.8641 103.108 97.8195 103.097 97.7785 103.077L95.079 101.642C95.025 101.681 94.9562 101.702 94.8874 101.696C94.7329 101.683 94.6213 101.547 94.6343 101.393L94.6492 101.222C94.6567 101.129 94.7125 101.045 94.7943 101.002C94.8762 100.958 94.9767 100.958 95.0585 101.002L98.0409 102.585C98.1767 102.658 98.2288 102.827 98.1562 102.963C98.106 103.058 98.0092 103.112 97.9088 103.112V103.108Z" fill="#231F20"/>
<path d="M91.8343 124.345C91.7822 124.345 91.7301 124.33 91.6836 124.301C91.5534 124.217 91.5162 124.044 91.5999 123.916L91.7078 123.75C92.4036 122.675 92.8296 121.43 92.945 120.152L93.3357 115.806C93.3487 115.651 93.4845 115.54 93.639 115.553C93.7934 115.566 93.905 115.702 93.892 115.856L93.5013 120.202C93.3785 121.57 92.9208 122.902 92.1766 124.053L92.0706 124.219C92.0166 124.303 91.9273 124.347 91.8362 124.347L91.8343 124.345Z" fill="#231F20"/>
<path d="M97.2427 127.741C97.1907 127.741 97.1386 127.726 97.092 127.696C96.9618 127.613 96.9246 127.44 97.0083 127.311L97.4995 126.549C98.4595 125.055 99.0511 123.332 99.2093 121.566L100.748 104.461C100.761 104.307 100.897 104.195 101.051 104.208C101.206 104.221 101.317 104.357 101.304 104.511L99.7655 121.616C99.6 123.469 98.9786 125.28 97.9702 126.85L97.479 127.613C97.4251 127.696 97.3358 127.741 97.2446 127.741H97.2427Z" fill="#231F20"/>
<path d="M92.6287 128.755C92.5766 128.755 92.5245 128.74 92.478 128.71C92.3478 128.627 92.3106 128.453 92.3943 128.325L94.3441 125.293C95.3041 123.802 95.8957 122.08 96.0557 120.314L97.6297 102.805C97.6427 102.651 97.7822 102.537 97.9329 102.552C98.0873 102.565 98.199 102.701 98.1859 102.855L96.612 120.364C96.4445 122.221 95.8232 124.029 94.8148 125.596L92.865 128.628C92.8111 128.712 92.7217 128.757 92.6306 128.757L92.6287 128.755Z" fill="#231F20"/>
<path d="M101.027 104.766C100.982 104.766 100.938 104.755 100.897 104.732L97.7785 103.075C97.6427 103.002 97.5906 102.833 97.6631 102.697C97.7357 102.561 97.905 102.509 98.0408 102.582L101.159 104.239C101.295 104.312 101.347 104.481 101.274 104.617C101.224 104.712 101.127 104.766 101.027 104.766Z" fill="#231F20"/>
<path d="M92.6287 128.755C92.4948 128.755 92.3757 128.658 92.3534 128.52C92.3292 128.368 92.4315 128.224 92.5841 128.2L94.958 127.811C95.7115 127.687 96.4446 127.482 97.1385 127.203C97.2818 127.145 97.4436 127.214 97.5013 127.357C97.559 127.501 97.4901 127.663 97.3469 127.72C96.6157 128.016 95.8418 128.232 95.0474 128.362L92.6734 128.751C92.6585 128.753 92.6436 128.755 92.6287 128.755Z" fill="#231F20"/>
<path d="M94.0837 88.4426C86.8 88.4426 81.613 85.8082 78.4093 83.4194C74.4242 80.4501 72.6121 77.2985 72.5377 77.1645C72.4614 77.0305 72.5079 76.8612 72.6418 76.785C72.7758 76.7087 72.9451 76.7552 73.0214 76.8892C73.04 76.9208 74.8632 80.0873 78.7628 82.9859C82.3553 85.6575 88.4986 88.6436 97.373 87.7059C101.02 87.3189 103.931 85.6668 106.026 82.7943C108.553 79.3319 109.918 74.158 110.086 67.4138C110.255 60.6157 109.12 54.3291 108.625 51.9403C108.564 51.6464 108.493 51.3282 108.407 50.9673C108.372 50.8166 108.465 50.6678 108.614 50.6305C108.767 50.5952 108.913 50.6882 108.951 50.8371C109.038 51.2036 109.111 51.5254 109.172 51.825C109.671 54.2324 110.815 60.571 110.644 67.425C110.474 74.2826 109.072 79.5645 106.476 83.1198C104.283 86.1264 101.239 87.8547 97.4307 88.2566C96.2698 88.3794 95.1535 88.4371 94.0837 88.4371V88.4426Z" fill="#231F20"/>
<path d="M64.0966 101.754C64.0966 101.754 64.0892 101.754 64.0855 101.754C63.9311 101.749 63.812 101.619 63.8176 101.466L64.8483 73.3451C64.8539 73.1907 64.9841 73.0735 65.1366 73.0772C65.2911 73.0828 65.4101 73.213 65.4045 73.3656L64.3738 101.487C64.3683 101.637 64.2436 101.756 64.0948 101.756L64.0966 101.754Z" fill="#231F20"/>
<path d="M72.4801 135.38C72.3275 135.38 72.2029 135.257 72.201 135.104L72.1378 130.686C72.1099 130.115 71.6726 129.625 71.0978 129.53L70.3871 129.415C70.2345 129.391 70.1322 129.246 70.1564 129.095C70.1806 128.944 70.3257 128.838 70.4764 128.864L71.1871 128.98C72.0187 129.115 72.6531 129.826 72.694 130.667L72.7573 135.095C72.7592 135.249 72.6364 135.376 72.482 135.378H72.4782L72.4801 135.38Z" fill="#231F20"/>
<path d="M17.5367 117.512C17.4827 117.512 17.4288 117.497 17.3804 117.464C17.2539 117.376 17.2204 117.203 17.3079 117.077L17.9423 116.147C20.0558 113.043 23.3953 110.926 27.1051 110.34L53.4827 106.606C53.6334 106.586 53.7767 106.692 53.799 106.844C53.8213 106.997 53.7134 107.138 53.5609 107.16L27.1888 110.894C23.6353 111.456 20.4334 113.488 18.4055 116.465L17.7711 117.395C17.7172 117.475 17.6297 117.518 17.5404 117.518L17.5367 117.512Z" fill="#231F20"/>
<path d="M72.6493 147.194C72.4968 147.194 72.3721 147.071 72.3703 146.919L72.2009 135.103C72.1991 134.949 72.3219 134.822 72.4763 134.82H72.48C72.6326 134.82 72.7572 134.943 72.7591 135.096L72.9284 146.911C72.9303 147.066 72.8075 147.192 72.653 147.194H72.6493Z" fill="#231F20"/>
<path d="M73.1777 184.134H31.28C31.1256 184.134 31.001 184.009 31.001 183.855C31.001 183.7 31.1256 183.575 31.28 183.575H72.8931L72.3684 146.921C72.3666 146.766 72.4893 146.64 72.6438 146.638C72.7945 146.634 72.9247 146.759 72.9266 146.913L73.4549 183.851C73.4549 183.925 73.427 183.998 73.3749 184.05C73.3228 184.102 73.2503 184.134 73.1759 184.134H73.1777Z" fill="#231F20"/>
<path d="M31.28 184.133H-6.43724C-6.51166 184.133 -6.58236 184.103 -6.63445 184.051C-6.68654 183.999 -6.71631 183.929 -6.71631 183.854L-6.69956 152.401C-6.69956 152.345 -6.68282 152.291 -6.65119 152.245L17.306 117.076C17.3935 116.95 17.5665 116.916 17.693 117.004C17.8195 117.091 17.853 117.264 17.7656 117.391L-6.14142 152.487L-6.15817 183.573H31.28C31.4344 183.573 31.559 183.698 31.559 183.852C31.559 184.007 31.4344 184.131 31.28 184.131V184.133Z" fill="#231F20"/>
<path d="M94.9116 101.698C94.893 101.698 94.8744 101.696 94.8558 101.693C94.8391 101.689 94.8205 101.683 94.8037 101.676C94.787 101.669 94.7703 101.661 94.7554 101.65C94.7405 101.641 94.7256 101.63 94.7126 101.617C94.6605 101.564 94.6326 101.492 94.6326 101.417C94.6326 101.401 94.6326 101.382 94.6363 101.363C94.64 101.347 94.6456 101.328 94.653 101.311C94.6605 101.295 94.6679 101.278 94.6791 101.263C94.6884 101.248 94.6995 101.233 94.7126 101.222C94.7256 101.209 94.7405 101.196 94.7554 101.187C94.7703 101.176 94.787 101.168 94.8037 101.161C94.8205 101.153 94.8391 101.148 94.8558 101.144C94.947 101.125 95.0437 101.157 95.1089 101.222C95.1591 101.272 95.1907 101.345 95.1907 101.417C95.1907 101.49 95.1591 101.564 95.1089 101.617C95.0958 101.63 95.0809 101.641 95.0661 101.65C95.0512 101.661 95.0344 101.669 95.0177 101.676C95.0009 101.683 94.9823 101.689 94.9656 101.693C94.947 101.696 94.9284 101.698 94.9116 101.698Z" fill="#231F20"/>
<path d="M94.9097 101.696C94.7553 101.696 94.6306 101.572 94.6306 101.417V88.1951C94.6306 88.0407 94.7553 87.916 94.9097 87.916C95.0641 87.916 95.1888 88.0407 95.1888 88.1951V101.417C95.1888 101.572 95.0641 101.696 94.9097 101.696Z" fill="#231F20"/>
<path d="M86.3702 146.064H86.3664C86.212 146.063 86.0892 145.936 86.0911 145.782L86.3069 130.678C86.3478 129.826 86.9823 129.117 87.8139 128.982L88.5246 128.866C88.6753 128.84 88.8204 128.944 88.8446 129.097C88.8688 129.25 88.7664 129.393 88.6139 129.417L87.9032 129.532C87.3302 129.625 86.8911 130.117 86.8632 130.697L86.6474 145.791C86.6455 145.944 86.5209 146.066 86.3683 146.066L86.3702 146.064Z" fill="#231F20"/>
<path d="M86.1414 162.011H86.1377C85.9833 162.009 85.8605 161.883 85.8623 161.728L86.0912 145.782C86.093 145.63 86.2177 145.507 86.3702 145.507H86.374C86.5284 145.509 86.6512 145.635 86.6493 145.79L86.4205 161.736C86.4186 161.888 86.294 162.011 86.1414 162.011Z" fill="#231F20"/>
<path d="M175.334 184.134H127.963C127.808 184.134 127.684 184.009 127.684 183.854C127.684 183.7 127.808 183.575 127.963 183.575H175.055V162.547L141.473 117.415C141.38 117.291 141.406 117.118 141.531 117.025C141.654 116.934 141.829 116.958 141.922 117.082L175.557 162.288C175.592 162.336 175.613 162.394 175.613 162.455V183.856C175.613 184.011 175.488 184.135 175.334 184.135V184.134Z" fill="#231F20"/>
<path d="M141.699 117.527C141.613 117.527 141.529 117.488 141.475 117.416L140.471 116.067C138.413 113.3 135.405 111.481 132 110.941L105.446 107.157C105.293 107.135 105.187 106.993 105.209 106.841C105.232 106.688 105.371 106.582 105.526 106.605L132.086 110.391C135.639 110.954 138.776 112.85 140.921 115.734L141.926 117.083C142.019 117.207 141.993 117.38 141.868 117.473C141.818 117.511 141.76 117.529 141.702 117.529L141.699 117.527Z" fill="#231F20"/>
<path d="M31.28 184.133C31.1312 184.133 31.0065 184.014 31.0009 183.864L29.5051 142.327C29.3451 137.892 27.9498 133.601 25.4679 129.923L17.3023 117.387C17.2186 117.259 17.254 117.086 17.3842 117C17.5126 116.917 17.6856 116.952 17.7712 117.082L25.933 129.614C28.4707 133.376 29.8996 137.767 30.0633 142.306L31.5591 183.843C31.5647 183.998 31.4437 184.126 31.2893 184.131C31.2856 184.131 31.2819 184.131 31.28 184.131V184.133Z" fill="#231F20"/>
<path d="M127.965 184.134C127.965 184.134 127.957 184.134 127.955 184.134C127.801 184.128 127.68 183.998 127.685 183.845L129.181 142.309C129.345 137.769 130.774 133.378 133.313 129.613L141.464 117.099C141.548 116.971 141.721 116.934 141.851 117.017C141.979 117.101 142.017 117.274 141.933 117.404L133.78 129.922C131.297 133.605 129.899 137.894 129.741 142.329L128.245 183.866C128.24 184.017 128.117 184.136 127.966 184.136L127.965 184.134Z" fill="#231F20"/>
<path d="M79.9739 120.442C78.9581 120.442 77.9758 120.385 77.0549 120.273C76.9023 120.255 76.7925 120.115 76.8111 119.962C76.8297 119.81 76.9711 119.702 77.1218 119.719C78.0204 119.829 78.9804 119.884 79.9739 119.884C81.7507 119.884 83.399 119.706 84.8707 119.35C85.0195 119.315 85.1721 119.406 85.2074 119.557C85.2428 119.706 85.1516 119.858 85.0009 119.894C83.4865 120.258 81.7953 120.442 79.9739 120.442Z" fill="#231F20"/>
<path d="M75.9368 120.102C75.92 120.102 75.9033 120.102 75.8866 120.099C72.867 119.554 70.3387 118.359 68.3703 116.545C68.2568 116.441 68.2494 116.264 68.3535 116.151C68.4577 116.037 68.6345 116.03 68.748 116.134C70.6363 117.875 73.0717 119.023 75.9852 119.55C76.1359 119.578 76.2382 119.723 76.2103 119.874C76.1861 120.008 76.0689 120.102 75.9368 120.102Z" fill="#231F20"/>
<path d="M67.747 115.795C67.6707 115.795 67.5944 115.763 67.5405 115.704C66.3033 114.336 65.3358 112.686 64.666 110.801C64.614 110.656 64.6902 110.496 64.8354 110.444C64.9805 110.392 65.1405 110.468 65.1926 110.613C65.8381 112.429 66.7665 114.016 67.9553 115.328C68.0595 115.441 68.0502 115.618 67.9349 115.722C67.8809 115.771 67.814 115.795 67.747 115.795Z" fill="#231F20"/>
<path d="M93.0566 114.065C93.0101 114.065 92.9617 114.054 92.9189 114.028C92.785 113.952 92.7385 113.78 92.8148 113.648C93.1589 113.044 93.4622 112.387 93.7152 111.695C93.7692 111.55 93.9292 111.475 94.0724 111.529C94.2175 111.583 94.292 111.743 94.238 111.887C93.9738 112.607 93.6575 113.291 93.2985 113.924C93.2464 114.015 93.1534 114.065 93.0566 114.065Z" fill="#231F20"/>
<path d="M86.0484 119.592C85.9293 119.592 85.8195 119.516 85.7823 119.397C85.7358 119.25 85.8177 119.094 85.9647 119.047C88.627 118.204 90.7256 116.712 92.2028 114.616C92.2921 114.489 92.4651 114.459 92.5916 114.549C92.7182 114.638 92.7479 114.811 92.6586 114.937C91.1107 117.136 88.9154 118.699 86.134 119.581C86.1061 119.59 86.0781 119.594 86.0502 119.594L86.0484 119.592Z" fill="#231F20"/>
<path d="M87.8938 125.906C87.7711 125.906 87.6594 125.826 87.6259 125.704C87.585 125.555 87.6706 125.4 87.8194 125.359C89.2129 124.969 90.519 124.45 91.7059 123.821C91.8418 123.748 92.0111 123.8 92.0836 123.936C92.1562 124.072 92.1041 124.241 91.9683 124.314C90.7478 124.961 89.4027 125.493 87.972 125.897C87.9459 125.905 87.9218 125.908 87.8957 125.908L87.8938 125.906Z" fill="#231F20"/>
<path d="M74.1543 126.437C74.1394 126.437 74.1227 126.437 74.1078 126.433C71.3673 125.968 68.9152 125.14 66.8203 123.971C66.6864 123.897 66.638 123.726 66.7124 123.592C66.7869 123.458 66.9562 123.408 67.092 123.484C69.131 124.621 71.5236 125.428 74.2008 125.882C74.3534 125.908 74.4557 126.051 74.4297 126.204C74.4073 126.34 74.2883 126.437 74.1543 126.437Z" fill="#231F20"/>
<path d="M79.974 126.898C78.3256 126.898 76.7423 126.799 75.2689 126.608C75.1163 126.587 75.0084 126.448 75.0289 126.295C75.0493 126.143 75.1907 126.035 75.3414 126.055C76.7889 126.245 78.3479 126.342 79.9721 126.342C82.413 126.342 84.6791 126.105 86.7089 125.642C86.8614 125.607 87.0084 125.702 87.0437 125.852C87.0791 126.003 86.9842 126.152 86.8335 126.187C84.7628 126.662 82.4558 126.902 79.9721 126.902L79.974 126.898Z" fill="#231F20"/>
<path d="M68.5599 116.617C68.4929 116.617 68.424 116.593 68.3719 116.544C68.0892 116.286 67.8101 116.003 67.5403 115.703C67.438 115.588 67.4473 115.413 67.5608 115.309C67.6761 115.207 67.851 115.214 67.9552 115.33C68.2138 115.616 68.4799 115.886 68.7496 116.133C68.8631 116.237 68.8706 116.414 68.7664 116.528C68.7106 116.587 68.6361 116.619 68.5599 116.619V116.617Z" fill="#231F20"/>
<path d="M77.0885 120.275C77.0773 120.275 77.0661 120.275 77.055 120.273C76.6568 120.224 76.2643 120.165 75.8885 120.098C75.7359 120.07 75.6354 119.925 75.6633 119.774C75.6913 119.622 75.8364 119.523 75.9871 119.549C76.3536 119.614 76.735 119.672 77.1238 119.72C77.2764 119.739 77.3861 119.878 77.3675 120.031C77.3508 120.172 77.2299 120.277 77.0903 120.277L77.0885 120.275Z" fill="#231F20"/>
<path d="M75.3061 126.61C75.2949 126.61 75.2819 126.61 75.2707 126.608C74.8745 126.558 74.4819 126.498 74.1061 126.433C73.9535 126.407 73.8531 126.262 73.8791 126.111C73.9052 125.959 74.0503 125.857 74.201 125.884C74.5693 125.948 74.9526 126.005 75.3396 126.056C75.4921 126.076 75.6 126.216 75.5814 126.368C75.5628 126.51 75.4438 126.612 75.3042 126.612L75.3061 126.61Z" fill="#231F20"/>
<path d="M84.9359 119.901C84.8093 119.901 84.6959 119.816 84.6642 119.687C84.6289 119.537 84.7219 119.388 84.8707 119.351C85.2373 119.263 85.6056 119.161 85.9628 119.047C86.1117 119.001 86.2661 119.081 86.3145 119.228C86.361 119.375 86.281 119.531 86.134 119.579C85.7638 119.699 85.3824 119.805 85.001 119.894C84.9787 119.899 84.9582 119.901 84.9359 119.901Z" fill="#231F20"/>
<path d="M86.7721 126.191C86.6437 126.191 86.5302 126.104 86.5005 125.974C86.467 125.823 86.56 125.674 86.7107 125.641C87.0847 125.555 87.4474 125.464 87.8195 125.36C87.9684 125.319 88.1228 125.404 88.1637 125.553C88.2047 125.702 88.1191 125.857 87.9702 125.898C87.5888 126.004 87.2186 126.098 86.8354 126.186C86.8149 126.191 86.7944 126.193 86.774 126.193L86.7721 126.191Z" fill="#231F20"/>
<path d="M92.4298 115.055C92.374 115.055 92.3181 115.038 92.2698 115.005C92.1433 114.915 92.1135 114.742 92.2009 114.616C92.426 114.294 92.6326 113.968 92.813 113.648C92.8893 113.514 93.0586 113.468 93.1926 113.542C93.3265 113.619 93.3749 113.788 93.2986 113.922C93.1088 114.257 92.893 114.599 92.6567 114.936C92.6028 115.014 92.5153 115.055 92.4279 115.055H92.4298Z" fill="#231F20"/>
<path d="M86.1413 162.011C86.0613 162.011 85.9813 161.978 85.9273 161.911C85.771 161.725 85.6185 161.535 85.4659 161.345C84.9859 160.751 84.4892 160.138 83.9236 159.624C83.412 159.161 82.8222 158.757 82.2492 158.366C81.3989 157.786 80.5208 157.187 79.851 156.363C77.9348 154.005 78.3162 150.03 80.6882 147.682C82.6138 145.775 84.558 145.509 86.372 145.507C86.5264 145.507 86.651 145.631 86.651 145.786C86.651 145.94 86.5264 146.065 86.372 146.065C84.4148 146.067 82.7645 146.411 81.0808 148.078C78.9059 150.232 78.5413 153.864 80.2845 156.009C80.9041 156.77 81.7096 157.321 82.5636 157.905C83.1515 158.307 83.758 158.722 84.2975 159.211C84.8948 159.752 85.4045 160.383 85.8994 160.993C86.0501 161.181 86.2027 161.367 86.3571 161.552C86.4557 161.671 86.4389 161.845 86.3217 161.944C86.2696 161.987 86.2064 162.009 86.1431 162.009L86.1413 162.011Z" fill="#231F20"/>
<path d="M72.6494 147.194C72.5656 147.194 72.4819 147.156 72.428 147.084C72.3349 146.961 72.3573 146.786 72.48 146.693C72.8689 146.396 73.187 146.103 73.4531 145.795C74.4577 144.634 74.9507 143.06 75.3861 141.67C75.9219 139.958 76.467 137.54 75.0177 136.293C74.4187 135.778 73.6001 135.59 72.7424 135.428C72.6866 135.417 72.6307 135.408 72.5768 135.398L72.4317 135.372C72.2791 135.344 72.1805 135.199 72.2066 135.047C72.2345 134.894 72.3814 134.796 72.5321 134.822L72.6698 134.846C72.7275 134.855 72.787 134.866 72.8447 134.877C73.7433 135.047 74.6791 135.262 75.3805 135.869C77.0791 137.331 76.5005 139.975 75.9182 141.836C75.4661 143.277 74.9545 144.909 73.8754 146.157C73.5833 146.494 73.2391 146.814 72.8187 147.134C72.7684 147.173 72.7089 147.192 72.6494 147.192V147.194Z" fill="#231F20"/>
<path d="M65.5608 73.6813C65.3989 73.6813 65.2334 73.6627 65.0678 73.6273C64.9171 73.5938 64.8222 73.445 64.8557 73.2943C64.8892 73.1436 65.0362 73.0487 65.1887 73.0822C65.3134 73.1101 65.438 73.1231 65.5608 73.1231C66.5096 73.1231 67.2817 72.351 67.2817 71.4022C67.2817 70.4534 66.5096 69.6813 65.5608 69.6813C64.612 69.6813 63.8399 70.4534 63.8399 71.4022C63.8399 71.6757 63.9031 71.938 64.0296 72.1855C64.1003 72.3231 64.0464 72.4906 63.9087 72.5613C63.771 72.632 63.6036 72.578 63.5329 72.4403C63.3655 72.1148 63.2817 71.7669 63.2817 71.4041C63.2817 70.1464 64.305 69.125 65.5608 69.125C66.8166 69.125 67.8399 70.1483 67.8399 71.4041C67.8399 72.6599 66.8166 73.6831 65.5608 73.6831V73.6813Z" fill="#231F20"/>
<path d="M65.1274 73.6354C65.1069 73.6354 65.0883 73.6335 65.0678 73.628C64.4018 73.481 63.8418 73.0475 63.5311 72.4391C63.4604 72.3014 63.5143 72.134 63.652 72.0633C63.7897 71.9926 63.9571 72.0466 64.0278 72.1842C64.2641 72.6438 64.6864 72.9712 65.1887 73.0828C65.3394 73.1163 65.4343 73.2652 65.4008 73.4159C65.3729 73.5461 65.2576 73.6354 65.1292 73.6354H65.1274Z" fill="#231F20"/>
<path d="M46.078 143.363C45.8734 143.363 45.6687 143.355 45.4622 143.342C43.0994 143.181 40.9432 142.107 39.3878 140.321C37.8325 138.535 37.0659 136.25 37.2278 133.889C37.3897 131.527 38.4632 129.37 40.2492 127.815C42.0352 126.26 44.318 125.493 46.6808 125.655C51.5571 125.992 55.252 130.232 54.9152 135.108C54.5934 139.778 50.6901 143.365 46.078 143.365V143.363ZM45.5013 142.784C50.0669 143.099 54.0446 139.638 54.359 135.067C54.6734 130.498 51.2129 126.524 46.6418 126.209C44.4278 126.057 42.2883 126.775 40.6139 128.234C38.9413 129.69 37.9348 131.713 37.7822 133.927C37.6297 136.141 38.3478 138.28 39.8064 139.955C41.2632 141.627 43.2855 142.634 45.4994 142.786L45.5013 142.784Z" fill="#231F20"/>
</g>
<defs>
<clipPath id="clip0_1503_13091">
<rect width="160" height="160" fill="white"/>
</clipPath>
</defs>
</svg>
