<svg width="20" height="20" viewBox="0 0 20 20" fill="none" xmlns="http://www.w3.org/2000/svg">
<path d="M7.5999 1.60039C7.28164 1.60039 6.97642 1.72682 6.75137 1.95186C6.52633 2.17691 6.3999 2.48213 6.3999 2.80039V3.40039C6.3999 3.55952 6.33669 3.71213 6.22417 3.82465C6.11164 3.93718 5.95903 4.00039 5.7999 4.00039C5.64077 4.00039 5.48816 3.93718 5.37564 3.82465C5.26312 3.71213 5.1999 3.55952 5.1999 3.40039V2.80039C5.1999 2.16387 5.45276 1.55342 5.90285 1.10333C6.35293 0.653247 6.96338 0.400391 7.5999 0.400391H8.1999C8.35903 0.400391 8.51164 0.463605 8.62417 0.576127C8.73669 0.688648 8.7999 0.841261 8.7999 1.00039C8.7999 1.15952 8.73669 1.31213 8.62417 1.42465C8.51164 1.53718 8.35903 1.60039 8.1999 1.60039H7.5999ZM6.3999 12.4004C6.3999 12.7186 6.52633 13.0239 6.75137 13.2489C6.97642 13.474 7.28164 13.6004 7.5999 13.6004H8.1999C8.35903 13.6004 8.51164 13.6636 8.62417 13.7761C8.73669 13.8886 8.7999 14.0413 8.7999 14.2004C8.7999 14.3595 8.73669 14.5121 8.62417 14.6247C8.51164 14.7372 8.35903 14.8004 8.1999 14.8004H7.5999C6.96338 14.8004 6.35293 14.5475 5.90285 14.0974C5.45276 13.6474 5.1999 13.0369 5.1999 12.4004V11.8004C5.1999 11.6413 5.26312 11.4886 5.37564 11.3761C5.48816 11.2636 5.64077 11.2004 5.7999 11.2004C5.95903 11.2004 6.11164 11.2636 6.22417 11.3761C6.33669 11.4886 6.3999 11.6413 6.3999 11.8004V12.4004ZM6.3999 5.80039C6.3999 5.64126 6.33669 5.48865 6.22417 5.37613C6.11164 5.2636 5.95903 5.20039 5.7999 5.20039C5.64077 5.20039 5.48816 5.2636 5.37564 5.37613C5.26312 5.48865 5.1999 5.64126 5.1999 5.80039V9.40039C5.1999 9.55952 5.26312 9.71213 5.37564 9.82465C5.48816 9.93718 5.64077 10.0004 5.7999 10.0004C5.95903 10.0004 6.11164 9.93718 6.22417 9.82465C6.33669 9.71213 6.3999 9.55952 6.3999 9.40039V5.80039ZM17.1999 1.60039C17.5182 1.60039 17.8234 1.72682 18.0484 1.95186C18.2735 2.17691 18.3999 2.48213 18.3999 2.80039V3.40039C18.3999 3.55952 18.4631 3.71213 18.5756 3.82465C18.6882 3.93718 18.8408 4.00039 18.9999 4.00039C19.159 4.00039 19.3116 3.93718 19.4242 3.82465C19.5367 3.71213 19.5999 3.55952 19.5999 3.40039V2.80039C19.5999 2.16387 19.347 1.55342 18.897 1.10333C18.4469 0.653247 17.8364 0.400391 17.1999 0.400391H16.5999C16.4408 0.400391 16.2882 0.463605 16.1756 0.576127C16.0631 0.688648 15.9999 0.841261 15.9999 1.00039C15.9999 1.15952 16.0631 1.31213 16.1756 1.42465C16.2882 1.53718 16.4408 1.60039 16.5999 1.60039H17.1999ZM17.1999 13.6004C17.5182 13.6004 17.8234 13.474 18.0484 13.2489C18.2735 13.0239 18.3999 12.7186 18.3999 12.4004V11.8004C18.3999 11.6413 18.4631 11.4886 18.5756 11.3761C18.6882 11.2636 18.8408 11.2004 18.9999 11.2004C19.159 11.2004 19.3116 11.2636 19.4242 11.3761C19.5367 11.4886 19.5999 11.6413 19.5999 11.8004V12.4004C19.5999 13.0369 19.347 13.6474 18.897 14.0974C18.4469 14.5475 17.8364 14.8004 17.1999 14.8004H16.5999C16.4408 14.8004 16.2882 14.7372 16.1756 14.6247C16.0631 14.5121 15.9999 14.3595 15.9999 14.2004C15.9999 14.0413 16.0631 13.8886 16.1756 13.7761C16.2882 13.6636 16.4408 13.6004 16.5999 13.6004H17.1999ZM18.9999 5.20039C18.8408 5.20039 18.6882 5.2636 18.5756 5.37613C18.4631 5.48865 18.3999 5.64126 18.3999 5.80039V9.40039C18.3999 9.55952 18.4631 9.71213 18.5756 9.82465C18.6882 9.93718 18.8408 10.0004 18.9999 10.0004C19.159 10.0004 19.3116 9.93718 19.4242 9.82465C19.5367 9.71213 19.5999 9.55952 19.5999 9.40039V5.80039C19.5999 5.64126 19.5367 5.48865 19.4242 5.37613C19.3116 5.2636 19.159 5.20039 18.9999 5.20039ZM10.5999 0.400391C10.4408 0.400391 10.2882 0.463605 10.1756 0.576127C10.0631 0.688648 9.9999 0.841261 9.9999 1.00039C9.9999 1.15952 10.0631 1.31213 10.1756 1.42465C10.2882 1.53718 10.4408 1.60039 10.5999 1.60039H14.1999C14.359 1.60039 14.5116 1.53718 14.6242 1.42465C14.7367 1.31213 14.7999 1.15952 14.7999 1.00039C14.7999 0.841261 14.7367 0.688648 14.6242 0.576127C14.5116 0.463605 14.359 0.400391 14.1999 0.400391H10.5999ZM9.9999 14.2004C9.9999 14.0413 10.0631 13.8886 10.1756 13.7761C10.2882 13.6636 10.4408 13.6004 10.5999 13.6004H14.1999C14.359 13.6004 14.5116 13.6636 14.6242 13.7761C14.7367 13.8886 14.7999 14.0413 14.7999 14.2004C14.7999 14.3595 14.7367 14.5121 14.6242 14.6247C14.5116 14.7372 14.359 14.8004 14.1999 14.8004H10.5999C10.4408 14.8004 10.2882 14.7372 10.1756 14.6247C10.0631 14.5121 9.9999 14.3595 9.9999 14.2004ZM2.7999 5.20039H3.9999V13.0004C3.9999 13.796 4.31597 14.5591 4.87858 15.1217C5.44119 15.6843 6.20425 16.0004 6.9999 16.0004H14.7999V17.2004C14.7999 17.8369 14.547 18.4474 14.097 18.8974C13.6469 19.3475 13.0364 19.6004 12.3999 19.6004H4.5999C3.48599 19.6004 2.41771 19.1579 1.63005 18.3702C0.842401 17.5826 0.399902 16.5143 0.399902 15.4004V7.60039C0.399902 6.96387 0.652759 6.35342 1.10285 5.90333C1.55293 5.45325 2.16338 5.20039 2.7999 5.20039Z" fill="#014F59"/>
</svg>
