<svg width="9" height="9" viewBox="0 0 9 9" fill="none" xmlns="http://www.w3.org/2000/svg">
<path fill-rule="evenodd" clip-rule="evenodd" d="M5.25838 1.77099L5.29216 1.79049C5.58395 1.95894 5.82727 2.09941 6.00544 2.23691C6.1935 2.38203 6.34276 2.5486 6.40527 2.78192C6.46779 3.01524 6.42181 3.23413 6.33151 3.45383C6.24596 3.66199 6.10548 3.9053 5.937 4.19708L4.48368 6.71435C4.37233 6.90759 4.28428 7.06038 4.15027 7.17552C4.01627 7.29066 3.85196 7.3547 3.64416 7.43569L3.58801 7.45761C3.20243 7.60826 2.88459 7.73245 2.62432 7.79326C2.35211 7.85685 2.08929 7.86477 1.84431 7.72333C1.59933 7.58189 1.47478 7.35032 1.39375 7.08279C1.31628 6.82698 1.26491 6.48964 1.20259 6.08039L1.19349 6.02079C1.15973 5.80034 1.13304 5.62603 1.16575 5.4524C1.16984 5.4307 1.1748 5.40933 1.18056 5.38816C1.2209 5.23998 1.30072 5.102 1.39843 4.93308L2.85179 2.41583C3.02024 2.12404 3.16071 1.88072 3.2982 1.70255C3.44333 1.5145 3.6099 1.36523 3.84322 1.30272C4.07654 1.2402 4.29542 1.28618 4.51513 1.37648C4.72329 1.46203 4.9666 1.60251 5.25838 1.77099ZM3.18855 2.95754L5.29949 4.17629L4.0157 6.39988C3.87584 6.64212 3.83585 6.70406 3.78369 6.74888C3.73153 6.79369 3.66428 6.8239 3.40374 6.92569C2.99256 7.08634 2.71253 7.195 2.49635 7.24551C2.28752 7.2943 2.19276 7.27499 2.12556 7.23619C2.05836 7.19739 1.99426 7.12499 1.9321 6.91974C1.86775 6.70727 1.82184 6.41042 1.75537 5.97401C1.71326 5.69748 1.70579 5.62413 1.71852 5.55655C1.73126 5.48897 1.7649 5.42337 1.90476 5.18113L3.18855 2.95754ZM5.81124 3.24C5.76155 3.36092 5.68554 3.50309 5.58015 3.68881L3.47039 2.47074C3.57853 2.28661 3.66366 2.1497 3.74352 2.0462C3.85019 1.90797 3.92205 1.86394 3.9888 1.84605C4.05556 1.82816 4.1398 1.83037 4.3013 1.89675C4.47035 1.96623 4.68095 2.08713 4.99402 2.26788C5.30709 2.44863 5.51709 2.57057 5.66179 2.68223C5.80002 2.7889 5.84405 2.86075 5.86194 2.92751C5.87983 2.99426 5.87762 3.07851 5.81124 3.24Z" fill="#014F59"/>
<path d="M4.74725 7.5941C4.74725 7.43877 4.87317 7.31285 5.0285 7.31285H7.2785C7.43383 7.31285 7.55975 7.43877 7.55975 7.5941C7.55975 7.74943 7.43383 7.87535 7.2785 7.87535H5.0285C4.87317 7.87535 4.74725 7.74943 4.74725 7.5941Z" fill="#014F59"/>
</svg>
