<svg width="484" height="725" viewBox="0 0 484 725" fill="none" xmlns="http://www.w3.org/2000/svg">
<g clip-path="url(#clip0_6644_115292)">
<g filter="url(#filter0_ii_6644_115292)">
<path d="M209.382 377.218C93.7011 402.185 8.99958 464.097 20.1167 515.595C45.0735 631.201 159.024 704.777 274.705 679.809C390.386 654.842 463.857 540.907 438.882 425.213C427.765 373.715 325.064 352.25 209.382 377.218Z" fill="#0038FF" fill-opacity="0.17"/>
</g>
<g filter="url(#filter1_i_6644_115292)">
<path d="M249.483 562.976C363.284 538.415 446.675 477.45 435.743 426.807C424.81 376.164 323.694 355.021 209.893 379.583C96.0918 404.144 12.7005 465.109 23.6332 515.752C34.5658 566.395 135.682 587.538 249.483 562.976Z" fill="black" fill-opacity="0.4"/>
</g>
<g filter="url(#filter2_if_6644_115292)">
<path d="M249.8 564.443C306.857 552.128 356.361 530.675 390.273 505.883C407.228 493.488 420.344 480.216 428.536 466.775C436.734 453.325 440.045 439.628 437.209 426.49C434.373 413.353 425.706 402.241 412.689 393.37C399.682 384.505 382.259 377.823 361.7 373.525C320.58 364.927 266.633 365.802 209.576 378.116C152.519 390.431 103.015 411.884 69.1025 436.676C52.148 449.071 39.0324 462.343 30.8399 475.784C22.6419 489.234 19.3309 502.931 22.1669 516.069C25.003 529.206 33.6699 540.318 46.6865 549.189C59.6942 558.054 77.1174 564.736 97.6757 569.034C138.796 577.632 192.743 576.757 249.8 564.443Z" stroke="url(#paint0_angular_6644_115292)" stroke-width="3"/>
</g>
<g filter="url(#filter3_if_6644_115292)">
<path d="M249.8 564.443C306.857 552.128 356.361 530.675 390.273 505.883C407.228 493.488 420.344 480.216 428.536 466.775C436.734 453.325 440.045 439.628 437.209 426.49C434.373 413.353 425.706 402.241 412.689 393.37C399.682 384.505 382.259 377.823 361.7 373.525C320.58 364.927 266.633 365.802 209.576 378.116C152.519 390.431 103.015 411.884 69.1025 436.676C52.148 449.071 39.0324 462.343 30.8399 475.784C22.6419 489.234 19.3309 502.931 22.1669 516.069C25.003 529.206 33.6699 540.318 46.6865 549.189C59.6942 558.054 77.1174 564.736 97.6757 569.034C138.796 577.632 192.743 576.757 249.8 564.443Z" stroke="url(#paint1_angular_6644_115292)" stroke-width="3"/>
</g>
<g filter="url(#filter4_f_6644_115292)">
<path d="M211.929 386.418C136.884 409.514 73.99 448.584 51.9236 465.232C-23.1525 545.218 87.5842 556.692 170.32 517.966C253.057 479.241 284.375 364.157 211.929 386.418Z" fill="#9C0B0E" fill-opacity="0.15"/>
</g>
</g>
<g filter="url(#filter5_b_6644_115292)">
<g filter="url(#filter6_ii_6644_115292)">
<path d="M220.361 162.125C78.1611 162.125 26.4534 275.021 31.9739 353.445C39.2777 457.203 116.279 541.853 220.361 541.853C324.442 541.853 402.141 457.328 408.747 353.445C413.639 276.52 362.56 162.125 220.361 162.125Z" fill="#0038FF" fill-opacity="0.29"/>
</g>
<g filter="url(#filter7_if_6644_115292)">
<path d="M220.546 502.561C322.912 502.561 405.896 426.296 405.896 332.218C405.896 238.14 322.912 161.875 220.546 161.875C118.18 161.875 35.1963 238.14 35.1963 332.218C35.1963 426.296 118.18 502.561 220.546 502.561Z" fill="black" fill-opacity="0.72"/>
<path d="M220.546 504.561C323.854 504.561 407.896 427.556 407.896 332.218C407.896 236.88 323.854 159.875 220.546 159.875C117.238 159.875 33.1963 236.88 33.1963 332.218C33.1963 427.556 117.238 504.561 220.546 504.561Z" stroke="url(#paint2_angular_6644_115292)" stroke-width="4"/>
</g>
<g filter="url(#filter8_if_6644_115292)">
<path d="M220.546 504.061C323.619 504.061 407.396 427.241 407.396 332.218C407.396 237.195 323.619 160.375 220.546 160.375C117.474 160.375 33.6963 237.195 33.6963 332.218C33.6963 427.241 117.474 504.061 220.546 504.061Z" stroke="url(#paint3_angular_6644_115292)" stroke-width="3"/>
</g>
</g>
<g filter="url(#filter9_b_6644_115292)">
<g filter="url(#filter10_ii_6644_115292)">
<path d="M285.571 86.5046C187.005 53.0765 95.1177 61.5205 80.2334 105.399C46.8195 203.901 99.5465 310.899 198.113 344.327C296.679 377.755 403.602 324.985 437.041 226.408C451.926 182.53 384.137 119.933 285.571 86.5046Z" fill="#0038FF" fill-opacity="0.29"/>
</g>
<g filter="url(#filter11_i_6644_115292)">
<path d="M231.881 244.78C328.845 277.665 419.316 269.343 433.953 226.193C448.591 183.043 381.852 121.404 284.888 88.5196C187.924 55.6349 97.4534 63.9567 82.8161 107.107C68.1787 150.257 134.917 211.895 231.881 244.78Z" fill="black" fill-opacity="0.53"/>
</g>
<g filter="url(#filter12_if_6644_115292)">
<path d="M231.559 245.727C280.142 262.203 327.143 268.374 363.88 264.995C382.248 263.305 398.097 259.224 410.304 252.81C422.517 246.393 431.135 237.609 434.899 226.514C438.663 215.418 437.168 203.204 431.379 190.682C425.594 178.166 415.498 165.285 401.949 152.772C374.848 127.742 333.791 104.049 285.208 87.5721C236.625 71.0955 189.624 64.9247 152.887 68.3039C134.52 69.9933 118.67 74.0744 106.463 80.4885C94.2501 86.9059 85.6318 95.6899 81.8681 106.785C78.1043 117.88 79.5997 130.094 85.3881 142.617C91.1735 155.133 101.27 168.013 114.819 180.527C141.919 205.556 182.976 229.25 231.559 245.727Z" stroke="url(#paint4_angular_6644_115292)" stroke-width="2"/>
</g>
<g filter="url(#filter13_if_6644_115292)">
<path d="M231.559 245.727C280.142 262.203 327.143 268.374 363.88 264.995C382.248 263.305 398.097 259.224 410.304 252.81C422.517 246.393 431.135 237.609 434.899 226.514C438.663 215.418 437.168 203.204 431.379 190.682C425.594 178.166 415.498 165.285 401.949 152.772C374.848 127.742 333.791 104.049 285.208 87.5721C236.625 71.0955 189.624 64.9247 152.887 68.3039C134.52 69.9933 118.67 74.0744 106.463 80.4885C94.2501 86.9059 85.6318 95.6899 81.8681 106.785C78.1043 117.88 79.5997 130.094 85.3881 142.617C91.1735 155.133 101.27 168.013 114.819 180.527C141.919 205.556 182.976 229.25 231.559 245.727Z" stroke="url(#paint5_angular_6644_115292)" stroke-width="2"/>
</g>
<g filter="url(#filter14_f_6644_115292)">
<path d="M283.335 94.5973C216.274 78.1175 151.164 79.1799 126.991 81.7711C34.1988 108.201 112.565 166.891 192.492 175.053C272.418 183.215 348.056 110.533 283.335 94.5973Z" fill="#9C0B0E" fill-opacity="0.15"/>
</g>
</g>
<defs>
<filter id="filter0_ii_6644_115292" x="-9.86328" y="342.805" width="472.619" height="352.87" filterUnits="userSpaceOnUse" color-interpolation-filters="sRGB">
<feFlood flood-opacity="0" result="BackgroundImageFix"/>
<feBlend mode="normal" in="SourceGraphic" in2="BackgroundImageFix" result="shape"/>
<feColorMatrix in="SourceAlpha" type="matrix" values="0 0 0 0 0 0 0 0 0 0 0 0 0 0 0 0 0 0 127 0" result="hardAlpha"/>
<feOffset dx="-29" dy="-24"/>
<feGaussianBlur stdDeviation="35.4"/>
<feComposite in2="hardAlpha" operator="arithmetic" k2="-1" k3="1"/>
<feColorMatrix type="matrix" values="0 0 0 0 0 0 0 0 0 0.22 0 0 0 0 1 0 0 0 1 0"/>
<feBlend mode="normal" in2="shape" result="effect1_innerShadow_6644_115292"/>
<feColorMatrix in="SourceAlpha" type="matrix" values="0 0 0 0 0 0 0 0 0 0 0 0 0 0 0 0 0 0 127 0" result="hardAlpha"/>
<feOffset dx="19" dy="11"/>
<feGaussianBlur stdDeviation="11.65"/>
<feComposite in2="hardAlpha" operator="arithmetic" k2="-1" k3="1"/>
<feColorMatrix type="matrix" values="0 0 0 0 0 0 0 0 0 0.785378 0 0 0 0 0.886068 0 0 0 1 0"/>
<feBlend mode="normal" in2="effect1_innerShadow_6644_115292" result="effect2_innerShadow_6644_115292"/>
</filter>
<filter id="filter1_i_6644_115292" x="22.6699" y="369.344" width="414.036" height="292.672" filterUnits="userSpaceOnUse" color-interpolation-filters="sRGB">
<feFlood flood-opacity="0" result="BackgroundImageFix"/>
<feBlend mode="normal" in="SourceGraphic" in2="BackgroundImageFix" result="shape"/>
<feColorMatrix in="SourceAlpha" type="matrix" values="0 0 0 0 0 0 0 0 0 0 0 0 0 0 0 0 0 0 127 0" result="hardAlpha"/>
<feOffset dy="109"/>
<feGaussianBlur stdDeviation="44.4"/>
<feComposite in2="hardAlpha" operator="arithmetic" k2="-1" k3="1"/>
<feColorMatrix type="matrix" values="0 0 0 0 0.706989 0 0 0 0 0.162826 0 0 0 0 1 0 0 0 0.13 0"/>
<feBlend mode="normal" in2="shape" result="effect1_innerShadow_6644_115292"/>
</filter>
<filter id="filter2_if_6644_115292" x="13.6689" y="360.344" width="432.038" height="304.672" filterUnits="userSpaceOnUse" color-interpolation-filters="sRGB">
<feFlood flood-opacity="0" result="BackgroundImageFix"/>
<feBlend mode="normal" in="SourceGraphic" in2="BackgroundImageFix" result="shape"/>
<feColorMatrix in="SourceAlpha" type="matrix" values="0 0 0 0 0 0 0 0 0 0 0 0 0 0 0 0 0 0 127 0" result="hardAlpha"/>
<feOffset dy="109"/>
<feGaussianBlur stdDeviation="44.4"/>
<feComposite in2="hardAlpha" operator="arithmetic" k2="-1" k3="1"/>
<feColorMatrix type="matrix" values="0 0 0 0 0.706989 0 0 0 0 0.162826 0 0 0 0 1 0 0 0 0.13 0"/>
<feBlend mode="normal" in2="shape" result="effect1_innerShadow_6644_115292"/>
<feGaussianBlur stdDeviation="3" result="effect2_foregroundBlur_6644_115292"/>
</filter>
<filter id="filter3_if_6644_115292" x="17.6689" y="364.344" width="424.038" height="300.672" filterUnits="userSpaceOnUse" color-interpolation-filters="sRGB">
<feFlood flood-opacity="0" result="BackgroundImageFix"/>
<feBlend mode="normal" in="SourceGraphic" in2="BackgroundImageFix" result="shape"/>
<feColorMatrix in="SourceAlpha" type="matrix" values="0 0 0 0 0 0 0 0 0 0 0 0 0 0 0 0 0 0 127 0" result="hardAlpha"/>
<feOffset dy="109"/>
<feGaussianBlur stdDeviation="44.4"/>
<feComposite in2="hardAlpha" operator="arithmetic" k2="-1" k3="1"/>
<feColorMatrix type="matrix" values="0 0 0 0 0.706989 0 0 0 0 0.162826 0 0 0 0 1 0 0 0 0.13 0"/>
<feBlend mode="normal" in2="shape" result="effect1_innerShadow_6644_115292"/>
<feGaussianBlur stdDeviation="1" result="effect2_foregroundBlur_6644_115292"/>
</filter>
<filter id="filter4_f_6644_115292" x="-52.9961" y="303.585" width="385.447" height="315.833" filterUnits="userSpaceOnUse" color-interpolation-filters="sRGB">
<feFlood flood-opacity="0" result="BackgroundImageFix"/>
<feBlend mode="normal" in="SourceGraphic" in2="BackgroundImageFix" result="shape"/>
<feGaussianBlur stdDeviation="40" result="effect1_foregroundBlur_6644_115292"/>
</filter>
<filter id="filter5_b_6644_115292" x="11.1963" y="137.875" width="418.699" height="423.978" filterUnits="userSpaceOnUse" color-interpolation-filters="sRGB">
<feFlood flood-opacity="0" result="BackgroundImageFix"/>
<feGaussianBlur in="BackgroundImageFix" stdDeviation="10"/>
<feComposite in2="SourceAlpha" operator="in" result="effect1_backgroundBlur_6644_115292"/>
<feBlend mode="normal" in="SourceGraphic" in2="effect1_backgroundBlur_6644_115292" result="shape"/>
</filter>
<filter id="filter6_ii_6644_115292" x="2.57812" y="138.125" width="425.487" height="403.728" filterUnits="userSpaceOnUse" color-interpolation-filters="sRGB">
<feFlood flood-opacity="0" result="BackgroundImageFix"/>
<feBlend mode="normal" in="SourceGraphic" in2="BackgroundImageFix" result="shape"/>
<feColorMatrix in="SourceAlpha" type="matrix" values="0 0 0 0 0 0 0 0 0 0 0 0 0 0 0 0 0 0 127 0" result="hardAlpha"/>
<feOffset dx="-29" dy="-24"/>
<feGaussianBlur stdDeviation="35.4"/>
<feComposite in2="hardAlpha" operator="arithmetic" k2="-1" k3="1"/>
<feColorMatrix type="matrix" values="0 0 0 0 0 0 0 0 0 0.22 0 0 0 0 1 0 0 0 1 0"/>
<feBlend mode="normal" in2="shape" result="effect1_innerShadow_6644_115292"/>
<feColorMatrix in="SourceAlpha" type="matrix" values="0 0 0 0 0 0 0 0 0 0 0 0 0 0 0 0 0 0 127 0" result="hardAlpha"/>
<feOffset dx="19" dy="-17"/>
<feGaussianBlur stdDeviation="11.65"/>
<feComposite in2="hardAlpha" operator="arithmetic" k2="-1" k3="1"/>
<feColorMatrix type="matrix" values="0 0 0 0 0 0 0 0 0 0.785378 0 0 0 0 0.886068 0 0 0 1 0"/>
<feBlend mode="normal" in2="effect1_innerShadow_6644_115292" result="effect2_innerShadow_6644_115292"/>
</filter>
<filter id="filter7_if_6644_115292" x="25.1963" y="130.875" width="468.299" height="381.686" filterUnits="userSpaceOnUse" color-interpolation-filters="sRGB">
<feFlood flood-opacity="0" result="BackgroundImageFix"/>
<feBlend mode="normal" in="SourceGraphic" in2="BackgroundImageFix" result="shape"/>
<feColorMatrix in="SourceAlpha" type="matrix" values="0 0 0 0 0 0 0 0 0 0 0 0 0 0 0 0 0 0 127 0" result="hardAlpha"/>
<feOffset dx="105" dy="-27"/>
<feGaussianBlur stdDeviation="41.8"/>
<feComposite in2="hardAlpha" operator="arithmetic" k2="-1" k3="1"/>
<feColorMatrix type="matrix" values="0 0 0 0 0.162826 0 0 0 0 0.776753 0 0 0 0 1 0 0 0 0.15 0"/>
<feBlend mode="normal" in2="shape" result="effect1_innerShadow_6644_115292"/>
<feGaussianBlur stdDeviation="3" result="effect2_foregroundBlur_6644_115292"/>
</filter>
<filter id="filter8_if_6644_115292" x="30.1963" y="131.875" width="467.499" height="375.686" filterUnits="userSpaceOnUse" color-interpolation-filters="sRGB">
<feFlood flood-opacity="0" result="BackgroundImageFix"/>
<feBlend mode="normal" in="SourceGraphic" in2="BackgroundImageFix" result="shape"/>
<feColorMatrix in="SourceAlpha" type="matrix" values="0 0 0 0 0 0 0 0 0 0 0 0 0 0 0 0 0 0 127 0" result="hardAlpha"/>
<feOffset dx="105" dy="-27"/>
<feGaussianBlur stdDeviation="44.4"/>
<feComposite in2="hardAlpha" operator="arithmetic" k2="-1" k3="1"/>
<feColorMatrix type="matrix" values="0 0 0 0 0 0 0 0 0 0.785378 0 0 0 0 0.886068 0 0 0 0.05 0"/>
<feBlend mode="normal" in2="shape" result="effect1_innerShadow_6644_115292"/>
<feGaussianBlur stdDeviation="1" result="effect2_foregroundBlur_6644_115292"/>
</filter>
<filter id="filter9_b_6644_115292" x="9.70898" y="16" width="464.191" height="398.806" filterUnits="userSpaceOnUse" color-interpolation-filters="sRGB">
<feFlood flood-opacity="0" result="BackgroundImageFix"/>
<feGaussianBlur in="BackgroundImageFix" stdDeviation="5"/>
<feComposite in2="SourceAlpha" operator="in" result="effect1_backgroundBlur_6644_115292"/>
<feBlend mode="normal" in="SourceGraphic" in2="effect1_backgroundBlur_6644_115292" result="shape"/>
</filter>
<filter id="filter10_ii_6644_115292" x="41.1963" y="42.0601" width="416.895" height="323.306" filterUnits="userSpaceOnUse" color-interpolation-filters="sRGB">
<feFlood flood-opacity="0" result="BackgroundImageFix"/>
<feBlend mode="normal" in="SourceGraphic" in2="BackgroundImageFix" result="shape"/>
<feColorMatrix in="SourceAlpha" type="matrix" values="0 0 0 0 0 0 0 0 0 0 0 0 0 0 0 0 0 0 127 0" result="hardAlpha"/>
<feOffset dx="-29" dy="-24"/>
<feGaussianBlur stdDeviation="35.4"/>
<feComposite in2="hardAlpha" operator="arithmetic" k2="-1" k3="1"/>
<feColorMatrix type="matrix" values="0 0 0 0 0 0 0 0 0 0.826997 0 0 0 0 0.886068 0 0 0 0.74 0"/>
<feBlend mode="normal" in2="shape" result="effect1_innerShadow_6644_115292"/>
<feColorMatrix in="SourceAlpha" type="matrix" values="0 0 0 0 0 0 0 0 0 0 0 0 0 0 0 0 0 0 127 0" result="hardAlpha"/>
<feOffset dx="19" dy="11"/>
<feGaussianBlur stdDeviation="11.65"/>
<feComposite in2="hardAlpha" operator="arithmetic" k2="-1" k3="1"/>
<feColorMatrix type="matrix" values="0 0 0 0 0 0 0 0 0 0.22 0 0 0 0 1 0 0 0 1 0"/>
<feBlend mode="normal" in2="effect1_innerShadow_6644_115292" result="effect2_innerShadow_6644_115292"/>
</filter>
<filter id="filter11_i_6644_115292" x="80.8027" y="68.4116" width="355.164" height="285.276" filterUnits="userSpaceOnUse" color-interpolation-filters="sRGB">
<feFlood flood-opacity="0" result="BackgroundImageFix"/>
<feBlend mode="normal" in="SourceGraphic" in2="BackgroundImageFix" result="shape"/>
<feColorMatrix in="SourceAlpha" type="matrix" values="0 0 0 0 0 0 0 0 0 0 0 0 0 0 0 0 0 0 127 0" result="hardAlpha"/>
<feOffset dy="109"/>
<feGaussianBlur stdDeviation="44.4"/>
<feComposite in2="hardAlpha" operator="arithmetic" k2="-1" k3="1"/>
<feColorMatrix type="matrix" values="0 0 0 0 0.706989 0 0 0 0 0.162826 0 0 0 0 1 0 0 0 0.13 0"/>
<feBlend mode="normal" in2="shape" result="effect1_innerShadow_6644_115292"/>
</filter>
<filter id="filter12_if_6644_115292" x="75.8008" y="63.4111" width="365.165" height="292.276" filterUnits="userSpaceOnUse" color-interpolation-filters="sRGB">
<feFlood flood-opacity="0" result="BackgroundImageFix"/>
<feBlend mode="normal" in="SourceGraphic" in2="BackgroundImageFix" result="shape"/>
<feColorMatrix in="SourceAlpha" type="matrix" values="0 0 0 0 0 0 0 0 0 0 0 0 0 0 0 0 0 0 127 0" result="hardAlpha"/>
<feOffset dy="109"/>
<feGaussianBlur stdDeviation="44.4"/>
<feComposite in2="hardAlpha" operator="arithmetic" k2="-1" k3="1"/>
<feColorMatrix type="matrix" values="0 0 0 0 0.706989 0 0 0 0 0.162826 0 0 0 0 1 0 0 0 0.13 0"/>
<feBlend mode="normal" in2="shape" result="effect1_innerShadow_6644_115292"/>
<feGaussianBlur stdDeviation="1.5" result="effect2_foregroundBlur_6644_115292"/>
</filter>
<filter id="filter13_if_6644_115292" x="77.8008" y="65.4111" width="361.165" height="290.276" filterUnits="userSpaceOnUse" color-interpolation-filters="sRGB">
<feFlood flood-opacity="0" result="BackgroundImageFix"/>
<feBlend mode="normal" in="SourceGraphic" in2="BackgroundImageFix" result="shape"/>
<feColorMatrix in="SourceAlpha" type="matrix" values="0 0 0 0 0 0 0 0 0 0 0 0 0 0 0 0 0 0 127 0" result="hardAlpha"/>
<feOffset dy="109"/>
<feGaussianBlur stdDeviation="44.4"/>
<feComposite in2="hardAlpha" operator="arithmetic" k2="-1" k3="1"/>
<feColorMatrix type="matrix" values="0 0 0 0 0.706989 0 0 0 0 0.162826 0 0 0 0 1 0 0 0 0.13 0"/>
<feBlend mode="normal" in2="shape" result="effect1_innerShadow_6644_115292"/>
<feGaussianBlur stdDeviation="0.5" result="effect2_foregroundBlur_6644_115292"/>
</filter>
<filter id="filter14_f_6644_115292" x="4.93066" y="0.277832" width="382.819" height="255.412" filterUnits="userSpaceOnUse" color-interpolation-filters="sRGB">
<feFlood flood-opacity="0" result="BackgroundImageFix"/>
<feBlend mode="normal" in="SourceGraphic" in2="BackgroundImageFix" result="shape"/>
<feGaussianBlur stdDeviation="40" result="effect1_foregroundBlur_6644_115292"/>
</filter>
<radialGradient id="paint0_angular_6644_115292" cx="0" cy="0" r="1" gradientUnits="userSpaceOnUse" gradientTransform="translate(229.688 471.28) rotate(77.8181) scale(93.8093 210.799)">
<stop offset="0.0606455" stop-color="#29E2FF"/>
<stop offset="0.196569" stop-color="#29E2FF" stop-opacity="0"/>
<stop offset="0.284637" stop-color="#9468FF" stop-opacity="0.16"/>
<stop offset="0.345083" stop-color="#AA4FFF"/>
<stop offset="0.423475" stop-color="#FFB10A"/>
<stop offset="0.526309" stop-color="#6729FF"/>
<stop offset="0.71" stop-color="#0038FF"/>
</radialGradient>
<radialGradient id="paint1_angular_6644_115292" cx="0" cy="0" r="1" gradientUnits="userSpaceOnUse" gradientTransform="translate(229.688 471.28) rotate(77.8181) scale(93.8093 210.799)">
<stop offset="0.0606455" stop-color="#29E2FF"/>
<stop offset="0.196569" stop-color="#29E2FF" stop-opacity="0"/>
<stop offset="0.284637" stop-color="#9468FF" stop-opacity="0.16"/>
<stop offset="0.33595" stop-color="#AA4FFF"/>
<stop offset="0.423475" stop-color="#FFB10A"/>
<stop offset="0.51498" stop-color="#6729FF"/>
<stop offset="0.798207" stop-color="#0038FF"/>
</radialGradient>
<radialGradient id="paint2_angular_6644_115292" cx="0" cy="0" r="1" gradientUnits="userSpaceOnUse" gradientTransform="translate(220.546 332.218) rotate(-90) scale(170.343 185.35)">
<stop offset="0.0606455" stop-color="#29E2FF"/>
<stop offset="0.196569" stop-color="#29E2FF" stop-opacity="0"/>
<stop offset="0.284637" stop-color="#9468FF" stop-opacity="0.16"/>
<stop offset="0.345083" stop-color="#AA4FFF"/>
<stop offset="0.423475" stop-color="#FFB10A"/>
<stop offset="0.526309" stop-color="#6729FF"/>
<stop offset="0.71" stop-color="#29E2FF"/>
</radialGradient>
<radialGradient id="paint3_angular_6644_115292" cx="0" cy="0" r="1" gradientUnits="userSpaceOnUse" gradientTransform="translate(220.546 332.218) rotate(-90) scale(170.343 185.35)">
<stop offset="0.0606455" stop-color="#29E2FF"/>
<stop offset="0.196569" stop-color="#29E2FF" stop-opacity="0"/>
<stop offset="0.284637" stop-color="#9468FF" stop-opacity="0.16"/>
<stop offset="0.33595" stop-color="#AA4FFF"/>
<stop offset="0.423475" stop-color="#FFB10A"/>
<stop offset="0.51498" stop-color="#6729FF"/>
<stop offset="0.71" stop-color="#29E2FF"/>
</radialGradient>
<radialGradient id="paint4_angular_6644_115292" cx="0" cy="0" r="1" gradientUnits="userSpaceOnUse" gradientTransform="translate(258.384 166.649) rotate(108.738) scale(82.5031 185.391)">
<stop offset="0.0606455" stop-color="#29E2FF"/>
<stop offset="0.196569" stop-color="#29E2FF" stop-opacity="0"/>
<stop offset="0.284637" stop-color="#9468FF" stop-opacity="0.16"/>
<stop offset="0.345083" stop-color="#AA4FFF"/>
<stop offset="0.423475" stop-color="#FFB10A"/>
<stop offset="0.526309" stop-color="#6729FF"/>
<stop offset="0.71" stop-color="#29E2FF"/>
</radialGradient>
<radialGradient id="paint5_angular_6644_115292" cx="0" cy="0" r="1" gradientUnits="userSpaceOnUse" gradientTransform="translate(258.384 166.649) rotate(108.738) scale(82.5031 185.391)">
<stop offset="0.0606455" stop-color="#29E2FF"/>
<stop offset="0.196569" stop-color="#29E2FF" stop-opacity="0"/>
<stop offset="0.284637" stop-color="#9468FF" stop-opacity="0.16"/>
<stop offset="0.33595" stop-color="#AA4FFF"/>
<stop offset="0.423475" stop-color="#FFB10A"/>
<stop offset="0.51498" stop-color="#6729FF"/>
<stop offset="0.71" stop-color="#29E2FF"/>
</radialGradient>
<clipPath id="clip0_6644_115292">
<rect width="428.318" height="309.562" fill="white" transform="matrix(0.977492 -0.210971 0.211016 0.977483 0 422.409)"/>
</clipPath>
</defs>
</svg>
