<svg width="118" height="135" viewBox="0 0 118 135" fill="none" xmlns="http://www.w3.org/2000/svg">
<path d="M104.522 88.416C95.9321 86.2868 83.6567 79.8018 80.1502 76.9102C78.8423 75.9932 76.2648 73.7153 76.4177 71.9397C76.6088 69.7202 81.5115 71.5966 83.06 74.7406C83.7665 76.1749 84.0848 77.9805 82.4228 81.5242L54.5933 125.802M104.522 88.416C108.204 89.6656 106.592 85.2388 104.911 84.363C105.286 82.5881 106.625 76.9268 100.127 72.8043C93.9364 68.8774 90.5955 70.9278 88.1651 72.9624C86.0128 74.7644 86.1742 76.9514 86.1742 76.9514M104.522 88.416L86.1742 120.65" stroke="#014F59" stroke-width="2"/>
<path d="M60.885 1L100.596 12.0771L112.687 40.1209C113.108 41.8035 106.795 49.4964 106.795 49.4964L92.744 70.7357M99.8842 15.1544C96.7204 20.6382 88.7155 33.8202 93.4337 38.1581C99.3313 43.5806 105.782 44.3159 106.888 43.4887C107.993 42.6615 107.809 39.1476 103.939 39.1476C100.069 39.1476 99.8842 44.5916 99.8842 45.6025M62.301 9.49572L83.8943 16.5755M59.1151 15.1544L68.3188 18.3454M55.5752 21.5313L70.0887 27.1951" stroke="#014F59" stroke-width="2"/>
<path d="M67.9654 103.635C65.1876 107.856 58.2867 104.422 56.4559 103.635C47.0715 96.8564 26.2595 81.8491 18.0869 76.0505C9.91424 70.2519 12.7508 63.1698 15.1906 60.3535L59.062 4.20809L61.5742 1M51.6873 85.9821C52.8295 86.8823 55.7206 88.1343 58.1469 85.9408C61.1799 83.1988 58.3566 83.2362 57.4924 84.3668C56.6283 85.4973 54.5687 87.7784 56.8351 90.1308C59.1014 92.4831 61.4485 89.5928 60.5449 88.5933C59.6413 87.5938 57.2637 88.9049 59.4111 91.4347C61.1289 93.4585 62.6003 93.6745 63.1213 93.5296M48.0743 87.7813C51.6085 89.2436 59.4624 93.037 62.6041 96.5121" stroke="#014F59" stroke-width="2"/>
</svg>
