<svg width="246" height="54" viewBox="0 0 246 54" fill="none" xmlns="http://www.w3.org/2000/svg">
<rect x="0.5" width="245" height="54" rx="12" fill="black" fill-opacity="0.37"/>
<rect x="0.75" y="0.25" width="244.5" height="53.5" rx="11.75" stroke="#FCFCD8" stroke-opacity="0.19" stroke-width="0.5"/>
<path d="M61.7778 12.6694H58.5303V14.1592H61.3735V15.2842H58.5303V18H57.1855V11.5312H61.7778V12.6694ZM67.1963 15.1699H64.0498V16.8354H67.6357V18H62.7271V11.5225H67.4775V12.6694H64.0498V14.0449H67.1963V15.1699ZM72.4829 16.6685H70.0967L69.6484 18H68.2334L70.5449 11.5225H72.0742L74.3682 18H72.9004L72.4829 16.6685ZM72.105 15.5522L71.2964 13.0034L70.4614 15.5522H72.105ZM79.2329 11.5225V12.6694H77.2949V18H75.9326V12.6694H73.9858V11.5225H79.2329ZM83.8604 15.5039V11.5225H85.2358V15.5039C85.2358 16.1924 85.1289 16.7285 84.915 17.1123C84.5166 17.8154 83.7563 18.167 82.6343 18.167C81.5122 18.167 80.7505 17.8154 80.3491 17.1123C80.1353 16.7285 80.0283 16.1924 80.0283 15.5039V11.5225H81.4038V15.5039C81.4038 15.9492 81.4565 16.2744 81.562 16.4795C81.7261 16.8428 82.0835 17.0244 82.6343 17.0244C83.1821 17.0244 83.5381 16.8428 83.7021 16.4795C83.8076 16.2744 83.8604 15.9492 83.8604 15.5039ZM89.2832 15.46H87.8857V18H86.563V11.5225H89.7402C90.1943 11.5312 90.543 11.5869 90.7861 11.6895C91.0322 11.792 91.2402 11.9429 91.4102 12.1421C91.5508 12.3062 91.6621 12.4878 91.7441 12.687C91.8262 12.8862 91.8672 13.1133 91.8672 13.3682C91.8672 13.6758 91.7896 13.979 91.6343 14.2778C91.479 14.5737 91.2227 14.7832 90.8652 14.9062C91.1641 15.0264 91.375 15.1978 91.498 15.4204C91.624 15.6401 91.687 15.9771 91.687 16.4312V16.8662C91.687 17.1621 91.6987 17.3628 91.7222 17.4683C91.7573 17.6353 91.8394 17.7583 91.9683 17.8374V18H90.4785C90.4375 17.8564 90.4082 17.7407 90.3906 17.6528C90.3555 17.4712 90.3364 17.2852 90.3335 17.0947L90.3247 16.4927C90.3188 16.0796 90.2427 15.8042 90.0962 15.6665C89.9526 15.5288 89.6816 15.46 89.2832 15.46ZM90.105 14.2822C90.3745 14.1592 90.5093 13.916 90.5093 13.5527C90.5093 13.1602 90.3789 12.8965 90.1182 12.7617C89.9717 12.6855 89.752 12.6475 89.459 12.6475H87.8857V14.3877H89.4194C89.7241 14.3877 89.9526 14.3525 90.105 14.2822ZM97.5449 15.1699H94.3984V16.8354H97.9844V18H93.0757V11.5225H97.8262V12.6694H94.3984V14.0449H97.5449V15.1699ZM101.83 18H99.0391V11.5225H101.83C102.231 11.5283 102.565 11.5752 102.832 11.6631C103.286 11.8125 103.653 12.0864 103.935 12.4849C104.16 12.8071 104.314 13.1558 104.396 13.5308C104.478 13.9058 104.519 14.2632 104.519 14.603C104.519 15.4644 104.346 16.1938 104 16.7915C103.532 17.5972 102.808 18 101.83 18ZM102.836 13.1748C102.628 12.8232 102.216 12.6475 101.601 12.6475H100.353V16.875H101.601C102.24 16.875 102.685 16.5601 102.937 15.9302C103.075 15.5845 103.144 15.1729 103.144 14.6953C103.144 14.0361 103.041 13.5293 102.836 13.1748ZM110.913 18.1802C109.987 18.1802 109.28 17.9282 108.791 17.4243C108.134 16.8062 107.806 15.9155 107.806 14.7524C107.806 13.5659 108.134 12.6753 108.791 12.0806C109.28 11.5767 109.987 11.3247 110.913 11.3247C111.839 11.3247 112.546 11.5767 113.036 12.0806C113.689 12.6753 114.016 13.5659 114.016 14.7524C114.016 15.9155 113.689 16.8062 113.036 17.4243C112.546 17.9282 111.839 18.1802 110.913 18.1802ZM112.192 16.4399C112.505 16.0444 112.662 15.4819 112.662 14.7524C112.662 14.0259 112.504 13.4648 112.188 13.0693C111.874 12.6709 111.449 12.4717 110.913 12.4717C110.377 12.4717 109.949 12.6694 109.63 13.0649C109.311 13.4604 109.151 14.0229 109.151 14.7524C109.151 15.4819 109.311 16.0444 109.63 16.4399C109.949 16.8354 110.377 17.0332 110.913 17.0332C111.449 17.0332 111.875 16.8354 112.192 16.4399ZM120.291 18H118.938L116.292 13.3989V18H115.031V11.5225H116.45L119.03 16.0444V11.5225H120.291V18Z" fill="#FCFCD8"/>
<path d="M64.5186 33.5654H61.3091V39H58.1714V23.8857H64.7544C66.272 23.8857 67.4819 24.2754 68.3843 25.0547C69.2866 25.834 69.7378 27.0405 69.7378 28.6743C69.7378 30.4585 69.2866 31.7197 68.3843 32.458C67.4819 33.1963 66.1934 33.5654 64.5186 33.5654ZM65.9951 30.4175C66.4053 30.0552 66.6104 29.481 66.6104 28.6948C66.6104 27.9087 66.4019 27.3481 65.9849 27.0132C65.5747 26.6782 64.9971 26.5107 64.252 26.5107H61.3091V30.9609H64.252C64.9971 30.9609 65.5781 30.7798 65.9951 30.4175ZM77.4897 30.52C76.314 30.52 75.5244 30.9028 75.1211 31.6685C74.8955 32.0991 74.7827 32.7622 74.7827 33.6577V39H71.8398V27.8232H74.6289V29.7715C75.0801 29.0264 75.4731 28.5171 75.8081 28.2437C76.355 27.7856 77.0659 27.5566 77.9409 27.5566C77.9956 27.5566 78.04 27.5601 78.0742 27.5669C78.1152 27.5669 78.2007 27.5703 78.3306 27.5771V30.5713C78.146 30.5508 77.9819 30.5371 77.8384 30.5303C77.6948 30.5234 77.5786 30.52 77.4897 30.52ZM89.374 29.2383C90.3174 30.4209 90.7891 31.8188 90.7891 33.4321C90.7891 35.0728 90.3174 36.4775 89.374 37.6465C88.4307 38.8086 86.9985 39.3896 85.0776 39.3896C83.1567 39.3896 81.7246 38.8086 80.7812 37.6465C79.8379 36.4775 79.3662 35.0728 79.3662 33.4321C79.3662 31.8188 79.8379 30.4209 80.7812 29.2383C81.7246 28.0557 83.1567 27.4644 85.0776 27.4644C86.9985 27.4644 88.4307 28.0557 89.374 29.2383ZM85.0674 29.9355C84.2129 29.9355 83.5532 30.2397 83.0884 30.8481C82.6304 31.4497 82.4014 32.311 82.4014 33.4321C82.4014 34.5532 82.6304 35.418 83.0884 36.0264C83.5532 36.6348 84.2129 36.939 85.0674 36.939C85.9219 36.939 86.5781 36.6348 87.0361 36.0264C87.4941 35.418 87.7231 34.5532 87.7231 33.4321C87.7231 32.311 87.4941 31.4497 87.0361 30.8481C86.5781 30.2397 85.9219 29.9355 85.0674 29.9355ZM103.063 23.9062V39H100.223V37.4517C99.8057 38.1147 99.3306 38.5967 98.7974 38.8975C98.2642 39.1982 97.6011 39.3486 96.8081 39.3486C95.5024 39.3486 94.4019 38.8223 93.5063 37.7695C92.6177 36.71 92.1733 35.353 92.1733 33.6987C92.1733 31.7915 92.6108 30.291 93.4858 29.1973C94.3677 28.1035 95.5435 27.5566 97.0132 27.5566C97.6899 27.5566 98.2915 27.707 98.8179 28.0078C99.3442 28.3018 99.7715 28.7119 100.1 29.2383V23.9062H103.063ZM95.188 33.4834C95.188 34.5156 95.3931 35.3394 95.8032 35.9546C96.2065 36.5767 96.8218 36.8877 97.6489 36.8877C98.4761 36.8877 99.105 36.5801 99.5356 35.9648C99.9663 35.3496 100.182 34.5532 100.182 33.5757C100.182 32.2085 99.8364 31.231 99.146 30.6431C98.7222 30.2876 98.23 30.1099 97.6694 30.1099C96.8149 30.1099 96.186 30.4346 95.7827 31.084C95.3862 31.7266 95.188 32.5264 95.188 33.4834ZM112.896 37.4209C112.869 37.4551 112.801 37.5576 112.691 37.7285C112.582 37.8994 112.452 38.0498 112.302 38.1797C111.844 38.5898 111.399 38.8701 110.969 39.0205C110.545 39.1709 110.046 39.2461 109.472 39.2461C107.817 39.2461 106.703 38.6514 106.129 37.4619C105.808 36.8057 105.647 35.8384 105.647 34.5601V27.8232H108.641V34.5601C108.641 35.1958 108.716 35.6743 108.867 35.9956C109.133 36.563 109.656 36.8467 110.436 36.8467C111.434 36.8467 112.117 36.4434 112.486 35.6367C112.678 35.1992 112.773 34.6216 112.773 33.9038V27.8232H115.737V39H112.896V37.4209ZM128.236 31.8325H125.242C125.188 31.4155 125.047 31.0396 124.822 30.7046C124.494 30.2534 123.984 30.0278 123.294 30.0278C122.31 30.0278 121.636 30.5166 121.274 31.4941C121.083 32.0137 120.987 32.7041 120.987 33.5654C120.987 34.3857 121.083 35.0454 121.274 35.5444C121.623 36.4741 122.279 36.939 123.243 36.939C123.926 36.939 124.412 36.7544 124.699 36.3853C124.986 36.0161 125.16 35.5376 125.222 34.9497H128.206C128.137 35.8384 127.816 36.6792 127.242 37.4722C126.326 38.7505 124.969 39.3896 123.171 39.3896C121.373 39.3896 120.05 38.8564 119.203 37.79C118.355 36.7236 117.931 35.3394 117.931 33.6372C117.931 31.7163 118.399 30.2227 119.336 29.1562C120.272 28.0898 121.564 27.5566 123.212 27.5566C124.613 27.5566 125.758 27.8711 126.647 28.5C127.542 29.1289 128.072 30.2397 128.236 31.8325ZM135.373 36.9185V39.1025L133.989 39.1538C132.608 39.2017 131.665 38.9624 131.159 38.436C130.831 38.1011 130.667 37.585 130.667 36.8877V30.0073H129.108V27.9258H130.667V24.8086H133.558V27.9258H135.373V30.0073H133.558V35.9136C133.558 36.3716 133.616 36.6587 133.732 36.7749C133.849 36.8843 134.204 36.939 134.799 36.939C134.888 36.939 134.98 36.939 135.076 36.939C135.178 36.9321 135.277 36.9253 135.373 36.9185ZM152.343 39V32.2529H146.437V39H143.31V23.8857H146.437V29.6484H152.343V23.8857H155.481V39H152.343ZM165.438 37.4209C165.41 37.4551 165.342 37.5576 165.232 37.7285C165.123 37.8994 164.993 38.0498 164.843 38.1797C164.385 38.5898 163.94 38.8701 163.51 39.0205C163.086 39.1709 162.587 39.2461 162.013 39.2461C160.358 39.2461 159.244 38.6514 158.67 37.4619C158.349 36.8057 158.188 35.8384 158.188 34.5601V27.8232H161.182V34.5601C161.182 35.1958 161.257 35.6743 161.408 35.9956C161.674 36.563 162.197 36.8467 162.977 36.8467C163.975 36.8467 164.658 36.4434 165.027 35.6367C165.219 35.1992 165.314 34.6216 165.314 33.9038V27.8232H168.278V39H165.438V37.4209ZM176.368 29.9868C175.377 29.9868 174.697 30.4072 174.328 31.248C174.136 31.6924 174.041 32.2598 174.041 32.9502V39H171.128V27.8438H173.948V29.4741C174.324 28.8999 174.68 28.4863 175.015 28.2334C175.616 27.7822 176.378 27.5566 177.301 27.5566C178.457 27.5566 179.4 27.8608 180.131 28.4692C180.87 29.0708 181.239 30.0723 181.239 31.4736V39H178.245V32.2017C178.245 31.6138 178.166 31.1626 178.009 30.8481C177.722 30.2739 177.175 29.9868 176.368 29.9868ZM189.062 36.9185V39.1025L187.678 39.1538C186.297 39.2017 185.354 38.9624 184.848 38.436C184.52 38.1011 184.356 37.585 184.356 36.8877V30.0073H182.797V27.9258H184.356V24.8086H187.248V27.9258H189.062V30.0073H187.248V35.9136C187.248 36.3716 187.306 36.6587 187.422 36.7749C187.538 36.8843 187.894 36.939 188.488 36.939C188.577 36.939 188.669 36.939 188.765 36.939C188.868 36.9321 188.967 36.9253 189.062 36.9185Z" fill="#FF8E8E"/>
<path fill-rule="evenodd" clip-rule="evenodd" d="M226.001 22.5H214.998L220.499 12.5L226.001 22.5Z" fill="#FCFCD8"/>
<path d="M210.547 31.1685C210.331 30.9103 210.022 30.7812 209.62 30.7812C209.07 30.7812 208.695 30.9865 208.497 31.397C208.382 31.634 208.315 32.0106 208.293 32.5269H206.535C206.565 31.744 206.707 31.1113 206.96 30.6289C207.443 29.7106 208.3 29.2515 209.531 29.2515C210.505 29.2515 211.279 29.5223 211.854 30.064C212.43 30.6014 212.718 31.3145 212.718 32.2031C212.718 32.8844 212.515 33.4896 212.108 34.0186C211.842 34.3698 211.404 34.7612 210.794 35.1929L210.071 35.707C209.618 36.0286 209.307 36.2614 209.138 36.4053C208.973 36.5492 208.833 36.7163 208.719 36.9067H212.737V38.5H206.434C206.451 37.8398 206.592 37.2368 206.859 36.6909C207.117 36.0773 207.726 35.4277 208.687 34.7422C209.521 34.1455 210.06 33.7181 210.306 33.46C210.682 33.0579 210.871 32.6178 210.871 32.1396C210.871 31.7503 210.763 31.4266 210.547 31.1685ZM216.729 33.9297C216.509 33.9297 216.319 33.9572 216.158 34.0122C215.875 34.1138 215.661 34.3021 215.517 34.5771L213.892 34.501L214.54 29.4165H219.611V30.9526H215.847L215.517 32.9648C215.796 32.7829 216.014 32.6623 216.171 32.603C216.433 32.5057 216.753 32.457 217.129 32.457C217.891 32.457 218.556 32.7131 219.123 33.2251C219.69 33.7371 219.973 34.4819 219.973 35.4595C219.973 36.3101 219.7 37.0697 219.154 37.7383C218.608 38.4069 217.792 38.7412 216.704 38.7412C215.828 38.7412 215.109 38.5063 214.546 38.0366C213.983 37.5669 213.67 36.9004 213.606 36.0371H215.409C215.481 36.4307 215.619 36.7354 215.822 36.9512C216.025 37.1628 216.321 37.2686 216.71 37.2686C217.159 37.2686 217.5 37.112 217.732 36.7988C217.969 36.4814 218.088 36.0837 218.088 35.6055C218.088 35.1357 217.978 34.7401 217.758 34.4185C217.538 34.0926 217.195 33.9297 216.729 33.9297ZM227.298 35.104V36.5195H226.257V38.5H224.486V36.5195H220.843V34.939L224.226 29.353H226.257V35.104H227.298ZM222.182 35.104H224.486V31.1304L222.182 35.104ZM231.113 38.7666C230.424 38.7666 229.804 38.5635 229.253 38.1572C228.703 37.7467 228.388 37.1501 228.308 36.3672H230.11C230.153 36.638 230.267 36.8581 230.453 37.0273C230.639 37.1966 230.887 37.2812 231.196 37.2812C231.792 37.2812 232.211 36.9512 232.453 36.291C232.584 35.9271 232.666 35.396 232.7 34.6978C232.535 34.9051 232.36 35.0638 232.173 35.1738C231.835 35.377 231.418 35.4785 230.923 35.4785C230.191 35.4785 229.541 35.2267 228.974 34.7231C228.407 34.2153 228.124 33.4854 228.124 32.5332C228.124 31.5472 228.407 30.7495 228.974 30.1401C229.545 29.5265 230.286 29.2197 231.196 29.2197C232.597 29.2197 233.557 29.8397 234.078 31.0796C234.374 31.7821 234.522 32.7067 234.522 33.8535C234.522 34.9665 234.38 35.8953 234.097 36.6401C233.555 38.0578 232.561 38.7666 231.113 38.7666ZM230.479 30.9907C230.132 31.2616 229.958 31.7207 229.958 32.3682C229.958 32.9141 230.068 33.3245 230.288 33.5996C230.512 33.8704 230.855 34.0059 231.316 34.0059C231.566 34.0059 231.801 33.9339 232.021 33.79C232.431 33.5277 232.637 33.0728 232.637 32.4253C232.637 31.9048 232.514 31.4922 232.269 31.1875C232.027 30.8828 231.695 30.7305 231.272 30.7305C230.963 30.7305 230.699 30.8172 230.479 30.9907Z" fill="#FCFCD8"/>
<path d="M27.9361 17.0442C25.9365 16.9573 23.6978 18.3845 22.8284 19.1091C22.8284 18.457 20.5461 14.6533 19.3506 14.6533C18.1552 14.6533 15.873 24.7602 15.873 29.4333C15.873 34.1064 20.1114 38.2361 27.9361 38.3448C35.7609 38.4535 39.4558 34.7585 39.5645 29.4333C39.6732 24.1082 37.1736 14.6533 35.9782 14.6533C35.0218 14.6533 33.1164 17.6238 32.2832 19.1091C31.6674 18.457 29.9358 17.1311 27.9361 17.0442Z" stroke="#AA6FFF"/>
<path d="M26.6658 34.251H23.6992C23.782 33.6439 23.8096 33.023 23.8096 32.2089V24.744C23.8096 23.9989 23.782 23.378 23.6992 22.7295C24.3477 22.7571 24.8445 22.7709 25.7276 22.7709H28.7494C31.4814 22.7709 32.9854 24.0817 32.9854 26.4826C32.9854 28.9387 31.4124 30.4013 28.7356 30.4013H26.5555V32.1675C26.5555 32.9816 26.5969 33.6577 26.6658 34.251ZM26.5555 28.0556H28.6114C29.5773 28.0556 30.143 27.5175 30.143 26.5654C30.143 25.6133 29.6049 25.1166 28.6114 25.1166H26.5555V28.0556Z" fill="#AA6FFF"/>
</svg>
