<svg width="238" height="90" viewBox="0 0 238 90" fill="none" xmlns="http://www.w3.org/2000/svg">
<rect width="237.763" height="89.5281" rx="44.764" fill="#7D22FF" fill-opacity="0.28"/>
<path d="M101.666 46.2686V43.6186H109.066C109.95 43.6186 110.65 43.3852 111.166 42.9186C111.683 42.4352 111.941 41.7686 111.941 40.9186C111.941 40.0352 111.683 39.3602 111.166 38.8936C110.65 38.4269 109.95 38.1936 109.066 38.1936H102.066V51.5186H98.7415V35.3436H108.766C109.666 35.3436 110.508 35.4519 111.291 35.6686C112.091 35.8852 112.783 36.2186 113.366 36.6686C113.966 37.1186 114.433 37.6936 114.766 38.3936C115.1 39.0936 115.266 39.9352 115.266 40.9186C115.266 41.8852 115.1 42.7102 114.766 43.3936C114.433 44.0769 113.966 44.6352 113.366 45.0686C112.783 45.4852 112.091 45.7936 111.291 45.9936C110.508 46.1769 109.666 46.2686 108.766 46.2686H101.666ZM117.221 39.0936H120.471V51.5186H117.221V39.0936ZM125.246 41.7686C124.313 41.7686 123.504 41.9519 122.821 42.3186C122.138 42.6686 121.588 43.1019 121.171 43.6186C120.754 44.1352 120.463 44.6352 120.296 45.1186L120.271 43.7436C120.288 43.5436 120.354 43.2519 120.471 42.8686C120.588 42.4686 120.763 42.0436 120.996 41.5936C121.229 41.1269 121.538 40.6852 121.921 40.2686C122.304 39.8352 122.771 39.4852 123.321 39.2186C123.871 38.9519 124.513 38.8186 125.246 38.8186V41.7686ZM133.83 51.8186C132.263 51.8186 130.88 51.5686 129.68 51.0686C128.497 50.5686 127.572 49.8436 126.905 48.8936C126.238 47.9269 125.905 46.7436 125.905 45.3436C125.905 43.9436 126.238 42.7602 126.905 41.7936C127.572 40.8102 128.497 40.0686 129.68 39.5686C130.88 39.0686 132.263 38.8186 133.83 38.8186C135.397 38.8186 136.763 39.0686 137.93 39.5686C139.113 40.0686 140.038 40.8102 140.705 41.7936C141.372 42.7602 141.705 43.9436 141.705 45.3436C141.705 46.7436 141.372 47.9269 140.705 48.8936C140.038 49.8436 139.113 50.5686 137.93 51.0686C136.763 51.5686 135.397 51.8186 133.83 51.8186ZM133.83 49.3186C134.697 49.3186 135.472 49.1686 136.155 48.8686C136.855 48.5519 137.405 48.1019 137.805 47.5186C138.205 46.9186 138.405 46.1936 138.405 45.3436C138.405 44.4936 138.205 43.7686 137.805 43.1686C137.405 42.5519 136.863 42.0852 136.18 41.7686C135.497 41.4519 134.713 41.2936 133.83 41.2936C132.963 41.2936 132.18 41.4519 131.48 41.7686C130.78 42.0852 130.222 42.5436 129.805 43.1436C129.405 43.7436 129.205 44.4769 129.205 45.3436C129.205 46.1936 129.405 46.9186 129.805 47.5186C130.205 48.1019 130.755 48.5519 131.455 48.8686C132.155 49.1686 132.947 49.3186 133.83 49.3186ZM143.608 39.0936H146.858V56.5186H143.608V39.0936ZM147.083 33.6436V36.4936H143.308V33.6436H147.083ZM160.622 47.3936H163.772C163.639 48.2436 163.28 49.0019 162.697 49.6686C162.13 50.3352 161.355 50.8602 160.372 51.2436C159.389 51.6269 158.189 51.8186 156.772 51.8186C155.189 51.8186 153.789 51.5686 152.572 51.0686C151.355 50.5519 150.405 49.8102 149.722 48.8436C149.039 47.8769 148.697 46.7102 148.697 45.3436C148.697 43.9769 149.03 42.8102 149.697 41.8436C150.364 40.8602 151.289 40.1102 152.472 39.5936C153.672 39.0769 155.072 38.8186 156.672 38.8186C158.305 38.8186 159.664 39.0769 160.747 39.5936C161.83 40.1102 162.63 40.8936 163.147 41.9436C163.68 42.9769 163.905 44.3019 163.822 45.9186H151.972C152.055 46.5519 152.289 47.1269 152.672 47.6436C153.072 48.1602 153.605 48.5686 154.272 48.8686C154.955 49.1686 155.764 49.3186 156.697 49.3186C157.73 49.3186 158.589 49.1436 159.272 48.7936C159.972 48.4269 160.422 47.9602 160.622 47.3936ZM156.522 41.2936C155.322 41.2936 154.347 41.5602 153.597 42.0936C152.847 42.6102 152.364 43.2519 152.147 44.0186H160.597C160.514 43.1852 160.114 42.5269 159.397 42.0436C158.697 41.5436 157.739 41.2936 156.522 41.2936ZM180.24 46.6186C180.157 47.7019 179.807 48.6352 179.19 49.4186C178.59 50.2019 177.757 50.8019 176.69 51.2186C175.624 51.6186 174.357 51.8186 172.89 51.8186C171.357 51.8186 169.982 51.5769 168.765 51.0936C167.565 50.5936 166.615 49.8686 165.915 48.9186C165.232 47.9519 164.89 46.7602 164.89 45.3436C164.89 43.9269 165.232 42.7352 165.915 41.7686C166.615 40.8019 167.565 40.0686 168.765 39.5686C169.982 39.0686 171.357 38.8186 172.89 38.8186C174.357 38.8186 175.615 39.0269 176.665 39.4436C177.715 39.8436 178.54 40.4269 179.14 41.1936C179.757 41.9602 180.115 42.8852 180.215 43.9686H177.24C176.957 43.1352 176.432 42.4852 175.665 42.0186C174.899 41.5519 173.974 41.3186 172.89 41.3186C172.024 41.3186 171.232 41.4686 170.515 41.7686C169.815 42.0686 169.249 42.5186 168.815 43.1186C168.399 43.7019 168.19 44.4436 168.19 45.3436C168.19 46.2269 168.399 46.9686 168.815 47.5686C169.232 48.1519 169.799 48.5936 170.515 48.8936C171.232 49.1769 172.024 49.3186 172.89 49.3186C174.057 49.3186 175.007 49.0852 175.74 48.6186C176.49 48.1519 176.999 47.4852 177.265 46.6186H180.24ZM181.004 39.0936H190.654V41.6186H181.004V39.0936ZM184.204 35.6936H187.454V51.5186H184.204V35.6936ZM191.469 47.3936H194.469C194.652 47.9602 195.027 48.4269 195.594 48.7936C196.177 49.1436 196.936 49.3186 197.869 49.3186C198.502 49.3186 198.994 49.2602 199.344 49.1436C199.694 49.0269 199.936 48.8602 200.069 48.6436C200.202 48.4102 200.269 48.1519 200.269 47.8686C200.269 47.5186 200.161 47.2519 199.944 47.0686C199.727 46.8686 199.394 46.7102 198.944 46.5936C198.494 46.4769 197.919 46.3686 197.219 46.2686C196.519 46.1519 195.844 46.0102 195.194 45.8436C194.544 45.6769 193.969 45.4602 193.469 45.1936C192.969 44.9102 192.569 44.5602 192.269 44.1436C191.986 43.7102 191.844 43.1852 191.844 42.5686C191.844 41.9686 191.986 41.4352 192.269 40.9686C192.569 40.5019 192.977 40.1102 193.494 39.7936C194.027 39.4769 194.644 39.2352 195.344 39.0686C196.061 38.9019 196.827 38.8186 197.644 38.8186C198.877 38.8186 199.902 39.0019 200.719 39.3686C201.536 39.7186 202.144 40.2186 202.544 40.8686C202.961 41.5019 203.169 42.2352 203.169 43.0686H200.294C200.161 42.4519 199.894 42.0102 199.494 41.7436C199.094 41.4602 198.477 41.3186 197.644 41.3186C196.827 41.3186 196.211 41.4436 195.794 41.6936C195.377 41.9436 195.169 42.2852 195.169 42.7186C195.169 43.0686 195.294 43.3436 195.544 43.5436C195.811 43.7269 196.194 43.8769 196.694 43.9936C197.211 44.1102 197.852 44.2352 198.619 44.3686C199.269 44.5019 199.886 44.6519 200.469 44.8186C201.069 44.9852 201.602 45.2019 202.069 45.4686C202.536 45.7186 202.902 46.0602 203.169 46.4936C203.452 46.9102 203.594 47.4436 203.594 48.0936C203.594 48.8936 203.361 49.5686 202.894 50.1186C202.444 50.6686 201.794 51.0936 200.944 51.3936C200.094 51.6769 199.077 51.8186 197.894 51.8186C196.844 51.8186 195.936 51.7102 195.169 51.4936C194.419 51.2602 193.794 50.9686 193.294 50.6186C192.794 50.2519 192.402 49.8686 192.119 49.4686C191.852 49.0519 191.669 48.6602 191.569 48.2936C191.469 47.9269 191.436 47.6269 191.469 47.3936Z" fill="#705498"/>
<circle cx="50.2678" cy="44.7636" r="29.3535" fill="#AC72FF"/>
<path d="M39.6355 44.7443L46.7541 51.9238L60.6355 37.9238" stroke="#452671" stroke-width="4" stroke-linecap="round"/>
</svg>
