<svg width="364" height="345" viewBox="0 0 364 345" fill="none" xmlns="http://www.w3.org/2000/svg">
<mask id="mask0_1791_22748" style="mask-type:alpha" maskUnits="userSpaceOnUse" x="0" y="0" width="364" height="345">
<rect width="364" height="345" rx="44" fill="#7D22FF"/>
<rect x="0.5" y="0.5" width="363" height="344" rx="43.5" stroke="#014F59" stroke-opacity="0.09"/>
</mask>
<g mask="url(#mask0_1791_22748)">
<path d="M39.4 100H60.2L97.8 217.2C98.4667 219.467 98.8 221.8 98.8 224.2H99.2C99.2 223.133 99.2 222 99.2 220.8C99.3333 219.467 99.5333 218.267 99.8 217.2L127.8 100H152.6L180.2 217.2C180.467 218.267 180.6 219.4 180.6 220.6C180.733 221.8 180.8 222.933 180.8 224H181.2C181.2 221.867 181.533 219.667 182.2 217.4L220.2 100H241L195.2 240H167.2L140.6 127.2C140.467 126.933 140.4 126.6 140.4 126.2C140.4 125.667 140.4 125.267 140.4 125H140C140 125.267 140 125.667 140 126.2C140.133 126.6 140.133 126.933 140 127.2L113 240H85.2L39.4 100ZM213.614 240L266.414 100H295.014L347.814 240H326.814L313.814 206.6H247.414L234.814 240H213.614ZM253.614 189.2C262.014 189.2 269.214 189.2 275.214 189.2C281.214 189.2 286.347 189.467 290.614 190C294.881 190.4 298.947 191.667 302.814 193.8C306.814 195.933 310.281 199.533 313.214 204.6L280.614 117.6L253.614 189.2ZM320.65 100H341.45L386.05 223.4C386.317 224.333 386.517 225.4 386.65 226.6C386.783 227.8 386.85 228.933 386.85 230H387.25C387.25 228.933 387.317 227.8 387.45 226.6C387.717 225.4 387.983 224.333 388.25 223.4L432.85 100H453.85L403.25 240H371.25L320.65 100ZM464.242 100H569.442V118.4H483.842V163.8H566.642V180.2H483.842V221.6H569.442V240H464.242V100Z" fill="#7D22FF"/>
<path d="M45.4 100H66.2L103.8 217.2C104.467 219.467 104.8 221.8 104.8 224.2H105.2C105.2 223.133 105.2 222 105.2 220.8C105.333 219.467 105.533 218.267 105.8 217.2L133.8 100H158.6L186.2 217.2C186.467 218.267 186.6 219.4 186.6 220.6C186.733 221.8 186.8 222.933 186.8 224H187.2C187.2 221.867 187.533 219.667 188.2 217.4L226.2 100H247L201.2 240H173.2L146.6 127.2C146.467 126.933 146.4 126.6 146.4 126.2C146.4 125.667 146.4 125.267 146.4 125H146C146 125.267 146 125.667 146 126.2C146.133 126.6 146.133 126.933 146 127.2L119 240H91.2L45.4 100ZM215.614 240L268.414 100H297.014L349.814 240H328.814L315.814 206.6H249.414L236.814 240H215.614ZM255.614 189.2C264.014 189.2 271.214 189.2 277.214 189.2C283.214 189.2 288.347 189.467 292.614 190C296.881 190.4 300.947 191.667 304.814 193.8C308.814 195.933 312.281 199.533 315.214 204.6L282.614 117.6L255.614 189.2ZM318.65 100H339.45L384.05 223.4C384.317 224.333 384.517 225.4 384.65 226.6C384.783 227.8 384.85 228.933 384.85 230H385.25C385.25 228.933 385.317 227.8 385.45 226.6C385.717 225.4 385.983 224.333 386.25 223.4L430.85 100H451.85L401.25 240H369.25L318.65 100ZM458.242 100H563.442V118.4H477.842V163.8H560.642V180.2H477.842V221.6H563.442V240H458.242V100Z" fill="#FF7D7D"/>
</g>
</svg>
