<svg width="293" height="325" viewBox="0 0 293 325" fill="none" xmlns="http://www.w3.org/2000/svg">
<g filter="url(#filter0_di_1086_8864)">
<path d="M317.159 63.2845C259.559 -8.3155 198.492 39.4512 175.159 72.2845C147.825 34.7844 78.8533 -6.73756 31.6587 67.2842C-15.8408 141.784 106.825 247.118 175.159 283.284C246.492 239.784 374.759 134.884 317.159 63.2845Z" stroke="#FF5959" stroke-opacity="0.33" stroke-width="22" shape-rendering="crispEdges"/>
</g>
<path fill-rule="evenodd" clip-rule="evenodd" d="M175.307 70.1054C174.893 69.7833 173.91 68.8084 172.434 67.2628C170.971 65.7316 169.053 63.6726 166.786 61.2143C163.457 57.6029 159.381 53.1348 154.898 48.221L154.895 48.217L154.876 48.1962C153.262 46.428 151.597 44.6021 149.894 42.7379C137.013 28.6319 122.03 12.3228 111.854 2.14648L111.147 2.85358C121.304 13.0106 136.27 29.3015 149.156 43.4122C150.865 45.2841 152.538 47.1176 154.158 48.8932C154.992 49.8075 155.812 50.7065 156.616 51.5875C143.753 40.4828 127.866 31.1758 110.964 27.4748C97.5969 24.5481 83.5871 25.1266 69.9464 31.1058C66.2655 32.7193 62.6144 34.7247 59.0124 37.1581L95.3323 4.87374L94.6679 4.12633L4.66794 84.1263L5.3323 84.8737L42.7847 51.5828C38.8185 56.0522 34.9592 61.1774 31.2372 67.015C19.2701 85.7848 18.0332 106.49 23.9512 127.513C29.8653 148.522 42.9273 169.866 59.5864 189.978C92.9046 230.202 140.709 265.616 174.925 283.726L175.393 282.842C141.276 264.785 93.58 229.449 60.3566 189.34C43.745 169.285 30.7757 148.066 24.9138 127.242C19.0556 106.432 20.2978 86.0328 32.0804 67.5526C43.8377 49.1121 56.927 37.9045 70.3479 32.0217C83.7672 26.1395 97.5577 25.5632 110.75 28.4517C137.158 34.2338 161.138 53.8973 174.755 72.5786L175.563 71.9896C175.287 71.6118 175.008 71.2335 174.724 70.8549L175.307 70.1054Z" fill="url(#paint0_linear_1086_8864)"/>
<g filter="url(#filter1_i_1086_8864)">
<rect x="171" y="66" width="9" height="9" rx="4.5" fill="#7D22FF"/>
</g>
<g filter="url(#filter2_i_1086_8864)">
<rect x="90" width="9" height="9" rx="4.5" fill="#7D22FF"/>
</g>
<g filter="url(#filter3_i_1086_8864)">
<rect y="81" width="9" height="9" rx="4.5" fill="#7D22FF"/>
</g>
<path d="M183.011 310.474L183.011 317.41L168.935 317.41C168.935 317.41 169.034 313.097 168.935 310.252L164.944 302.198L175.528 283L186.985 301.653L183.011 310.474Z" fill="#FFFCF4"/>
<path d="M183.011 310.474L183.011 317.41L168.935 317.41C168.935 317.41 169.034 313.097 168.935 310.252M183.011 310.474C180.134 309.683 173.292 308.533 168.935 310.252M183.011 310.474L186.985 301.653L175.528 283M168.935 310.252L164.944 302.198L175.528 283M175.528 283L176.11 299.692" stroke="#014F59"/>
<defs>
<filter id="filter0_di_1086_8864" x="6.00293" y="15" width="340.616" height="288.934" filterUnits="userSpaceOnUse" color-interpolation-filters="sRGB">
<feFlood flood-opacity="0" result="BackgroundImageFix"/>
<feColorMatrix in="SourceAlpha" type="matrix" values="0 0 0 0 0 0 0 0 0 0 0 0 0 0 0 0 0 0 127 0" result="hardAlpha"/>
<feOffset dy="4"/>
<feGaussianBlur stdDeviation="2"/>
<feComposite in2="hardAlpha" operator="out"/>
<feColorMatrix type="matrix" values="0 0 0 0 1 0 0 0 0 0.320085 0 0 0 0 0.401674 0 0 0 0.2 0"/>
<feBlend mode="normal" in2="BackgroundImageFix" result="effect1_dropShadow_1086_8864"/>
<feBlend mode="normal" in="SourceGraphic" in2="effect1_dropShadow_1086_8864" result="shape"/>
<feColorMatrix in="SourceAlpha" type="matrix" values="0 0 0 0 0 0 0 0 0 0 0 0 0 0 0 0 0 0 127 0" result="hardAlpha"/>
<feOffset/>
<feGaussianBlur stdDeviation="2"/>
<feComposite in2="hardAlpha" operator="arithmetic" k2="-1" k3="1"/>
<feColorMatrix type="matrix" values="0 0 0 0 0.917647 0 0 0 0 0.262745 0 0 0 0 0.207843 0 0 0 0.4 0"/>
<feBlend mode="normal" in2="shape" result="effect2_innerShadow_1086_8864"/>
</filter>
<filter id="filter1_i_1086_8864" x="171" y="66" width="9" height="13" filterUnits="userSpaceOnUse" color-interpolation-filters="sRGB">
<feFlood flood-opacity="0" result="BackgroundImageFix"/>
<feBlend mode="normal" in="SourceGraphic" in2="BackgroundImageFix" result="shape"/>
<feColorMatrix in="SourceAlpha" type="matrix" values="0 0 0 0 0 0 0 0 0 0 0 0 0 0 0 0 0 0 127 0" result="hardAlpha"/>
<feOffset dy="4"/>
<feGaussianBlur stdDeviation="2"/>
<feComposite in2="hardAlpha" operator="arithmetic" k2="-1" k3="1"/>
<feColorMatrix type="matrix" values="0 0 0 0 0 0 0 0 0 0 0 0 0 0 0 0 0 0 0.25 0"/>
<feBlend mode="normal" in2="shape" result="effect1_innerShadow_1086_8864"/>
</filter>
<filter id="filter2_i_1086_8864" x="90" y="0" width="9" height="13" filterUnits="userSpaceOnUse" color-interpolation-filters="sRGB">
<feFlood flood-opacity="0" result="BackgroundImageFix"/>
<feBlend mode="normal" in="SourceGraphic" in2="BackgroundImageFix" result="shape"/>
<feColorMatrix in="SourceAlpha" type="matrix" values="0 0 0 0 0 0 0 0 0 0 0 0 0 0 0 0 0 0 127 0" result="hardAlpha"/>
<feOffset dy="4"/>
<feGaussianBlur stdDeviation="2"/>
<feComposite in2="hardAlpha" operator="arithmetic" k2="-1" k3="1"/>
<feColorMatrix type="matrix" values="0 0 0 0 0 0 0 0 0 0 0 0 0 0 0 0 0 0 0.25 0"/>
<feBlend mode="normal" in2="shape" result="effect1_innerShadow_1086_8864"/>
</filter>
<filter id="filter3_i_1086_8864" x="0" y="81" width="9" height="13" filterUnits="userSpaceOnUse" color-interpolation-filters="sRGB">
<feFlood flood-opacity="0" result="BackgroundImageFix"/>
<feBlend mode="normal" in="SourceGraphic" in2="BackgroundImageFix" result="shape"/>
<feColorMatrix in="SourceAlpha" type="matrix" values="0 0 0 0 0 0 0 0 0 0 0 0 0 0 0 0 0 0 127 0" result="hardAlpha"/>
<feOffset dy="4"/>
<feGaussianBlur stdDeviation="2"/>
<feComposite in2="hardAlpha" operator="arithmetic" k2="-1" k3="1"/>
<feColorMatrix type="matrix" values="0 0 0 0 0 0 0 0 0 0 0 0 0 0 0 0 0 0 0.25 0"/>
<feBlend mode="normal" in2="shape" result="effect1_innerShadow_1086_8864"/>
</filter>
<linearGradient id="paint0_linear_1086_8864" x1="90.1154" y1="2.14648" x2="90.1154" y2="283.726" gradientUnits="userSpaceOnUse">
<stop stop-color="#7D22FF"/>
<stop offset="1" stop-color="#E1FF26"/>
</linearGradient>
</defs>
</svg>
