<svg width="15" height="21" viewBox="0 0 15 21" fill="none" xmlns="http://www.w3.org/2000/svg">
<path d="M14.5 8.25C14.5 10.8426 13.0908 13.1067 10.9942 14.317C10.7877 14.4362 10.7029 14.6469 10.6685 14.7412C10.6231 14.8658 10.5922 15.0088 10.5695 15.1491C10.5234 15.433 10.4986 15.7854 10.4855 16.1384C10.4521 17.0379 9.75015 17.75 8.9065 17.75H8.90323H8.89995H8.89668H8.89341H8.89014H8.88686H8.88359H8.88032H8.87705H8.87379H8.87052H8.86725H8.86398H8.86071H8.85745H8.85418H8.85092H8.84766H8.84439H8.84113H8.83787H8.83461H8.83135H8.82809H8.82483H8.82157H8.81832H8.81506H8.8118H8.80855H8.8053H8.80204H8.79879H8.79554H8.79229H8.78904H8.78579H8.78254H8.7793H8.77605H8.77281H8.76956H8.76632H8.76308H8.75983H8.75659H8.75335H8.75012H8.74688H8.74364H8.74041H8.73717H8.73394H8.7307H8.72747H8.72424H8.72101H8.71778H8.71456H8.71133H8.70811H8.70488H8.70166H8.69844H8.69522H8.692H8.68878H8.68556H8.68234H8.67913H8.67591H8.6727H8.66949H8.66628H8.66307H8.65986H8.65666H8.65345H8.65025H8.64704H8.64384H8.64064H8.63744H8.63424H8.63105H8.62785H8.62466H8.62146H8.61827H8.61508H8.61189H8.60871H8.60552H8.60234H8.59915H8.59597H8.59279H8.58961H8.58643H8.58326H8.58008H8.57691H8.57374H8.57057H8.5674H8.56423H8.56106H8.5579H8.55474H8.55157H8.54842H8.54526H8.5421H8.53894H8.53579H8.53264H8.52949H8.52634H8.52319H8.52005H8.5169H8.51376H8.51062H8.50748H8.50434H8.5012H8.49807H8.49494H8.49181H8.48868H8.48555H8.48242H8.4793H8.47618H8.47305H8.46994H8.46682H8.4637H8.46059H8.45748H8.45437H8.45126H8.44815H8.44505H8.44195H8.43884H8.43574H8.43265H8.42955H8.42646H8.42337H8.42028H8.41719H8.4141H8.41102H8.40794H8.40485H8.40178H8.3987H8.39563H8.39255H8.38948H8.38641H8.38335H8.38028H8.37722H8.37416H8.3711H8.36804H8.36499H8.36194H8.35889H8.35584H8.35279H8.34975H8.34671H8.34367H8.34063H8.33759H8.33456H8.33153H8.3285H8.32547H8.32245H8.31942H8.3164H8.31339H8.31037H8.30736H8.30434H8.30134H8.29833H8.29532H8.29232H8.28932H8.28632H8.28333H8.28033H8.27734H8.27435H8.27137H8.26838H8.2654H8.26242H8.25944H8.25647H8.2535H8.25052H8.24756H8.24459H8.24163H8.23867H8.23571H8.23275H8.2298H8.22685H8.2239H8.22096H8.21801H8.21507H8.21213H8.2092H8.20626H8.20333H8.20041H8.19748H8.19456H8.19164H8.18872H8.1858H8.18289H8.17998H8.17707H8.17417H8.17126H8.16836H8.16547H8.16257H8.15968H8.15679H8.1539H8.15102H8.14814H8.14526H8.14239H8.13951H8.13664H8.13377H8.13091H8.12805H8.12519H8.12233H8.11948H8.11663H8.11378H8.11093H8.10809H8.10525H8.10242H8.09958H8.09675H8.09392H8.0911H8.08827H8.08545H8.08264H8.07982H8.07701H8.0742H8.0714H8.0686H8.0658H8.063H8.06021H8.05742H8.05463H8.05185H8.04907H8.04629H8.04351H8.04074H8.03797H8.0352H8.03244H8.02968H8.02692H8.02417H8.02142H8.01867H8.01593H8.01319H8.01045H8.00771H8.00498H8.00225H7.99953H7.9968H7.99408H7.99137H7.98865H7.98594H7.98324H7.98054H7.97783H7.97514H7.97244H7.96975H7.96707H7.96438H7.9617H7.95903H7.95635H7.95368H7.95101H7.94835H7.94569H7.94303H7.94038H7.93773H7.93508H7.93244H7.9298H7.92716H7.92453H7.9219H7.91927H7.91665H7.91403H7.91141H7.9088H7.90619H7.90358H7.90098H7.89838H7.89578H7.89319H7.8906H7.88802H7.88544H7.88286H7.88029H7.87771H7.87515H7.87258H7.87002H7.86747H7.86492H7.86237H7.85982H7.85728H7.85474H7.85221H7.84968H7.84715H7.84463H7.84211H7.83959H7.83708H7.83457H7.83206H7.82956H7.82707H7.82457H7.82208H7.8196H7.81711H7.81464H7.81216H7.80969H7.80722H7.80476H7.8023H7.79984H7.79739H7.79495H7.7925H7.79006H7.78762H7.78519H7.78276H7.78034H7.77792H7.7755H7.77309H7.77068H7.76828H7.76588H7.76348H7.76109H7.7587H7.75631H7.75393H7.75155H7.74918H7.74681H7.74445H7.74209H7.73973H7.73738H7.73503H7.73269H7.73035H7.72801H7.72568H7.72335H7.72103H7.71871H7.71639H7.71408H7.71177H7.70947H7.70717H7.70488H7.70259H7.7003H7.69802H7.69574H7.69347H7.6912H7.68894H7.68668H7.68442H7.68217H7.67992H7.67768H7.67544H7.6732H7.67097H7.66875H7.66652H7.66431H7.66209H7.65989H7.65768H7.65548H7.65329H7.6511H7.64891H7.64673H7.64455H7.64238H7.64021H7.63804H7.63588H7.63373H7.63158H7.62943H7.62729H7.62515H7.62302H7.62089H7.61877H7.61665H7.61453H7.61242H7.61032H7.60822H7.60612H7.60403H7.60194H7.59986H7.59778H7.59571H7.59364H7.59158H7.58952H7.58746H7.58541H7.58337H7.58133H7.57929H7.57726H7.57523H7.57321H7.5712H7.56918H7.56718H7.56518H7.56318H7.56118H7.5592H7.55721H7.55524H7.55326H7.55129H7.54933H7.54737H7.54542H7.54347H7.54152H7.53958H7.53765H7.53572H7.53379H7.53187H7.52996H7.52805H7.52614H7.52424H7.52235H7.52046H7.51857H7.51669H7.51482H7.51295H7.51108H7.50922H7.50737H7.50552H7.50367H7.50183H7.5H7.49817H7.49633H7.49448H7.49263H7.49078H7.48892H7.48705H7.48518H7.48331H7.48143H7.47954H7.47765H7.47576H7.47386H7.47195H7.47004H7.46813H7.46621H7.46428H7.46235H7.46042H7.45848H7.45653H7.45458H7.45263H7.45067H7.44871H7.44674H7.44476H7.44279H7.4408H7.43882H7.43682H7.43482H7.43282H7.43082H7.4288H7.42679H7.42477H7.42274H7.42071H7.41867H7.41663H7.41459H7.41254H7.41048H7.40842H7.40636H7.40429H7.40222H7.40014H7.39806H7.39597H7.39388H7.39178H7.38968H7.38758H7.38547H7.38335H7.38123H7.37911H7.37698H7.37485H7.37271H7.37057H7.36842H7.36627H7.36412H7.36196H7.35979H7.35762H7.35545H7.35327H7.35109H7.3489H7.34671H7.34452H7.34232H7.34011H7.33791H7.33569H7.33348H7.33125H7.32903H7.3268H7.32456H7.32232H7.32008H7.31783H7.31558H7.31332H7.31106H7.3088H7.30653H7.30426H7.30198H7.2997H7.29741H7.29512H7.29283H7.29053H7.28823H7.28592H7.28361H7.28129H7.27897H7.27665H7.27432H7.27199H7.26965H7.26731H7.26497H7.26262H7.26027H7.25791H7.25555H7.25319H7.25082H7.24845H7.24607H7.24369H7.2413H7.23891H7.23652H7.23412H7.23172H7.22932H7.22691H7.2245H7.22208H7.21966H7.21724H7.21481H7.21238H7.20994H7.2075H7.20505H7.20261H7.20016H7.1977H7.19524H7.19278H7.19031H7.18784H7.18536H7.18289H7.1804H7.17792H7.17543H7.17293H7.17044H7.16794H7.16543H7.16292H7.16041H7.15789H7.15537H7.15285H7.15032H7.14779H7.14526H7.14272H7.14018H7.13763H7.13508H7.13253H7.12998H7.12742H7.12485H7.12229H7.11971H7.11714H7.11456H7.11198H7.1094H7.10681H7.10422H7.10162H7.09902H7.09642H7.09381H7.0912H7.08859H7.08597H7.08335H7.08073H7.0781H7.07547H7.07284H7.0702H7.06756H7.06492H7.06227H7.05962H7.05697H7.05431H7.05165H7.04899H7.04632H7.04365H7.04097H7.0383H7.03562H7.03293H7.03025H7.02756H7.02486H7.02217H7.01947H7.01676H7.01406H7.01135H7.00863H7.00592H7.0032H7.00047H6.99775H6.99502H6.99229H6.98955H6.98681H6.98407H6.98133H6.97858H6.97583H6.97308H6.97032H6.96756H6.9648H6.96203H6.95926H6.95649H6.95371H6.95093H6.94815H6.94537H6.94258H6.93979H6.937H6.9342H6.9314H6.9286H6.9258H6.92299H6.92018H6.91736H6.91455H6.91173H6.9089H6.90608H6.90325H6.90042H6.89758H6.89475H6.89191H6.88907H6.88622H6.88337H6.88052H6.87767H6.87481H6.87195H6.86909H6.86623H6.86336H6.86049H6.85761H6.85474H6.85186H6.84898H6.8461H6.84321H6.84032H6.83743H6.83453H6.83164H6.82874H6.82583H6.82293H6.82002H6.81711H6.8142H6.81128H6.80836H6.80544H6.80252H6.79959H6.79667H6.79374H6.7908H6.78787H6.78493H6.78199H6.77904H6.7761H6.77315H6.7702H6.76725H6.76429H6.76133H6.75837H6.75541H6.75244H6.74948H6.74651H6.74353H6.74056H6.73758H6.7346H6.73162H6.72863H6.72565H6.72266H6.71967H6.71667H6.71368H6.71068H6.70768H6.70468H6.70167H6.69867H6.69566H6.69264H6.68963H6.68661H6.6836H6.68058H6.67755H6.67453H6.6715H6.66847H6.66544H6.66241H6.65937H6.65633H6.65329H6.65025H6.64721H6.64416H6.64111H6.63806H6.63501H6.63196H6.6289H6.62584H6.62278H6.61972H6.61665H6.61359H6.61052H6.60745H6.60437H6.6013H6.59822H6.59515H6.59206H6.58898H6.5859H6.58281H6.57972H6.57663H6.57354H6.57045H6.56735H6.56426H6.56116H6.55806H6.55495H6.55185H6.54874H6.54563H6.54252H6.53941H6.5363H6.53318H6.53006H6.52695H6.52382H6.5207H6.51758H6.51445H6.51132H6.50819H6.50506H6.50193H6.4988H6.49566H6.49252H6.48938H6.48624H6.4831H6.47996H6.47681H6.47366H6.47051H6.46736H6.46421H6.46106H6.4579H6.45474H6.45159H6.44843H6.44526H6.4421H6.43894H6.43577H6.4326H6.42943H6.42626H6.42309H6.41992H6.41674H6.41357H6.41039H6.40721H6.40403H6.40085H6.39766H6.39448H6.39129H6.38811H6.38492H6.38173H6.37854H6.37534H6.37215H6.36895H6.36576H6.36256H6.35936H6.35616H6.35296H6.34975H6.34655H6.34334H6.34014H6.33693H6.33372H6.33051H6.3273H6.32409H6.32087H6.31766H6.31444H6.31122H6.308H6.30478H6.30156H6.29834H6.29512H6.29189H6.28867H6.28544H6.28222H6.27899H6.27576H6.27253H6.2693H6.26606H6.26283H6.25959H6.25636H6.25312H6.24988H6.24665H6.24341H6.24017H6.23692H6.23368H6.23044H6.22719H6.22395H6.2207H6.21746H6.21421H6.21096H6.20771H6.20446H6.20121H6.19796H6.1947H6.19145H6.1882H6.18494H6.18168H6.17843H6.17517H6.17191H6.16865H6.16539H6.16213H6.15887H6.15561H6.15234H6.14908H6.14582H6.14255H6.13929H6.13602H6.13275H6.12948H6.12622H6.12295H6.11968H6.11641H6.11314H6.10986H6.10659H6.10332H6.10005H6.09677H6.0935C5.24985 17.75 4.54792 17.0379 4.5145 16.1384C4.50138 15.7854 4.4766 15.433 4.43054 15.1491C4.40778 15.0088 4.37686 14.8658 4.33148 14.7412C4.29714 14.6469 4.21233 14.4362 4.0058 14.317C1.90919 13.1067 0.5 10.8426 0.5 8.25C0.5 4.38401 3.63401 1.25 7.5 1.25C11.366 1.25 14.5 4.38401 14.5 8.25Z" stroke="#E1FF26"/>
<path d="M7.5 17.75V11.75M7.5 11.75L4 8.75M7.5 11.75L11 8.75M3.5 20.25H11.5" stroke="#E1FF26"/>
</svg>
