<svg width="19" height="17" viewBox="0 0 19 17" fill="none" xmlns="http://www.w3.org/2000/svg">
<path d="M9.5 2.5V15.5M12 4.5H16.5M12 7.5H16.5M12 10.5H16.5" stroke="#E1FF26"/>
<path d="M11.5607 1.14645L11.2071 0.792893L11.5607 1.14645C11.6544 1.05268 11.7816 1 11.9142 1H18C18.2761 1 18.5 1.22386 18.5 1.5V13.5C18.5 13.7761 18.2761 14 18 14H11.9142C11.5164 14 11.1349 14.158 10.8536 14.4393L9.85355 15.4393C9.65829 15.6346 9.34171 15.6346 9.14645 15.4393L8.14645 14.4393C7.86514 14.158 7.48361 14 7.08579 14H1C0.723858 14 0.5 13.7761 0.5 13.5V1.5C0.5 1.22386 0.723858 1 1 1H7.08579C7.21839 1 7.34557 1.05268 7.43934 1.14645L8.43934 2.14645L8.79289 1.79289L8.43934 2.14645C9.02513 2.73223 9.97487 2.73223 10.5607 2.14645L11.5607 1.14645Z" stroke="#E1FF26"/>
</svg>
