<svg width="25" height="19" viewBox="0 0 25 19" fill="none" xmlns="http://www.w3.org/2000/svg">
<path d="M19 1.5V16.5C19 17.3284 18.3284 18 17.5 18H7.5C6.67157 18 6 17.3284 6 16.5V1.5C6 1.22386 6.22386 1 6.5 1H8.34699C8.62779 1 8.95053 1.27928 9.02927 1.73352C9.13873 2.36499 9.41034 3.0625 9.97468 3.60487C10.5481 4.15593 11.3751 4.5 12.5 4.5C13.6249 4.5 14.4519 4.15593 15.0253 3.60487C15.5897 3.0625 15.8613 2.36499 15.9707 1.73353C16.0495 1.27928 16.3722 1 16.653 1H18.5C18.7761 1 19 1.22386 19 1.5Z" stroke="#E1FF26"/>
<path d="M6 9H4.53518C4.20083 9 3.8886 8.8329 3.70313 8.5547L1.58174 5.37261C1.26503 4.89755 1.4097 4.25418 1.8993 3.96042L6 1.5" stroke="#E1FF26"/>
<path d="M19.5 9H20.9648C21.2992 9 21.6114 8.8329 21.7969 8.5547L23.8938 5.40929C24.2195 4.92068 24.0561 4.25789 23.5406 3.9767L19 1.5" stroke="#E1FF26"/>
</svg>
