<svg width="19" height="19" viewBox="0 0 19 19" fill="none" xmlns="http://www.w3.org/2000/svg">
<circle cx="9.5" cy="9.5" r="9" stroke="#E1FF26"/>
<path d="M5 17V14.2361C5 14.0808 5.03615 13.9277 5.10557 13.7889L7.25 9.5M13.7795 17.5V14.2256C13.7795 14.0771 13.7464 13.9304 13.6826 13.7962L11.6397 9.5M7.25 9.5L8.58299 6.83401C8.95561 6.08878 10.0227 6.09934 10.3805 6.8518L11.6397 9.5M7.25 9.5H11.6397" stroke="#E1FF26"/>
<path d="M9.5 18.5V14.5C9.5 13.9477 9.05228 13.5 8.5 13.5H6C5.44772 13.5 5 13.9477 5 14.5V17" stroke="#E1FF26"/>
<path d="M9.5 18.5V14.5C9.5 13.9477 9.94772 13.5 10.5 13.5H12.5C13.0523 13.5 13.5 13.9477 13.5 14.5V17.5" stroke="#E1FF26"/>
</svg>
