<svg width="25" height="25" viewBox="0 0 25 25" fill="none" xmlns="http://www.w3.org/2000/svg">
<path d="M6.28906 2.97375L3.28906 6.97375V20.9738C3.28906 21.5042 3.49978 22.0129 3.87485 22.388C4.24992 22.763 4.75863 22.9738 5.28906 22.9738H19.2891C19.8195 22.9738 20.3282 22.763 20.7033 22.388C21.0783 22.0129 21.2891 21.5042 21.2891 20.9738V6.97375L18.2891 2.97375H6.28906Z" stroke="#014F59" stroke-width="2" stroke-linecap="round" stroke-linejoin="round"/>
<path d="M3.28906 6.97375H21.2891" stroke="#014F59" stroke-width="2" stroke-linecap="round" stroke-linejoin="round"/>
<path d="M16.2891 10.9738C16.2891 12.0346 15.8676 13.052 15.1175 13.8022C14.3673 14.5523 13.3499 14.9738 12.2891 14.9738C11.2282 14.9738 10.2108 14.5523 9.46064 13.8022C8.71049 13.052 8.28906 12.0346 8.28906 10.9738" stroke="#014F59" stroke-width="2" stroke-linecap="round" stroke-linejoin="round"/>
</svg>
