<svg width="25" height="25" viewBox="0 0 25 25" fill="none" xmlns="http://www.w3.org/2000/svg">
<path d="M6.95117 2.65808L3.95117 6.65808V20.6581C3.95117 21.1885 4.16189 21.6972 4.53696 22.0723C4.91203 22.4474 5.42074 22.6581 5.95117 22.6581H19.9512C20.4816 22.6581 20.9903 22.4474 21.3654 22.0723C21.7405 21.6972 21.9512 21.1885 21.9512 20.6581V6.65808L18.9512 2.65808H6.95117Z" stroke="#014F59" stroke-width="2" stroke-linecap="round" stroke-linejoin="round"/>
<path d="M3.95117 6.65808H21.9512" stroke="#014F59" stroke-width="2" stroke-linecap="round" stroke-linejoin="round"/>
<path d="M16.9512 10.6581C16.9512 11.7189 16.5297 12.7364 15.7796 13.4865C15.0295 14.2367 14.012 14.6581 12.9512 14.6581C11.8903 14.6581 10.8729 14.2367 10.1227 13.4865C9.3726 12.7364 8.95117 11.7189 8.95117 10.6581" stroke="#014F59" stroke-width="2" stroke-linecap="round" stroke-linejoin="round"/>
</svg>
