<svg width="276" height="91" viewBox="0 0 276 91" fill="none" xmlns="http://www.w3.org/2000/svg">
<g opacity="0.2">
<rect y="0.714844" width="275.923" height="89.5281" rx="44.764" fill="#00FB87" fill-opacity="0.26"/>
<path d="M97.7165 48.6184H101.091C101.158 49.185 101.416 49.7017 101.866 50.1684C102.333 50.6184 102.941 50.9767 103.691 51.2434C104.441 51.4934 105.283 51.6184 106.216 51.6184C107.066 51.6184 107.766 51.5267 108.316 51.3434C108.866 51.16 109.275 50.9017 109.541 50.5684C109.808 50.235 109.941 49.835 109.941 49.3684C109.941 48.9184 109.775 48.5767 109.441 48.3434C109.108 48.0934 108.583 47.8934 107.866 47.7434C107.15 47.5767 106.208 47.41 105.041 47.2434C104.125 47.11 103.258 46.9267 102.441 46.6934C101.625 46.4434 100.9 46.1267 100.266 45.7434C99.6498 45.36 99.1581 44.8934 98.7915 44.3434C98.4415 43.7767 98.2665 43.11 98.2665 42.3434C98.2665 41.3934 98.5331 40.56 99.0665 39.8434C99.6165 39.1267 100.425 38.5684 101.491 38.1684C102.558 37.7684 103.866 37.5684 105.416 37.5684C107.75 37.5684 109.541 38.0684 110.791 39.0684C112.058 40.0517 112.675 41.41 112.641 43.1434H109.391C109.325 42.16 108.908 41.4517 108.141 41.0184C107.391 40.585 106.441 40.3684 105.291 40.3684C104.225 40.3684 103.341 40.5267 102.641 40.8434C101.958 41.16 101.616 41.7017 101.616 42.4684C101.616 42.7684 101.7 43.035 101.866 43.2684C102.033 43.485 102.316 43.6767 102.716 43.8434C103.116 44.01 103.658 44.1684 104.341 44.3184C105.025 44.4684 105.875 44.6184 106.891 44.7684C107.841 44.9017 108.7 45.085 109.466 45.3184C110.25 45.535 110.916 45.8267 111.466 46.1934C112.033 46.5434 112.466 46.9934 112.766 47.5434C113.066 48.0934 113.216 48.7684 113.216 49.5684C113.216 50.5517 112.958 51.41 112.441 52.1434C111.941 52.86 111.158 53.4184 110.091 53.8184C109.041 54.2184 107.675 54.4184 105.991 54.4184C104.791 54.4184 103.733 54.2934 102.816 54.0434C101.9 53.7767 101.108 53.4267 100.441 52.9934C99.7748 52.56 99.2331 52.085 98.8165 51.5684C98.3998 51.0517 98.0998 50.535 97.9165 50.0184C97.7498 49.5017 97.6831 49.035 97.7165 48.6184ZM126.325 54.0684V47.2434C126.325 46.56 126.208 45.9934 125.975 45.5434C125.742 45.0934 125.367 44.7517 124.85 44.5184C124.35 44.285 123.675 44.1684 122.825 44.1684C122.008 44.1684 121.267 44.3267 120.6 44.6434C119.933 44.9434 119.392 45.3434 118.975 45.8434C118.558 46.3267 118.325 46.8434 118.275 47.3934L118.25 46.0184C118.333 45.4684 118.525 44.9184 118.825 44.3684C119.125 43.8184 119.525 43.3184 120.025 42.8684C120.525 42.4184 121.125 42.06 121.825 41.7934C122.542 41.51 123.342 41.3684 124.225 41.3684C124.992 41.3684 125.7 41.4684 126.35 41.6684C127 41.8517 127.567 42.1434 128.05 42.5434C128.533 42.9434 128.908 43.4434 129.175 44.0434C129.442 44.6267 129.575 45.3184 129.575 46.1184V54.0684H126.325ZM115.2 54.0684V36.6434H118.45V54.0684H115.2ZM139.104 54.3684C137.537 54.3684 136.154 54.1184 134.954 53.6184C133.77 53.1184 132.845 52.3934 132.179 51.4434C131.512 50.4767 131.179 49.2934 131.179 47.8934C131.179 46.4934 131.512 45.31 132.179 44.3434C132.845 43.36 133.77 42.6184 134.954 42.1184C136.154 41.6184 137.537 41.3684 139.104 41.3684C140.67 41.3684 142.037 41.6184 143.204 42.1184C144.387 42.6184 145.312 43.36 145.979 44.3434C146.645 45.31 146.979 46.4934 146.979 47.8934C146.979 49.2934 146.645 50.4767 145.979 51.4434C145.312 52.3934 144.387 53.1184 143.204 53.6184C142.037 54.1184 140.67 54.3684 139.104 54.3684ZM139.104 51.8684C139.97 51.8684 140.745 51.7184 141.429 51.4184C142.129 51.1017 142.679 50.6517 143.079 50.0684C143.479 49.4684 143.679 48.7434 143.679 47.8934C143.679 47.0434 143.479 46.3184 143.079 45.7184C142.679 45.1017 142.137 44.635 141.454 44.3184C140.77 44.0017 139.987 43.8434 139.104 43.8434C138.237 43.8434 137.454 44.0017 136.754 44.3184C136.054 44.635 135.495 45.0934 135.079 45.6934C134.679 46.2934 134.479 47.0267 134.479 47.8934C134.479 48.7434 134.679 49.4684 135.079 50.0684C135.479 50.6517 136.029 51.1017 136.729 51.4184C137.429 51.7184 138.22 51.8684 139.104 51.8684ZM164.343 51.8184L163.318 51.7934L167.368 41.6434H170.943L165.468 54.0684H162.418L158.418 44.0434H159.518L155.393 54.0684H152.343L147.018 41.6434H150.593L154.493 51.8184H153.468L157.118 41.6434H160.843L164.343 51.8184ZM186.288 49.1684C186.205 50.2517 185.855 51.185 185.238 51.9684C184.638 52.7517 183.805 53.3517 182.738 53.7684C181.672 54.1684 180.405 54.3684 178.938 54.3684C177.405 54.3684 176.03 54.1267 174.813 53.6434C173.613 53.1434 172.663 52.4184 171.963 51.4684C171.28 50.5017 170.938 49.31 170.938 47.8934C170.938 46.4767 171.28 45.285 171.963 44.3184C172.663 43.3517 173.613 42.6184 174.813 42.1184C176.03 41.6184 177.405 41.3684 178.938 41.3684C180.405 41.3684 181.663 41.5767 182.713 41.9934C183.763 42.3934 184.588 42.9767 185.188 43.7434C185.805 44.51 186.163 45.435 186.263 46.5184H183.288C183.005 45.685 182.48 45.035 181.713 44.5684C180.947 44.1017 180.022 43.8684 178.938 43.8684C178.072 43.8684 177.28 44.0184 176.563 44.3184C175.863 44.6184 175.297 45.0684 174.863 45.6684C174.447 46.2517 174.238 46.9934 174.238 47.8934C174.238 48.7767 174.447 49.5184 174.863 50.1184C175.28 50.7017 175.847 51.1434 176.563 51.4434C177.28 51.7267 178.072 51.8684 178.938 51.8684C180.105 51.8684 181.055 51.635 181.788 51.1684C182.538 50.7017 183.047 50.035 183.313 49.1684H186.288ZM193.977 54.3434C192.744 54.3434 191.619 54.0767 190.602 53.5434C189.602 52.9934 188.802 52.235 188.202 51.2684C187.619 50.285 187.327 49.1517 187.327 47.8684C187.327 46.5517 187.627 45.41 188.227 44.4434C188.827 43.4767 189.635 42.7267 190.652 42.1934C191.685 41.6434 192.852 41.3684 194.152 41.3684C195.585 41.3684 196.735 41.66 197.602 42.2434C198.485 42.81 199.127 43.585 199.527 44.5684C199.927 45.5517 200.127 46.6517 200.127 47.8684C200.127 48.6017 200.01 49.3517 199.777 50.1184C199.544 50.8684 199.185 51.5684 198.702 52.2184C198.219 52.8517 197.585 53.3684 196.802 53.7684C196.019 54.1517 195.077 54.3434 193.977 54.3434ZM195.027 51.8434C196.01 51.8434 196.86 51.6767 197.577 51.3434C198.294 51.01 198.844 50.5434 199.227 49.9434C199.61 49.3434 199.802 48.6517 199.802 47.8684C199.802 47.0184 199.602 46.3017 199.202 45.7184C198.819 45.1184 198.269 44.6684 197.552 44.3684C196.852 44.0517 196.01 43.8934 195.027 43.8934C193.644 43.8934 192.569 44.26 191.802 44.9934C191.035 45.71 190.652 46.6684 190.652 47.8684C190.652 48.6684 190.835 49.3684 191.202 49.9684C191.569 50.5517 192.077 51.01 192.727 51.3434C193.394 51.6767 194.16 51.8434 195.027 51.8434ZM199.802 41.6434H203.052V54.0684H200.027C200.027 54.0684 200.002 53.91 199.952 53.5934C199.919 53.26 199.885 52.8434 199.852 52.3434C199.819 51.8434 199.802 51.3517 199.802 50.8684V41.6434ZM204.743 49.9434H207.743C207.927 50.51 208.302 50.9767 208.868 51.3434C209.452 51.6934 210.21 51.8684 211.143 51.8684C211.777 51.8684 212.268 51.81 212.618 51.6934C212.968 51.5767 213.21 51.41 213.343 51.1934C213.477 50.96 213.543 50.7017 213.543 50.4184C213.543 50.0684 213.435 49.8017 213.218 49.6184C213.002 49.4184 212.668 49.26 212.218 49.1434C211.768 49.0267 211.193 48.9184 210.493 48.8184C209.793 48.7017 209.118 48.56 208.468 48.3934C207.818 48.2267 207.243 48.01 206.743 47.7434C206.243 47.46 205.843 47.11 205.543 46.6934C205.26 46.26 205.118 45.735 205.118 45.1184C205.118 44.5184 205.26 43.985 205.543 43.5184C205.843 43.0517 206.252 42.66 206.768 42.3434C207.302 42.0267 207.918 41.785 208.618 41.6184C209.335 41.4517 210.102 41.3684 210.918 41.3684C212.152 41.3684 213.177 41.5517 213.993 41.9184C214.81 42.2684 215.418 42.7684 215.818 43.4184C216.235 44.0517 216.443 44.785 216.443 45.6184H213.568C213.435 45.0017 213.168 44.56 212.768 44.2934C212.368 44.01 211.752 43.8684 210.918 43.8684C210.102 43.8684 209.485 43.9934 209.068 44.2434C208.652 44.4934 208.443 44.835 208.443 45.2684C208.443 45.6184 208.568 45.8934 208.818 46.0934C209.085 46.2767 209.468 46.4267 209.968 46.5434C210.485 46.66 211.127 46.785 211.893 46.9184C212.543 47.0517 213.16 47.2017 213.743 47.3684C214.343 47.535 214.877 47.7517 215.343 48.0184C215.81 48.2684 216.177 48.61 216.443 49.0434C216.727 49.46 216.868 49.9934 216.868 50.6434C216.868 51.4434 216.635 52.1184 216.168 52.6684C215.718 53.2184 215.068 53.6434 214.218 53.9434C213.368 54.2267 212.352 54.3684 211.168 54.3684C210.118 54.3684 209.21 54.26 208.443 54.0434C207.693 53.81 207.068 53.5184 206.568 53.1684C206.068 52.8017 205.677 52.4184 205.393 52.0184C205.127 51.6017 204.943 51.21 204.843 50.8434C204.743 50.4767 204.71 50.1767 204.743 49.9434ZM229.93 49.9434H233.08C232.946 50.7934 232.588 51.5517 232.005 52.2184C231.438 52.885 230.663 53.41 229.68 53.7934C228.696 54.1767 227.496 54.3684 226.08 54.3684C224.496 54.3684 223.096 54.1184 221.88 53.6184C220.663 53.1017 219.713 52.36 219.03 51.3934C218.346 50.4267 218.005 49.26 218.005 47.8934C218.005 46.5267 218.338 45.36 219.005 44.3934C219.671 43.41 220.596 42.66 221.78 42.1434C222.98 41.6267 224.38 41.3684 225.98 41.3684C227.613 41.3684 228.971 41.6267 230.055 42.1434C231.138 42.66 231.938 43.4434 232.455 44.4934C232.988 45.5267 233.213 46.8517 233.13 48.4684H221.28C221.363 49.1017 221.596 49.6767 221.98 50.1934C222.38 50.71 222.913 51.1184 223.58 51.4184C224.263 51.7184 225.071 51.8684 226.005 51.8684C227.038 51.8684 227.896 51.6934 228.58 51.3434C229.28 50.9767 229.73 50.51 229.93 49.9434ZM225.83 43.8434C224.63 43.8434 223.655 44.11 222.905 44.6434C222.155 45.16 221.671 45.8017 221.455 46.5684H229.905C229.821 45.735 229.421 45.0767 228.705 44.5934C228.005 44.0934 227.046 43.8434 225.83 43.8434Z" fill="#014F59"/>
<circle cx="50.2678" cy="45.4785" r="29.3535" fill="#00B963"/>
<path d="M39.6355 45.2572L46.7541 51.9238L60.6355 38.9238" stroke="#014F59" stroke-width="4" stroke-linecap="round"/>
</g>
</svg>
