<svg width="379" height="185" viewBox="0 0 379 185" fill="none" xmlns="http://www.w3.org/2000/svg">
<path d="M143.163 118.097C140.022 120.092 132.365 126.389 126.867 135.612C124.638 139.351 122.106 141.889 119.521 143.483M157.02 100.027C156.522 99.5061 155.722 98.7905 154.667 98.0049M137.953 135.612C140.318 136.351 144.471 138.494 142.165 141.155C139.283 144.481 139.837 119.538 146.821 109.782C149 106.739 151.038 104.473 152.956 102.808M176.864 128.961C176.945 128.067 177.044 126.118 177.058 123.306M173.754 105.502C175.468 108.037 176.693 111.181 176.864 114.771C177.023 118.124 177.069 121.004 177.058 123.306M173.754 105.502C174.31 104.675 176.509 103.086 180.855 103.352C186.287 103.685 189.169 107.676 190.943 112.886C192.362 117.055 193.234 127.704 193.492 132.508M173.754 105.502C172.63 103.841 171.297 102.442 169.913 101.351M177.058 123.306L179.413 128.961M119.55 114.771C119.92 119.907 119.639 130.335 115.559 130.956C110.46 131.732 123.098 106.678 139.726 103.907M139.726 103.907C139.726 104.973 139.726 106.259 139.726 106.769C141.482 106.552 145.359 105.541 146.821 103.233C148.085 101.289 150.28 101.728 150.28 103.233M139.726 103.907L142.955 92.7992M145.012 108.674C146.468 107.814 149.561 105.61 150.28 103.67C150.483 103.022 151.635 102.388 152.164 103.233M152.956 102.808C155.356 100.725 157.568 99.5843 159.632 99.0424M152.956 102.808L154.667 98.0049M119.521 143.483C114.133 146.805 108.513 146.03 104.917 143.483C103.812 142.7 102.85 141.397 102.129 139.686C99.898 134.549 100.749 128.028 101.454 125.409C102.588 120.188 105.141 114.384 109.684 108.674C121.181 94.2229 134.786 91.4142 142.955 92.7992M119.521 143.483C122.246 145.931 129.748 150.805 137.953 150.713C146.157 150.621 150.277 148.454 151.311 147.381M159.632 99.0424C161.207 98.629 162.695 98.5644 164.115 98.6965C165.84 98.857 167.929 99.7873 169.913 101.351M159.632 99.0424C159.735 98.6934 159.88 97.6895 159.632 96.4657C159.323 94.9361 159.499 92.5141 160.735 90.5824C161.97 88.6506 165.383 84.8167 165.971 83.1105C166.559 81.4043 167.56 81.0513 168.148 81.522C168.736 81.9926 169.383 85.1109 167.677 87.1112M167.677 87.1112C165.971 89.1116 166.324 88.6409 166.677 89.8764C167.03 91.1119 167.089 93.8772 165.971 95.1715M167.677 87.1112H169.913M176.09 86.1699C176.228 85.8757 176.42 85.1344 176.09 84.5226C175.946 84.255 175.55 84.0954 175.011 84.0615M171.619 91.0531C171.384 90.5628 171.137 89.3352 172.031 88.3467C173.149 87.1112 175.502 85.5816 176.796 86.5817C177.502 87.2877 177.091 88.0526 176.796 88.3467M169.913 101.351C174.796 99.3491 178.738 93.0427 179.15 92.0533C179.562 91.0638 179.385 89.2292 178.032 88.6506C176.679 88.072 175.384 89.4057 174.325 90.5824C173.478 91.5237 173.776 92.6148 174.031 93.0427C174.365 93.3725 175.29 93.8343 176.326 93.0427C177.361 92.2512 177.895 92.0533 178.032 92.0533M171.511 89.0112C170.917 89.2997 170.473 88.891 170.325 88.6506C169.952 88.0002 169.607 86.417 171.207 85.2874C171.343 85.1918 171.48 85.1022 171.619 85.0184M171.619 85.0184C172.034 83.8344 172.874 81.0361 172.909 79.3149C172.953 77.1633 175.192 77.5583 175.324 78.4366C175.455 79.3149 175.696 82.4415 175.011 84.0615M171.619 85.0184C172.815 84.2968 174.112 84.005 175.011 84.0615M142.955 92.7992L143.742 90.0924C143.99 89.2382 144.772 88.6506 145.662 88.6506H155.164C156.546 88.6506 157.512 90.0195 157.048 91.3217L154.667 98.0049M144.161 71.5137H147.266C148.37 71.5137 149.266 72.4091 149.266 73.5137V84.1699C149.266 85.2745 148.37 86.1699 147.266 86.1699H132.125V89.8764L128.418 86.1699H124.719C123.615 86.1699 122.719 85.2745 122.719 84.1699V80.098V73.5137C122.719 72.4091 123.615 71.5137 124.719 71.5137H135.648M135.905 75.8431C136.686 74.9597 138.617 73.5381 140.096 74.9186C141.945 76.6443 140.157 78.5345 139.726 78.9247C139.381 79.2368 137.035 81.6433 135.905 82.8075L131.591 78.9247C130.79 78.2468 129.557 76.4964 131.036 74.9186C132.516 73.3408 134.899 74.8775 135.905 75.8431ZM145.609 93.0985C145.636 93.6311 146.048 94.7022 147.478 94.7263C148.908 94.7504 149.266 93.6512 149.266 93.0985C149.293 92.4454 148.973 91.1332 147.478 91.109C145.609 91.0789 145.609 92.5258 145.609 93.0985Z" stroke="#014F59" stroke-width="0.5"/>
<path d="M157.332 117.781C156.166 118.082 153.901 119.305 154.172 121.788C154.443 124.271 157.031 126.923 158.291 127.939C155.902 131.964 150.921 142.261 150.109 151.245C149.177 161.548 150.335 169.049 158.291 170.085M160.605 170.206C160.393 170.209 160.186 170.209 159.982 170.206M166.812 128.56C167.105 129.804 167.412 132.308 167.136 135.084M159.646 159.766C160.074 158.313 160.667 156.335 161.331 154.16M161.331 154.16C162.912 148.987 164.903 142.696 166.079 139.677C166.665 138.17 166.986 136.587 167.136 135.084M161.331 154.16L168.11 157.791M195.31 157.791C194.331 157.699 193.186 157.603 191.924 157.512M158.291 170.085C156.373 167.257 159.307 160.556 166.812 158.186C168.651 157.605 171.38 157.281 174.483 157.13M158.291 170.085C158.824 170.155 159.387 170.195 159.982 170.206M164.724 163.039C163.143 163.697 159.979 166.052 159.982 170.206M168.449 164.562C166.38 165.089 162.411 166.955 163.088 170.206C163.539 170.883 164.329 170.77 165.571 170.77C166.564 170.77 188.218 170.77 198.921 170.77M198.921 170.77C201.329 170.45 206.156 168.547 206.201 163.49C206.246 158.434 205.392 153.709 204.96 151.978C202.176 151.339 195.569 151.109 191.416 155.308M198.921 170.77C202.029 170.77 205.533 170.77 209.291 170.77M182.895 139.112L191.924 157.512M191.924 157.512C188.463 157.261 184.123 157.044 179.918 157.025M169.596 145.549C169.673 147.705 171.014 151.571 175.463 152.479M179.918 157.025C179.436 156.07 178.473 153.855 178.473 152.636C177.339 152.723 176.341 152.659 175.463 152.479M179.918 157.025C178.05 157.016 176.208 157.047 174.483 157.13M175.463 152.479L174.483 157.13M167.136 135.084C168.3 132.909 172.486 128.56 179.918 128.56C189.207 128.56 194.506 132.337 197.464 137.979C199.832 142.493 201.616 146.099 202.212 147.338H209.291M209.291 147.338C210.809 145.317 215.665 141.274 222.948 141.274C228.292 141.274 233.017 144.112 236.007 146.664M209.291 147.338V170.77M238.522 149.181C237.947 148.479 237.091 147.59 236.007 146.664M236.007 146.664H260.324M258.647 150.019C259.206 149.954 260.492 148.968 261.163 145.549C261.734 142.64 264.483 129.565 266.373 120.613M267.273 116.357C266.712 115.848 265.699 113.856 266.129 109.953M267.273 116.357C267.01 117.597 266.705 119.041 266.373 120.613M267.273 116.357C268.307 114.587 271.235 111.064 274.679 111.134C278.984 111.222 279.072 116.357 284.343 116.357M266.129 109.953C264.823 107.956 261.519 102.54 265.207 97.738C267.86 94.2842 271.784 94.1295 274.679 95.3013M266.129 109.953C265.933 108.619 266.526 105.476 270.462 103.578C275.382 101.206 286.979 96.1105 289.615 94.617C292.25 93.1234 301.124 86.8007 304.023 91.9812M277.461 97.1618C276.782 96.4178 275.809 95.7586 274.679 95.3013M274.679 95.3013C276.319 95.1025 280.214 93.7384 282.674 89.8726C285.749 85.0405 291.723 80.1204 296.995 81.5261C302.266 82.9319 304.902 86.2245 304.023 91.9812M304.023 91.9812C304.463 92.9491 304.972 95.4554 303.496 97.738C301.651 100.591 297.258 104.896 292.602 105.511C291.02 106.214 289.615 106.341 289.615 108.147C289.615 108.624 289.468 109.26 289.233 109.953M284.343 116.357C284.753 116.168 285.767 115.615 286.54 114.912C286.704 114.763 286.9 114.522 287.114 114.216M284.343 116.357L283.768 120.613M265.842 170.77C275.893 168.872 278.984 158.694 279.335 153.394L280.245 146.664M266.373 120.613H283.768M283.768 120.613L280.245 146.664M282.059 109.953C282.91 111.318 285.114 114.08 287.114 114.216M287.114 114.216C287.455 113.727 287.839 113.073 288.201 112.36M284.343 108.674C284.924 109.667 286.508 111.795 288.201 112.36M288.201 112.36C288.599 111.58 288.971 110.731 289.233 109.953M286.54 106.917C286.842 107.536 287.804 109.009 289.233 109.953M280.245 146.664L306.923 139.951M306.923 139.951L312.633 138.018M306.923 139.951L309.295 156.732M312.633 138.018V136.525C315.24 137.226 320.734 138.893 321.858 139.951C322.093 140.172 322.264 140.451 322.386 140.778M312.633 138.018C312.633 138.958 312.633 141.396 312.633 143.63C312.633 148.243 318.031 150.019 318.031 153.706C318.031 156.656 314.485 159.383 312.712 160.378M316.851 165.342C311.087 165.342 312.282 169.208 313.6 171.141H323.973C324.224 171.141 325.085 171.141 326.52 171.141M316.851 165.342C316.449 165.125 315.933 164.806 315.4 164.418M316.851 165.342C317.126 165.342 317.4 165.381 317.672 165.452M322.386 169.735C321.634 168.44 319.751 165.998 317.672 165.452M309.295 156.732C308.03 157.505 293.598 165.313 286.54 169.12C284.636 170.145 280.161 170.77 277.49 170.77C275.151 170.77 235.856 170.77 209.291 170.77M309.295 156.732C311.415 157.91 312.764 159.439 312.712 160.378M312.712 160.378C312.706 160.489 312.68 160.593 312.633 160.686C312.633 161.504 313.156 162.341 313.863 163.089M313.863 163.089C314.666 162.045 316.623 159.862 318.031 159.473M313.863 163.089C314.328 163.58 314.872 164.033 315.4 164.418M315.4 164.418C315.933 163.701 317.327 162.109 318.638 161.476M317.672 165.452C317.953 164.797 318.735 163.408 319.609 163.089M322.386 140.778C322.996 142.415 322.386 145.267 322.386 148.122C322.386 151.549 323.22 155.37 327.657 159.807C329.294 161.445 329.86 163.494 329.879 165.452C329.744 167.348 328.883 171.141 326.52 171.141M322.386 140.778C322.706 140.206 323.623 139.061 324.727 139.061C326.106 139.061 329.624 139.933 329.624 144.027C329.624 145.269 329.327 146.294 328.901 147.114M326.52 149.545C327.163 149.251 328.204 148.457 328.901 147.114M328.901 147.114C328.659 148.936 328.548 152.925 330.038 154.304C331.49 155.703 334.386 159.544 334.345 163.715C334.345 170.291 329.128 171.406 326.52 171.141M127.387 143.488L136.132 154.672M148.279 170.206L136.132 154.672M136.132 154.672L132.296 170.77H141.201" stroke="#014F59" stroke-width="0.5"/>
<circle cx="165.537" cy="120.261" r="8.50182" stroke="#014F59" stroke-width="0.5"/>
<path d="M53.781 26.6853C55.5833 28.0871 63.1084 32.2727 66.3201 34.2511C67.6473 35.0032 70.2747 37.4429 71.4692 41.6699M53.781 26.6853C53.2688 27.5675 53.4253 28.5305 52.9508 29.7634M53.781 26.6853C52.7292 25.6358 52.4439 22.768 52.4327 21.4652V21.4652C52.4327 14.9082 57.7481 9.59277 64.3051 9.59277H64.7217C71.2786 9.59277 76.5941 14.9082 76.5941 21.4652V21.4652C76.5941 28.0222 71.2786 33.3376 64.7217 33.3376H64.5134M71.9081 43.7431C71.8021 43.0096 71.6525 42.3187 71.4692 41.6699M60.1962 39.8391C64.1234 40.6939 70.488 42.9527 77.0276 46.9711M114.01 53.6177C115.498 52.7141 116.949 50.6661 116.877 49.1912M71.3722 75.8932C73.0053 70.4583 74.7863 59.8181 68.8461 60.7367C64.2866 61.4418 69.31 70.4598 77.4115 77.28M119.827 70.6879C116.459 62.0712 109.707 58.4737 106.752 57.7521M119.827 70.6879C118.928 71.9798 117.55 73.6296 115.77 75.3449M119.827 70.6879C121.261 69.9583 123.086 68.851 124.835 67.4908M124.037 47.7236C127.405 46.4222 127.941 49.178 128.018 50.9386C131.117 50.9386 131.161 53.0473 130.795 54.8028M122.812 50.2496C123.936 47.9323 125.789 43.8611 126.716 41.1076M116.877 49.1912C116.845 48.5422 116.519 48.0042 115.77 47.7236C114.762 47.3455 113.767 47.888 112.726 49.0078M116.877 49.1912C117.902 47.3744 119.659 44.26 121.119 41.6699M106.752 57.7521C107.118 57.306 107.472 56.8392 107.809 56.3506C109.656 53.391 111.238 50.6091 112.726 49.0078M106.752 57.7521C105.83 58.8747 104.83 59.8653 103.819 60.7367M103.262 61.205C99.8403 64.0047 96.4447 65.4692 95.7145 66.0951C94.5679 63.9578 93.2683 61.9675 91.8566 60.1179M103.262 61.205C106.475 62.7246 113.476 67.6802 115.77 75.3449M103.262 61.205C103.448 61.0528 103.634 60.8968 103.819 60.7367M115.77 75.3449C111.08 79.8633 103.597 84.8371 94.7194 84.9259C88.8108 84.9849 82.5032 81.5665 77.4115 77.28M77.4115 77.28C77.3906 78.2205 77.331 79.3396 77.2244 80.6043M66.2656 115.702C73.6883 104.073 76.5105 89.0735 77.2244 80.6043M66.2656 115.702C67.7471 127.856 64.0734 155.621 64.7841 158C65.3526 159.904 67.6739 160.375 68.7635 160.373M66.2656 115.702C63.97 125.281 56.9577 146.747 47.2726 155.976C41.4961 161.48 39.0526 163.313 39.0526 163.313L22.8405 144.732L40.778 128.573C39.4647 121.493 40.2308 108.94 40.778 103.548L47.1732 56.3506C47.9606 50.0516 50.0866 37.2064 52.9508 29.7634M77.2244 80.6043C81.4707 92.2641 89.5842 121.413 88.0675 144.732M69.5642 32.2626C70.9222 32.6766 73.5773 34.4711 73.5375 37.0546C73.5293 37.5892 73.4647 38.0804 73.3615 38.5274M71.4692 41.6699C72.0028 41.3035 72.9659 40.2403 73.3615 38.5274M73.3615 38.5274C74.6373 39.5135 77.1567 42.5829 77.0276 46.9711M77.0276 46.9711C78.351 47.7842 79.6815 48.6694 81.0004 49.6296M52.9508 29.7634L68.1221 39.3897M81.0004 49.6296C81.2985 49.1582 81.6314 48.6514 81.9941 48.1202M81.0004 49.6296C84.878 52.4525 88.6555 55.9236 91.8566 60.1179M98.1238 36.1706C94.1238 34.2128 88.3404 39.7981 84.2525 45.0316M91.2535 46.2228C94.093 43.568 100.47 39.1297 103.262 42.6148C106.752 46.971 96.866 48.4848 94.0598 53.6177M84.2525 45.0316C86.7533 46.8751 92.2637 51.4103 94.2993 54.8028C94.6198 55.417 94.4188 56.0653 94.0598 56.6238M84.2525 45.0316C83.4195 46.098 82.6569 47.1498 81.9941 48.1202M92.603 58.1146C92.603 58.1146 85.4401 50.2825 81.9941 48.1202M92.603 58.1146L91.8566 60.1179M92.603 58.1146C92.603 58.1146 93.514 57.4728 94.0598 56.6238M95.8474 42.6148L102.483 24.0481C103.585 20.9662 106.953 19.3356 110.054 20.3832L151.042 34.2304C154.204 35.2987 155.887 38.7425 154.786 41.8936L145.461 68.5867C144.355 71.7524 140.869 73.3972 137.722 72.2381L124.835 67.4908M124.835 67.4908C128.628 64.5414 132.067 60.4034 130.391 56.3506C130.506 55.935 130.673 55.3886 130.795 54.8028M103.819 60.7367L94.0598 56.6238M89.3098 153.304C89.6434 152.842 90.4184 151.672 90.8495 150.687C91.3884 149.455 91.9274 146.067 89.3098 145.22C86.6922 144.374 85.4604 146.067 82.8428 150.687C81.0631 153.827 78.2305 155.188 76.4908 155.621M84.1516 158C85.4445 155.485 88.8489 151.257 92.1239 154.474M84.1516 158C82.9183 158.326 81.8711 158.484 80.9852 158.516M84.1516 158C85.002 158.024 86.4677 158.152 88.0675 158.459M88.0675 158.252C89.4358 156.024 92.9523 152.449 96.0722 155.976M92.6083 159.9C93.7468 157.389 96.7844 153.544 99.8267 158.252M92.6083 159.9C92.8451 160.031 93.1559 160.195 93.5129 160.373M92.6083 159.9C91.2531 159.211 89.5989 158.753 88.0675 158.459M97.6467 161.881C97.7673 160.482 98.6368 157.849 101.151 158.516C104.293 159.351 102.652 161.242 106.045 161.659C108.759 161.993 110.94 162.695 111.691 163.004M97.6467 161.881C96.4581 161.726 94.7209 160.973 93.5129 160.373M97.6467 161.881V164.9M97.6467 161.881C98.882 162.157 101.916 162.708 104.169 162.708M97.6467 164.9C95.4123 164.792 92.8336 168.326 91.8235 170.106C91.669 170.396 90.5471 170.801 87.2953 170.106C86.4773 169.931 85.597 169.716 84.7104 169.483M97.6467 164.9C100.44 165.035 102.235 168.67 105.78 168.311C109.325 167.952 108.877 162.679 113.274 163.004C117.672 163.329 119.378 165.214 119.378 168.311C119.378 171.407 117.942 176.747 114.217 176.792C111.237 176.828 90.0284 176.807 79.7967 176.792H71.3722H66.2656C64.8041 176.49 62.3197 175.049 64.0734 171.699C65.8272 168.349 67.9309 162.752 68.7635 160.373M76.4908 155.621C76.1834 155.697 75.9102 155.745 75.6829 155.768C73.7507 158.409 70.2649 159.938 68.7635 160.373M76.4908 155.621C76.4878 156.794 77.4622 158.646 80.9852 158.516M80.9852 158.516L77.195 162.708L73.8658 166.192L78.0983 167.512C78.354 167.598 78.6661 167.7 79.0229 167.815M93.5129 160.373L84.7104 169.483M84.7104 169.483C82.5995 168.93 80.4525 168.275 79.0229 167.815M88.0675 158.459L79.0229 167.815M53.3996 21.4883H66.7119M149.632 39.8391L130.391 33.3376M130.795 54.8028L137.947 57.14C139.337 57.5943 140.729 56.4518 140.554 54.9998L139.656 47.5435C139.556 46.7147 139.862 45.8887 140.479 45.3259V45.3259C141.122 44.7385 140.489 43.6932 139.67 43.9915L134.505 45.8739C133.908 46.0916 133.241 45.9931 132.732 45.6121L126.716 41.1076M126.716 41.1076C127.137 39.8591 127.367 38.8815 127.252 38.4612C126.793 36.7772 124.65 35.3993 123.272 37.8489C122.845 38.6074 122.041 40.0341 121.119 41.6699M121.119 41.6699L117.713 38.6592C115.776 36.9475 112.726 38.3223 112.726 40.907V49.0078M74.9962 21.3685V21.3685C74.9962 22.757 73.8707 23.8826 72.4822 23.8826H69.226C67.8375 23.8826 66.7119 22.757 66.7119 21.3685V21.3685C66.7119 19.9801 67.8375 18.8545 69.226 18.8545H72.4822C73.8707 18.8545 74.9962 19.9801 74.9962 21.3685Z" stroke="#014F59" stroke-width="0.5"/>
<path d="M23.1679 145.753C19.6934 146.687 10.2437 134.627 5.95071 139.954C5.6816 140.287 5.41068 140.619 5.24802 141.055C4.43471 143.237 4.87646 147.057 5.24802 150.845C5.95071 158.009 5.24802 164.276 3.14107 169.691C0.714348 175.926 0.38885 181.734 1.96991 184.799H21.8796C23.6363 182.222 25.2291 177.069 17.5463 177.069M23.1679 145.753L27.6182 165.592M23.1679 145.753C23.1679 147.005 23.1678 145.148 23.1678 148.126C23.1678 150.028 22.4794 151.569 21.5284 152.934M17.5463 177.069C18.0816 176.779 18.7698 176.355 19.4798 175.837M17.5463 177.069C17.1789 177.069 16.8132 177.121 16.4519 177.216M10.168 182.925C10.7709 181.885 11.9207 180.292 13.3451 179.03M27.6182 165.592C24.7914 167.162 22.9942 169.2 23.0631 170.452M27.6182 165.592L37.8872 162.355M23.0631 170.452C23.0713 170.6 23.1057 170.738 23.1678 170.862C23.1678 171.952 22.4712 173.068 21.5284 174.065M23.0631 170.452C21.6873 169.68 19.5105 168.125 17.9316 166.185M21.5284 174.065C20.4588 172.674 17.8502 169.763 15.9729 169.245L10.8488 165.303M21.5284 174.065C20.9092 174.72 20.1837 175.324 19.4798 175.837M19.4798 175.837C18.7694 174.881 16.9115 172.758 15.1637 171.915M16.4519 177.216C16.0764 176.343 15.0343 174.49 13.869 174.065L12.0101 172.945M16.4519 177.216C15.3488 177.505 14.2869 178.195 13.3451 179.03M21.5284 152.934L12.0101 147.014C11.6312 148.488 11.1715 150.608 10.8038 152.934M21.5284 152.934C20.2297 154.8 18.4413 156.34 17.2481 158.031M10.8488 165.303C10.2526 163.734 10.086 161.523 10.168 159.132M10.8488 165.303C12.1657 168.77 12.6701 170.848 12.0101 172.945M9.46684 182.925C8.08492 182.925 5.95071 181.288 9.46684 177.069C10.79 175.481 11.612 174.21 12.0101 172.945M13.3451 179.03C13.675 176.025 15.0541 169.249 17.9316 166.185M17.9316 166.185C17.3227 165.437 16.8027 164.631 16.4519 163.791M17.2481 158.031C16.4905 159.105 15.9729 160.24 15.9729 161.558C15.9729 162.318 16.1496 163.068 16.4519 163.791M17.2481 158.031L10.8038 152.934M10.8038 152.934C10.4865 154.941 10.2376 157.101 10.168 159.132M16.4519 163.791L10.168 159.132" stroke="#014F59" stroke-width="0.5"/>
<path d="M266.963 40.4229C271.15 39.4978 279.466 36.8881 279.232 33.8501C278.966 30.3948 262.859 40.1204 264.25 59.286M271.345 73.286C269.884 72.6044 266.612 70.0435 265.21 65.2528C264.697 63.1738 264.388 61.1836 264.25 59.286M271.345 73.286C271.247 74.4058 270.556 76.6453 268.57 76.6453C268.922 77.844 269.26 80.525 267.791 81.6601C266.322 82.7953 264.285 81.4097 263.45 80.5751C263.367 81.3263 262.9 82.8954 261.698 83.1625C261.38 83.2332 261.086 83.2236 260.82 83.1625M271.345 73.286L350.794 48.621C354.471 47.4792 357.965 45.8123 361.167 43.6719L370.783 37.2421C373.249 35.5935 372.082 31.7482 369.116 31.7482H357.875C353.801 31.7482 349.751 32.3707 345.865 33.594L264.25 59.286M297.206 49.1244C297.206 42.3865 293.748 25.1536 280.644 23.9016C267.54 22.6496 257.274 37.2561 255.438 47.9398C254.466 53.5938 254.99 58.3127 255.86 61.8243M297.206 65.2528C297.049 68.9363 297.362 77.675 299.87 83.1625C303.003 90.0219 306.921 114.31 308.018 123.555M308.018 123.555C308.958 125.122 309.741 128.256 309.428 131.546M308.018 123.555C301.639 127.691 291.361 127.989 287.019 127.621M285.943 114.517C286.451 115.303 286.176 121.307 286.391 123.555C286.606 125.803 286.899 127.202 287.019 127.621M287.019 127.621C286.511 127.816 285.584 128.876 285.943 131.546C286.391 134.884 287.736 139.099 287.736 141.52M287.736 141.52V144.48M287.736 141.52C288.841 140.37 291.665 138.121 294.128 138.324C295.039 138.398 295.963 137.286 297.056 135.856M310.671 138.324C311.008 136.77 311.896 133.841 309.799 131.99C303.204 127.267 299.654 132.457 297.056 135.856M297.056 135.856C297.701 136.664 299.552 138.393 301.789 138.852M282.685 89.5585C280.809 86.119 276.876 79.8443 280.644 78.1012C283.791 76.6453 283.482 81.1593 279.343 93.3318M260.82 83.1625C260.083 82.9928 259.565 82.4253 259.36 82.0775C258.415 82.4113 256.306 82.6951 255.438 81.1593C255.116 80.5911 254.868 79.4712 254.784 78.1012M260.82 83.1625C258.602 91.2075 254.09 111.539 253.785 128.505M253.785 128.505C252.769 129.521 253.023 136.633 253.023 142.475M253.785 128.505C255.809 128.916 260.093 129.651 264.376 129.158M251.758 146.684C251.758 144.88 252.716 141.022 256.549 140.027M256.549 140.027C260.381 139.031 261.685 139.174 262.162 139.443M256.549 140.027C256.341 137.455 257.519 132.536 263.89 133.432M256.984 144.88C257.606 144.237 259.423 143.063 261.713 143.511M255.86 61.8243C256.634 64.9483 257.681 67.117 258.192 68.1386C255.313 70.1702 254.585 74.843 254.784 78.1012M255.86 61.8243L205.292 77.2535M254.784 78.1012L210.652 92.0648M199.824 78.9219L192.491 81.1593C188.981 82.2303 182.43 85.8971 184.802 92.4254C186.699 97.6481 193.058 97.4516 196.001 96.7005L205.292 93.7607M199.824 78.9219C197.759 80.2369 194.103 84.0526 196.001 88.7956C197.898 93.5386 202.985 94.0819 205.292 93.7607M199.824 78.9219L205.292 77.2535M205.292 93.7607L210.652 92.0648M205.292 77.2535C203.293 78.5734 199.769 82.3345 201.666 86.8193C203.563 91.3042 208.447 92.185 210.652 92.0648" stroke="#014F59" stroke-width="0.5"/>
<path d="M274.836 10.9325C275.399 8.94543 276.599 7.22584 278.201 6.00781M274.502 14.1737C274.844 19.063 278.918 22.9234 283.895 22.9234C289.095 22.9234 293.31 18.7079 293.31 13.5078C293.31 11.8339 292.873 10.262 292.108 8.89992" stroke="#014F59" stroke-width="0.5"/>
<path d="M285.317 13.4353L282.707 15.458L277.879 13.5006L272.789 14.414L270.179 9.19434L277.879 12.1957L287.926 11.4127L285.317 13.4353ZM285.317 13.4353H293.144" stroke="#014F59" stroke-width="0.5"/>
<path d="M280.101 5.38469C280.101 5.38469 290 8.37303 292.335 9.2135C292.335 7.19016 291.308 2.80729 287.199 1.46252C283.09 0.117761 280.444 2.02284 279.634 3.14348C277.642 3.29911 273.527 3.70377 273.004 4.07732C272.35 4.54424 273.004 6.03841 274.405 6.31857C275.525 6.54269 278.669 5.78937 280.101 5.38469Z" stroke="#014F59" stroke-width="0.5"/>
</svg>
