<svg width="305" height="426" viewBox="0 0 305 426" fill="none" xmlns="http://www.w3.org/2000/svg">
<rect width="303" height="426" rx="30" fill="#7D22FF" fill-opacity="0.34"/>
<path d="M32.55 46.25C32.55 44.7333 32.7667 43.4167 33.2 42.3C33.6333 41.1667 34.2333 40.2333 35 39.5C35.7667 38.75 36.675 38.2 37.725 37.85C38.775 37.4833 39.9083 37.3083 41.125 37.325C42.1417 37.3417 43.1 37.475 44 37.725C44.9 37.975 45.7083 38.3583 46.425 38.875C47.1583 39.375 47.7833 40.0083 48.3 40.775C48.8167 41.5417 49.2 42.4417 49.45 43.475L47.2 44.175C47 43.4583 46.6833 42.8167 46.25 42.25C45.8167 41.6833 45.3167 41.2083 44.75 40.825C44.2 40.4417 43.6083 40.15 42.975 39.95C42.3417 39.7333 41.725 39.625 41.125 39.625C40.3417 39.625 39.575 39.7667 38.825 40.05C38.0917 40.3333 37.4417 40.7583 36.875 41.325C36.3083 41.875 35.85 42.5667 35.5 43.4C35.1667 44.2167 35 45.1667 35 46.25C35 47.3 35.15 48.2417 35.45 49.075C35.7667 49.8917 36.1833 50.5833 36.7 51.15C37.2333 51.7167 37.8583 52.15 38.575 52.45C39.2917 52.7333 40.0583 52.875 40.875 52.875C41.575 52.875 42.1833 52.7 42.7 52.35C43.2333 52 43.675 51.575 44.025 51.075C44.3917 50.5583 44.6667 50.0167 44.85 49.45C45.05 48.8667 45.1667 48.3417 45.2 47.875H42.6V45.9H48C48.6 45.9 49.0333 46.0583 49.3 46.375C49.5667 46.675 49.7 47.0917 49.7 47.625V55H47.3V47.875L46.75 47.9C46.7167 49.1833 46.5417 50.2833 46.225 51.2C45.9083 52.1167 45.475 52.875 44.925 53.475C44.3917 54.0583 43.7583 54.4917 43.025 54.775C42.3083 55.0417 41.5167 55.175 40.65 55.175C39.4333 55.175 38.325 54.9917 37.325 54.625C36.3417 54.2583 35.4917 53.7083 34.775 52.975C34.075 52.2417 33.525 51.3167 33.125 50.2C32.7417 49.0833 32.55 47.7667 32.55 46.25ZM57.1617 55.15C56.2451 55.15 55.3701 55.025 54.5367 54.775C53.7034 54.5083 52.9701 54.1083 52.3367 53.575C51.7201 53.0417 51.2284 52.375 50.8617 51.575C50.4951 50.775 50.3117 49.8333 50.3117 48.75C50.3117 47.6667 50.4951 46.725 50.8617 45.925C51.2284 45.125 51.7201 44.4583 52.3367 43.925C52.9701 43.3917 53.7034 43 54.5367 42.75C55.3701 42.4833 56.2451 42.35 57.1617 42.35C58.0784 42.35 58.9367 42.4833 59.7367 42.75C60.5534 43.0167 61.2617 43.4167 61.8617 43.95C62.4617 44.4667 62.9367 45.125 63.2867 45.925C63.6367 46.725 63.8117 47.6667 63.8117 48.75C63.8117 48.9333 63.8117 49.0583 63.8117 49.125C63.8117 49.175 63.7951 49.2833 63.7617 49.45L52.8617 49.45C53.0451 50.7 53.5284 51.6333 54.3117 52.25C55.0951 52.8667 56.0617 53.1667 57.2117 53.15C58.1784 53.1333 59.0201 52.95 59.7367 52.6C60.4701 52.25 61.0117 51.6083 61.3617 50.675L63.6117 50.975C63.3784 51.725 63.0451 52.3667 62.6117 52.9C62.1951 53.4333 61.7034 53.8667 61.1367 54.2C60.5701 54.5167 59.9451 54.7583 59.2617 54.925C58.5951 55.075 57.8951 55.15 57.1617 55.15ZM57.2117 44.275C56.6617 44.275 56.1117 44.3833 55.5617 44.6C55.0117 44.8 54.5284 45.1167 54.1117 45.55C53.6951 45.9667 53.3617 46.5 53.1117 47.15C52.8784 47.8 52.7951 48.5667 52.8617 49.45C52.9617 49.1167 53.0701 48.85 53.1867 48.65C53.3201 48.45 53.4701 48.3 53.6367 48.2C53.8201 48.1 54.0201 48.0333 54.2367 48C54.4701 47.9667 54.7367 47.95 55.0367 47.95L61.4867 47.95C61.3034 46.6667 60.8284 45.7417 60.0617 45.175C59.3117 44.5917 58.3617 44.2917 57.2117 44.275ZM63.6475 44.7V42.4H64.1225C64.4058 42.4 64.6975 42.2833 64.9975 42.05C65.3141 41.8167 65.5975 41.5167 65.8475 41.15C66.0975 40.7833 66.3058 40.375 66.4725 39.925C66.6391 39.475 66.7225 39.0333 66.7225 38.6L69.1975 38.575C69.1641 39.275 68.9975 39.9417 68.6975 40.575C68.3975 41.1917 67.9558 41.6917 67.3725 42.075C67.1558 42.2083 66.8891 42.3083 66.5725 42.375C66.2725 42.425 65.9975 42.475 65.7475 42.525V42.575C65.9975 42.525 66.2725 42.4833 66.5725 42.45C66.8891 42.4167 67.1725 42.4 67.4225 42.4H71.8475V44.7H68.6725V51.35C68.6725 51.9 68.8058 52.2667 69.0725 52.45C69.3391 52.6167 69.6641 52.7 70.0475 52.7H72.4475V55H70.1725C69.3558 55 68.6891 54.925 68.1725 54.775C67.6558 54.6083 67.2558 54.3583 66.9725 54.025C66.6891 53.6917 66.4891 53.2667 66.3725 52.75C66.2725 52.2167 66.2225 51.5917 66.2225 50.875V44.7H63.6475ZM77.2344 55V37.5H84.7844C86.801 37.5 88.3677 37.9583 89.4844 38.875C90.6177 39.7917 91.1844 41.1833 91.1844 43.05C91.1844 43.7667 91.0344 44.4667 90.7344 45.15C90.451 45.8167 90.0344 46.4167 89.4844 46.95C88.9344 47.4833 88.2594 47.9167 87.4594 48.25C86.676 48.5667 85.7844 48.725 84.7844 48.725H79.6844V55H77.2344ZM79.6844 46.675H84.5344C85.0677 46.675 85.5844 46.5833 86.0844 46.4C86.601 46.2 87.051 45.9417 87.4344 45.625C87.8177 45.2917 88.126 44.9083 88.3594 44.475C88.5927 44.0417 88.7094 43.5833 88.7094 43.1C88.7094 42.5 88.5927 41.9833 88.3594 41.55C88.126 41.1 87.8177 40.7333 87.4344 40.45C87.051 40.1667 86.6094 39.9583 86.1094 39.825C85.6094 39.6917 85.0844 39.625 84.5344 39.625H79.6844V46.675ZM92.042 45.85C92.042 44.7167 92.3087 43.875 92.842 43.325C93.3753 42.775 94.217 42.5 95.367 42.5L100.392 42.5V44.8L96.167 44.825C95.817 44.825 95.5337 44.8417 95.317 44.875C95.1003 44.9083 94.9253 44.9917 94.792 45.125C94.6753 45.2417 94.592 45.425 94.542 45.675C94.5087 45.925 94.492 46.2667 94.492 46.7V55H92.042V45.85ZM106.787 55.15C105.87 55.15 104.987 55.025 104.137 54.775C103.304 54.5083 102.57 54.1083 101.937 53.575C101.32 53.0417 100.82 52.375 100.437 51.575C100.07 50.775 99.8869 49.8333 99.8869 48.75C99.8869 47.6667 100.07 46.725 100.437 45.925C100.82 45.125 101.32 44.4583 101.937 43.925C102.57 43.3917 103.304 43 104.137 42.75C104.987 42.4833 105.87 42.35 106.787 42.35C107.72 42.35 108.604 42.4833 109.437 42.75C110.27 43.0167 111.004 43.4167 111.637 43.95C112.27 44.4667 112.77 45.125 113.137 45.925C113.52 46.725 113.712 47.6667 113.712 48.75C113.712 49.8333 113.52 50.775 113.137 51.575C112.77 52.375 112.27 53.0417 111.637 53.575C111.004 54.1083 110.27 54.5083 109.437 54.775C108.604 55.025 107.72 55.15 106.787 55.15ZM106.787 44.425C106.22 44.425 105.662 44.5167 105.112 44.7C104.579 44.8833 104.104 45.1583 103.687 45.525C103.287 45.8917 102.962 46.35 102.712 46.9C102.462 47.4333 102.337 48.05 102.337 48.75C102.337 49.4833 102.454 50.125 102.687 50.675C102.92 51.2083 103.237 51.65 103.637 52C104.037 52.35 104.504 52.6167 105.037 52.8C105.587 52.9667 106.17 53.05 106.787 53.05C107.387 53.05 107.954 52.9667 108.487 52.8C109.037 52.6167 109.512 52.35 109.912 52C110.329 51.6333 110.654 51.1833 110.887 50.65C111.137 50.1 111.262 49.4667 111.262 48.75C111.262 48.05 111.137 47.4333 110.887 46.9C110.654 46.35 110.329 45.9 109.912 45.55C109.495 45.1833 109.02 44.9083 108.487 44.725C107.954 44.525 107.387 44.425 106.787 44.425ZM112.604 57.3H113.154C114.004 57.3 114.621 57.1 115.004 56.7C115.404 56.3167 115.604 55.6417 115.604 54.675V42.5H118.054V54.675C118.054 55.4583 117.971 56.1333 117.804 56.7C117.637 57.2833 117.362 57.7583 116.979 58.125C116.596 58.5083 116.087 58.7917 115.454 58.975C114.837 59.175 114.071 59.275 113.154 59.275H112.604V57.3ZM115.604 37.5H118.054V39.625H115.604V37.5ZM125.732 55.15C124.815 55.15 123.94 55.025 123.107 54.775C122.274 54.5083 121.54 54.1083 120.907 53.575C120.29 53.0417 119.799 52.375 119.432 51.575C119.065 50.775 118.882 49.8333 118.882 48.75C118.882 47.6667 119.065 46.725 119.432 45.925C119.799 45.125 120.29 44.4583 120.907 43.925C121.54 43.3917 122.274 43 123.107 42.75C123.94 42.4833 124.815 42.35 125.732 42.35C126.649 42.35 127.507 42.4833 128.307 42.75C129.124 43.0167 129.832 43.4167 130.432 43.95C131.032 44.4667 131.507 45.125 131.857 45.925C132.207 46.725 132.382 47.6667 132.382 48.75C132.382 48.9333 132.382 49.0583 132.382 49.125C132.382 49.175 132.365 49.2833 132.332 49.45H121.432C121.615 50.7 122.099 51.6333 122.882 52.25C123.665 52.8667 124.632 53.1667 125.782 53.15C126.749 53.1333 127.59 52.95 128.307 52.6C129.04 52.25 129.582 51.6083 129.932 50.675L132.182 50.975C131.949 51.725 131.615 52.3667 131.182 52.9C130.765 53.4333 130.274 53.8667 129.707 54.2C129.14 54.5167 128.515 54.7583 127.832 54.925C127.165 55.075 126.465 55.15 125.732 55.15ZM125.782 44.275C125.232 44.275 124.682 44.3833 124.132 44.6C123.582 44.8 123.099 45.1167 122.682 45.55C122.265 45.9667 121.932 46.5 121.682 47.15C121.449 47.8 121.365 48.5667 121.432 49.45C121.532 49.1167 121.64 48.85 121.757 48.65C121.89 48.45 122.04 48.3 122.207 48.2C122.39 48.1 122.59 48.0333 122.807 48C123.04 47.9667 123.307 47.95 123.607 47.95H130.057C129.874 46.6667 129.399 45.7417 128.632 45.175C127.882 44.5917 126.932 44.2917 125.782 44.275ZM139.733 42.35C140.45 42.35 141.15 42.4417 141.833 42.625C142.517 42.8083 143.142 43.0833 143.708 43.45C144.275 43.8167 144.767 44.275 145.183 44.825C145.6 45.375 145.892 46.0167 146.058 46.75L143.808 47.1C143.192 45.3333 141.833 44.4333 139.733 44.4C139.133 44.4 138.567 44.4917 138.033 44.675C137.5 44.8583 137.033 45.1417 136.633 45.525C136.25 45.8917 135.942 46.35 135.708 46.9C135.475 47.4333 135.358 48.05 135.358 48.75C135.358 49.45 135.467 50.075 135.683 50.625C135.917 51.175 136.225 51.6333 136.608 52C137.008 52.3667 137.475 52.6417 138.008 52.825C138.542 53.0083 139.117 53.0917 139.733 53.075C140.767 53.0583 141.617 52.8417 142.283 52.425C142.95 52.0083 143.45 51.35 143.783 50.45L146.058 50.775C145.892 51.5083 145.6 52.15 145.183 52.7C144.767 53.25 144.275 53.7083 143.708 54.075C143.142 54.425 142.517 54.6917 141.833 54.875C141.15 55.0583 140.45 55.15 139.733 55.15C138.817 55.15 137.942 55.025 137.108 54.775C136.292 54.5083 135.567 54.1083 134.933 53.575C134.317 53.0417 133.825 52.375 133.458 51.575C133.092 50.775 132.908 49.8333 132.908 48.75C132.908 47.6667 133.092 46.725 133.458 45.925C133.825 45.125 134.317 44.4583 134.933 43.925C135.567 43.3917 136.292 43 137.108 42.75C137.942 42.4833 138.817 42.35 139.733 42.35ZM145.731 44.7V42.4H146.206C146.49 42.4 146.781 42.2833 147.081 42.05C147.398 41.8167 147.681 41.5167 147.931 41.15C148.181 40.7833 148.39 40.375 148.556 39.925C148.723 39.475 148.806 39.0333 148.806 38.6L151.281 38.575C151.248 39.275 151.081 39.9417 150.781 40.575C150.481 41.1917 150.04 41.6917 149.456 42.075C149.24 42.2083 148.973 42.3083 148.656 42.375C148.356 42.425 148.081 42.475 147.831 42.525V42.575C148.081 42.525 148.356 42.4833 148.656 42.45C148.973 42.4167 149.256 42.4 149.506 42.4H153.931V44.7H150.756V51.35C150.756 51.9 150.89 52.2667 151.156 52.45C151.423 52.6167 151.748 52.7 152.131 52.7L154.531 52.7V55L152.256 55C151.44 55 150.773 54.925 150.256 54.775C149.74 54.6083 149.34 54.3583 149.056 54.025C148.773 53.6917 148.573 53.2667 148.456 52.75C148.356 52.2167 148.306 51.5917 148.306 50.875V44.7L145.731 44.7ZM156.744 50.975C156.861 51.825 157.236 52.4167 157.869 52.75C158.503 53.0667 159.378 53.225 160.494 53.225C161.694 53.225 162.603 53.05 163.219 52.7C163.836 52.35 164.144 51.7667 164.144 50.95C164.144 50.55 163.903 50.2667 163.419 50.1C162.953 49.9333 162.369 49.8083 161.669 49.725C160.969 49.625 160.203 49.5333 159.369 49.45C158.536 49.35 157.769 49.1917 157.069 48.975C156.369 48.7583 155.778 48.4333 155.294 48C154.828 47.5667 154.594 46.9667 154.594 46.2C154.594 45.6 154.703 45.0917 154.919 44.675C155.153 44.2417 155.444 43.8833 155.794 43.6C156.144 43.3167 156.536 43.0917 156.969 42.925C157.419 42.7417 157.861 42.6083 158.294 42.525C158.728 42.4417 159.144 42.3917 159.544 42.375C159.944 42.3417 160.269 42.325 160.519 42.325C161.003 42.325 161.553 42.375 162.169 42.475C162.803 42.5583 163.403 42.725 163.969 42.975C164.553 43.225 165.053 43.5667 165.469 44C165.903 44.4333 166.169 45 166.269 45.7L164.044 46.025C163.911 45.325 163.553 44.8583 162.969 44.625C162.403 44.375 161.569 44.25 160.469 44.25C159.336 44.25 158.478 44.3917 157.894 44.675C157.328 44.9583 157.044 45.4917 157.044 46.275C157.044 46.675 157.278 46.9667 157.744 47.15C158.228 47.3167 158.819 47.45 159.519 47.55C160.219 47.65 160.986 47.7417 161.819 47.825C162.653 47.9083 163.419 48.0583 164.119 48.275C164.819 48.4917 165.403 48.8083 165.869 49.225C166.353 49.6417 166.594 50.2333 166.594 51C166.594 51.95 166.344 52.7083 165.844 53.275C165.361 53.825 164.778 54.2417 164.094 54.525C163.428 54.7917 162.753 54.9583 162.069 55.025C161.386 55.1083 160.844 55.15 160.444 55.15C160.211 55.15 159.903 55.1333 159.519 55.1C159.136 55.0667 158.728 55.0083 158.294 54.925C157.861 54.825 157.419 54.6917 156.969 54.525C156.536 54.3583 156.128 54.1333 155.744 53.85C155.378 53.5667 155.069 53.225 154.819 52.825C154.569 52.425 154.419 51.95 154.369 51.4L156.744 50.975ZM174.429 39.625V37.5H171.904V39.625H174.429ZM171.954 42.5H174.379V55H171.954V42.5ZM175.433 42.5H177.883V45.075C177.883 45.325 177.858 45.6083 177.808 45.925C177.774 46.225 177.733 46.5 177.683 46.75L177.733 46.775C177.783 46.525 177.841 46.25 177.908 45.95C177.991 45.65 178.099 45.3833 178.233 45.15C178.749 44.15 179.416 43.425 180.233 42.975C181.049 42.525 181.883 42.3 182.733 42.3C183.516 42.3 184.174 42.475 184.708 42.825C185.258 43.175 185.691 43.6417 186.008 44.225C186.341 44.8083 186.574 45.4833 186.708 46.25C186.858 47 186.933 47.7917 186.933 48.625V55H184.483V48.625C184.483 47.425 184.266 46.4833 183.833 45.8C183.399 45.1 182.758 44.75 181.908 44.75C181.591 44.75 181.199 44.825 180.733 44.975C180.283 45.1083 179.841 45.3833 179.408 45.8C178.991 46.2 178.633 46.7667 178.333 47.5C178.033 48.2167 177.883 49.1583 177.883 50.325V55L175.433 55V42.5ZM192.05 42.5H194.675L197.9 50.7C198.016 50.9667 198.1 51.2667 198.15 51.6C198.2 51.9333 198.225 52.2417 198.225 52.525H198.275C198.275 52.2417 198.3 51.9333 198.35 51.6C198.416 51.2667 198.508 50.9667 198.625 50.7L201.875 42.5H204.5L198.775 56.775C198.525 57.475 198.216 58.05 197.85 58.5C197.483 58.95 197.1 59.3083 196.7 59.575C196.3 59.8417 195.891 60.025 195.475 60.125C195.075 60.225 194.7 60.275 194.35 60.275H192.125V58.3H193.4C193.55 58.3 193.758 58.275 194.025 58.225C194.291 58.175 194.566 58.0833 194.85 57.95C195.133 57.8167 195.4 57.6333 195.65 57.4C195.916 57.1833 196.108 56.9 196.225 56.55L196.875 54.55L192.05 42.5ZM210.711 55.15C209.794 55.15 208.911 55.025 208.061 54.775C207.227 54.5083 206.494 54.1083 205.861 53.575C205.244 53.0417 204.744 52.375 204.361 51.575C203.994 50.775 203.811 49.8333 203.811 48.75C203.811 47.6667 203.994 46.725 204.361 45.925C204.744 45.125 205.244 44.4583 205.861 43.925C206.494 43.3917 207.227 43 208.061 42.75C208.911 42.4833 209.794 42.35 210.711 42.35C211.644 42.35 212.527 42.4833 213.361 42.75C214.194 43.0167 214.927 43.4167 215.561 43.95C216.194 44.4667 216.694 45.125 217.061 45.925C217.444 46.725 217.636 47.6667 217.636 48.75C217.636 49.8333 217.444 50.775 217.061 51.575C216.694 52.375 216.194 53.0417 215.561 53.575C214.927 54.1083 214.194 54.5083 213.361 54.775C212.527 55.025 211.644 55.15 210.711 55.15ZM210.711 44.425C210.144 44.425 209.586 44.5167 209.036 44.7C208.502 44.8833 208.027 45.1583 207.611 45.525C207.211 45.8917 206.886 46.35 206.636 46.9C206.386 47.4333 206.261 48.05 206.261 48.75C206.261 49.4833 206.377 50.125 206.611 50.675C206.844 51.2083 207.161 51.65 207.561 52C207.961 52.35 208.427 52.6167 208.961 52.8C209.511 52.9667 210.094 53.05 210.711 53.05C211.311 53.05 211.877 52.9667 212.411 52.8C212.961 52.6167 213.436 52.35 213.836 52C214.252 51.6333 214.577 51.1833 214.811 50.65C215.061 50.1 215.186 49.4667 215.186 48.75C215.186 48.05 215.061 47.4333 214.811 46.9C214.577 46.35 214.252 45.9 213.836 45.55C213.419 45.1833 212.944 44.9083 212.411 44.725C211.877 44.525 211.311 44.425 210.711 44.425ZM223.053 55.15C222.153 55.15 221.403 54.975 220.803 54.625C220.203 54.275 219.728 53.8083 219.378 53.225C219.028 52.6417 218.778 51.9667 218.628 51.2C218.494 50.4333 218.428 49.6417 218.428 48.825V42.45H220.878V48.825C220.878 50.1583 221.128 51.1333 221.628 51.75C222.144 52.3667 222.911 52.675 223.928 52.675C224.194 52.675 224.528 52.6083 224.928 52.475C225.328 52.325 225.711 52.05 226.078 51.65C226.444 51.25 226.753 50.6917 227.003 49.975C227.269 49.2417 227.403 48.2917 227.403 47.125V42.45H229.853V54.95H227.403V52.55C227.403 52.2833 227.419 52 227.453 51.7C227.503 51.4 227.553 51.125 227.603 50.875L227.553 50.85C227.436 51.4333 227.261 51.9917 227.028 52.525C226.794 53.0417 226.494 53.5 226.128 53.9C225.761 54.2833 225.319 54.5917 224.803 54.825C224.303 55.0417 223.719 55.15 223.053 55.15ZM231.722 45.85C231.722 44.7167 231.988 43.875 232.522 43.325C233.055 42.775 233.897 42.5 235.047 42.5H240.072V44.8L235.847 44.825C235.497 44.825 235.213 44.8417 234.997 44.875C234.78 44.9083 234.605 44.9917 234.472 45.125C234.355 45.2417 234.272 45.425 234.222 45.675C234.188 45.925 234.172 46.2667 234.172 46.7V55H231.722V45.85ZM35.275 64.625V62.5H32.75V64.625H35.275ZM32.8 67.5H35.225V80H32.8V67.5ZM36.2783 67.5H38.7283V70.075C38.7283 70.325 38.7033 70.6083 38.6533 70.925C38.62 71.225 38.5783 71.5 38.5283 71.75L38.5783 71.775C38.6283 71.525 38.6867 71.25 38.7533 70.95C38.8367 70.65 38.945 70.3833 39.0783 70.15C39.595 69.15 40.2617 68.425 41.0783 67.975C41.895 67.525 42.7283 67.3 43.5783 67.3C44.3617 67.3 45.02 67.475 45.5533 67.825C46.1033 68.175 46.5367 68.6417 46.8533 69.225C47.1867 69.8083 47.42 70.4833 47.5533 71.25C47.7033 72 47.7783 72.7917 47.7783 73.625V80H45.3283V73.625C45.3283 72.425 45.1117 71.4833 44.6783 70.8C44.245 70.1 43.6033 69.75 42.7533 69.75C42.4367 69.75 42.045 69.825 41.5783 69.975C41.1283 70.1083 40.6867 70.3833 40.2533 70.8C39.8367 71.2 39.4783 71.7667 39.1783 72.5C38.8783 73.2167 38.7283 74.1583 38.7283 75.325V80H36.2783V67.5ZM48.8154 80L48.8154 62.5H51.2654L51.2654 69.125C51.2654 69.4083 51.2321 69.7167 51.1654 70.05C51.0988 70.3833 51.0238 70.6917 50.9404 70.975H50.9904C51.0738 70.7083 51.1821 70.4167 51.3154 70.1C51.4654 69.7833 51.6404 69.525 51.8404 69.325C52.1238 69.025 52.4571 68.7583 52.8404 68.525C53.2404 68.275 53.6488 68.0667 54.0654 67.9C54.4988 67.7167 54.9404 67.5833 55.3904 67.5C55.8404 67.4 56.2738 67.35 56.6904 67.35C58.5404 67.3667 59.9904 67.9 61.0404 68.95C62.1071 69.9833 62.6404 71.5833 62.6404 73.75C62.6404 75.9167 62.1071 77.525 61.0404 78.575C59.9904 79.625 58.5404 80.15 56.6904 80.15C56.2738 80.15 55.8404 80.1083 55.3904 80.025C54.9404 79.9417 54.4988 79.8167 54.0654 79.65C53.6488 79.4833 53.2404 79.2917 52.8404 79.075C52.4571 78.8417 52.1238 78.575 51.8404 78.275C51.6404 78.075 51.4654 77.8167 51.3154 77.5C51.1821 77.1833 51.0738 76.8917 50.9904 76.625L50.9404 76.65C51.0238 76.9167 51.0988 77.2167 51.1654 77.55C51.2321 77.8833 51.2654 78.1917 51.2654 78.475V80H48.8154ZM51.2654 73.75C51.2654 74.4167 51.3988 75.0167 51.6654 75.55C51.9488 76.0833 52.3071 76.5333 52.7404 76.9C53.1738 77.2667 53.6654 77.55 54.2154 77.75C54.7821 77.9333 55.3404 78.025 55.8904 78.025C57.4238 78.025 58.5238 77.6833 59.1904 77C59.8571 76.3167 60.1904 75.2333 60.1904 73.75C60.1904 72.2833 59.8488 71.1917 59.1654 70.475C58.4988 69.7583 57.4071 69.3917 55.8904 69.375C55.3404 69.375 54.7821 69.475 54.2154 69.675C53.6654 69.875 53.1738 70.1667 52.7404 70.55C52.3071 70.9167 51.9488 71.375 51.6654 71.925C51.3988 72.4583 51.2654 73.0667 51.2654 73.75ZM70.201 80.15C69.2843 80.15 68.401 80.025 67.551 79.775C66.7176 79.5083 65.9843 79.1083 65.351 78.575C64.7343 78.0417 64.2343 77.375 63.851 76.575C63.4843 75.775 63.301 74.8333 63.301 73.75C63.301 72.6667 63.4843 71.725 63.851 70.925C64.2343 70.125 64.7343 69.4583 65.351 68.925C65.9843 68.3917 66.7176 68 67.551 67.75C68.401 67.4833 69.2843 67.35 70.201 67.35C71.1343 67.35 72.0176 67.4833 72.851 67.75C73.6843 68.0167 74.4176 68.4167 75.051 68.95C75.6843 69.4667 76.1843 70.125 76.551 70.925C76.9343 71.725 77.126 72.6667 77.126 73.75C77.126 74.8333 76.9343 75.775 76.551 76.575C76.1843 77.375 75.6843 78.0417 75.051 78.575C74.4176 79.1083 73.6843 79.5083 72.851 79.775C72.0176 80.025 71.1343 80.15 70.201 80.15ZM70.201 69.425C69.6343 69.425 69.076 69.5167 68.526 69.7C67.9926 69.8833 67.5176 70.1583 67.101 70.525C66.701 70.8917 66.376 71.35 66.126 71.9C65.876 72.4333 65.751 73.05 65.751 73.75C65.751 74.4833 65.8676 75.125 66.101 75.675C66.3343 76.2083 66.651 76.65 67.051 77C67.451 77.35 67.9176 77.6167 68.451 77.8C69.001 77.9667 69.5843 78.05 70.201 78.05C70.801 78.05 71.3676 77.9667 71.901 77.8C72.451 77.6167 72.926 77.35 73.326 77C73.7426 76.6333 74.0676 76.1833 74.301 75.65C74.551 75.1 74.676 74.4667 74.676 73.75C74.676 73.05 74.551 72.4333 74.301 71.9C74.0676 71.35 73.7426 70.9 73.326 70.55C72.9093 70.1833 72.4343 69.9083 71.901 69.725C71.3676 69.525 70.801 69.425 70.201 69.425ZM76.3729 67.5H79.4979L82.5979 71.425C82.6812 71.5417 82.7395 71.675 82.7729 71.825C82.8229 71.975 82.8479 72.125 82.8479 72.275H82.8979C82.8979 71.9417 82.9895 71.6583 83.1729 71.425L86.2479 67.5H89.3479L84.4979 73.7L89.3479 80H86.2729L83.1479 75.975C83.0645 75.8583 82.9979 75.725 82.9479 75.575C82.9145 75.4083 82.8979 75.2583 82.8979 75.125H82.8479C82.8479 75.2583 82.8229 75.4083 82.7729 75.575C82.7229 75.725 82.6562 75.8583 82.5729 75.975L79.4729 80H76.3729L81.2479 73.7L76.3729 67.5Z" fill="white"/>
<path d="M64 170C64 153.431 77.4315 140 94 140H303V396C303 412.569 289.569 426 273 426H64V170Z" fill="#EA4335" fill-opacity="0.4"/>
<path d="M64.5 170C64.5 153.708 77.7076 140.5 94 140.5H302.5V396C302.5 412.292 289.292 425.5 273 425.5H64.5V170Z" stroke="#014F59" stroke-opacity="0.09"/>
<rect x="205" y="185" width="80" height="38" rx="19" fill="white" fill-opacity="0.19"/>
<rect x="205.5" y="185.5" width="79" height="37" rx="18.5" stroke="#014F59" stroke-opacity="0.09"/>
<g filter="url(#filter0_b_1203_23952)">
<rect x="32" y="112" width="224" height="63" rx="30" fill="url(#paint0_linear_1203_23952)" fill-opacity="0.63"/>
<rect x="32.5" y="112.5" width="223" height="62" rx="29.5" stroke="#014F59" stroke-opacity="0.09"/>
</g>
<path d="M105.92 129.5V134.015H111.89V129.5H113.36V140H111.89V135.47H105.92V140H104.45V129.5H105.92ZM116.739 140.09C116.199 140.09 115.749 139.985 115.389 139.775C115.029 139.565 114.744 139.285 114.534 138.935C114.324 138.585 114.174 138.18 114.084 137.72C114.004 137.26 113.964 136.785 113.964 136.295V132.47H115.434V136.295C115.434 137.095 115.584 137.68 115.884 138.05C116.194 138.42 116.654 138.605 117.264 138.605C117.424 138.605 117.624 138.565 117.864 138.485C118.104 138.395 118.334 138.23 118.554 137.99C118.774 137.75 118.959 137.415 119.109 136.985C119.269 136.545 119.349 135.975 119.349 135.275V132.47H120.819V139.97H119.349V138.53C119.349 138.37 119.359 138.2 119.379 138.02C119.409 137.84 119.439 137.675 119.469 137.525L119.439 137.51C119.369 137.86 119.264 138.195 119.124 138.515C118.984 138.825 118.804 139.1 118.584 139.34C118.364 139.57 118.099 139.755 117.789 139.895C117.489 140.025 117.139 140.09 116.739 140.09ZM121.941 134.51C121.941 133.83 122.101 133.325 122.421 132.995C122.741 132.665 123.246 132.5 123.936 132.5H126.951V133.88L124.416 133.895C124.206 133.895 124.036 133.905 123.906 133.925C123.776 133.945 123.671 133.995 123.591 134.075C123.521 134.145 123.471 134.255 123.441 134.405C123.421 134.555 123.411 134.76 123.411 135.02V140H121.941V134.51ZM127.442 134.51C127.442 133.83 127.602 133.325 127.922 132.995C128.242 132.665 128.747 132.5 129.437 132.5H132.452V133.88L129.917 133.895C129.707 133.895 129.537 133.905 129.407 133.925C129.277 133.945 129.172 133.995 129.092 134.075C129.022 134.145 128.972 134.255 128.942 134.405C128.922 134.555 128.912 134.76 128.912 135.02V140H127.442V134.51ZM138.265 138.155C138.165 138.465 138.01 138.735 137.8 138.965C137.59 139.195 137.345 139.385 137.065 139.535C136.795 139.685 136.5 139.8 136.18 139.88C135.86 139.95 135.54 139.985 135.22 139.985C134.85 139.985 134.49 139.94 134.14 139.85C133.79 139.76 133.48 139.625 133.21 139.445C132.94 139.265 132.72 139.045 132.55 138.785C132.39 138.515 132.31 138.21 132.31 137.87C132.31 137.32 132.455 136.905 132.745 136.625C133.045 136.335 133.415 136.125 133.855 135.995C134.305 135.865 134.785 135.795 135.295 135.785C135.815 135.765 136.295 135.75 136.735 135.74C137.185 135.72 137.555 135.68 137.845 135.62C138.135 135.56 138.275 135.425 138.265 135.215C138.245 134.645 138.05 134.24 137.68 134C137.32 133.76 136.78 133.64 136.06 133.64C135.77 133.64 135.495 133.66 135.235 133.7C134.985 133.74 134.76 133.815 134.56 133.925C134.37 134.035 134.21 134.185 134.08 134.375C133.95 134.565 133.865 134.81 133.825 135.11L132.535 134.93C132.585 134.48 132.72 134.095 132.94 133.775C133.16 133.455 133.435 133.2 133.765 133.01C134.095 132.81 134.46 132.67 134.86 132.59C135.26 132.5 135.66 132.455 136.06 132.455C136.51 132.455 136.95 132.505 137.38 132.605C137.82 132.705 138.21 132.87 138.55 133.1C138.89 133.32 139.16 133.62 139.36 134C139.57 134.37 139.675 134.835 139.675 135.395V138.125C139.675 138.325 139.71 138.455 139.78 138.515C139.85 138.575 139.965 138.605 140.125 138.605H140.47V140H139.51C139.13 140 138.825 139.885 138.595 139.655C138.375 139.425 138.265 139.145 138.265 138.815V138.155ZM133.75 137.84C133.75 138.04 133.8 138.215 133.9 138.365C134 138.505 134.13 138.625 134.29 138.725C134.46 138.815 134.655 138.885 134.875 138.935C135.105 138.975 135.34 138.995 135.58 138.995C135.89 138.995 136.205 138.96 136.525 138.89C136.845 138.81 137.13 138.7 137.38 138.56C137.64 138.42 137.85 138.25 138.01 138.05C138.18 137.84 138.265 137.605 138.265 137.345V136.355C138.055 136.475 137.795 136.555 137.485 136.595C137.175 136.635 136.85 136.66 136.51 136.67C136.18 136.68 135.85 136.69 135.52 136.7C135.19 136.71 134.895 136.75 134.635 136.82C134.375 136.89 134.16 137.005 133.99 137.165C133.83 137.315 133.75 137.54 133.75 137.84ZM140.298 132.5H141.873L143.808 137.42C143.878 137.58 143.928 137.76 143.958 137.96C143.988 138.16 144.003 138.345 144.003 138.515H144.033C144.033 138.345 144.048 138.16 144.078 137.96C144.118 137.76 144.173 137.58 144.243 137.42L146.193 132.5H147.768L144.333 141.065C144.183 141.485 143.998 141.83 143.778 142.1C143.558 142.37 143.328 142.585 143.088 142.745C142.848 142.905 142.603 143.015 142.353 143.075C142.113 143.135 141.888 143.165 141.678 143.165H140.343V141.98H141.108C141.198 141.98 141.323 141.965 141.483 141.935C141.643 141.905 141.808 141.85 141.978 141.77C142.148 141.69 142.308 141.58 142.458 141.44C142.618 141.31 142.733 141.14 142.803 140.93L143.193 139.73L140.298 132.5ZM148.581 134.225V129.5H150.051V134.225L149.466 137.315H149.166L148.581 134.225ZM150.201 140.12V138.605H148.446V140.12H150.201ZM153.505 129.515H155.32L158.065 133.235C158.165 133.375 158.24 133.54 158.29 133.73C158.35 133.91 158.38 134.085 158.38 134.255H158.41C158.41 134.085 158.435 133.91 158.485 133.73C158.545 133.54 158.63 133.375 158.74 133.235L161.47 129.515H163.285L159.13 135.065V140H157.66V135.065L153.505 129.515ZM165.418 140.09C164.868 140.09 164.338 140.015 163.828 139.865C163.328 139.705 162.888 139.465 162.508 139.145C162.138 138.825 161.838 138.425 161.608 137.945C161.388 137.465 161.278 136.9 161.278 136.25C161.278 135.6 161.388 135.035 161.608 134.555C161.838 134.075 162.138 133.675 162.508 133.355C162.888 133.035 163.328 132.8 163.828 132.65C164.338 132.49 164.868 132.41 165.418 132.41C165.978 132.41 166.508 132.49 167.008 132.65C167.508 132.81 167.948 133.05 168.328 133.37C168.708 133.68 169.008 134.075 169.228 134.555C169.458 135.035 169.573 135.6 169.573 136.25C169.573 136.9 169.458 137.465 169.228 137.945C169.008 138.425 168.708 138.825 168.328 139.145C167.948 139.465 167.508 139.705 167.008 139.865C166.508 140.015 165.978 140.09 165.418 140.09ZM165.418 133.655C165.078 133.655 164.743 133.71 164.413 133.82C164.093 133.93 163.808 134.095 163.558 134.315C163.318 134.535 163.123 134.81 162.973 135.14C162.823 135.46 162.748 135.83 162.748 136.25C162.748 136.69 162.818 137.075 162.958 137.405C163.098 137.725 163.288 137.99 163.528 138.2C163.768 138.41 164.048 138.57 164.368 138.68C164.698 138.78 165.048 138.83 165.418 138.83C165.778 138.83 166.118 138.78 166.438 138.68C166.768 138.57 167.053 138.41 167.293 138.2C167.543 137.98 167.738 137.71 167.878 137.39C168.028 137.06 168.103 136.68 168.103 136.25C168.103 135.83 168.028 135.46 167.878 135.14C167.738 134.81 167.543 134.54 167.293 134.33C167.043 134.11 166.758 133.945 166.438 133.835C166.118 133.715 165.778 133.655 165.418 133.655ZM172.824 140.09C172.284 140.09 171.834 139.985 171.474 139.775C171.114 139.565 170.829 139.285 170.619 138.935C170.409 138.585 170.259 138.18 170.169 137.72C170.089 137.26 170.049 136.785 170.049 136.295V132.47H171.519V136.295C171.519 137.095 171.669 137.68 171.969 138.05C172.279 138.42 172.739 138.605 173.349 138.605C173.509 138.605 173.709 138.565 173.949 138.485C174.189 138.395 174.419 138.23 174.639 137.99C174.859 137.75 175.044 137.415 175.194 136.985C175.354 136.545 175.434 135.975 175.434 135.275V132.47H176.904V139.97H175.434V138.53C175.434 138.37 175.444 138.2 175.464 138.02C175.494 137.84 175.524 137.675 175.554 137.525L175.524 137.51C175.454 137.86 175.349 138.195 175.209 138.515C175.069 138.825 174.889 139.1 174.669 139.34C174.449 139.57 174.184 139.755 173.874 139.895C173.574 140.025 173.224 140.09 172.824 140.09ZM178.04 131.765L177.92 131.57L178.85 130.01L178.61 130.85H178.58L178.04 131.765ZM179.86 132.5H181.45L183.595 138.23C183.655 138.4 183.7 138.585 183.73 138.785C183.76 138.985 183.78 139.17 183.79 139.34H183.82C183.81 139.17 183.82 138.985 183.85 138.785C183.89 138.585 183.935 138.4 183.985 138.23L186.085 132.5H187.645L184.84 140H182.665L179.86 132.5ZM191.405 140.09C190.855 140.09 190.33 140.015 189.83 139.865C189.33 139.705 188.89 139.465 188.51 139.145C188.14 138.825 187.845 138.425 187.625 137.945C187.405 137.465 187.295 136.9 187.295 136.25C187.295 135.6 187.405 135.035 187.625 134.555C187.845 134.075 188.14 133.675 188.51 133.355C188.89 133.035 189.33 132.8 189.83 132.65C190.33 132.49 190.855 132.41 191.405 132.41C191.955 132.41 192.47 132.49 192.95 132.65C193.44 132.81 193.865 133.05 194.225 133.37C194.585 133.68 194.87 134.075 195.08 134.555C195.29 135.035 195.395 135.6 195.395 136.25C195.395 136.36 195.395 136.435 195.395 136.475C195.395 136.505 195.385 136.57 195.365 136.67H188.825C188.935 137.42 189.225 137.98 189.695 138.35C190.165 138.72 190.745 138.9 191.435 138.89C192.015 138.88 192.52 138.77 192.95 138.56C193.39 138.35 193.715 137.965 193.925 137.405L195.275 137.585C195.135 138.035 194.935 138.42 194.675 138.74C194.425 139.06 194.13 139.32 193.79 139.52C193.45 139.71 193.075 139.855 192.665 139.955C192.265 140.045 191.845 140.09 191.405 140.09ZM191.435 133.565C191.105 133.565 190.775 133.63 190.445 133.76C190.115 133.88 189.825 134.07 189.575 134.33C189.325 134.58 189.125 134.9 188.975 135.29C188.835 135.68 188.785 136.14 188.825 136.67C188.885 136.47 188.95 136.31 189.02 136.19C189.1 136.07 189.19 135.98 189.29 135.92C189.4 135.86 189.52 135.82 189.65 135.8C189.79 135.78 189.95 135.77 190.13 135.77H194C193.89 135 193.605 134.445 193.145 134.105C192.695 133.755 192.125 133.575 191.435 133.565ZM199.925 138.935C199.135 138.745 198.74 138.355 198.74 137.765C198.74 137.445 198.835 137.195 199.025 137.015C199.215 136.835 199.485 136.69 199.835 136.58C199.835 136.57 199.8 136.525 199.73 136.445C199.66 136.355 199.585 136.245 199.505 136.115C199.425 135.975 199.35 135.815 199.28 135.635C199.21 135.455 199.175 135.26 199.175 135.05C199.175 134.6 199.28 134.215 199.49 133.895C199.71 133.575 199.985 133.315 200.315 133.115C200.655 132.905 201.03 132.755 201.44 132.665C201.86 132.565 202.27 132.515 202.67 132.515C203 132.515 203.285 132.545 203.525 132.605C203.775 132.655 204.045 132.725 204.335 132.815C204.205 132.525 204.195 132.3 204.305 132.14C204.415 131.98 204.6 131.86 204.86 131.78C205.12 131.7 205.42 131.65 205.76 131.63C206.11 131.61 206.45 131.605 206.78 131.615V132.68H205.865C205.785 132.68 205.68 132.685 205.55 132.695C205.43 132.705 205.32 132.725 205.22 132.755C205.13 132.785 205.065 132.835 205.025 132.905C204.995 132.965 205.035 133.05 205.145 133.16C205.165 133.18 205.225 133.235 205.325 133.325C205.425 133.415 205.53 133.54 205.64 133.7C205.76 133.86 205.865 134.05 205.955 134.27C206.045 134.49 206.09 134.735 206.09 135.005C206.09 135.445 205.98 135.825 205.76 136.145C205.55 136.455 205.275 136.715 204.935 136.925C204.605 137.125 204.235 137.275 203.825 137.375C203.415 137.475 203.015 137.525 202.625 137.525C202.185 137.525 201.76 137.465 201.35 137.345C201.28 137.325 201.215 137.305 201.155 137.285C201.105 137.255 201.07 137.24 201.05 137.24C200.86 137.23 200.68 137.275 200.51 137.375C200.35 137.475 200.27 137.58 200.27 137.69C200.27 137.86 200.365 137.995 200.555 138.095C200.755 138.185 201.01 138.26 201.32 138.32C201.64 138.37 202 138.41 202.4 138.44C202.81 138.47 203.225 138.515 203.645 138.575C204.065 138.625 204.475 138.695 204.875 138.785C205.285 138.865 205.645 138.99 205.955 139.16C206.275 139.32 206.53 139.535 206.72 139.805C206.92 140.065 207.02 140.395 207.02 140.795C207.02 141.235 206.88 141.595 206.6 141.875C206.32 142.165 205.965 142.39 205.535 142.55C205.105 142.72 204.64 142.835 204.14 142.895C203.64 142.965 203.17 143 202.73 143C202.32 143 201.855 142.965 201.335 142.895C200.815 142.835 200.325 142.72 199.865 142.55C199.405 142.39 199.015 142.165 198.695 141.875C198.385 141.595 198.23 141.235 198.23 140.795C198.23 140.505 198.28 140.255 198.38 140.045C198.48 139.845 198.605 139.675 198.755 139.535C198.915 139.395 199.095 139.28 199.295 139.19C199.505 139.09 199.715 139.005 199.925 138.935ZM199.715 140.72C199.715 140.95 199.825 141.14 200.045 141.29C200.265 141.45 200.53 141.575 200.84 141.665C201.16 141.755 201.49 141.82 201.83 141.86C202.18 141.9 202.485 141.92 202.745 141.92C202.985 141.92 203.265 141.9 203.585 141.86C203.915 141.83 204.22 141.77 204.5 141.68C204.79 141.59 205.035 141.465 205.235 141.305C205.435 141.155 205.535 140.96 205.535 140.72C205.535 140.47 205.425 140.265 205.205 140.105C204.985 139.955 204.71 139.835 204.38 139.745C204.06 139.655 203.72 139.59 203.36 139.55C203 139.51 202.685 139.475 202.415 139.445C202.335 139.435 202.23 139.425 202.1 139.415C201.97 139.395 201.865 139.385 201.785 139.385C201.615 139.385 201.41 139.415 201.17 139.475C200.93 139.525 200.7 139.61 200.48 139.73C200.27 139.84 200.09 139.975 199.94 140.135C199.79 140.305 199.715 140.5 199.715 140.72ZM200.645 135.035C200.645 135.305 200.705 135.53 200.825 135.71C200.945 135.88 201.1 136.02 201.29 136.13C201.49 136.24 201.705 136.32 201.935 136.37C202.175 136.41 202.405 136.43 202.625 136.43C202.855 136.43 203.085 136.41 203.315 136.37C203.555 136.32 203.77 136.245 203.96 136.145C204.16 136.035 204.32 135.89 204.44 135.71C204.56 135.52 204.62 135.29 204.62 135.02C204.62 134.75 204.56 134.53 204.44 134.36C204.32 134.18 204.165 134.035 203.975 133.925C203.785 133.815 203.57 133.74 203.33 133.7C203.1 133.65 202.875 133.625 202.655 133.625C202.425 133.625 202.19 133.65 201.95 133.7C201.72 133.74 201.505 133.815 201.305 133.925C201.115 134.025 200.955 134.17 200.825 134.36C200.705 134.54 200.645 134.765 200.645 135.035ZM211.395 140.09C210.845 140.09 210.315 140.015 209.805 139.865C209.305 139.705 208.865 139.465 208.485 139.145C208.115 138.825 207.815 138.425 207.585 137.945C207.365 137.465 207.255 136.9 207.255 136.25C207.255 135.6 207.365 135.035 207.585 134.555C207.815 134.075 208.115 133.675 208.485 133.355C208.865 133.035 209.305 132.8 209.805 132.65C210.315 132.49 210.845 132.41 211.395 132.41C211.955 132.41 212.485 132.49 212.985 132.65C213.485 132.81 213.925 133.05 214.305 133.37C214.685 133.68 214.985 134.075 215.205 134.555C215.435 135.035 215.55 135.6 215.55 136.25C215.55 136.9 215.435 137.465 215.205 137.945C214.985 138.425 214.685 138.825 214.305 139.145C213.925 139.465 213.485 139.705 212.985 139.865C212.485 140.015 211.955 140.09 211.395 140.09ZM211.395 133.655C211.055 133.655 210.72 133.71 210.39 133.82C210.07 133.93 209.785 134.095 209.535 134.315C209.295 134.535 209.1 134.81 208.95 135.14C208.8 135.46 208.725 135.83 208.725 136.25C208.725 136.69 208.795 137.075 208.935 137.405C209.075 137.725 209.265 137.99 209.505 138.2C209.745 138.41 210.025 138.57 210.345 138.68C210.675 138.78 211.025 138.83 211.395 138.83C211.755 138.83 212.095 138.78 212.415 138.68C212.745 138.57 213.03 138.41 213.27 138.2C213.52 137.98 213.715 137.71 213.855 137.39C214.005 137.06 214.08 136.68 214.08 136.25C214.08 135.83 214.005 135.46 213.855 135.14C213.715 134.81 213.52 134.54 213.27 134.33C213.02 134.11 212.735 133.945 212.415 133.835C212.095 133.715 211.755 133.655 211.395 133.655ZM215.344 133.82V132.44H215.629C215.799 132.44 215.974 132.37 216.154 132.23C216.344 132.09 216.514 131.91 216.664 131.69C216.814 131.47 216.939 131.225 217.039 130.955C217.139 130.685 217.189 130.42 217.189 130.16L218.674 130.145C218.654 130.565 218.554 130.965 218.374 131.345C218.194 131.715 217.929 132.015 217.579 132.245C217.449 132.325 217.289 132.385 217.099 132.425C216.919 132.455 216.754 132.485 216.604 132.515V132.545C216.754 132.515 216.919 132.49 217.099 132.47C217.289 132.45 217.459 132.44 217.609 132.44H220.264V133.82H218.359V137.81C218.359 138.14 218.439 138.36 218.599 138.47C218.759 138.57 218.954 138.62 219.184 138.62H220.624V140H219.259C218.769 140 218.369 139.955 218.059 139.865C217.749 139.765 217.509 139.615 217.339 139.415C217.169 139.215 217.049 138.96 216.979 138.65C216.919 138.33 216.889 137.955 216.889 137.525V133.82H215.344ZM229.346 138.155C229.246 138.465 229.091 138.735 228.881 138.965C228.671 139.195 228.426 139.385 228.146 139.535C227.876 139.685 227.581 139.8 227.261 139.88C226.941 139.95 226.621 139.985 226.301 139.985C225.931 139.985 225.571 139.94 225.221 139.85C224.871 139.76 224.561 139.625 224.291 139.445C224.021 139.265 223.801 139.045 223.631 138.785C223.471 138.515 223.391 138.21 223.391 137.87C223.391 137.32 223.536 136.905 223.826 136.625C224.126 136.335 224.496 136.125 224.936 135.995C225.386 135.865 225.866 135.795 226.376 135.785C226.896 135.765 227.376 135.75 227.816 135.74C228.266 135.72 228.636 135.68 228.926 135.62C229.216 135.56 229.356 135.425 229.346 135.215C229.326 134.645 229.131 134.24 228.761 134C228.401 133.76 227.861 133.64 227.141 133.64C226.851 133.64 226.576 133.66 226.316 133.7C226.066 133.74 225.841 133.815 225.641 133.925C225.451 134.035 225.291 134.185 225.161 134.375C225.031 134.565 224.946 134.81 224.906 135.11L223.616 134.93C223.666 134.48 223.801 134.095 224.021 133.775C224.241 133.455 224.516 133.2 224.846 133.01C225.176 132.81 225.541 132.67 225.941 132.59C226.341 132.5 226.741 132.455 227.141 132.455C227.591 132.455 228.031 132.505 228.461 132.605C228.901 132.705 229.291 132.87 229.631 133.1C229.971 133.32 230.241 133.62 230.441 134C230.651 134.37 230.756 134.835 230.756 135.395V138.125C230.756 138.325 230.791 138.455 230.861 138.515C230.931 138.575 231.046 138.605 231.206 138.605H231.551V140L230.591 140C230.211 140 229.906 139.885 229.676 139.655C229.456 139.425 229.346 139.145 229.346 138.815V138.155ZM224.831 137.84C224.831 138.04 224.881 138.215 224.981 138.365C225.081 138.505 225.211 138.625 225.371 138.725C225.541 138.815 225.736 138.885 225.956 138.935C226.186 138.975 226.421 138.995 226.661 138.995C226.971 138.995 227.286 138.96 227.606 138.89C227.926 138.81 228.211 138.7 228.461 138.56C228.721 138.42 228.931 138.25 229.091 138.05C229.261 137.84 229.346 137.605 229.346 137.345V136.355C229.136 136.475 228.876 136.555 228.566 136.595C228.256 136.635 227.931 136.66 227.591 136.67C227.261 136.68 226.931 136.69 226.601 136.7C226.271 136.71 225.976 136.75 225.716 136.82C225.456 136.89 225.241 137.005 225.071 137.165C224.911 137.315 224.831 137.54 224.831 137.84ZM104.45 147.5H105.935V148.46C105.935 148.63 105.915 148.815 105.875 149.015C105.835 149.215 105.79 149.4 105.74 149.57H105.77C105.82 149.41 105.885 149.235 105.965 149.045C106.055 148.855 106.16 148.7 106.28 148.58C106.45 148.4 106.65 148.24 106.88 148.1C107.12 147.95 107.365 147.825 107.615 147.725C107.875 147.615 108.14 147.535 108.41 147.485C108.68 147.435 108.935 147.41 109.175 147.41C110.295 147.42 111.17 147.74 111.8 148.37C112.43 148.99 112.745 149.95 112.745 151.25C112.745 152.55 112.43 153.515 111.8 154.145C111.17 154.775 110.295 155.09 109.175 155.09C108.935 155.09 108.68 155.06 108.41 155C108.14 154.95 107.875 154.88 107.615 154.79C107.365 154.69 107.12 154.57 106.88 154.43C106.65 154.29 106.45 154.13 106.28 153.95C106.16 153.83 106.055 153.675 105.965 153.485C105.885 153.295 105.82 153.12 105.77 152.96H105.74C105.79 153.13 105.835 153.315 105.875 153.515C105.915 153.715 105.935 153.9 105.935 154.07V158H104.465L104.45 147.5ZM105.935 151.25C105.935 151.65 106.015 152.015 106.175 152.345C106.345 152.665 106.56 152.94 106.82 153.17C107.08 153.4 107.375 153.575 107.705 153.695C108.035 153.815 108.365 153.875 108.695 153.875C109.615 153.875 110.275 153.66 110.675 153.23C111.075 152.8 111.275 152.14 111.275 151.25C111.275 150.36 111.075 149.71 110.675 149.3C110.275 148.89 109.615 148.68 108.695 148.67C108.365 148.67 108.035 148.73 107.705 148.85C107.375 148.96 107.08 149.125 106.82 149.345C106.56 149.565 106.345 149.835 106.175 150.155C106.015 150.475 105.935 150.84 105.935 151.25ZM113.261 149.51C113.261 148.83 113.421 148.325 113.741 147.995C114.061 147.665 114.566 147.5 115.256 147.5H118.271V148.88L115.736 148.895C115.526 148.895 115.356 148.905 115.226 148.925C115.096 148.945 114.991 148.995 114.911 149.075C114.841 149.145 114.791 149.255 114.761 149.405C114.741 149.555 114.731 149.76 114.731 150.02V155H113.261V149.51ZM122.108 155.09C121.558 155.09 121.028 155.015 120.518 154.865C120.018 154.705 119.578 154.465 119.198 154.145C118.828 153.825 118.528 153.425 118.298 152.945C118.078 152.465 117.968 151.9 117.968 151.25C117.968 150.6 118.078 150.035 118.298 149.555C118.528 149.075 118.828 148.675 119.198 148.355C119.578 148.035 120.018 147.8 120.518 147.65C121.028 147.49 121.558 147.41 122.108 147.41C122.668 147.41 123.198 147.49 123.698 147.65C124.198 147.81 124.638 148.05 125.018 148.37C125.398 148.68 125.698 149.075 125.918 149.555C126.148 150.035 126.263 150.6 126.263 151.25C126.263 151.9 126.148 152.465 125.918 152.945C125.698 153.425 125.398 153.825 125.018 154.145C124.638 154.465 124.198 154.705 123.698 154.865C123.198 155.015 122.668 155.09 122.108 155.09ZM122.108 148.655C121.768 148.655 121.433 148.71 121.103 148.82C120.783 148.93 120.498 149.095 120.248 149.315C120.008 149.535 119.813 149.81 119.663 150.14C119.513 150.46 119.438 150.83 119.438 151.25C119.438 151.69 119.508 152.075 119.648 152.405C119.788 152.725 119.978 152.99 120.218 153.2C120.458 153.41 120.738 153.57 121.058 153.68C121.388 153.78 121.738 153.83 122.108 153.83C122.468 153.83 122.808 153.78 123.128 153.68C123.458 153.57 123.743 153.41 123.983 153.2C124.233 152.98 124.428 152.71 124.568 152.39C124.718 152.06 124.793 151.68 124.793 151.25C124.793 150.83 124.718 150.46 124.568 150.14C124.428 149.81 124.233 149.54 123.983 149.33C123.733 149.11 123.448 148.945 123.128 148.835C122.808 148.715 122.468 148.655 122.108 148.655ZM125.598 156.38H125.928C126.438 156.38 126.808 156.26 127.038 156.02C127.278 155.79 127.398 155.385 127.398 154.805V147.5H128.868V154.805C128.868 155.275 128.818 155.68 128.718 156.02C128.618 156.37 128.453 156.655 128.223 156.875C127.993 157.105 127.688 157.275 127.308 157.385C126.938 157.505 126.478 157.565 125.928 157.565H125.598V156.38ZM127.398 144.5H128.868V145.775H127.398V144.5ZM133.475 155.09C132.925 155.09 132.4 155.015 131.9 154.865C131.4 154.705 130.96 154.465 130.58 154.145C130.21 153.825 129.915 153.425 129.695 152.945C129.475 152.465 129.365 151.9 129.365 151.25C129.365 150.6 129.475 150.035 129.695 149.555C129.915 149.075 130.21 148.675 130.58 148.355C130.96 148.035 131.4 147.8 131.9 147.65C132.4 147.49 132.925 147.41 133.475 147.41C134.025 147.41 134.54 147.49 135.02 147.65C135.51 147.81 135.935 148.05 136.295 148.37C136.655 148.68 136.94 149.075 137.15 149.555C137.36 150.035 137.465 150.6 137.465 151.25C137.465 151.36 137.465 151.435 137.465 151.475C137.465 151.505 137.455 151.57 137.435 151.67H130.895C131.005 152.42 131.295 152.98 131.765 153.35C132.235 153.72 132.815 153.9 133.505 153.89C134.085 153.88 134.59 153.77 135.02 153.56C135.46 153.35 135.785 152.965 135.995 152.405L137.345 152.585C137.205 153.035 137.005 153.42 136.745 153.74C136.495 154.06 136.2 154.32 135.86 154.52C135.52 154.71 135.145 154.855 134.735 154.955C134.335 155.045 133.915 155.09 133.475 155.09ZM133.505 148.565C133.175 148.565 132.845 148.63 132.515 148.76C132.185 148.88 131.895 149.07 131.645 149.33C131.395 149.58 131.195 149.9 131.045 150.29C130.905 150.68 130.855 151.14 130.895 151.67C130.955 151.47 131.02 151.31 131.09 151.19C131.17 151.07 131.26 150.98 131.36 150.92C131.47 150.86 131.59 150.82 131.72 150.8C131.86 150.78 132.02 150.77 132.2 150.77H136.07C135.96 150 135.675 149.445 135.215 149.105C134.765 148.755 134.195 148.575 133.505 148.565ZM141.876 147.41C142.306 147.41 142.726 147.465 143.136 147.575C143.546 147.685 143.921 147.85 144.261 148.07C144.601 148.29 144.896 148.565 145.146 148.895C145.396 149.225 145.571 149.61 145.671 150.05L144.321 150.26C143.951 149.2 143.136 148.66 141.876 148.64C141.516 148.64 141.176 148.695 140.856 148.805C140.536 148.915 140.256 149.085 140.016 149.315C139.786 149.535 139.601 149.81 139.461 150.14C139.321 150.46 139.251 150.83 139.251 151.25C139.251 151.67 139.316 152.045 139.446 152.375C139.586 152.705 139.771 152.98 140.001 153.2C140.241 153.42 140.521 153.585 140.841 153.695C141.161 153.805 141.506 153.855 141.876 153.845C142.496 153.835 143.006 153.705 143.406 153.455C143.806 153.205 144.106 152.81 144.306 152.27L145.671 152.465C145.571 152.905 145.396 153.29 145.146 153.62C144.896 153.95 144.601 154.225 144.261 154.445C143.921 154.655 143.546 154.815 143.136 154.925C142.726 155.035 142.306 155.09 141.876 155.09C141.326 155.09 140.801 155.015 140.301 154.865C139.811 154.705 139.376 154.465 138.996 154.145C138.626 153.825 138.331 153.425 138.111 152.945C137.891 152.465 137.781 151.9 137.781 151.25C137.781 150.6 137.891 150.035 138.111 149.555C138.331 149.075 138.626 148.675 138.996 148.355C139.376 148.035 139.811 147.8 140.301 147.65C140.801 147.49 141.326 147.41 141.876 147.41ZM145.475 148.82V147.44H145.76C145.93 147.44 146.105 147.37 146.285 147.23C146.475 147.09 146.645 146.91 146.795 146.69C146.945 146.47 147.07 146.225 147.17 145.955C147.27 145.685 147.32 145.42 147.32 145.16L148.805 145.145C148.785 145.565 148.685 145.965 148.505 146.345C148.325 146.715 148.06 147.015 147.71 147.245C147.58 147.325 147.42 147.385 147.23 147.425C147.05 147.455 146.885 147.485 146.735 147.515V147.545C146.885 147.515 147.05 147.49 147.23 147.47C147.42 147.45 147.59 147.44 147.74 147.44H150.395V148.82H148.49V152.81C148.49 153.14 148.57 153.36 148.73 153.47C148.89 153.57 149.085 153.62 149.315 153.62H150.755V155H149.39C148.9 155 148.5 154.955 148.19 154.865C147.88 154.765 147.64 154.615 147.47 154.415C147.3 154.215 147.18 153.96 147.11 153.65C147.05 153.33 147.02 152.955 147.02 152.525V148.82H145.475ZM153.717 155.12V153.605H155.472V155.12H153.717Z" fill="white"/>
<g filter="url(#filter1_b_1203_23952)">
<rect x="34" y="185" width="129" height="48" rx="24" fill="#7D22FF" fill-opacity="0.42"/>
<rect x="34.5" y="185.5" width="128" height="47" rx="23.5" stroke="#014F59" stroke-opacity="0.25"/>
</g>
<path d="M65.6349 208.536H67.8669C68.5149 208.544 68.9869 208.412 69.2829 208.14C69.5869 207.868 69.7389 207.476 69.7389 206.964C69.7389 206.452 69.5869 206.064 69.2829 205.8C68.9869 205.528 68.5149 205.392 67.8669 205.392H65.6349V208.536ZM64.4949 204.432H68.2509C69.1149 204.432 69.7669 204.656 70.2069 205.104C70.6549 205.544 70.8789 206.164 70.8789 206.964C70.8789 207.764 70.6549 208.388 70.2069 208.836C69.7669 209.284 69.1149 209.504 68.2509 209.496H65.6349V213H64.4949V204.432ZM71.8322 206.796H72.7922V208.104H72.8162C73.0642 207.6 73.3682 207.228 73.7282 206.988C74.0882 206.748 74.5442 206.636 75.0962 206.652V207.732C74.6882 207.732 74.3402 207.788 74.0522 207.9C73.7642 208.012 73.5322 208.176 73.3562 208.392C73.1802 208.608 73.0522 208.872 72.9722 209.184C72.8922 209.488 72.8522 209.84 72.8522 210.24V213H71.8322V206.796ZM76.1573 209.904C76.1573 210.28 76.2053 210.616 76.3013 210.912C76.4053 211.2 76.5453 211.444 76.7213 211.644C76.8973 211.836 77.1013 211.984 77.3333 212.088C77.5733 212.192 77.8253 212.244 78.0893 212.244C78.3533 212.244 78.6013 212.192 78.8333 212.088C79.0733 211.984 79.2813 211.836 79.4573 211.644C79.6333 211.444 79.7693 211.2 79.8653 210.912C79.9693 210.616 80.0213 210.28 80.0213 209.904C80.0213 209.528 79.9693 209.196 79.8653 208.908C79.7693 208.612 79.6333 208.364 79.4573 208.164C79.2813 207.964 79.0733 207.812 78.8333 207.708C78.6013 207.604 78.3533 207.552 78.0893 207.552C77.8253 207.552 77.5733 207.604 77.3333 207.708C77.1013 207.812 76.8973 207.964 76.7213 208.164C76.5453 208.364 76.4053 208.612 76.3013 208.908C76.2053 209.196 76.1573 209.528 76.1573 209.904ZM75.0773 209.904C75.0773 209.448 75.1413 209.024 75.2693 208.632C75.3973 208.232 75.5893 207.888 75.8453 207.6C76.1013 207.304 76.4173 207.072 76.7933 206.904C77.1693 206.736 77.6013 206.652 78.0893 206.652C78.5853 206.652 79.0173 206.736 79.3853 206.904C79.7613 207.072 80.0773 207.304 80.3333 207.6C80.5893 207.888 80.7813 208.232 80.9093 208.632C81.0373 209.024 81.1013 209.448 81.1013 209.904C81.1013 210.36 81.0373 210.784 80.9093 211.176C80.7813 211.568 80.5893 211.912 80.3333 212.208C80.0773 212.496 79.7613 212.724 79.3853 212.892C79.0173 213.052 78.5853 213.132 78.0893 213.132C77.6013 213.132 77.1693 213.052 76.7933 212.892C76.4173 212.724 76.1013 212.496 75.8453 212.208C75.5893 211.912 75.3973 211.568 75.2693 211.176C75.1413 210.784 75.0773 210.36 75.0773 209.904ZM83.1439 205.68H82.1239V204.432H83.1439V205.68ZM83.1439 213.78C83.1439 214.332 83.0079 214.732 82.7359 214.98C82.4719 215.236 82.1119 215.364 81.6559 215.364C81.4719 215.364 81.2999 215.348 81.1399 215.316V214.44C81.1799 214.448 81.2159 214.452 81.2479 214.452C81.2719 214.46 81.2999 214.464 81.3319 214.464H81.5479C81.7719 214.464 81.9239 214.4 82.0039 214.272C82.0839 214.152 82.1239 213.932 82.1239 213.612V206.796H83.1439V213.78ZM88.7921 209.304C88.7761 209.064 88.7201 208.836 88.6241 208.62C88.5361 208.404 88.4121 208.22 88.2521 208.068C88.1001 207.908 87.9161 207.784 87.7001 207.696C87.4921 207.6 87.2601 207.552 87.0041 207.552C86.7401 207.552 86.5001 207.6 86.2841 207.696C86.0761 207.784 85.8961 207.908 85.7441 208.068C85.5921 208.228 85.4721 208.416 85.3841 208.632C85.2961 208.84 85.2441 209.064 85.2281 209.304H88.7921ZM89.7761 211.032C89.6401 211.728 89.3401 212.252 88.8761 212.604C88.4121 212.956 87.8281 213.132 87.1241 213.132C86.6281 213.132 86.1961 213.052 85.8281 212.892C85.4681 212.732 85.1641 212.508 84.9161 212.22C84.6681 211.932 84.4801 211.588 84.3521 211.188C84.2321 210.788 84.1641 210.352 84.1481 209.88C84.1481 209.408 84.2201 208.976 84.3641 208.584C84.5081 208.192 84.7081 207.852 84.9641 207.564C85.2281 207.276 85.5361 207.052 85.8881 206.892C86.2481 206.732 86.6401 206.652 87.0641 206.652C87.6161 206.652 88.0721 206.768 88.4321 207C88.8001 207.224 89.0921 207.512 89.3081 207.864C89.5321 208.216 89.6841 208.6 89.7641 209.016C89.8521 209.432 89.8881 209.828 89.8721 210.204H85.2281C85.2201 210.476 85.2521 210.736 85.3241 210.984C85.3961 211.224 85.5121 211.44 85.6721 211.632C85.8321 211.816 86.0361 211.964 86.2841 212.076C86.5321 212.188 86.8241 212.244 87.1601 212.244C87.5921 212.244 87.9441 212.144 88.2161 211.944C88.4961 211.744 88.6801 211.44 88.7681 211.032H89.7761ZM94.9014 208.788C94.8214 208.396 94.6534 208.092 94.3974 207.876C94.1414 207.66 93.7974 207.552 93.3654 207.552C92.9974 207.552 92.6894 207.62 92.4414 207.756C92.1934 207.892 91.9934 208.072 91.8414 208.296C91.6974 208.52 91.5934 208.78 91.5294 209.076C91.4654 209.364 91.4334 209.664 91.4334 209.976C91.4334 210.264 91.4654 210.544 91.5294 210.816C91.6014 211.088 91.7094 211.332 91.8534 211.548C91.9974 211.756 92.1854 211.924 92.4174 212.052C92.6494 212.18 92.9254 212.244 93.2454 212.244C93.7494 212.244 94.1414 212.112 94.4214 211.848C94.7094 211.584 94.8854 211.212 94.9494 210.732H95.9934C95.8814 211.5 95.5934 212.092 95.1294 212.508C94.6734 212.924 94.0494 213.132 93.2574 213.132C92.7854 213.132 92.3654 213.056 91.9974 212.904C91.6374 212.752 91.3334 212.536 91.0854 212.256C90.8454 211.976 90.6614 211.644 90.5334 211.26C90.4134 210.868 90.3534 210.44 90.3534 209.976C90.3534 209.512 90.4134 209.08 90.5334 208.68C90.6534 208.272 90.8334 207.92 91.0734 207.624C91.3214 207.32 91.6294 207.084 91.9974 206.916C92.3654 206.74 92.7934 206.652 93.2814 206.652C93.6334 206.652 93.9614 206.696 94.2654 206.784C94.5774 206.864 94.8494 206.992 95.0814 207.168C95.3214 207.344 95.5174 207.568 95.6694 207.84C95.8214 208.104 95.9174 208.42 95.9574 208.788H94.9014ZM98.3107 206.796H99.5467V207.696H98.3107V211.548C98.3107 211.668 98.3187 211.764 98.3347 211.836C98.3587 211.908 98.3987 211.964 98.4547 212.004C98.5107 212.044 98.5867 212.072 98.6827 212.088C98.7867 212.096 98.9187 212.1 99.0787 212.1H99.5467V213H98.7667C98.5027 213 98.2747 212.984 98.0827 212.952C97.8987 212.912 97.7467 212.844 97.6267 212.748C97.5147 212.652 97.4307 212.516 97.3747 212.34C97.3187 212.164 97.2907 211.932 97.2907 211.644V207.696H96.2347V206.796H97.2907V204.936H98.3107V206.796ZM104.284 209.952C104.284 210.24 104.32 210.524 104.392 210.804C104.472 211.076 104.588 211.32 104.74 211.536C104.9 211.752 105.1 211.924 105.34 212.052C105.588 212.18 105.876 212.244 106.204 212.244C106.548 212.244 106.84 212.176 107.08 212.04C107.32 211.904 107.516 211.728 107.668 211.512C107.82 211.288 107.928 211.036 107.992 210.756C108.064 210.476 108.1 210.192 108.1 209.904C108.1 209.6 108.064 209.308 107.992 209.028C107.92 208.74 107.804 208.488 107.644 208.272C107.492 208.056 107.292 207.884 107.044 207.756C106.796 207.62 106.496 207.552 106.144 207.552C105.8 207.552 105.508 207.62 105.268 207.756C105.028 207.892 104.836 208.072 104.692 208.296C104.548 208.52 104.444 208.776 104.38 209.064C104.316 209.352 104.284 209.648 104.284 209.952ZM109.084 213H108.064V212.16H108.04C107.872 212.504 107.608 212.752 107.248 212.904C106.888 213.056 106.492 213.132 106.06 213.132C105.58 213.132 105.16 213.044 104.8 212.868C104.448 212.692 104.152 212.456 103.912 212.16C103.68 211.864 103.504 211.52 103.384 211.128C103.264 210.736 103.204 210.32 103.204 209.88C103.204 209.44 103.26 209.024 103.372 208.632C103.492 208.24 103.668 207.9 103.9 207.612C104.14 207.316 104.436 207.084 104.788 206.916C105.148 206.74 105.564 206.652 106.036 206.652C106.196 206.652 106.368 206.668 106.552 206.7C106.736 206.732 106.92 206.788 107.104 206.868C107.288 206.94 107.46 207.04 107.62 207.168C107.788 207.288 107.928 207.44 108.04 207.624H108.064V204.432H109.084V213ZM114.721 209.304C114.705 209.064 114.649 208.836 114.553 208.62C114.465 208.404 114.341 208.22 114.181 208.068C114.029 207.908 113.845 207.784 113.629 207.696C113.421 207.6 113.189 207.552 112.933 207.552C112.669 207.552 112.429 207.6 112.213 207.696C112.005 207.784 111.825 207.908 111.673 208.068C111.521 208.228 111.401 208.416 111.313 208.632C111.225 208.84 111.173 209.064 111.157 209.304H114.721ZM115.705 211.032C115.569 211.728 115.269 212.252 114.805 212.604C114.341 212.956 113.757 213.132 113.053 213.132C112.557 213.132 112.125 213.052 111.757 212.892C111.397 212.732 111.093 212.508 110.845 212.22C110.597 211.932 110.409 211.588 110.281 211.188C110.161 210.788 110.093 210.352 110.077 209.88C110.077 209.408 110.149 208.976 110.293 208.584C110.437 208.192 110.637 207.852 110.893 207.564C111.157 207.276 111.465 207.052 111.817 206.892C112.177 206.732 112.569 206.652 112.993 206.652C113.545 206.652 114.001 206.768 114.361 207C114.729 207.224 115.021 207.512 115.237 207.864C115.461 208.216 115.613 208.6 115.693 209.016C115.781 209.432 115.817 209.828 115.801 210.204H111.157C111.149 210.476 111.181 210.736 111.253 210.984C111.325 211.224 111.441 211.44 111.601 211.632C111.761 211.816 111.965 211.964 112.213 212.076C112.461 212.188 112.753 212.244 113.089 212.244C113.521 212.244 113.873 212.144 114.145 211.944C114.425 211.744 114.609 211.44 114.697 211.032H115.705ZM118.034 206.796H119.27V207.696H118.034V211.548C118.034 211.668 118.042 211.764 118.058 211.836C118.082 211.908 118.122 211.964 118.178 212.004C118.234 212.044 118.31 212.072 118.406 212.088C118.51 212.096 118.642 212.1 118.802 212.1H119.27V213H118.49C118.226 213 117.998 212.984 117.806 212.952C117.622 212.912 117.47 212.844 117.35 212.748C117.238 212.652 117.154 212.516 117.098 212.34C117.042 212.164 117.014 211.932 117.014 211.644V207.696H115.958V206.796H117.014V204.936H118.034V206.796ZM125.659 212.976C125.483 213.08 125.239 213.132 124.927 213.132C124.663 213.132 124.451 213.06 124.291 212.916C124.139 212.764 124.063 212.52 124.063 212.184C123.783 212.52 123.455 212.764 123.079 212.916C122.711 213.06 122.311 213.132 121.879 213.132C121.599 213.132 121.331 213.1 121.075 213.036C120.827 212.972 120.611 212.872 120.427 212.736C120.243 212.6 120.095 212.424 119.983 212.208C119.879 211.984 119.827 211.716 119.827 211.404C119.827 211.052 119.887 210.764 120.007 210.54C120.127 210.316 120.283 210.136 120.475 210C120.675 209.856 120.899 209.748 121.147 209.676C121.403 209.604 121.663 209.544 121.927 209.496C122.207 209.44 122.471 209.4 122.719 209.376C122.975 209.344 123.199 209.304 123.391 209.256C123.583 209.2 123.735 209.124 123.847 209.028C123.959 208.924 124.015 208.776 124.015 208.584C124.015 208.36 123.971 208.18 123.883 208.044C123.803 207.908 123.695 207.804 123.559 207.732C123.431 207.66 123.283 207.612 123.115 207.588C122.955 207.564 122.795 207.552 122.635 207.552C122.203 207.552 121.843 207.636 121.555 207.804C121.267 207.964 121.111 208.272 121.087 208.728H120.067C120.083 208.344 120.163 208.02 120.307 207.756C120.451 207.492 120.643 207.28 120.883 207.12C121.123 206.952 121.395 206.832 121.699 206.76C122.011 206.688 122.343 206.652 122.695 206.652C122.975 206.652 123.251 206.672 123.523 206.712C123.803 206.752 124.055 206.836 124.279 206.964C124.503 207.084 124.683 207.256 124.819 207.48C124.955 207.704 125.023 207.996 125.023 208.356V211.548C125.023 211.788 125.035 211.964 125.059 212.076C125.091 212.188 125.187 212.244 125.347 212.244C125.435 212.244 125.539 212.224 125.659 212.184V212.976ZM124.003 209.796C123.875 209.892 123.707 209.964 123.499 210.012C123.291 210.052 123.071 210.088 122.839 210.12C122.615 210.144 122.387 210.176 122.155 210.216C121.923 210.248 121.715 210.304 121.531 210.384C121.347 210.464 121.195 210.58 121.075 210.732C120.963 210.876 120.907 211.076 120.907 211.332C120.907 211.5 120.939 211.644 121.003 211.764C121.075 211.876 121.163 211.968 121.267 212.04C121.379 212.112 121.507 212.164 121.651 212.196C121.795 212.228 121.947 212.244 122.107 212.244C122.443 212.244 122.731 212.2 122.971 212.112C123.211 212.016 123.407 211.9 123.559 211.764C123.711 211.62 123.823 211.468 123.895 211.308C123.967 211.14 124.003 210.984 124.003 210.84V209.796ZM127.449 205.68H126.429V204.432H127.449V205.68ZM126.429 206.796H127.449V213H126.429V206.796ZM128.849 204.432H129.869V213H128.849V204.432ZM131.833 211.044C131.841 211.268 131.893 211.46 131.989 211.62C132.085 211.772 132.209 211.896 132.361 211.992C132.521 212.08 132.697 212.144 132.889 212.184C133.089 212.224 133.293 212.244 133.501 212.244C133.661 212.244 133.829 212.232 134.005 212.208C134.181 212.184 134.341 212.14 134.485 212.076C134.637 212.012 134.761 211.92 134.857 211.8C134.953 211.672 135.001 211.512 135.001 211.32C135.001 211.056 134.901 210.856 134.701 210.72C134.501 210.584 134.249 210.476 133.945 210.396C133.649 210.308 133.325 210.232 132.973 210.168C132.621 210.096 132.293 210 131.989 209.88C131.693 209.752 131.445 209.576 131.245 209.352C131.045 209.128 130.945 208.816 130.945 208.416C130.945 208.104 131.013 207.836 131.149 207.612C131.293 207.388 131.473 207.208 131.689 207.072C131.913 206.928 132.161 206.824 132.433 206.76C132.713 206.688 132.989 206.652 133.261 206.652C133.613 206.652 133.937 206.684 134.233 206.748C134.529 206.804 134.789 206.908 135.013 207.06C135.245 207.204 135.429 207.404 135.565 207.66C135.701 207.908 135.781 208.22 135.805 208.596L134.785 208.596C134.769 208.396 134.717 208.232 134.629 208.104C134.541 207.968 134.429 207.86 134.293 207.78C134.157 207.7 134.005 207.644 133.837 207.612C133.677 207.572 133.513 207.552 133.345 207.552C133.193 207.552 133.037 207.564 132.877 207.588C132.725 207.612 132.585 207.656 132.457 207.72C132.329 207.776 132.225 207.856 132.145 207.96C132.065 208.056 132.025 208.184 132.025 208.344C132.025 208.52 132.085 208.668 132.205 208.788C132.333 208.9 132.493 208.996 132.685 209.076C132.877 209.148 133.093 209.212 133.333 209.268C133.573 209.316 133.813 209.368 134.053 209.424C134.309 209.48 134.557 209.548 134.797 209.628C135.045 209.708 135.261 209.816 135.445 209.952C135.637 210.08 135.789 210.244 135.901 210.444C136.021 210.644 136.081 210.892 136.081 211.188C136.081 211.564 136.001 211.876 135.841 212.124C135.689 212.372 135.485 212.572 135.229 212.724C134.981 212.876 134.697 212.98 134.377 213.036C134.065 213.1 133.753 213.132 133.441 213.132C133.097 213.132 132.769 213.096 132.457 213.024C132.145 212.952 131.869 212.836 131.629 212.676C131.389 212.508 131.197 212.292 131.053 212.028C130.909 211.756 130.829 211.428 130.813 211.044H131.833Z" fill="white"/>
<g filter="url(#filter2_b_1203_23952)">
<rect x="32" y="243" width="129" height="48" rx="24" fill="#7D22FF" fill-opacity="0.42"/>
<rect x="32.5" y="243.5" width="128" height="47" rx="23.5" stroke="#014F59" stroke-opacity="0.25"/>
</g>
<path d="M63.6349 266.536H65.8669C66.5149 266.544 66.9869 266.412 67.2829 266.14C67.5869 265.868 67.7389 265.476 67.7389 264.964C67.7389 264.452 67.5869 264.064 67.2829 263.8C66.9869 263.528 66.5149 263.392 65.8669 263.392H63.6349V266.536ZM62.4949 262.432H66.2509C67.1149 262.432 67.7669 262.656 68.2069 263.104C68.6549 263.544 68.8789 264.164 68.8789 264.964C68.8789 265.764 68.6549 266.388 68.2069 266.836C67.7669 267.284 67.1149 267.504 66.2509 267.496H63.6349V271H62.4949V262.432ZM69.8322 264.796H70.7922V266.104H70.8162C71.0642 265.6 71.3682 265.228 71.7282 264.988C72.0882 264.748 72.5442 264.636 73.0962 264.652V265.732C72.6882 265.732 72.3402 265.788 72.0522 265.9C71.7642 266.012 71.5322 266.176 71.3562 266.392C71.1802 266.608 71.0522 266.872 70.9722 267.184C70.8922 267.488 70.8522 267.84 70.8522 268.24V271H69.8322V264.796ZM74.1573 267.904C74.1573 268.28 74.2053 268.616 74.3013 268.912C74.4053 269.2 74.5453 269.444 74.7213 269.644C74.8973 269.836 75.1013 269.984 75.3333 270.088C75.5733 270.192 75.8253 270.244 76.0893 270.244C76.3533 270.244 76.6013 270.192 76.8333 270.088C77.0733 269.984 77.2813 269.836 77.4573 269.644C77.6333 269.444 77.7693 269.2 77.8653 268.912C77.9693 268.616 78.0213 268.28 78.0213 267.904C78.0213 267.528 77.9693 267.196 77.8653 266.908C77.7693 266.612 77.6333 266.364 77.4573 266.164C77.2813 265.964 77.0733 265.812 76.8333 265.708C76.6013 265.604 76.3533 265.552 76.0893 265.552C75.8253 265.552 75.5733 265.604 75.3333 265.708C75.1013 265.812 74.8973 265.964 74.7213 266.164C74.5453 266.364 74.4053 266.612 74.3013 266.908C74.2053 267.196 74.1573 267.528 74.1573 267.904ZM73.0773 267.904C73.0773 267.448 73.1413 267.024 73.2693 266.632C73.3973 266.232 73.5893 265.888 73.8453 265.6C74.1013 265.304 74.4173 265.072 74.7933 264.904C75.1693 264.736 75.6013 264.652 76.0893 264.652C76.5853 264.652 77.0173 264.736 77.3853 264.904C77.7613 265.072 78.0773 265.304 78.3333 265.6C78.5893 265.888 78.7813 266.232 78.9093 266.632C79.0373 267.024 79.1013 267.448 79.1013 267.904C79.1013 268.36 79.0373 268.784 78.9093 269.176C78.7813 269.568 78.5893 269.912 78.3333 270.208C78.0773 270.496 77.7613 270.724 77.3853 270.892C77.0173 271.052 76.5853 271.132 76.0893 271.132C75.6013 271.132 75.1693 271.052 74.7933 270.892C74.4173 270.724 74.1013 270.496 73.8453 270.208C73.5893 269.912 73.3973 269.568 73.2693 269.176C73.1413 268.784 73.0773 268.36 73.0773 267.904ZM81.1439 263.68H80.1239V262.432H81.1439V263.68ZM81.1439 271.78C81.1439 272.332 81.0079 272.732 80.7359 272.98C80.4719 273.236 80.1119 273.364 79.6559 273.364C79.4719 273.364 79.2999 273.348 79.1399 273.316V272.44C79.1799 272.448 79.2159 272.452 79.2479 272.452C79.2719 272.46 79.2999 272.464 79.3319 272.464H79.5479C79.7719 272.464 79.9239 272.4 80.0039 272.272C80.0839 272.152 80.1239 271.932 80.1239 271.612V264.796H81.1439V271.78ZM86.7921 267.304C86.7761 267.064 86.7201 266.836 86.6241 266.62C86.5361 266.404 86.4121 266.22 86.2521 266.068C86.1001 265.908 85.9161 265.784 85.7001 265.696C85.4921 265.6 85.2601 265.552 85.0041 265.552C84.7401 265.552 84.5001 265.6 84.2841 265.696C84.0761 265.784 83.8961 265.908 83.7441 266.068C83.5921 266.228 83.4721 266.416 83.3841 266.632C83.2961 266.84 83.2441 267.064 83.2281 267.304H86.7921ZM87.7761 269.032C87.6401 269.728 87.3401 270.252 86.8761 270.604C86.4121 270.956 85.8281 271.132 85.1241 271.132C84.6281 271.132 84.1961 271.052 83.8281 270.892C83.4681 270.732 83.1641 270.508 82.9161 270.22C82.6681 269.932 82.4801 269.588 82.3521 269.188C82.2321 268.788 82.1641 268.352 82.1481 267.88C82.1481 267.408 82.2201 266.976 82.3641 266.584C82.5081 266.192 82.7081 265.852 82.9641 265.564C83.2281 265.276 83.5361 265.052 83.8881 264.892C84.2481 264.732 84.6401 264.652 85.0641 264.652C85.6161 264.652 86.0721 264.768 86.4321 265C86.8001 265.224 87.0921 265.512 87.3081 265.864C87.5321 266.216 87.6841 266.6 87.7641 267.016C87.8521 267.432 87.8881 267.828 87.8721 268.204H83.2281C83.2201 268.476 83.2521 268.736 83.3241 268.984C83.3961 269.224 83.5121 269.44 83.6721 269.632C83.8321 269.816 84.0361 269.964 84.2841 270.076C84.5321 270.188 84.8241 270.244 85.1601 270.244C85.5921 270.244 85.9441 270.144 86.2161 269.944C86.4961 269.744 86.6801 269.44 86.7681 269.032H87.7761ZM92.9014 266.788C92.8214 266.396 92.6534 266.092 92.3974 265.876C92.1414 265.66 91.7974 265.552 91.3654 265.552C90.9974 265.552 90.6894 265.62 90.4414 265.756C90.1934 265.892 89.9934 266.072 89.8414 266.296C89.6974 266.52 89.5934 266.78 89.5294 267.076C89.4654 267.364 89.4334 267.664 89.4334 267.976C89.4334 268.264 89.4654 268.544 89.5294 268.816C89.6014 269.088 89.7094 269.332 89.8534 269.548C89.9974 269.756 90.1854 269.924 90.4174 270.052C90.6494 270.18 90.9254 270.244 91.2454 270.244C91.7494 270.244 92.1414 270.112 92.4214 269.848C92.7094 269.584 92.8854 269.212 92.9494 268.732H93.9934C93.8814 269.5 93.5934 270.092 93.1294 270.508C92.6734 270.924 92.0494 271.132 91.2574 271.132C90.7854 271.132 90.3654 271.056 89.9974 270.904C89.6374 270.752 89.3334 270.536 89.0854 270.256C88.8454 269.976 88.6614 269.644 88.5334 269.26C88.4134 268.868 88.3534 268.44 88.3534 267.976C88.3534 267.512 88.4134 267.08 88.5334 266.68C88.6534 266.272 88.8334 265.92 89.0734 265.624C89.3214 265.32 89.6294 265.084 89.9974 264.916C90.3654 264.74 90.7934 264.652 91.2814 264.652C91.6334 264.652 91.9614 264.696 92.2654 264.784C92.5774 264.864 92.8494 264.992 93.0814 265.168C93.3214 265.344 93.5174 265.568 93.6694 265.84C93.8214 266.104 93.9174 266.42 93.9574 266.788H92.9014ZM96.3107 264.796H97.5467V265.696H96.3107V269.548C96.3107 269.668 96.3187 269.764 96.3347 269.836C96.3587 269.908 96.3987 269.964 96.4547 270.004C96.5107 270.044 96.5867 270.072 96.6827 270.088C96.7867 270.096 96.9187 270.1 97.0787 270.1H97.5467V271H96.7667C96.5027 271 96.2747 270.984 96.0827 270.952C95.8987 270.912 95.7467 270.844 95.6267 270.748C95.5147 270.652 95.4307 270.516 95.3747 270.34C95.3187 270.164 95.2907 269.932 95.2907 269.644V265.696H94.2347V264.796H95.2907V262.936H96.3107V264.796ZM102.284 267.952C102.284 268.24 102.32 268.524 102.392 268.804C102.472 269.076 102.588 269.32 102.74 269.536C102.9 269.752 103.1 269.924 103.34 270.052C103.588 270.18 103.876 270.244 104.204 270.244C104.548 270.244 104.84 270.176 105.08 270.04C105.32 269.904 105.516 269.728 105.668 269.512C105.82 269.288 105.928 269.036 105.992 268.756C106.064 268.476 106.1 268.192 106.1 267.904C106.1 267.6 106.064 267.308 105.992 267.028C105.92 266.74 105.804 266.488 105.644 266.272C105.492 266.056 105.292 265.884 105.044 265.756C104.796 265.62 104.496 265.552 104.144 265.552C103.8 265.552 103.508 265.62 103.268 265.756C103.028 265.892 102.836 266.072 102.692 266.296C102.548 266.52 102.444 266.776 102.38 267.064C102.316 267.352 102.284 267.648 102.284 267.952ZM107.084 271H106.064V270.16H106.04C105.872 270.504 105.608 270.752 105.248 270.904C104.888 271.056 104.492 271.132 104.06 271.132C103.58 271.132 103.16 271.044 102.8 270.868C102.448 270.692 102.152 270.456 101.912 270.16C101.68 269.864 101.504 269.52 101.384 269.128C101.264 268.736 101.204 268.32 101.204 267.88C101.204 267.44 101.26 267.024 101.372 266.632C101.492 266.24 101.668 265.9 101.9 265.612C102.14 265.316 102.436 265.084 102.788 264.916C103.148 264.74 103.564 264.652 104.036 264.652C104.196 264.652 104.368 264.668 104.552 264.7C104.736 264.732 104.92 264.788 105.104 264.868C105.288 264.94 105.46 265.04 105.62 265.168C105.788 265.288 105.928 265.44 106.04 265.624H106.064V262.432H107.084V271ZM112.721 267.304C112.705 267.064 112.649 266.836 112.553 266.62C112.465 266.404 112.341 266.22 112.181 266.068C112.029 265.908 111.845 265.784 111.629 265.696C111.421 265.6 111.189 265.552 110.933 265.552C110.669 265.552 110.429 265.6 110.213 265.696C110.005 265.784 109.825 265.908 109.673 266.068C109.521 266.228 109.401 266.416 109.313 266.632C109.225 266.84 109.173 267.064 109.157 267.304H112.721ZM113.705 269.032C113.569 269.728 113.269 270.252 112.805 270.604C112.341 270.956 111.757 271.132 111.053 271.132C110.557 271.132 110.125 271.052 109.757 270.892C109.397 270.732 109.093 270.508 108.845 270.22C108.597 269.932 108.409 269.588 108.281 269.188C108.161 268.788 108.093 268.352 108.077 267.88C108.077 267.408 108.149 266.976 108.293 266.584C108.437 266.192 108.637 265.852 108.893 265.564C109.157 265.276 109.465 265.052 109.817 264.892C110.177 264.732 110.569 264.652 110.993 264.652C111.545 264.652 112.001 264.768 112.361 265C112.729 265.224 113.021 265.512 113.237 265.864C113.461 266.216 113.613 266.6 113.693 267.016C113.781 267.432 113.817 267.828 113.801 268.204H109.157C109.149 268.476 109.181 268.736 109.253 268.984C109.325 269.224 109.441 269.44 109.601 269.632C109.761 269.816 109.965 269.964 110.213 270.076C110.461 270.188 110.753 270.244 111.089 270.244C111.521 270.244 111.873 270.144 112.145 269.944C112.425 269.744 112.609 269.44 112.697 269.032H113.705ZM116.034 264.796H117.27V265.696H116.034V269.548C116.034 269.668 116.042 269.764 116.058 269.836C116.082 269.908 116.122 269.964 116.178 270.004C116.234 270.044 116.31 270.072 116.406 270.088C116.51 270.096 116.642 270.1 116.802 270.1H117.27V271H116.49C116.226 271 115.998 270.984 115.806 270.952C115.622 270.912 115.47 270.844 115.35 270.748C115.238 270.652 115.154 270.516 115.098 270.34C115.042 270.164 115.014 269.932 115.014 269.644V265.696H113.958V264.796H115.014V262.936H116.034V264.796ZM123.659 270.976C123.483 271.08 123.239 271.132 122.927 271.132C122.663 271.132 122.451 271.06 122.291 270.916C122.139 270.764 122.063 270.52 122.063 270.184C121.783 270.52 121.455 270.764 121.079 270.916C120.711 271.06 120.311 271.132 119.879 271.132C119.599 271.132 119.331 271.1 119.075 271.036C118.827 270.972 118.611 270.872 118.427 270.736C118.243 270.6 118.095 270.424 117.983 270.208C117.879 269.984 117.827 269.716 117.827 269.404C117.827 269.052 117.887 268.764 118.007 268.54C118.127 268.316 118.283 268.136 118.475 268C118.675 267.856 118.899 267.748 119.147 267.676C119.403 267.604 119.663 267.544 119.927 267.496C120.207 267.44 120.471 267.4 120.719 267.376C120.975 267.344 121.199 267.304 121.391 267.256C121.583 267.2 121.735 267.124 121.847 267.028C121.959 266.924 122.015 266.776 122.015 266.584C122.015 266.36 121.971 266.18 121.883 266.044C121.803 265.908 121.695 265.804 121.559 265.732C121.431 265.66 121.283 265.612 121.115 265.588C120.955 265.564 120.795 265.552 120.635 265.552C120.203 265.552 119.843 265.636 119.555 265.804C119.267 265.964 119.111 266.272 119.087 266.728H118.067C118.083 266.344 118.163 266.02 118.307 265.756C118.451 265.492 118.643 265.28 118.883 265.12C119.123 264.952 119.395 264.832 119.699 264.76C120.011 264.688 120.343 264.652 120.695 264.652C120.975 264.652 121.251 264.672 121.523 264.712C121.803 264.752 122.055 264.836 122.279 264.964C122.503 265.084 122.683 265.256 122.819 265.48C122.955 265.704 123.023 265.996 123.023 266.356V269.548C123.023 269.788 123.035 269.964 123.059 270.076C123.091 270.188 123.187 270.244 123.347 270.244C123.435 270.244 123.539 270.224 123.659 270.184V270.976ZM122.003 267.796C121.875 267.892 121.707 267.964 121.499 268.012C121.291 268.052 121.071 268.088 120.839 268.12C120.615 268.144 120.387 268.176 120.155 268.216C119.923 268.248 119.715 268.304 119.531 268.384C119.347 268.464 119.195 268.58 119.075 268.732C118.963 268.876 118.907 269.076 118.907 269.332C118.907 269.5 118.939 269.644 119.003 269.764C119.075 269.876 119.163 269.968 119.267 270.04C119.379 270.112 119.507 270.164 119.651 270.196C119.795 270.228 119.947 270.244 120.107 270.244C120.443 270.244 120.731 270.2 120.971 270.112C121.211 270.016 121.407 269.9 121.559 269.764C121.711 269.62 121.823 269.468 121.895 269.308C121.967 269.14 122.003 268.984 122.003 268.84V267.796ZM125.449 263.68H124.429V262.432H125.449V263.68ZM124.429 264.796H125.449V271H124.429V264.796ZM126.849 262.432H127.869V271H126.849V262.432ZM129.833 269.044C129.841 269.268 129.893 269.46 129.989 269.62C130.085 269.772 130.209 269.896 130.361 269.992C130.521 270.08 130.697 270.144 130.889 270.184C131.089 270.224 131.293 270.244 131.501 270.244C131.661 270.244 131.829 270.232 132.005 270.208C132.181 270.184 132.341 270.14 132.485 270.076C132.637 270.012 132.761 269.92 132.857 269.8C132.953 269.672 133.001 269.512 133.001 269.32C133.001 269.056 132.901 268.856 132.701 268.72C132.501 268.584 132.249 268.476 131.945 268.396C131.649 268.308 131.325 268.232 130.973 268.168C130.621 268.096 130.293 268 129.989 267.88C129.693 267.752 129.445 267.576 129.245 267.352C129.045 267.128 128.945 266.816 128.945 266.416C128.945 266.104 129.013 265.836 129.149 265.612C129.293 265.388 129.473 265.208 129.689 265.072C129.913 264.928 130.161 264.824 130.433 264.76C130.713 264.688 130.989 264.652 131.261 264.652C131.613 264.652 131.937 264.684 132.233 264.748C132.529 264.804 132.789 264.908 133.013 265.06C133.245 265.204 133.429 265.404 133.565 265.66C133.701 265.908 133.781 266.22 133.805 266.596H132.785C132.769 266.396 132.717 266.232 132.629 266.104C132.541 265.968 132.429 265.86 132.293 265.78C132.157 265.7 132.005 265.644 131.837 265.612C131.677 265.572 131.513 265.552 131.345 265.552C131.193 265.552 131.037 265.564 130.877 265.588C130.725 265.612 130.585 265.656 130.457 265.72C130.329 265.776 130.225 265.856 130.145 265.96C130.065 266.056 130.025 266.184 130.025 266.344C130.025 266.52 130.085 266.668 130.205 266.788C130.333 266.9 130.493 266.996 130.685 267.076C130.877 267.148 131.093 267.212 131.333 267.268C131.573 267.316 131.813 267.368 132.053 267.424C132.309 267.48 132.557 267.548 132.797 267.628C133.045 267.708 133.261 267.816 133.445 267.952C133.637 268.08 133.789 268.244 133.901 268.444C134.021 268.644 134.081 268.892 134.081 269.188C134.081 269.564 134.001 269.876 133.841 270.124C133.689 270.372 133.485 270.572 133.229 270.724C132.981 270.876 132.697 270.98 132.377 271.036C132.065 271.1 131.753 271.132 131.441 271.132C131.097 271.132 130.769 271.096 130.457 271.024C130.145 270.952 129.869 270.836 129.629 270.676C129.389 270.508 129.197 270.292 129.053 270.028C128.909 269.756 128.829 269.428 128.813 269.044H129.833Z" fill="white"/>
<rect x="99" y="313" width="166" height="5" rx="2.5" fill="white" fill-opacity="0.13"/>
<rect x="99" y="337" width="126" height="5" rx="2.5" fill="white" fill-opacity="0.13"/>
<rect x="99" y="361" width="166" height="5" rx="2.5" fill="white" fill-opacity="0.13"/>
<rect x="99" y="385" width="93" height="5" rx="2.5" fill="white" fill-opacity="0.13"/>
<g filter="url(#filter3_b_1203_23952)">
<rect x="39" y="118" width="50" height="50" rx="25" fill="#7D22FF"/>
<rect x="39.5" y="118.5" width="49" height="49" rx="24.5" stroke="#014F59" stroke-opacity="0.09"/>
</g>
<path d="M70.75 137.667C70.75 135.744 69.9862 133.9 68.6265 132.54C67.2669 131.181 65.4228 130.417 63.5 130.417C61.5772 130.417 59.7331 131.181 58.3735 132.54C57.0138 133.9 56.25 135.744 56.25 137.667C56.25 146.125 52.625 148.542 52.625 148.542H74.375C74.375 148.542 70.75 146.125 70.75 137.667Z" stroke="#FF8E8E" stroke-width="2" stroke-linecap="round" stroke-linejoin="round"/>
<path d="M65.5904 153.375C65.378 153.741 65.0731 154.045 64.7062 154.257C64.3393 154.468 63.9234 154.579 63.5 154.579C63.0766 154.579 62.6607 154.468 62.2938 154.257C61.927 154.045 61.622 153.741 61.4096 153.375" stroke="#FF8E8E" stroke-width="2" stroke-linecap="round" stroke-linejoin="round"/>
<defs>
<filter id="filter0_b_1203_23952" x="12" y="92" width="264" height="103" filterUnits="userSpaceOnUse" color-interpolation-filters="sRGB">
<feFlood flood-opacity="0" result="BackgroundImageFix"/>
<feGaussianBlur in="BackgroundImageFix" stdDeviation="10"/>
<feComposite in2="SourceAlpha" operator="in" result="effect1_backgroundBlur_1203_23952"/>
<feBlend mode="normal" in="SourceGraphic" in2="effect1_backgroundBlur_1203_23952" result="shape"/>
</filter>
<filter id="filter1_b_1203_23952" x="22.4" y="173.4" width="152.2" height="71.2" filterUnits="userSpaceOnUse" color-interpolation-filters="sRGB">
<feFlood flood-opacity="0" result="BackgroundImageFix"/>
<feGaussianBlur in="BackgroundImageFix" stdDeviation="5.8"/>
<feComposite in2="SourceAlpha" operator="in" result="effect1_backgroundBlur_1203_23952"/>
<feBlend mode="normal" in="SourceGraphic" in2="effect1_backgroundBlur_1203_23952" result="shape"/>
</filter>
<filter id="filter2_b_1203_23952" x="20.4" y="231.4" width="152.2" height="71.2" filterUnits="userSpaceOnUse" color-interpolation-filters="sRGB">
<feFlood flood-opacity="0" result="BackgroundImageFix"/>
<feGaussianBlur in="BackgroundImageFix" stdDeviation="5.8"/>
<feComposite in2="SourceAlpha" operator="in" result="effect1_backgroundBlur_1203_23952"/>
<feBlend mode="normal" in="SourceGraphic" in2="effect1_backgroundBlur_1203_23952" result="shape"/>
</filter>
<filter id="filter3_b_1203_23952" x="29" y="108" width="70" height="70" filterUnits="userSpaceOnUse" color-interpolation-filters="sRGB">
<feFlood flood-opacity="0" result="BackgroundImageFix"/>
<feGaussianBlur in="BackgroundImageFix" stdDeviation="5"/>
<feComposite in2="SourceAlpha" operator="in" result="effect1_backgroundBlur_1203_23952"/>
<feBlend mode="normal" in="SourceGraphic" in2="effect1_backgroundBlur_1203_23952" result="shape"/>
</filter>
<linearGradient id="paint0_linear_1203_23952" x1="26.3566" y1="116.818" x2="251.097" y2="182.509" gradientUnits="userSpaceOnUse">
<stop stop-color="#7D22FF"/>
<stop offset="1" stop-color="white" stop-opacity="0"/>
</linearGradient>
</defs>
</svg>
