<svg width="613" height="299" viewBox="0 0 613 299" fill="none" xmlns="http://www.w3.org/2000/svg">
<path d="M230.87 190.215C225.792 193.442 213.411 203.623 204.52 218.537C200.916 224.582 196.823 228.686 192.642 231.264M253.277 160.997C252.472 160.155 251.177 158.998 249.472 157.728M222.446 218.537C226.27 219.732 232.986 223.197 229.257 227.499C224.597 232.877 225.493 192.545 236.786 176.771C240.308 171.851 243.604 168.186 246.706 165.494M285.363 207.782C285.494 206.336 285.655 203.185 285.677 198.638M280.334 169.85C283.106 173.949 285.087 179.034 285.363 184.837C285.621 190.259 285.695 194.916 285.677 198.638M280.334 169.85C281.234 168.512 284.789 165.944 291.816 166.375C300.599 166.912 305.26 173.365 308.128 181.79C310.422 188.53 311.833 205.75 312.251 213.518M280.334 169.85C278.518 167.164 276.362 164.902 274.124 163.138M285.677 198.638L289.486 207.782M192.69 184.837C193.287 193.143 192.833 210.004 186.237 211.008C177.991 212.263 198.426 171.752 225.314 167.271M225.314 167.271C225.314 168.995 225.314 171.074 225.314 171.899C228.152 171.548 234.421 169.913 236.786 166.182C238.829 163.038 242.378 163.748 242.378 166.182M225.314 167.271L230.534 149.31M233.861 174.979C236.215 173.589 241.215 170.025 242.378 166.888C242.706 165.84 244.57 164.815 245.424 166.182M246.706 165.494C250.587 162.126 254.164 160.281 257.501 159.405M246.706 165.494L249.472 157.728M192.642 231.264C183.93 236.636 174.843 235.382 169.029 231.264C167.242 229.998 165.687 227.89 164.52 225.125C160.913 216.819 162.289 206.273 163.428 202.038C165.262 193.597 169.39 184.212 176.736 174.979C195.327 151.612 217.326 147.071 230.534 149.31M192.642 231.264C197.049 235.223 209.179 243.104 222.446 242.955C235.713 242.806 242.373 239.301 244.045 237.567M257.501 159.405C260.047 158.737 262.454 158.632 264.749 158.846C267.539 159.105 270.916 160.61 274.124 163.138M257.501 159.405C257.667 158.841 257.901 157.218 257.501 155.239C257 152.766 257.286 148.849 259.284 145.726C261.281 142.602 266.799 136.403 267.75 133.644C268.702 130.885 270.319 130.314 271.27 131.076C272.221 131.837 273.268 136.879 270.509 140.113M270.509 140.113C267.75 143.348 268.321 142.587 268.892 144.584C269.463 146.582 269.558 151.053 267.75 153.146M270.509 140.113H274.124M284.113 138.591C284.335 138.115 284.646 136.917 284.113 135.927C283.88 135.495 283.239 135.237 282.367 135.182M276.883 146.487C276.502 145.694 276.103 143.709 277.549 142.111C279.356 140.113 283.162 137.64 285.254 139.257C286.396 140.399 285.73 141.635 285.254 142.111M274.124 163.138C282.02 159.901 288.394 149.704 289.06 148.104C289.726 146.504 289.44 143.538 287.252 142.602C285.064 141.667 282.971 143.823 281.259 145.726C279.889 147.248 280.371 149.012 280.783 149.704C281.322 150.237 282.819 150.984 284.493 149.704C286.168 148.424 287.03 148.104 287.252 148.104M276.709 143.185C275.747 143.652 275.029 142.991 274.79 142.602C274.187 141.551 273.629 138.991 276.217 137.164C276.436 137.01 276.658 136.865 276.883 136.729M276.883 136.729C277.554 134.815 278.911 130.29 278.968 127.507C279.039 124.028 282.66 124.666 282.873 126.087C283.086 127.507 283.474 132.562 282.367 135.182M276.883 136.729C278.816 135.562 280.913 135.09 282.367 135.182M230.534 149.31L232.065 144.044C232.313 143.19 233.096 142.602 233.985 142.602H252.025C253.407 142.602 254.373 143.971 253.909 145.273L249.472 157.728M232.484 114.893H238.739C239.843 114.893 240.739 115.788 240.739 116.893V136.591C240.739 137.696 239.843 138.591 238.739 138.591H213.022V144.584L207.029 138.591H199.814C198.709 138.591 197.814 137.696 197.814 136.591V128.773V116.893C197.814 115.788 198.709 114.893 199.814 114.893H218.719M219.135 121.893C220.398 120.465 223.52 118.166 225.912 120.398C228.902 123.189 226.011 126.245 225.314 126.876C224.756 127.381 220.962 131.272 219.135 133.154L212.159 126.876C210.864 125.78 208.871 122.949 211.262 120.398C213.654 117.847 217.508 120.332 219.135 121.893ZM234.826 149.794C234.869 150.655 235.535 152.387 237.848 152.426C240.16 152.465 240.739 150.688 240.739 149.794C240.782 148.738 240.265 146.616 237.848 146.577C234.826 146.529 234.826 148.868 234.826 149.794Z" stroke="#014F59"/>
<path d="M253.781 189.707C251.895 190.194 248.233 192.171 248.671 196.186C249.109 200.2 253.295 204.489 255.332 206.131C251.47 212.64 243.416 229.289 242.102 243.816C240.595 260.476 242.468 272.604 255.332 274.28M259.073 274.474C258.731 274.48 258.395 274.48 258.065 274.474M269.11 207.135C269.584 209.148 270.081 213.196 269.634 217.685M257.522 257.594C258.216 255.244 259.173 252.046 260.248 248.529M260.248 248.529C262.804 240.165 266.023 229.992 267.924 225.11C268.873 222.675 269.392 220.115 269.634 217.685M260.248 248.529L271.209 254.4M315.19 254.4C313.607 254.251 311.755 254.097 309.715 253.949M255.332 274.28C252.23 269.706 256.975 258.871 269.11 255.039C272.084 254.1 276.497 253.577 281.513 253.333M255.332 274.28C256.193 274.392 257.104 274.458 258.065 274.474M265.734 262.886C263.177 263.951 258.062 267.759 258.065 274.474M271.757 265.35C268.411 266.201 261.993 269.219 263.088 274.474C263.818 275.569 265.096 275.387 267.103 275.387C268.709 275.387 303.723 275.387 321.029 275.387M321.029 275.387C324.923 274.87 332.727 271.792 332.8 263.616C332.873 255.441 331.492 247.8 330.793 245.002C326.291 243.968 315.609 243.597 308.894 250.386M321.029 275.387C326.055 275.387 331.72 275.387 337.797 275.387M295.116 224.198L309.715 253.949M309.715 253.949C304.119 253.544 297.101 253.193 290.301 253.162M273.612 234.605C273.736 238.092 275.904 244.343 283.098 245.812M290.301 253.162C289.522 251.617 287.965 248.036 287.965 246.065C286.132 246.206 284.517 246.102 283.098 245.812M290.301 253.162C287.281 253.148 284.304 253.197 281.513 253.333M283.098 245.812L281.513 253.333M269.634 217.685C271.516 214.168 278.284 207.135 290.301 207.135C305.322 207.135 313.889 213.243 318.674 222.366C322.501 229.665 325.386 235.495 326.351 237.498H337.797M337.797 237.498C340.251 234.23 348.102 227.694 359.879 227.694C368.521 227.694 376.161 232.282 380.994 236.409M337.797 237.498V275.387M385.061 240.478C384.133 239.344 382.748 237.907 380.994 236.409M380.994 236.409H420.315M417.603 241.834C418.507 241.728 420.587 240.134 421.671 234.605C422.594 229.902 427.04 208.761 430.096 194.285M431.55 187.403C430.644 186.581 429.005 183.36 429.701 177.049M431.55 187.403C431.126 189.409 430.632 191.744 430.096 194.285M431.55 187.403C433.222 184.541 437.957 178.845 443.526 178.959C450.487 179.101 450.629 187.403 459.153 187.403M429.701 177.049C427.589 173.82 422.248 165.062 428.21 157.298C432.499 151.713 438.845 151.463 443.526 153.358M429.701 177.049C429.385 174.892 430.343 169.81 436.707 166.741C444.662 162.906 463.415 154.666 467.676 152.251C471.938 149.836 486.286 139.613 490.974 147.989M448.024 156.366C446.926 155.163 445.353 154.097 443.526 153.358M443.526 153.358C446.178 153.036 452.476 150.83 456.454 144.58C461.426 136.766 471.086 128.811 479.61 131.084C488.133 133.357 492.395 138.681 490.974 147.989M490.974 147.989C491.685 149.554 492.509 153.607 490.122 157.298C487.139 161.911 480.036 168.872 472.506 169.867C469.949 171.003 467.676 171.208 467.676 174.129C467.676 174.9 467.439 175.928 467.06 177.049M459.153 187.403C459.816 187.098 461.454 186.204 462.704 185.067C462.969 184.826 463.287 184.437 463.633 183.941M459.153 187.403L458.222 194.285M429.238 275.387C445.489 272.318 450.487 255.861 451.055 247.29L452.526 236.409M430.096 194.285H458.222M458.222 194.285L452.526 236.409M455.459 177.049C456.836 179.255 460.398 183.722 463.633 183.941M463.633 183.941C464.184 183.151 464.804 182.093 465.391 180.941M459.153 174.981C460.092 176.587 462.654 180.027 465.391 180.941M465.391 180.941C466.033 179.68 466.635 178.306 467.06 177.049M462.704 172.14C463.193 173.14 464.748 175.522 467.06 177.049M452.526 236.409L495.662 225.555M495.662 225.555L504.896 222.429M495.662 225.555L499.498 252.688M504.896 222.429V220.014C509.111 221.148 517.995 223.844 519.813 225.555C520.192 225.911 520.468 226.362 520.665 226.891M504.896 222.429C504.896 223.949 504.896 227.891 504.896 231.503C504.896 238.962 513.624 241.834 513.624 247.796C513.624 252.565 507.89 256.975 505.023 258.584M511.715 266.611C502.396 266.611 504.328 272.861 506.459 275.987H523.233C523.639 275.987 525.031 275.987 527.351 275.987M511.715 266.611C511.066 266.259 510.231 265.744 509.37 265.117M511.715 266.611C512.161 266.611 512.605 266.674 513.043 266.789M520.665 273.714C519.45 271.619 516.405 267.671 513.043 266.789M499.498 252.688C497.452 253.939 474.116 266.563 462.704 272.719C459.626 274.377 452.391 275.387 448.072 275.387C444.288 275.387 380.751 275.387 337.797 275.387M499.498 252.688C502.927 254.593 505.107 257.066 505.023 258.584M505.023 258.584C505.014 258.764 504.972 258.931 504.896 259.081C504.896 260.404 505.742 261.757 506.885 262.967M506.885 262.967C508.183 261.28 511.347 257.749 513.624 257.12M506.885 262.967C507.636 263.762 508.516 264.494 509.37 265.117M509.37 265.117C510.232 263.957 512.485 261.382 514.605 260.359M513.043 266.789C513.498 265.73 514.762 263.483 516.176 262.967M520.665 226.891C521.652 229.538 520.665 234.149 520.665 238.766C520.665 244.307 522.015 250.487 529.189 257.661C531.837 260.308 532.752 263.622 532.781 266.789C532.563 269.855 531.172 275.987 527.351 275.987M520.665 226.891C521.184 225.966 522.667 224.116 524.451 224.116C526.681 224.116 532.369 225.525 532.369 232.146C532.369 234.153 531.889 235.811 531.201 237.136M527.351 241.068C528.389 240.591 530.073 239.309 531.201 237.136M531.201 237.136C530.809 240.082 530.629 246.532 533.038 248.763C535.388 251.025 540.069 257.235 540.002 263.979C540.002 274.613 531.568 276.415 527.351 275.987M205.362 231.273L219.502 249.357M239.143 274.474L219.502 249.357M219.502 249.357L213.299 275.387H227.698" stroke="#014F59"/>
<circle cx="267.048" cy="193.717" r="13.6513" stroke="#014F59"/>
<path d="M86.3437 42.4075C89.2579 44.6741 101.426 51.442 106.619 54.641C108.765 55.8571 113.013 59.8019 114.945 66.6367M86.3437 42.4075C85.5155 43.8338 85.7685 45.391 85.0013 47.3845M86.3437 42.4075C84.643 40.7104 84.1816 36.0732 84.1635 33.9667V33.9667C84.1635 23.3644 92.7583 14.7695 103.361 14.7695H104.034C114.637 14.7695 123.231 23.3644 123.231 33.9667V33.9667C123.231 44.569 114.637 53.1639 104.034 53.1639H103.697M115.654 69.989C115.483 68.8031 115.241 67.6859 114.945 66.6367M96.7168 63.6765C103.067 65.0587 113.358 68.711 123.932 75.2085M183.73 85.9559C186.137 84.4947 188.484 81.1832 188.367 78.7984M114.788 121.974C117.428 113.186 120.308 95.9817 110.703 97.4669C103.331 98.607 111.453 113.189 124.553 124.217M193.137 113.558C187.691 99.6248 176.773 93.8078 171.995 92.6409M193.137 113.558C191.684 115.647 189.456 118.314 186.577 121.088M193.137 113.558C195.455 112.378 198.406 110.587 201.235 108.388M199.945 76.4253C205.391 74.3211 206.257 78.777 206.381 81.6238C211.393 81.6238 211.463 85.0336 210.872 87.8721M197.964 80.5098C199.781 76.7628 202.778 70.1798 204.277 65.7276M188.367 78.7984C188.316 77.7491 187.787 76.8791 186.577 76.4253C184.947 75.814 183.338 76.6911 181.655 78.5018M188.367 78.7984C190.024 75.8607 192.865 70.8248 195.226 66.6367M171.995 92.6409C172.587 91.9197 173.159 91.1648 173.705 90.3749C176.691 85.5893 179.249 81.0911 181.655 78.5018M171.995 92.6409C170.505 94.4561 168.888 96.0579 167.254 97.4669M166.352 98.2241C160.82 102.751 155.329 105.119 154.148 106.131C152.294 102.675 150.193 99.4572 147.91 96.4664M166.352 98.2241C171.548 100.681 182.868 108.694 186.577 121.088M166.352 98.2241C166.653 97.9781 166.953 97.7258 167.254 97.4669M186.577 121.088C178.994 128.394 166.894 136.436 152.539 136.58C142.985 136.675 132.786 131.148 124.553 124.217M124.553 124.217C124.519 125.737 124.423 127.547 124.251 129.592M106.531 186.344C118.533 167.54 123.096 143.286 124.251 129.592M106.531 186.344C108.926 205.995 102.986 250.89 104.135 254.738C105.054 257.816 108.808 258.578 110.57 258.574M106.531 186.344C102.819 201.832 91.4803 236.541 75.82 251.464C66.4795 260.364 62.5285 263.328 62.5285 263.328L36.3143 233.283L65.3184 207.156C63.1948 195.707 64.4336 175.41 65.3184 166.692L75.6592 90.3749C76.9323 80.1896 80.3701 59.4195 85.0013 47.3845M124.251 129.592C131.117 148.445 144.236 195.578 141.783 233.283M111.864 51.4256C114.06 52.0951 118.353 54.9966 118.289 59.174C118.276 60.0385 118.171 60.8327 118.004 61.5554M114.945 66.6367C115.808 66.0443 117.365 64.3252 118.004 61.5554M118.004 61.5554C120.067 63.1501 124.141 68.1131 123.932 75.2085M123.932 75.2085C126.072 76.5233 128.224 77.9546 130.356 79.5072M85.0013 47.3845L109.533 62.9497M130.356 79.5072C130.838 78.745 131.376 77.9255 131.963 77.0667M130.356 79.5072C136.626 84.0717 142.734 89.6844 147.91 96.4664M158.044 57.7447C151.576 54.5789 142.225 63.6102 135.615 72.0725M146.935 73.9986C151.526 69.706 161.838 62.5295 166.352 68.1646C171.995 75.2085 156.01 77.6561 151.473 85.9559M135.615 72.0725C139.658 75.0534 148.569 82.3865 151.86 87.8721C152.378 88.8653 152.053 89.9135 151.473 90.8166M135.615 72.0725C134.268 73.7969 133.035 75.4976 131.963 77.0667M149.117 93.2271C149.117 93.2271 137.535 80.5629 131.963 77.0667M149.117 93.2271L147.91 96.4664M149.117 93.2271C149.117 93.2271 150.59 92.1894 151.473 90.8166M154.363 68.1646L166.318 34.7178C167.419 31.6359 170.787 30.0053 173.888 31.0528L247.153 55.8045C250.316 56.8728 251.998 60.3166 250.897 63.4677L233.344 113.714C232.238 116.88 228.752 118.525 225.606 117.365L201.235 108.388M201.235 108.388C207.369 103.619 212.929 96.9281 210.218 90.3749C210.404 89.7028 210.675 88.8193 210.872 87.8721M167.254 97.4669L151.473 90.8166M143.792 247.144C144.332 246.397 145.585 244.505 146.282 242.912C147.153 240.92 148.025 235.443 143.792 234.073C139.56 232.704 137.568 235.443 133.335 242.912C130.458 247.99 125.877 250.191 123.064 250.89M135.452 254.738C137.542 250.67 143.047 243.834 148.342 249.035M135.452 254.738C133.457 255.264 131.764 255.52 130.332 255.572M135.452 254.738C136.827 254.777 139.197 254.983 141.783 255.48M141.783 255.146C143.996 251.542 149.682 245.761 154.727 251.464M149.126 257.809C150.967 253.749 155.878 247.531 160.798 255.146M149.126 257.809C149.509 258.022 150.011 258.287 150.588 258.574M149.126 257.809C146.934 256.696 144.26 255.955 141.783 255.48M157.273 261.013C157.467 258.75 158.873 254.493 162.938 255.572C168.02 256.921 165.367 259.979 170.853 260.654C175.241 261.193 178.767 262.329 179.982 262.829M157.273 261.013C155.351 260.762 152.542 259.545 150.588 258.574M157.273 261.013V265.894M157.273 261.013C159.27 261.459 164.175 262.35 167.819 262.35M157.273 265.894C153.66 265.72 149.49 271.433 147.857 274.312C147.607 274.78 145.793 275.436 140.535 274.312C139.212 274.029 137.789 273.682 136.355 273.306M157.273 265.894C161.789 266.112 164.691 271.99 170.424 271.409C176.156 270.829 175.431 262.304 182.542 262.829C189.653 263.355 192.41 266.402 192.41 271.409C192.41 276.416 190.088 285.051 184.066 285.124C179.247 285.182 144.954 285.148 128.41 285.124H114.788H106.531C104.168 284.635 100.15 282.305 102.986 276.888C105.822 271.472 109.223 262.422 110.57 258.574M123.064 250.89C122.567 251.014 122.126 251.091 121.758 251.128C118.634 255.399 112.997 257.872 110.57 258.574M123.064 250.89C123.06 252.787 124.635 255.782 130.332 255.572M130.332 255.572L124.203 262.35L118.82 267.984L125.664 270.117C126.077 270.256 126.582 270.422 127.159 270.608M150.588 258.574L136.355 273.306M136.355 273.306C132.942 272.41 129.47 271.352 127.159 270.608M141.783 255.48L127.159 270.608M85.727 34.004H107.252M241.33 63.6765L210.218 53.1639M210.872 87.8721L224.276 92.2525C225.666 92.7068 227.057 91.5643 226.883 90.1123L225.199 76.1341C225.038 74.794 225.534 73.4585 226.53 72.5483V72.5483C227.57 71.5986 226.546 69.9084 225.223 70.3907L216.871 73.4345C215.905 73.7865 214.827 73.6272 214.004 73.0111L204.277 65.7276M204.277 65.7276C204.957 63.7088 205.329 62.1282 205.143 61.4485C204.401 58.7255 200.935 56.4976 198.707 60.4584C198.017 61.6849 196.717 63.9917 195.226 66.6367M195.226 66.6367L186.642 59.0491C184.706 57.3373 181.655 58.7122 181.655 61.2968V78.5018M120.648 33.8104V33.8104C120.648 36.0555 118.828 37.8755 116.583 37.8755H111.317C109.072 37.8755 107.252 36.0555 107.252 33.8104V33.8104C107.252 31.5653 109.072 29.7454 111.317 29.7454H116.583C118.828 29.7454 120.648 31.5653 120.648 33.8104Z" stroke="#014F59"/>
<path d="M36.8445 234.932C31.2265 236.443 15.9468 216.942 9.00516 225.555C8.57002 226.095 8.13196 226.631 7.86895 227.336C6.55386 230.865 7.26814 237.041 7.86895 243.166C9.00516 254.75 7.86895 264.884 4.46209 273.638C0.538202 283.721 0.011885 293.112 2.56839 298.067H34.7614C37.602 293.901 40.1774 285.568 27.7547 285.568M36.8445 234.932L44.0406 267.01M36.8445 234.932C36.8445 236.957 36.8445 233.954 36.8445 238.769C36.8445 241.845 35.7313 244.336 34.1936 246.544M27.7547 285.568C28.6202 285.1 29.733 284.413 30.8811 283.577M27.7547 285.568C27.1606 285.568 26.5693 285.652 25.985 285.806M15.8243 295.037C16.7992 293.356 18.6584 290.78 20.9616 288.739M44.0406 267.01C39.4698 269.549 36.5637 272.845 36.6751 274.869M44.0406 267.01L60.645 261.777M36.6751 274.869C36.6884 275.109 36.7441 275.331 36.8445 275.532C36.8445 277.295 35.718 279.099 34.1936 280.712M36.6751 274.869C34.4505 273.62 30.9307 271.107 28.3777 267.97M34.1936 280.712C32.464 278.463 28.246 273.755 25.2106 272.918L16.9251 266.544M34.1936 280.712C33.1923 281.771 32.0193 282.748 30.8811 283.577M30.8811 283.577C29.7323 282.031 26.7283 278.599 23.9022 277.236M25.985 285.806C25.378 284.394 23.6928 281.399 21.8087 280.712L18.803 278.9M25.985 285.806C24.2014 286.274 22.4844 287.39 20.9616 288.739M34.1936 246.544L18.803 236.971C18.1902 239.354 17.447 242.783 16.8524 246.544M34.1936 246.544C32.0936 249.56 29.2019 252.05 27.2726 254.785M16.9251 266.544C15.9611 264.007 15.6917 260.431 15.8243 256.565M16.9251 266.544C19.0545 272.15 19.8701 275.51 18.803 278.9M14.6906 295.037C12.4561 295.037 9.00516 292.39 14.6906 285.568C16.83 283.001 18.1592 280.945 18.803 278.9M20.9616 288.739C21.495 283.88 23.725 272.924 28.3777 267.97M28.3777 267.97C27.3932 266.76 26.5524 265.457 25.985 264.099M27.2726 254.785C26.0476 256.521 25.2106 258.357 25.2106 260.488C25.2106 261.718 25.4964 262.929 25.985 264.099M27.2726 254.785L16.8524 246.544M16.8524 246.544C16.3393 249.789 15.9369 253.282 15.8243 256.565M25.985 264.099L15.8243 256.565" stroke="#014F59"/>
<path d="M431.128 64.7424C437.898 63.2465 451.344 59.0268 450.966 54.1145C450.537 48.5274 424.492 64.2533 426.741 95.2432M438.213 117.881C435.851 116.778 430.561 112.638 428.294 104.891C427.464 101.53 426.964 98.3115 426.741 95.2432M438.213 117.881C438.056 119.691 436.938 123.312 433.726 123.312C434.296 125.251 434.841 129.586 432.466 131.421C430.091 133.257 426.798 131.016 425.448 129.667C425.313 130.881 424.557 133.419 422.614 133.85C422.1 133.965 421.625 133.949 421.195 133.85M438.213 117.881L570.1 76.9362C573.778 75.7944 577.271 74.1275 580.473 71.987L604.07 56.2097C606.536 54.5611 605.369 50.7158 602.403 50.7158H574.337C570.262 50.7158 566.212 51.3383 562.326 52.5617L426.741 95.2432M480.029 78.8123C480.029 67.9174 474.439 40.0526 453.25 38.0282C432.061 36.0037 415.461 59.6219 412.492 76.8969C410.92 86.0391 411.768 93.6693 413.175 99.3476M480.029 104.891C479.776 110.847 480.282 124.977 484.336 133.85C489.404 144.942 495.738 184.214 497.512 199.163M497.512 199.163C499.032 201.697 500.299 206.764 499.792 212.085M497.512 199.163C487.197 205.852 470.578 206.333 463.557 205.737M461.817 184.549C462.639 185.821 462.194 195.528 462.542 199.163C462.89 202.798 463.364 205.06 463.557 205.737M463.557 205.737C462.736 206.054 461.237 207.767 461.817 212.085C462.542 217.482 464.717 224.297 464.717 228.212M464.717 228.212V232.997M464.717 228.212C466.503 226.353 471.071 222.716 475.052 223.043C476.525 223.164 478.02 221.365 479.786 219.054M501.801 223.043C502.347 220.531 503.783 215.795 500.391 212.802C489.728 205.165 483.987 213.558 479.786 219.054M479.786 219.054C480.83 220.359 483.822 223.155 487.441 223.898M456.549 144.192C453.516 138.631 447.157 128.485 453.25 125.666C458.339 123.312 457.839 130.611 451.145 150.294M421.195 133.85C420.003 133.576 419.166 132.658 418.835 132.096C417.305 132.636 413.895 133.095 412.492 130.611C411.972 129.693 411.571 127.882 411.435 125.666M421.195 133.85C417.609 146.859 410.313 179.734 409.82 207.168M409.82 207.168C408.178 208.811 408.588 220.31 408.588 229.756M409.82 207.168C413.092 207.833 420.019 209.021 426.945 208.223M406.542 236.562C406.542 233.644 408.091 227.407 414.288 225.798M414.288 225.798C420.485 224.188 422.594 224.418 423.366 224.854M414.288 225.798C413.953 221.639 415.858 213.685 426.159 215.134M414.992 233.644C415.999 232.605 418.936 230.707 422.638 231.431M413.175 99.3476C414.426 104.399 416.119 107.905 416.945 109.557C412.29 112.842 411.112 120.398 411.435 125.666M413.175 99.3476L331.409 124.296M411.435 125.666L340.076 148.245M322.567 126.994L310.709 130.611C305.034 132.343 294.443 138.272 298.277 148.828C301.345 157.273 311.627 156.955 316.385 155.741L331.409 150.987M322.567 126.994C319.228 129.12 313.317 135.29 316.385 142.959C319.453 150.628 327.679 151.507 331.409 150.987M322.567 126.994L331.409 124.296M331.409 150.987L340.076 148.245M331.409 124.296C328.176 126.43 322.478 132.512 325.545 139.763C328.613 147.015 336.51 148.439 340.076 148.245" stroke="#014F59"/>
<path d="M443.858 17.0578C444.769 13.8447 446.71 11.0642 449.3 9.09473M443.319 22.2986C443.871 30.2044 450.46 36.4464 458.506 36.4464C466.914 36.4464 473.731 29.6301 473.731 21.2218C473.731 18.5152 473.024 15.9736 471.786 13.7711" stroke="#014F59"/>
<path d="M460.805 21.1075L456.585 24.378L448.778 21.213L440.549 22.69L436.329 14.25L448.778 19.103L465.025 17.837L460.805 21.1075ZM460.805 21.1075H473.461" stroke="#014F59"/>
<path d="M452.372 8.08985C452.372 8.08985 468.378 12.9219 472.154 14.2809C472.154 11.0092 470.492 3.9223 463.848 1.74788C457.204 -0.42654 452.926 2.65389 451.617 4.46591C448.396 4.71756 441.742 5.37188 440.896 5.97588C439.839 6.73088 440.896 9.14688 443.161 9.59988C444.973 9.96228 450.057 8.74419 452.372 8.08985Z" stroke="#014F59"/>
</svg>
