<svg width="30" height="30" viewBox="0 0 30 30" fill="none" xmlns="http://www.w3.org/2000/svg">
<g clip-path="url(#clip0_3616_12579)">
<path d="M14.9508 20.6909C18.2876 20.6909 20.9925 17.9859 20.9925 14.6492C20.9925 11.3125 18.2876 8.60756 14.9508 8.60756C11.6141 8.60756 8.90918 11.3125 8.90918 14.6492C8.90918 17.9859 11.6141 20.6909 14.9508 20.6909Z" stroke="#014F59" stroke-width="2" stroke-linecap="round" stroke-linejoin="round"/>
<path d="M14.9512 1.35756V3.77423" stroke="#014F59" stroke-width="2" stroke-linecap="round" stroke-linejoin="round"/>
<path d="M14.9512 25.5242V27.9409" stroke="#014F59" stroke-width="2" stroke-linecap="round" stroke-linejoin="round"/>
<path d="M5.55078 5.2484L7.26661 6.96423" stroke="#014F59" stroke-width="2" stroke-linecap="round" stroke-linejoin="round"/>
<path d="M22.6357 22.3342L24.3516 24.0501" stroke="#014F59" stroke-width="2" stroke-linecap="round" stroke-linejoin="round"/>
<path d="M1.65918 14.6492H4.07585" stroke="#014F59" stroke-width="2" stroke-linecap="round" stroke-linejoin="round"/>
<path d="M25.8262 14.6492H28.2428" stroke="#014F59" stroke-width="2" stroke-linecap="round" stroke-linejoin="round"/>
<path d="M5.55078 24.0501L7.26661 22.3342" stroke="#014F59" stroke-width="2" stroke-linecap="round" stroke-linejoin="round"/>
<path d="M22.6357 6.96423L24.3516 5.2484" stroke="#014F59" stroke-width="2" stroke-linecap="round" stroke-linejoin="round"/>
</g>
<defs>
<clipPath id="clip0_3616_12579">
<rect width="29" height="29" fill="white" transform="translate(0.451172 0.149231)"/>
</clipPath>
</defs>
</svg>
