<svg width="1218" height="46" viewBox="0 0 1218 46" fill="none" xmlns="http://www.w3.org/2000/svg">
<mask id="mask0_6463_109227" style="mask-type:alpha" maskUnits="userSpaceOnUse" x="0" y="0" width="1218" height="46">
<g clip-path="url(#clip0_6463_109227)">
<path d="M67.547 13.2327C67.547 14.5903 66.3858 15.6839 64.9444 15.6839C63.5029 15.6839 62.3418 14.5903 62.3418 13.2327C62.3418 11.8751 63.4629 10.7815 64.9444 10.7815C66.4258 10.8192 67.547 11.9128 67.547 13.2327ZM56.8162 18.1728C56.8162 18.399 56.8162 18.7761 56.8162 18.7761C56.8162 18.7761 55.575 17.2677 52.9324 17.2677C48.568 17.2677 45.1646 20.3977 45.1646 24.7344C45.1646 29.0334 48.5279 32.2011 52.9324 32.2011C55.615 32.2011 56.8162 30.655 56.8162 30.655V31.2961C56.8162 31.5978 57.0565 31.824 57.3768 31.824H60.62V17.6448C60.62 17.6448 57.6571 17.6448 57.3768 17.6448C57.0565 17.6448 56.8162 17.9088 56.8162 18.1728ZM56.8162 27.261C56.2156 28.0907 55.0144 28.8072 53.573 28.8072C51.0104 28.8072 49.0485 27.2987 49.0485 24.7344C49.0485 22.1701 51.0104 20.6617 53.573 20.6617C54.9744 20.6617 56.2557 21.4159 56.8162 22.2078V27.261ZM63.0224 17.6448H66.8663V31.824H63.0224V17.6448ZM120.44 17.2677C117.797 17.2677 116.556 18.7761 116.556 18.7761V10.8192H112.712V31.824C112.712 31.824 115.675 31.824 115.955 31.824C116.276 31.824 116.516 31.56 116.516 31.2961V30.655C116.516 30.655 117.757 32.2011 120.4 32.2011C124.764 32.2011 128.168 29.0334 128.168 24.7344C128.168 20.4354 124.764 17.2677 120.44 17.2677ZM119.799 28.7695C118.318 28.7695 117.157 28.053 116.556 27.2233V22.1701C117.157 21.4159 118.438 20.624 119.799 20.624C122.362 20.624 124.324 22.1324 124.324 24.6967C124.324 27.261 122.362 28.7695 119.799 28.7695ZM110.71 23.4145V31.8617H106.866V23.8294C106.866 21.4913 106.065 20.5485 103.903 20.5485C102.742 20.5485 101.541 21.1142 100.78 21.9438V31.824H96.9363V17.6448H99.9794C100.3 17.6448 100.54 17.9088 100.54 18.1728V18.7761C101.661 17.6825 103.143 17.2677 104.624 17.2677C106.306 17.2677 107.707 17.7202 108.828 18.6253C110.19 19.6812 110.71 21.0388 110.71 23.4145ZM87.607 17.2677C84.9644 17.2677 83.7231 18.7761 83.7231 18.7761V10.8192H79.8793V31.824C79.8793 31.824 82.8423 31.824 83.1225 31.824C83.4429 31.824 83.6831 31.56 83.6831 31.2961V30.655C83.6831 30.655 84.9243 32.2011 87.567 32.2011C91.9313 32.2011 95.3347 29.0334 95.3347 24.7344C95.3748 20.4354 91.9714 17.2677 87.607 17.2677ZM86.9664 28.7695C85.4849 28.7695 84.3237 28.053 83.7231 27.2233V22.1701C84.3237 21.4159 85.605 20.624 86.9664 20.624C89.5289 20.624 91.4909 22.1324 91.4909 24.6967C91.4909 27.261 89.5289 28.7695 86.9664 28.7695ZM76.556 17.2677C77.7171 17.2677 78.3177 17.4563 78.3177 17.4563V20.8125C78.3177 20.8125 75.1145 19.7943 73.1125 21.9438V31.8617H69.2687V17.6448C69.2687 17.6448 72.2317 17.6448 72.5119 17.6448C72.8322 17.6448 73.0725 17.9088 73.0725 18.1728V18.7761C73.7932 17.9842 75.3548 17.2677 76.556 17.2677ZM36.6361 30.5419C36.4359 30.0893 36.2357 29.5991 36.0355 29.1843C35.7151 28.5055 35.3948 27.8644 35.1145 27.261L35.0745 27.2233C32.3117 21.5667 29.3488 15.8347 26.2257 10.1781L26.1055 9.95184C25.7852 9.38618 25.4649 8.78281 25.1446 8.17944C24.7442 7.50065 24.3438 6.78415 23.7031 6.10536C22.4218 4.59693 20.58 3.7673 18.618 3.7673C16.616 3.7673 14.8142 4.59693 13.4929 6.02993C12.8923 6.70873 12.4519 7.42523 12.0515 8.10402C11.7312 8.70739 11.4108 9.31076 11.0905 9.87642L10.9704 10.1027C7.88732 15.7593 4.88431 21.4913 2.12155 27.1479L2.08151 27.2233C1.80123 27.8267 1.48091 28.4678 1.16059 29.1466C0.960391 29.5614 0.760191 30.0139 0.559991 30.5041C0.0394705 31.8994 -0.12069 33.2193 0.0795105 34.5769C0.519951 37.4052 2.52195 39.781 5.28471 40.8369C6.32576 41.2517 7.40684 41.4402 8.52796 41.4402C8.84828 41.4402 9.24868 41.4025 9.569 41.3648C10.8903 41.214 12.2517 40.7992 13.573 40.0826C15.2146 39.2153 16.7762 37.9709 18.538 36.1607C20.2997 37.9709 21.9013 39.2153 23.5029 40.0826C24.8243 40.7992 26.1856 41.214 27.5069 41.3648C27.8272 41.4025 28.2277 41.4402 28.548 41.4402C29.6691 41.4402 30.7902 41.2517 31.7912 40.8369C34.594 39.781 36.556 37.3675 36.9964 34.5769C37.3167 33.257 37.1566 31.9371 36.6361 30.5419ZM18.578 32.5028C16.4158 29.9385 15.0144 27.525 14.534 25.4886C14.3338 24.6213 14.2937 23.8671 14.4138 23.1883C14.4939 22.5849 14.7342 22.057 15.0545 21.6044C15.8152 20.5862 17.0965 19.9452 18.578 19.9452C20.0595 19.9452 21.3808 20.5485 22.1015 21.6044C22.4218 22.057 22.6621 22.5849 22.7422 23.1883C22.8623 23.8671 22.8222 24.659 22.622 25.4886C22.1416 27.4873 20.7402 29.9008 18.578 32.5028ZM34.554 34.2752C34.2737 36.2362 32.8723 37.9331 30.9103 38.6874C29.9494 39.0645 28.9083 39.1776 27.8673 39.0645C26.8663 38.9513 25.8653 38.6496 24.8243 38.084C23.3828 37.3298 21.9414 36.1607 20.2597 34.4261C22.9023 31.3715 24.5039 28.5809 25.1045 26.092C25.3848 24.923 25.4249 23.8671 25.3047 22.8866C25.1446 21.9438 24.7842 21.0765 24.2236 20.3223C22.9824 18.6253 20.9003 17.6448 18.578 17.6448C16.2557 17.6448 14.1736 18.663 12.9324 20.3223C12.3718 21.0765 12.0114 21.9438 11.8513 22.8866C11.6911 23.8671 11.7312 24.9607 12.0515 26.092C12.6521 28.5809 14.2937 31.4092 16.8963 34.4638C15.2547 36.1985 13.7732 37.3675 12.3318 38.1217C11.2907 38.6874 10.2897 38.989 9.28872 39.1022C8.20764 39.2153 7.1666 39.0645 6.24568 38.7251C4.28371 37.9709 2.88231 36.2739 2.60203 34.3129C2.48191 33.3702 2.56199 32.4274 2.96239 31.3715C3.08251 30.9944 3.28271 30.6173 3.48291 30.1647C3.76319 29.5614 4.08351 28.9203 4.40383 28.2792L4.44387 28.2038C7.20664 22.5849 10.1696 16.8529 13.2527 11.2717L13.3728 11.0455C13.6931 10.4798 14.0134 9.87642 14.3338 9.31076C14.6541 8.70739 15.0144 8.14173 15.4549 7.65149C16.2957 6.74644 17.4168 6.2562 18.6581 6.2562C19.8993 6.2562 21.0204 6.74644 21.8613 7.65149C22.3017 8.14173 22.6621 8.70739 22.9824 9.31076C23.3027 9.87642 23.623 10.4798 23.9434 11.0455L24.0635 11.2717C27.1065 16.8906 30.0695 22.6226 32.8323 28.2415V28.2792C33.1526 28.8826 33.4329 29.5614 33.7532 30.1647C33.9534 30.6173 34.1536 30.9944 34.2737 31.3715C34.594 32.352 34.7141 33.2947 34.554 34.2752Z" fill="#1C1C1C"/>
</g>
<g clip-path="url(#clip1_6463_109227)">
<path d="M352.266 19.1533C353.254 20.1404 353.751 21.4786 353.751 23.1742V32.094H350.086V24.1854C350.086 23.1863 349.787 22.3991 349.187 21.8238C348.588 21.2485 347.779 20.9579 346.753 20.9579C345.542 20.976 344.579 21.3696 343.872 22.1326C343.164 22.8956 342.807 23.8766 342.807 25.0696V32.094H339.168V12.2742H342.807V20.5279C343.833 18.6568 345.637 17.706 348.212 17.6697C349.92 17.6697 351.278 18.1602 352.266 19.1533ZM331.073 20.7399C329.862 20.7399 328.874 21.1335 328.122 21.9146C327.37 22.7018 326.988 23.7131 326.988 24.9606C326.988 26.2443 327.37 27.2738 328.122 28.061C328.881 28.8421 329.862 29.2358 331.08 29.2358C332.871 29.2358 334.215 28.6726 335.114 27.5523L337.383 29.3448C336.714 30.2713 335.796 31.01 334.725 31.4824C333.623 31.9789 332.348 32.2272 330.888 32.2272C329.416 32.2272 328.103 31.9244 326.956 31.3189C325.828 30.7315 324.897 29.8413 324.285 28.7695C323.648 27.6734 323.329 26.4139 323.329 24.9908C323.329 23.5496 323.654 22.2719 324.298 21.1698C324.916 20.0859 325.853 19.2018 326.988 18.6083C328.135 18.0028 329.454 17.7 330.952 17.7C332.316 17.7 333.533 17.924 334.604 18.3782C335.675 18.8324 336.548 19.4803 337.224 20.316L335.012 22.3203C333.986 21.2667 332.679 20.7399 331.073 20.7399ZM321.003 17.8029V32.094H317.363V29.8231C316.847 30.5861 316.127 31.2099 315.279 31.6277C314.431 32.0455 313.456 32.2575 312.354 32.2575C310.932 32.2575 309.689 31.9486 308.612 31.337C307.541 30.7254 306.7 29.8595 306.107 28.7453C305.514 27.631 305.215 26.3533 305.215 24.9121C305.215 23.4891 305.514 22.2295 306.114 21.1335C306.706 20.0374 307.548 19.1896 308.618 18.5841C309.689 17.9785 310.926 17.6758 312.328 17.6758C313.431 17.6758 314.412 17.8877 315.266 18.3055C316.12 18.7234 316.847 19.341 317.363 20.1101V17.815L321.003 17.8029ZM316.044 28.285C316.809 27.5826 317.249 26.65 317.363 25.4934V24.4822C317.249 23.3195 316.815 22.393 316.05 21.6906C315.285 20.9881 314.317 20.6369 313.137 20.6369C311.888 20.6369 310.868 21.0426 310.084 21.8541C309.3 22.6655 308.899 23.7131 308.88 24.9908C308.899 26.2746 309.3 27.3162 310.084 28.1276C310.868 28.939 311.888 29.3448 313.137 29.3448C314.31 29.3448 315.279 28.9935 316.044 28.285ZM301.55 19.6438C302.755 20.9457 303.354 22.7685 303.354 25.118C303.354 25.5782 303.341 25.9294 303.328 26.1596H292.27C292.512 27.1769 293.009 27.9702 293.768 28.5515C294.52 29.1328 295.45 29.4174 296.553 29.4174C297.305 29.4174 298.057 29.2781 298.752 28.9996C299.447 28.7331 300.071 28.3274 300.588 27.8127L302.544 29.7626C301.786 30.5559 300.855 31.1735 299.81 31.5792C298.739 32.0092 297.547 32.2211 296.241 32.2211C294.711 32.2211 293.36 31.9184 292.193 31.3128C291.052 30.7315 290.109 29.8413 289.491 28.7634C288.853 27.6674 288.541 26.4078 288.541 24.9848C288.541 23.5617 288.86 22.2961 289.51 21.194C290.135 20.1101 291.072 19.2139 292.212 18.6144C293.372 17.9967 294.685 17.6939 296.158 17.6939C298.548 17.6939 300.345 18.3479 301.55 19.6438ZM300.027 23.8403C299.988 22.7866 299.625 21.951 298.937 21.3272C298.248 20.7035 297.331 20.3886 296.19 20.3886C295.125 20.3886 294.233 20.6975 293.513 21.3091C292.792 21.9207 292.353 22.7624 292.181 23.8342H300.027V23.8403ZM284.583 18.4327C285.45 17.9422 286.463 17.6879 287.623 17.6697V21.0366C286.075 20.9457 284.838 21.2909 283.914 22.066C282.99 22.8411 282.524 23.8887 282.524 25.2028V32.094H278.885V17.8029H282.524V20.5521C283.034 19.6256 283.716 18.9171 284.583 18.4327ZM276.157 31.2099C274.965 31.9062 273.709 32.2514 272.403 32.2514C271.115 32.2514 270.057 31.8881 269.241 31.1675C268.419 30.4469 268.011 29.3811 268.011 27.9762V14.4603L271.625 14.0485V18.3843H275.908V20.9215H271.625V27.3646C271.625 28.0247 271.753 28.4909 272.014 28.7634C272.275 29.042 272.664 29.1752 273.187 29.1752C273.748 29.1752 274.455 28.9814 275.316 28.5878L276.157 31.2099ZM261.268 17.8029H264.882V25.8144C264.882 30.4893 261.459 32.2272 257.985 32.2272C254.512 32.2272 251.095 30.4893 251.095 25.8144V17.8029H254.709V25.9355C254.709 27.7279 256.112 29.1813 257.992 29.1813C259.872 29.1813 261.274 27.7279 261.274 25.9355L261.268 17.8029ZM243.606 14.4118C245.168 15.2172 246.468 16.4102 247.373 17.8574C248.291 19.3168 248.743 20.9397 248.743 22.72C248.743 24.5003 248.285 26.1232 247.373 27.5947C246.468 29.0541 245.168 30.2591 243.606 31.0827C242.006 31.9365 240.241 32.3665 238.297 32.3665C236.353 32.3665 234.587 31.9365 232.994 31.0827C231.432 30.2591 230.132 29.0541 229.227 27.5947C228.316 26.1232 227.857 24.5003 227.857 22.72C227.857 20.9397 228.316 19.3168 229.227 17.8574C230.132 16.4041 231.432 15.2172 232.994 14.4118C234.587 13.5762 236.359 13.1583 238.297 13.1583C240.241 13.1523 242.013 13.5701 243.606 14.4118ZM235.027 17.2034C234.014 17.7484 233.172 18.5417 232.592 19.4985C231.993 20.4734 231.694 21.5452 231.694 22.72C231.694 23.8948 232 24.9727 232.605 25.9537C233.191 26.9165 234.033 27.7158 235.04 28.279C236.06 28.8482 237.162 29.1328 238.361 29.1328C239.514 29.1389 240.649 28.8421 241.637 28.279C242.637 27.7158 243.46 26.9165 244.033 25.9537C244.626 24.9666 244.926 23.8524 244.913 22.72C244.913 21.5452 244.62 20.4734 244.033 19.4985C243.466 18.5478 242.637 17.7545 241.637 17.2034C240.642 16.6463 239.514 16.3557 238.361 16.3617C237.188 16.3557 236.041 16.6463 235.027 17.2034ZM200.43 5.14082C205.587 5.14082 213.376 6.64865 216.996 10.1064C217.914 10.9844 219.118 12.6981 219.118 15.2172C219.118 19.6862 215.339 26.5471 211.17 30.5316C209.016 32.5905 205.587 35.2792 200.972 35.2792C196.46 35.2792 193.018 32.3604 192.023 31.4036C188.199 27.7582 185.465 22.2235 185.465 17.0702C185.465 13.8123 186.44 10.9662 188.919 8.59853C191.214 6.41248 195.172 5.14082 200.43 5.14082ZM206.811 22.9743C208.551 21.3151 209.022 19.2684 209.022 18.142C209.022 17.3245 208.799 16.1316 207.728 15.1082C206.09 13.5398 204.267 13.0978 202.292 13.0978C199.787 13.0978 198.104 13.8547 196.982 14.9205C196.103 15.7683 195.344 17.052 195.344 18.8869C195.344 20.7156 196.37 22.4838 197.479 23.5496C198.512 24.5306 200.131 25.2573 201.756 25.2573C203.388 25.2573 205.071 24.6336 206.811 22.9743Z" fill="#1C1C1C"/>
</g>
<g clip-path="url(#clip2_6463_109227)">
<path fill-rule="evenodd" clip-rule="evenodd" d="M534.885 30.1198C534.961 30.9388 535.656 31.9812 536.862 31.9812H537.567C537.841 31.9812 538.064 31.7702 538.064 31.5126V16.909H538.061C538.047 16.663 537.831 16.4659 537.567 16.4659H535.383C535.118 16.4659 534.902 16.663 534.888 16.909H534.885V18.0956C533.546 16.5417 531.436 15.8967 529.32 15.8967C524.51 15.8967 520.61 19.5721 520.61 24.1063C520.61 28.6407 524.51 32.3162 529.32 32.3162C531.436 32.3162 533.743 31.5427 534.885 30.118V30.1198ZM529.328 29.443C526.269 29.443 523.789 27.0538 523.789 24.1063C523.789 21.1592 526.269 18.77 529.328 18.77C532.388 18.77 534.868 21.1592 534.868 24.1063C534.868 27.0538 532.388 29.443 529.328 29.443Z" fill="#0D0E10"/>
<path fill-rule="evenodd" clip-rule="evenodd" d="M517.848 23.0653C517.848 18.8056 514.997 15.9319 510.45 15.9319C508.28 15.9319 506.501 17.1148 505.872 18.1309C505.737 17.3364 505.289 16.5012 503.901 16.5012H503.194C502.92 16.5012 502.697 16.7123 502.697 16.97V30.1563C502.697 30.1568 502.697 30.1577 502.697 30.1584V31.5749H502.7C502.714 31.8205 502.93 32.0177 503.194 32.0177H505.379C505.412 32.0177 505.445 32.014 505.477 32.0082C505.491 32.0055 505.505 32.0002 505.519 31.9964C505.535 31.9917 505.552 31.9881 505.567 31.9821C505.587 31.9745 505.604 31.9643 505.622 31.9548C505.631 31.9497 505.641 31.9461 505.649 31.9408C505.671 31.9275 505.691 31.9116 505.71 31.8953C505.713 31.8923 505.717 31.8903 505.72 31.8875C505.742 31.8677 505.762 31.8458 505.779 31.8231C505.834 31.7524 505.867 31.6668 505.873 31.5749H505.876V22.9481C505.876 20.6603 507.844 18.8056 510.271 18.8056C512.698 18.8056 514.666 20.6603 514.666 22.9481L514.668 30.1589L514.669 30.1563C514.669 30.1628 514.67 30.1693 514.67 30.1761V31.5749H514.673C514.687 31.8205 514.903 32.0177 515.167 32.0177H517.352C517.385 32.0177 517.418 32.014 517.45 32.0082C517.463 32.0059 517.475 32.001 517.487 31.9977C517.505 31.9928 517.523 31.9886 517.541 31.9821C517.558 31.9751 517.575 31.9654 517.592 31.9564C517.602 31.9509 517.613 31.947 517.623 31.9408C517.643 31.9282 517.661 31.9132 517.68 31.8983C517.684 31.8942 517.689 31.8912 517.694 31.8872C517.714 31.8683 517.733 31.848 517.75 31.8267C517.751 31.8251 517.752 31.8238 517.753 31.8222C517.807 31.7521 517.84 31.6674 517.846 31.576C517.846 31.5754 517.846 31.5749 517.846 31.5749H517.849L517.848 23.0653Z" fill="#0D0E10"/>
<path fill-rule="evenodd" clip-rule="evenodd" d="M495.096 30.1198C495.172 30.9387 495.868 31.9811 497.073 31.9811H497.778C498.051 31.9811 498.275 31.7702 498.275 31.5126V16.909H498.272C498.258 16.663 498.042 16.4659 497.778 16.4659H495.593C495.329 16.4659 495.113 16.663 495.099 16.909H495.096V18.0956C493.757 16.5417 491.647 15.8967 489.531 15.8967C484.721 15.8967 480.821 19.5721 480.821 24.1063C480.821 28.6407 484.721 32.3162 489.531 32.3162C491.647 32.3162 493.953 31.5428 495.096 30.1179L495.096 30.1198ZM489.539 29.4429C486.48 29.4429 484 27.0539 484 24.1063C484 21.1592 486.48 18.77 489.539 18.77C492.599 18.77 495.079 21.1592 495.079 24.1063C495.079 27.0539 492.599 29.4429 489.539 29.4429Z" fill="#0D0E10"/>
<path fill-rule="evenodd" clip-rule="evenodd" d="M467.902 28.0282C469.361 28.9806 470.952 29.4431 472.482 29.4431C473.94 29.4431 475.446 28.731 475.446 27.4914C475.446 25.8366 472.163 25.5791 470.101 24.9183C468.037 24.2575 466.26 22.8915 466.26 20.6794C466.26 17.2945 469.46 15.8965 472.447 15.8965C474.339 15.8965 476.292 16.4846 477.557 17.3271C477.993 17.6385 477.728 17.9959 477.728 17.9959L476.519 19.6225C476.384 19.8057 476.146 19.964 475.805 19.7657C475.464 19.5676 474.269 18.7699 472.447 18.7699C470.625 18.7699 469.527 19.5631 469.527 20.5462C469.527 21.7251 470.954 22.0958 472.624 22.4977C475.536 23.2375 478.713 24.1267 478.713 27.4914C478.713 30.4738 475.753 32.3169 472.482 32.3169C470.003 32.3169 467.893 31.6508 466.123 30.4266C465.754 30.0787 466.012 29.7557 466.012 29.7557L467.214 28.1374C467.459 27.8348 467.767 27.9404 467.902 28.0282Z" fill="#0D0E10"/>
<path fill-rule="evenodd" clip-rule="evenodd" d="M459.503 30.1198C459.58 30.9387 460.275 31.9811 461.48 31.9811H462.185C462.459 31.9811 462.683 31.7702 462.683 31.5126V16.909H462.68C462.665 16.663 462.449 16.4659 462.185 16.4659H460.001C459.736 16.4659 459.521 16.663 459.506 16.909H459.503V18.0956C458.165 16.5417 456.055 15.8967 453.938 15.8967C449.128 15.8967 445.229 19.5721 445.229 24.1063C445.229 28.6407 449.128 32.3162 453.938 32.3162C456.055 32.3162 458.361 31.5428 459.503 30.1179L459.503 30.1198ZM453.947 29.4429C450.887 29.4429 448.407 27.0539 448.407 24.1063C448.407 21.1592 450.887 18.77 453.947 18.77C457.006 18.77 459.486 21.1592 459.486 24.1063C459.486 27.0539 457.006 29.4429 453.947 29.4429Z" fill="#0D0E10"/>
<path fill-rule="evenodd" clip-rule="evenodd" d="M433.017 24.6645C429.78 24.6645 427.156 27.1361 427.156 30.1851C427.156 33.234 429.78 35.7055 433.017 35.7055C436.254 35.7055 438.879 33.234 438.879 30.1851C438.879 27.1361 436.254 24.6645 433.017 24.6645ZM417.789 24.6651C414.552 24.6651 411.928 27.1361 411.928 30.1851C411.928 33.234 414.552 35.7055 417.789 35.7055C421.026 35.7055 423.651 33.234 423.651 30.1851C423.651 27.1361 421.026 24.6651 417.789 24.6651ZM431.264 17.7639C431.264 20.813 428.64 23.2848 425.403 23.2848C422.166 23.2848 419.542 20.813 419.542 17.7639C419.542 14.7155 422.166 12.2437 425.403 12.2437C428.64 12.2437 431.264 14.7155 431.264 17.7639Z" fill="#1C1C1C"/>
</g>
<g clip-path="url(#clip3_6463_109227)">
<path d="M644.63 24.1579C644.63 29.1714 640.466 32.8658 635.355 32.8658C630.244 32.8658 626.08 29.1714 626.08 24.1579C626.08 19.109 630.244 15.4499 635.355 15.4499C640.466 15.4499 644.63 19.109 644.63 24.1579ZM640.57 24.1579C640.57 21.0249 638.156 18.8813 635.355 18.8813C632.554 18.8813 630.14 21.0249 630.14 24.1579C630.14 27.2595 632.554 29.4345 635.355 29.4345C638.156 29.4345 640.57 27.2555 640.57 24.1579Z" fill="#1C1C1C"/>
<path d="M664.64 24.1579C664.64 29.1714 660.476 32.8658 655.365 32.8658C650.254 32.8658 646.09 29.1714 646.09 24.1579C646.09 19.1129 650.254 15.45 655.365 15.45C660.476 15.45 664.64 19.109 664.64 24.1579ZM660.58 24.1579C660.58 21.0249 658.166 18.8813 655.365 18.8813C652.564 18.8813 650.15 21.0249 650.15 24.1579C650.15 27.2595 652.564 29.4345 655.365 29.4345C658.166 29.4345 660.58 27.2555 660.58 24.1579Z" fill="#1C1C1C"/>
<path d="M683.815 15.976V31.6095C683.815 38.0404 679.788 40.6669 675.027 40.6669C670.546 40.6669 667.849 37.8441 666.832 35.5356L670.367 34.1497C670.996 35.567 672.539 37.2395 675.023 37.2395C678.07 37.2395 679.959 35.4688 679.959 32.1356V30.8832H679.817C678.908 31.9393 677.157 32.8619 674.948 32.8619C670.325 32.8619 666.09 29.0694 666.09 24.1893C666.09 19.2739 670.325 15.45 674.948 15.45C677.153 15.45 678.904 16.3726 679.817 17.3973H679.959V15.98H683.815V15.976ZM680.246 24.1893C680.246 21.1231 678.074 18.8813 675.311 18.8813C672.509 18.8813 670.163 21.1231 670.163 24.1893C670.163 27.2241 672.509 29.4345 675.311 29.4345C678.074 29.4345 680.246 27.2241 680.246 24.1893Z" fill="#1C1C1C"/>
<path d="M690.171 6.81276V32.332H686.211V6.81276H690.171Z" fill="#1C1C1C"/>
<path d="M705.604 27.0239L708.755 29.0026C707.738 30.4199 705.287 32.8619 701.052 32.8619C695.8 32.8619 691.877 29.038 691.877 24.154C691.877 18.9755 695.833 15.446 700.598 15.446C705.396 15.446 707.742 19.0423 708.509 20.9857L708.93 21.975L696.571 26.7962C697.517 28.5433 698.988 29.4345 701.052 29.4345C703.12 29.4345 704.553 28.4765 705.604 27.0239ZM695.904 23.8909L704.166 20.6598C703.711 19.5723 702.344 18.8146 700.735 18.8146C698.672 18.8146 695.8 20.5303 695.904 23.8909Z" fill="#1C1C1C"/>
<path d="M611.09 21.8924V18.198H624.308C624.438 18.8419 624.504 19.6036 624.504 20.428C624.504 23.1998 623.7 26.6272 621.107 29.0692C618.585 31.5426 615.363 32.8618 611.094 32.8618C603.182 32.8618 596.529 26.7921 596.529 19.3405C596.529 11.8889 603.182 5.81925 611.094 5.81925C615.471 5.81925 618.589 7.43678 620.932 9.54506L618.164 12.1519C616.484 10.6679 614.208 9.51365 611.09 9.51365C605.312 9.51365 600.794 13.899 600.794 19.3405C600.794 24.782 605.312 29.1674 611.09 29.1674C614.838 29.1674 616.972 27.7501 618.339 26.4623C619.448 25.418 620.177 23.9261 620.465 21.8885L611.09 21.8924Z" fill="#1C1C1C"/>
</g>
<g clip-path="url(#clip4_6463_109227)">
<path d="M796.234 32.0097V11.3317H799.646V19.4838C800.72 17.9769 802.331 17.2232 804.479 17.2227C806.311 17.2227 807.727 17.7334 808.728 18.7548C809.728 19.7763 810.229 21.1995 810.229 23.0243V32.0097H806.818V23.4707C806.818 21.1106 805.701 19.9304 803.469 19.9301C802.352 19.9301 801.436 20.2474 800.721 20.8821C800.005 21.5169 799.647 22.4095 799.646 23.5599V32.0095L796.234 32.0097Z" fill="#1C1C1C"/>
<path d="M826.35 30.225C824.834 31.6532 822.928 32.3672 820.632 32.3672C818.337 32.3672 816.426 31.6532 814.899 30.225C813.372 28.7968 812.608 26.9816 812.608 24.7794C812.609 22.5774 813.372 20.7675 814.899 19.35C816.426 17.9321 818.337 17.223 820.632 17.2226C822.928 17.2223 824.834 17.9314 826.35 19.35C827.867 20.7684 828.625 22.5782 828.625 24.7794C828.625 26.9807 827.867 28.7959 826.35 30.225ZM817.395 28.4099C818.205 29.3024 819.284 29.7488 820.632 29.7488C821.981 29.7488 823.06 29.3024 823.87 28.4099C824.681 27.5173 825.086 26.3072 825.087 24.7794C825.087 23.2722 824.676 22.0722 823.855 21.1794C823.033 20.2867 821.959 19.8404 820.632 19.8405C819.284 19.8405 818.205 20.2819 817.395 21.1645C816.584 22.0472 816.178 23.2519 816.178 24.7788C816.178 26.3072 816.584 27.5175 817.395 28.4099Z" fill="#1C1C1C"/>
<path d="M836.521 32.3667C833.383 32.3667 831.814 30.7798 831.814 27.6062V20.2871H829.445V17.5797H831.909L832.699 13.3259H835.257V17.5797H841.354V20.2871H835.257V27.5171C835.257 28.8462 835.773 29.5107 836.805 29.5106C837.774 29.5106 838.648 28.6774 839.427 27.0112L842.081 28.2907C840.775 31.0083 838.922 32.3669 836.521 32.3667Z" fill="#1C1C1C"/>
<path d="M843.178 38.6148C841.661 38.6148 840.408 38.2181 839.418 37.4246L840.682 34.8957C841.293 35.5697 841.956 35.9071 842.672 35.9077C843.62 35.9077 844.094 35.3326 844.094 34.1821V17.5797H847.505V34.2409C847.505 35.788 847.1 36.9037 846.289 37.5879C845.478 38.2722 844.441 38.6144 843.178 38.6148ZM845.8 15.1398C845.239 15.1578 844.693 14.9652 844.283 14.6044C844.086 14.4293 843.931 14.2168 843.827 13.9808C843.724 13.7449 843.675 13.4909 843.683 13.2358C843.676 12.9786 843.725 12.7227 843.828 12.4845C843.932 12.2463 844.087 12.0309 844.283 11.8522C844.696 11.4982 845.234 11.3019 845.792 11.3019C846.35 11.3019 846.888 11.4982 847.3 11.8522C847.501 12.0287 847.66 12.2433 847.766 12.4818C847.872 12.7203 847.923 12.9773 847.916 13.2358C847.921 13.4897 847.869 13.7416 847.763 13.975C847.656 14.2083 847.499 14.4178 847.3 14.5895C847.101 14.7697 846.866 14.9111 846.608 15.0056C846.351 15.1 846.076 15.1456 845.8 15.1398Z" fill="#1C1C1C"/>
<path d="M855.978 32.3668C854.23 32.3668 852.813 31.9552 851.729 31.1322C850.645 30.309 850.102 29.2035 850.102 27.8155C850.102 26.5461 850.665 25.4699 851.792 24.5866C852.919 23.7035 854.335 23.2622 856.041 23.2628C857.789 23.2628 859.263 23.7884 860.464 24.8397V23.0841C860.464 22.053 860.185 21.2547 859.626 20.689C859.068 20.1233 858.273 19.8407 857.242 19.841C855.157 19.841 853.861 20.8426 853.356 22.8459L850.228 22.2211C850.649 20.6741 851.481 19.4543 852.724 18.5617C853.967 17.6691 855.515 17.2228 857.368 17.2228C859.39 17.2228 860.985 17.7237 862.154 18.7254C863.323 19.7271 863.907 21.1899 863.907 23.1137V32.0098H860.59V30.1947C859.473 31.6429 857.936 32.367 855.978 32.3668ZM856.609 29.9866C858.125 29.9866 859.41 29.2726 860.464 27.8446V27.3978C859.41 26.2078 858.125 25.6127 856.609 25.6128C855.725 25.6128 855.008 25.8163 854.46 26.2232C854.201 26.4031 853.991 26.6386 853.848 26.9104C853.705 27.182 853.633 27.482 853.638 27.7851C853.63 28.0914 853.699 28.3953 853.839 28.672C853.979 28.9485 854.186 29.1901 854.444 29.3769C854.982 29.7835 855.703 29.9867 856.609 29.9866Z" fill="#1C1C1C"/>
<path d="M867.227 32.0097V17.5797H870.544V20.0789C871.386 18.2542 872.839 17.3417 874.903 17.3416C876.124 17.3416 877.135 17.7185 877.936 18.4722C878.737 19.2259 879.136 20.2375 879.136 21.5069C879.127 22.2667 878.989 23.0202 878.725 23.7383L875.598 23.4409C875.662 23.0465 875.704 22.6493 875.724 22.2508C875.724 20.7632 875.071 20.0194 873.766 20.0193C872.881 20.0193 872.138 20.4606 871.538 21.3432C870.938 22.2259 870.638 23.3912 870.638 24.8394V32.0097H867.227Z" fill="#1C1C1C"/>
<path d="M774.929 19.7874C777.472 18.4572 780.954 16.635 780.954 11.3315H776.737C776.737 14.2988 775.204 15.1014 772.882 16.3162C770.339 17.647 766.857 19.4684 766.857 24.7724H771.074C771.074 21.8049 772.607 21.0023 774.929 19.7874Z" fill="#1C1C1C"/>
<path d="M782.227 18.5687C782.227 21.5361 780.693 22.3387 778.371 23.5534C775.829 24.8836 772.347 26.7056 772.347 32.0094H776.563C776.563 29.042 778.097 28.2395 780.418 27.0246C782.961 25.6944 786.443 23.8726 786.443 18.5687H782.227Z" fill="#1C1C1C"/>
</g>
<g clip-path="url(#clip5_6463_109227)">
<path d="M972.507 19.4664H961.788L971.071 14.4449L969.23 11.4562L959.946 16.4777L965.304 7.78071L962.115 6.0556L956.756 14.7504V4.70958H953.072V14.7515L947.712 6.0556L944.522 7.78071L949.88 16.4755L940.599 11.4562L938.757 14.4449L948.039 19.4664H937.32V22.9177H948.038L938.757 27.9392L940.597 30.9279L949.881 25.9064L944.522 34.6034L947.711 36.3285L953.072 27.6326V37.6734H956.756V27.4173L962.214 36.2735L965.205 34.6561L959.746 25.7976L969.228 30.9268L971.07 27.9381L961.788 22.9166H972.506V19.4664H972.507ZM954.914 25.8833C954.256 25.8834 953.605 25.7621 952.997 25.5263C952.39 25.2905 951.838 24.9449 951.372 24.5092C950.907 24.0735 950.538 23.5562 950.287 22.9868C950.035 22.4175 949.905 21.8072 949.905 21.1909C949.905 20.5747 950.035 19.9644 950.286 19.395C950.538 18.8256 950.907 18.3082 951.372 17.8724C951.837 17.4365 952.389 17.0908 952.996 16.8549C953.604 16.619 954.255 16.4975 954.912 16.4974C956.241 16.4973 957.514 16.9916 958.454 17.8716C959.393 18.7516 959.921 19.9452 959.921 21.1898C959.921 22.4345 959.394 23.6282 958.455 24.5084C957.515 25.3886 956.242 25.8832 954.914 25.8833Z" fill="#1C1C1C"/>
<path d="M982.004 33.2484V9.13426H986.727V33.2484H982.004ZM1027.3 16.861H1031.81V18.8608C1032.77 17.262 1035.01 16.3951 1036.92 16.3951C1039.31 16.3951 1041.22 17.362 1042.11 19.1256C1043.49 17.1258 1045.34 16.3951 1047.65 16.3951C1050.88 16.3951 1053.97 18.2268 1053.97 22.6231V33.2484H1049.39V23.523C1049.39 21.7572 1048.47 20.4244 1046.3 20.4244C1044.27 20.4244 1043.07 21.8913 1043.07 23.657V33.2495H1038.38V23.523C1038.38 21.7572 1037.42 20.4244 1035.29 20.4244C1033.23 20.4244 1032.02 21.8583 1032.02 23.657V33.2495H1027.3V16.861ZM997.4 33.7231C992.079 33.7231 988.226 30.0234 988.226 25.0547C988.226 20.1651 992.067 16.3786 997.4 16.3786C1002.76 16.3786 1006.57 20.2002 1006.57 25.0547C1006.57 29.9883 1002.72 33.7231 997.4 33.7231ZM997.4 20.3892C996.08 20.391 994.815 20.8833 993.882 21.7581C992.949 22.633 992.425 23.819 992.424 25.0558C992.425 26.2926 992.949 27.4786 993.882 28.3534C994.815 29.2283 996.08 29.7206 997.4 29.7224C998.72 29.7203 999.984 29.2279 1000.92 28.353C1001.85 27.4782 1002.37 26.2924 1002.37 25.0558C1002.37 23.8192 1001.85 22.6334 1000.92 21.7585C999.984 20.8837 998.72 20.3912 997.4 20.3892ZM1016.66 33.7231C1011.34 33.7231 1007.49 30.0234 1007.49 25.0547C1007.49 20.1651 1011.33 16.3786 1016.66 16.3786C1022.02 16.3786 1025.83 20.2002 1025.83 25.0547C1025.83 29.9883 1021.98 33.7231 1016.66 33.7231ZM1016.66 20.3332C1015.33 20.3352 1014.05 20.8333 1013.1 21.7182C1012.16 22.6031 1011.63 23.8026 1011.63 25.0536C1011.63 26.3046 1012.16 27.5041 1013.1 28.389C1014.05 29.2739 1015.33 29.772 1016.66 29.774C1018 29.772 1019.28 29.2739 1020.22 28.389C1021.16 27.5041 1021.69 26.3046 1021.69 25.0536C1021.69 23.8026 1021.16 22.6031 1020.22 21.7182C1019.28 20.8333 1018 20.3352 1016.66 20.3332Z" fill="#1C1C1C"/>
</g>
<g clip-path="url(#clip6_6463_109227)">
<path d="M1118.13 18.9384C1122.9 17.39 1123.71 13.3564 1123.11 9.64779C1123.11 9.51397 1123.23 9.41839 1123.35 9.45662C1127.92 11.5594 1133.05 16.1474 1133.05 23.0294C1133.05 28.3056 1128.71 32.97 1122.39 32.97C1120.14 33.0665 1117.92 32.4537 1116.08 31.2284C1114.24 30.0031 1112.88 28.2351 1112.22 26.2034C1111.57 24.1717 1111.65 21.992 1112.45 20.0084C1113.26 18.0248 1114.74 16.3502 1116.67 15.2489C1116.79 15.1725 1116.96 15.2489 1116.96 15.3828C1117.02 16.0901 1117.22 17.8679 1118.05 18.9384H1118.13Z" fill="#1C1C1C"/>
<path d="M1146.49 28.7834L1146.83 28.4011L1147.91 31.6127L1147.77 31.7465C1146.95 32.4538 1145.74 32.817 1144.17 32.817H1144.11C1142.69 32.817 1141.58 32.4347 1140.8 31.7274C1140.03 31.0009 1139.63 29.9113 1139.63 28.5349V19.7795H1136.89V16.2429H1139.63V11.9799H1143.85V16.2429H1147.2V19.7795H1143.83V27.6746C1143.83 28.0379 1143.93 29.204 1145.11 29.204C1145.72 29.204 1146.28 28.9937 1146.49 28.7643V28.7834ZM1148.72 32.4538V16.262H1152.94V32.4538H1148.72ZM1150.81 9.64771C1151.31 9.64773 1151.8 9.7874 1152.22 10.0491C1152.63 10.3109 1152.96 10.6829 1153.15 11.1185C1153.35 11.554 1153.4 12.0335 1153.3 12.4965C1153.2 12.9595 1152.96 13.3853 1152.61 13.7202C1152.26 14.0552 1151.81 14.2842 1151.32 14.3786C1150.83 14.4729 1150.32 14.4283 1149.85 14.2504C1149.39 14.0725 1148.99 13.7692 1148.71 13.3787C1148.43 12.9883 1148.28 12.5282 1148.27 12.0564C1148.27 10.7565 1149.43 9.64771 1150.81 9.64771ZM1164.29 15.8606C1167.94 15.8606 1169.95 17.734 1169.95 21.1559V32.4347H1165.73V22.1117C1165.65 20.2765 1164.71 19.4354 1162.73 19.4354C1160.94 19.4354 1159.5 20.4677 1158.77 21.3471V32.4347H1154.55V16.2812H1158.77V18.0017C1159.99 16.8929 1161.93 15.8988 1164.29 15.8988V15.8606ZM1184 17.9443V10.3359H1188.22V32.4729H1184V30.7906C1183.35 31.4324 1182.57 31.9444 1181.71 32.2959C1180.85 32.6474 1179.92 32.8312 1178.98 32.8361C1174.38 32.8361 1171.29 29.4334 1171.29 24.3675C1171.29 19.2825 1174.38 15.8797 1178.98 15.8797C1179.92 15.8838 1180.85 16.069 1181.72 16.424C1182.58 16.7791 1183.35 17.2964 1184 17.9443ZM1184 21.3662C1183.53 20.789 1182.93 20.3179 1182.24 19.9873C1181.55 19.6566 1180.79 19.4746 1180.02 19.4545C1177.4 19.4545 1175.65 21.4235 1175.65 24.3675C1175.65 27.2923 1177.4 29.2613 1180.02 29.2613C1181.54 29.2613 1183.21 28.4967 1184 27.3879V21.3662ZM1198.08 15.8797C1203.08 15.8797 1206.55 19.5119 1206.55 24.6733V25.763H1193.78C1194.21 28.0379 1196.11 29.4907 1198.71 29.4907C1200.36 29.4907 1202.16 28.8216 1203.2 27.8467L1203.48 27.6173L1205.49 30.3318L1205.29 30.5039C1203.39 32.0921 1200.91 32.9276 1198.37 32.8361C1193.09 32.8361 1189.38 29.3378 1189.38 24.3484C1189.33 23.2468 1189.53 22.1488 1189.95 21.1202C1190.37 20.0916 1191.01 19.1537 1191.82 18.3628C1192.64 17.5719 1193.62 16.9442 1194.69 16.5175C1195.77 16.0908 1196.93 15.8739 1198.1 15.8797H1198.08ZM1193.76 22.7617H1202.43C1202.18 20.3339 1200.05 19.2251 1198.08 19.2251C1195.12 19.2251 1194 21.3279 1193.76 22.7808V22.7617ZM1216.76 15.8797H1217.06V19.8942L1216.7 19.8368C1216.39 19.7795 1216.01 19.7413 1215.62 19.7413C1214.26 19.7413 1212.37 20.6397 1211.66 21.5956V32.4347H1207.44V16.262H1211.68V18.059C1213.08 16.6826 1214.93 15.8797 1216.76 15.8797Z" fill="#1C1C1C"/>
</g>
</mask>
<g mask="url(#mask0_6463_109227)">
<rect x="-13.2129" y="-20.8148" width="1246.8" height="78.147" fill="url(#paint0_linear_6463_109227)"/>
</g>
<defs>
<linearGradient id="paint0_linear_6463_109227" x1="-13.2129" y1="18.2587" x2="1233.59" y2="18.2587" gradientUnits="userSpaceOnUse">
<stop stop-color="#3E3E3E" stop-opacity="0"/>
<stop offset="0.125" stop-color="#3E3E3E"/>
<stop offset="0.87" stop-color="#3E3E3E"/>
<stop offset="0.98" stop-color="#3E3E3E" stop-opacity="0"/>
</linearGradient>
<clipPath id="clip0_6463_109227">
<rect width="128" height="45.2075" fill="white"/>
</clipPath>
<clipPath id="clip1_6463_109227">
<rect width="169" height="45.2075" fill="white" transform="translate(185.465)"/>
</clipPath>
<clipPath id="clip2_6463_109227">
<rect width="127" height="45.2075" fill="white" transform="translate(411.928)"/>
</clipPath>
<clipPath id="clip3_6463_109227">
<rect width="113" height="45.2075" fill="white" transform="translate(596.393)"/>
</clipPath>
<clipPath id="clip4_6463_109227">
<rect width="113" height="45.2075" fill="white" transform="translate(766.857)"/>
</clipPath>
<clipPath id="clip5_6463_109227">
<rect width="117" height="45.2075" fill="white" transform="translate(937.32)"/>
</clipPath>
<clipPath id="clip6_6463_109227">
<rect width="106" height="45.2075" fill="white" transform="translate(1111.79)"/>
</clipPath>
</defs>
</svg>
