<svg width="1042" height="43" viewBox="0 0 1042 43" fill="none" xmlns="http://www.w3.org/2000/svg">
<g clip-path="url(#clip0_6463_109256)">
<path fill-rule="evenodd" clip-rule="evenodd" d="M8.73382 24.104L21.0264 13.2163C21.8616 12.4766 22.9729 12.0698 24.1574 12.0698C25.341 12.0698 26.4523 12.4762 27.2866 13.2159L28.2443 14.0642L30.1602 12.3672L29.2025 11.519C27.857 10.3273 26.0654 9.67099 24.1565 9.67099C22.2485 9.67138 20.4564 10.3277 19.111 11.5197L6.81836 22.4071L8.73382 24.104Z" fill="#3E3E3E"/>
<path fill-rule="evenodd" clip-rule="evenodd" d="M25.1805 16.8328L23.2555 15.1384L10.9052 26.01C9.17085 27.5366 6.34891 27.537 4.615 26.0107C2.88065 24.4841 2.88065 21.9998 4.615 20.4731L15.2722 11.0927L13.3472 9.39862L2.69048 18.7791C-0.10516 21.2399 -0.10516 25.2443 2.69048 27.7048C4.04229 28.8947 5.84237 29.5504 7.75944 29.5504C9.67695 29.5504 11.4779 28.8943 12.8297 27.7044L25.1805 16.8328Z" fill="#3E3E3E"/>
<path fill-rule="evenodd" clip-rule="evenodd" d="M37.3998 18.8689C36.0484 17.679 34.2483 17.0236 32.3304 17.0236C30.4128 17.024 28.6119 17.6793 27.26 18.8697L14.9101 29.7411L16.8342 31.4355L29.185 20.5637C30.9198 19.0371 33.7413 19.0374 35.4752 20.5633C36.3139 21.3016 36.7758 22.2844 36.7758 23.3316C36.7758 24.3792 36.3139 25.3624 35.4752 26.1007L24.8184 35.4813L26.7434 37.1754L37.3998 27.7951C40.1959 25.3343 40.1959 21.3298 37.3998 18.8689Z" fill="#3E3E3E"/>
<path fill-rule="evenodd" clip-rule="evenodd" d="M31.3571 22.47L19.0647 33.3577C17.3381 34.8863 14.53 34.887 12.8042 33.3581L11.8465 32.5099L9.93066 34.2068L10.8884 35.0551C12.2338 36.2467 14.0254 36.903 15.9347 36.903C17.8427 36.9026 19.6343 36.2464 20.9801 35.0543L33.2725 24.1669L31.3571 22.47Z" fill="#3E3E3E"/>
<path fill-rule="evenodd" clip-rule="evenodd" d="M50.8486 26.122C51.0072 26.8167 51.3787 27.3606 51.9625 27.7525C52.5457 28.1451 53.3133 28.3411 54.2651 28.3411C55.2017 28.3411 55.9257 28.1483 56.4375 27.7622C56.9494 27.3765 57.2051 26.8684 57.2051 26.2378C57.2051 25.9292 57.1367 25.6687 56.9999 25.4564C56.8627 25.2442 56.6719 25.0642 56.4271 24.916C56.1814 24.7687 55.8791 24.6427 55.5188 24.5401C55.1586 24.4371 54.7548 24.3278 54.3078 24.212L53.1408 23.9227C52.4486 23.7556 51.8287 23.553 51.2812 23.3147C50.7331 23.0768 50.2649 22.7969 49.8759 22.4753C49.4869 22.1538 49.1911 21.7841 48.9894 21.3658C48.7877 20.9479 48.6866 20.4619 48.6866 19.9091C48.6866 19.3302 48.8164 18.7964 49.0761 18.3074C49.3353 17.8191 49.7029 17.4004 50.1786 17.0532C50.6543 16.706 51.2306 16.4327 51.9084 16.2329C52.5854 16.0342 53.349 15.9343 54.1998 15.9343C55.7998 15.9343 57.0679 16.2718 58.0053 16.9471C58.9419 17.6227 59.4895 18.5262 59.6485 19.6583L57.0539 19.8512C56.8949 19.2723 56.5782 18.8221 56.1025 18.5006C55.6269 18.1791 54.9639 18.0181 54.1135 18.0181C53.3207 18.0181 52.7008 18.1822 52.2543 18.5103C51.8069 18.8384 51.5835 19.2598 51.5835 19.7742C51.5835 20.07 51.6488 20.3173 51.7786 20.5167C51.9084 20.7166 52.0953 20.8899 52.3406 21.0377C52.5854 21.1858 52.8847 21.3176 53.2375 21.4331C53.5908 21.5489 53.9907 21.6718 54.4376 21.8001L55.5406 22.1087C56.2319 22.3016 56.8557 22.5041 57.4103 22.7164C57.9652 22.9286 58.4374 23.1829 58.8265 23.4788C59.2159 23.7746 59.5152 24.1284 59.7238 24.5401C59.9329 24.9518 60.0375 25.4599 60.0375 26.0645C60.0375 26.7079 59.8933 27.2965 59.6053 27.8299C59.3165 28.364 58.9136 28.8173 58.3943 29.1902C57.8755 29.5634 57.2595 29.853 56.5456 30.0583C55.832 30.2639 55.0431 30.3673 54.1784 30.3673C52.5784 30.3673 51.245 30.033 50.1786 29.3639C49.1118 28.6949 48.4562 27.6852 48.2109 26.3343L50.8486 26.122Z" fill="#3E3E3E"/>
<path fill-rule="evenodd" clip-rule="evenodd" d="M71.1982 18.2809C70.4205 18.2809 69.7251 18.409 69.1128 18.6644C68.5001 18.9202 67.9815 19.2746 67.5569 19.7282C67.1315 20.1821 66.807 20.7192 66.5836 21.3384C66.3607 21.9587 66.2492 22.6328 66.2492 23.3611C66.2492 24.0898 66.3642 24.767 66.595 25.3935C66.8249 26.0196 67.1532 26.5626 67.5782 27.0231C68.0028 27.4828 68.5219 27.8439 69.1346 28.1062C69.7464 28.3678 70.4418 28.4986 71.22 28.4986C71.9982 28.4986 72.6932 28.3744 73.3059 28.1252C73.9177 27.876 74.4368 27.5277 74.8618 27.08C75.2868 26.633 75.6147 26.0928 75.8451 25.4605C76.0754 24.8278 76.1908 24.1343 76.1908 23.3805C76.1908 22.639 76.0754 21.9552 75.8451 21.3291C75.6147 20.7034 75.2868 20.1662 74.8618 19.7189C74.4368 19.2719 73.9142 18.9202 73.2945 18.6644C72.6753 18.409 71.9764 18.2809 71.1982 18.2809ZM71.22 16.2067C72.387 16.2067 73.4535 16.3828 74.4189 16.7349C75.3839 17.0871 76.2052 17.5797 76.8828 18.2135C77.5595 18.8478 78.0851 19.6063 78.4604 20.4897C78.8349 21.3732 79.0222 22.3399 79.0222 23.3898C79.0222 24.4787 78.8241 25.4612 78.4282 26.3381C78.0311 27.2154 77.4663 27.9739 76.7312 28.6139L78.8062 30.7845V31.4567H76.1695L74.7211 29.8821C74.2169 30.0868 73.676 30.2466 73.1003 30.3619C72.5238 30.4772 71.9041 30.5349 71.2418 30.5349C70.0456 30.5349 68.9687 30.3584 68.0106 30.0067C67.0522 29.6545 66.2379 29.1615 65.5681 28.5276C64.898 27.8938 64.3793 27.1388 64.0122 26.2611C63.6447 25.3842 63.4609 24.4272 63.4609 23.3898C63.4609 22.3399 63.6447 21.3767 64.0122 20.499C64.3793 19.6225 64.9014 18.8668 65.579 18.2329C66.2557 17.599 67.0735 17.1029 68.032 16.7442C68.9904 16.3862 70.053 16.2067 71.22 16.2067Z" fill="#3E3E3E"/>
<path fill-rule="evenodd" clip-rule="evenodd" d="M89.6039 28.3803C90.7096 28.3803 91.571 28.0751 92.1885 27.464C92.8055 26.853 93.1145 25.9173 93.1145 24.6567V16.2067H95.8284V24.7146C95.8284 25.7179 95.6848 26.5762 95.3975 27.2903C95.1098 28.004 94.701 28.5894 94.1699 29.0461C93.6387 29.5029 92.9852 29.8372 92.2102 30.0494C91.4347 30.2617 90.566 30.3674 89.6039 30.3674C88.6271 30.3674 87.7549 30.2617 86.9872 30.0494C86.2187 29.8372 85.5691 29.5029 85.0379 29.0461C84.5068 28.5894 84.0976 28.004 83.8099 27.2903C83.5226 26.5762 83.3794 25.7179 83.3794 24.7146V16.2067H86.0933V24.6567C86.0933 25.9173 86.4018 26.853 87.0193 27.464C87.6368 28.0751 88.4982 28.3803 89.6039 28.3803Z" fill="#3E3E3E"/>
<path fill-rule="evenodd" clip-rule="evenodd" d="M103.603 24.1593H108.796L107.942 21.9974C107.605 21.1507 107.336 20.4614 107.131 19.9307C106.926 19.3996 106.744 18.9319 106.583 18.5273H105.904C105.816 18.742 105.729 18.9572 105.641 19.1719C105.553 19.387 105.455 19.6273 105.345 19.8925C105.235 20.1581 105.115 20.4614 104.984 20.803C104.852 21.1438 104.692 21.5424 104.502 21.9974L103.603 24.1593ZM98.6294 29.4313L104.217 16.4789H108.358L113.879 29.4313V30.095H111.163L109.585 26.2073H102.771L101.193 30.095H98.6294V29.4313Z" fill="#3E3E3E"/>
<path fill-rule="evenodd" clip-rule="evenodd" d="M119.994 22.6991H122.359C123.401 22.6991 124.222 22.5329 124.822 22.2012C125.423 21.8692 125.723 21.3274 125.723 20.575C125.723 19.8108 125.419 19.2786 124.811 18.9779C124.204 18.6775 123.387 18.527 122.359 18.527H119.994V22.6991ZM129.13 30.095H126.504L121.752 24.7472H119.994V30.095H117.303V16.4789H122.359C123.155 16.4789 123.911 16.5263 124.627 16.6211C125.343 16.7158 125.99 16.934 126.569 17.2752C127.798 17.9829 128.414 19.0512 128.414 20.4791C128.414 21.0989 128.309 21.6392 128.099 22.1008C127.889 22.5619 127.61 22.9536 127.264 23.2761C126.916 23.5986 126.515 23.8607 126.06 24.0624C125.604 24.265 125.13 24.4167 124.638 24.5175L129.13 29.4309V30.095Z" fill="#3E3E3E"/>
<path fill-rule="evenodd" clip-rule="evenodd" d="M132.553 16.4789H142.671V18.5648H135.229V22.13H142.148V24.178H135.229V28.0088H142.823V30.095H132.553V16.4789Z" fill="#3E3E3E"/>
<path fill-rule="evenodd" clip-rule="evenodd" d="M148.885 26.122C149.043 26.8167 149.415 27.3606 149.998 27.7525C150.582 28.1451 151.35 28.3411 152.301 28.3411C153.238 28.3411 153.962 28.1483 154.474 27.7622C154.985 27.3765 155.241 26.8684 155.241 26.2378C155.241 25.9292 155.173 25.6687 155.036 25.4564C154.899 25.2442 154.708 25.0642 154.463 24.916C154.218 24.7687 153.915 24.6427 153.555 24.5401C153.194 24.4371 152.791 24.3278 152.344 24.212L151.177 23.9227C150.485 23.7556 149.865 23.553 149.317 23.3147C148.769 23.0768 148.301 22.7969 147.912 22.4753C147.523 22.1538 147.227 21.7841 147.025 21.3658C146.824 20.9479 146.723 20.4619 146.723 19.9091C146.723 19.3302 146.853 18.7964 147.112 18.3074C147.371 17.8191 147.739 17.4004 148.215 17.0532C148.69 16.706 149.267 16.4327 149.944 16.2329C150.621 16.0342 151.385 15.9343 152.236 15.9343C153.836 15.9343 155.104 16.2718 156.041 16.9471C156.978 17.6227 157.526 18.5262 157.684 19.6583L155.09 19.8512C154.931 19.2723 154.614 18.8221 154.139 18.5006C153.663 18.1791 153 18.0181 152.149 18.0181C151.357 18.0181 150.737 18.1822 150.29 18.5103C149.843 18.8384 149.62 19.2598 149.62 19.7742C149.62 20.07 149.685 20.3173 149.815 20.5167C149.944 20.7166 150.131 20.8899 150.377 21.0377C150.621 21.1858 150.921 21.3176 151.274 21.4331C151.627 21.5489 152.027 21.6718 152.474 21.8001L153.576 22.1087C154.268 22.3016 154.892 22.5041 155.447 22.7164C156.001 22.9286 156.474 23.1829 156.862 23.4788C157.252 23.7746 157.551 24.1284 157.76 24.5401C157.969 24.9518 158.074 25.4599 158.074 26.0645C158.074 26.7079 157.929 27.2965 157.641 27.8299C157.352 28.364 156.949 28.8173 156.43 29.1902C155.911 29.5634 155.295 29.853 154.582 30.0583C153.868 30.2639 153.079 30.3673 152.214 30.3673C150.615 30.3673 149.281 30.033 148.215 29.3639C147.148 28.6949 146.492 27.6852 146.247 26.3343L148.885 26.122Z" fill="#3E3E3E"/>
<path fill-rule="evenodd" clip-rule="evenodd" d="M164.877 22.8128H167.524C168.009 22.8128 168.454 22.7784 168.859 22.7093C169.263 22.6405 169.616 22.5247 169.917 22.3616C170.219 22.1988 170.454 21.9795 170.624 21.7036C170.793 21.4281 170.877 21.0896 170.877 20.6884C170.877 20.275 170.793 19.9277 170.624 19.6457C170.454 19.3637 170.222 19.1413 169.928 18.9782C169.634 18.815 169.285 18.6993 168.881 18.6305C168.476 18.5617 168.039 18.5269 167.568 18.5269H164.877V22.8128ZM162.119 16.4789H167.899C168.972 16.4789 169.873 16.5863 170.601 16.8014C171.329 17.0162 171.917 17.313 172.366 17.6928C172.814 18.0719 173.138 18.5174 173.337 19.0298C173.535 19.5414 173.634 20.0946 173.634 20.6888C173.634 21.3972 173.498 22.0131 173.226 22.5377C172.954 23.0623 172.561 23.4952 172.046 23.8368C171.531 24.178 170.906 24.434 170.171 24.6048C169.436 24.7756 168.605 24.8608 167.679 24.8608H164.877V30.095H162.119V16.4789Z" fill="#3E3E3E"/>
<path fill-rule="evenodd" clip-rule="evenodd" d="M179.231 24.1593H184.424L183.57 21.9974C183.233 21.1507 182.963 20.4614 182.759 19.9307C182.554 19.3996 182.371 18.9319 182.211 18.5273H181.532C181.444 18.742 181.357 18.9572 181.269 19.1719C181.181 19.387 181.082 19.6273 180.973 19.8925C180.863 20.1581 180.743 20.4614 180.612 20.803C180.48 21.1438 180.32 21.5424 180.13 21.9974L179.231 24.1593ZM174.257 29.4313L179.845 16.4789H183.986L189.507 29.4313V30.095H186.791L185.213 26.2073H178.399L176.821 30.095H174.257V29.4313Z" fill="#3E3E3E"/>
<path fill-rule="evenodd" clip-rule="evenodd" d="M206.002 26.495C205.755 27.0266 205.431 27.5269 205.031 27.9962C204.63 28.4654 204.146 28.8766 203.579 29.2277C203.011 29.5787 202.352 29.8564 201.603 30.0606C200.853 30.2649 200.02 30.3674 199.103 30.3674C197.938 30.3674 196.88 30.1899 195.926 29.8354C194.973 29.4816 194.159 28.9909 193.485 28.3648C192.812 27.738 192.291 26.9918 191.924 26.1248C191.557 25.2582 191.374 24.3185 191.374 23.3057C191.374 22.2938 191.557 21.3541 191.924 20.4871C192.291 19.6204 192.815 18.8704 193.496 18.2375C194.177 17.6053 194.995 17.1081 195.948 16.7478C196.902 16.3868 197.967 16.2067 199.147 16.2067C200.864 16.2067 202.302 16.5551 203.459 17.2508C204.616 17.9464 205.435 18.8704 205.915 20.022L203.142 20.4962C202.764 19.8006 202.236 19.2529 201.559 18.8544C200.882 18.4559 200.064 18.2566 199.103 18.2566C198.332 18.2566 197.644 18.3859 197.04 18.6444C196.436 18.9029 195.926 19.259 195.512 19.713C195.097 20.1666 194.78 20.7024 194.562 21.3204C194.344 21.9381 194.235 22.5997 194.235 23.3057C194.235 24.0244 194.347 24.6895 194.573 25.301C194.798 25.9129 195.126 26.4419 195.555 26.8897C195.984 27.3372 196.505 27.6868 197.116 27.9388C197.727 28.1912 198.426 28.3174 199.212 28.3174C200.231 28.3174 201.071 28.1021 201.734 27.6718C202.396 27.2416 202.909 26.7165 203.273 26.0961L206.002 26.495Z" fill="#3E3E3E"/>
<path fill-rule="evenodd" clip-rule="evenodd" d="M209.562 16.3146H219.738V18.4206H212.254V22.0204H219.213V24.0882H212.254V27.9561H219.891V30.0625H209.562V16.3146Z" fill="#3E3E3E"/>
</g>
<g clip-path="url(#clip1_6463_109256)">
<path fill-rule="evenodd" clip-rule="evenodd" d="M388.888 27.7175C384.23 34.6276 376.853 32.6226 374.637 31.0527C373.694 31.6124 372.041 32.8394 369.836 32.6978C365.141 32.3962 363.46 26.5252 363.46 26.5252C363.493 26.5487 362.061 26.9577 361.287 26.9504C361.277 28.6721 359.576 32.7849 354.986 32.7323C349.835 32.6735 348.787 25.9586 348.787 25.9586C348.787 25.9586 348.275 26.5814 346.326 27.2018C346.424 25.879 346.352 32.5309 340.178 32.6287C335.298 32.7061 333.98 25.855 333.98 25.855C333.98 25.855 333.133 26.6246 331.492 26.8916C331.597 25.5473 331.427 32.6513 325.253 32.6287C321.08 32.6136 319.654 28.4085 319.765 27.8248C319.906 27.081 318.355 32.7333 314.302 32.6453C312.629 32.6023 311.382 31.5426 310.6 30.1299C309.552 31.1787 308.031 32.6453 306.325 32.6453C303.263 32.6453 301.913 30.4041 302.141 24.0028C302.161 23.2436 302.098 22.9449 301.236 22.8314C300.718 22.7558 300.188 22.6127 299.627 22.5372C299.447 23.0622 297.922 32.4745 292.678 32.6531C290.919 32.713 289.957 31.3795 289.167 30.3898C287.956 31.7916 286.357 32.6978 284.08 32.6978C280.222 32.6978 277.594 29.969 277.594 26.603C277.594 23.2368 280.222 20.5083 284.08 20.5083C284.762 20.5083 284.953 20.5939 285.576 20.7529C284.295 10.544 287.321 8.94851 289.969 8.94851C292.51 8.94851 296.852 14.1101 290.743 27.2028C292.099 31.108 295.023 30.8871 296.429 22.8481C296.715 21.2139 295.95 19.0088 297.139 18.701C299.314 18.1386 299.544 19.8261 300.564 20.1073C301.642 20.4045 302.271 20.3755 303.306 20.5646C305.074 20.8668 305.764 21.698 305.549 23.5493C305.29 25.8917 304.838 29.3012 306.218 29.7167C307.213 30.0185 309.03 28.2128 309.348 27.2247C309.667 26.2367 309.734 25.8985 309.762 25.1738C309.805 23.625 309.859 22.4896 310.161 21.3183C310.29 20.865 310.438 20.5648 311.024 20.5443C311.506 20.5336 312.388 20.4065 312.776 20.6709C313.293 21.0111 313.229 21.3563 313.169 22.2648C312.568 35.218 317.199 28.7516 318.58 23.574C318.089 17.7194 318.426 9.05572 322.619 8.91041C324.8 8.83484 325.764 10.3634 325.87 11.5043C326.17 14.7268 324.49 20.0647 322.28 23.6544C321.017 30.979 327.801 32.4272 328.886 26.5808C327.111 25.8423 325.193 22.8534 326.754 21.3969C327.63 20.5794 331.276 21.7538 331.336 24.315C333.124 23.8965 333.363 23.013 333.388 23.1594C332.896 17.3047 333.352 9.05579 337.545 8.91049C339.726 8.83492 340.689 10.3635 340.795 11.5044C341.095 14.7268 339.415 20.0647 337.206 23.6545C335.943 30.979 342.727 32.4274 343.812 26.5809C342.498 26.359 339.724 23.1799 341.324 21.3969C342.18 20.4442 345.812 22.4256 346.219 24.3999C347.937 23.9744 348.17 23.119 348.195 23.263C347.703 17.4085 348.159 9.15955 352.353 9.01424C354.533 8.93868 355.497 10.4672 355.603 11.6082C355.903 14.8306 354.223 20.1686 352.013 23.7583C350.751 31.0829 357.535 32.5309 358.619 26.6845C356.814 26.4214 354.247 23.0647 356.313 21.3475C357.138 20.6614 360.291 22.4424 361.03 24.4743C362.055 24.4398 362.694 24.1302 362.831 24.099C361.193 17.226 362.412 8.97943 366.923 8.91059C369.361 8.87342 371.744 10.0639 370.698 16.6026C369.7 22.8414 366.11 25.4595 366.118 25.4995C366.327 26.247 368.169 32.5019 372.808 29.2016C372.567 28.7258 372.327 28.2398 372.193 27.6511C371.424 24.2213 372.934 20.3475 377.038 19.7214C379.39 19.3627 381.605 20.3645 381.956 22.623C382.532 26.3186 378.718 28.995 377.268 29.5755C376.618 29.2527 383.156 32.9214 387.036 25.5691C387.261 25.1493 387.532 25.1849 387.883 25.4012C388.132 25.5541 389.545 26.7258 388.888 27.7175ZM286.886 25.6949C286.688 25.1785 286.283 24.0405 286.14 23.5475C285.351 22.9471 284.788 22.8496 283.775 22.8496C281.524 22.8496 280.2 24.6704 280.2 26.6338C280.2 28.597 281.643 30.4181 283.894 30.4181C285.844 30.4181 287.329 29.2577 287.781 27.615C287.464 26.9746 287.15 26.3861 286.886 25.6949ZM289.913 11.6509C288.332 11.6509 287.796 14.9519 287.9 17.7679C287.992 20.2577 288.787 22.4496 289.199 23.4317C289.304 23.5548 289.285 23.4747 289.378 23.6052C292.124 18.3409 290.985 11.6509 289.913 11.6509ZM322.845 11.7546C320.801 11.5495 320.814 18.9997 321.068 20.6709C322.13 19.1849 323.974 12.1547 322.845 11.7546ZM337.771 11.7546C335.727 11.5495 335.74 18.9997 335.994 20.6709C337.055 19.1849 338.899 12.1547 337.771 11.7546ZM352.578 11.8582C350.534 11.6531 350.547 19.1034 350.801 20.7747C351.863 19.2886 353.707 12.2583 352.578 11.8582ZM367.148 11.3184C363.964 11.878 364.705 21.1687 365.189 22.7981C368.94 18.29 369.018 11.1491 367.148 11.3184ZM379.083 22.9286C378.922 22.3363 378.112 22.0197 377.553 22.0977C375.954 22.2888 374.403 24.0313 375.004 26.6842C375.137 27.275 375.472 27.8189 375.466 27.8008C379.045 25.7001 379.349 24.0448 379.083 22.9286ZM311.65 18.4937C311.193 18.4938 310.747 18.3752 310.367 18.1531C309.987 17.931 309.69 17.6153 309.515 17.2459C309.34 16.8764 309.295 16.4699 309.384 16.0777C309.473 15.6855 309.693 15.3252 310.016 15.0424C310.339 14.7597 310.751 14.5671 311.199 14.489C311.647 14.411 312.112 14.451 312.534 14.6041C312.957 14.7571 313.317 15.0163 313.571 15.3488C313.825 15.6813 313.961 16.0722 313.961 16.4721C313.961 16.7375 313.901 17.0004 313.785 17.2457C313.669 17.4909 313.499 17.7138 313.284 17.9015C313.069 18.0892 312.815 18.2382 312.535 18.3398C312.254 18.4414 311.954 18.4937 311.65 18.4937Z" fill="#3E3E3E"/>
</g>
<g clip-path="url(#clip2_6463_109256)">
<path d="M457.425 12.1227C463.393 12.1227 468.255 16.3768 468.255 21.6417C468.255 26.9067 463.393 31.1608 457.425 31.1608C451.456 31.1608 446.594 26.9488 446.594 21.6417C446.594 16.3347 451.456 12.1227 457.425 12.1227ZM542.338 11.9121V28.5915C542.338 29.8551 542.915 30.192 544.023 30.4448L544.071 30.6554H537.957V28.5915C537.235 30.1078 535.743 31.0344 533.818 31.0344C530.544 31.0344 528.378 28.423 528.378 24.548C528.378 22.3578 529.1 20.5045 530.448 19.1146C531.748 17.7667 533.529 17.0507 535.502 17.0507C536.465 17.0507 537.283 17.2192 537.957 17.5983V15.3238C537.957 14.8184 537.813 14.4814 537.524 14.2287C537.139 13.9339 536.513 13.8075 535.55 13.8917H535.502V13.6811L542.338 11.9121ZM565.54 17.0928V28.5915C565.54 29.8551 566.117 30.192 567.224 30.4448V30.6554H561.111V28.5494C560.389 30.0657 558.801 31.0344 557.019 31.0344C554.901 31.0344 553.554 30.192 553.024 28.5494L552.928 28.1282C552.832 27.707 552.783 27.2858 552.783 26.8646V20.7151C552.783 19.3673 552.446 18.9461 551.099 18.8619H551.051V18.6513L557.164 17.0928V26.7803C557.164 28.2124 557.886 29.0127 559.234 29.0127C560.052 29.0127 560.726 28.6336 561.111 28.0018V20.7151C561.111 19.3252 560.822 18.904 559.715 18.8197H559.667V18.6091L565.54 17.0928ZM521.398 17.0507C523.035 17.0507 524.623 17.5561 525.682 18.4407C526.886 19.4515 527.512 20.9257 527.56 22.8632V22.9053H518.366C518.173 25.6852 520.147 27.9597 522.746 28.0439C524.623 28.1703 526.26 27.1594 527.175 25.5168L527.415 25.601C526.886 28.6757 524.816 30.9923 521.206 30.9923C517.114 30.9923 514.804 28.0018 514.707 24.2532V23.2844C514.9 21.6418 515.477 20.1676 516.488 19.0725C517.114 18.3985 517.836 17.8931 518.703 17.5561C519.425 17.2192 520.484 17.0507 521.35 17.0507H521.398ZM585.083 17.0928C587.683 17.0928 589.271 18.5249 589.271 20.9678V28.8021C589.271 29.7287 589.752 30.192 590.956 30.4448H591.004V30.6554H584.843V21.0942C584.843 19.5779 584.217 18.8197 582.917 18.8197C581.858 18.8197 581.329 19.4936 581.04 20.0833C581.088 20.3782 581.136 20.673 581.136 20.9678V28.9285C581.136 29.8972 581.473 30.2342 582.436 30.4448H582.484V30.6554H576.756V21.0942C576.756 19.5779 576.082 18.8197 574.83 18.8197C573.819 18.8197 573.29 19.4515 573.049 19.957V28.9706C573.049 29.9393 573.386 30.2763 574.349 30.4869H574.397V30.6975H568.669V20.673C568.669 19.3252 568.283 18.904 566.984 18.8197H566.936V18.6091L573.049 17.1349V19.3673C573.675 17.9352 575.119 17.0928 576.948 17.0928C579.018 17.0928 580.462 17.9773 580.943 19.5779C581.569 18.0616 583.158 17.0928 585.083 17.0928ZM497.282 12.7545L503.01 24.5059L508.738 12.7545H514.9L514.852 12.9651L514.782 12.9787C513.72 13.1904 513.167 13.5377 513.167 14.692V29.0127C513.263 29.9393 513.841 30.2342 514.852 30.4448H514.9V30.6554H507.054V30.4448H507.102C508.113 30.2342 508.69 29.9393 508.786 29.0127V15.0711L501.229 30.6132H500.796L493.431 15.4923V28.6757C493.431 29.8551 494.008 30.192 495.116 30.4026H495.164V30.6132H490.639V30.4026H490.687C491.794 30.192 492.372 29.8551 492.372 28.6757V14.692C492.372 13.5127 491.794 13.1757 490.687 12.9651H490.639V12.7545H497.282ZM549.799 17.0928V28.5915L549.8 28.6693C549.823 29.8691 550.4 30.1973 551.484 30.4448L551.532 30.6554H545.419V20.7151C545.419 19.3673 545.082 18.9461 543.734 18.8619H543.686V18.6513L549.799 17.0928ZM474.754 12.6703C477.69 12.6703 480.145 16.7137 480.145 21.6417C480.145 26.6119 477.738 30.6132 474.754 30.6132C471.769 30.6132 469.362 26.6119 469.362 21.6417C469.362 16.6716 471.769 12.6703 474.754 12.6703ZM483.033 13.5969C484.14 13.5969 484.959 17.2192 484.959 21.6417C484.959 26.0643 484.092 29.6866 483.033 29.6866C481.985 29.6866 481.125 26.1364 481.108 21.7742L481.108 21.6417C481.108 17.2192 481.974 13.5969 483.033 13.5969ZM536.224 17.8089C534.299 17.8089 533.096 20.0412 533.096 23.495C533.096 25.1377 533.432 26.5697 534.01 27.5385C534.54 28.4651 535.31 28.9706 536.176 28.9706C537.043 28.9706 537.668 28.6336 537.957 28.0018V18.7355C537.62 18.1458 536.995 17.8089 536.224 17.8089ZM521.35 17.851C519.617 17.851 518.606 19.6621 518.462 22.1893V22.2314H523.709C523.805 20.2518 523.42 18.9461 522.698 18.3143C522.313 18.0195 521.88 17.851 521.35 17.851ZM547.44 12.0385C548.836 12.0385 549.895 12.9651 549.895 14.1866C549.895 15.408 548.836 16.3347 547.44 16.3347C546.044 16.3347 544.985 15.408 544.985 14.1866C544.985 12.9651 546.044 12.0385 547.44 12.0385Z" fill="#3E3E3E"/>
</g>
<g clip-path="url(#clip3_6463_109256)">
<path d="M652.737 26.2225C653.041 26.9291 653.463 27.5333 654.001 28.0351C654.539 28.537 655.177 28.921 655.915 29.1873C656.652 29.4536 657.454 29.5867 658.32 29.5867C659.163 29.5867 659.953 29.4484 660.69 29.1718C661.427 28.8953 662.071 28.5062 662.621 28.0044C663.171 27.5026 663.598 26.9035 663.903 26.2071C664.207 25.5107 664.359 24.7324 664.359 23.8721V10.5996H668.046V32.1059H664.394V30.1089C663.575 30.8667 662.609 31.4505 661.498 31.8602C660.386 32.2698 659.186 32.4746 657.899 32.4746C656.588 32.4746 655.365 32.2749 654.229 31.8755C653.094 31.4761 652.111 30.9078 651.28 30.1704C650.449 29.433 649.793 28.5472 649.314 27.5128C648.834 26.4785 648.594 25.3264 648.594 24.0564V10.5996H652.281V23.8721C652.281 24.7324 652.433 25.5158 652.737 26.2225Z" fill="#3E3E3E"/>
<path d="M674.401 10.5996V18.434C675.22 17.7172 676.168 17.1488 677.245 16.7289C678.322 16.309 679.492 16.0991 680.756 16.0991C682.067 16.0991 683.296 16.3141 684.443 16.7442C685.59 17.1743 686.585 17.7581 687.428 18.4955C688.27 19.2329 688.938 20.1033 689.429 21.107C689.921 22.1106 690.166 23.1757 690.166 24.3022C690.166 25.4287 689.921 26.4887 689.429 27.482C688.938 28.4754 688.27 29.3408 687.428 30.0781C686.585 30.8155 685.59 31.3993 684.443 31.8294C683.296 32.2595 682.067 32.4745 680.756 32.4745C679.492 32.4745 678.316 32.2646 677.228 31.8447C676.139 31.4248 675.185 30.8564 674.366 30.1396V32.1059H670.855V10.5996H674.401ZM674.805 26.4221C675.121 27.0776 675.56 27.6511 676.122 28.1427C676.683 28.6342 677.339 29.0234 678.088 29.3102C678.837 29.5969 679.645 29.7403 680.511 29.7403C681.353 29.7403 682.149 29.5969 682.898 29.3102C683.647 29.0234 684.297 28.6343 684.847 28.1427C685.397 27.6512 685.836 27.0776 686.164 26.4221C686.491 25.7667 686.655 25.0601 686.655 24.3022C686.655 23.5444 686.491 22.8326 686.164 22.1669C685.836 21.5012 685.397 20.9227 684.847 20.4311C684.297 19.9396 683.647 19.5555 682.898 19.279C682.149 19.0025 681.353 18.8642 680.511 18.8642C679.668 18.8642 678.872 19.0024 678.123 19.279C677.374 19.5555 676.719 19.9396 676.157 20.4311C675.595 20.9227 675.15 21.5012 674.822 22.1669C674.495 22.8326 674.331 23.5444 674.331 24.3022C674.331 25.0601 674.489 25.7667 674.805 26.4221Z" fill="#3E3E3E"/>
<path d="M692.167 21.1377C692.636 20.1545 693.279 19.2892 694.099 18.5416C694.918 17.794 695.889 17.2052 697.013 16.775C698.137 16.3449 699.354 16.1299 700.665 16.1299C701.952 16.1299 703.146 16.3347 704.246 16.7443C705.346 17.154 706.294 17.7224 707.09 18.4495C707.886 19.1766 708.506 20.0369 708.951 21.0302C709.396 22.0236 709.618 23.1041 709.618 24.2716V25.2855H695.047C695.164 25.9204 695.398 26.5093 695.749 27.052C696.1 27.5947 696.539 28.0659 697.066 28.4653C697.592 28.8647 698.189 29.1771 698.856 29.4023C699.524 29.6276 700.232 29.7403 700.981 29.7403C703.111 29.7403 704.831 28.9722 706.142 27.436L708.705 29.095C707.816 30.1397 706.716 30.959 705.405 31.5529C704.094 32.1469 702.619 32.4439 700.981 32.4439C699.646 32.4439 698.4 32.239 697.241 31.8294C696.083 31.4198 695.076 30.8463 694.222 30.1089C693.367 29.3715 692.694 28.5061 692.203 27.5128C691.711 26.5194 691.465 25.4389 691.465 24.2715C691.465 23.1655 691.699 22.1209 692.167 21.1377ZM697.101 19.9241C696.106 20.6512 695.445 21.619 695.117 22.8275H706.037C705.733 21.619 705.083 20.6512 704.088 19.9241C703.093 19.197 701.929 18.8335 700.594 18.8335C699.26 18.8335 698.096 19.197 697.101 19.9241Z" fill="#3E3E3E"/>
<path d="M716.254 20.2774C715.505 20.9943 715.131 21.9672 715.131 23.1962V32.106H711.584V16.4371H715.096V18.3727C715.54 17.7377 716.12 17.2359 716.834 16.8672C717.548 16.4985 718.396 16.3141 719.379 16.3141H720.608V19.2021H719.134C717.963 19.2022 717.003 19.5606 716.254 20.2774Z" fill="#3E3E3E"/>
</g>
<g clip-path="url(#clip4_6463_109256)">
<path d="M792.857 34.2826C791.188 34.5392 789.488 34.6161 787.731 34.821L782.369 21.0809V35.4107C780.699 35.5645 779.176 35.7695 777.594 35.9746V9.72461H782.047L788.141 24.6186V9.72461H792.857V34.2826ZM802.086 19.3377C803.902 19.3377 806.686 19.2607 808.356 19.2607V23.3622C806.275 23.3622 803.844 23.3622 802.086 23.4391V29.5403C804.84 29.3865 807.594 29.1813 810.377 29.1044V33.0519L797.398 33.9493V9.72461H810.377V13.8262H802.086V19.3377ZM827.809 13.8263H822.945V32.6934C821.363 32.6934 819.781 32.6934 818.258 32.7446V13.8263H813.395V9.72461H827.809L827.809 13.8263ZM835.426 19.0557H841.842V23.1572H835.426V32.4627H830.826V9.72461H843.922V13.8262H835.426V19.0557ZM851.539 28.8738C854.205 28.9249 856.9 29.1046 859.508 29.2326V33.2829C855.318 33.0521 851.129 32.8217 846.852 32.7446V9.72461H851.539V28.8738ZM863.463 33.5649C864.957 33.642 866.539 33.7189 868.062 33.8725V9.72461H863.463V33.5649ZM888.6 9.72461L882.652 22.2088L888.6 35.9746C886.842 35.7695 885.084 35.4875 883.326 35.2311L879.957 27.6434L876.53 34.6161C874.83 34.3595 873.189 34.2826 871.491 34.0775L877.526 22.0548L872.076 9.72461H877.115L880.191 16.6204L883.473 9.72461H888.6V9.72461Z" fill="#3E3E3E"/>
</g>
<path fill-rule="evenodd" clip-rule="evenodd" d="M986.554 14.3008C988.308 14.0092 990.062 13.7022 991.799 13.4106C991.781 20.2097 991.781 26.9933 991.799 33.777C990.062 33.4701 988.308 33.1478 986.572 32.8561C986.519 32.2576 986.554 31.659 986.554 31.0605C986.537 25.4893 986.537 19.9027 986.554 14.3008ZM1028.98 17.3089C1027.51 17.3396 1026 17.7387 1024.86 18.5675C1023.91 19.2428 1023.23 20.1636 1022.84 21.1766C1022.42 22.2662 1022.34 23.448 1022.49 24.5991C1022.67 25.919 1023.27 27.2235 1024.32 28.1905C1025.14 28.9578 1026.27 29.495 1027.44 29.7252C1028.91 30.0168 1030.51 29.9708 1031.9 29.4029C1032.91 29.0039 1033.75 28.2979 1034.35 27.4691C1035.02 26.5329 1035.35 25.4432 1035.46 24.3382C1035.58 23.095 1035.42 21.8212 1034.89 20.6547C1034.44 19.6111 1033.61 18.6749 1032.51 18.0763C1031.46 17.5085 1030.21 17.2629 1028.98 17.3089ZM1028.21 13.0269C1030.76 12.8735 1033.42 13.2879 1035.61 14.4696C1036.84 15.1296 1037.89 16.0044 1038.72 17.0327C1039.44 17.9536 1039.96 18.9818 1040.33 20.0562C1040.72 21.2073 1040.86 22.4197 1040.88 23.6168C1040.88 25.8116 1040.3 28.0523 1038.91 29.9094C1037.7 31.5669 1035.86 32.8561 1033.75 33.5314C1032.39 33.9765 1030.95 34.1914 1029.49 34.2221C1026.76 34.2681 1023.93 33.6849 1021.7 32.2729C1019.81 31.0912 1018.42 29.3569 1017.72 27.4231C1017.23 26.1339 1017.04 24.7526 1017.06 23.3866C1017.07 21.0077 1017.86 18.5828 1019.56 16.7104C1020.95 15.1603 1022.93 14.0552 1025.09 13.5027C1026.09 13.2265 1027.14 13.073 1028.21 13.0269ZM953.017 13.9325C954.28 13.2879 955.736 12.9809 957.192 12.9962C959.507 13.073 961.735 14.1166 963.085 15.7742C963.769 14.9608 964.717 14.3315 965.734 13.8864C968.032 12.9195 970.821 12.766 973.188 13.6102C974.294 14.0092 975.293 14.6231 976.065 15.4212C976.854 16.2346 977.381 17.2169 977.696 18.2298C978.03 19.2888 978.117 20.3938 978.082 21.4835C978.082 25.5813 978.082 29.6945 978.082 33.7924C976.346 33.4854 974.592 33.1631 972.838 32.8715C972.82 28.9425 972.838 25.0135 972.82 21.0845C972.838 20.179 972.469 19.2581 971.733 18.6288C970.943 17.9229 969.786 17.5852 968.663 17.6006C967.663 17.5852 966.646 17.8461 965.857 18.3986C964.962 19.0125 964.489 20.0255 964.489 21.0231C964.489 25.2744 964.489 29.541 964.489 33.7924C962.735 33.4854 960.981 33.1631 959.226 32.8715C959.209 31.613 959.226 30.3391 959.209 29.0653C959.209 26.4255 959.209 23.7857 959.209 21.1305C959.244 20.225 958.893 19.2888 958.157 18.6442C957.508 18.061 956.613 17.7233 955.718 17.6312C954.859 17.5545 953.982 17.6159 953.175 17.9075C952.333 18.2145 951.614 18.7977 951.228 19.519C950.965 20.0101 950.842 20.5473 950.842 21.0845C950.842 24.3996 950.842 27.7147 950.842 31.0298C950.86 31.9506 950.825 32.8715 950.86 33.7924C949.106 33.5007 947.369 33.1631 945.633 32.8868C945.598 32.3497 945.65 31.7972 945.598 31.2753C945.615 30.6614 945.615 30.0475 945.598 29.4336C945.65 28.8658 945.598 28.2825 945.615 27.7147C945.615 26.0878 945.615 24.461 945.615 22.8341C945.598 21.8212 945.633 20.7929 945.598 19.7799C945.615 19.2121 945.615 18.6288 945.598 18.061C945.633 16.9253 945.615 15.8049 945.615 14.6691C945.633 14.5617 945.528 14.3929 945.668 14.3315C947.404 14.0399 949.123 13.7483 950.86 13.4567C950.842 14.1473 950.86 14.838 950.86 15.5286C951.474 14.884 952.193 14.3315 953.017 13.9325ZM1010.23 13.3032C1011.08 13.1804 1011.93 13.0576 1012.78 12.9349C1012.78 14.531 1012.78 16.1272 1012.78 17.7233C1011.93 17.8615 1011.09 17.9996 1010.25 18.1224C1008.99 18.3065 1007.67 18.6288 1006.73 19.4269C1005.95 20.0562 1005.59 20.977 1005.52 21.8826C1005.46 22.5272 1005.5 23.1718 1005.5 23.8317C1005.5 27.1468 1005.5 30.4619 1005.5 33.777C1004.04 33.5161 1002.59 33.2552 1001.11 33.0096C1000.83 32.9636 1000.57 32.9022 1000.27 32.8715C1000.2 32.5185 1000.25 32.1655 1000.24 31.8125C1000.24 28.2825 1000.24 24.7679 1000.24 21.238C1000.27 20.1329 1000.48 19.0125 1001.01 17.9842C1001.52 16.956 1002.41 16.0811 1003.46 15.4365C1004.87 14.5924 1006.5 14.0859 1008.15 13.7022C1008.85 13.5641 1009.51 13.3953 1010.23 13.3032ZM988.659 4.50898C989.501 4.41689 990.413 4.49363 991.132 4.93872C991.957 5.41449 992.413 6.27396 992.43 7.11809C992.483 7.36365 992.413 7.62456 992.413 7.87012C992.325 8.63751 991.869 9.3742 991.115 9.80393C990.325 10.2644 989.308 10.3411 988.378 10.1723C987.607 10.0341 986.887 9.60441 986.449 9.00585C985.94 8.29986 985.853 7.40969 986.045 6.59627C986.221 5.82888 986.817 5.12289 987.624 4.78524C987.957 4.64711 988.308 4.55502 988.659 4.50898Z" fill="#3E3E3E"/>
<defs>
<clipPath id="clip0_6463_109256">
<rect width="220" height="42" fill="white" transform="translate(0.59375 0.974609)"/>
</clipPath>
<clipPath id="clip1_6463_109256">
<rect width="112" height="42" fill="white" transform="translate(277.594 0.974609)"/>
</clipPath>
<clipPath id="clip2_6463_109256">
<rect width="145" height="42" fill="white" transform="translate(446.594 0.974609)"/>
</clipPath>
<clipPath id="clip3_6463_109256">
<rect width="72" height="42" fill="white" transform="translate(648.594 0.974609)"/>
</clipPath>
<clipPath id="clip4_6463_109256">
<rect width="111" height="42" fill="white" transform="translate(777.594 0.974609)"/>
</clipPath>
</defs>
</svg>
