<svg width="117" height="110" viewBox="0 0 117 110" fill="none" xmlns="http://www.w3.org/2000/svg">
<path fill-rule="evenodd" clip-rule="evenodd" d="M47.5485 109.914H39.4724C17.6923 109.914 0 91.9245 0 69.7781V40.1701C0 17.9897 17.6923 0 39.4724 0H47.5485H50.2285H52.9098V2.72571C52.9098 18.7393 59.2092 31.9589 71.6072 41.9759C80.9559 49.5057 90.3047 52.2995 90.4052 52.2995L90.4722 57.5125C77.7772 61.5974 68.0416 68.9735 61.5018 79.4604C65.7909 86.9322 68.1415 95.3161 68.5326 104.463H76.6337C95.4316 104.463 110.745 88.8922 110.745 69.7781V40.1701C110.745 21.0561 95.4316 5.48547 76.6337 5.48547H68.4161C68.1968 8.07404 67.6376 12.284 66.2122 17.2742L64.4697 22.5552C62.8613 20.7495 61.722 18.5689 61.1525 16.1839L61.0519 15.775C63.163 8.34747 63.1964 2.79382 63.1964 2.72571V0H65.8776H68.5577H76.6337C98.4138 0 116.106 17.9897 116.106 40.136V69.744C116.106 91.8904 98.4138 109.88 76.6337 109.88V109.914H68.5912H65.8776H63.2299V107.188C63.2299 99.1708 61.6193 91.7674 58.4161 85.1453C57.1213 87.8961 56.025 90.7899 55.1548 93.7984C52.9768 101.362 52.9098 107.086 52.9098 107.154V109.88V109.914H50.2285H47.5485ZM47.689 104.429H39.4724C20.6744 104.429 5.36133 88.8581 5.36133 69.7441V40.136C5.36133 21.022 20.6744 5.45142 39.4724 5.45142H47.6063C48.0369 15.5053 50.8275 23.7387 54.6261 30.3831C48.0862 40.8895 38.3427 48.278 25.6329 52.3677L25.7 57.5806C25.834 57.6146 38.567 61.4307 49.0549 72.0269L50.9415 73.9114L50.9314 73.9348H50.965L50.9415 73.9114C51.6781 72.2172 52.7133 70.6921 54.0142 69.4033L52.8079 68.1768C46.2402 61.5669 39.0361 57.4102 33.9429 55.0252C43.9064 50.5929 51.9017 43.9993 57.8359 35.3387C61.1395 39.8738 64.8378 43.4806 68.2899 46.2689C73.3162 50.3574 78.3423 53.1172 82.1622 54.923C70.9036 59.9315 62.158 67.6998 56.0596 78.0916C53.5129 82.4526 51.4689 87.2227 49.9946 92.2993C48.4924 97.4466 47.9126 101.784 47.689 104.429Z" fill="#014F59" fill-opacity="0.17"/>
</svg>
