<svg width="215" height="90" viewBox="0 0 215 90" fill="none" xmlns="http://www.w3.org/2000/svg">
<g opacity="0.8">
<rect y="0.204102" width="214.28" height="89.5281" rx="44.764" fill="#FFD02B" fill-opacity="0.5"/>
<path d="M113.641 44.5727V35.5477H116.966V44.9227C116.966 45.9893 116.808 46.9227 116.491 47.7227C116.191 48.5227 115.758 49.1977 115.191 49.7477C114.625 50.2977 113.958 50.7477 113.191 51.0977C112.441 51.431 111.616 51.6727 110.716 51.8227C109.833 51.9727 108.9 52.0477 107.916 52.0477C106.9 52.0477 105.933 51.9727 105.016 51.8227C104.1 51.6727 103.258 51.431 102.491 51.0977C101.741 50.7477 101.091 50.2977 100.541 49.7477C99.9915 49.1977 99.5581 48.5227 99.2415 47.7227C98.9415 46.9227 98.7915 45.9893 98.7915 44.9227V35.5477H102.116V44.5727C102.116 45.8393 102.366 46.806 102.866 47.4727C103.366 48.1227 104.05 48.5727 104.916 48.8227C105.8 49.056 106.8 49.1727 107.916 49.1727C109 49.1727 109.966 49.056 110.816 48.8227C111.683 48.5727 112.366 48.1227 112.866 47.4727C113.383 46.806 113.641 45.8393 113.641 44.5727ZM128.688 52.0227C127.588 52.0227 126.646 51.831 125.863 51.4477C125.096 51.0477 124.471 50.531 123.988 49.8977C123.505 49.2477 123.146 48.5393 122.913 47.7727C122.68 47.006 122.563 46.256 122.563 45.5227C122.563 44.606 122.671 43.756 122.888 42.9727C123.121 42.1893 123.48 41.506 123.963 40.9227C124.446 40.3227 125.071 39.856 125.838 39.5227C126.621 39.1893 127.571 39.0227 128.688 39.0227C129.938 39.0227 131.063 39.2977 132.063 39.8477C133.063 40.3977 133.855 41.1643 134.438 42.1477C135.038 43.1143 135.338 44.2393 135.338 45.5227C135.338 46.8393 135.038 47.9893 134.438 48.9727C133.838 49.9393 133.038 50.6893 132.038 51.2227C131.038 51.756 129.921 52.0227 128.688 52.0227ZM127.638 49.4977C128.521 49.4977 129.288 49.331 129.938 48.9977C130.605 48.6643 131.113 48.206 131.463 47.6227C131.83 47.0227 132.013 46.3227 132.013 45.5227C132.013 44.3227 131.63 43.356 130.863 42.6227C130.113 41.8893 129.038 41.5227 127.638 41.5227C126.755 41.5227 125.946 41.681 125.213 41.9977C124.496 42.3143 123.93 42.7727 123.513 43.3727C123.096 43.956 122.888 44.6727 122.888 45.5227C122.888 46.3227 123.08 47.0227 123.463 47.6227C123.846 48.206 124.396 48.6643 125.113 48.9977C125.83 49.331 126.671 49.4977 127.638 49.4977ZM119.638 39.2977H122.738L122.888 42.5977V56.7227H119.638V39.2977ZM136.479 47.5977H139.479C139.662 48.1643 140.037 48.631 140.604 48.9977C141.187 49.3477 141.945 49.5227 142.879 49.5227C143.512 49.5227 144.004 49.4643 144.354 49.3477C144.704 49.231 144.945 49.0643 145.079 48.8477C145.212 48.6143 145.279 48.356 145.279 48.0727C145.279 47.7227 145.17 47.456 144.954 47.2727C144.737 47.0727 144.404 46.9143 143.954 46.7977C143.504 46.681 142.929 46.5727 142.229 46.4727C141.529 46.356 140.854 46.2143 140.204 46.0477C139.554 45.881 138.979 45.6643 138.479 45.3977C137.979 45.1143 137.579 44.7643 137.279 44.3477C136.995 43.9143 136.854 43.3893 136.854 42.7727C136.854 42.1727 136.995 41.6393 137.279 41.1727C137.579 40.706 137.987 40.3143 138.504 39.9977C139.037 39.681 139.654 39.4393 140.354 39.2727C141.07 39.106 141.837 39.0227 142.654 39.0227C143.887 39.0227 144.912 39.206 145.729 39.5727C146.545 39.9227 147.154 40.4227 147.554 41.0727C147.97 41.706 148.179 42.4393 148.179 43.2727H145.304C145.17 42.656 144.904 42.2143 144.504 41.9477C144.104 41.6643 143.487 41.5227 142.654 41.5227C141.837 41.5227 141.22 41.6477 140.804 41.8977C140.387 42.1477 140.179 42.4893 140.179 42.9227C140.179 43.2727 140.304 43.5477 140.554 43.7477C140.82 43.931 141.204 44.081 141.704 44.1977C142.22 44.3143 142.862 44.4393 143.629 44.5727C144.279 44.706 144.895 44.856 145.479 45.0227C146.079 45.1893 146.612 45.406 147.079 45.6727C147.545 45.9227 147.912 46.2643 148.179 46.6977C148.462 47.1143 148.604 47.6477 148.604 48.2977C148.604 49.0977 148.37 49.7727 147.904 50.3227C147.454 50.8727 146.804 51.2977 145.954 51.5977C145.104 51.881 144.087 52.0227 142.904 52.0227C141.854 52.0227 140.945 51.9143 140.179 51.6977C139.429 51.4643 138.804 51.1727 138.304 50.8227C137.804 50.456 137.412 50.0727 137.129 49.6727C136.862 49.256 136.679 48.8643 136.579 48.4977C136.479 48.131 136.445 47.831 136.479 47.5977ZM150.565 34.2977H153.815V51.7227H150.565V34.2977ZM164.29 39.2977L156.89 45.8227L156.965 43.8227L164.865 51.7227H160.74L153.89 44.7477L159.865 39.2977H164.29ZM169.55 33.8477V36.6977H165.775V33.8477H169.55ZM166.025 39.2977H169.275V51.7227H166.025V39.2977ZM172.015 34.2977H175.265V51.7227H172.015V34.2977ZM178.052 34.2977H181.302V51.7227H178.052V34.2977Z" fill="#917B2E"/>
<circle cx="50.2678" cy="44.9677" r="29.3535" fill="#FFD02B"/>
<path d="M39.6355 44.7443L46.7541 51.9238L60.6355 37.9238" stroke="#907B2E" stroke-width="4" stroke-linecap="round"/>
</g>
</svg>
