<svg width="56" height="56" viewBox="0 0 56 56" fill="none" xmlns="http://www.w3.org/2000/svg">
<path d="M18.3854 51.374L18.3248 51.2737C17.3327 49.6337 15.5554 48.6316 13.6387 48.6316H13.3804C10.1028 48.6316 7.44569 45.9745 7.44569 42.6969V41.8753C7.44569 39.9948 6.45453 38.2536 4.83762 37.2935L4.04436 36.8225C1.84714 35.5178 1.19543 32.6362 2.61742 30.513C3.57983 29.076 3.62358 27.2119 2.72965 25.7314L2.53518 25.4093C1.12353 23.0713 1.82813 20.0346 4.12504 18.5571L4.76829 18.1433C6.43705 17.0699 7.44569 15.2217 7.44569 13.2376V13.125C7.44569 9.82945 10.1172 7.15789 13.4128 7.15789H13.7004C15.5825 7.15789 17.3313 6.18668 18.3261 4.58902L18.6227 4.11269C20.0403 1.83604 23.0661 1.15152 25.354 2.55093C26.897 3.49474 28.864 3.49841 30.3969 2.53828C32.6333 1.13752 35.5821 1.81912 36.977 4.05923L37.3177 4.60647C38.3057 6.19328 40.0427 7.15789 41.912 7.15789H42.5196C45.7656 7.15789 48.397 9.78932 48.397 13.0353V13.392C48.397 15.267 49.3954 17 51.0173 17.9407L51.1285 18.0052C53.5433 19.4057 54.3774 22.5107 53.0256 24.9531C52.12 26.5891 52.1856 28.6103 53.2117 30.1735C54.7476 32.5132 54.0811 35.6564 51.7278 37.1715L51.0652 37.598C49.4021 38.6687 48.397 40.5261 48.397 42.5041C48.397 45.6317 45.9535 48.2408 42.8307 48.414L41.5862 48.483C39.9091 48.576 38.386 49.4906 37.5158 50.9272L37.3055 51.2745C35.9827 53.4584 33.1525 54.1772 30.9478 52.8894C29.4562 52.018 27.6057 52.0401 26.1353 52.9467L25.7855 53.1625C23.2503 54.7257 19.9269 53.9224 18.3854 51.374Z" fill="#014F59"/>
<path d="M17 28.3333L22.7435 34.2591C23.1364 34.6645 23.7867 34.6645 24.1796 34.2591L38 20" stroke="#E1FF26" stroke-width="3"/>
</svg>
