<svg width="192" height="179" viewBox="0 0 192 179" fill="none" xmlns="http://www.w3.org/2000/svg">
<path d="M102.271 91.3763C100.798 83.6013 97.9717 74.8521 93.878 66.0787C82.7381 42.2043 66.1141 26.3934 56.7473 30.764C47.3804 35.1347 48.8178 58.0317 59.9577 81.9061C71.0976 105.78 88.0389 122.39 97.4057 118.019C102.042 115.856 103.954 108.957 103.351 99.6454" stroke="#014F59"/>
<path d="M124.464 74.4799C124.464 74.2251 124.462 73.9708 124.458 73.717M29.0931 72.6527C29.0703 73.259 29.0588 73.8681 29.0588 74.4799C29.0588 76.0591 29.1355 77.6203 29.2854 79.1601M29.0931 72.6527C30.0534 47.154 51.0278 26.7773 76.7614 26.7773C87.7417 26.7773 97.8555 30.4871 105.918 36.7218M29.0931 72.6527L105.918 36.7218M105.918 36.7218C108.377 38.6233 110.645 40.7596 112.688 43.0971M34.2606 96.1638L120.555 55.5365M34.2606 96.1638C38.2667 104 44.3765 110.583 51.8451 115.166M34.2606 96.1638C32.5832 92.8826 31.2746 89.3815 30.3894 85.7152M120.555 55.5365C122.975 61.1235 124.357 67.2648 124.458 73.717M120.555 55.5365C119.443 52.9704 118.113 50.5212 116.587 48.2125M51.8451 115.166C59.0967 119.616 67.6294 122.183 76.7614 122.183C78.8489 122.183 80.905 122.048 82.9217 121.788M51.8451 115.166L101.853 91.4366M158.89 101.606C164.343 91.0681 168.573 70.0368 141.867 70.2137C135.467 70.256 129.658 71.5776 124.458 73.717M158.89 101.606C154.708 101.606 150.958 104.848 149.605 106.469M158.89 101.606C159.67 101.505 160.606 101.378 161.637 101.231M149.605 106.469C154.763 98.7295 161.985 82.1899 149.605 77.9512C142.386 75.4795 132.954 76.6128 124.047 80.8145M149.605 106.469C144.191 111.642 147.349 119.991 149.605 123.519M8.65863 103.336C10.9227 96.5973 17.5459 85.4581 29.2854 79.1601M14.8727 103.336C18.0548 94.5414 24.1116 89.0924 30.3894 85.7152M19.5035 118.02C20.715 117.5 23.1381 115.748 23.1381 112.892C23.1381 109.323 19.7631 107.505 19.5035 106.532C19.2439 105.558 16.9723 102.767 11.6501 102.767C5.41936 102.612 3.81841 107.938 3.79677 110.621C2.88805 110.621 0.876187 112.049 1.00599 114.774C1.10984 116.955 3.16945 117.414 4.18627 117.371C4.05644 117.803 3.97852 118.85 4.7055 119.577C5.61422 120.486 7.56125 120.421 8.65863 119.577C8.65863 120.616 9.31365 122.044 10.8064 122.109C12.0007 122.16 12.8184 121.005 13.0781 120.421C13.4458 121.048 14.6098 122.16 16.3232 121.589C20.5809 120.343 19.5251 114.71 18.465 112.049M149.605 123.519L189.323 100.989M149.605 123.519C148.585 126.448 151.438 125.303 152.993 124.364C164.821 117.589 188.844 103.794 190.308 102.82C191.773 101.845 190.261 101.193 189.323 100.989M176.086 98.3137C175.17 98.7011 173.587 99.1113 171.706 99.5099M176.086 98.3137L172.988 102.82M176.086 98.3137C177.667 97.6448 179.511 96.2405 181.458 95.1444M189.323 100.989C190.027 99.5341 191.012 96.2578 189.323 94.7933C186.762 92.7933 184.02 93.7022 181.458 95.1444M163.277 100.989C160.694 102.303 156.4 105.552 159.892 108.03C163.385 110.508 163.604 104.369 163.277 100.989ZM163.277 100.989C162.712 101.074 162.162 101.155 161.637 101.231M163.277 100.989C163.62 100.937 163.968 100.884 164.32 100.829M161.637 101.231C162.698 98.9909 165.497 94.7652 168.2 95.779C170.904 96.7929 166.74 99.5683 164.32 100.829M164.32 100.829C166.789 100.445 169.46 99.9857 171.706 99.5099M168.904 104.038L171.706 99.5099M178.48 100.829C178.604 99.3263 179.373 96.0851 181.458 95.1444M44.9871 142.593C54.794 144.128 76.1105 142.115 82.9217 121.788M44.9871 142.593C44.0628 139.236 40.1418 132.815 31.8523 133.982M44.9871 142.593L43.9655 148.285M82.9217 121.788C85.6553 121.436 88.3163 120.852 90.8846 120.057M43.9655 148.285C55.6886 150.336 81.4848 147.563 90.8846 120.057M43.9655 148.285L39.8598 158.231M90.8846 120.057C108.386 114.64 121.578 99.4206 124.047 80.8145M31.8523 133.982C31.7355 136.668 30.7334 152.614 30.2469 160.252M31.8523 133.982L30.2469 160.252M31.8523 133.982C31.3034 133.496 29.9763 132.815 29.0588 133.982C28.1412 135.15 27.5226 151.982 27.328 160.252C26.8095 165.883 26.2959 177.265 28.3899 177.741C30.4839 178.217 31.5706 176.737 31.8523 175.938M30.2469 160.252C29.8174 167.04 30.2469 175.938 31.8523 175.938M38.7516 160.916C38.221 161.396 37.4782 163.087 38.7516 166.013C40.3435 169.669 38.7713 176.983 31.8523 175.938M38.7516 160.916L39.8598 158.231M38.7516 160.916L35.0165 159.317M29.2854 79.1601C35.0571 76.0638 42.0654 74.1376 50.4003 74.4799C54.3178 74.4799 55.3985 79.9658 50.4003 80.236C47.5429 80.3905 38.7692 81.2072 30.3894 85.7152M124.047 80.8145C113.86 85.62 104.36 94.4391 99.6426 106.469C98.4019 109.363 92.1961 109.79 93.8947 104.038C97.5927 95.5212 107.962 80.504 124.458 73.717M112.688 43.0971C120.864 39.1183 134.087 28.8229 121.567 19.4726M112.688 43.0971C114.098 44.7101 115.402 46.4189 116.587 48.2125M116.587 48.2125C126.146 43.1033 141.33 29.2828 125.591 14.8741M120.056 1.86275C124.387 0.371065 125.721 5.78046 125.043 8.18476C125.624 8.68888 126.73 10.081 126.497 11.6167C125.892 16.1306 120.893 19.7022 118.47 20.9238C114.689 21.2146 110.791 20.3421 107.534 16.6775C104.928 13.7457 106.827 11.0756 108.103 10.107M122.251 6.49789C122.076 3.29859 118.47 -1.59347 115.858 2.6596M118.47 10.8024C119.517 8.78587 120.226 4.22932 114.689 2.1352C113.351 1.37903 110.733 2.54235 111.315 4.98546C109.919 4.63644 106.545 5.1018 107.534 8.70828C107.662 9.1776 107.857 9.64791 108.103 10.107M113.351 7.25406C114.979 8.59195 117.364 12.3729 115.387 14.1762C113.666 15.7448 109.745 13.176 108.103 10.107M36.3007 155.931L39.8598 158.231M43.9655 156.27C43.4501 153.865 41.6859 149.301 38.7516 150.279C35.0838 151.502 40.7434 156.27 43.9655 156.27Z" stroke="#014F59"/>
</svg>
